G04 #@! TF.FileFunction,Legend,Top*
%FSLAX46Y46*%
G04 Gerber Fmt 4.6, Leading zero omitted, Abs format (unit mm)*
G04 Created by KiCad (PCBNEW 4.0.6) date 10/09/17 23:58:00*
%MOMM*%
%LPD*%
G01*
G04 APERTURE LIST*
%ADD10C,0.100000*%
%ADD11C,0.250000*%
%ADD12C,0.187500*%
%ADD13C,0.125000*%
%ADD14C,2.500000*%
%ADD15C,1.800000*%
%ADD16C,0.300000*%
%ADD17C,0.150000*%
%ADD18C,0.200000*%
%ADD19C,0.500000*%
%ADD20C,0.375000*%
%ADD21C,0.120000*%
G04 APERTURE END LIST*
D10*
D11*
X160397619Y-98848214D02*
X160814286Y-98848214D01*
X160992857Y-99502976D02*
X160397619Y-99502976D01*
X160397619Y-98252976D01*
X160992857Y-98252976D01*
X161350000Y-98252976D02*
X161766666Y-99502976D01*
X162183333Y-98252976D01*
X162838095Y-98252976D02*
X163076191Y-98252976D01*
X163195238Y-98312500D01*
X163314286Y-98431548D01*
X163373810Y-98669643D01*
X163373810Y-99086310D01*
X163314286Y-99324405D01*
X163195238Y-99443452D01*
X163076191Y-99502976D01*
X162838095Y-99502976D01*
X162719048Y-99443452D01*
X162600000Y-99324405D01*
X162540476Y-99086310D01*
X162540476Y-98669643D01*
X162600000Y-98431548D01*
X162719048Y-98312500D01*
X162838095Y-98252976D01*
X163611905Y-99622024D02*
X164564286Y-99622024D01*
X165457143Y-99502976D02*
X164861905Y-99502976D01*
X164861905Y-98252976D01*
X165873810Y-98252976D02*
X165873810Y-99264881D01*
X165933334Y-99383929D01*
X165992858Y-99443452D01*
X166111905Y-99502976D01*
X166350001Y-99502976D01*
X166469048Y-99443452D01*
X166528572Y-99383929D01*
X166588096Y-99264881D01*
X166588096Y-98252976D01*
X167897620Y-99383929D02*
X167838096Y-99443452D01*
X167659525Y-99502976D01*
X167540477Y-99502976D01*
X167361905Y-99443452D01*
X167242858Y-99324405D01*
X167183334Y-99205357D01*
X167123810Y-98967262D01*
X167123810Y-98788690D01*
X167183334Y-98550595D01*
X167242858Y-98431548D01*
X167361905Y-98312500D01*
X167540477Y-98252976D01*
X167659525Y-98252976D01*
X167838096Y-98312500D01*
X167897620Y-98372024D01*
X168433334Y-99502976D02*
X168433334Y-98252976D01*
X168969048Y-99145833D02*
X169564286Y-99145833D01*
X168850001Y-99502976D02*
X169266667Y-98252976D01*
X169683334Y-99502976D01*
X170100001Y-99502976D02*
X170100001Y-98252976D01*
X170814287Y-99502976D01*
X170814287Y-98252976D01*
X160397619Y-100973214D02*
X160814286Y-100973214D01*
X160992857Y-101627976D02*
X160397619Y-101627976D01*
X160397619Y-100377976D01*
X160992857Y-100377976D01*
X161528571Y-101627976D02*
X161528571Y-100377976D01*
X161826190Y-100377976D01*
X162004762Y-100437500D01*
X162123809Y-100556548D01*
X162183333Y-100675595D01*
X162242857Y-100913690D01*
X162242857Y-101092262D01*
X162183333Y-101330357D01*
X162123809Y-101449405D01*
X162004762Y-101568452D01*
X161826190Y-101627976D01*
X161528571Y-101627976D01*
X162778571Y-101627976D02*
X162778571Y-100377976D01*
X163195238Y-100377976D02*
X163909523Y-100377976D01*
X163552380Y-101627976D02*
X163552380Y-100377976D01*
X164326190Y-101627976D02*
X164326190Y-100377976D01*
X165159523Y-100377976D02*
X165397619Y-100377976D01*
X165516666Y-100437500D01*
X165635714Y-100556548D01*
X165695238Y-100794643D01*
X165695238Y-101211310D01*
X165635714Y-101449405D01*
X165516666Y-101568452D01*
X165397619Y-101627976D01*
X165159523Y-101627976D01*
X165040476Y-101568452D01*
X164921428Y-101449405D01*
X164861904Y-101211310D01*
X164861904Y-100794643D01*
X164921428Y-100556548D01*
X165040476Y-100437500D01*
X165159523Y-100377976D01*
X166230952Y-101627976D02*
X166230952Y-100377976D01*
X166945238Y-101627976D01*
X166945238Y-100377976D01*
D12*
X146971429Y-92564286D02*
X146971429Y-91992857D01*
X147352381Y-92278571D02*
X146590476Y-92278571D01*
X146352381Y-91278572D02*
X146352381Y-91635715D01*
X146828571Y-91671429D01*
X146780952Y-91635715D01*
X146733333Y-91564286D01*
X146733333Y-91385715D01*
X146780952Y-91314286D01*
X146828571Y-91278572D01*
X146923810Y-91242857D01*
X147161905Y-91242857D01*
X147257143Y-91278572D01*
X147304762Y-91314286D01*
X147352381Y-91385715D01*
X147352381Y-91564286D01*
X147304762Y-91635715D01*
X147257143Y-91671429D01*
X146352381Y-91028571D02*
X147352381Y-90778571D01*
X146352381Y-90528571D01*
X146928571Y-88714286D02*
X146928571Y-89285715D01*
X146928571Y-86214286D02*
X146928571Y-86785715D01*
X146971429Y-85321429D02*
X146971429Y-84750000D01*
X147352381Y-85035714D02*
X146590476Y-85035714D01*
X147352381Y-84000000D02*
X147352381Y-84428572D01*
X147352381Y-84214286D02*
X146352381Y-84214286D01*
X146495238Y-84285715D01*
X146590476Y-84357143D01*
X146638095Y-84428572D01*
X146447619Y-83714286D02*
X146400000Y-83678572D01*
X146352381Y-83607143D01*
X146352381Y-83428572D01*
X146400000Y-83357143D01*
X146447619Y-83321429D01*
X146542857Y-83285714D01*
X146638095Y-83285714D01*
X146780952Y-83321429D01*
X147352381Y-83750000D01*
X147352381Y-83285714D01*
X146352381Y-83071428D02*
X147352381Y-82821428D01*
X146352381Y-82571428D01*
D13*
X184150000Y-110180953D02*
X184126190Y-110228572D01*
X184126190Y-110300000D01*
X184150000Y-110371429D01*
X184197619Y-110419048D01*
X184245238Y-110442857D01*
X184340476Y-110466667D01*
X184411905Y-110466667D01*
X184507143Y-110442857D01*
X184554762Y-110419048D01*
X184602381Y-110371429D01*
X184626190Y-110300000D01*
X184626190Y-110252381D01*
X184602381Y-110180953D01*
X184578571Y-110157143D01*
X184411905Y-110157143D01*
X184411905Y-110252381D01*
X184626190Y-109942857D02*
X184126190Y-109942857D01*
X184626190Y-109657143D01*
X184126190Y-109657143D01*
X184626190Y-109419047D02*
X184126190Y-109419047D01*
X184126190Y-109300000D01*
X184150000Y-109228571D01*
X184197619Y-109180952D01*
X184245238Y-109157143D01*
X184340476Y-109133333D01*
X184411905Y-109133333D01*
X184507143Y-109157143D01*
X184554762Y-109180952D01*
X184602381Y-109228571D01*
X184626190Y-109300000D01*
X184626190Y-109419047D01*
X186935714Y-67242856D02*
X186935714Y-66861904D01*
X187126190Y-67052380D02*
X186745238Y-67052380D01*
X186626190Y-66385713D02*
X186626190Y-66623808D01*
X186864286Y-66647618D01*
X186840476Y-66623808D01*
X186816667Y-66576189D01*
X186816667Y-66457142D01*
X186840476Y-66409523D01*
X186864286Y-66385713D01*
X186911905Y-66361904D01*
X187030952Y-66361904D01*
X187078571Y-66385713D01*
X187102381Y-66409523D01*
X187126190Y-66457142D01*
X187126190Y-66576189D01*
X187102381Y-66623808D01*
X187078571Y-66647618D01*
X186626190Y-66219047D02*
X187126190Y-66052380D01*
X186626190Y-65885714D01*
D14*
X175500000Y-66600000D02*
X178000000Y-66600000D01*
X157647000Y-114935000D02*
X160147000Y-114935000D01*
X147500000Y-66600000D02*
X155100000Y-66600000D01*
X160200000Y-66600000D02*
X167800000Y-66600000D01*
D15*
X185600000Y-87000000D02*
X185600000Y-74200000D01*
D16*
X120900000Y-92300000D02*
X122500000Y-92300000D01*
X120900000Y-97700000D02*
X120900000Y-92300000D01*
X132800000Y-97700000D02*
X120900000Y-97700000D01*
X132800000Y-92300000D02*
X132800000Y-97700000D01*
X131000000Y-92300000D02*
X132800000Y-92300000D01*
X123085714Y-93078571D02*
X123085714Y-91578571D01*
X123657142Y-91578571D01*
X123800000Y-91650000D01*
X123871428Y-91721429D01*
X123942857Y-91864286D01*
X123942857Y-92078571D01*
X123871428Y-92221429D01*
X123800000Y-92292857D01*
X123657142Y-92364286D01*
X123085714Y-92364286D01*
X124442857Y-91578571D02*
X124800000Y-93078571D01*
X125085714Y-92007143D01*
X125371428Y-93078571D01*
X125728571Y-91578571D01*
X127157143Y-93078571D02*
X126657143Y-92364286D01*
X126300000Y-93078571D02*
X126300000Y-91578571D01*
X126871428Y-91578571D01*
X127014286Y-91650000D01*
X127085714Y-91721429D01*
X127157143Y-91864286D01*
X127157143Y-92078571D01*
X127085714Y-92221429D01*
X127014286Y-92292857D01*
X126871428Y-92364286D01*
X126300000Y-92364286D01*
X128942857Y-93078571D02*
X128942857Y-91578571D01*
X129657143Y-93078571D02*
X129657143Y-91578571D01*
X130514286Y-93078571D01*
X130514286Y-91578571D01*
D13*
X127580952Y-64996190D02*
X127342857Y-64996190D01*
X127342857Y-64496190D01*
X127747619Y-64996190D02*
X127747619Y-64496190D01*
X128033333Y-64996190D01*
X128033333Y-64496190D01*
X128557143Y-64948571D02*
X128533333Y-64972381D01*
X128461905Y-64996190D01*
X128414286Y-64996190D01*
X128342857Y-64972381D01*
X128295238Y-64924762D01*
X128271429Y-64877143D01*
X128247619Y-64781905D01*
X128247619Y-64710476D01*
X128271429Y-64615238D01*
X128295238Y-64567619D01*
X128342857Y-64520000D01*
X128414286Y-64496190D01*
X128461905Y-64496190D01*
X128533333Y-64520000D01*
X128557143Y-64543810D01*
X128771429Y-64996190D02*
X128771429Y-64496190D01*
X128771429Y-64734286D02*
X129057143Y-64734286D01*
X129057143Y-64996190D02*
X129057143Y-64496190D01*
X184435714Y-67242856D02*
X184435714Y-66861904D01*
X184626190Y-67052380D02*
X184245238Y-67052380D01*
X184126190Y-66385713D02*
X184126190Y-66623808D01*
X184364286Y-66647618D01*
X184340476Y-66623808D01*
X184316667Y-66576189D01*
X184316667Y-66457142D01*
X184340476Y-66409523D01*
X184364286Y-66385713D01*
X184411905Y-66361904D01*
X184530952Y-66361904D01*
X184578571Y-66385713D01*
X184602381Y-66409523D01*
X184626190Y-66457142D01*
X184626190Y-66576189D01*
X184602381Y-66623808D01*
X184578571Y-66647618D01*
X184126190Y-66219047D02*
X184626190Y-66052380D01*
X184126190Y-65885714D01*
D12*
X110027981Y-86417429D02*
X109027981Y-86417429D01*
X109742267Y-86167429D01*
X109027981Y-85917429D01*
X110027981Y-85917429D01*
X109742267Y-85596000D02*
X109742267Y-85238857D01*
X110027981Y-85667428D02*
X109027981Y-85417428D01*
X110027981Y-85167428D01*
X110027981Y-84917429D02*
X109027981Y-84917429D01*
X109027981Y-84631714D01*
X109075600Y-84560286D01*
X109123219Y-84524571D01*
X109218457Y-84488857D01*
X109361314Y-84488857D01*
X109456552Y-84524571D01*
X109504171Y-84560286D01*
X109551790Y-84631714D01*
X109551790Y-84917429D01*
X109604171Y-82619886D02*
X109604171Y-83191315D01*
X109647029Y-81431486D02*
X109647029Y-80860057D01*
X110027981Y-81145771D02*
X109266076Y-81145771D01*
X109027981Y-80145772D02*
X109027981Y-80502915D01*
X109504171Y-80538629D01*
X109456552Y-80502915D01*
X109408933Y-80431486D01*
X109408933Y-80252915D01*
X109456552Y-80181486D01*
X109504171Y-80145772D01*
X109599410Y-80110057D01*
X109837505Y-80110057D01*
X109932743Y-80145772D01*
X109980362Y-80181486D01*
X110027981Y-80252915D01*
X110027981Y-80431486D01*
X109980362Y-80502915D01*
X109932743Y-80538629D01*
X109027981Y-79895771D02*
X110027981Y-79645771D01*
X109027981Y-79395771D01*
X125634714Y-100803071D02*
X125063285Y-100803071D01*
X121499429Y-101226881D02*
X121142286Y-101226881D01*
X121142286Y-100226881D01*
X121749429Y-101226881D02*
X121749429Y-100226881D01*
X122178001Y-101226881D01*
X122178001Y-100226881D01*
X122963715Y-101131643D02*
X122928001Y-101179262D01*
X122820858Y-101226881D01*
X122749429Y-101226881D01*
X122642286Y-101179262D01*
X122570858Y-101084024D01*
X122535143Y-100988786D01*
X122499429Y-100798310D01*
X122499429Y-100655452D01*
X122535143Y-100464976D01*
X122570858Y-100369738D01*
X122642286Y-100274500D01*
X122749429Y-100226881D01*
X122820858Y-100226881D01*
X122928001Y-100274500D01*
X122963715Y-100322119D01*
X123285143Y-101226881D02*
X123285143Y-100226881D01*
X123285143Y-100703071D02*
X123713715Y-100703071D01*
X123713715Y-101226881D02*
X123713715Y-100226881D01*
X154323072Y-100226881D02*
X154751643Y-100226881D01*
X154537357Y-101226881D02*
X154537357Y-100226881D01*
X154965929Y-100941167D02*
X155323072Y-100941167D01*
X154894501Y-101226881D02*
X155144501Y-100226881D01*
X155394501Y-101226881D01*
X156073072Y-101131643D02*
X156037358Y-101179262D01*
X155930215Y-101226881D01*
X155858786Y-101226881D01*
X155751643Y-101179262D01*
X155680215Y-101084024D01*
X155644500Y-100988786D01*
X155608786Y-100798310D01*
X155608786Y-100655452D01*
X155644500Y-100464976D01*
X155680215Y-100369738D01*
X155751643Y-100274500D01*
X155858786Y-100226881D01*
X155930215Y-100226881D01*
X156037358Y-100274500D01*
X156073072Y-100322119D01*
X156394500Y-101226881D02*
X156394500Y-100226881D01*
X156394500Y-100703071D02*
X156823072Y-100703071D01*
X156823072Y-101226881D02*
X156823072Y-100226881D01*
X157323072Y-100226881D02*
X157465929Y-100226881D01*
X157537357Y-100274500D01*
X157608786Y-100369738D01*
X157644500Y-100560214D01*
X157644500Y-100893548D01*
X157608786Y-101084024D01*
X157537357Y-101179262D01*
X157465929Y-101226881D01*
X157323072Y-101226881D01*
X157251643Y-101179262D01*
X157180214Y-101084024D01*
X157144500Y-100893548D01*
X157144500Y-100560214D01*
X157180214Y-100369738D01*
X157251643Y-100274500D01*
X157323072Y-100226881D01*
X144984572Y-100226881D02*
X145234572Y-101226881D01*
X145484572Y-100226881D01*
X146163143Y-101226881D02*
X145913143Y-100750690D01*
X145734571Y-101226881D02*
X145734571Y-100226881D01*
X146020286Y-100226881D01*
X146091714Y-100274500D01*
X146127429Y-100322119D01*
X146163143Y-100417357D01*
X146163143Y-100560214D01*
X146127429Y-100655452D01*
X146091714Y-100703071D01*
X146020286Y-100750690D01*
X145734571Y-100750690D01*
X146877429Y-101226881D02*
X146448857Y-101226881D01*
X146663143Y-101226881D02*
X146663143Y-100226881D01*
X146591714Y-100369738D01*
X146520286Y-100464976D01*
X146448857Y-100512595D01*
X147198857Y-100845929D02*
X147770286Y-100845929D01*
D11*
X93257143Y-116235714D02*
X93495238Y-116902381D01*
X93733334Y-116235714D01*
X94304762Y-115902381D02*
X94400001Y-115902381D01*
X94495239Y-115950000D01*
X94542858Y-115997619D01*
X94590477Y-116092857D01*
X94638096Y-116283333D01*
X94638096Y-116521429D01*
X94590477Y-116711905D01*
X94542858Y-116807143D01*
X94495239Y-116854762D01*
X94400001Y-116902381D01*
X94304762Y-116902381D01*
X94209524Y-116854762D01*
X94161905Y-116807143D01*
X94114286Y-116711905D01*
X94066667Y-116521429D01*
X94066667Y-116283333D01*
X94114286Y-116092857D01*
X94161905Y-115997619D01*
X94209524Y-115950000D01*
X94304762Y-115902381D01*
X95066667Y-116807143D02*
X95114286Y-116854762D01*
X95066667Y-116902381D01*
X95019048Y-116854762D01*
X95066667Y-116807143D01*
X95066667Y-116902381D01*
X95495238Y-115997619D02*
X95542857Y-115950000D01*
X95638095Y-115902381D01*
X95876191Y-115902381D01*
X95971429Y-115950000D01*
X96019048Y-115997619D01*
X96066667Y-116092857D01*
X96066667Y-116188095D01*
X96019048Y-116330952D01*
X95447619Y-116902381D01*
X96066667Y-116902381D01*
X96495238Y-116807143D02*
X96542857Y-116854762D01*
X96495238Y-116902381D01*
X96447619Y-116854762D01*
X96495238Y-116807143D01*
X96495238Y-116902381D01*
X97161904Y-115902381D02*
X97257143Y-115902381D01*
X97352381Y-115950000D01*
X97400000Y-115997619D01*
X97447619Y-116092857D01*
X97495238Y-116283333D01*
X97495238Y-116521429D01*
X97447619Y-116711905D01*
X97400000Y-116807143D01*
X97352381Y-116854762D01*
X97257143Y-116902381D01*
X97161904Y-116902381D01*
X97066666Y-116854762D01*
X97019047Y-116807143D01*
X96971428Y-116711905D01*
X96923809Y-116521429D01*
X96923809Y-116283333D01*
X96971428Y-116092857D01*
X97019047Y-115997619D01*
X97066666Y-115950000D01*
X97161904Y-115902381D01*
D17*
X95702881Y-83398738D02*
X94702881Y-83398738D01*
X95417167Y-83065404D01*
X94702881Y-82732071D01*
X95702881Y-82732071D01*
X95417167Y-82303500D02*
X95417167Y-81827309D01*
X95702881Y-82398738D02*
X94702881Y-82065405D01*
X95702881Y-81732071D01*
X95702881Y-81398738D02*
X94702881Y-81398738D01*
X94702881Y-81017785D01*
X94750500Y-80922547D01*
X94798119Y-80874928D01*
X94893357Y-80827309D01*
X95036214Y-80827309D01*
X95131452Y-80874928D01*
X95179071Y-80922547D01*
X95226690Y-81017785D01*
X95226690Y-81398738D01*
X95655262Y-79684452D02*
X95702881Y-79541595D01*
X95702881Y-79303499D01*
X95655262Y-79208261D01*
X95607643Y-79160642D01*
X95512405Y-79113023D01*
X95417167Y-79113023D01*
X95321929Y-79160642D01*
X95274310Y-79208261D01*
X95226690Y-79303499D01*
X95179071Y-79493976D01*
X95131452Y-79589214D01*
X95083833Y-79636833D01*
X94988595Y-79684452D01*
X94893357Y-79684452D01*
X94798119Y-79636833D01*
X94750500Y-79589214D01*
X94702881Y-79493976D01*
X94702881Y-79255880D01*
X94750500Y-79113023D01*
X95179071Y-78684452D02*
X95179071Y-78351118D01*
X95702881Y-78208261D02*
X95702881Y-78684452D01*
X94702881Y-78684452D01*
X94702881Y-78208261D01*
X95702881Y-77779690D02*
X94702881Y-77779690D01*
X95702881Y-77208261D01*
X94702881Y-77208261D01*
X95655262Y-76779690D02*
X95702881Y-76636833D01*
X95702881Y-76398737D01*
X95655262Y-76303499D01*
X95607643Y-76255880D01*
X95512405Y-76208261D01*
X95417167Y-76208261D01*
X95321929Y-76255880D01*
X95274310Y-76303499D01*
X95226690Y-76398737D01*
X95179071Y-76589214D01*
X95131452Y-76684452D01*
X95083833Y-76732071D01*
X94988595Y-76779690D01*
X94893357Y-76779690D01*
X94798119Y-76732071D01*
X94750500Y-76684452D01*
X94702881Y-76589214D01*
X94702881Y-76351118D01*
X94750500Y-76208261D01*
X94702881Y-75589214D02*
X94702881Y-75398737D01*
X94750500Y-75303499D01*
X94845738Y-75208261D01*
X95036214Y-75160642D01*
X95369548Y-75160642D01*
X95560024Y-75208261D01*
X95655262Y-75303499D01*
X95702881Y-75398737D01*
X95702881Y-75589214D01*
X95655262Y-75684452D01*
X95560024Y-75779690D01*
X95369548Y-75827309D01*
X95036214Y-75827309D01*
X94845738Y-75779690D01*
X94750500Y-75684452D01*
X94702881Y-75589214D01*
X95702881Y-74160642D02*
X95226690Y-74493976D01*
X95702881Y-74732071D02*
X94702881Y-74732071D01*
X94702881Y-74351118D01*
X94750500Y-74255880D01*
X94798119Y-74208261D01*
X94893357Y-74160642D01*
X95036214Y-74160642D01*
X95131452Y-74208261D01*
X95179071Y-74255880D01*
X95226690Y-74351118D01*
X95226690Y-74732071D01*
X96829071Y-83327309D02*
X96829071Y-83660643D01*
X97352881Y-83660643D02*
X96352881Y-83660643D01*
X96352881Y-83184452D01*
X97352881Y-82327309D02*
X97352881Y-82803500D01*
X96352881Y-82803500D01*
X97067167Y-82041595D02*
X97067167Y-81565404D01*
X97352881Y-82136833D02*
X96352881Y-81803500D01*
X97352881Y-81470166D01*
X96352881Y-81279690D02*
X96352881Y-80708261D01*
X97352881Y-80993976D02*
X96352881Y-80993976D01*
X97305262Y-79660642D02*
X97352881Y-79517785D01*
X97352881Y-79279689D01*
X97305262Y-79184451D01*
X97257643Y-79136832D01*
X97162405Y-79089213D01*
X97067167Y-79089213D01*
X96971929Y-79136832D01*
X96924310Y-79184451D01*
X96876690Y-79279689D01*
X96829071Y-79470166D01*
X96781452Y-79565404D01*
X96733833Y-79613023D01*
X96638595Y-79660642D01*
X96543357Y-79660642D01*
X96448119Y-79613023D01*
X96400500Y-79565404D01*
X96352881Y-79470166D01*
X96352881Y-79232070D01*
X96400500Y-79089213D01*
X97352881Y-78660642D02*
X96352881Y-78660642D01*
X97352881Y-78184452D02*
X96352881Y-78184452D01*
X96352881Y-77946357D01*
X96400500Y-77803499D01*
X96495738Y-77708261D01*
X96590976Y-77660642D01*
X96781452Y-77613023D01*
X96924310Y-77613023D01*
X97114786Y-77660642D01*
X97210024Y-77708261D01*
X97305262Y-77803499D01*
X97352881Y-77946357D01*
X97352881Y-78184452D01*
X96829071Y-77184452D02*
X96829071Y-76851118D01*
X97352881Y-76708261D02*
X97352881Y-77184452D01*
X96352881Y-77184452D01*
X96352881Y-76708261D01*
X96352881Y-75517785D02*
X97162405Y-75517785D01*
X97257643Y-75470166D01*
X97305262Y-75422547D01*
X97352881Y-75327309D01*
X97352881Y-75136832D01*
X97305262Y-75041594D01*
X97257643Y-74993975D01*
X97162405Y-74946356D01*
X96352881Y-74946356D01*
X97352881Y-74470166D02*
X96352881Y-74470166D01*
X96352881Y-74089213D01*
X96400500Y-73993975D01*
X96448119Y-73946356D01*
X96543357Y-73898737D01*
X96686214Y-73898737D01*
X96781452Y-73946356D01*
X96829071Y-73993975D01*
X96876690Y-74089213D01*
X96876690Y-74470166D01*
D13*
X184053990Y-90462752D02*
X184053990Y-90177038D01*
X184553990Y-90319895D02*
X184053990Y-90319895D01*
X184411133Y-90034181D02*
X184411133Y-89796086D01*
X184553990Y-90081800D02*
X184053990Y-89915133D01*
X184553990Y-89748467D01*
X184506371Y-89296086D02*
X184530181Y-89319896D01*
X184553990Y-89391324D01*
X184553990Y-89438943D01*
X184530181Y-89510372D01*
X184482562Y-89557991D01*
X184434943Y-89581800D01*
X184339705Y-89605610D01*
X184268276Y-89605610D01*
X184173038Y-89581800D01*
X184125419Y-89557991D01*
X184077800Y-89510372D01*
X184053990Y-89438943D01*
X184053990Y-89391324D01*
X184077800Y-89319896D01*
X184101610Y-89296086D01*
X184553990Y-89081800D02*
X184053990Y-89081800D01*
X184292086Y-89081800D02*
X184292086Y-88796086D01*
X184553990Y-88796086D02*
X184053990Y-88796086D01*
X184053990Y-88462752D02*
X184053990Y-88367514D01*
X184077800Y-88319895D01*
X184125419Y-88272276D01*
X184220657Y-88248467D01*
X184387324Y-88248467D01*
X184482562Y-88272276D01*
X184530181Y-88319895D01*
X184553990Y-88367514D01*
X184553990Y-88462752D01*
X184530181Y-88510371D01*
X184482562Y-88557990D01*
X184387324Y-88581800D01*
X184220657Y-88581800D01*
X184125419Y-88557990D01*
X184077800Y-88510371D01*
X184053990Y-88462752D01*
D12*
X148520886Y-77104847D02*
X148520886Y-76104847D01*
X149270887Y-76152466D02*
X149199458Y-76104847D01*
X149092315Y-76104847D01*
X148985172Y-76152466D01*
X148913744Y-76247704D01*
X148878029Y-76342942D01*
X148842315Y-76533418D01*
X148842315Y-76676276D01*
X148878029Y-76866752D01*
X148913744Y-76961990D01*
X148985172Y-77057228D01*
X149092315Y-77104847D01*
X149163744Y-77104847D01*
X149270887Y-77057228D01*
X149306601Y-77009609D01*
X149306601Y-76676276D01*
X149163744Y-76676276D01*
X149628029Y-77104847D02*
X149628029Y-76104847D01*
X150056601Y-77104847D01*
X150056601Y-76104847D01*
X150413743Y-77104847D02*
X150413743Y-76104847D01*
X150663744Y-76104847D02*
X151092315Y-76104847D01*
X150878029Y-77104847D02*
X150878029Y-76104847D01*
X151485173Y-76104847D02*
X151628030Y-76104847D01*
X151699458Y-76152466D01*
X151770887Y-76247704D01*
X151806601Y-76438180D01*
X151806601Y-76771514D01*
X151770887Y-76961990D01*
X151699458Y-77057228D01*
X151628030Y-77104847D01*
X151485173Y-77104847D01*
X151413744Y-77057228D01*
X151342315Y-76961990D01*
X151306601Y-76771514D01*
X151306601Y-76438180D01*
X151342315Y-76247704D01*
X151413744Y-76152466D01*
X151485173Y-76104847D01*
X152556601Y-77104847D02*
X152306601Y-76628656D01*
X152128029Y-77104847D02*
X152128029Y-76104847D01*
X152413744Y-76104847D01*
X152485172Y-76152466D01*
X152520887Y-76200085D01*
X152556601Y-76295323D01*
X152556601Y-76438180D01*
X152520887Y-76533418D01*
X152485172Y-76581037D01*
X152413744Y-76628656D01*
X152128029Y-76628656D01*
D13*
X117157547Y-64393000D02*
X117109928Y-64369190D01*
X117038500Y-64369190D01*
X116967071Y-64393000D01*
X116919452Y-64440619D01*
X116895643Y-64488238D01*
X116871833Y-64583476D01*
X116871833Y-64654905D01*
X116895643Y-64750143D01*
X116919452Y-64797762D01*
X116967071Y-64845381D01*
X117038500Y-64869190D01*
X117086119Y-64869190D01*
X117157547Y-64845381D01*
X117181357Y-64821571D01*
X117181357Y-64654905D01*
X117086119Y-64654905D01*
X117395643Y-64869190D02*
X117395643Y-64369190D01*
X117681357Y-64869190D01*
X117681357Y-64369190D01*
X117919453Y-64869190D02*
X117919453Y-64369190D01*
X118038500Y-64369190D01*
X118109929Y-64393000D01*
X118157548Y-64440619D01*
X118181357Y-64488238D01*
X118205167Y-64583476D01*
X118205167Y-64654905D01*
X118181357Y-64750143D01*
X118157548Y-64797762D01*
X118109929Y-64845381D01*
X118038500Y-64869190D01*
X117919453Y-64869190D01*
X186650000Y-110180953D02*
X186626190Y-110228572D01*
X186626190Y-110300000D01*
X186650000Y-110371429D01*
X186697619Y-110419048D01*
X186745238Y-110442857D01*
X186840476Y-110466667D01*
X186911905Y-110466667D01*
X187007143Y-110442857D01*
X187054762Y-110419048D01*
X187102381Y-110371429D01*
X187126190Y-110300000D01*
X187126190Y-110252381D01*
X187102381Y-110180953D01*
X187078571Y-110157143D01*
X186911905Y-110157143D01*
X186911905Y-110252381D01*
X187126190Y-109942857D02*
X186626190Y-109942857D01*
X187126190Y-109657143D01*
X186626190Y-109657143D01*
X187126190Y-109419047D02*
X186626190Y-109419047D01*
X186626190Y-109300000D01*
X186650000Y-109228571D01*
X186697619Y-109180952D01*
X186745238Y-109157143D01*
X186840476Y-109133333D01*
X186911905Y-109133333D01*
X187007143Y-109157143D01*
X187054762Y-109180952D01*
X187102381Y-109228571D01*
X187126190Y-109300000D01*
X187126190Y-109419047D01*
X134419047Y-116450000D02*
X134371428Y-116426190D01*
X134300000Y-116426190D01*
X134228571Y-116450000D01*
X134180952Y-116497619D01*
X134157143Y-116545238D01*
X134133333Y-116640476D01*
X134133333Y-116711905D01*
X134157143Y-116807143D01*
X134180952Y-116854762D01*
X134228571Y-116902381D01*
X134300000Y-116926190D01*
X134347619Y-116926190D01*
X134419047Y-116902381D01*
X134442857Y-116878571D01*
X134442857Y-116711905D01*
X134347619Y-116711905D01*
X134657143Y-116926190D02*
X134657143Y-116426190D01*
X134942857Y-116926190D01*
X134942857Y-116426190D01*
X135180953Y-116926190D02*
X135180953Y-116426190D01*
X135300000Y-116426190D01*
X135371429Y-116450000D01*
X135419048Y-116497619D01*
X135442857Y-116545238D01*
X135466667Y-116640476D01*
X135466667Y-116711905D01*
X135442857Y-116807143D01*
X135419048Y-116854762D01*
X135371429Y-116902381D01*
X135300000Y-116926190D01*
X135180953Y-116926190D01*
X131919047Y-116450000D02*
X131871428Y-116426190D01*
X131800000Y-116426190D01*
X131728571Y-116450000D01*
X131680952Y-116497619D01*
X131657143Y-116545238D01*
X131633333Y-116640476D01*
X131633333Y-116711905D01*
X131657143Y-116807143D01*
X131680952Y-116854762D01*
X131728571Y-116902381D01*
X131800000Y-116926190D01*
X131847619Y-116926190D01*
X131919047Y-116902381D01*
X131942857Y-116878571D01*
X131942857Y-116711905D01*
X131847619Y-116711905D01*
X132157143Y-116926190D02*
X132157143Y-116426190D01*
X132442857Y-116926190D01*
X132442857Y-116426190D01*
X132680953Y-116926190D02*
X132680953Y-116426190D01*
X132800000Y-116426190D01*
X132871429Y-116450000D01*
X132919048Y-116497619D01*
X132942857Y-116545238D01*
X132966667Y-116640476D01*
X132966667Y-116711905D01*
X132942857Y-116807143D01*
X132919048Y-116854762D01*
X132871429Y-116902381D01*
X132800000Y-116926190D01*
X132680953Y-116926190D01*
X126580954Y-116426190D02*
X126890477Y-116426190D01*
X126723811Y-116616667D01*
X126795239Y-116616667D01*
X126842858Y-116640476D01*
X126866668Y-116664286D01*
X126890477Y-116711905D01*
X126890477Y-116830952D01*
X126866668Y-116878571D01*
X126842858Y-116902381D01*
X126795239Y-116926190D01*
X126652382Y-116926190D01*
X126604763Y-116902381D01*
X126580954Y-116878571D01*
X127033334Y-116426190D02*
X127200001Y-116926190D01*
X127366667Y-116426190D01*
X127485715Y-116426190D02*
X127795238Y-116426190D01*
X127628572Y-116616667D01*
X127700000Y-116616667D01*
X127747619Y-116640476D01*
X127771429Y-116664286D01*
X127795238Y-116711905D01*
X127795238Y-116830952D01*
X127771429Y-116878571D01*
X127747619Y-116902381D01*
X127700000Y-116926190D01*
X127557143Y-116926190D01*
X127509524Y-116902381D01*
X127485715Y-116878571D01*
X124376191Y-116926190D02*
X124209524Y-116688095D01*
X124090477Y-116926190D02*
X124090477Y-116426190D01*
X124280953Y-116426190D01*
X124328572Y-116450000D01*
X124352381Y-116473810D01*
X124376191Y-116521429D01*
X124376191Y-116592857D01*
X124352381Y-116640476D01*
X124328572Y-116664286D01*
X124280953Y-116688095D01*
X124090477Y-116688095D01*
X124566667Y-116902381D02*
X124638096Y-116926190D01*
X124757143Y-116926190D01*
X124804762Y-116902381D01*
X124828572Y-116878571D01*
X124852381Y-116830952D01*
X124852381Y-116783333D01*
X124828572Y-116735714D01*
X124804762Y-116711905D01*
X124757143Y-116688095D01*
X124661905Y-116664286D01*
X124614286Y-116640476D01*
X124590477Y-116616667D01*
X124566667Y-116569048D01*
X124566667Y-116521429D01*
X124590477Y-116473810D01*
X124614286Y-116450000D01*
X124661905Y-116426190D01*
X124780953Y-116426190D01*
X124852381Y-116450000D01*
X124995238Y-116426190D02*
X125280952Y-116426190D01*
X125138095Y-116926190D02*
X125138095Y-116426190D01*
X129107144Y-116735714D02*
X129488096Y-116735714D01*
X129297620Y-116926190D02*
X129297620Y-116545238D01*
X129964287Y-116426190D02*
X129726192Y-116426190D01*
X129702382Y-116664286D01*
X129726192Y-116640476D01*
X129773811Y-116616667D01*
X129892858Y-116616667D01*
X129940477Y-116640476D01*
X129964287Y-116664286D01*
X129988096Y-116711905D01*
X129988096Y-116830952D01*
X129964287Y-116878571D01*
X129940477Y-116902381D01*
X129892858Y-116926190D01*
X129773811Y-116926190D01*
X129726192Y-116902381D01*
X129702382Y-116878571D01*
X130130953Y-116426190D02*
X130297620Y-116926190D01*
X130464286Y-116426190D01*
X186882886Y-75052928D02*
X186882886Y-74886262D01*
X187144790Y-74814833D02*
X187144790Y-75052928D01*
X186644790Y-75052928D01*
X186644790Y-74814833D01*
X187144790Y-74600547D02*
X186644790Y-74600547D01*
X187144790Y-74314833D01*
X186644790Y-74314833D01*
X186882886Y-73910071D02*
X186906695Y-73838642D01*
X186930505Y-73814833D01*
X186978124Y-73791023D01*
X187049552Y-73791023D01*
X187097171Y-73814833D01*
X187120981Y-73838642D01*
X187144790Y-73886261D01*
X187144790Y-74076737D01*
X186644790Y-74076737D01*
X186644790Y-73910071D01*
X186668600Y-73862452D01*
X186692410Y-73838642D01*
X186740029Y-73814833D01*
X186787648Y-73814833D01*
X186835267Y-73838642D01*
X186859076Y-73862452D01*
X186882886Y-73910071D01*
X186882886Y-74076737D01*
X187144790Y-73338642D02*
X187144790Y-73576737D01*
X186644790Y-73576737D01*
D11*
X118777381Y-116804762D02*
X118777381Y-116233333D01*
X119777381Y-116519048D02*
X118777381Y-116519048D01*
X119491667Y-115947619D02*
X119491667Y-115471428D01*
X119777381Y-116042857D02*
X118777381Y-115709524D01*
X119777381Y-115376190D01*
X119777381Y-115042857D02*
X118777381Y-115042857D01*
X118777381Y-114661904D01*
X118825000Y-114566666D01*
X118872619Y-114519047D01*
X118967857Y-114471428D01*
X119110714Y-114471428D01*
X119205952Y-114519047D01*
X119253571Y-114566666D01*
X119301190Y-114661904D01*
X119301190Y-115042857D01*
X119777381Y-113471428D02*
X119301190Y-113804762D01*
X119777381Y-114042857D02*
X118777381Y-114042857D01*
X118777381Y-113661904D01*
X118825000Y-113566666D01*
X118872619Y-113519047D01*
X118967857Y-113471428D01*
X119110714Y-113471428D01*
X119205952Y-113519047D01*
X119253571Y-113566666D01*
X119301190Y-113661904D01*
X119301190Y-114042857D01*
X121527381Y-116138095D02*
X121527381Y-116709524D01*
X121527381Y-116423810D02*
X120527381Y-116423810D01*
X120670238Y-116519048D01*
X120765476Y-116614286D01*
X120813095Y-116709524D01*
X121432143Y-115709524D02*
X121479762Y-115661905D01*
X121527381Y-115709524D01*
X121479762Y-115757143D01*
X121432143Y-115709524D01*
X121527381Y-115709524D01*
X120527381Y-115042858D02*
X120527381Y-114947619D01*
X120575000Y-114852381D01*
X120622619Y-114804762D01*
X120717857Y-114757143D01*
X120908333Y-114709524D01*
X121146429Y-114709524D01*
X121336905Y-114757143D01*
X121432143Y-114804762D01*
X121479762Y-114852381D01*
X121527381Y-114947619D01*
X121527381Y-115042858D01*
X121479762Y-115138096D01*
X121432143Y-115185715D01*
X121336905Y-115233334D01*
X121146429Y-115280953D01*
X120908333Y-115280953D01*
X120717857Y-115233334D01*
X120622619Y-115185715D01*
X120575000Y-115138096D01*
X120527381Y-115042858D01*
D13*
X187144790Y-72191499D02*
X186644790Y-72191499D01*
X186644790Y-72072452D01*
X186668600Y-72001023D01*
X186716219Y-71953404D01*
X186763838Y-71929595D01*
X186859076Y-71905785D01*
X186930505Y-71905785D01*
X187025743Y-71929595D01*
X187073362Y-71953404D01*
X187120981Y-72001023D01*
X187144790Y-72072452D01*
X187144790Y-72191499D01*
X187144790Y-71691499D02*
X186644790Y-71691499D01*
X187144790Y-71167690D02*
X186906695Y-71334357D01*
X187144790Y-71453404D02*
X186644790Y-71453404D01*
X186644790Y-71262928D01*
X186668600Y-71215309D01*
X186692410Y-71191500D01*
X186740029Y-71167690D01*
X186811457Y-71167690D01*
X186859076Y-71191500D01*
X186882886Y-71215309D01*
X186906695Y-71262928D01*
X186906695Y-71453404D01*
X184555581Y-72501023D02*
X184579390Y-72429594D01*
X184579390Y-72310547D01*
X184555581Y-72262928D01*
X184531771Y-72239118D01*
X184484152Y-72215309D01*
X184436533Y-72215309D01*
X184388914Y-72239118D01*
X184365105Y-72262928D01*
X184341295Y-72310547D01*
X184317486Y-72405785D01*
X184293676Y-72453404D01*
X184269867Y-72477213D01*
X184222248Y-72501023D01*
X184174629Y-72501023D01*
X184127010Y-72477213D01*
X184103200Y-72453404D01*
X184079390Y-72405785D01*
X184079390Y-72286737D01*
X184103200Y-72215309D01*
X184079390Y-72072452D02*
X184079390Y-71786738D01*
X184579390Y-71929595D02*
X184079390Y-71929595D01*
X184317486Y-71620071D02*
X184317486Y-71453405D01*
X184579390Y-71381976D02*
X184579390Y-71620071D01*
X184079390Y-71620071D01*
X184079390Y-71381976D01*
X184579390Y-71167690D02*
X184079390Y-71167690D01*
X184079390Y-70977214D01*
X184103200Y-70929595D01*
X184127010Y-70905786D01*
X184174629Y-70881976D01*
X184246057Y-70881976D01*
X184293676Y-70905786D01*
X184317486Y-70929595D01*
X184341295Y-70977214D01*
X184341295Y-71167690D01*
D12*
X93383333Y-107004762D02*
X93526190Y-107052381D01*
X93764286Y-107052381D01*
X93859524Y-107004762D01*
X93907143Y-106957143D01*
X93954762Y-106861905D01*
X93954762Y-106766667D01*
X93907143Y-106671429D01*
X93859524Y-106623810D01*
X93764286Y-106576190D01*
X93573809Y-106528571D01*
X93478571Y-106480952D01*
X93430952Y-106433333D01*
X93383333Y-106338095D01*
X93383333Y-106242857D01*
X93430952Y-106147619D01*
X93478571Y-106100000D01*
X93573809Y-106052381D01*
X93811905Y-106052381D01*
X93954762Y-106100000D01*
X94240476Y-106052381D02*
X94811905Y-106052381D01*
X94526190Y-107052381D02*
X94526190Y-106052381D01*
X95145238Y-107052381D02*
X95145238Y-106052381D01*
X95526191Y-106052381D01*
X95621429Y-106100000D01*
X95669048Y-106147619D01*
X95716667Y-106242857D01*
X95716667Y-106385714D01*
X95669048Y-106480952D01*
X95621429Y-106528571D01*
X95526191Y-106576190D01*
X95145238Y-106576190D01*
X96716667Y-107052381D02*
X96383333Y-106576190D01*
X96145238Y-107052381D02*
X96145238Y-106052381D01*
X96526191Y-106052381D01*
X96621429Y-106100000D01*
X96669048Y-106147619D01*
X96716667Y-106242857D01*
X96716667Y-106385714D01*
X96669048Y-106480952D01*
X96621429Y-106528571D01*
X96526191Y-106576190D01*
X96145238Y-106576190D01*
D13*
X169814953Y-64996190D02*
X169648286Y-64758095D01*
X169529239Y-64996190D02*
X169529239Y-64496190D01*
X169719715Y-64496190D01*
X169767334Y-64520000D01*
X169791143Y-64543810D01*
X169814953Y-64591429D01*
X169814953Y-64662857D01*
X169791143Y-64710476D01*
X169767334Y-64734286D01*
X169719715Y-64758095D01*
X169529239Y-64758095D01*
X170029239Y-64996190D02*
X170029239Y-64496190D01*
X170219715Y-64496190D01*
X170267334Y-64520000D01*
X170291143Y-64543810D01*
X170314953Y-64591429D01*
X170314953Y-64662857D01*
X170291143Y-64710476D01*
X170267334Y-64734286D01*
X170219715Y-64758095D01*
X170029239Y-64758095D01*
X170529239Y-64996190D02*
X170529239Y-64496190D01*
X170695905Y-64853333D01*
X170862572Y-64496190D01*
X170862572Y-64996190D01*
X171076858Y-64543810D02*
X171100668Y-64520000D01*
X171148287Y-64496190D01*
X171267334Y-64496190D01*
X171314953Y-64520000D01*
X171338763Y-64543810D01*
X171362572Y-64591429D01*
X171362572Y-64639048D01*
X171338763Y-64710476D01*
X171053049Y-64996190D01*
X171362572Y-64996190D01*
X172354953Y-64996190D02*
X172188286Y-64758095D01*
X172069239Y-64996190D02*
X172069239Y-64496190D01*
X172259715Y-64496190D01*
X172307334Y-64520000D01*
X172331143Y-64543810D01*
X172354953Y-64591429D01*
X172354953Y-64662857D01*
X172331143Y-64710476D01*
X172307334Y-64734286D01*
X172259715Y-64758095D01*
X172069239Y-64758095D01*
X172569239Y-64996190D02*
X172569239Y-64496190D01*
X172759715Y-64496190D01*
X172807334Y-64520000D01*
X172831143Y-64543810D01*
X172854953Y-64591429D01*
X172854953Y-64662857D01*
X172831143Y-64710476D01*
X172807334Y-64734286D01*
X172759715Y-64758095D01*
X172569239Y-64758095D01*
X173069239Y-64996190D02*
X173069239Y-64496190D01*
X173235905Y-64853333D01*
X173402572Y-64496190D01*
X173402572Y-64996190D01*
X173902572Y-64996190D02*
X173616858Y-64996190D01*
X173759715Y-64996190D02*
X173759715Y-64496190D01*
X173712096Y-64567619D01*
X173664477Y-64615238D01*
X173616858Y-64639048D01*
D12*
X149064529Y-80464447D02*
X148707386Y-80464447D01*
X148671672Y-80940637D01*
X148707386Y-80893018D01*
X148778815Y-80845399D01*
X148957386Y-80845399D01*
X149028815Y-80893018D01*
X149064529Y-80940637D01*
X149100244Y-81035876D01*
X149100244Y-81273971D01*
X149064529Y-81369209D01*
X149028815Y-81416828D01*
X148957386Y-81464447D01*
X148778815Y-81464447D01*
X148707386Y-81416828D01*
X148671672Y-81369209D01*
X149314530Y-80464447D02*
X149564530Y-81464447D01*
X149814530Y-80464447D01*
X151364701Y-81464447D02*
X150936129Y-81464447D01*
X151150415Y-81464447D02*
X151150415Y-80464447D01*
X151078986Y-80607304D01*
X151007558Y-80702542D01*
X150936129Y-80750161D01*
X151650415Y-80559685D02*
X151686129Y-80512066D01*
X151757558Y-80464447D01*
X151936129Y-80464447D01*
X152007558Y-80512066D01*
X152043272Y-80559685D01*
X152078987Y-80654923D01*
X152078987Y-80750161D01*
X152043272Y-80893018D01*
X151614701Y-81464447D01*
X152078987Y-81464447D01*
X152293273Y-80464447D02*
X152543273Y-81464447D01*
X152793273Y-80464447D01*
X139727857Y-101226881D02*
X139727857Y-100226881D01*
X140049286Y-100941167D02*
X140406429Y-100941167D01*
X139977858Y-101226881D02*
X140227858Y-100226881D01*
X140477858Y-101226881D01*
X140620715Y-100226881D02*
X141049286Y-100226881D01*
X140835000Y-101226881D02*
X140835000Y-100226881D01*
X136993357Y-101131643D02*
X136957643Y-101179262D01*
X136850500Y-101226881D01*
X136779071Y-101226881D01*
X136671928Y-101179262D01*
X136600500Y-101084024D01*
X136564785Y-100988786D01*
X136529071Y-100798310D01*
X136529071Y-100655452D01*
X136564785Y-100464976D01*
X136600500Y-100369738D01*
X136671928Y-100274500D01*
X136779071Y-100226881D01*
X136850500Y-100226881D01*
X136957643Y-100274500D01*
X136993357Y-100322119D01*
X137671928Y-101226881D02*
X137314785Y-101226881D01*
X137314785Y-100226881D01*
X137814786Y-100226881D02*
X138243357Y-100226881D01*
X138029071Y-101226881D02*
X138029071Y-100226881D01*
X130889429Y-100226881D02*
X131032286Y-100226881D01*
X131103714Y-100274500D01*
X131175143Y-100369738D01*
X131210857Y-100560214D01*
X131210857Y-100893548D01*
X131175143Y-101084024D01*
X131103714Y-101179262D01*
X131032286Y-101226881D01*
X130889429Y-101226881D01*
X130818000Y-101179262D01*
X130746571Y-101084024D01*
X130710857Y-100893548D01*
X130710857Y-100560214D01*
X130746571Y-100369738D01*
X130818000Y-100274500D01*
X130889429Y-100226881D01*
X131496571Y-100322119D02*
X131532285Y-100274500D01*
X131603714Y-100226881D01*
X131782285Y-100226881D01*
X131853714Y-100274500D01*
X131889428Y-100322119D01*
X131925143Y-100417357D01*
X131925143Y-100512595D01*
X131889428Y-100655452D01*
X131460857Y-101226881D01*
X131925143Y-101226881D01*
X133419572Y-100226881D02*
X133848143Y-100226881D01*
X133633857Y-101226881D02*
X133633857Y-100226881D01*
X134098143Y-101226881D02*
X134098143Y-100226881D01*
X134383858Y-100226881D01*
X134455286Y-100274500D01*
X134491001Y-100322119D01*
X134526715Y-100417357D01*
X134526715Y-100560214D01*
X134491001Y-100655452D01*
X134455286Y-100703071D01*
X134383858Y-100750690D01*
X134098143Y-100750690D01*
X134812429Y-101179262D02*
X134919572Y-101226881D01*
X135098143Y-101226881D01*
X135169572Y-101179262D01*
X135205286Y-101131643D01*
X135241001Y-101036405D01*
X135241001Y-100941167D01*
X135205286Y-100845929D01*
X135169572Y-100798310D01*
X135098143Y-100750690D01*
X134955286Y-100703071D01*
X134883858Y-100655452D01*
X134848143Y-100607833D01*
X134812429Y-100512595D01*
X134812429Y-100417357D01*
X134848143Y-100322119D01*
X134883858Y-100274500D01*
X134955286Y-100226881D01*
X135133858Y-100226881D01*
X135241001Y-100274500D01*
X127369214Y-100845929D02*
X127940643Y-100845929D01*
X127654929Y-101226881D02*
X127654929Y-100464976D01*
X128654928Y-100226881D02*
X128297785Y-100226881D01*
X128262071Y-100703071D01*
X128297785Y-100655452D01*
X128369214Y-100607833D01*
X128547785Y-100607833D01*
X128619214Y-100655452D01*
X128654928Y-100703071D01*
X128690643Y-100798310D01*
X128690643Y-101036405D01*
X128654928Y-101131643D01*
X128619214Y-101179262D01*
X128547785Y-101226881D01*
X128369214Y-101226881D01*
X128297785Y-101179262D01*
X128262071Y-101131643D01*
X128904929Y-100226881D02*
X129154929Y-101226881D01*
X129404929Y-100226881D01*
X151017072Y-100226881D02*
X151267072Y-101226881D01*
X151517072Y-100226881D01*
X152195643Y-101226881D02*
X151945643Y-100750690D01*
X151767071Y-101226881D02*
X151767071Y-100226881D01*
X152052786Y-100226881D01*
X152124214Y-100274500D01*
X152159929Y-100322119D01*
X152195643Y-100417357D01*
X152195643Y-100560214D01*
X152159929Y-100655452D01*
X152124214Y-100703071D01*
X152052786Y-100750690D01*
X151767071Y-100750690D01*
X152481357Y-100322119D02*
X152517071Y-100274500D01*
X152588500Y-100226881D01*
X152767071Y-100226881D01*
X152838500Y-100274500D01*
X152874214Y-100322119D01*
X152909929Y-100417357D01*
X152909929Y-100512595D01*
X152874214Y-100655452D01*
X152445643Y-101226881D01*
X152909929Y-101226881D01*
X153231357Y-100845929D02*
X153802786Y-100845929D01*
X147969072Y-100226881D02*
X148219072Y-101226881D01*
X148469072Y-100226881D01*
X149147643Y-101226881D02*
X148897643Y-100750690D01*
X148719071Y-101226881D02*
X148719071Y-100226881D01*
X149004786Y-100226881D01*
X149076214Y-100274500D01*
X149111929Y-100322119D01*
X149147643Y-100417357D01*
X149147643Y-100560214D01*
X149111929Y-100655452D01*
X149076214Y-100703071D01*
X149004786Y-100750690D01*
X148719071Y-100750690D01*
X149433357Y-100322119D02*
X149469071Y-100274500D01*
X149540500Y-100226881D01*
X149719071Y-100226881D01*
X149790500Y-100274500D01*
X149826214Y-100322119D01*
X149861929Y-100417357D01*
X149861929Y-100512595D01*
X149826214Y-100655452D01*
X149397643Y-101226881D01*
X149861929Y-101226881D01*
X150183357Y-100845929D02*
X150754786Y-100845929D01*
X150469072Y-101226881D02*
X150469072Y-100464976D01*
X141873072Y-100226881D02*
X142123072Y-101226881D01*
X142373072Y-100226881D01*
X143051643Y-101226881D02*
X142801643Y-100750690D01*
X142623071Y-101226881D02*
X142623071Y-100226881D01*
X142908786Y-100226881D01*
X142980214Y-100274500D01*
X143015929Y-100322119D01*
X143051643Y-100417357D01*
X143051643Y-100560214D01*
X143015929Y-100655452D01*
X142980214Y-100703071D01*
X142908786Y-100750690D01*
X142623071Y-100750690D01*
X143765929Y-101226881D02*
X143337357Y-101226881D01*
X143551643Y-101226881D02*
X143551643Y-100226881D01*
X143480214Y-100369738D01*
X143408786Y-100464976D01*
X143337357Y-100512595D01*
X144087357Y-100845929D02*
X144658786Y-100845929D01*
X144373072Y-101226881D02*
X144373072Y-100464976D01*
X151275000Y-95003881D02*
X151275000Y-94003881D01*
X152025001Y-94051500D02*
X151953572Y-94003881D01*
X151846429Y-94003881D01*
X151739286Y-94051500D01*
X151667858Y-94146738D01*
X151632143Y-94241976D01*
X151596429Y-94432452D01*
X151596429Y-94575310D01*
X151632143Y-94765786D01*
X151667858Y-94861024D01*
X151739286Y-94956262D01*
X151846429Y-95003881D01*
X151917858Y-95003881D01*
X152025001Y-94956262D01*
X152060715Y-94908643D01*
X152060715Y-94575310D01*
X151917858Y-94575310D01*
X152382143Y-95003881D02*
X152382143Y-94003881D01*
X152810715Y-95003881D01*
X152810715Y-94003881D01*
X153560715Y-95003881D02*
X153132143Y-95003881D01*
X153346429Y-95003881D02*
X153346429Y-94003881D01*
X153275000Y-94146738D01*
X153203572Y-94241976D01*
X153132143Y-94289595D01*
X154259500Y-95003881D02*
X154259500Y-94003881D01*
X155009501Y-94051500D02*
X154938072Y-94003881D01*
X154830929Y-94003881D01*
X154723786Y-94051500D01*
X154652358Y-94146738D01*
X154616643Y-94241976D01*
X154580929Y-94432452D01*
X154580929Y-94575310D01*
X154616643Y-94765786D01*
X154652358Y-94861024D01*
X154723786Y-94956262D01*
X154830929Y-95003881D01*
X154902358Y-95003881D01*
X155009501Y-94956262D01*
X155045215Y-94908643D01*
X155045215Y-94575310D01*
X154902358Y-94575310D01*
X155366643Y-95003881D02*
X155366643Y-94003881D01*
X155795215Y-95003881D01*
X155795215Y-94003881D01*
X156116643Y-94099119D02*
X156152357Y-94051500D01*
X156223786Y-94003881D01*
X156402357Y-94003881D01*
X156473786Y-94051500D01*
X156509500Y-94099119D01*
X156545215Y-94194357D01*
X156545215Y-94289595D01*
X156509500Y-94432452D01*
X156080929Y-95003881D01*
X156545215Y-95003881D01*
X145331785Y-95003881D02*
X145331785Y-94003881D01*
X145688928Y-95003881D02*
X145688928Y-94003881D01*
X146117500Y-95003881D01*
X146117500Y-94003881D01*
X146688928Y-94003881D02*
X146688928Y-94718167D01*
X146653214Y-94861024D01*
X146581785Y-94956262D01*
X146474642Y-95003881D01*
X146403214Y-95003881D01*
X147010357Y-94099119D02*
X147046071Y-94051500D01*
X147117500Y-94003881D01*
X147296071Y-94003881D01*
X147367500Y-94051500D01*
X147403214Y-94099119D01*
X147438929Y-94194357D01*
X147438929Y-94289595D01*
X147403214Y-94432452D01*
X146974643Y-95003881D01*
X147438929Y-95003881D01*
X142347285Y-95003881D02*
X142347285Y-94003881D01*
X142704428Y-95003881D02*
X142704428Y-94003881D01*
X143133000Y-95003881D01*
X143133000Y-94003881D01*
X143704428Y-94003881D02*
X143704428Y-94718167D01*
X143668714Y-94861024D01*
X143597285Y-94956262D01*
X143490142Y-95003881D01*
X143418714Y-95003881D01*
X144454429Y-95003881D02*
X144025857Y-95003881D01*
X144240143Y-95003881D02*
X144240143Y-94003881D01*
X144168714Y-94146738D01*
X144097286Y-94241976D01*
X144025857Y-94289595D01*
X148762714Y-94480071D02*
X148869857Y-94527690D01*
X148905572Y-94575310D01*
X148941286Y-94670548D01*
X148941286Y-94813405D01*
X148905572Y-94908643D01*
X148869857Y-94956262D01*
X148798429Y-95003881D01*
X148512714Y-95003881D01*
X148512714Y-94003881D01*
X148762714Y-94003881D01*
X148834143Y-94051500D01*
X148869857Y-94099119D01*
X148905572Y-94194357D01*
X148905572Y-94289595D01*
X148869857Y-94384833D01*
X148834143Y-94432452D01*
X148762714Y-94480071D01*
X148512714Y-94480071D01*
X149227000Y-94956262D02*
X149334143Y-95003881D01*
X149512714Y-95003881D01*
X149584143Y-94956262D01*
X149619857Y-94908643D01*
X149655572Y-94813405D01*
X149655572Y-94718167D01*
X149619857Y-94622929D01*
X149584143Y-94575310D01*
X149512714Y-94527690D01*
X149369857Y-94480071D01*
X149298429Y-94432452D01*
X149262714Y-94384833D01*
X149227000Y-94289595D01*
X149227000Y-94194357D01*
X149262714Y-94099119D01*
X149298429Y-94051500D01*
X149369857Y-94003881D01*
X149548429Y-94003881D01*
X149655572Y-94051500D01*
X149869858Y-94003881D02*
X150298429Y-94003881D01*
X150084143Y-95003881D02*
X150084143Y-94003881D01*
X133508858Y-94003881D02*
X133758858Y-95003881D01*
X134008858Y-94003881D01*
X134151715Y-94003881D02*
X134401715Y-95003881D01*
X134651715Y-94003881D01*
X134794572Y-94003881D02*
X135223143Y-94003881D01*
X135008857Y-95003881D02*
X135008857Y-94003881D01*
X136396143Y-95003881D02*
X136396143Y-94003881D01*
X136753286Y-95003881D02*
X136753286Y-94003881D01*
X136931858Y-94003881D01*
X137039001Y-94051500D01*
X137110429Y-94146738D01*
X137146144Y-94241976D01*
X137181858Y-94432452D01*
X137181858Y-94575310D01*
X137146144Y-94765786D01*
X137110429Y-94861024D01*
X137039001Y-94956262D01*
X136931858Y-95003881D01*
X136753286Y-95003881D01*
X137860429Y-95003881D02*
X137503286Y-95003881D01*
X137503286Y-94003881D01*
X138110429Y-94480071D02*
X138360429Y-94480071D01*
X138467572Y-95003881D02*
X138110429Y-95003881D01*
X138110429Y-94003881D01*
X138467572Y-94003881D01*
X140130643Y-94480071D02*
X139880643Y-94480071D01*
X139880643Y-95003881D02*
X139880643Y-94003881D01*
X140237786Y-94003881D01*
X140523500Y-95003881D02*
X140523500Y-94003881D01*
X140809215Y-94003881D01*
X140880643Y-94051500D01*
X140916358Y-94099119D01*
X140952072Y-94194357D01*
X140952072Y-94337214D01*
X140916358Y-94432452D01*
X140880643Y-94480071D01*
X140809215Y-94527690D01*
X140523500Y-94527690D01*
X125698214Y-94580071D02*
X125126785Y-94580071D01*
X128619214Y-94580071D02*
X128047785Y-94580071D01*
X131667214Y-94580071D02*
X131095785Y-94580071D01*
X121043071Y-94622929D02*
X121614500Y-94622929D01*
X121328786Y-95003881D02*
X121328786Y-94241976D01*
X122364500Y-95003881D02*
X121935928Y-95003881D01*
X122150214Y-95003881D02*
X122150214Y-94003881D01*
X122078785Y-94146738D01*
X122007357Y-94241976D01*
X121935928Y-94289595D01*
X122650214Y-94099119D02*
X122685928Y-94051500D01*
X122757357Y-94003881D01*
X122935928Y-94003881D01*
X123007357Y-94051500D01*
X123043071Y-94099119D01*
X123078786Y-94194357D01*
X123078786Y-94289595D01*
X123043071Y-94432452D01*
X122614500Y-95003881D01*
X123078786Y-95003881D01*
X123293072Y-94003881D02*
X123543072Y-95003881D01*
X123793072Y-94003881D01*
D13*
X139382572Y-64496190D02*
X139549239Y-64996190D01*
X139715905Y-64496190D01*
X139811143Y-64496190D02*
X139977810Y-64996190D01*
X140144476Y-64496190D01*
X140239714Y-64496190D02*
X140525428Y-64496190D01*
X140382571Y-64996190D02*
X140382571Y-64496190D01*
X137021143Y-64734286D02*
X137092572Y-64758095D01*
X137116381Y-64781905D01*
X137140191Y-64829524D01*
X137140191Y-64900952D01*
X137116381Y-64948571D01*
X137092572Y-64972381D01*
X137044953Y-64996190D01*
X136854477Y-64996190D01*
X136854477Y-64496190D01*
X137021143Y-64496190D01*
X137068762Y-64520000D01*
X137092572Y-64543810D01*
X137116381Y-64591429D01*
X137116381Y-64639048D01*
X137092572Y-64686667D01*
X137068762Y-64710476D01*
X137021143Y-64734286D01*
X136854477Y-64734286D01*
X137330667Y-64972381D02*
X137402096Y-64996190D01*
X137521143Y-64996190D01*
X137568762Y-64972381D01*
X137592572Y-64948571D01*
X137616381Y-64900952D01*
X137616381Y-64853333D01*
X137592572Y-64805714D01*
X137568762Y-64781905D01*
X137521143Y-64758095D01*
X137425905Y-64734286D01*
X137378286Y-64710476D01*
X137354477Y-64686667D01*
X137330667Y-64639048D01*
X137330667Y-64591429D01*
X137354477Y-64543810D01*
X137378286Y-64520000D01*
X137425905Y-64496190D01*
X137544953Y-64496190D01*
X137616381Y-64520000D01*
X137759238Y-64496190D02*
X138044952Y-64496190D01*
X137902095Y-64996190D02*
X137902095Y-64496190D01*
X141815429Y-64996190D02*
X141815429Y-64496190D01*
X142053524Y-64996190D02*
X142053524Y-64496190D01*
X142172571Y-64496190D01*
X142244000Y-64520000D01*
X142291619Y-64567619D01*
X142315428Y-64615238D01*
X142339238Y-64710476D01*
X142339238Y-64781905D01*
X142315428Y-64877143D01*
X142291619Y-64924762D01*
X142244000Y-64972381D01*
X142172571Y-64996190D01*
X142053524Y-64996190D01*
X142791619Y-64996190D02*
X142553524Y-64996190D01*
X142553524Y-64496190D01*
X142958286Y-64734286D02*
X143124952Y-64734286D01*
X143196381Y-64996190D02*
X142958286Y-64996190D01*
X142958286Y-64496190D01*
X143196381Y-64496190D01*
X144728429Y-64734286D02*
X144561763Y-64734286D01*
X144561763Y-64996190D02*
X144561763Y-64496190D01*
X144799858Y-64496190D01*
X144990334Y-64996190D02*
X144990334Y-64496190D01*
X145180810Y-64496190D01*
X145228429Y-64520000D01*
X145252238Y-64543810D01*
X145276048Y-64591429D01*
X145276048Y-64662857D01*
X145252238Y-64710476D01*
X145228429Y-64734286D01*
X145180810Y-64758095D01*
X144990334Y-64758095D01*
X154789239Y-116939190D02*
X154789239Y-116439190D01*
X155003524Y-116796333D02*
X155241619Y-116796333D01*
X154955905Y-116939190D02*
X155122572Y-116439190D01*
X155289238Y-116939190D01*
X155384476Y-116439190D02*
X155670190Y-116439190D01*
X155527333Y-116939190D02*
X155527333Y-116439190D01*
X152415905Y-116891571D02*
X152392095Y-116915381D01*
X152320667Y-116939190D01*
X152273048Y-116939190D01*
X152201619Y-116915381D01*
X152154000Y-116867762D01*
X152130191Y-116820143D01*
X152106381Y-116724905D01*
X152106381Y-116653476D01*
X152130191Y-116558238D01*
X152154000Y-116510619D01*
X152201619Y-116463000D01*
X152273048Y-116439190D01*
X152320667Y-116439190D01*
X152392095Y-116463000D01*
X152415905Y-116486810D01*
X152868286Y-116939190D02*
X152630191Y-116939190D01*
X152630191Y-116439190D01*
X152963524Y-116439190D02*
X153249238Y-116439190D01*
X153106381Y-116939190D02*
X153106381Y-116439190D01*
X149483048Y-116439190D02*
X149768762Y-116439190D01*
X149625905Y-116939190D02*
X149625905Y-116439190D01*
X149935429Y-116939190D02*
X149935429Y-116439190D01*
X150125905Y-116439190D01*
X150173524Y-116463000D01*
X150197333Y-116486810D01*
X150221143Y-116534429D01*
X150221143Y-116605857D01*
X150197333Y-116653476D01*
X150173524Y-116677286D01*
X150125905Y-116701095D01*
X149935429Y-116701095D01*
X150411619Y-116915381D02*
X150483048Y-116939190D01*
X150602095Y-116939190D01*
X150649714Y-116915381D01*
X150673524Y-116891571D01*
X150697333Y-116843952D01*
X150697333Y-116796333D01*
X150673524Y-116748714D01*
X150649714Y-116724905D01*
X150602095Y-116701095D01*
X150506857Y-116677286D01*
X150459238Y-116653476D01*
X150435429Y-116629667D01*
X150411619Y-116582048D01*
X150411619Y-116534429D01*
X150435429Y-116486810D01*
X150459238Y-116463000D01*
X150506857Y-116439190D01*
X150625905Y-116439190D01*
X150697333Y-116463000D01*
X147288286Y-116439190D02*
X147383524Y-116439190D01*
X147431143Y-116463000D01*
X147478762Y-116510619D01*
X147502571Y-116605857D01*
X147502571Y-116772524D01*
X147478762Y-116867762D01*
X147431143Y-116915381D01*
X147383524Y-116939190D01*
X147288286Y-116939190D01*
X147240667Y-116915381D01*
X147193048Y-116867762D01*
X147169238Y-116772524D01*
X147169238Y-116605857D01*
X147193048Y-116510619D01*
X147240667Y-116463000D01*
X147288286Y-116439190D01*
X147693048Y-116486810D02*
X147716858Y-116463000D01*
X147764477Y-116439190D01*
X147883524Y-116439190D01*
X147931143Y-116463000D01*
X147954953Y-116486810D01*
X147978762Y-116534429D01*
X147978762Y-116582048D01*
X147954953Y-116653476D01*
X147669239Y-116939190D01*
X147978762Y-116939190D01*
X144605429Y-116677286D02*
X144676858Y-116701095D01*
X144700667Y-116724905D01*
X144724477Y-116772524D01*
X144724477Y-116843952D01*
X144700667Y-116891571D01*
X144676858Y-116915381D01*
X144629239Y-116939190D01*
X144438763Y-116939190D01*
X144438763Y-116439190D01*
X144605429Y-116439190D01*
X144653048Y-116463000D01*
X144676858Y-116486810D01*
X144700667Y-116534429D01*
X144700667Y-116582048D01*
X144676858Y-116629667D01*
X144653048Y-116653476D01*
X144605429Y-116677286D01*
X144438763Y-116677286D01*
X145224477Y-116939190D02*
X145057810Y-116701095D01*
X144938763Y-116939190D02*
X144938763Y-116439190D01*
X145129239Y-116439190D01*
X145176858Y-116463000D01*
X145200667Y-116486810D01*
X145224477Y-116534429D01*
X145224477Y-116605857D01*
X145200667Y-116653476D01*
X145176858Y-116677286D01*
X145129239Y-116701095D01*
X144938763Y-116701095D01*
X145367334Y-116439190D02*
X145534001Y-116939190D01*
X145700667Y-116439190D01*
X141863048Y-116939190D02*
X141863048Y-116439190D01*
X142029714Y-116796333D01*
X142196381Y-116439190D01*
X142196381Y-116939190D01*
X142410667Y-116796333D02*
X142648762Y-116796333D01*
X142363048Y-116939190D02*
X142529715Y-116439190D01*
X142696381Y-116939190D01*
X142863048Y-116939190D02*
X142863048Y-116439190D01*
X143053524Y-116439190D01*
X143101143Y-116463000D01*
X143124952Y-116486810D01*
X143148762Y-116534429D01*
X143148762Y-116605857D01*
X143124952Y-116653476D01*
X143101143Y-116677286D01*
X143053524Y-116701095D01*
X142863048Y-116701095D01*
X184579390Y-69901499D02*
X184079390Y-69901499D01*
X184103200Y-69401500D02*
X184079390Y-69449119D01*
X184079390Y-69520547D01*
X184103200Y-69591976D01*
X184150819Y-69639595D01*
X184198438Y-69663404D01*
X184293676Y-69687214D01*
X184365105Y-69687214D01*
X184460343Y-69663404D01*
X184507962Y-69639595D01*
X184555581Y-69591976D01*
X184579390Y-69520547D01*
X184579390Y-69472928D01*
X184555581Y-69401500D01*
X184531771Y-69377690D01*
X184365105Y-69377690D01*
X184365105Y-69472928D01*
X184579390Y-69163404D02*
X184079390Y-69163404D01*
X184579390Y-68877690D01*
X184079390Y-68877690D01*
X184127010Y-68663404D02*
X184103200Y-68639594D01*
X184079390Y-68591975D01*
X184079390Y-68472928D01*
X184103200Y-68425309D01*
X184127010Y-68401499D01*
X184174629Y-68377690D01*
X184222248Y-68377690D01*
X184293676Y-68401499D01*
X184579390Y-68687213D01*
X184579390Y-68377690D01*
X187144790Y-69901499D02*
X186644790Y-69901499D01*
X186668600Y-69401500D02*
X186644790Y-69449119D01*
X186644790Y-69520547D01*
X186668600Y-69591976D01*
X186716219Y-69639595D01*
X186763838Y-69663404D01*
X186859076Y-69687214D01*
X186930505Y-69687214D01*
X187025743Y-69663404D01*
X187073362Y-69639595D01*
X187120981Y-69591976D01*
X187144790Y-69520547D01*
X187144790Y-69472928D01*
X187120981Y-69401500D01*
X187097171Y-69377690D01*
X186930505Y-69377690D01*
X186930505Y-69472928D01*
X187144790Y-69163404D02*
X186644790Y-69163404D01*
X187144790Y-68877690D01*
X186644790Y-68877690D01*
X187144790Y-68377690D02*
X187144790Y-68663404D01*
X187144790Y-68520547D02*
X186644790Y-68520547D01*
X186716219Y-68568166D01*
X186763838Y-68615785D01*
X186787648Y-68663404D01*
X132659525Y-64996190D02*
X132659525Y-64496190D01*
X132897620Y-64996190D02*
X132897620Y-64496190D01*
X133183334Y-64996190D01*
X133183334Y-64496190D01*
X133564287Y-64496190D02*
X133564287Y-64853333D01*
X133540477Y-64924762D01*
X133492858Y-64972381D01*
X133421430Y-64996190D01*
X133373811Y-64996190D01*
X134064286Y-64996190D02*
X133778572Y-64996190D01*
X133921429Y-64996190D02*
X133921429Y-64496190D01*
X133873810Y-64567619D01*
X133826191Y-64615238D01*
X133778572Y-64639048D01*
X130119525Y-64996190D02*
X130119525Y-64496190D01*
X130357620Y-64996190D02*
X130357620Y-64496190D01*
X130643334Y-64996190D01*
X130643334Y-64496190D01*
X131024287Y-64496190D02*
X131024287Y-64853333D01*
X131000477Y-64924762D01*
X130952858Y-64972381D01*
X130881430Y-64996190D01*
X130833811Y-64996190D01*
X131238572Y-64543810D02*
X131262382Y-64520000D01*
X131310001Y-64496190D01*
X131429048Y-64496190D01*
X131476667Y-64520000D01*
X131500477Y-64543810D01*
X131524286Y-64591429D01*
X131524286Y-64639048D01*
X131500477Y-64710476D01*
X131214763Y-64996190D01*
X131524286Y-64996190D01*
D11*
X183547619Y-86285714D02*
X183500000Y-86238095D01*
X183452381Y-86142857D01*
X183452381Y-85904761D01*
X183500000Y-85809523D01*
X183547619Y-85761904D01*
X183642857Y-85714285D01*
X183738095Y-85714285D01*
X183880952Y-85761904D01*
X184452381Y-86333333D01*
X184452381Y-85714285D01*
X185147619Y-97985714D02*
X185100000Y-97938095D01*
X185052381Y-97842857D01*
X185052381Y-97604761D01*
X185100000Y-97509523D01*
X185147619Y-97461904D01*
X185242857Y-97414285D01*
X185338095Y-97414285D01*
X185480952Y-97461904D01*
X186052381Y-98033333D01*
X186052381Y-97414285D01*
X186052381Y-92114285D02*
X186052381Y-92685714D01*
X186052381Y-92400000D02*
X185052381Y-92400000D01*
X185195238Y-92495238D01*
X185290476Y-92590476D01*
X185338095Y-92685714D01*
X184452381Y-80740285D02*
X184452381Y-81311714D01*
X184452381Y-81026000D02*
X183452381Y-81026000D01*
X183595238Y-81121238D01*
X183690476Y-81216476D01*
X183738095Y-81311714D01*
X186004762Y-96885714D02*
X186052381Y-96742857D01*
X186052381Y-96504761D01*
X186004762Y-96409523D01*
X185957143Y-96361904D01*
X185861905Y-96314285D01*
X185766667Y-96314285D01*
X185671429Y-96361904D01*
X185623810Y-96409523D01*
X185576190Y-96504761D01*
X185528571Y-96695238D01*
X185480952Y-96790476D01*
X185433333Y-96838095D01*
X185338095Y-96885714D01*
X185242857Y-96885714D01*
X185147619Y-96838095D01*
X185100000Y-96790476D01*
X185052381Y-96695238D01*
X185052381Y-96457142D01*
X185100000Y-96314285D01*
X186052381Y-95885714D02*
X185052381Y-95885714D01*
X185052381Y-95504761D01*
X185100000Y-95409523D01*
X185147619Y-95361904D01*
X185242857Y-95314285D01*
X185385714Y-95314285D01*
X185480952Y-95361904D01*
X185528571Y-95409523D01*
X185576190Y-95504761D01*
X185576190Y-95885714D01*
X186052381Y-94314285D02*
X185576190Y-94647619D01*
X186052381Y-94885714D02*
X185052381Y-94885714D01*
X185052381Y-94504761D01*
X185100000Y-94409523D01*
X185147619Y-94361904D01*
X185242857Y-94314285D01*
X185385714Y-94314285D01*
X185480952Y-94361904D01*
X185528571Y-94409523D01*
X185576190Y-94504761D01*
X185576190Y-94885714D01*
X186052381Y-93885714D02*
X185052381Y-93885714D01*
X186052381Y-93314285D02*
X185480952Y-93742857D01*
X185052381Y-93314285D02*
X185623810Y-93885714D01*
X183928571Y-84838095D02*
X183928571Y-85171429D01*
X184452381Y-85171429D02*
X183452381Y-85171429D01*
X183452381Y-84695238D01*
X183452381Y-84314286D02*
X184261905Y-84314286D01*
X184357143Y-84266667D01*
X184404762Y-84219048D01*
X184452381Y-84123810D01*
X184452381Y-83933333D01*
X184404762Y-83838095D01*
X184357143Y-83790476D01*
X184261905Y-83742857D01*
X183452381Y-83742857D01*
X183928571Y-83266667D02*
X183928571Y-82933333D01*
X184452381Y-82790476D02*
X184452381Y-83266667D01*
X183452381Y-83266667D01*
X183452381Y-82790476D01*
X184452381Y-81885714D02*
X184452381Y-82361905D01*
X183452381Y-82361905D01*
D18*
X93297619Y-112265476D02*
X93297619Y-111015476D01*
X93773810Y-111015476D01*
X93892857Y-111075000D01*
X93952381Y-111134524D01*
X94011905Y-111253571D01*
X94011905Y-111432143D01*
X93952381Y-111551190D01*
X93892857Y-111610714D01*
X93773810Y-111670238D01*
X93297619Y-111670238D01*
X95261905Y-112146429D02*
X95202381Y-112205952D01*
X95023810Y-112265476D01*
X94904762Y-112265476D01*
X94726190Y-112205952D01*
X94607143Y-112086905D01*
X94547619Y-111967857D01*
X94488095Y-111729762D01*
X94488095Y-111551190D01*
X94547619Y-111313095D01*
X94607143Y-111194048D01*
X94726190Y-111075000D01*
X94904762Y-111015476D01*
X95023810Y-111015476D01*
X95202381Y-111075000D01*
X95261905Y-111134524D01*
X96214286Y-111610714D02*
X96392857Y-111670238D01*
X96452381Y-111729762D01*
X96511905Y-111848810D01*
X96511905Y-112027381D01*
X96452381Y-112146429D01*
X96392857Y-112205952D01*
X96273810Y-112265476D01*
X95797619Y-112265476D01*
X95797619Y-111015476D01*
X96214286Y-111015476D01*
X96333333Y-111075000D01*
X96392857Y-111134524D01*
X96452381Y-111253571D01*
X96452381Y-111372619D01*
X96392857Y-111491667D01*
X96333333Y-111551190D01*
X96214286Y-111610714D01*
X95797619Y-111610714D01*
X98595238Y-112265476D02*
X98000000Y-112265476D01*
X98000000Y-111015476D01*
X98952381Y-111908333D02*
X99547619Y-111908333D01*
X98833334Y-112265476D02*
X99250000Y-111015476D01*
X99666667Y-112265476D01*
X100321429Y-111670238D02*
X100321429Y-112265476D01*
X99904763Y-111015476D02*
X100321429Y-111670238D01*
X100738096Y-111015476D01*
X101392858Y-111015476D02*
X101630954Y-111015476D01*
X101750001Y-111075000D01*
X101869049Y-111194048D01*
X101928573Y-111432143D01*
X101928573Y-111848810D01*
X101869049Y-112086905D01*
X101750001Y-112205952D01*
X101630954Y-112265476D01*
X101392858Y-112265476D01*
X101273811Y-112205952D01*
X101154763Y-112086905D01*
X101095239Y-111848810D01*
X101095239Y-111432143D01*
X101154763Y-111194048D01*
X101273811Y-111075000D01*
X101392858Y-111015476D01*
X102464287Y-111015476D02*
X102464287Y-112027381D01*
X102523811Y-112146429D01*
X102583335Y-112205952D01*
X102702382Y-112265476D01*
X102940478Y-112265476D01*
X103059525Y-112205952D01*
X103119049Y-112146429D01*
X103178573Y-112027381D01*
X103178573Y-111015476D01*
X103595240Y-111015476D02*
X104309525Y-111015476D01*
X103952382Y-112265476D02*
X103952382Y-111015476D01*
X106095240Y-111610714D02*
X106273811Y-111670238D01*
X106333335Y-111729762D01*
X106392859Y-111848810D01*
X106392859Y-112027381D01*
X106333335Y-112146429D01*
X106273811Y-112205952D01*
X106154764Y-112265476D01*
X105678573Y-112265476D01*
X105678573Y-111015476D01*
X106095240Y-111015476D01*
X106214287Y-111075000D01*
X106273811Y-111134524D01*
X106333335Y-111253571D01*
X106333335Y-111372619D01*
X106273811Y-111491667D01*
X106214287Y-111551190D01*
X106095240Y-111610714D01*
X105678573Y-111610714D01*
X107166668Y-111670238D02*
X107166668Y-112265476D01*
X106750002Y-111015476D02*
X107166668Y-111670238D01*
X107583335Y-111015476D01*
D19*
X93325348Y-115207984D02*
X93325348Y-113207984D01*
X94468206Y-115207984D01*
X94468206Y-113207984D01*
X95801539Y-113207984D02*
X96182491Y-113207984D01*
X96372967Y-113303222D01*
X96563444Y-113493698D01*
X96658682Y-113874651D01*
X96658682Y-114541317D01*
X96563444Y-114922270D01*
X96372967Y-115112746D01*
X96182491Y-115207984D01*
X95801539Y-115207984D01*
X95611063Y-115112746D01*
X95420586Y-114922270D01*
X95325348Y-114541317D01*
X95325348Y-113874651D01*
X95420586Y-113493698D01*
X95611063Y-113303222D01*
X95801539Y-113207984D01*
X97420586Y-113398460D02*
X97515824Y-113303222D01*
X97706301Y-113207984D01*
X98182491Y-113207984D01*
X98372967Y-113303222D01*
X98468205Y-113398460D01*
X98563444Y-113588936D01*
X98563444Y-113779412D01*
X98468205Y-114065127D01*
X97325348Y-115207984D01*
X98563444Y-115207984D01*
X100563444Y-115017508D02*
X100468206Y-115112746D01*
X100182491Y-115207984D01*
X99992015Y-115207984D01*
X99706301Y-115112746D01*
X99515825Y-114922270D01*
X99420586Y-114731793D01*
X99325348Y-114350841D01*
X99325348Y-114065127D01*
X99420586Y-113684174D01*
X99515825Y-113493698D01*
X99706301Y-113303222D01*
X99992015Y-113207984D01*
X100182491Y-113207984D01*
X100468206Y-113303222D01*
X100563444Y-113398460D01*
D20*
X115066071Y-116692857D02*
X113566071Y-116692857D01*
X114637500Y-116192857D01*
X113566071Y-115692857D01*
X115066071Y-115692857D01*
X114637500Y-115050000D02*
X114637500Y-114335714D01*
X115066071Y-115192857D02*
X113566071Y-114692857D01*
X115066071Y-114192857D01*
X115066071Y-113692857D02*
X113566071Y-113692857D01*
X113566071Y-113335714D01*
X113637500Y-113121429D01*
X113780357Y-112978571D01*
X113923214Y-112907143D01*
X114208929Y-112835714D01*
X114423214Y-112835714D01*
X114708929Y-112907143D01*
X114851786Y-112978571D01*
X114994643Y-113121429D01*
X115066071Y-113335714D01*
X115066071Y-113692857D01*
X114280357Y-112192857D02*
X114280357Y-111692857D01*
X115066071Y-111478571D02*
X115066071Y-112192857D01*
X113566071Y-112192857D01*
X113566071Y-111478571D01*
X114280357Y-109192857D02*
X114280357Y-109692857D01*
X115066071Y-109692857D02*
X113566071Y-109692857D01*
X113566071Y-108978571D01*
X113566071Y-108121429D02*
X113566071Y-107835715D01*
X113637500Y-107692857D01*
X113780357Y-107550000D01*
X114066071Y-107478572D01*
X114566071Y-107478572D01*
X114851786Y-107550000D01*
X114994643Y-107692857D01*
X115066071Y-107835715D01*
X115066071Y-108121429D01*
X114994643Y-108264286D01*
X114851786Y-108407143D01*
X114566071Y-108478572D01*
X114066071Y-108478572D01*
X113780357Y-108407143D01*
X113637500Y-108264286D01*
X113566071Y-108121429D01*
X115066071Y-105978571D02*
X114351786Y-106478571D01*
X115066071Y-106835714D02*
X113566071Y-106835714D01*
X113566071Y-106264286D01*
X113637500Y-106121428D01*
X113708929Y-106050000D01*
X113851786Y-105978571D01*
X114066071Y-105978571D01*
X114208929Y-106050000D01*
X114280357Y-106121428D01*
X114351786Y-106264286D01*
X114351786Y-106835714D01*
X117619643Y-116764286D02*
X117691071Y-116550000D01*
X117691071Y-116192857D01*
X117619643Y-116050000D01*
X117548214Y-115978571D01*
X117405357Y-115907143D01*
X117262500Y-115907143D01*
X117119643Y-115978571D01*
X117048214Y-116050000D01*
X116976786Y-116192857D01*
X116905357Y-116478571D01*
X116833929Y-116621429D01*
X116762500Y-116692857D01*
X116619643Y-116764286D01*
X116476786Y-116764286D01*
X116333929Y-116692857D01*
X116262500Y-116621429D01*
X116191071Y-116478571D01*
X116191071Y-116121429D01*
X116262500Y-115907143D01*
X117691071Y-115264286D02*
X116191071Y-115264286D01*
X116191071Y-114692858D01*
X116262500Y-114550000D01*
X116333929Y-114478572D01*
X116476786Y-114407143D01*
X116691071Y-114407143D01*
X116833929Y-114478572D01*
X116905357Y-114550000D01*
X116976786Y-114692858D01*
X116976786Y-115264286D01*
X116905357Y-113764286D02*
X116905357Y-113264286D01*
X117691071Y-113050000D02*
X117691071Y-113764286D01*
X116191071Y-113764286D01*
X116191071Y-113050000D01*
X116905357Y-112407143D02*
X116905357Y-111907143D01*
X117691071Y-111692857D02*
X117691071Y-112407143D01*
X116191071Y-112407143D01*
X116191071Y-111692857D01*
X117691071Y-111050000D02*
X116191071Y-111050000D01*
X116191071Y-110692857D01*
X116262500Y-110478572D01*
X116405357Y-110335714D01*
X116548214Y-110264286D01*
X116833929Y-110192857D01*
X117048214Y-110192857D01*
X117333929Y-110264286D01*
X117476786Y-110335714D01*
X117619643Y-110478572D01*
X117691071Y-110692857D01*
X117691071Y-111050000D01*
X116191071Y-109550000D02*
X117405357Y-109550000D01*
X117548214Y-109478572D01*
X117619643Y-109407143D01*
X117691071Y-109264286D01*
X117691071Y-108978572D01*
X117619643Y-108835714D01*
X117548214Y-108764286D01*
X117405357Y-108692857D01*
X116191071Y-108692857D01*
X117691071Y-107978571D02*
X116191071Y-107978571D01*
X117691071Y-107264285D02*
X116191071Y-107264285D01*
X117691071Y-106407142D01*
X116191071Y-106407142D01*
X116191071Y-105407142D02*
X116191071Y-105121428D01*
X116262500Y-104978570D01*
X116405357Y-104835713D01*
X116691071Y-104764285D01*
X117191071Y-104764285D01*
X117476786Y-104835713D01*
X117619643Y-104978570D01*
X117691071Y-105121428D01*
X117691071Y-105407142D01*
X117619643Y-105549999D01*
X117476786Y-105692856D01*
X117191071Y-105764285D01*
X116691071Y-105764285D01*
X116405357Y-105692856D01*
X116262500Y-105549999D01*
X116191071Y-105407142D01*
D11*
X184842858Y-112452381D02*
X184509524Y-111976190D01*
X184271429Y-112452381D02*
X184271429Y-111452381D01*
X184652382Y-111452381D01*
X184747620Y-111500000D01*
X184795239Y-111547619D01*
X184842858Y-111642857D01*
X184842858Y-111785714D01*
X184795239Y-111880952D01*
X184747620Y-111928571D01*
X184652382Y-111976190D01*
X184271429Y-111976190D01*
X185271429Y-112452381D02*
X185271429Y-111452381D01*
X185652382Y-111452381D01*
X185747620Y-111500000D01*
X185795239Y-111547619D01*
X185842858Y-111642857D01*
X185842858Y-111785714D01*
X185795239Y-111880952D01*
X185747620Y-111928571D01*
X185652382Y-111976190D01*
X185271429Y-111976190D01*
X186271429Y-112452381D02*
X186271429Y-111452381D01*
X186604763Y-112166667D01*
X186938096Y-111452381D01*
X186938096Y-112452381D01*
X187414286Y-112071429D02*
X188176191Y-112071429D01*
X188604762Y-111547619D02*
X188652381Y-111500000D01*
X188747619Y-111452381D01*
X188985715Y-111452381D01*
X189080953Y-111500000D01*
X189128572Y-111547619D01*
X189176191Y-111642857D01*
X189176191Y-111738095D01*
X189128572Y-111880952D01*
X188557143Y-112452381D01*
X189176191Y-112452381D01*
X168092381Y-107457642D02*
X167616190Y-107790976D01*
X168092381Y-108029071D02*
X167092381Y-108029071D01*
X167092381Y-107648118D01*
X167140000Y-107552880D01*
X167187619Y-107505261D01*
X167282857Y-107457642D01*
X167425714Y-107457642D01*
X167520952Y-107505261D01*
X167568571Y-107552880D01*
X167616190Y-107648118D01*
X167616190Y-108029071D01*
X168092381Y-107029071D02*
X167092381Y-107029071D01*
X167092381Y-106648118D01*
X167140000Y-106552880D01*
X167187619Y-106505261D01*
X167282857Y-106457642D01*
X167425714Y-106457642D01*
X167520952Y-106505261D01*
X167568571Y-106552880D01*
X167616190Y-106648118D01*
X167616190Y-107029071D01*
X168092381Y-106029071D02*
X167092381Y-106029071D01*
X167806667Y-105695737D01*
X167092381Y-105362404D01*
X168092381Y-105362404D01*
X167711429Y-104886214D02*
X167711429Y-104124309D01*
X168092381Y-103124309D02*
X168092381Y-103695738D01*
X168092381Y-103410024D02*
X167092381Y-103410024D01*
X167235238Y-103505262D01*
X167330476Y-103600500D01*
X167378095Y-103695738D01*
D18*
X170002476Y-110679881D02*
X170269143Y-111679881D01*
X170535810Y-110679881D01*
X171259619Y-111679881D02*
X170992952Y-111203690D01*
X170802476Y-111679881D02*
X170802476Y-110679881D01*
X171107238Y-110679881D01*
X171183429Y-110727500D01*
X171221524Y-110775119D01*
X171259619Y-110870357D01*
X171259619Y-111013214D01*
X171221524Y-111108452D01*
X171183429Y-111156071D01*
X171107238Y-111203690D01*
X170802476Y-111203690D01*
X172364381Y-110679881D02*
X172516762Y-110679881D01*
X172592953Y-110727500D01*
X172669143Y-110822738D01*
X172707238Y-111013214D01*
X172707238Y-111346548D01*
X172669143Y-111537024D01*
X172592953Y-111632262D01*
X172516762Y-111679881D01*
X172364381Y-111679881D01*
X172288191Y-111632262D01*
X172212000Y-111537024D01*
X172173905Y-111346548D01*
X172173905Y-111013214D01*
X172212000Y-110822738D01*
X172288191Y-110727500D01*
X172364381Y-110679881D01*
X173050095Y-111679881D02*
X173050095Y-110679881D01*
X173354857Y-110679881D01*
X173431048Y-110727500D01*
X173469143Y-110775119D01*
X173507238Y-110870357D01*
X173507238Y-111013214D01*
X173469143Y-111108452D01*
X173431048Y-111156071D01*
X173354857Y-111203690D01*
X173050095Y-111203690D01*
X173850095Y-111679881D02*
X173850095Y-110679881D01*
X174307238Y-111679881D01*
X174307238Y-110679881D01*
X169183429Y-113379881D02*
X169183429Y-112379881D01*
X169183429Y-112856071D02*
X169640572Y-112856071D01*
X169640572Y-113379881D02*
X169640572Y-112379881D01*
X169983429Y-113094167D02*
X170364381Y-113094167D01*
X169907238Y-113379881D02*
X170173905Y-112379881D01*
X170440572Y-113379881D01*
X171088191Y-113379881D02*
X170707238Y-113379881D01*
X170707238Y-112379881D01*
X171735810Y-113379881D02*
X171354857Y-113379881D01*
X171354857Y-112379881D01*
X173069143Y-113284643D02*
X173031048Y-113332262D01*
X172916762Y-113379881D01*
X172840572Y-113379881D01*
X172726286Y-113332262D01*
X172650095Y-113237024D01*
X172612000Y-113141786D01*
X172573905Y-112951310D01*
X172573905Y-112808452D01*
X172612000Y-112617976D01*
X172650095Y-112522738D01*
X172726286Y-112427500D01*
X172840572Y-112379881D01*
X172916762Y-112379881D01*
X173031048Y-112427500D01*
X173069143Y-112475119D01*
X173792953Y-113379881D02*
X173412000Y-113379881D01*
X173412000Y-112379881D01*
X174021524Y-113332262D02*
X174135810Y-113379881D01*
X174326286Y-113379881D01*
X174402476Y-113332262D01*
X174440572Y-113284643D01*
X174478667Y-113189405D01*
X174478667Y-113094167D01*
X174440572Y-112998929D01*
X174402476Y-112951310D01*
X174326286Y-112903690D01*
X174173905Y-112856071D01*
X174097714Y-112808452D01*
X174059619Y-112760833D01*
X174021524Y-112665595D01*
X174021524Y-112570357D01*
X174059619Y-112475119D01*
X174097714Y-112427500D01*
X174173905Y-112379881D01*
X174364381Y-112379881D01*
X174478667Y-112427500D01*
X174821524Y-113379881D02*
X174821524Y-112379881D01*
X175012000Y-112379881D01*
X175126286Y-112427500D01*
X175202477Y-112522738D01*
X175240572Y-112617976D01*
X175278667Y-112808452D01*
X175278667Y-112951310D01*
X175240572Y-113141786D01*
X175202477Y-113237024D01*
X175126286Y-113332262D01*
X175012000Y-113379881D01*
X174821524Y-113379881D01*
D12*
X169616381Y-103250857D02*
X168616381Y-103250857D01*
X169092571Y-103250857D02*
X169092571Y-102822285D01*
X169616381Y-102822285D02*
X168616381Y-102822285D01*
X169330667Y-102500857D02*
X169330667Y-102143714D01*
X169616381Y-102572285D02*
X168616381Y-102322285D01*
X169616381Y-102072285D01*
X169616381Y-101465143D02*
X169616381Y-101822286D01*
X168616381Y-101822286D01*
X169616381Y-100858000D02*
X169616381Y-101215143D01*
X168616381Y-101215143D01*
X188412381Y-103250857D02*
X187412381Y-103250857D01*
X187888571Y-103250857D02*
X187888571Y-102822285D01*
X188412381Y-102822285D02*
X187412381Y-102822285D01*
X188126667Y-102500857D02*
X188126667Y-102143714D01*
X188412381Y-102572285D02*
X187412381Y-102322285D01*
X188412381Y-102072285D01*
X188412381Y-101465143D02*
X188412381Y-101822286D01*
X187412381Y-101822286D01*
X188412381Y-100858000D02*
X188412381Y-101215143D01*
X187412381Y-101215143D01*
X168616381Y-106034999D02*
X169616381Y-105784999D01*
X168616381Y-105534999D01*
X169616381Y-104856428D02*
X169140190Y-105106428D01*
X169616381Y-105285000D02*
X168616381Y-105285000D01*
X168616381Y-104999285D01*
X168664000Y-104927857D01*
X168711619Y-104892142D01*
X168806857Y-104856428D01*
X168949714Y-104856428D01*
X169044952Y-104892142D01*
X169092571Y-104927857D01*
X169140190Y-104999285D01*
X169140190Y-105285000D01*
X187412381Y-106034999D02*
X188412381Y-105784999D01*
X187412381Y-105534999D01*
X188412381Y-104856428D02*
X187936190Y-105106428D01*
X188412381Y-105285000D02*
X187412381Y-105285000D01*
X187412381Y-104999285D01*
X187460000Y-104927857D01*
X187507619Y-104892142D01*
X187602857Y-104856428D01*
X187745714Y-104856428D01*
X187840952Y-104892142D01*
X187888571Y-104927857D01*
X187936190Y-104999285D01*
X187936190Y-105285000D01*
D21*
X162733500Y-80397500D02*
X163213500Y-80397500D01*
X163213500Y-80397500D02*
X163213500Y-90417500D01*
X163213500Y-90417500D02*
X162733500Y-90417500D01*
X159973500Y-80397500D02*
X159493500Y-80397500D01*
X159493500Y-80397500D02*
X159493500Y-90417500D01*
X159493500Y-90417500D02*
X159973500Y-90417500D01*
D17*
X110300000Y-112200000D02*
X110800000Y-111700000D01*
X109800000Y-111700000D02*
X110300000Y-112200000D01*
X109800000Y-111700000D02*
X110300000Y-111200000D01*
X110300000Y-111200000D02*
X110800000Y-111700000D01*
X109800000Y-111700000D02*
X110800000Y-111700000D01*
X110300000Y-111200000D02*
X110300000Y-112200000D01*
X110800000Y-111700000D02*
X111800000Y-110700000D01*
X110800000Y-111700000D02*
X111800000Y-112700000D01*
X108800000Y-112700000D02*
X109800000Y-111700000D01*
X108800000Y-110700000D02*
X109800000Y-111700000D01*
D21*
X170159500Y-72393000D02*
X170159500Y-69593000D01*
X170159500Y-69593000D02*
X146959500Y-69593000D01*
X146959500Y-69593000D02*
X146959500Y-72393000D01*
X146959500Y-72393000D02*
X170159500Y-72393000D01*
X167449500Y-72393000D02*
X167449500Y-69593000D01*
X124039000Y-85962500D02*
X134279000Y-85962500D01*
X124039000Y-90603500D02*
X134279000Y-90603500D01*
X124039000Y-85962500D02*
X124039000Y-90603500D01*
X134279000Y-85962500D02*
X134279000Y-90603500D01*
X124039000Y-87472500D02*
X134279000Y-87472500D01*
X127309000Y-85962500D02*
X127309000Y-87472500D01*
X131010000Y-85962500D02*
X131010000Y-87472500D01*
X124039000Y-80120500D02*
X134279000Y-80120500D01*
X124039000Y-84761500D02*
X134279000Y-84761500D01*
X124039000Y-80120500D02*
X124039000Y-84761500D01*
X134279000Y-80120500D02*
X134279000Y-84761500D01*
X124039000Y-81630500D02*
X134279000Y-81630500D01*
X127309000Y-80120500D02*
X127309000Y-81630500D01*
X131010000Y-80120500D02*
X131010000Y-81630500D01*
X124039000Y-74342000D02*
X134279000Y-74342000D01*
X124039000Y-78983000D02*
X134279000Y-78983000D01*
X124039000Y-74342000D02*
X124039000Y-78983000D01*
X134279000Y-74342000D02*
X134279000Y-78983000D01*
X124039000Y-75852000D02*
X134279000Y-75852000D01*
X127309000Y-74342000D02*
X127309000Y-75852000D01*
X131010000Y-74342000D02*
X131010000Y-75852000D01*
X135405500Y-74342000D02*
X145645500Y-74342000D01*
X135405500Y-78983000D02*
X145645500Y-78983000D01*
X135405500Y-74342000D02*
X135405500Y-78983000D01*
X145645500Y-74342000D02*
X145645500Y-78983000D01*
X135405500Y-75852000D02*
X145645500Y-75852000D01*
X138675500Y-74342000D02*
X138675500Y-75852000D01*
X142376500Y-74342000D02*
X142376500Y-75852000D01*
X135405500Y-80120500D02*
X145645500Y-80120500D01*
X135405500Y-84761500D02*
X145645500Y-84761500D01*
X135405500Y-80120500D02*
X135405500Y-84761500D01*
X145645500Y-80120500D02*
X145645500Y-84761500D01*
X135405500Y-81630500D02*
X145645500Y-81630500D01*
X138675500Y-80120500D02*
X138675500Y-81630500D01*
X142376500Y-80120500D02*
X142376500Y-81630500D01*
X135405500Y-85962500D02*
X145645500Y-85962500D01*
X135405500Y-90603500D02*
X145645500Y-90603500D01*
X135405500Y-85962500D02*
X135405500Y-90603500D01*
X145645500Y-85962500D02*
X145645500Y-90603500D01*
X135405500Y-87472500D02*
X145645500Y-87472500D01*
X138675500Y-85962500D02*
X138675500Y-87472500D01*
X142376500Y-85962500D02*
X142376500Y-87472500D01*
X118064500Y-93600500D02*
X118064500Y-101350500D01*
X159664500Y-93600500D02*
X159664500Y-101350500D01*
X118064500Y-93600500D02*
X159664500Y-93600500D01*
X118064500Y-101350500D02*
X159664500Y-101350500D01*
X115115500Y-78606000D02*
X114985500Y-78606000D01*
X114985500Y-78606000D02*
X114985500Y-73286000D01*
X114985500Y-73286000D02*
X115115500Y-73286000D01*
X117675500Y-78606000D02*
X117805500Y-78606000D01*
X117805500Y-78606000D02*
X117805500Y-73286000D01*
X117805500Y-73286000D02*
X117675500Y-73286000D01*
X114985500Y-77766000D02*
X117805500Y-77766000D01*
X122338000Y-112430000D02*
X122338000Y-108510000D01*
X125058000Y-112430000D02*
X125058000Y-108510000D01*
X122338000Y-112430000D02*
X122948000Y-112430000D01*
X124448000Y-112430000D02*
X125058000Y-112430000D01*
X122338000Y-108510000D02*
X122948000Y-108510000D01*
X124448000Y-108510000D02*
X125058000Y-108510000D01*
X155592000Y-90417500D02*
X155112000Y-90417500D01*
X155112000Y-90417500D02*
X155112000Y-80397500D01*
X155112000Y-80397500D02*
X155592000Y-80397500D01*
X158352000Y-90417500D02*
X158832000Y-90417500D01*
X158832000Y-90417500D02*
X158832000Y-80397500D01*
X158832000Y-80397500D02*
X158352000Y-80397500D01*
X113763557Y-64486838D02*
G75*
G03X113764500Y-70347478I980943J-2930162D01*
G01*
X115725443Y-64486838D02*
G75*
G02X115724500Y-70347478I-980943J-2930162D01*
G01*
X115725443Y-64486838D02*
G75*
G03X113764500Y-64486522I-980943J-2930162D01*
G01*
X114744500Y-70867000D02*
X114744500Y-69667000D01*
X114094500Y-70267000D02*
X115394500Y-70267000D01*
X120487943Y-86452662D02*
G75*
G03X120487000Y-80592022I-980943J2930162D01*
G01*
X118526057Y-86452662D02*
G75*
G02X118527000Y-80592022I980943J2930162D01*
G01*
X118526057Y-86452662D02*
G75*
G03X120487000Y-86452978I980943J2930162D01*
G01*
X119507000Y-80072500D02*
X119507000Y-81272500D01*
X120157000Y-80672500D02*
X118857000Y-80672500D01*
D17*
X122598500Y-79826000D02*
X122598500Y-64326000D01*
X118398500Y-79826000D02*
X118398500Y-64326000D01*
X118398500Y-64326000D02*
X122598500Y-64326000D01*
X118398500Y-79826000D02*
X122598500Y-79826000D01*
D21*
X145013500Y-72393000D02*
X145013500Y-69593000D01*
X145013500Y-69593000D02*
X124353500Y-69593000D01*
X124353500Y-69593000D02*
X124353500Y-72393000D01*
X124353500Y-72393000D02*
X145013500Y-72393000D01*
X142303500Y-72393000D02*
X142303500Y-69593000D01*
X135044000Y-107826000D02*
X135044000Y-105026000D01*
X135044000Y-105026000D02*
X119464000Y-105026000D01*
X119464000Y-105026000D02*
X119464000Y-107826000D01*
X119464000Y-107826000D02*
X135044000Y-107826000D01*
X132334000Y-107826000D02*
X132334000Y-105026000D01*
X146388000Y-105026000D02*
X146388000Y-107826000D01*
X146388000Y-107826000D02*
X161968000Y-107826000D01*
X161968000Y-107826000D02*
X161968000Y-105026000D01*
X161968000Y-105026000D02*
X146388000Y-105026000D01*
X149098000Y-105026000D02*
X149098000Y-107826000D01*
X190308608Y-100055935D02*
G75*
G03X190465516Y-96823600I-1078608J1672335D01*
G01*
X188151392Y-100055935D02*
G75*
G02X187994484Y-96823600I1078608J1672335D01*
G01*
X190309837Y-99424730D02*
G75*
G03X190310000Y-97342639I-1079837J1041130D01*
G01*
X188150163Y-99424730D02*
G75*
G02X188150000Y-97342639I1079837J1041130D01*
G01*
X190466000Y-96823600D02*
X190310000Y-96823600D01*
X188150000Y-96823600D02*
X187994000Y-96823600D01*
X190308608Y-94975935D02*
G75*
G03X190465516Y-91743600I-1078608J1672335D01*
G01*
X188151392Y-94975935D02*
G75*
G02X187994484Y-91743600I1078608J1672335D01*
G01*
X190309837Y-94344730D02*
G75*
G03X190310000Y-92262639I-1079837J1041130D01*
G01*
X188150163Y-94344730D02*
G75*
G02X188150000Y-92262639I1079837J1041130D01*
G01*
X190466000Y-91743600D02*
X190310000Y-91743600D01*
X188150000Y-91743600D02*
X187994000Y-91743600D01*
X190308608Y-89895935D02*
G75*
G03X190465516Y-86663600I-1078608J1672335D01*
G01*
X188151392Y-89895935D02*
G75*
G02X187994484Y-86663600I1078608J1672335D01*
G01*
X190309837Y-89264730D02*
G75*
G03X190310000Y-87182639I-1079837J1041130D01*
G01*
X188150163Y-89264730D02*
G75*
G02X188150000Y-87182639I1079837J1041130D01*
G01*
X190466000Y-86663600D02*
X190310000Y-86663600D01*
X188150000Y-86663600D02*
X187994000Y-86663600D01*
X190308608Y-84815935D02*
G75*
G03X190465516Y-81583600I-1078608J1672335D01*
G01*
X188151392Y-84815935D02*
G75*
G02X187994484Y-81583600I1078608J1672335D01*
G01*
X190309837Y-84184730D02*
G75*
G03X190310000Y-82102639I-1079837J1041130D01*
G01*
X188150163Y-84184730D02*
G75*
G02X188150000Y-82102639I1079837J1041130D01*
G01*
X190466000Y-81583600D02*
X190310000Y-81583600D01*
X188150000Y-81583600D02*
X187994000Y-81583600D01*
X168100500Y-87178500D02*
G75*
G02X170100500Y-87178500I1000000J0D01*
G01*
X170100500Y-87178500D02*
X171870500Y-87178500D01*
X171870500Y-87178500D02*
X171870500Y-76778500D01*
X171870500Y-76778500D02*
X166330500Y-76778500D01*
X166330500Y-76778500D02*
X166330500Y-87178500D01*
X166330500Y-87178500D02*
X168100500Y-87178500D01*
X174300500Y-87178500D02*
X174300500Y-76778500D01*
X174300500Y-76778500D02*
X163900500Y-76778500D01*
X163900500Y-76778500D02*
X163900500Y-87178500D01*
X163900500Y-87178500D02*
X174300500Y-87178500D01*
X112532000Y-100337000D02*
X112662000Y-100337000D01*
X112662000Y-100337000D02*
X112662000Y-105657000D01*
X112662000Y-105657000D02*
X112532000Y-105657000D01*
X109972000Y-100337000D02*
X109842000Y-100337000D01*
X109842000Y-100337000D02*
X109842000Y-105657000D01*
X109842000Y-105657000D02*
X109972000Y-105657000D01*
X112662000Y-101177000D02*
X109842000Y-101177000D01*
X111686500Y-78606000D02*
X111556500Y-78606000D01*
X111556500Y-78606000D02*
X111556500Y-73286000D01*
X111556500Y-73286000D02*
X111686500Y-73286000D01*
X114246500Y-78606000D02*
X114376500Y-78606000D01*
X114376500Y-78606000D02*
X114376500Y-73286000D01*
X114376500Y-73286000D02*
X114246500Y-73286000D01*
X111556500Y-77766000D02*
X114376500Y-77766000D01*
X180139500Y-77590000D02*
X180009500Y-77590000D01*
X180009500Y-77590000D02*
X180009500Y-72270000D01*
X180009500Y-72270000D02*
X180139500Y-72270000D01*
X182699500Y-77590000D02*
X182829500Y-77590000D01*
X182829500Y-77590000D02*
X182829500Y-72270000D01*
X182829500Y-72270000D02*
X182699500Y-72270000D01*
X180009500Y-76750000D02*
X182829500Y-76750000D01*
X176647000Y-77590000D02*
X176517000Y-77590000D01*
X176517000Y-77590000D02*
X176517000Y-72270000D01*
X176517000Y-72270000D02*
X176647000Y-72270000D01*
X179207000Y-77590000D02*
X179337000Y-77590000D01*
X179337000Y-77590000D02*
X179337000Y-72270000D01*
X179337000Y-72270000D02*
X179207000Y-72270000D01*
X176517000Y-76750000D02*
X179337000Y-76750000D01*
X182779500Y-81776500D02*
X182779500Y-85696500D01*
X180059500Y-81776500D02*
X180059500Y-85696500D01*
X182779500Y-81776500D02*
X182169500Y-81776500D01*
X180669500Y-81776500D02*
X180059500Y-81776500D01*
X182779500Y-85696500D02*
X182169500Y-85696500D01*
X180669500Y-85696500D02*
X180059500Y-85696500D01*
X179477500Y-81776500D02*
X179477500Y-85696500D01*
X176757500Y-81776500D02*
X176757500Y-85696500D01*
X179477500Y-81776500D02*
X178867500Y-81776500D01*
X177367500Y-81776500D02*
X176757500Y-81776500D01*
X179477500Y-85696500D02*
X178867500Y-85696500D01*
X177367500Y-85696500D02*
X176757500Y-85696500D01*
X121756000Y-108510000D02*
X121756000Y-112430000D01*
X119036000Y-108510000D02*
X119036000Y-112430000D01*
X121756000Y-108510000D02*
X121146000Y-108510000D01*
X119646000Y-108510000D02*
X119036000Y-108510000D01*
X121756000Y-112430000D02*
X121146000Y-112430000D01*
X119646000Y-112430000D02*
X119036000Y-112430000D01*
X104192000Y-89240000D02*
X108112000Y-89240000D01*
X104192000Y-91960000D02*
X108112000Y-91960000D01*
X104192000Y-89240000D02*
X104192000Y-89850000D01*
X104192000Y-91350000D02*
X104192000Y-91960000D01*
X108112000Y-89240000D02*
X108112000Y-89850000D01*
X108112000Y-91350000D02*
X108112000Y-91960000D01*
X122581500Y-87277500D02*
X122581500Y-91197500D01*
X119861500Y-87277500D02*
X119861500Y-91197500D01*
X122581500Y-87277500D02*
X121971500Y-87277500D01*
X120471500Y-87277500D02*
X119861500Y-87277500D01*
X122581500Y-91197500D02*
X121971500Y-91197500D01*
X120471500Y-91197500D02*
X119861500Y-91197500D01*
X134964000Y-108510000D02*
X134964000Y-112430000D01*
X132244000Y-108510000D02*
X132244000Y-112430000D01*
X134964000Y-108510000D02*
X134354000Y-108510000D01*
X132854000Y-108510000D02*
X132244000Y-108510000D01*
X134964000Y-112430000D02*
X134354000Y-112430000D01*
X132854000Y-112430000D02*
X132244000Y-112430000D01*
X131662000Y-108510000D02*
X131662000Y-112430000D01*
X128942000Y-108510000D02*
X128942000Y-112430000D01*
X131662000Y-108510000D02*
X131052000Y-108510000D01*
X129552000Y-108510000D02*
X128942000Y-108510000D01*
X131662000Y-112430000D02*
X131052000Y-112430000D01*
X129552000Y-112430000D02*
X128942000Y-112430000D01*
X140560500Y-116676000D02*
X136640500Y-116676000D01*
X140560500Y-113956000D02*
X136640500Y-113956000D01*
X140560500Y-116676000D02*
X140560500Y-116066000D01*
X140560500Y-114566000D02*
X140560500Y-113956000D01*
X136640500Y-116676000D02*
X136640500Y-116066000D01*
X136640500Y-114566000D02*
X136640500Y-113956000D01*
X128360000Y-108510000D02*
X128360000Y-112430000D01*
X125640000Y-108510000D02*
X125640000Y-112430000D01*
X128360000Y-108510000D02*
X127750000Y-108510000D01*
X126250000Y-108510000D02*
X125640000Y-108510000D01*
X128360000Y-112430000D02*
X127750000Y-112430000D01*
X126250000Y-112430000D02*
X125640000Y-112430000D01*
X152490000Y-108510000D02*
X152490000Y-112430000D01*
X149770000Y-108510000D02*
X149770000Y-112430000D01*
X152490000Y-108510000D02*
X151880000Y-108510000D01*
X150380000Y-108510000D02*
X149770000Y-108510000D01*
X152490000Y-112430000D02*
X151880000Y-112430000D01*
X150380000Y-112430000D02*
X149770000Y-112430000D01*
X165761500Y-105716000D02*
X165761500Y-109636000D01*
X163041500Y-105716000D02*
X163041500Y-109636000D01*
X165761500Y-105716000D02*
X165151500Y-105716000D01*
X163651500Y-105716000D02*
X163041500Y-105716000D01*
X165761500Y-109636000D02*
X165151500Y-109636000D01*
X163651500Y-109636000D02*
X163041500Y-109636000D01*
X162396000Y-108510000D02*
X162396000Y-112430000D01*
X159676000Y-108510000D02*
X159676000Y-112430000D01*
X162396000Y-108510000D02*
X161786000Y-108510000D01*
X160286000Y-108510000D02*
X159676000Y-108510000D01*
X162396000Y-112430000D02*
X161786000Y-112430000D01*
X160286000Y-112430000D02*
X159676000Y-112430000D01*
X159094000Y-108510000D02*
X159094000Y-112430000D01*
X156374000Y-108510000D02*
X156374000Y-112430000D01*
X159094000Y-108510000D02*
X158484000Y-108510000D01*
X156984000Y-108510000D02*
X156374000Y-108510000D01*
X159094000Y-112430000D02*
X158484000Y-112430000D01*
X156984000Y-112430000D02*
X156374000Y-112430000D01*
X155792000Y-108510000D02*
X155792000Y-112430000D01*
X153072000Y-108510000D02*
X153072000Y-112430000D01*
X155792000Y-108510000D02*
X155182000Y-108510000D01*
X153682000Y-108510000D02*
X153072000Y-108510000D01*
X155792000Y-112430000D02*
X155182000Y-112430000D01*
X153682000Y-112430000D02*
X153072000Y-112430000D01*
X111235500Y-91607000D02*
X111235500Y-81367000D01*
X115876500Y-91607000D02*
X115876500Y-81367000D01*
X111235500Y-91607000D02*
X115876500Y-91607000D01*
X111235500Y-81367000D02*
X115876500Y-81367000D01*
X112745500Y-91607000D02*
X112745500Y-81367000D01*
X111235500Y-88337000D02*
X112745500Y-88337000D01*
X111235500Y-84636000D02*
X112745500Y-84636000D01*
X119216000Y-87277500D02*
X119216000Y-91197500D01*
X116496000Y-87277500D02*
X116496000Y-91197500D01*
X119216000Y-87277500D02*
X118606000Y-87277500D01*
X117106000Y-87277500D02*
X116496000Y-87277500D01*
X119216000Y-91197500D02*
X118606000Y-91197500D01*
X117106000Y-91197500D02*
X116496000Y-91197500D01*
X173362000Y-103902000D02*
G75*
G02X173362000Y-105902000I0J-1000000D01*
G01*
X173362000Y-105902000D02*
X173362000Y-107672000D01*
X173362000Y-107672000D02*
X183762000Y-107672000D01*
X183762000Y-107672000D02*
X183762000Y-102132000D01*
X183762000Y-102132000D02*
X173362000Y-102132000D01*
X173362000Y-102132000D02*
X173362000Y-103902000D01*
X173362000Y-110102000D02*
X183762000Y-110102000D01*
X183762000Y-110102000D02*
X183762000Y-99702000D01*
X183762000Y-99702000D02*
X173362000Y-99702000D01*
X173362000Y-99702000D02*
X173362000Y-110102000D01*
X149188000Y-108510000D02*
X149188000Y-112430000D01*
X146468000Y-108510000D02*
X146468000Y-112430000D01*
X149188000Y-108510000D02*
X148578000Y-108510000D01*
X147078000Y-108510000D02*
X146468000Y-108510000D01*
X149188000Y-112430000D02*
X148578000Y-112430000D01*
X147078000Y-112430000D02*
X146468000Y-112430000D01*
X141716000Y-102686500D02*
G75*
G02X139716000Y-102686500I-1000000J0D01*
G01*
X139716000Y-102686500D02*
X137946000Y-102686500D01*
X137946000Y-102686500D02*
X137946000Y-113086500D01*
X137946000Y-113086500D02*
X143486000Y-113086500D01*
X143486000Y-113086500D02*
X143486000Y-102686500D01*
X143486000Y-102686500D02*
X141716000Y-102686500D01*
X135516000Y-102686500D02*
X135516000Y-113086500D01*
X135516000Y-113086500D02*
X145916000Y-113086500D01*
X145916000Y-113086500D02*
X145916000Y-102686500D01*
X145916000Y-102686500D02*
X135516000Y-102686500D01*
X183812000Y-116716000D02*
X183812000Y-113916000D01*
X183812000Y-113916000D02*
X163152000Y-113916000D01*
X163152000Y-113916000D02*
X163152000Y-116716000D01*
X163152000Y-116716000D02*
X183812000Y-116716000D01*
X181102000Y-116716000D02*
X181102000Y-113916000D01*
X112642000Y-104047000D02*
G75*
G02X112642000Y-101647000I0J1200000D01*
G01*
X112642000Y-101647000D02*
X112642000Y-97687000D01*
X112642000Y-97687000D02*
X92082000Y-97687000D01*
X92082000Y-97687000D02*
X92082000Y-108307000D01*
X92082000Y-108307000D02*
X112642000Y-108307000D01*
X112642000Y-108307000D02*
X112642000Y-104047000D01*
X108728000Y-85471000D02*
X108728000Y-86741000D01*
X108728000Y-86741000D02*
X107458000Y-86741000D01*
X164614000Y-93527000D02*
X161014000Y-93527000D01*
X164652478Y-93538522D02*
G75*
G02X162814000Y-97977000I-1838478J-1838478D01*
G01*
X160975522Y-93538522D02*
G75*
G03X162814000Y-97977000I1838478J-1838478D01*
G01*
X165862000Y-113404000D02*
X168522000Y-113404000D01*
X168522000Y-113404000D02*
X168522000Y-110624000D01*
X168522000Y-110624000D02*
X165862000Y-110624000D01*
X165862000Y-110624000D02*
X165862000Y-113404000D01*
X164592000Y-113404000D02*
X163202000Y-113404000D01*
X163202000Y-113404000D02*
X163202000Y-112014000D01*
X178562000Y-110624000D02*
X175902000Y-110624000D01*
X175902000Y-110624000D02*
X175902000Y-113404000D01*
X175902000Y-113404000D02*
X178562000Y-113404000D01*
X178562000Y-113404000D02*
X178562000Y-110624000D01*
X179832000Y-110624000D02*
X181222000Y-110624000D01*
X181222000Y-110624000D02*
X181222000Y-112014000D01*
X187064000Y-104902000D02*
X187064000Y-99702000D01*
X187064000Y-99702000D02*
X184284000Y-99702000D01*
X184284000Y-99702000D02*
X184284000Y-104902000D01*
X184284000Y-104902000D02*
X187064000Y-104902000D01*
X187064000Y-106172000D02*
X187064000Y-107562000D01*
X187064000Y-107562000D02*
X185674000Y-107562000D01*
X172840000Y-104902000D02*
X172840000Y-99702000D01*
X172840000Y-99702000D02*
X170060000Y-99702000D01*
X170060000Y-99702000D02*
X170060000Y-104902000D01*
X170060000Y-104902000D02*
X172840000Y-104902000D01*
X172840000Y-106172000D02*
X172840000Y-107562000D01*
X172840000Y-107562000D02*
X171450000Y-107562000D01*
X149250886Y-80201466D02*
X154450886Y-80201466D01*
X154450886Y-80201466D02*
X154450886Y-77421466D01*
X154450886Y-77421466D02*
X149250886Y-77421466D01*
X149250886Y-77421466D02*
X149250886Y-80201466D01*
X147980886Y-80201466D02*
X146590886Y-80201466D01*
X146590886Y-80201466D02*
X146590886Y-78811466D01*
X167619500Y-75758500D02*
X167619500Y-72958500D01*
X167619500Y-72958500D02*
X146959500Y-72958500D01*
X146959500Y-72958500D02*
X146959500Y-75758500D01*
X146959500Y-75758500D02*
X167619500Y-75758500D01*
X164909500Y-75758500D02*
X164909500Y-72958500D01*
X127092000Y-102207500D02*
X127092000Y-101877500D01*
X127092000Y-101877500D02*
X133512000Y-101877500D01*
X133512000Y-101877500D02*
X133512000Y-102207500D01*
X127092000Y-104167500D02*
X127092000Y-104497500D01*
X127092000Y-104497500D02*
X133512000Y-104497500D01*
X133512000Y-104497500D02*
X133512000Y-104167500D01*
X154340000Y-104167500D02*
X154340000Y-104497500D01*
X154340000Y-104497500D02*
X147920000Y-104497500D01*
X147920000Y-104497500D02*
X147920000Y-104167500D01*
X154340000Y-102207500D02*
X154340000Y-101877500D01*
X154340000Y-101877500D02*
X147920000Y-101877500D01*
X147920000Y-101877500D02*
X147920000Y-102207500D01*
X157635500Y-102207500D02*
X157635500Y-101877500D01*
X157635500Y-101877500D02*
X164055500Y-101877500D01*
X164055500Y-101877500D02*
X164055500Y-102207500D01*
X157635500Y-104167500D02*
X157635500Y-104497500D01*
X157635500Y-104497500D02*
X164055500Y-104497500D01*
X164055500Y-104497500D02*
X164055500Y-104167500D01*
X123775000Y-104167500D02*
X123775000Y-104497500D01*
X123775000Y-104497500D02*
X117355000Y-104497500D01*
X117355000Y-104497500D02*
X117355000Y-104167500D01*
X123775000Y-102207500D02*
X123775000Y-101877500D01*
X123775000Y-101877500D02*
X117355000Y-101877500D01*
X117355000Y-101877500D02*
X117355000Y-102207500D01*
X182534000Y-88673500D02*
X182534000Y-89003500D01*
X182534000Y-89003500D02*
X176114000Y-89003500D01*
X176114000Y-89003500D02*
X176114000Y-88673500D01*
X182534000Y-86713500D02*
X182534000Y-86383500D01*
X182534000Y-86383500D02*
X176114000Y-86383500D01*
X176114000Y-86383500D02*
X176114000Y-86713500D01*
X182534000Y-91912000D02*
X182534000Y-92242000D01*
X182534000Y-92242000D02*
X176114000Y-92242000D01*
X176114000Y-92242000D02*
X176114000Y-91912000D01*
X182534000Y-89952000D02*
X182534000Y-89622000D01*
X182534000Y-89622000D02*
X176114000Y-89622000D01*
X176114000Y-89622000D02*
X176114000Y-89952000D01*
X176114000Y-93190500D02*
X176114000Y-92860500D01*
X176114000Y-92860500D02*
X182534000Y-92860500D01*
X182534000Y-92860500D02*
X182534000Y-93190500D01*
X176114000Y-95150500D02*
X176114000Y-95480500D01*
X176114000Y-95480500D02*
X182534000Y-95480500D01*
X182534000Y-95480500D02*
X182534000Y-95150500D01*
X176114000Y-96429000D02*
X176114000Y-96099000D01*
X176114000Y-96099000D02*
X182534000Y-96099000D01*
X182534000Y-96099000D02*
X182534000Y-96429000D01*
X176114000Y-98389000D02*
X176114000Y-98719000D01*
X176114000Y-98719000D02*
X182534000Y-98719000D01*
X182534000Y-98719000D02*
X182534000Y-98389000D01*
X166279000Y-95666000D02*
X165949000Y-95666000D01*
X165949000Y-95666000D02*
X165949000Y-89246000D01*
X165949000Y-89246000D02*
X166279000Y-89246000D01*
X168239000Y-95666000D02*
X168569000Y-95666000D01*
X168569000Y-95666000D02*
X168569000Y-89246000D01*
X168569000Y-89246000D02*
X168239000Y-89246000D01*
X171477500Y-89246000D02*
X171807500Y-89246000D01*
X171807500Y-89246000D02*
X171807500Y-95666000D01*
X171807500Y-95666000D02*
X171477500Y-95666000D01*
X169517500Y-89246000D02*
X169187500Y-89246000D01*
X169187500Y-89246000D02*
X169187500Y-95666000D01*
X169187500Y-95666000D02*
X169517500Y-95666000D01*
X108866500Y-99469500D02*
X109196500Y-99469500D01*
X109196500Y-99469500D02*
X109196500Y-105889500D01*
X109196500Y-105889500D02*
X108866500Y-105889500D01*
X106906500Y-99469500D02*
X106576500Y-99469500D01*
X106576500Y-99469500D02*
X106576500Y-105889500D01*
X106576500Y-105889500D02*
X106906500Y-105889500D01*
X90420000Y-97500000D02*
X103770000Y-97500000D01*
X103770000Y-97500000D02*
X103770000Y-108500000D01*
X103770000Y-108500000D02*
X90420000Y-108500000D01*
X90420000Y-108500000D02*
X90420000Y-97500000D01*
X114120000Y-99250000D02*
X113990000Y-99250000D01*
X113990000Y-99250000D02*
X113990000Y-93930000D01*
X113990000Y-93930000D02*
X114120000Y-93930000D01*
X116680000Y-99250000D02*
X116810000Y-99250000D01*
X116810000Y-99250000D02*
X116810000Y-93930000D01*
X116810000Y-93930000D02*
X116680000Y-93930000D01*
X113990000Y-98410000D02*
X116810000Y-98410000D01*
X151490000Y-89507000D02*
X151490000Y-83387000D01*
X154110000Y-89507000D02*
X154110000Y-83387000D01*
X151490000Y-89507000D02*
X151804000Y-89507000D01*
X153796000Y-89507000D02*
X154110000Y-89507000D01*
X151490000Y-83387000D02*
X151804000Y-83387000D01*
X153796000Y-83387000D02*
X154110000Y-83387000D01*
X104342000Y-92543000D02*
X110462000Y-92543000D01*
X104342000Y-95163000D02*
X110462000Y-95163000D01*
X104342000Y-92543000D02*
X104342000Y-92857000D01*
X104342000Y-94849000D02*
X104342000Y-95163000D01*
X110462000Y-92543000D02*
X110462000Y-92857000D01*
X110462000Y-94849000D02*
X110462000Y-95163000D01*
X147641000Y-92897000D02*
X150301000Y-92897000D01*
X147641000Y-85217000D02*
X147641000Y-92897000D01*
X150301000Y-85217000D02*
X150301000Y-92897000D01*
X147641000Y-85217000D02*
X150301000Y-85217000D01*
X147641000Y-83947000D02*
X147641000Y-82617000D01*
X147641000Y-82617000D02*
X148971000Y-82617000D01*
D17*
X161805881Y-85574166D02*
X161329690Y-85907500D01*
X161805881Y-86145595D02*
X160805881Y-86145595D01*
X160805881Y-85764642D01*
X160853500Y-85669404D01*
X160901119Y-85621785D01*
X160996357Y-85574166D01*
X161139214Y-85574166D01*
X161234452Y-85621785D01*
X161282071Y-85669404D01*
X161329690Y-85764642D01*
X161329690Y-86145595D01*
X160805881Y-84669404D02*
X160805881Y-85145595D01*
X161282071Y-85193214D01*
X161234452Y-85145595D01*
X161186833Y-85050357D01*
X161186833Y-84812261D01*
X161234452Y-84717023D01*
X161282071Y-84669404D01*
X161377310Y-84621785D01*
X161615405Y-84621785D01*
X161710643Y-84669404D01*
X161758262Y-84717023D01*
X161805881Y-84812261D01*
X161805881Y-85050357D01*
X161758262Y-85145595D01*
X161710643Y-85193214D01*
X146565881Y-71683476D02*
X146089690Y-72016810D01*
X146565881Y-72254905D02*
X145565881Y-72254905D01*
X145565881Y-71873952D01*
X145613500Y-71778714D01*
X145661119Y-71731095D01*
X145756357Y-71683476D01*
X145899214Y-71683476D01*
X145994452Y-71731095D01*
X146042071Y-71778714D01*
X146089690Y-71873952D01*
X146089690Y-72254905D01*
X146565881Y-71254905D02*
X145565881Y-71254905D01*
X146565881Y-70683476D01*
X145565881Y-70683476D01*
X145565881Y-70302524D02*
X145565881Y-69683476D01*
X145946833Y-70016810D01*
X145946833Y-69873952D01*
X145994452Y-69778714D01*
X146042071Y-69731095D01*
X146137310Y-69683476D01*
X146375405Y-69683476D01*
X146470643Y-69731095D01*
X146518262Y-69778714D01*
X146565881Y-69873952D01*
X146565881Y-70159667D01*
X146518262Y-70254905D01*
X146470643Y-70302524D01*
X124923762Y-87330119D02*
X124828524Y-87282500D01*
X124733286Y-87187262D01*
X124590429Y-87044405D01*
X124495190Y-86996786D01*
X124399952Y-86996786D01*
X124447571Y-87234881D02*
X124352333Y-87187262D01*
X124257095Y-87092024D01*
X124209476Y-86901548D01*
X124209476Y-86568214D01*
X124257095Y-86377738D01*
X124352333Y-86282500D01*
X124447571Y-86234881D01*
X124638048Y-86234881D01*
X124733286Y-86282500D01*
X124828524Y-86377738D01*
X124876143Y-86568214D01*
X124876143Y-86901548D01*
X124828524Y-87092024D01*
X124733286Y-87187262D01*
X124638048Y-87234881D01*
X124447571Y-87234881D01*
X125733286Y-86568214D02*
X125733286Y-87234881D01*
X125495190Y-86187262D02*
X125257095Y-86901548D01*
X125876143Y-86901548D01*
X124923762Y-81488119D02*
X124828524Y-81440500D01*
X124733286Y-81345262D01*
X124590429Y-81202405D01*
X124495190Y-81154786D01*
X124399952Y-81154786D01*
X124447571Y-81392881D02*
X124352333Y-81345262D01*
X124257095Y-81250024D01*
X124209476Y-81059548D01*
X124209476Y-80726214D01*
X124257095Y-80535738D01*
X124352333Y-80440500D01*
X124447571Y-80392881D01*
X124638048Y-80392881D01*
X124733286Y-80440500D01*
X124828524Y-80535738D01*
X124876143Y-80726214D01*
X124876143Y-81059548D01*
X124828524Y-81250024D01*
X124733286Y-81345262D01*
X124638048Y-81392881D01*
X124447571Y-81392881D01*
X125780905Y-80392881D02*
X125304714Y-80392881D01*
X125257095Y-80869071D01*
X125304714Y-80821452D01*
X125399952Y-80773833D01*
X125638048Y-80773833D01*
X125733286Y-80821452D01*
X125780905Y-80869071D01*
X125828524Y-80964310D01*
X125828524Y-81202405D01*
X125780905Y-81297643D01*
X125733286Y-81345262D01*
X125638048Y-81392881D01*
X125399952Y-81392881D01*
X125304714Y-81345262D01*
X125257095Y-81297643D01*
X124923762Y-75709619D02*
X124828524Y-75662000D01*
X124733286Y-75566762D01*
X124590429Y-75423905D01*
X124495190Y-75376286D01*
X124399952Y-75376286D01*
X124447571Y-75614381D02*
X124352333Y-75566762D01*
X124257095Y-75471524D01*
X124209476Y-75281048D01*
X124209476Y-74947714D01*
X124257095Y-74757238D01*
X124352333Y-74662000D01*
X124447571Y-74614381D01*
X124638048Y-74614381D01*
X124733286Y-74662000D01*
X124828524Y-74757238D01*
X124876143Y-74947714D01*
X124876143Y-75281048D01*
X124828524Y-75471524D01*
X124733286Y-75566762D01*
X124638048Y-75614381D01*
X124447571Y-75614381D01*
X125733286Y-74614381D02*
X125542809Y-74614381D01*
X125447571Y-74662000D01*
X125399952Y-74709619D01*
X125304714Y-74852476D01*
X125257095Y-75042952D01*
X125257095Y-75423905D01*
X125304714Y-75519143D01*
X125352333Y-75566762D01*
X125447571Y-75614381D01*
X125638048Y-75614381D01*
X125733286Y-75566762D01*
X125780905Y-75519143D01*
X125828524Y-75423905D01*
X125828524Y-75185810D01*
X125780905Y-75090571D01*
X125733286Y-75042952D01*
X125638048Y-74995333D01*
X125447571Y-74995333D01*
X125352333Y-75042952D01*
X125304714Y-75090571D01*
X125257095Y-75185810D01*
X136290262Y-75709619D02*
X136195024Y-75662000D01*
X136099786Y-75566762D01*
X135956929Y-75423905D01*
X135861690Y-75376286D01*
X135766452Y-75376286D01*
X135814071Y-75614381D02*
X135718833Y-75566762D01*
X135623595Y-75471524D01*
X135575976Y-75281048D01*
X135575976Y-74947714D01*
X135623595Y-74757238D01*
X135718833Y-74662000D01*
X135814071Y-74614381D01*
X136004548Y-74614381D01*
X136099786Y-74662000D01*
X136195024Y-74757238D01*
X136242643Y-74947714D01*
X136242643Y-75281048D01*
X136195024Y-75471524D01*
X136099786Y-75566762D01*
X136004548Y-75614381D01*
X135814071Y-75614381D01*
X136575976Y-74614381D02*
X137195024Y-74614381D01*
X136861690Y-74995333D01*
X137004548Y-74995333D01*
X137099786Y-75042952D01*
X137147405Y-75090571D01*
X137195024Y-75185810D01*
X137195024Y-75423905D01*
X137147405Y-75519143D01*
X137099786Y-75566762D01*
X137004548Y-75614381D01*
X136718833Y-75614381D01*
X136623595Y-75566762D01*
X136575976Y-75519143D01*
X136290262Y-81488119D02*
X136195024Y-81440500D01*
X136099786Y-81345262D01*
X135956929Y-81202405D01*
X135861690Y-81154786D01*
X135766452Y-81154786D01*
X135814071Y-81392881D02*
X135718833Y-81345262D01*
X135623595Y-81250024D01*
X135575976Y-81059548D01*
X135575976Y-80726214D01*
X135623595Y-80535738D01*
X135718833Y-80440500D01*
X135814071Y-80392881D01*
X136004548Y-80392881D01*
X136099786Y-80440500D01*
X136195024Y-80535738D01*
X136242643Y-80726214D01*
X136242643Y-81059548D01*
X136195024Y-81250024D01*
X136099786Y-81345262D01*
X136004548Y-81392881D01*
X135814071Y-81392881D01*
X136623595Y-80488119D02*
X136671214Y-80440500D01*
X136766452Y-80392881D01*
X137004548Y-80392881D01*
X137099786Y-80440500D01*
X137147405Y-80488119D01*
X137195024Y-80583357D01*
X137195024Y-80678595D01*
X137147405Y-80821452D01*
X136575976Y-81392881D01*
X137195024Y-81392881D01*
X136290262Y-87330119D02*
X136195024Y-87282500D01*
X136099786Y-87187262D01*
X135956929Y-87044405D01*
X135861690Y-86996786D01*
X135766452Y-86996786D01*
X135814071Y-87234881D02*
X135718833Y-87187262D01*
X135623595Y-87092024D01*
X135575976Y-86901548D01*
X135575976Y-86568214D01*
X135623595Y-86377738D01*
X135718833Y-86282500D01*
X135814071Y-86234881D01*
X136004548Y-86234881D01*
X136099786Y-86282500D01*
X136195024Y-86377738D01*
X136242643Y-86568214D01*
X136242643Y-86901548D01*
X136195024Y-87092024D01*
X136099786Y-87187262D01*
X136004548Y-87234881D01*
X135814071Y-87234881D01*
X137195024Y-87234881D02*
X136623595Y-87234881D01*
X136909309Y-87234881D02*
X136909309Y-86234881D01*
X136814071Y-86377738D01*
X136718833Y-86472976D01*
X136623595Y-86520595D01*
X118768905Y-95115381D02*
X118768905Y-94115381D01*
X119149858Y-94115381D01*
X119245096Y-94163000D01*
X119292715Y-94210619D01*
X119340334Y-94305857D01*
X119340334Y-94448714D01*
X119292715Y-94543952D01*
X119245096Y-94591571D01*
X119149858Y-94639190D01*
X118768905Y-94639190D01*
X120292715Y-95115381D02*
X119721286Y-95115381D01*
X120007000Y-95115381D02*
X120007000Y-94115381D01*
X119911762Y-94258238D01*
X119816524Y-94353476D01*
X119721286Y-94401095D01*
X116847881Y-76684095D02*
X115847881Y-76684095D01*
X115847881Y-76446000D01*
X115895500Y-76303142D01*
X115990738Y-76207904D01*
X116085976Y-76160285D01*
X116276452Y-76112666D01*
X116419310Y-76112666D01*
X116609786Y-76160285D01*
X116705024Y-76207904D01*
X116800262Y-76303142D01*
X116847881Y-76446000D01*
X116847881Y-76684095D01*
X116181214Y-75255523D02*
X116847881Y-75255523D01*
X115800262Y-75493619D02*
X116514548Y-75731714D01*
X116514548Y-75112666D01*
X123055143Y-110740000D02*
X123007524Y-110773333D01*
X122864667Y-110806667D01*
X122769429Y-110806667D01*
X122626571Y-110773333D01*
X122531333Y-110706667D01*
X122483714Y-110640000D01*
X122436095Y-110506667D01*
X122436095Y-110406667D01*
X122483714Y-110273333D01*
X122531333Y-110206667D01*
X122626571Y-110140000D01*
X122769429Y-110106667D01*
X122864667Y-110106667D01*
X123007524Y-110140000D01*
X123055143Y-110173333D01*
X123436095Y-110173333D02*
X123483714Y-110140000D01*
X123578952Y-110106667D01*
X123817048Y-110106667D01*
X123912286Y-110140000D01*
X123959905Y-110173333D01*
X124007524Y-110240000D01*
X124007524Y-110306667D01*
X123959905Y-110406667D01*
X123388476Y-110806667D01*
X124007524Y-110806667D01*
X124959905Y-110806667D02*
X124388476Y-110806667D01*
X124674190Y-110806667D02*
X124674190Y-110106667D01*
X124578952Y-110206667D01*
X124483714Y-110273333D01*
X124388476Y-110306667D01*
X157424381Y-85574166D02*
X156948190Y-85907500D01*
X157424381Y-86145595D02*
X156424381Y-86145595D01*
X156424381Y-85764642D01*
X156472000Y-85669404D01*
X156519619Y-85621785D01*
X156614857Y-85574166D01*
X156757714Y-85574166D01*
X156852952Y-85621785D01*
X156900571Y-85669404D01*
X156948190Y-85764642D01*
X156948190Y-86145595D01*
X156424381Y-85240833D02*
X156424381Y-84621785D01*
X156805333Y-84955119D01*
X156805333Y-84812261D01*
X156852952Y-84717023D01*
X156900571Y-84669404D01*
X156995810Y-84621785D01*
X157233905Y-84621785D01*
X157329143Y-84669404D01*
X157376762Y-84717023D01*
X157424381Y-84812261D01*
X157424381Y-85097976D01*
X157376762Y-85193214D01*
X157329143Y-85240833D01*
X113196643Y-67500166D02*
X113244262Y-67547785D01*
X113291881Y-67690642D01*
X113291881Y-67785880D01*
X113244262Y-67928738D01*
X113149024Y-68023976D01*
X113053786Y-68071595D01*
X112863310Y-68119214D01*
X112720452Y-68119214D01*
X112529976Y-68071595D01*
X112434738Y-68023976D01*
X112339500Y-67928738D01*
X112291881Y-67785880D01*
X112291881Y-67690642D01*
X112339500Y-67547785D01*
X112387119Y-67500166D01*
X112625214Y-66643023D02*
X113291881Y-66643023D01*
X112244262Y-66881119D02*
X112958548Y-67119214D01*
X112958548Y-66500166D01*
X121705643Y-83669166D02*
X121753262Y-83716785D01*
X121800881Y-83859642D01*
X121800881Y-83954880D01*
X121753262Y-84097738D01*
X121658024Y-84192976D01*
X121562786Y-84240595D01*
X121372310Y-84288214D01*
X121229452Y-84288214D01*
X121038976Y-84240595D01*
X120943738Y-84192976D01*
X120848500Y-84097738D01*
X120800881Y-83954880D01*
X120800881Y-83859642D01*
X120848500Y-83716785D01*
X120896119Y-83669166D01*
X120800881Y-83335833D02*
X120800881Y-82669166D01*
X121800881Y-83097738D01*
X119975381Y-72834405D02*
X120784905Y-72834405D01*
X120880143Y-72786786D01*
X120927762Y-72739167D01*
X120975381Y-72643929D01*
X120975381Y-72453452D01*
X120927762Y-72358214D01*
X120880143Y-72310595D01*
X120784905Y-72262976D01*
X119975381Y-72262976D01*
X120070619Y-71834405D02*
X120023000Y-71786786D01*
X119975381Y-71691548D01*
X119975381Y-71453452D01*
X120023000Y-71358214D01*
X120070619Y-71310595D01*
X120165857Y-71262976D01*
X120261095Y-71262976D01*
X120403952Y-71310595D01*
X120975381Y-71882024D01*
X120975381Y-71262976D01*
X124086881Y-71683476D02*
X123610690Y-72016810D01*
X124086881Y-72254905D02*
X123086881Y-72254905D01*
X123086881Y-71873952D01*
X123134500Y-71778714D01*
X123182119Y-71731095D01*
X123277357Y-71683476D01*
X123420214Y-71683476D01*
X123515452Y-71731095D01*
X123563071Y-71778714D01*
X123610690Y-71873952D01*
X123610690Y-72254905D01*
X124086881Y-71254905D02*
X123086881Y-71254905D01*
X124086881Y-70683476D01*
X123086881Y-70683476D01*
X123420214Y-69778714D02*
X124086881Y-69778714D01*
X123039262Y-70016810D02*
X123753548Y-70254905D01*
X123753548Y-69635857D01*
X119070381Y-107116476D02*
X118594190Y-107449810D01*
X119070381Y-107687905D02*
X118070381Y-107687905D01*
X118070381Y-107306952D01*
X118118000Y-107211714D01*
X118165619Y-107164095D01*
X118260857Y-107116476D01*
X118403714Y-107116476D01*
X118498952Y-107164095D01*
X118546571Y-107211714D01*
X118594190Y-107306952D01*
X118594190Y-107687905D01*
X119070381Y-106687905D02*
X118070381Y-106687905D01*
X119070381Y-106116476D01*
X118070381Y-106116476D01*
X118070381Y-105164095D02*
X118070381Y-105640286D01*
X118546571Y-105687905D01*
X118498952Y-105640286D01*
X118451333Y-105545048D01*
X118451333Y-105306952D01*
X118498952Y-105211714D01*
X118546571Y-105164095D01*
X118641810Y-105116476D01*
X118879905Y-105116476D01*
X118975143Y-105164095D01*
X119022762Y-105211714D01*
X119070381Y-105306952D01*
X119070381Y-105545048D01*
X119022762Y-105640286D01*
X118975143Y-105687905D01*
X162758524Y-105608381D02*
X162425190Y-105132190D01*
X162187095Y-105608381D02*
X162187095Y-104608381D01*
X162568048Y-104608381D01*
X162663286Y-104656000D01*
X162710905Y-104703619D01*
X162758524Y-104798857D01*
X162758524Y-104941714D01*
X162710905Y-105036952D01*
X162663286Y-105084571D01*
X162568048Y-105132190D01*
X162187095Y-105132190D01*
X163187095Y-105608381D02*
X163187095Y-104608381D01*
X163758524Y-105608381D01*
X163758524Y-104608381D01*
X164187095Y-104703619D02*
X164234714Y-104656000D01*
X164329952Y-104608381D01*
X164568048Y-104608381D01*
X164663286Y-104656000D01*
X164710905Y-104703619D01*
X164758524Y-104798857D01*
X164758524Y-104894095D01*
X164710905Y-105036952D01*
X164139476Y-105608381D01*
X164758524Y-105608381D01*
D13*
X186765477Y-96619190D02*
X186527382Y-96619190D01*
X186527382Y-96119190D01*
X186932144Y-96357286D02*
X187098810Y-96357286D01*
X187170239Y-96619190D02*
X186932144Y-96619190D01*
X186932144Y-96119190D01*
X187170239Y-96119190D01*
X187384525Y-96619190D02*
X187384525Y-96119190D01*
X187503572Y-96119190D01*
X187575001Y-96143000D01*
X187622620Y-96190619D01*
X187646429Y-96238238D01*
X187670239Y-96333476D01*
X187670239Y-96404905D01*
X187646429Y-96500143D01*
X187622620Y-96547762D01*
X187575001Y-96595381D01*
X187503572Y-96619190D01*
X187384525Y-96619190D01*
X188098810Y-96285857D02*
X188098810Y-96619190D01*
X187979763Y-96095381D02*
X187860715Y-96452524D01*
X188170239Y-96452524D01*
X186765477Y-91539190D02*
X186527382Y-91539190D01*
X186527382Y-91039190D01*
X186932144Y-91277286D02*
X187098810Y-91277286D01*
X187170239Y-91539190D02*
X186932144Y-91539190D01*
X186932144Y-91039190D01*
X187170239Y-91039190D01*
X187384525Y-91539190D02*
X187384525Y-91039190D01*
X187503572Y-91039190D01*
X187575001Y-91063000D01*
X187622620Y-91110619D01*
X187646429Y-91158238D01*
X187670239Y-91253476D01*
X187670239Y-91324905D01*
X187646429Y-91420143D01*
X187622620Y-91467762D01*
X187575001Y-91515381D01*
X187503572Y-91539190D01*
X187384525Y-91539190D01*
X187860715Y-91086810D02*
X187884525Y-91063000D01*
X187932144Y-91039190D01*
X188051191Y-91039190D01*
X188098810Y-91063000D01*
X188122620Y-91086810D01*
X188146429Y-91134429D01*
X188146429Y-91182048D01*
X188122620Y-91253476D01*
X187836906Y-91539190D01*
X188146429Y-91539190D01*
X186765477Y-86459190D02*
X186527382Y-86459190D01*
X186527382Y-85959190D01*
X186932144Y-86197286D02*
X187098810Y-86197286D01*
X187170239Y-86459190D02*
X186932144Y-86459190D01*
X186932144Y-85959190D01*
X187170239Y-85959190D01*
X187384525Y-86459190D02*
X187384525Y-85959190D01*
X187503572Y-85959190D01*
X187575001Y-85983000D01*
X187622620Y-86030619D01*
X187646429Y-86078238D01*
X187670239Y-86173476D01*
X187670239Y-86244905D01*
X187646429Y-86340143D01*
X187622620Y-86387762D01*
X187575001Y-86435381D01*
X187503572Y-86459190D01*
X187384525Y-86459190D01*
X187836906Y-85959190D02*
X188146429Y-85959190D01*
X187979763Y-86149667D01*
X188051191Y-86149667D01*
X188098810Y-86173476D01*
X188122620Y-86197286D01*
X188146429Y-86244905D01*
X188146429Y-86363952D01*
X188122620Y-86411571D01*
X188098810Y-86435381D01*
X188051191Y-86459190D01*
X187908334Y-86459190D01*
X187860715Y-86435381D01*
X187836906Y-86411571D01*
X186765477Y-81379190D02*
X186527382Y-81379190D01*
X186527382Y-80879190D01*
X186932144Y-81117286D02*
X187098810Y-81117286D01*
X187170239Y-81379190D02*
X186932144Y-81379190D01*
X186932144Y-80879190D01*
X187170239Y-80879190D01*
X187384525Y-81379190D02*
X187384525Y-80879190D01*
X187503572Y-80879190D01*
X187575001Y-80903000D01*
X187622620Y-80950619D01*
X187646429Y-80998238D01*
X187670239Y-81093476D01*
X187670239Y-81164905D01*
X187646429Y-81260143D01*
X187622620Y-81307762D01*
X187575001Y-81355381D01*
X187503572Y-81379190D01*
X187384525Y-81379190D01*
X188146429Y-81379190D02*
X187860715Y-81379190D01*
X188003572Y-81379190D02*
X188003572Y-80879190D01*
X187955953Y-80950619D01*
X187908334Y-80998238D01*
X187860715Y-81022048D01*
D17*
X169552881Y-82903890D02*
X168552881Y-82903890D01*
X169457643Y-81856271D02*
X169505262Y-81903890D01*
X169552881Y-82046747D01*
X169552881Y-82141985D01*
X169505262Y-82284843D01*
X169410024Y-82380081D01*
X169314786Y-82427700D01*
X169124310Y-82475319D01*
X168981452Y-82475319D01*
X168790976Y-82427700D01*
X168695738Y-82380081D01*
X168600500Y-82284843D01*
X168552881Y-82141985D01*
X168552881Y-82046747D01*
X168600500Y-81903890D01*
X168648119Y-81856271D01*
X169552881Y-80903890D02*
X169552881Y-81475319D01*
X169552881Y-81189605D02*
X168552881Y-81189605D01*
X168695738Y-81284843D01*
X168790976Y-81380081D01*
X168838595Y-81475319D01*
X111196381Y-103798595D02*
X110196381Y-103798595D01*
X110196381Y-103560500D01*
X110244000Y-103417642D01*
X110339238Y-103322404D01*
X110434476Y-103274785D01*
X110624952Y-103227166D01*
X110767810Y-103227166D01*
X110958286Y-103274785D01*
X111053524Y-103322404D01*
X111148762Y-103417642D01*
X111196381Y-103560500D01*
X111196381Y-103798595D01*
X110196381Y-102322404D02*
X110196381Y-102798595D01*
X110672571Y-102846214D01*
X110624952Y-102798595D01*
X110577333Y-102703357D01*
X110577333Y-102465261D01*
X110624952Y-102370023D01*
X110672571Y-102322404D01*
X110767810Y-102274785D01*
X111005905Y-102274785D01*
X111101143Y-102322404D01*
X111148762Y-102370023D01*
X111196381Y-102465261D01*
X111196381Y-102703357D01*
X111148762Y-102798595D01*
X111101143Y-102846214D01*
X113418881Y-76684095D02*
X112418881Y-76684095D01*
X112418881Y-76446000D01*
X112466500Y-76303142D01*
X112561738Y-76207904D01*
X112656976Y-76160285D01*
X112847452Y-76112666D01*
X112990310Y-76112666D01*
X113180786Y-76160285D01*
X113276024Y-76207904D01*
X113371262Y-76303142D01*
X113418881Y-76446000D01*
X113418881Y-76684095D01*
X112418881Y-75779333D02*
X112418881Y-75160285D01*
X112799833Y-75493619D01*
X112799833Y-75350761D01*
X112847452Y-75255523D01*
X112895071Y-75207904D01*
X112990310Y-75160285D01*
X113228405Y-75160285D01*
X113323643Y-75207904D01*
X113371262Y-75255523D01*
X113418881Y-75350761D01*
X113418881Y-75636476D01*
X113371262Y-75731714D01*
X113323643Y-75779333D01*
X181871881Y-75668095D02*
X180871881Y-75668095D01*
X180871881Y-75430000D01*
X180919500Y-75287142D01*
X181014738Y-75191904D01*
X181109976Y-75144285D01*
X181300452Y-75096666D01*
X181443310Y-75096666D01*
X181633786Y-75144285D01*
X181729024Y-75191904D01*
X181824262Y-75287142D01*
X181871881Y-75430000D01*
X181871881Y-75668095D01*
X180967119Y-74715714D02*
X180919500Y-74668095D01*
X180871881Y-74572857D01*
X180871881Y-74334761D01*
X180919500Y-74239523D01*
X180967119Y-74191904D01*
X181062357Y-74144285D01*
X181157595Y-74144285D01*
X181300452Y-74191904D01*
X181871881Y-74763333D01*
X181871881Y-74144285D01*
X178379381Y-75668095D02*
X177379381Y-75668095D01*
X177379381Y-75430000D01*
X177427000Y-75287142D01*
X177522238Y-75191904D01*
X177617476Y-75144285D01*
X177807952Y-75096666D01*
X177950810Y-75096666D01*
X178141286Y-75144285D01*
X178236524Y-75191904D01*
X178331762Y-75287142D01*
X178379381Y-75430000D01*
X178379381Y-75668095D01*
X178379381Y-74144285D02*
X178379381Y-74715714D01*
X178379381Y-74430000D02*
X177379381Y-74430000D01*
X177522238Y-74525238D01*
X177617476Y-74620476D01*
X177665095Y-74715714D01*
X180738543Y-84030000D02*
X180690924Y-84063333D01*
X180548067Y-84096667D01*
X180452829Y-84096667D01*
X180309971Y-84063333D01*
X180214733Y-83996667D01*
X180167114Y-83930000D01*
X180119495Y-83796667D01*
X180119495Y-83696667D01*
X180167114Y-83563333D01*
X180214733Y-83496667D01*
X180309971Y-83430000D01*
X180452829Y-83396667D01*
X180548067Y-83396667D01*
X180690924Y-83430000D01*
X180738543Y-83463333D01*
X181690924Y-84096667D02*
X181119495Y-84096667D01*
X181405209Y-84096667D02*
X181405209Y-83396667D01*
X181309971Y-83496667D01*
X181214733Y-83563333D01*
X181119495Y-83596667D01*
X182643305Y-84096667D02*
X182071876Y-84096667D01*
X182357590Y-84096667D02*
X182357590Y-83396667D01*
X182262352Y-83496667D01*
X182167114Y-83563333D01*
X182071876Y-83596667D01*
X177474643Y-84006500D02*
X177427024Y-84039833D01*
X177284167Y-84073167D01*
X177188929Y-84073167D01*
X177046071Y-84039833D01*
X176950833Y-83973167D01*
X176903214Y-83906500D01*
X176855595Y-83773167D01*
X176855595Y-83673167D01*
X176903214Y-83539833D01*
X176950833Y-83473167D01*
X177046071Y-83406500D01*
X177188929Y-83373167D01*
X177284167Y-83373167D01*
X177427024Y-83406500D01*
X177474643Y-83439833D01*
X178427024Y-84073167D02*
X177855595Y-84073167D01*
X178141309Y-84073167D02*
X178141309Y-83373167D01*
X178046071Y-83473167D01*
X177950833Y-83539833D01*
X177855595Y-83573167D01*
X179284167Y-83606500D02*
X179284167Y-84073167D01*
X179046071Y-83339833D02*
X178807976Y-83839833D01*
X179427024Y-83839833D01*
X119753143Y-110700000D02*
X119705524Y-110733333D01*
X119562667Y-110766667D01*
X119467429Y-110766667D01*
X119324571Y-110733333D01*
X119229333Y-110666667D01*
X119181714Y-110600000D01*
X119134095Y-110466667D01*
X119134095Y-110366667D01*
X119181714Y-110233333D01*
X119229333Y-110166667D01*
X119324571Y-110100000D01*
X119467429Y-110066667D01*
X119562667Y-110066667D01*
X119705524Y-110100000D01*
X119753143Y-110133333D01*
X120705524Y-110766667D02*
X120134095Y-110766667D01*
X120419809Y-110766667D02*
X120419809Y-110066667D01*
X120324571Y-110166667D01*
X120229333Y-110233333D01*
X120134095Y-110266667D01*
X121324571Y-110066667D02*
X121419810Y-110066667D01*
X121515048Y-110100000D01*
X121562667Y-110133333D01*
X121610286Y-110200000D01*
X121657905Y-110333333D01*
X121657905Y-110500000D01*
X121610286Y-110633333D01*
X121562667Y-110700000D01*
X121515048Y-110733333D01*
X121419810Y-110766667D01*
X121324571Y-110766667D01*
X121229333Y-110733333D01*
X121181714Y-110700000D01*
X121134095Y-110633333D01*
X121086476Y-110500000D01*
X121086476Y-110333333D01*
X121134095Y-110200000D01*
X121181714Y-110133333D01*
X121229333Y-110100000D01*
X121324571Y-110066667D01*
X106422000Y-91257357D02*
X106455333Y-91304976D01*
X106488667Y-91447833D01*
X106488667Y-91543071D01*
X106455333Y-91685929D01*
X106388667Y-91781167D01*
X106322000Y-91828786D01*
X106188667Y-91876405D01*
X106088667Y-91876405D01*
X105955333Y-91828786D01*
X105888667Y-91781167D01*
X105822000Y-91685929D01*
X105788667Y-91543071D01*
X105788667Y-91447833D01*
X105822000Y-91304976D01*
X105855333Y-91257357D01*
X106488667Y-90304976D02*
X106488667Y-90876405D01*
X106488667Y-90590691D02*
X105788667Y-90590691D01*
X105888667Y-90685929D01*
X105955333Y-90781167D01*
X105988667Y-90876405D01*
X105788667Y-89971643D02*
X105788667Y-89304976D01*
X106488667Y-89733548D01*
X121054834Y-89444000D02*
X121007215Y-89477333D01*
X120864358Y-89510667D01*
X120769120Y-89510667D01*
X120626262Y-89477333D01*
X120531024Y-89410667D01*
X120483405Y-89344000D01*
X120435786Y-89210667D01*
X120435786Y-89110667D01*
X120483405Y-88977333D01*
X120531024Y-88910667D01*
X120626262Y-88844000D01*
X120769120Y-88810667D01*
X120864358Y-88810667D01*
X121007215Y-88844000D01*
X121054834Y-88877333D01*
X121959596Y-88810667D02*
X121483405Y-88810667D01*
X121435786Y-89144000D01*
X121483405Y-89110667D01*
X121578643Y-89077333D01*
X121816739Y-89077333D01*
X121911977Y-89110667D01*
X121959596Y-89144000D01*
X122007215Y-89210667D01*
X122007215Y-89377333D01*
X121959596Y-89444000D01*
X121911977Y-89477333D01*
X121816739Y-89510667D01*
X121578643Y-89510667D01*
X121483405Y-89477333D01*
X121435786Y-89444000D01*
X132961143Y-110740000D02*
X132913524Y-110773333D01*
X132770667Y-110806667D01*
X132675429Y-110806667D01*
X132532571Y-110773333D01*
X132437333Y-110706667D01*
X132389714Y-110640000D01*
X132342095Y-110506667D01*
X132342095Y-110406667D01*
X132389714Y-110273333D01*
X132437333Y-110206667D01*
X132532571Y-110140000D01*
X132675429Y-110106667D01*
X132770667Y-110106667D01*
X132913524Y-110140000D01*
X132961143Y-110173333D01*
X133913524Y-110806667D02*
X133342095Y-110806667D01*
X133627809Y-110806667D02*
X133627809Y-110106667D01*
X133532571Y-110206667D01*
X133437333Y-110273333D01*
X133342095Y-110306667D01*
X134770667Y-110106667D02*
X134580190Y-110106667D01*
X134484952Y-110140000D01*
X134437333Y-110173333D01*
X134342095Y-110273333D01*
X134294476Y-110406667D01*
X134294476Y-110673333D01*
X134342095Y-110740000D01*
X134389714Y-110773333D01*
X134484952Y-110806667D01*
X134675429Y-110806667D01*
X134770667Y-110773333D01*
X134818286Y-110740000D01*
X134865905Y-110673333D01*
X134865905Y-110506667D01*
X134818286Y-110440000D01*
X134770667Y-110406667D01*
X134675429Y-110373333D01*
X134484952Y-110373333D01*
X134389714Y-110406667D01*
X134342095Y-110440000D01*
X134294476Y-110506667D01*
X129659143Y-110740000D02*
X129611524Y-110773333D01*
X129468667Y-110806667D01*
X129373429Y-110806667D01*
X129230571Y-110773333D01*
X129135333Y-110706667D01*
X129087714Y-110640000D01*
X129040095Y-110506667D01*
X129040095Y-110406667D01*
X129087714Y-110273333D01*
X129135333Y-110206667D01*
X129230571Y-110140000D01*
X129373429Y-110106667D01*
X129468667Y-110106667D01*
X129611524Y-110140000D01*
X129659143Y-110173333D01*
X130611524Y-110806667D02*
X130040095Y-110806667D01*
X130325809Y-110806667D02*
X130325809Y-110106667D01*
X130230571Y-110206667D01*
X130135333Y-110273333D01*
X130040095Y-110306667D01*
X131516286Y-110106667D02*
X131040095Y-110106667D01*
X130992476Y-110440000D01*
X131040095Y-110406667D01*
X131135333Y-110373333D01*
X131373429Y-110373333D01*
X131468667Y-110406667D01*
X131516286Y-110440000D01*
X131563905Y-110506667D01*
X131563905Y-110673333D01*
X131516286Y-110740000D01*
X131468667Y-110773333D01*
X131373429Y-110806667D01*
X131135333Y-110806667D01*
X131040095Y-110773333D01*
X130992476Y-110740000D01*
X138870500Y-115958857D02*
X138903833Y-116006476D01*
X138937167Y-116149333D01*
X138937167Y-116244571D01*
X138903833Y-116387429D01*
X138837167Y-116482667D01*
X138770500Y-116530286D01*
X138637167Y-116577905D01*
X138537167Y-116577905D01*
X138403833Y-116530286D01*
X138337167Y-116482667D01*
X138270500Y-116387429D01*
X138237167Y-116244571D01*
X138237167Y-116149333D01*
X138270500Y-116006476D01*
X138303833Y-115958857D01*
X138303833Y-115577905D02*
X138270500Y-115530286D01*
X138237167Y-115435048D01*
X138237167Y-115196952D01*
X138270500Y-115101714D01*
X138303833Y-115054095D01*
X138370500Y-115006476D01*
X138437167Y-115006476D01*
X138537167Y-115054095D01*
X138937167Y-115625524D01*
X138937167Y-115006476D01*
X138237167Y-114387429D02*
X138237167Y-114292190D01*
X138270500Y-114196952D01*
X138303833Y-114149333D01*
X138370500Y-114101714D01*
X138503833Y-114054095D01*
X138670500Y-114054095D01*
X138803833Y-114101714D01*
X138870500Y-114149333D01*
X138903833Y-114196952D01*
X138937167Y-114292190D01*
X138937167Y-114387429D01*
X138903833Y-114482667D01*
X138870500Y-114530286D01*
X138803833Y-114577905D01*
X138670500Y-114625524D01*
X138503833Y-114625524D01*
X138370500Y-114577905D01*
X138303833Y-114530286D01*
X138270500Y-114482667D01*
X138237167Y-114387429D01*
X126357143Y-110740000D02*
X126309524Y-110773333D01*
X126166667Y-110806667D01*
X126071429Y-110806667D01*
X125928571Y-110773333D01*
X125833333Y-110706667D01*
X125785714Y-110640000D01*
X125738095Y-110506667D01*
X125738095Y-110406667D01*
X125785714Y-110273333D01*
X125833333Y-110206667D01*
X125928571Y-110140000D01*
X126071429Y-110106667D01*
X126166667Y-110106667D01*
X126309524Y-110140000D01*
X126357143Y-110173333D01*
X127309524Y-110806667D02*
X126738095Y-110806667D01*
X127023809Y-110806667D02*
X127023809Y-110106667D01*
X126928571Y-110206667D01*
X126833333Y-110273333D01*
X126738095Y-110306667D01*
X127785714Y-110806667D02*
X127976190Y-110806667D01*
X128071429Y-110773333D01*
X128119048Y-110740000D01*
X128214286Y-110640000D01*
X128261905Y-110506667D01*
X128261905Y-110240000D01*
X128214286Y-110173333D01*
X128166667Y-110140000D01*
X128071429Y-110106667D01*
X127880952Y-110106667D01*
X127785714Y-110140000D01*
X127738095Y-110173333D01*
X127690476Y-110240000D01*
X127690476Y-110406667D01*
X127738095Y-110473333D01*
X127785714Y-110506667D01*
X127880952Y-110540000D01*
X128071429Y-110540000D01*
X128166667Y-110506667D01*
X128214286Y-110473333D01*
X128261905Y-110406667D01*
X150963334Y-110740000D02*
X150915715Y-110773333D01*
X150772858Y-110806667D01*
X150677620Y-110806667D01*
X150534762Y-110773333D01*
X150439524Y-110706667D01*
X150391905Y-110640000D01*
X150344286Y-110506667D01*
X150344286Y-110406667D01*
X150391905Y-110273333D01*
X150439524Y-110206667D01*
X150534762Y-110140000D01*
X150677620Y-110106667D01*
X150772858Y-110106667D01*
X150915715Y-110140000D01*
X150963334Y-110173333D01*
X151344286Y-110173333D02*
X151391905Y-110140000D01*
X151487143Y-110106667D01*
X151725239Y-110106667D01*
X151820477Y-110140000D01*
X151868096Y-110173333D01*
X151915715Y-110240000D01*
X151915715Y-110306667D01*
X151868096Y-110406667D01*
X151296667Y-110806667D01*
X151915715Y-110806667D01*
X163758643Y-107946000D02*
X163711024Y-107979333D01*
X163568167Y-108012667D01*
X163472929Y-108012667D01*
X163330071Y-107979333D01*
X163234833Y-107912667D01*
X163187214Y-107846000D01*
X163139595Y-107712667D01*
X163139595Y-107612667D01*
X163187214Y-107479333D01*
X163234833Y-107412667D01*
X163330071Y-107346000D01*
X163472929Y-107312667D01*
X163568167Y-107312667D01*
X163711024Y-107346000D01*
X163758643Y-107379333D01*
X164711024Y-108012667D02*
X164139595Y-108012667D01*
X164425309Y-108012667D02*
X164425309Y-107312667D01*
X164330071Y-107412667D01*
X164234833Y-107479333D01*
X164139595Y-107512667D01*
X165044357Y-107312667D02*
X165663405Y-107312667D01*
X165330071Y-107579333D01*
X165472929Y-107579333D01*
X165568167Y-107612667D01*
X165615786Y-107646000D01*
X165663405Y-107712667D01*
X165663405Y-107879333D01*
X165615786Y-107946000D01*
X165568167Y-107979333D01*
X165472929Y-108012667D01*
X165187214Y-108012667D01*
X165091976Y-107979333D01*
X165044357Y-107946000D01*
X160393143Y-110740000D02*
X160345524Y-110773333D01*
X160202667Y-110806667D01*
X160107429Y-110806667D01*
X159964571Y-110773333D01*
X159869333Y-110706667D01*
X159821714Y-110640000D01*
X159774095Y-110506667D01*
X159774095Y-110406667D01*
X159821714Y-110273333D01*
X159869333Y-110206667D01*
X159964571Y-110140000D01*
X160107429Y-110106667D01*
X160202667Y-110106667D01*
X160345524Y-110140000D01*
X160393143Y-110173333D01*
X161345524Y-110806667D02*
X160774095Y-110806667D01*
X161059809Y-110806667D02*
X161059809Y-110106667D01*
X160964571Y-110206667D01*
X160869333Y-110273333D01*
X160774095Y-110306667D01*
X161726476Y-110173333D02*
X161774095Y-110140000D01*
X161869333Y-110106667D01*
X162107429Y-110106667D01*
X162202667Y-110140000D01*
X162250286Y-110173333D01*
X162297905Y-110240000D01*
X162297905Y-110306667D01*
X162250286Y-110406667D01*
X161678857Y-110806667D01*
X162297905Y-110806667D01*
X157567334Y-110740000D02*
X157519715Y-110773333D01*
X157376858Y-110806667D01*
X157281620Y-110806667D01*
X157138762Y-110773333D01*
X157043524Y-110706667D01*
X156995905Y-110640000D01*
X156948286Y-110506667D01*
X156948286Y-110406667D01*
X156995905Y-110273333D01*
X157043524Y-110206667D01*
X157138762Y-110140000D01*
X157281620Y-110106667D01*
X157376858Y-110106667D01*
X157519715Y-110140000D01*
X157567334Y-110173333D01*
X158043524Y-110806667D02*
X158234000Y-110806667D01*
X158329239Y-110773333D01*
X158376858Y-110740000D01*
X158472096Y-110640000D01*
X158519715Y-110506667D01*
X158519715Y-110240000D01*
X158472096Y-110173333D01*
X158424477Y-110140000D01*
X158329239Y-110106667D01*
X158138762Y-110106667D01*
X158043524Y-110140000D01*
X157995905Y-110173333D01*
X157948286Y-110240000D01*
X157948286Y-110406667D01*
X157995905Y-110473333D01*
X158043524Y-110506667D01*
X158138762Y-110540000D01*
X158329239Y-110540000D01*
X158424477Y-110506667D01*
X158472096Y-110473333D01*
X158519715Y-110406667D01*
X154265334Y-110740000D02*
X154217715Y-110773333D01*
X154074858Y-110806667D01*
X153979620Y-110806667D01*
X153836762Y-110773333D01*
X153741524Y-110706667D01*
X153693905Y-110640000D01*
X153646286Y-110506667D01*
X153646286Y-110406667D01*
X153693905Y-110273333D01*
X153741524Y-110206667D01*
X153836762Y-110140000D01*
X153979620Y-110106667D01*
X154074858Y-110106667D01*
X154217715Y-110140000D01*
X154265334Y-110173333D01*
X154836762Y-110406667D02*
X154741524Y-110373333D01*
X154693905Y-110340000D01*
X154646286Y-110273333D01*
X154646286Y-110240000D01*
X154693905Y-110173333D01*
X154741524Y-110140000D01*
X154836762Y-110106667D01*
X155027239Y-110106667D01*
X155122477Y-110140000D01*
X155170096Y-110173333D01*
X155217715Y-110240000D01*
X155217715Y-110273333D01*
X155170096Y-110340000D01*
X155122477Y-110373333D01*
X155027239Y-110406667D01*
X154836762Y-110406667D01*
X154741524Y-110440000D01*
X154693905Y-110473333D01*
X154646286Y-110540000D01*
X154646286Y-110673333D01*
X154693905Y-110740000D01*
X154741524Y-110773333D01*
X154836762Y-110806667D01*
X155027239Y-110806667D01*
X155122477Y-110773333D01*
X155170096Y-110740000D01*
X155217715Y-110673333D01*
X155217715Y-110540000D01*
X155170096Y-110473333D01*
X155122477Y-110440000D01*
X155027239Y-110406667D01*
X111275881Y-91312905D02*
X112085405Y-91312905D01*
X112180643Y-91265286D01*
X112228262Y-91217667D01*
X112275881Y-91122429D01*
X112275881Y-90931952D01*
X112228262Y-90836714D01*
X112180643Y-90789095D01*
X112085405Y-90741476D01*
X111275881Y-90741476D01*
X112275881Y-89741476D02*
X112275881Y-90312905D01*
X112275881Y-90027191D02*
X111275881Y-90027191D01*
X111418738Y-90122429D01*
X111513976Y-90217667D01*
X111561595Y-90312905D01*
X117689334Y-89444000D02*
X117641715Y-89477333D01*
X117498858Y-89510667D01*
X117403620Y-89510667D01*
X117260762Y-89477333D01*
X117165524Y-89410667D01*
X117117905Y-89344000D01*
X117070286Y-89210667D01*
X117070286Y-89110667D01*
X117117905Y-88977333D01*
X117165524Y-88910667D01*
X117260762Y-88844000D01*
X117403620Y-88810667D01*
X117498858Y-88810667D01*
X117641715Y-88844000D01*
X117689334Y-88877333D01*
X118546477Y-88810667D02*
X118356000Y-88810667D01*
X118260762Y-88844000D01*
X118213143Y-88877333D01*
X118117905Y-88977333D01*
X118070286Y-89110667D01*
X118070286Y-89377333D01*
X118117905Y-89444000D01*
X118165524Y-89477333D01*
X118260762Y-89510667D01*
X118451239Y-89510667D01*
X118546477Y-89477333D01*
X118594096Y-89444000D01*
X118641715Y-89377333D01*
X118641715Y-89210667D01*
X118594096Y-89144000D01*
X118546477Y-89110667D01*
X118451239Y-89077333D01*
X118260762Y-89077333D01*
X118165524Y-89110667D01*
X118117905Y-89144000D01*
X118070286Y-89210667D01*
X177585810Y-105303581D02*
X177585810Y-104303581D01*
X178633429Y-105208343D02*
X178585810Y-105255962D01*
X178442953Y-105303581D01*
X178347715Y-105303581D01*
X178204857Y-105255962D01*
X178109619Y-105160724D01*
X178062000Y-105065486D01*
X178014381Y-104875010D01*
X178014381Y-104732152D01*
X178062000Y-104541676D01*
X178109619Y-104446438D01*
X178204857Y-104351200D01*
X178347715Y-104303581D01*
X178442953Y-104303581D01*
X178585810Y-104351200D01*
X178633429Y-104398819D01*
X178966762Y-104303581D02*
X179585810Y-104303581D01*
X179252476Y-104684533D01*
X179395334Y-104684533D01*
X179490572Y-104732152D01*
X179538191Y-104779771D01*
X179585810Y-104875010D01*
X179585810Y-105113105D01*
X179538191Y-105208343D01*
X179490572Y-105255962D01*
X179395334Y-105303581D01*
X179109619Y-105303581D01*
X179014381Y-105255962D01*
X178966762Y-105208343D01*
X147661334Y-110740000D02*
X147613715Y-110773333D01*
X147470858Y-110806667D01*
X147375620Y-110806667D01*
X147232762Y-110773333D01*
X147137524Y-110706667D01*
X147089905Y-110640000D01*
X147042286Y-110506667D01*
X147042286Y-110406667D01*
X147089905Y-110273333D01*
X147137524Y-110206667D01*
X147232762Y-110140000D01*
X147375620Y-110106667D01*
X147470858Y-110106667D01*
X147613715Y-110140000D01*
X147661334Y-110173333D01*
X147994667Y-110106667D02*
X148613715Y-110106667D01*
X148280381Y-110373333D01*
X148423239Y-110373333D01*
X148518477Y-110406667D01*
X148566096Y-110440000D01*
X148613715Y-110506667D01*
X148613715Y-110673333D01*
X148566096Y-110740000D01*
X148518477Y-110773333D01*
X148423239Y-110806667D01*
X148137524Y-110806667D01*
X148042286Y-110773333D01*
X147994667Y-110740000D01*
X141168381Y-108913490D02*
X140168381Y-108913490D01*
X141073143Y-107865871D02*
X141120762Y-107913490D01*
X141168381Y-108056347D01*
X141168381Y-108151585D01*
X141120762Y-108294443D01*
X141025524Y-108389681D01*
X140930286Y-108437300D01*
X140739810Y-108484919D01*
X140596952Y-108484919D01*
X140406476Y-108437300D01*
X140311238Y-108389681D01*
X140216000Y-108294443D01*
X140168381Y-108151585D01*
X140168381Y-108056347D01*
X140216000Y-107913490D01*
X140263619Y-107865871D01*
X140263619Y-107484919D02*
X140216000Y-107437300D01*
X140168381Y-107342062D01*
X140168381Y-107103966D01*
X140216000Y-107008728D01*
X140263619Y-106961109D01*
X140358857Y-106913490D01*
X140454095Y-106913490D01*
X140596952Y-106961109D01*
X141168381Y-107532538D01*
X141168381Y-106913490D01*
X185224381Y-116006476D02*
X184748190Y-116339810D01*
X185224381Y-116577905D02*
X184224381Y-116577905D01*
X184224381Y-116196952D01*
X184272000Y-116101714D01*
X184319619Y-116054095D01*
X184414857Y-116006476D01*
X184557714Y-116006476D01*
X184652952Y-116054095D01*
X184700571Y-116101714D01*
X184748190Y-116196952D01*
X184748190Y-116577905D01*
X185224381Y-115577905D02*
X184224381Y-115577905D01*
X185224381Y-115006476D01*
X184224381Y-115006476D01*
X184224381Y-114101714D02*
X184224381Y-114292191D01*
X184272000Y-114387429D01*
X184319619Y-114435048D01*
X184462476Y-114530286D01*
X184652952Y-114577905D01*
X185033905Y-114577905D01*
X185129143Y-114530286D01*
X185176762Y-114482667D01*
X185224381Y-114387429D01*
X185224381Y-114196952D01*
X185176762Y-114101714D01*
X185129143Y-114054095D01*
X185033905Y-114006476D01*
X184795810Y-114006476D01*
X184700571Y-114054095D01*
X184652952Y-114101714D01*
X184605333Y-114196952D01*
X184605333Y-114387429D01*
X184652952Y-114482667D01*
X184700571Y-114530286D01*
X184795810Y-114577905D01*
X105552381Y-104076190D02*
X104552381Y-104076190D01*
X105457143Y-103028571D02*
X105504762Y-103076190D01*
X105552381Y-103219047D01*
X105552381Y-103314285D01*
X105504762Y-103457143D01*
X105409524Y-103552381D01*
X105314286Y-103600000D01*
X105123810Y-103647619D01*
X104980952Y-103647619D01*
X104790476Y-103600000D01*
X104695238Y-103552381D01*
X104600000Y-103457143D01*
X104552381Y-103314285D01*
X104552381Y-103219047D01*
X104600000Y-103076190D01*
X104647619Y-103028571D01*
X104885714Y-102171428D02*
X105552381Y-102171428D01*
X104504762Y-102409524D02*
X105219048Y-102647619D01*
X105219048Y-102028571D01*
X105183181Y-79882905D02*
X105992705Y-79882905D01*
X106087943Y-79835286D01*
X106135562Y-79787667D01*
X106183181Y-79692429D01*
X106183181Y-79501952D01*
X106135562Y-79406714D01*
X106087943Y-79359095D01*
X105992705Y-79311476D01*
X105183181Y-79311476D01*
X105183181Y-78930524D02*
X105183181Y-78311476D01*
X105564133Y-78644810D01*
X105564133Y-78501952D01*
X105611752Y-78406714D01*
X105659371Y-78359095D01*
X105754610Y-78311476D01*
X105992705Y-78311476D01*
X106087943Y-78359095D01*
X106135562Y-78406714D01*
X106183181Y-78501952D01*
X106183181Y-78787667D01*
X106135562Y-78882905D01*
X106087943Y-78930524D01*
X162655262Y-94845119D02*
X162560024Y-94797500D01*
X162464786Y-94702262D01*
X162321929Y-94559405D01*
X162226690Y-94511786D01*
X162131452Y-94511786D01*
X162179071Y-94749881D02*
X162083833Y-94702262D01*
X161988595Y-94607024D01*
X161940976Y-94416548D01*
X161940976Y-94083214D01*
X161988595Y-93892738D01*
X162083833Y-93797500D01*
X162179071Y-93749881D01*
X162369548Y-93749881D01*
X162464786Y-93797500D01*
X162560024Y-93892738D01*
X162607643Y-94083214D01*
X162607643Y-94416548D01*
X162560024Y-94607024D01*
X162464786Y-94702262D01*
X162369548Y-94749881D01*
X162179071Y-94749881D01*
X162940976Y-93749881D02*
X163607643Y-93749881D01*
X163179071Y-94749881D01*
X166679667Y-109180381D02*
X166679667Y-109894667D01*
X166632047Y-110037524D01*
X166536809Y-110132762D01*
X166393952Y-110180381D01*
X166298714Y-110180381D01*
X167155857Y-110180381D02*
X167155857Y-109180381D01*
X167536810Y-109180381D01*
X167632048Y-109228000D01*
X167679667Y-109275619D01*
X167727286Y-109370857D01*
X167727286Y-109513714D01*
X167679667Y-109608952D01*
X167632048Y-109656571D01*
X167536810Y-109704190D01*
X167155857Y-109704190D01*
X168584429Y-109513714D02*
X168584429Y-110180381D01*
X168346333Y-109132762D02*
X168108238Y-109847048D01*
X168727286Y-109847048D01*
X181633881Y-113037833D02*
X182348167Y-113037833D01*
X182491024Y-113085453D01*
X182586262Y-113180691D01*
X182633881Y-113323548D01*
X182633881Y-113418786D01*
X182633881Y-112561643D02*
X181633881Y-112561643D01*
X181633881Y-112180690D01*
X181681500Y-112085452D01*
X181729119Y-112037833D01*
X181824357Y-111990214D01*
X181967214Y-111990214D01*
X182062452Y-112037833D01*
X182110071Y-112085452D01*
X182157690Y-112180690D01*
X182157690Y-112561643D01*
X181633881Y-111085452D02*
X181633881Y-111561643D01*
X182110071Y-111609262D01*
X182062452Y-111561643D01*
X182014833Y-111466405D01*
X182014833Y-111228309D01*
X182062452Y-111133071D01*
X182110071Y-111085452D01*
X182205310Y-111037833D01*
X182443405Y-111037833D01*
X182538643Y-111085452D01*
X182586262Y-111133071D01*
X182633881Y-111228309D01*
X182633881Y-111466405D01*
X182586262Y-111561643D01*
X182538643Y-111609262D01*
X184840667Y-98452381D02*
X184840667Y-99166667D01*
X184793047Y-99309524D01*
X184697809Y-99404762D01*
X184554952Y-99452381D01*
X184459714Y-99452381D01*
X185316857Y-99452381D02*
X185316857Y-98452381D01*
X185697810Y-98452381D01*
X185793048Y-98500000D01*
X185840667Y-98547619D01*
X185888286Y-98642857D01*
X185888286Y-98785714D01*
X185840667Y-98880952D01*
X185793048Y-98928571D01*
X185697810Y-98976190D01*
X185316857Y-98976190D01*
X186221619Y-98452381D02*
X186840667Y-98452381D01*
X186507333Y-98833333D01*
X186650191Y-98833333D01*
X186745429Y-98880952D01*
X186793048Y-98928571D01*
X186840667Y-99023810D01*
X186840667Y-99261905D01*
X186793048Y-99357143D01*
X186745429Y-99404762D01*
X186650191Y-99452381D01*
X186364476Y-99452381D01*
X186269238Y-99404762D01*
X186221619Y-99357143D01*
X170616667Y-107783381D02*
X170616667Y-108497667D01*
X170569047Y-108640524D01*
X170473809Y-108735762D01*
X170330952Y-108783381D01*
X170235714Y-108783381D01*
X171092857Y-108783381D02*
X171092857Y-107783381D01*
X171473810Y-107783381D01*
X171569048Y-107831000D01*
X171616667Y-107878619D01*
X171664286Y-107973857D01*
X171664286Y-108116714D01*
X171616667Y-108211952D01*
X171569048Y-108259571D01*
X171473810Y-108307190D01*
X171092857Y-108307190D01*
X172045238Y-107878619D02*
X172092857Y-107831000D01*
X172188095Y-107783381D01*
X172426191Y-107783381D01*
X172521429Y-107831000D01*
X172569048Y-107878619D01*
X172616667Y-107973857D01*
X172616667Y-108069095D01*
X172569048Y-108211952D01*
X171997619Y-108783381D01*
X172616667Y-108783381D01*
X145083767Y-79644799D02*
X145798053Y-79644799D01*
X145940910Y-79692419D01*
X146036148Y-79787657D01*
X146083767Y-79930514D01*
X146083767Y-80025752D01*
X146083767Y-79168609D02*
X145083767Y-79168609D01*
X145083767Y-78787656D01*
X145131386Y-78692418D01*
X145179005Y-78644799D01*
X145274243Y-78597180D01*
X145417100Y-78597180D01*
X145512338Y-78644799D01*
X145559957Y-78692418D01*
X145607576Y-78787656D01*
X145607576Y-79168609D01*
X146083767Y-77644799D02*
X146083767Y-78216228D01*
X146083767Y-77930514D02*
X145083767Y-77930514D01*
X145226624Y-78025752D01*
X145321862Y-78120990D01*
X145369481Y-78216228D01*
X168981381Y-75048976D02*
X168505190Y-75382310D01*
X168981381Y-75620405D02*
X167981381Y-75620405D01*
X167981381Y-75239452D01*
X168029000Y-75144214D01*
X168076619Y-75096595D01*
X168171857Y-75048976D01*
X168314714Y-75048976D01*
X168409952Y-75096595D01*
X168457571Y-75144214D01*
X168505190Y-75239452D01*
X168505190Y-75620405D01*
X168981381Y-74620405D02*
X167981381Y-74620405D01*
X168981381Y-74048976D01*
X167981381Y-74048976D01*
X168981381Y-73048976D02*
X168981381Y-73620405D01*
X168981381Y-73334691D02*
X167981381Y-73334691D01*
X168124238Y-73429929D01*
X168219476Y-73525167D01*
X168267095Y-73620405D01*
X129786143Y-103639881D02*
X129452809Y-103163690D01*
X129214714Y-103639881D02*
X129214714Y-102639881D01*
X129595667Y-102639881D01*
X129690905Y-102687500D01*
X129738524Y-102735119D01*
X129786143Y-102830357D01*
X129786143Y-102973214D01*
X129738524Y-103068452D01*
X129690905Y-103116071D01*
X129595667Y-103163690D01*
X129214714Y-103163690D01*
X130738524Y-103639881D02*
X130167095Y-103639881D01*
X130452809Y-103639881D02*
X130452809Y-102639881D01*
X130357571Y-102782738D01*
X130262333Y-102877976D01*
X130167095Y-102925595D01*
X131357571Y-102639881D02*
X131452810Y-102639881D01*
X131548048Y-102687500D01*
X131595667Y-102735119D01*
X131643286Y-102830357D01*
X131690905Y-103020833D01*
X131690905Y-103258929D01*
X131643286Y-103449405D01*
X131595667Y-103544643D01*
X131548048Y-103592262D01*
X131452810Y-103639881D01*
X131357571Y-103639881D01*
X131262333Y-103592262D01*
X131214714Y-103544643D01*
X131167095Y-103449405D01*
X131119476Y-103258929D01*
X131119476Y-103020833D01*
X131167095Y-102830357D01*
X131214714Y-102735119D01*
X131262333Y-102687500D01*
X131357571Y-102639881D01*
X150772834Y-103639881D02*
X150439500Y-103163690D01*
X150201405Y-103639881D02*
X150201405Y-102639881D01*
X150582358Y-102639881D01*
X150677596Y-102687500D01*
X150725215Y-102735119D01*
X150772834Y-102830357D01*
X150772834Y-102973214D01*
X150725215Y-103068452D01*
X150677596Y-103116071D01*
X150582358Y-103163690D01*
X150201405Y-103163690D01*
X151106167Y-102639881D02*
X151772834Y-102639881D01*
X151344262Y-103639881D01*
X160805834Y-103639881D02*
X160472500Y-103163690D01*
X160234405Y-103639881D02*
X160234405Y-102639881D01*
X160615358Y-102639881D01*
X160710596Y-102687500D01*
X160758215Y-102735119D01*
X160805834Y-102830357D01*
X160805834Y-102973214D01*
X160758215Y-103068452D01*
X160710596Y-103116071D01*
X160615358Y-103163690D01*
X160234405Y-103163690D01*
X161282024Y-103639881D02*
X161472500Y-103639881D01*
X161567739Y-103592262D01*
X161615358Y-103544643D01*
X161710596Y-103401786D01*
X161758215Y-103211310D01*
X161758215Y-102830357D01*
X161710596Y-102735119D01*
X161662977Y-102687500D01*
X161567739Y-102639881D01*
X161377262Y-102639881D01*
X161282024Y-102687500D01*
X161234405Y-102735119D01*
X161186786Y-102830357D01*
X161186786Y-103068452D01*
X161234405Y-103163690D01*
X161282024Y-103211310D01*
X161377262Y-103258929D01*
X161567739Y-103258929D01*
X161662977Y-103211310D01*
X161710596Y-103163690D01*
X161758215Y-103068452D01*
X119731643Y-103639881D02*
X119398309Y-103163690D01*
X119160214Y-103639881D02*
X119160214Y-102639881D01*
X119541167Y-102639881D01*
X119636405Y-102687500D01*
X119684024Y-102735119D01*
X119731643Y-102830357D01*
X119731643Y-102973214D01*
X119684024Y-103068452D01*
X119636405Y-103116071D01*
X119541167Y-103163690D01*
X119160214Y-103163690D01*
X120684024Y-103639881D02*
X120112595Y-103639881D01*
X120398309Y-103639881D02*
X120398309Y-102639881D01*
X120303071Y-102782738D01*
X120207833Y-102877976D01*
X120112595Y-102925595D01*
X121636405Y-103639881D02*
X121064976Y-103639881D01*
X121350690Y-103639881D02*
X121350690Y-102639881D01*
X121255452Y-102782738D01*
X121160214Y-102877976D01*
X121064976Y-102925595D01*
X179030334Y-88145881D02*
X178697000Y-87669690D01*
X178458905Y-88145881D02*
X178458905Y-87145881D01*
X178839858Y-87145881D01*
X178935096Y-87193500D01*
X178982715Y-87241119D01*
X179030334Y-87336357D01*
X179030334Y-87479214D01*
X178982715Y-87574452D01*
X178935096Y-87622071D01*
X178839858Y-87669690D01*
X178458905Y-87669690D01*
X179982715Y-88145881D02*
X179411286Y-88145881D01*
X179697000Y-88145881D02*
X179697000Y-87145881D01*
X179601762Y-87288738D01*
X179506524Y-87383976D01*
X179411286Y-87431595D01*
X178903334Y-91384381D02*
X178570000Y-90908190D01*
X178331905Y-91384381D02*
X178331905Y-90384381D01*
X178712858Y-90384381D01*
X178808096Y-90432000D01*
X178855715Y-90479619D01*
X178903334Y-90574857D01*
X178903334Y-90717714D01*
X178855715Y-90812952D01*
X178808096Y-90860571D01*
X178712858Y-90908190D01*
X178331905Y-90908190D01*
X179760477Y-90717714D02*
X179760477Y-91384381D01*
X179522381Y-90336762D02*
X179284286Y-91051048D01*
X179903334Y-91051048D01*
X178903334Y-94622881D02*
X178570000Y-94146690D01*
X178331905Y-94622881D02*
X178331905Y-93622881D01*
X178712858Y-93622881D01*
X178808096Y-93670500D01*
X178855715Y-93718119D01*
X178903334Y-93813357D01*
X178903334Y-93956214D01*
X178855715Y-94051452D01*
X178808096Y-94099071D01*
X178712858Y-94146690D01*
X178331905Y-94146690D01*
X179284286Y-93718119D02*
X179331905Y-93670500D01*
X179427143Y-93622881D01*
X179665239Y-93622881D01*
X179760477Y-93670500D01*
X179808096Y-93718119D01*
X179855715Y-93813357D01*
X179855715Y-93908595D01*
X179808096Y-94051452D01*
X179236667Y-94622881D01*
X179855715Y-94622881D01*
X178903334Y-97861381D02*
X178570000Y-97385190D01*
X178331905Y-97861381D02*
X178331905Y-96861381D01*
X178712858Y-96861381D01*
X178808096Y-96909000D01*
X178855715Y-96956619D01*
X178903334Y-97051857D01*
X178903334Y-97194714D01*
X178855715Y-97289952D01*
X178808096Y-97337571D01*
X178712858Y-97385190D01*
X178331905Y-97385190D01*
X179760477Y-96861381D02*
X179570000Y-96861381D01*
X179474762Y-96909000D01*
X179427143Y-96956619D01*
X179331905Y-97099476D01*
X179284286Y-97289952D01*
X179284286Y-97670905D01*
X179331905Y-97766143D01*
X179379524Y-97813762D01*
X179474762Y-97861381D01*
X179665239Y-97861381D01*
X179760477Y-97813762D01*
X179808096Y-97766143D01*
X179855715Y-97670905D01*
X179855715Y-97432810D01*
X179808096Y-97337571D01*
X179760477Y-97289952D01*
X179665239Y-97242333D01*
X179474762Y-97242333D01*
X179379524Y-97289952D01*
X179331905Y-97337571D01*
X179284286Y-97432810D01*
X167711381Y-92971857D02*
X167235190Y-93305191D01*
X167711381Y-93543286D02*
X166711381Y-93543286D01*
X166711381Y-93162333D01*
X166759000Y-93067095D01*
X166806619Y-93019476D01*
X166901857Y-92971857D01*
X167044714Y-92971857D01*
X167139952Y-93019476D01*
X167187571Y-93067095D01*
X167235190Y-93162333D01*
X167235190Y-93543286D01*
X167711381Y-92019476D02*
X167711381Y-92590905D01*
X167711381Y-92305191D02*
X166711381Y-92305191D01*
X166854238Y-92400429D01*
X166949476Y-92495667D01*
X166997095Y-92590905D01*
X166806619Y-91638524D02*
X166759000Y-91590905D01*
X166711381Y-91495667D01*
X166711381Y-91257571D01*
X166759000Y-91162333D01*
X166806619Y-91114714D01*
X166901857Y-91067095D01*
X166997095Y-91067095D01*
X167139952Y-91114714D01*
X167711381Y-91686143D01*
X167711381Y-91067095D01*
X170886381Y-93162357D02*
X170410190Y-93495691D01*
X170886381Y-93733786D02*
X169886381Y-93733786D01*
X169886381Y-93352833D01*
X169934000Y-93257595D01*
X169981619Y-93209976D01*
X170076857Y-93162357D01*
X170219714Y-93162357D01*
X170314952Y-93209976D01*
X170362571Y-93257595D01*
X170410190Y-93352833D01*
X170410190Y-93733786D01*
X170886381Y-92209976D02*
X170886381Y-92781405D01*
X170886381Y-92495691D02*
X169886381Y-92495691D01*
X170029238Y-92590929D01*
X170124476Y-92686167D01*
X170172095Y-92781405D01*
X169886381Y-91876643D02*
X169886381Y-91257595D01*
X170267333Y-91590929D01*
X170267333Y-91448071D01*
X170314952Y-91352833D01*
X170362571Y-91305214D01*
X170457810Y-91257595D01*
X170695905Y-91257595D01*
X170791143Y-91305214D01*
X170838762Y-91352833D01*
X170886381Y-91448071D01*
X170886381Y-91733786D01*
X170838762Y-91829024D01*
X170791143Y-91876643D01*
X108338881Y-102719166D02*
X107862690Y-103052500D01*
X108338881Y-103290595D02*
X107338881Y-103290595D01*
X107338881Y-102909642D01*
X107386500Y-102814404D01*
X107434119Y-102766785D01*
X107529357Y-102719166D01*
X107672214Y-102719166D01*
X107767452Y-102766785D01*
X107815071Y-102814404D01*
X107862690Y-102909642D01*
X107862690Y-103290595D01*
X107767452Y-102147738D02*
X107719833Y-102242976D01*
X107672214Y-102290595D01*
X107576976Y-102338214D01*
X107529357Y-102338214D01*
X107434119Y-102290595D01*
X107386500Y-102242976D01*
X107338881Y-102147738D01*
X107338881Y-101957261D01*
X107386500Y-101862023D01*
X107434119Y-101814404D01*
X107529357Y-101766785D01*
X107576976Y-101766785D01*
X107672214Y-101814404D01*
X107719833Y-101862023D01*
X107767452Y-101957261D01*
X107767452Y-102147738D01*
X107815071Y-102242976D01*
X107862690Y-102290595D01*
X107957929Y-102338214D01*
X108148405Y-102338214D01*
X108243643Y-102290595D01*
X108291262Y-102242976D01*
X108338881Y-102147738D01*
X108338881Y-101957261D01*
X108291262Y-101862023D01*
X108243643Y-101814404D01*
X108148405Y-101766785D01*
X107957929Y-101766785D01*
X107862690Y-101814404D01*
X107815071Y-101862023D01*
X107767452Y-101957261D01*
X92952381Y-103838095D02*
X91952381Y-103838095D01*
X91952381Y-103457142D01*
X92000000Y-103361904D01*
X92047619Y-103314285D01*
X92142857Y-103266666D01*
X92285714Y-103266666D01*
X92380952Y-103314285D01*
X92428571Y-103361904D01*
X92476190Y-103457142D01*
X92476190Y-103838095D01*
X92047619Y-102885714D02*
X92000000Y-102838095D01*
X91952381Y-102742857D01*
X91952381Y-102504761D01*
X92000000Y-102409523D01*
X92047619Y-102361904D01*
X92142857Y-102314285D01*
X92238095Y-102314285D01*
X92380952Y-102361904D01*
X92952381Y-102933333D01*
X92952381Y-102314285D01*
X115852381Y-97238095D02*
X114852381Y-97238095D01*
X114852381Y-97000000D01*
X114900000Y-96857142D01*
X114995238Y-96761904D01*
X115090476Y-96714285D01*
X115280952Y-96666666D01*
X115423810Y-96666666D01*
X115614286Y-96714285D01*
X115709524Y-96761904D01*
X115804762Y-96857142D01*
X115852381Y-97000000D01*
X115852381Y-97238095D01*
X114852381Y-95809523D02*
X114852381Y-96000000D01*
X114900000Y-96095238D01*
X114947619Y-96142857D01*
X115090476Y-96238095D01*
X115280952Y-96285714D01*
X115661905Y-96285714D01*
X115757143Y-96238095D01*
X115804762Y-96190476D01*
X115852381Y-96095238D01*
X115852381Y-95904761D01*
X115804762Y-95809523D01*
X115757143Y-95761904D01*
X115661905Y-95714285D01*
X115423810Y-95714285D01*
X115328571Y-95761904D01*
X115280952Y-95809523D01*
X115233333Y-95904761D01*
X115233333Y-96095238D01*
X115280952Y-96190476D01*
X115328571Y-96238095D01*
X115423810Y-96285714D01*
X153157143Y-86653666D02*
X153204762Y-86701285D01*
X153252381Y-86844142D01*
X153252381Y-86939380D01*
X153204762Y-87082238D01*
X153109524Y-87177476D01*
X153014286Y-87225095D01*
X152823810Y-87272714D01*
X152680952Y-87272714D01*
X152490476Y-87225095D01*
X152395238Y-87177476D01*
X152300000Y-87082238D01*
X152252381Y-86939380D01*
X152252381Y-86844142D01*
X152300000Y-86701285D01*
X152347619Y-86653666D01*
X153252381Y-85701285D02*
X153252381Y-86272714D01*
X153252381Y-85987000D02*
X152252381Y-85987000D01*
X152395238Y-86082238D01*
X152490476Y-86177476D01*
X152538095Y-86272714D01*
X106759143Y-94210143D02*
X106711524Y-94257762D01*
X106568667Y-94305381D01*
X106473429Y-94305381D01*
X106330571Y-94257762D01*
X106235333Y-94162524D01*
X106187714Y-94067286D01*
X106140095Y-93876810D01*
X106140095Y-93733952D01*
X106187714Y-93543476D01*
X106235333Y-93448238D01*
X106330571Y-93353000D01*
X106473429Y-93305381D01*
X106568667Y-93305381D01*
X106711524Y-93353000D01*
X106759143Y-93400619D01*
X107711524Y-94305381D02*
X107140095Y-94305381D01*
X107425809Y-94305381D02*
X107425809Y-93305381D01*
X107330571Y-93448238D01*
X107235333Y-93543476D01*
X107140095Y-93591095D01*
X108282952Y-93733952D02*
X108187714Y-93686333D01*
X108140095Y-93638714D01*
X108092476Y-93543476D01*
X108092476Y-93495857D01*
X108140095Y-93400619D01*
X108187714Y-93353000D01*
X108282952Y-93305381D01*
X108473429Y-93305381D01*
X108568667Y-93353000D01*
X108616286Y-93400619D01*
X108663905Y-93495857D01*
X108663905Y-93543476D01*
X108616286Y-93638714D01*
X108568667Y-93686333D01*
X108473429Y-93733952D01*
X108282952Y-93733952D01*
X108187714Y-93781571D01*
X108140095Y-93829190D01*
X108092476Y-93924429D01*
X108092476Y-94114905D01*
X108140095Y-94210143D01*
X108187714Y-94257762D01*
X108282952Y-94305381D01*
X108473429Y-94305381D01*
X108568667Y-94257762D01*
X108616286Y-94210143D01*
X108663905Y-94114905D01*
X108663905Y-93924429D01*
X108616286Y-93829190D01*
X108568667Y-93781571D01*
X108473429Y-93733952D01*
X151836381Y-92305095D02*
X150836381Y-92305095D01*
X150836381Y-91924142D01*
X150884000Y-91828904D01*
X150931619Y-91781285D01*
X151026857Y-91733666D01*
X151169714Y-91733666D01*
X151264952Y-91781285D01*
X151312571Y-91828904D01*
X151360190Y-91924142D01*
X151360190Y-92305095D01*
X150836381Y-91400333D02*
X150836381Y-90781285D01*
X151217333Y-91114619D01*
X151217333Y-90971761D01*
X151264952Y-90876523D01*
X151312571Y-90828904D01*
X151407810Y-90781285D01*
X151645905Y-90781285D01*
X151741143Y-90828904D01*
X151788762Y-90876523D01*
X151836381Y-90971761D01*
X151836381Y-91257476D01*
X151788762Y-91352714D01*
X151741143Y-91400333D01*
M02*
