M48
;DRILL file {KiCad 4.0.6} date 10/09/17 23:57:53
;FORMAT={2:4/ absolute / inch / keep zeros}
FMAT,2
INCH,TZ
T1C0.012
T2C0.016
T3C0.024
T4C0.031
T5C0.032
T6C0.035
T7C0.039
T8C0.043
T9C0.047
T10C0.125
T11C0.043
T12C0.122
T13C0.157
%
G90
G05
M72
T1
X036600Y-025600
X036610Y-029070
X036700Y-032600
X036890Y-036969
X037283Y-033780
X037753Y-038908
X038386Y-040000
X039154Y-045925
X040433Y-036811
X040748Y-032618
X041610Y-029780
X043150Y-040472
X043819Y-034882
X045118Y-038307
X045472Y-041457
X045472Y-042795
X047095Y-036674
X047100Y-037750
X048031Y-045354
X048700Y-030350
X048850Y-028450
X048925Y-033825
X049400Y-035975
X050350Y-031425
X050375Y-033825
X050500Y-037075
X051181Y-041457
X052550Y-033325
X053000Y-025525
X054300Y-035750
X054325Y-033650
X054350Y-031325
X055394Y-041100
X055394Y-042559
X055394Y-043819
X055450Y-031650
X055450Y-033975
X057638Y-033071
X057675Y-026925
X057750Y-031850
X058780Y-040472
X058930Y-029550
X060400Y-036550
X060450Y-031950
X060472Y-034488
X061000Y-031150
X061181Y-033150
X061800Y-027000
X062275Y-034625
X062323Y-032480
X062380Y-025750
X062500Y-037675
X062875Y-040600
X062900Y-030250
X064173Y-033504
X064300Y-039275
X064375Y-034375
X065600Y-042725
X065925Y-032750
X066050Y-040200
X066275Y-035575
X066675Y-043300
X066950Y-030500
X067175Y-033725
X067750Y-027850
X068030Y-037970
X068050Y-036350
X068300Y-041700
X068650Y-029450
X068976Y-043661
X069050Y-027100
X069055Y-041732
X069173Y-033720
X069175Y-033125
X069200Y-040700
X070150Y-035512
X070157Y-034173
X070157Y-037402
X070276Y-038937
X070710Y-029470
X071142Y-037441
X071800Y-036325
X072000Y-044150
X072200Y-042100
X072975Y-035950
X073000Y-045800
X073600Y-025700
X074000Y-034820
X074427Y-029745
X074600Y-027800
T2
X043740Y-030906
X046148Y-029476
X046339Y-038071
X046610Y-039045
X056850Y-027399
X057953Y-029606
X071225Y-038525
X071890Y-035236
X072725Y-030750
X072852Y-029723
T3
X063600Y-037550
X064100Y-038050
X064600Y-037550
T4
X036800Y-038050
X036800Y-043050
X037800Y-038050
X037800Y-043050
X038800Y-038050
X038800Y-043050
X039800Y-038050
X039800Y-043050
X040800Y-038050
X040800Y-043050
X041300Y-035669
X041300Y-036950
X041800Y-038050
X041800Y-043050
X042284Y-035669
X042475Y-038925
X042475Y-041925
X042800Y-038050
X042800Y-043050
X043269Y-036950
X043800Y-038050
X043800Y-043050
X045175Y-026050
X045175Y-027034
X045967Y-040625
X046400Y-034641
X046400Y-035625
X047050Y-032391
X047050Y-033375
X047106Y-029853
X047400Y-043000
X047400Y-043984
X047600Y-041900
X047725Y-034641
X047725Y-035625
X047775Y-026900
X048600Y-041900
X048700Y-043000
X048700Y-043984
X048967Y-040625
X049525Y-027950
X049600Y-041900
X049800Y-040625
X050000Y-043000
X050000Y-043984
X050525Y-027950
X050600Y-041900
X051300Y-043000
X051300Y-043984
X051525Y-027950
X051600Y-041900
X052525Y-027950
X052600Y-041900
X052600Y-043000
X052600Y-043984
X052800Y-040625
X053525Y-027950
X053900Y-040975
X053900Y-041975
X053900Y-042975
X053900Y-043975
X054075Y-045400
X054525Y-027950
X055059Y-045400
X055525Y-027950
X056525Y-027950
X056900Y-040975
X056900Y-041975
X056900Y-042975
X056900Y-043975
X058000Y-040625
X058200Y-041900
X058200Y-043000
X058200Y-043984
X058425Y-027950
X058425Y-029275
X058650Y-033050
X058650Y-034050
X058650Y-035050
X058650Y-036050
X059200Y-041900
X059425Y-027950
X059425Y-029275
X059500Y-043000
X059500Y-043984
X060157Y-033050
X060157Y-035019
X060200Y-041900
X060425Y-027950
X060425Y-029275
X060800Y-043000
X060800Y-043984
X061000Y-040625
X061200Y-041900
X061425Y-027950
X061425Y-029275
X061825Y-040625
X062100Y-043000
X062100Y-043984
X062200Y-041900
X062425Y-027950
X062425Y-029275
X063200Y-041900
X063400Y-043000
X063400Y-043984
X063425Y-027950
X063425Y-029275
X064425Y-027950
X064425Y-029275
X064725Y-041900
X064725Y-042884
X064800Y-045400
X064825Y-040625
X065075Y-030775
X065075Y-031775
X065075Y-032775
X065075Y-033775
X065425Y-027950
X065425Y-029275
X065800Y-045400
X065850Y-034900
X065850Y-037900
X066425Y-027950
X066800Y-045400
X067125Y-034900
X067125Y-037900
X067800Y-045400
X068075Y-030775
X068075Y-031775
X068075Y-032775
X068075Y-033775
X068800Y-039800
X068800Y-042800
X068800Y-045400
X069100Y-034525
X069100Y-035800
X069100Y-037075
X069100Y-038350
X069800Y-039800
X069800Y-042800
X069800Y-045400
X070125Y-032475
X070125Y-033459
X070800Y-039800
X070800Y-042800
X070800Y-045400
X071425Y-032475
X071425Y-033459
X071800Y-039800
X071800Y-042800
X071800Y-045400
X072100Y-034525
X072100Y-035800
X072100Y-037075
X072100Y-038350
T5
X046471Y-026234
X049071Y-045234
X050071Y-045234
X050471Y-026234
X051071Y-045234
X051471Y-026234
X052071Y-045234
X052471Y-026234
X053071Y-045234
X054071Y-026234
X055071Y-026234
X056071Y-026234
X056071Y-045234
X057071Y-026234
X057071Y-045234
X058071Y-026234
X058071Y-045234
X058260Y-031028
X059071Y-026234
X059071Y-045234
X059260Y-031028
X060071Y-026234
X060071Y-045234
X060260Y-031028
X061071Y-026234
X061071Y-045234
X062071Y-045234
X063071Y-026234
X063071Y-045234
X064071Y-026234
X064800Y-044100
X065071Y-026234
X065800Y-044100
X066071Y-026234
X067071Y-026234
X067500Y-039800
X067500Y-040800
X067500Y-041800
X068071Y-026234
X069071Y-026234
X069800Y-044100
X070071Y-026234
X070800Y-044100
X073071Y-026234
X073071Y-027234
X073071Y-028234
X073071Y-029234
X073071Y-030234
X073071Y-031234
X073071Y-032234
X073071Y-033234
X073071Y-034234
X073071Y-035234
X073071Y-043234
X073100Y-039800
X073100Y-040800
X073100Y-041800
X074071Y-026234
X074071Y-027234
X074071Y-028234
X074071Y-029234
X074071Y-030234
X074071Y-031234
X074071Y-043234
T6
X074500Y-032234
X074500Y-033234
X074500Y-034234
X074500Y-035234
X074500Y-036234
X074500Y-037234
X074500Y-038234
X074500Y-039234
T7
X042306Y-028650
X042306Y-029650
X042306Y-030650
X042306Y-031650
X042306Y-032650
X042306Y-033650
X044528Y-036063
X044530Y-038620
X044825Y-033050
X044825Y-034050
X044825Y-035050
X047244Y-030787
X048000Y-030025
X049850Y-030300
X049850Y-032575
X049850Y-034875
X050787Y-028976
X050850Y-030300
X050850Y-032575
X050850Y-034875
X051025Y-027025
X051850Y-030300
X051850Y-032575
X051850Y-034875
X052441Y-028976
X054325Y-030300
X054325Y-032575
X054325Y-034875
X055325Y-030300
X055325Y-032575
X055325Y-034875
X056325Y-030300
X056325Y-032575
X056325Y-034875
X056722Y-028937
X056996Y-029973
X067800Y-043400
T8
X039142Y-039961
X039142Y-041142
X040323Y-039961
X040323Y-041142
X043800Y-039050
X043800Y-042050
X044475Y-028400
X044475Y-031400
X045433Y-036528
X045433Y-039528
X045825Y-028400
X045825Y-031400
X048175Y-037894
X048175Y-039075
X049356Y-037894
X049356Y-039075
X050537Y-037894
X050537Y-039075
X051718Y-037894
X051718Y-039075
X052899Y-037894
X052899Y-039075
X054081Y-037894
X054081Y-039075
X055262Y-037894
X055262Y-039075
X056443Y-037894
X056443Y-039075
X057624Y-037894
X057624Y-039075
X058805Y-037894
X058805Y-039075
X059986Y-037894
X059986Y-039075
X061167Y-037894
X061167Y-039075
X070050Y-028000
X070050Y-031000
X071425Y-028000
X071425Y-031000
T9
X061800Y-031125
X061800Y-036125
X063525Y-031125
X063525Y-036125
T10
X041571Y-045234
X042071Y-026234
X071571Y-026234
X074071Y-045234
T11
X046994Y-039445
X062348Y-039445
T12
X037441Y-040551
T13
X037822Y-026600
X037822Y-035700
T0
M30
