G04 #@! TF.FileFunction,Legend,Bot*
%FSLAX46Y46*%
G04 Gerber Fmt 4.6, Leading zero omitted, Abs format (unit mm)*
G04 Created by KiCad (PCBNEW 4.0.6) date 09/24/17 01:01:51*
%MOMM*%
%LPD*%
G01*
G04 APERTURE LIST*
%ADD10C,0.100000*%
%ADD11C,0.300000*%
G04 APERTURE END LIST*
D10*
D11*
X142463096Y-85177976D02*
X142463096Y-83927976D01*
X142165477Y-83927976D01*
X141986905Y-83987500D01*
X141867858Y-84106548D01*
X141808334Y-84225595D01*
X141748810Y-84463690D01*
X141748810Y-84642262D01*
X141808334Y-84880357D01*
X141867858Y-84999405D01*
X141986905Y-85118452D01*
X142165477Y-85177976D01*
X142463096Y-85177976D01*
X140975001Y-83927976D02*
X140736905Y-83927976D01*
X140617858Y-83987500D01*
X140498810Y-84106548D01*
X140439286Y-84344643D01*
X140439286Y-84761310D01*
X140498810Y-84999405D01*
X140617858Y-85118452D01*
X140736905Y-85177976D01*
X140975001Y-85177976D01*
X141094048Y-85118452D01*
X141213096Y-84999405D01*
X141272620Y-84761310D01*
X141272620Y-84344643D01*
X141213096Y-84106548D01*
X141094048Y-83987500D01*
X140975001Y-83927976D01*
X138951191Y-85177976D02*
X138951191Y-83927976D01*
X138236905Y-85177976D01*
X138236905Y-83927976D01*
X137403572Y-83927976D02*
X137165476Y-83927976D01*
X137046429Y-83987500D01*
X136927381Y-84106548D01*
X136867857Y-84344643D01*
X136867857Y-84761310D01*
X136927381Y-84999405D01*
X137046429Y-85118452D01*
X137165476Y-85177976D01*
X137403572Y-85177976D01*
X137522619Y-85118452D01*
X137641667Y-84999405D01*
X137701191Y-84761310D01*
X137701191Y-84344643D01*
X137641667Y-84106548D01*
X137522619Y-83987500D01*
X137403572Y-83927976D01*
X136510714Y-83927976D02*
X135796429Y-83927976D01*
X136153572Y-85177976D02*
X136153572Y-83927976D01*
X134427381Y-85177976D02*
X134427381Y-83927976D01*
X133951190Y-83927976D01*
X133832143Y-83987500D01*
X133772619Y-84047024D01*
X133713095Y-84166071D01*
X133713095Y-84344643D01*
X133772619Y-84463690D01*
X133832143Y-84523214D01*
X133951190Y-84582738D01*
X134427381Y-84582738D01*
X132939286Y-83927976D02*
X132701190Y-83927976D01*
X132582143Y-83987500D01*
X132463095Y-84106548D01*
X132403571Y-84344643D01*
X132403571Y-84761310D01*
X132463095Y-84999405D01*
X132582143Y-85118452D01*
X132701190Y-85177976D01*
X132939286Y-85177976D01*
X133058333Y-85118452D01*
X133177381Y-84999405D01*
X133236905Y-84761310D01*
X133236905Y-84344643D01*
X133177381Y-84106548D01*
X133058333Y-83987500D01*
X132939286Y-83927976D01*
X131867857Y-85177976D02*
X131867857Y-83927976D01*
X131391666Y-83927976D01*
X131272619Y-83987500D01*
X131213095Y-84047024D01*
X131153571Y-84166071D01*
X131153571Y-84344643D01*
X131213095Y-84463690D01*
X131272619Y-84523214D01*
X131391666Y-84582738D01*
X131867857Y-84582738D01*
X130617857Y-83927976D02*
X130617857Y-84939881D01*
X130558333Y-85058929D01*
X130498809Y-85118452D01*
X130379762Y-85177976D01*
X130141666Y-85177976D01*
X130022619Y-85118452D01*
X129963095Y-85058929D01*
X129903571Y-84939881D01*
X129903571Y-83927976D01*
X128713095Y-85177976D02*
X129308333Y-85177976D01*
X129308333Y-83927976D01*
X128355952Y-84820833D02*
X127760714Y-84820833D01*
X128474999Y-85177976D02*
X128058333Y-83927976D01*
X127641666Y-85177976D01*
X127403570Y-83927976D02*
X126689285Y-83927976D01*
X127046428Y-85177976D02*
X127046428Y-83927976D01*
X126272618Y-84523214D02*
X125855951Y-84523214D01*
X125677380Y-85177976D02*
X126272618Y-85177976D01*
X126272618Y-83927976D01*
X125677380Y-83927976D01*
X143266667Y-86102976D02*
X142969048Y-87352976D01*
X142730952Y-86460119D01*
X142492857Y-87352976D01*
X142195238Y-86102976D01*
X141719048Y-87352976D02*
X141719048Y-86102976D01*
X141302381Y-86102976D02*
X140588096Y-86102976D01*
X140945239Y-87352976D02*
X140945239Y-86102976D01*
X140171429Y-87352976D02*
X140171429Y-86102976D01*
X140171429Y-86698214D02*
X139457143Y-86698214D01*
X139457143Y-87352976D02*
X139457143Y-86102976D01*
X137969048Y-87293452D02*
X137790476Y-87352976D01*
X137492857Y-87352976D01*
X137373810Y-87293452D01*
X137314286Y-87233929D01*
X137254762Y-87114881D01*
X137254762Y-86995833D01*
X137314286Y-86876786D01*
X137373810Y-86817262D01*
X137492857Y-86757738D01*
X137730953Y-86698214D01*
X137850000Y-86638690D01*
X137909524Y-86579167D01*
X137969048Y-86460119D01*
X137969048Y-86341071D01*
X137909524Y-86222024D01*
X137850000Y-86162500D01*
X137730953Y-86102976D01*
X137433333Y-86102976D01*
X137254762Y-86162500D01*
X136897619Y-86102976D02*
X136183334Y-86102976D01*
X136540477Y-87352976D02*
X136540477Y-86102976D01*
X135766667Y-87352976D02*
X135766667Y-86102976D01*
X135469048Y-86102976D01*
X135290476Y-86162500D01*
X135171429Y-86281548D01*
X135111905Y-86400595D01*
X135052381Y-86638690D01*
X135052381Y-86817262D01*
X135111905Y-87055357D01*
X135171429Y-87174405D01*
X135290476Y-87293452D01*
X135469048Y-87352976D01*
X135766667Y-87352976D01*
X133564286Y-87352976D02*
X133564286Y-86102976D01*
X133564286Y-86698214D02*
X132850000Y-86698214D01*
X132850000Y-87352976D02*
X132850000Y-86102976D01*
X132254762Y-87352976D02*
X132254762Y-86102976D01*
X131957143Y-86102976D01*
X131778571Y-86162500D01*
X131659524Y-86281548D01*
X131600000Y-86400595D01*
X131540476Y-86638690D01*
X131540476Y-86817262D01*
X131600000Y-87055357D01*
X131659524Y-87174405D01*
X131778571Y-87293452D01*
X131957143Y-87352976D01*
X132254762Y-87352976D01*
X130290476Y-87352976D02*
X130707143Y-86757738D01*
X131004762Y-87352976D02*
X131004762Y-86102976D01*
X130528571Y-86102976D01*
X130409524Y-86162500D01*
X130350000Y-86222024D01*
X130290476Y-86341071D01*
X130290476Y-86519643D01*
X130350000Y-86638690D01*
X130409524Y-86698214D01*
X130528571Y-86757738D01*
X131004762Y-86757738D01*
X128802381Y-87352976D02*
X128802381Y-86102976D01*
X128326190Y-86102976D01*
X128207143Y-86162500D01*
X128147619Y-86222024D01*
X128088095Y-86341071D01*
X128088095Y-86519643D01*
X128147619Y-86638690D01*
X128207143Y-86698214D01*
X128326190Y-86757738D01*
X128802381Y-86757738D01*
X127552381Y-87352976D02*
X127552381Y-86102976D01*
X126957143Y-87352976D02*
X126957143Y-86102976D01*
X126242857Y-87352976D01*
X126242857Y-86102976D01*
X125707143Y-87293452D02*
X125528571Y-87352976D01*
X125230952Y-87352976D01*
X125111905Y-87293452D01*
X125052381Y-87233929D01*
X124992857Y-87114881D01*
X124992857Y-86995833D01*
X125052381Y-86876786D01*
X125111905Y-86817262D01*
X125230952Y-86757738D01*
X125469048Y-86698214D01*
X125588095Y-86638690D01*
X125647619Y-86579167D01*
X125707143Y-86460119D01*
X125707143Y-86341071D01*
X125647619Y-86222024D01*
X125588095Y-86162500D01*
X125469048Y-86102976D01*
X125171428Y-86102976D01*
X124992857Y-86162500D01*
X141351191Y-79020833D02*
X140755953Y-79020833D01*
X141470238Y-79377976D02*
X141053572Y-78127976D01*
X140636905Y-79377976D01*
X139505952Y-79377976D02*
X139922619Y-78782738D01*
X140220238Y-79377976D02*
X140220238Y-78127976D01*
X139744047Y-78127976D01*
X139625000Y-78187500D01*
X139565476Y-78247024D01*
X139505952Y-78366071D01*
X139505952Y-78544643D01*
X139565476Y-78663690D01*
X139625000Y-78723214D01*
X139744047Y-78782738D01*
X140220238Y-78782738D01*
X138970238Y-78723214D02*
X138553571Y-78723214D01*
X138375000Y-79377976D02*
X138970238Y-79377976D01*
X138970238Y-78127976D01*
X138375000Y-78127976D01*
X137065476Y-78127976D02*
X136351191Y-78127976D01*
X136708334Y-79377976D02*
X136708334Y-78127976D01*
X135696429Y-78127976D02*
X135458333Y-78127976D01*
X135339286Y-78187500D01*
X135220238Y-78306548D01*
X135160714Y-78544643D01*
X135160714Y-78961310D01*
X135220238Y-79199405D01*
X135339286Y-79318452D01*
X135458333Y-79377976D01*
X135696429Y-79377976D01*
X135815476Y-79318452D01*
X135934524Y-79199405D01*
X135994048Y-78961310D01*
X135994048Y-78544643D01*
X135934524Y-78306548D01*
X135815476Y-78187500D01*
X135696429Y-78127976D01*
X134625000Y-79377976D02*
X134625000Y-78127976D01*
X134148809Y-78127976D01*
X134029762Y-78187500D01*
X133970238Y-78247024D01*
X133910714Y-78366071D01*
X133910714Y-78544643D01*
X133970238Y-78663690D01*
X134029762Y-78723214D01*
X134148809Y-78782738D01*
X134625000Y-78782738D01*
X132422619Y-79377976D02*
X132422619Y-78127976D01*
X132005952Y-79020833D01*
X131589286Y-78127976D01*
X131589286Y-79377976D01*
X130755953Y-78127976D02*
X130517857Y-78127976D01*
X130398810Y-78187500D01*
X130279762Y-78306548D01*
X130220238Y-78544643D01*
X130220238Y-78961310D01*
X130279762Y-79199405D01*
X130398810Y-79318452D01*
X130517857Y-79377976D01*
X130755953Y-79377976D01*
X130875000Y-79318452D01*
X130994048Y-79199405D01*
X131053572Y-78961310D01*
X131053572Y-78544643D01*
X130994048Y-78306548D01*
X130875000Y-78187500D01*
X130755953Y-78127976D01*
X129684524Y-78127976D02*
X129684524Y-79139881D01*
X129625000Y-79258929D01*
X129565476Y-79318452D01*
X129446429Y-79377976D01*
X129208333Y-79377976D01*
X129089286Y-79318452D01*
X129029762Y-79258929D01*
X128970238Y-79139881D01*
X128970238Y-78127976D01*
X128375000Y-79377976D02*
X128375000Y-78127976D01*
X127660714Y-79377976D01*
X127660714Y-78127976D01*
X127244047Y-78127976D02*
X126529762Y-78127976D01*
X126886905Y-79377976D02*
X126886905Y-78127976D01*
X141857144Y-81552976D02*
X142452382Y-81552976D01*
X142452382Y-80302976D01*
X141202382Y-80302976D02*
X140964286Y-80302976D01*
X140845239Y-80362500D01*
X140726191Y-80481548D01*
X140666667Y-80719643D01*
X140666667Y-81136310D01*
X140726191Y-81374405D01*
X140845239Y-81493452D01*
X140964286Y-81552976D01*
X141202382Y-81552976D01*
X141321429Y-81493452D01*
X141440477Y-81374405D01*
X141500001Y-81136310D01*
X141500001Y-80719643D01*
X141440477Y-80481548D01*
X141321429Y-80362500D01*
X141202382Y-80302976D01*
X140130953Y-81552976D02*
X140130953Y-80302976D01*
X139416667Y-81552976D01*
X139416667Y-80302976D01*
X138166667Y-80362500D02*
X138285715Y-80302976D01*
X138464286Y-80302976D01*
X138642858Y-80362500D01*
X138761905Y-80481548D01*
X138821429Y-80600595D01*
X138880953Y-80838690D01*
X138880953Y-81017262D01*
X138821429Y-81255357D01*
X138761905Y-81374405D01*
X138642858Y-81493452D01*
X138464286Y-81552976D01*
X138345238Y-81552976D01*
X138166667Y-81493452D01*
X138107143Y-81433929D01*
X138107143Y-81017262D01*
X138345238Y-81017262D01*
X136797619Y-80302976D02*
X136083334Y-80302976D01*
X136440477Y-81552976D02*
X136440477Y-80302976D01*
X135726191Y-81195833D02*
X135130953Y-81195833D01*
X135845238Y-81552976D02*
X135428572Y-80302976D01*
X135011905Y-81552976D01*
X134595238Y-81552976D02*
X134595238Y-80302976D01*
X133404762Y-81552976D02*
X134000000Y-81552976D01*
X134000000Y-80302976D01*
X131619047Y-80898214D02*
X132035714Y-80898214D01*
X132035714Y-81552976D02*
X132035714Y-80302976D01*
X131440476Y-80302976D01*
X130726190Y-80302976D02*
X130488094Y-80302976D01*
X130369047Y-80362500D01*
X130249999Y-80481548D01*
X130190475Y-80719643D01*
X130190475Y-81136310D01*
X130249999Y-81374405D01*
X130369047Y-81493452D01*
X130488094Y-81552976D01*
X130726190Y-81552976D01*
X130845237Y-81493452D01*
X130964285Y-81374405D01*
X131023809Y-81136310D01*
X131023809Y-80719643D01*
X130964285Y-80481548D01*
X130845237Y-80362500D01*
X130726190Y-80302976D01*
X128940475Y-81552976D02*
X129357142Y-80957738D01*
X129654761Y-81552976D02*
X129654761Y-80302976D01*
X129178570Y-80302976D01*
X129059523Y-80362500D01*
X128999999Y-80422024D01*
X128940475Y-80541071D01*
X128940475Y-80719643D01*
X128999999Y-80838690D01*
X129059523Y-80898214D01*
X129178570Y-80957738D01*
X129654761Y-80957738D01*
X127452380Y-81552976D02*
X127452380Y-80302976D01*
X127154761Y-80302976D01*
X126976189Y-80362500D01*
X126857142Y-80481548D01*
X126797618Y-80600595D01*
X126738094Y-80838690D01*
X126738094Y-81017262D01*
X126797618Y-81255357D01*
X126857142Y-81374405D01*
X126976189Y-81493452D01*
X127154761Y-81552976D01*
X127452380Y-81552976D01*
X125785713Y-80898214D02*
X125607142Y-80957738D01*
X125547618Y-81017262D01*
X125488094Y-81136310D01*
X125488094Y-81314881D01*
X125547618Y-81433929D01*
X125607142Y-81493452D01*
X125726189Y-81552976D01*
X126202380Y-81552976D01*
X126202380Y-80302976D01*
X125785713Y-80302976D01*
X125666666Y-80362500D01*
X125607142Y-80422024D01*
X125547618Y-80541071D01*
X125547618Y-80660119D01*
X125607142Y-80779167D01*
X125666666Y-80838690D01*
X125785713Y-80898214D01*
X126202380Y-80898214D01*
X147125000Y-75305952D02*
X146946428Y-75365476D01*
X146648809Y-75365476D01*
X146529762Y-75305952D01*
X146470238Y-75246429D01*
X146410714Y-75127381D01*
X146410714Y-75008333D01*
X146470238Y-74889286D01*
X146529762Y-74829762D01*
X146648809Y-74770238D01*
X146886905Y-74710714D01*
X147005952Y-74651190D01*
X147065476Y-74591667D01*
X147125000Y-74472619D01*
X147125000Y-74353571D01*
X147065476Y-74234524D01*
X147005952Y-74175000D01*
X146886905Y-74115476D01*
X146589285Y-74115476D01*
X146410714Y-74175000D01*
X145875000Y-75365476D02*
X145875000Y-74115476D01*
X144684524Y-75365476D02*
X145279762Y-75365476D01*
X145279762Y-74115476D01*
X144267857Y-75365476D02*
X144267857Y-74115476D01*
X143553571Y-75365476D02*
X144089286Y-74651190D01*
X143553571Y-74115476D02*
X144267857Y-74829762D01*
X142065476Y-75365476D02*
X142065476Y-74115476D01*
X141648809Y-75008333D01*
X141232143Y-74115476D01*
X141232143Y-75365476D01*
X140696429Y-75008333D02*
X140101191Y-75008333D01*
X140815476Y-75365476D02*
X140398810Y-74115476D01*
X139982143Y-75365476D01*
X138851190Y-75365476D02*
X139267857Y-74770238D01*
X139565476Y-75365476D02*
X139565476Y-74115476D01*
X139089285Y-74115476D01*
X138970238Y-74175000D01*
X138910714Y-74234524D01*
X138851190Y-74353571D01*
X138851190Y-74532143D01*
X138910714Y-74651190D01*
X138970238Y-74710714D01*
X139089285Y-74770238D01*
X139565476Y-74770238D01*
X138315476Y-75365476D02*
X138315476Y-74115476D01*
X137601190Y-75365476D02*
X138136905Y-74651190D01*
X137601190Y-74115476D02*
X138315476Y-74829762D01*
X137065476Y-74710714D02*
X136648809Y-74710714D01*
X136470238Y-75365476D02*
X137065476Y-75365476D01*
X137065476Y-74115476D01*
X136470238Y-74115476D01*
X135934524Y-75365476D02*
X135934524Y-74115476D01*
X135636905Y-74115476D01*
X135458333Y-74175000D01*
X135339286Y-74294048D01*
X135279762Y-74413095D01*
X135220238Y-74651190D01*
X135220238Y-74829762D01*
X135279762Y-75067857D01*
X135339286Y-75186905D01*
X135458333Y-75305952D01*
X135636905Y-75365476D01*
X135934524Y-75365476D01*
X133791667Y-75008333D02*
X133196429Y-75008333D01*
X133910714Y-75365476D02*
X133494048Y-74115476D01*
X133077381Y-75365476D01*
X131946428Y-75365476D02*
X132363095Y-74770238D01*
X132660714Y-75365476D02*
X132660714Y-74115476D01*
X132184523Y-74115476D01*
X132065476Y-74175000D01*
X132005952Y-74234524D01*
X131946428Y-74353571D01*
X131946428Y-74532143D01*
X132005952Y-74651190D01*
X132065476Y-74710714D01*
X132184523Y-74770238D01*
X132660714Y-74770238D01*
X131410714Y-75365476D02*
X131410714Y-74115476D01*
X131113095Y-74115476D01*
X130934523Y-74175000D01*
X130815476Y-74294048D01*
X130755952Y-74413095D01*
X130696428Y-74651190D01*
X130696428Y-74829762D01*
X130755952Y-75067857D01*
X130815476Y-75186905D01*
X130934523Y-75305952D01*
X131113095Y-75365476D01*
X131410714Y-75365476D01*
X130160714Y-74115476D02*
X130160714Y-75127381D01*
X130101190Y-75246429D01*
X130041666Y-75305952D01*
X129922619Y-75365476D01*
X129684523Y-75365476D01*
X129565476Y-75305952D01*
X129505952Y-75246429D01*
X129446428Y-75127381D01*
X129446428Y-74115476D01*
X128851190Y-75365476D02*
X128851190Y-74115476D01*
X128255952Y-75365476D02*
X128255952Y-74115476D01*
X127541666Y-75365476D01*
X127541666Y-74115476D01*
X126708333Y-74115476D02*
X126470237Y-74115476D01*
X126351190Y-74175000D01*
X126232142Y-74294048D01*
X126172618Y-74532143D01*
X126172618Y-74948810D01*
X126232142Y-75186905D01*
X126351190Y-75305952D01*
X126470237Y-75365476D01*
X126708333Y-75365476D01*
X126827380Y-75305952D01*
X126946428Y-75186905D01*
X127005952Y-74948810D01*
X127005952Y-74532143D01*
X126946428Y-74294048D01*
X126827380Y-74175000D01*
X126708333Y-74115476D01*
X124684523Y-75365476D02*
X124684523Y-74115476D01*
X124208332Y-74115476D01*
X124089285Y-74175000D01*
X124029761Y-74234524D01*
X123970237Y-74353571D01*
X123970237Y-74532143D01*
X124029761Y-74651190D01*
X124089285Y-74710714D01*
X124208332Y-74770238D01*
X124684523Y-74770238D01*
X123434523Y-75365476D02*
X123434523Y-74115476D01*
X122839285Y-75365476D02*
X122839285Y-74115476D01*
X122124999Y-75365476D01*
X122124999Y-74115476D01*
X121589285Y-75305952D02*
X121410713Y-75365476D01*
X121113094Y-75365476D01*
X120994047Y-75305952D01*
X120934523Y-75246429D01*
X120874999Y-75127381D01*
X120874999Y-75008333D01*
X120934523Y-74889286D01*
X120994047Y-74829762D01*
X121113094Y-74770238D01*
X121351190Y-74710714D01*
X121470237Y-74651190D01*
X121529761Y-74591667D01*
X121589285Y-74472619D01*
X121589285Y-74353571D01*
X121529761Y-74234524D01*
X121470237Y-74175000D01*
X121351190Y-74115476D01*
X121053570Y-74115476D01*
X120874999Y-74175000D01*
X93443452Y-71819048D02*
X93502976Y-71997620D01*
X93502976Y-72295239D01*
X93443452Y-72414286D01*
X93383929Y-72473810D01*
X93264881Y-72533334D01*
X93145833Y-72533334D01*
X93026786Y-72473810D01*
X92967262Y-72414286D01*
X92907738Y-72295239D01*
X92848214Y-72057143D01*
X92788690Y-71938096D01*
X92729167Y-71878572D01*
X92610119Y-71819048D01*
X92491071Y-71819048D01*
X92372024Y-71878572D01*
X92312500Y-71938096D01*
X92252976Y-72057143D01*
X92252976Y-72354763D01*
X92312500Y-72533334D01*
X93502976Y-73069048D02*
X92252976Y-73069048D01*
X92252976Y-73545239D01*
X92312500Y-73664286D01*
X92372024Y-73723810D01*
X92491071Y-73783334D01*
X92669643Y-73783334D01*
X92788690Y-73723810D01*
X92848214Y-73664286D01*
X92907738Y-73545239D01*
X92907738Y-73069048D01*
X92848214Y-74319048D02*
X92848214Y-74735715D01*
X93502976Y-74914286D02*
X93502976Y-74319048D01*
X92252976Y-74319048D01*
X92252976Y-74914286D01*
X92848214Y-75450000D02*
X92848214Y-75866667D01*
X93502976Y-76045238D02*
X93502976Y-75450000D01*
X92252976Y-75450000D01*
X92252976Y-76045238D01*
X93502976Y-76580952D02*
X92252976Y-76580952D01*
X92252976Y-76878571D01*
X92312500Y-77057143D01*
X92431548Y-77176190D01*
X92550595Y-77235714D01*
X92788690Y-77295238D01*
X92967262Y-77295238D01*
X93205357Y-77235714D01*
X93324405Y-77176190D01*
X93443452Y-77057143D01*
X93502976Y-76878571D01*
X93502976Y-76580952D01*
X92252976Y-77830952D02*
X93264881Y-77830952D01*
X93383929Y-77890476D01*
X93443452Y-77950000D01*
X93502976Y-78069047D01*
X93502976Y-78307143D01*
X93443452Y-78426190D01*
X93383929Y-78485714D01*
X93264881Y-78545238D01*
X92252976Y-78545238D01*
X93502976Y-79140476D02*
X92252976Y-79140476D01*
X93502976Y-79735714D02*
X92252976Y-79735714D01*
X93502976Y-80450000D01*
X92252976Y-80450000D01*
X92252976Y-81283333D02*
X92252976Y-81521429D01*
X92312500Y-81640476D01*
X92431548Y-81759524D01*
X92669643Y-81819048D01*
X93086310Y-81819048D01*
X93324405Y-81759524D01*
X93443452Y-81640476D01*
X93502976Y-81521429D01*
X93502976Y-81283333D01*
X93443452Y-81164286D01*
X93324405Y-81045238D01*
X93086310Y-80985714D01*
X92669643Y-80985714D01*
X92431548Y-81045238D01*
X92312500Y-81164286D01*
X92252976Y-81283333D01*
X93502976Y-83307143D02*
X92252976Y-83307143D01*
X93443452Y-83842857D02*
X93502976Y-84021429D01*
X93502976Y-84319048D01*
X93443452Y-84438095D01*
X93383929Y-84497619D01*
X93264881Y-84557143D01*
X93145833Y-84557143D01*
X93026786Y-84497619D01*
X92967262Y-84438095D01*
X92907738Y-84319048D01*
X92848214Y-84080952D01*
X92788690Y-83961905D01*
X92729167Y-83902381D01*
X92610119Y-83842857D01*
X92491071Y-83842857D01*
X92372024Y-83902381D01*
X92312500Y-83961905D01*
X92252976Y-84080952D01*
X92252976Y-84378572D01*
X92312500Y-84557143D01*
X93145833Y-85985714D02*
X93145833Y-86580952D01*
X93502976Y-85866667D02*
X92252976Y-86283333D01*
X93502976Y-86700000D01*
X94427976Y-72533334D02*
X95320833Y-72533334D01*
X95499405Y-72473810D01*
X95618452Y-72354762D01*
X95677976Y-72176191D01*
X95677976Y-72057143D01*
X94427976Y-73366667D02*
X94427976Y-73604763D01*
X94487500Y-73723810D01*
X94606548Y-73842858D01*
X94844643Y-73902382D01*
X95261310Y-73902382D01*
X95499405Y-73842858D01*
X95618452Y-73723810D01*
X95677976Y-73604763D01*
X95677976Y-73366667D01*
X95618452Y-73247620D01*
X95499405Y-73128572D01*
X95261310Y-73069048D01*
X94844643Y-73069048D01*
X94606548Y-73128572D01*
X94487500Y-73247620D01*
X94427976Y-73366667D01*
X95618452Y-74378572D02*
X95677976Y-74557144D01*
X95677976Y-74854763D01*
X95618452Y-74973810D01*
X95558929Y-75033334D01*
X95439881Y-75092858D01*
X95320833Y-75092858D01*
X95201786Y-75033334D01*
X95142262Y-74973810D01*
X95082738Y-74854763D01*
X95023214Y-74616667D01*
X94963690Y-74497620D01*
X94904167Y-74438096D01*
X94785119Y-74378572D01*
X94666071Y-74378572D01*
X94547024Y-74438096D01*
X94487500Y-74497620D01*
X94427976Y-74616667D01*
X94427976Y-74914287D01*
X94487500Y-75092858D01*
X95677976Y-75628572D02*
X94427976Y-75628572D01*
X95023214Y-75628572D02*
X95023214Y-76342858D01*
X95677976Y-76342858D02*
X94427976Y-76342858D01*
X95618452Y-77830953D02*
X95677976Y-78009525D01*
X95677976Y-78307144D01*
X95618452Y-78426191D01*
X95558929Y-78485715D01*
X95439881Y-78545239D01*
X95320833Y-78545239D01*
X95201786Y-78485715D01*
X95142262Y-78426191D01*
X95082738Y-78307144D01*
X95023214Y-78069048D01*
X94963690Y-77950001D01*
X94904167Y-77890477D01*
X94785119Y-77830953D01*
X94666071Y-77830953D01*
X94547024Y-77890477D01*
X94487500Y-77950001D01*
X94427976Y-78069048D01*
X94427976Y-78366668D01*
X94487500Y-78545239D01*
X94427976Y-78902382D02*
X94427976Y-79616667D01*
X95677976Y-79259524D02*
X94427976Y-79259524D01*
X95023214Y-80033334D02*
X95023214Y-80450001D01*
X95677976Y-80628572D02*
X95677976Y-80033334D01*
X94427976Y-80033334D01*
X94427976Y-80628572D01*
X94427976Y-81045238D02*
X95677976Y-81342857D01*
X94785119Y-81580953D01*
X95677976Y-81819048D01*
X94427976Y-82116667D01*
X95320833Y-82533333D02*
X95320833Y-83128571D01*
X95677976Y-82414286D02*
X94427976Y-82830952D01*
X95677976Y-83247619D01*
X95677976Y-84378572D02*
X95082738Y-83961905D01*
X95677976Y-83664286D02*
X94427976Y-83664286D01*
X94427976Y-84140477D01*
X94487500Y-84259524D01*
X94547024Y-84319048D01*
X94666071Y-84378572D01*
X94844643Y-84378572D01*
X94963690Y-84319048D01*
X95023214Y-84259524D01*
X95082738Y-84140477D01*
X95082738Y-83664286D01*
X94427976Y-84735715D02*
X94427976Y-85450000D01*
X95677976Y-85092857D02*
X94427976Y-85092857D01*
X97852976Y-75450000D02*
X96602976Y-75450000D01*
X96602976Y-75926191D01*
X96662500Y-76045238D01*
X96722024Y-76104762D01*
X96841071Y-76164286D01*
X97019643Y-76164286D01*
X97138690Y-76104762D01*
X97198214Y-76045238D01*
X97257738Y-75926191D01*
X97257738Y-75450000D01*
X97852976Y-77414286D02*
X97257738Y-76997619D01*
X97852976Y-76700000D02*
X96602976Y-76700000D01*
X96602976Y-77176191D01*
X96662500Y-77295238D01*
X96722024Y-77354762D01*
X96841071Y-77414286D01*
X97019643Y-77414286D01*
X97138690Y-77354762D01*
X97198214Y-77295238D01*
X97257738Y-77176191D01*
X97257738Y-76700000D01*
X96602976Y-78188095D02*
X96602976Y-78426191D01*
X96662500Y-78545238D01*
X96781548Y-78664286D01*
X97019643Y-78723810D01*
X97436310Y-78723810D01*
X97674405Y-78664286D01*
X97793452Y-78545238D01*
X97852976Y-78426191D01*
X97852976Y-78188095D01*
X97793452Y-78069048D01*
X97674405Y-77950000D01*
X97436310Y-77890476D01*
X97019643Y-77890476D01*
X96781548Y-77950000D01*
X96662500Y-78069048D01*
X96602976Y-78188095D01*
X96602976Y-79616667D02*
X97495833Y-79616667D01*
X97674405Y-79557143D01*
X97793452Y-79438095D01*
X97852976Y-79259524D01*
X97852976Y-79140476D01*
X97198214Y-80211905D02*
X97198214Y-80628572D01*
X97852976Y-80807143D02*
X97852976Y-80211905D01*
X96602976Y-80211905D01*
X96602976Y-80807143D01*
X97733929Y-82057143D02*
X97793452Y-81997619D01*
X97852976Y-81819048D01*
X97852976Y-81700000D01*
X97793452Y-81521428D01*
X97674405Y-81402381D01*
X97555357Y-81342857D01*
X97317262Y-81283333D01*
X97138690Y-81283333D01*
X96900595Y-81342857D01*
X96781548Y-81402381D01*
X96662500Y-81521428D01*
X96602976Y-81700000D01*
X96602976Y-81819048D01*
X96662500Y-81997619D01*
X96722024Y-82057143D01*
X96602976Y-82414286D02*
X96602976Y-83128571D01*
X97852976Y-82771428D02*
X96602976Y-82771428D01*
X99968452Y-71908334D02*
X100027976Y-72086906D01*
X100027976Y-72384525D01*
X99968452Y-72503572D01*
X99908929Y-72563096D01*
X99789881Y-72622620D01*
X99670833Y-72622620D01*
X99551786Y-72563096D01*
X99492262Y-72503572D01*
X99432738Y-72384525D01*
X99373214Y-72146429D01*
X99313690Y-72027382D01*
X99254167Y-71967858D01*
X99135119Y-71908334D01*
X99016071Y-71908334D01*
X98897024Y-71967858D01*
X98837500Y-72027382D01*
X98777976Y-72146429D01*
X98777976Y-72444049D01*
X98837500Y-72622620D01*
X100027976Y-73158334D02*
X98777976Y-73158334D01*
X98777976Y-73634525D01*
X98837500Y-73753572D01*
X98897024Y-73813096D01*
X99016071Y-73872620D01*
X99194643Y-73872620D01*
X99313690Y-73813096D01*
X99373214Y-73753572D01*
X99432738Y-73634525D01*
X99432738Y-73158334D01*
X99373214Y-74408334D02*
X99373214Y-74825001D01*
X100027976Y-75003572D02*
X100027976Y-74408334D01*
X98777976Y-74408334D01*
X98777976Y-75003572D01*
X99373214Y-75539286D02*
X99373214Y-75955953D01*
X100027976Y-76134524D02*
X100027976Y-75539286D01*
X98777976Y-75539286D01*
X98777976Y-76134524D01*
X100027976Y-76670238D02*
X98777976Y-76670238D01*
X98777976Y-76967857D01*
X98837500Y-77146429D01*
X98956548Y-77265476D01*
X99075595Y-77325000D01*
X99313690Y-77384524D01*
X99492262Y-77384524D01*
X99730357Y-77325000D01*
X99849405Y-77265476D01*
X99968452Y-77146429D01*
X100027976Y-76967857D01*
X100027976Y-76670238D01*
X98777976Y-77920238D02*
X99789881Y-77920238D01*
X99908929Y-77979762D01*
X99968452Y-78039286D01*
X100027976Y-78158333D01*
X100027976Y-78396429D01*
X99968452Y-78515476D01*
X99908929Y-78575000D01*
X99789881Y-78634524D01*
X98777976Y-78634524D01*
X100027976Y-79229762D02*
X98777976Y-79229762D01*
X100027976Y-79825000D02*
X98777976Y-79825000D01*
X100027976Y-80539286D01*
X98777976Y-80539286D01*
X98777976Y-81372619D02*
X98777976Y-81610715D01*
X98837500Y-81729762D01*
X98956548Y-81848810D01*
X99194643Y-81908334D01*
X99611310Y-81908334D01*
X99849405Y-81848810D01*
X99968452Y-81729762D01*
X100027976Y-81610715D01*
X100027976Y-81372619D01*
X99968452Y-81253572D01*
X99849405Y-81134524D01*
X99611310Y-81075000D01*
X99194643Y-81075000D01*
X98956548Y-81134524D01*
X98837500Y-81253572D01*
X98777976Y-81372619D01*
X99908929Y-82444048D02*
X99968452Y-82503572D01*
X100027976Y-82444048D01*
X99968452Y-82384524D01*
X99908929Y-82444048D01*
X100027976Y-82444048D01*
X99908929Y-83753572D02*
X99968452Y-83694048D01*
X100027976Y-83515477D01*
X100027976Y-83396429D01*
X99968452Y-83217857D01*
X99849405Y-83098810D01*
X99730357Y-83039286D01*
X99492262Y-82979762D01*
X99313690Y-82979762D01*
X99075595Y-83039286D01*
X98956548Y-83098810D01*
X98837500Y-83217857D01*
X98777976Y-83396429D01*
X98777976Y-83515477D01*
X98837500Y-83694048D01*
X98897024Y-83753572D01*
X98777976Y-84527381D02*
X98777976Y-84765477D01*
X98837500Y-84884524D01*
X98956548Y-85003572D01*
X99194643Y-85063096D01*
X99611310Y-85063096D01*
X99849405Y-85003572D01*
X99968452Y-84884524D01*
X100027976Y-84765477D01*
X100027976Y-84527381D01*
X99968452Y-84408334D01*
X99849405Y-84289286D01*
X99611310Y-84229762D01*
X99194643Y-84229762D01*
X98956548Y-84289286D01*
X98837500Y-84408334D01*
X98777976Y-84527381D01*
X100027976Y-85598810D02*
X98777976Y-85598810D01*
X99670833Y-86015477D01*
X98777976Y-86432143D01*
X100027976Y-86432143D01*
M02*
