M48
; DRILL file {KiCad (5.1.2)-1} date 7/24/2019 12:08:38 AM
; FORMAT={-:-/ absolute / inch / decimal}
; #@! TF.CreationDate,2019-07-24T00:08:38-04:00
; #@! TF.GenerationSoftware,Kicad,Pcbnew,(5.1.2)-1
FMAT,2
INCH
T1C0.0118
T2C0.0157
T3C0.0236
T4C0.0315
T5C0.0320
T6C0.0354
T7C0.0394
T8C0.0433
T9C0.0472
T10C0.1250
T11C0.0433
T12C0.1220
T13C0.1575
%
G90
G05
T1
X7.0157Y-3.7402
X5.5394Y-4.3819
X6.1457Y-4.2677
X6.1693Y-3.1575
X6.25Y-3.7675
X4.71Y-3.775
X7.1004Y-3.4843
X6.185Y-3.9055
X4.161Y-2.978
X5.775Y-3.185
X3.8661Y-3.4409
X6.2025Y-3.03
X7.0492Y-3.624
X5.8741Y-4.2519
X3.66Y-2.56
X6.4331Y-3.9409
X4.0433Y-4.5787
X5.05Y-3.7075
X5.5394Y-4.0725
X4.8925Y-3.3825
X4.2874Y-3.2087
X6.9173Y-4.1457
X6.8925Y-4.465
X4.885Y-2.845
X5.585Y-2.8465
X7.1925Y-4.125
X5.5475Y-3.39
X5.1181Y-4.1457
X5.1969Y-4.2559
X4.5118Y-3.8307
X6.2875Y-4.06
X5.4724Y-3.937
X6.85Y-3.0625
X4.748Y-3.9685
X6.9587Y-2.6909
X7.11Y-3.7441
X5.7087Y-3.937
X6.045Y-3.195
X5.5394Y-4.26
X4.94Y-3.5975
X7.305Y-3.6
X6.625Y-3.0325
X4.9173Y-4.2559
X7.47Y-4.42
X4.315Y-4.0472
X6.2375Y-2.565
X6.73Y-4.4975
X6.6375Y-3.2475
X7.1745Y-3.6308
X4.5236Y-3.0039
X3.9882Y-3.1063
X5.3Y-2.5525
X7.3Y-4.58
X5.545Y-3.165
X4.87Y-3.035
X4.3701Y-3.5827
X7.4764Y-2.7283
X4.0525Y-3.6825
X5.0375Y-3.3825
X5.3543Y-3.937
X6.98Y-4.0675
X5.4325Y-3.365
X6.835Y-3.81
X5.0Y-3.9488
X6.605Y-4.02
X5.878Y-4.0472
X7.0157Y-3.4173
X5.5906Y-3.937
X6.5475Y-3.6875
X7.2579Y-3.1673
X7.0276Y-3.8937
X5.43Y-3.575
X4.7095Y-3.6674
X6.965Y-3.2175
X4.3819Y-3.4882
X6.915Y-2.9125
X6.4Y-3.1125
X6.7809Y-3.6361
X6.685Y-4.2205
X3.68Y-3.26
X6.2025Y-2.7323
X6.53Y-4.3525
X6.3Y-3.4825
X5.2625Y-3.3175
X3.8386Y-4.0
X6.0276Y-4.0984
X3.661Y-2.907
X4.8031Y-4.5354
X5.435Y-3.1425
X7.0591Y-2.5551
X4.8189Y-4.0354
X7.36Y-2.57
X5.035Y-3.1425
X3.7753Y-3.8908
X6.6299Y-4.122
X6.83Y-4.17
X7.4Y-3.482
X5.2087Y-4.0315
X3.689Y-3.6969
X7.1043Y-2.9075
X5.8268Y-3.937
T2
X4.0866Y-3.4646
X4.374Y-3.0906
X4.6148Y-2.9476
X4.6339Y-3.8071
X4.661Y-3.9045
X5.815Y-2.9961
X5.9094Y-2.9843
X6.9213Y-4.0945
X7.1225Y-3.8525
X7.189Y-3.5236
T3
X6.36Y-3.755
X6.41Y-3.805
X6.46Y-3.755
T4
X6.7075Y-2.975
X6.7075Y-3.275
X6.8075Y-2.975
X6.8075Y-3.275
X6.9075Y-2.975
X6.9075Y-3.275
X7.0075Y-2.975
X7.0075Y-3.275
X4.7106Y-2.9853
X4.7775Y-2.69
X6.615Y-3.3825
X6.8119Y-3.3825
X6.91Y-3.7075
X7.21Y-3.7075
X6.4725Y-4.19
X6.4725Y-4.2884
X5.8Y-4.0625
X6.1Y-4.0625
X4.8701Y-4.3
X4.8701Y-4.3984
X4.9795Y-4.0625
X5.2795Y-4.0625
X4.7725Y-3.4641
X4.7725Y-3.5625
X3.68Y-3.805
X3.68Y-4.305
X3.78Y-3.805
X3.78Y-4.305
X3.88Y-3.805
X3.88Y-4.305
X3.98Y-3.805
X3.98Y-4.305
X4.08Y-3.805
X4.08Y-4.305
X4.18Y-3.805
X4.18Y-4.305
X4.28Y-3.805
X4.28Y-4.305
X4.38Y-3.805
X4.38Y-4.305
X4.9525Y-2.795
X5.0525Y-2.795
X5.1525Y-2.795
X5.2525Y-2.795
X5.3525Y-2.795
X5.4525Y-2.795
X5.5525Y-2.795
X5.6525Y-2.795
X4.705Y-3.2391
X4.705Y-3.3375
X7.2067Y-2.9975
X7.2067Y-3.0959
X4.64Y-3.4641
X4.64Y-3.5625
X6.08Y-4.3
X6.08Y-4.3984
X6.91Y-3.4525
X7.21Y-3.4525
X6.34Y-4.3
X6.34Y-4.3984
X5.8425Y-2.9275
X5.9425Y-2.9275
X6.0425Y-2.9275
X6.1425Y-2.9275
X6.2425Y-2.9275
X6.3425Y-2.9275
X6.4425Y-2.9275
X6.5425Y-2.9275
X5.13Y-4.3
X5.13Y-4.3984
X5.39Y-4.0975
X5.39Y-4.1975
X5.39Y-4.2975
X5.39Y-4.3975
X5.69Y-4.0975
X5.69Y-4.1975
X5.69Y-4.2975
X5.69Y-4.3975
X4.2475Y-3.8925
X4.2475Y-4.1925
X4.13Y-3.5669
X4.2284Y-3.5669
X6.7675Y-3.49
X6.7675Y-3.79
X4.76Y-4.19
X4.86Y-4.19
X4.96Y-4.19
X5.06Y-4.19
X5.16Y-4.19
X5.26Y-4.19
X6.91Y-3.58
X7.21Y-3.58
X6.7815Y-2.7953
X6.8815Y-2.7953
X6.9815Y-2.7953
X7.0815Y-2.7953
X5.0Y-4.3
X5.0Y-4.3984
X4.5967Y-4.0625
X4.8967Y-4.0625
X5.26Y-4.3
X5.26Y-4.3984
X6.88Y-3.98
X6.88Y-4.28
X6.98Y-3.98
X6.98Y-4.28
X7.08Y-3.98
X7.08Y-4.28
X7.18Y-3.98
X7.18Y-4.28
X4.13Y-3.695
X4.3269Y-3.695
X5.95Y-4.3
X5.95Y-4.3984
X5.8425Y-2.795
X5.9425Y-2.795
X6.0425Y-2.795
X6.1425Y-2.795
X6.2425Y-2.795
X6.3425Y-2.795
X6.4425Y-2.795
X6.5425Y-2.795
X6.6425Y-2.795
X6.21Y-4.3
X6.21Y-4.3984
X6.48Y-4.54
X6.58Y-4.54
X6.68Y-4.54
X6.78Y-4.54
X6.88Y-4.54
X6.98Y-4.54
X7.08Y-4.54
X7.18Y-4.54
X5.865Y-3.305
X5.865Y-3.405
X5.865Y-3.505
X5.865Y-3.605
X6.1825Y-4.0625
X6.4825Y-4.0625
X5.82Y-4.3
X5.82Y-4.3984
X4.5175Y-2.605
X4.5175Y-2.7034
X6.64Y-3.49
X6.64Y-3.79
X5.82Y-4.19
X5.92Y-4.19
X6.02Y-4.19
X6.12Y-4.19
X6.22Y-4.19
X6.32Y-4.19
X4.7402Y-4.3
X4.7402Y-4.3984
X7.2067Y-3.2244
X7.2067Y-3.3228
X6.91Y-3.835
X7.21Y-3.835
T5
X6.98Y-4.41
X7.08Y-4.41
X5.826Y-3.1028
X5.926Y-3.1028
X6.026Y-3.1028
X6.48Y-4.41
X6.58Y-4.41
X6.75Y-3.98
X6.75Y-4.08
X6.75Y-4.18
X3.7717Y-4.4134
X3.8717Y-4.4134
X4.6471Y-2.6234
X4.9071Y-4.5234
X5.0071Y-4.5234
X5.0471Y-2.6234
X5.1071Y-4.5234
X5.1471Y-2.6234
X5.2071Y-4.5234
X5.2471Y-2.6234
X5.3071Y-4.5234
X5.4071Y-2.6234
X5.5071Y-2.6234
X5.6071Y-2.6234
X5.6071Y-4.5234
X5.7071Y-2.6234
X5.7071Y-4.5234
X5.8071Y-2.6234
X5.8071Y-4.5234
X5.9071Y-2.6234
X5.9071Y-4.5234
X6.0071Y-2.6234
X6.0071Y-4.5234
X6.1071Y-2.6234
X6.1071Y-4.5234
X6.2071Y-4.5234
X6.3071Y-2.6234
X6.3071Y-4.5234
X6.4071Y-2.6234
X6.5071Y-2.6234
X6.6071Y-2.6234
X6.7071Y-2.6234
X6.8071Y-2.6234
X6.9071Y-2.6234
X7.0071Y-2.6234
X7.3071Y-2.6234
X7.3071Y-2.7234
X7.3071Y-2.8234
X7.3071Y-2.9234
X7.3071Y-3.0234
X7.3071Y-3.1234
X7.3071Y-3.2234
X7.3071Y-3.3234
X7.3071Y-3.4234
X7.3071Y-3.5234
X7.3071Y-4.3234
X7.4071Y-2.6234
X7.4071Y-2.7234
X7.4071Y-2.8234
X7.4071Y-2.9234
X7.4071Y-3.0234
X7.4071Y-3.1234
X7.4071Y-4.3234
X7.31Y-3.98
X7.31Y-4.08
X7.31Y-4.18
T6
X7.45Y-3.4234
X7.45Y-3.5234
X7.45Y-3.8234
X7.45Y-3.9234
X7.45Y-3.2234
X7.45Y-3.3234
X7.45Y-3.6234
X7.45Y-3.7234
T7
X5.2913Y-2.8976
X5.4213Y-2.8976
X5.4325Y-3.2575
X5.5325Y-3.2575
X5.6325Y-3.2575
X4.985Y-3.03
X5.085Y-3.03
X5.185Y-3.03
X5.4325Y-3.4875
X5.5325Y-3.4875
X5.6325Y-3.4875
X4.2306Y-2.865
X4.2306Y-2.965
X4.2306Y-3.065
X4.2306Y-3.165
X4.2306Y-3.265
X4.2306Y-3.365
X4.985Y-3.4875
X5.085Y-3.4875
X5.185Y-3.4875
X4.985Y-3.2575
X5.085Y-3.2575
X5.185Y-3.2575
X4.4825Y-3.305
X4.4825Y-3.405
X4.4825Y-3.505
X5.4325Y-3.03
X5.5325Y-3.03
X5.6325Y-3.03
T8
X4.4475Y-2.84
X4.4475Y-3.14
X3.9142Y-3.9961
X3.9142Y-4.1142
X4.0323Y-3.9961
X4.0323Y-4.1142
X6.0259Y-3.3212
X6.0259Y-3.6212
X4.8175Y-3.7894
X4.8175Y-3.9075
X4.9356Y-3.7894
X4.9356Y-3.9075
X5.0537Y-3.7894
X5.0537Y-3.9075
X5.1718Y-3.7894
X5.1718Y-3.9075
X5.2899Y-3.7894
X5.2899Y-3.9075
X5.4081Y-3.7894
X5.4081Y-3.9075
X5.5262Y-3.7894
X5.5262Y-3.9075
X5.6443Y-3.7894
X5.6443Y-3.9075
X5.7624Y-3.7894
X5.7624Y-3.9075
X5.8805Y-3.7894
X5.8805Y-3.9075
X5.9986Y-3.7894
X5.9986Y-3.9075
X6.1167Y-3.7894
X6.1167Y-3.9075
X4.5433Y-3.6528
X4.5433Y-3.9528
X6.16Y-3.3212
X6.16Y-3.6212
X4.5825Y-2.84
X4.5825Y-3.14
T9
X6.3125Y-3.1125
X6.3125Y-3.6125
X6.485Y-3.1125
X6.485Y-3.6125
T10
X4.1571Y-4.5234
X4.2071Y-2.6234
X7.1571Y-2.6234
X7.4071Y-4.5234
T11
X4.6994Y-3.9445
X6.2348Y-3.9445
T12
X3.7441Y-4.0551
T13
X3.7822Y-2.66
X3.7822Y-3.57
T0
M30
