M48
; DRILL file {KiCad (5.1.0)-1} date 5/5/2019 9:38:17 AM
; FORMAT={-:-/ absolute / inch / decimal}
; #@! TF.CreationDate,2019-05-05T09:38:17-04:00
; #@! TF.GenerationSoftware,Kicad,Pcbnew,(5.1.0)-1
FMAT,2
INCH
T1C0.0118
T2C0.0157
T3C0.0315
T4C0.0320
T5C0.0354
T6C0.0394
T7C0.0433
T8C0.0472
T9C0.1250
T10C0.0433
%
G90
G05
T1
X6.2126Y-2.622
X6.9173Y-3.4961
X5.8583Y-2.5512
X5.7953Y-3.185
X7.063Y-2.5512
X6.0315Y-2.9685
X7.1654Y-3.315
X6.7835Y-3.563
X5.7953Y-4.1339
X5.9528Y-2.8189
X6.3465Y-3.6417
X6.6772Y-2.7559
X7.0118Y-3.1339
X6.4016Y-3.4173
X6.1417Y-4.0315
X7.126Y-3.1339
X5.8543Y-3.1339
X7.1693Y-3.4843
X6.6299Y-3.4488
X7.3937Y-3.3543
X7.0354Y-3.4764
X7.2835Y-3.5433
X6.6457Y-3.2126
X6.8976Y-3.0709
X6.0315Y-2.7717
X6.0315Y-2.8976
X6.0315Y-3.2165
X6.8701Y-3.315
X6.2598Y-4.5984
X6.4961Y-2.9764
X7.3701Y-3.4803
X7.063Y-3.315
X5.8819Y-2.7402
X6.3858Y-3.1969
X6.0276Y-3.4567
X6.2835Y-2.7953
X7.2441Y-3.4016
X6.7008Y-2.9134
X6.4961Y-3.1496
X6.5236Y-3.4409
X6.6142Y-2.9764
X5.9252Y-3.0433
X6.8976Y-3.1339
X6.3858Y-2.9055
X6.4016Y-3.3543
X6.7835Y-2.815
X6.3858Y-3.0551
X6.6693Y-3.3386
X6.3937Y-4.1378
X6.6142Y-3.0787
X6.9803Y-3.315
X6.7717Y-3.0866
X6.1654Y-3.4567
T2
X6.4577Y-3.2441
X6.5039Y-3.2441
X6.98Y-2.793
X7.112Y-2.926
X7.113Y-2.769
X7.165Y-2.861
T3
X6.378Y-4.315
X6.378Y-4.4134
X6.1417Y-4.315
X6.1417Y-4.4134
X6.0748Y-3.2827
X6.0748Y-3.5827
X6.2795Y-3.2827
X6.2795Y-3.5827
X5.9252Y-3.185
X6.122Y-3.185
X5.8102Y-2.7642
X5.8102Y-2.8642
X5.8102Y-2.9642
X5.8102Y-3.0642
X6.1102Y-2.7642
X6.1102Y-2.8642
X6.1102Y-2.9642
X6.1102Y-3.0642
X5.865Y-3.305
X5.865Y-3.405
X5.865Y-3.505
X5.865Y-3.605
X6.1988Y-2.7598
X6.4988Y-2.7598
X6.6055Y-2.7579
X6.9055Y-2.7579
X7.4071Y-2.6234
X7.4071Y-2.7234
X7.4071Y-2.8234
X7.4071Y-2.9234
X7.4071Y-3.0234
X7.4071Y-3.1234
X6.1988Y-2.876
X6.4988Y-2.876
X6.6055Y-2.876
X6.9055Y-2.876
X6.2598Y-4.315
X6.2598Y-4.4134
X5.9724Y-3.2827
X5.9724Y-3.5827
X6.1102Y-4.2126
X6.4102Y-4.2126
X6.1772Y-3.2827
X6.1772Y-3.5827
X6.1102Y-4.0866
X6.3071Y-4.0866
T4
X5.8071Y-2.6234
X5.9071Y-2.6234
X6.0071Y-2.6234
X6.1071Y-2.6234
X6.2071Y-4.5234
X6.3071Y-2.6234
X6.3071Y-4.5234
X6.4071Y-2.6234
X6.9071Y-2.6234
X7.0071Y-2.6234
X7.3071Y-2.9234
X7.3071Y-3.0234
X7.3071Y-3.1234
X7.3071Y-3.2234
X7.3071Y-3.3234
X7.3071Y-3.4234
T5
X7.45Y-3.2234
X7.45Y-3.3234
X7.45Y-3.4234
X7.45Y-3.5234
T6
X6.5063Y-2.622
X6.6063Y-2.622
X6.7063Y-2.622
X6.8063Y-2.622
T7
X6.5039Y-3.3858
X6.5039Y-3.5039
X6.622Y-3.3858
X6.622Y-3.5039
X6.7402Y-3.3858
X6.7402Y-3.5039
X6.8583Y-3.3858
X6.8583Y-3.5039
X6.9764Y-3.3858
X6.9764Y-3.5039
X7.0945Y-3.3858
X7.0945Y-3.5039
T8
X6.252Y-3.0118
X6.752Y-3.0118
X6.252Y-3.1693
X6.752Y-3.1693
T9
X7.1571Y-2.6234
T10
X6.3858Y-3.5409
X7.2126Y-3.5433
T0
M30
