G04 #@! TF.GenerationSoftware,KiCad,Pcbnew,(5.1.0)-1*
G04 #@! TF.CreationDate,2019-05-05T09:38:05-04:00*
G04 #@! TF.ProjectId,NO2C,4e4f3243-2e6b-4696-9361-645f70636258,v0.1.1*
G04 #@! TF.SameCoordinates,Original*
G04 #@! TF.FileFunction,Copper,L1,Top*
G04 #@! TF.FilePolarity,Positive*
%FSLAX46Y46*%
G04 Gerber Fmt 4.6, Leading zero omitted, Abs format (unit mm)*
G04 Created by KiCad (PCBNEW (5.1.0)-1) date 2019-05-05 09:38:05*
%MOMM*%
%LPD*%
G04 APERTURE LIST*
%ADD10R,0.685800X1.346200*%
%ADD11C,1.600000*%
%ADD12O,1.600000X1.600000*%
%ADD13C,0.600000*%
%ADD14R,1.700000X1.700000*%
%ADD15O,1.700000X1.700000*%
%ADD16R,0.900000X0.800000*%
%ADD17R,1.600000X1.600000*%
%ADD18R,1.700000X0.900000*%
%ADD19R,1.800000X1.800000*%
%ADD20C,1.800000*%
%ADD21C,2.400000*%
%ADD22O,2.400000X2.400000*%
%ADD23R,0.600000X1.500000*%
%ADD24R,0.900000X1.700000*%
%ADD25R,1.000000X1.600000*%
%ADD26C,3.937000*%
%ADD27O,1.524000X2.540000*%
%ADD28C,1.524000*%
%ADD29R,0.800000X0.900000*%
%ADD30C,0.250000*%
%ADD31C,0.750000*%
%ADD32C,0.500000*%
%ADD33C,0.254000*%
G04 APERTURE END LIST*
D10*
X148295000Y-112914900D03*
X149565000Y-112914900D03*
X150835000Y-112914900D03*
X152105000Y-112914900D03*
X152105000Y-103085100D03*
X150835000Y-103085100D03*
X149565000Y-103085100D03*
X148295000Y-103085100D03*
D11*
X157450000Y-70100000D03*
D12*
X165070000Y-70100000D03*
D13*
X150500000Y-77300000D03*
X153200000Y-81700000D03*
D11*
X165200000Y-86000000D03*
X168200000Y-86000000D03*
X171200000Y-86000000D03*
X174200000Y-86000000D03*
X177200000Y-86000000D03*
X180200000Y-86000000D03*
X165200000Y-89000000D03*
X168200000Y-89000000D03*
X171200000Y-89000000D03*
X174200000Y-89000000D03*
X177200000Y-89000000D03*
X180200000Y-89000000D03*
X151700000Y-83380000D03*
D12*
X151700000Y-91000000D03*
D11*
X154300000Y-91000000D03*
D12*
X154300000Y-83380000D03*
D11*
X156900000Y-83380000D03*
D12*
X156900000Y-91000000D03*
D11*
X159500000Y-83380000D03*
D12*
X159500000Y-91000000D03*
D13*
X182000000Y-84200000D03*
X177300000Y-84200000D03*
X179400000Y-64800000D03*
X175200000Y-78000000D03*
D14*
X172880000Y-66600000D03*
D15*
X170340000Y-66600000D03*
X167800000Y-66600000D03*
X165260000Y-66600000D03*
D13*
X175200000Y-79600000D03*
D16*
X183000000Y-72700000D03*
X183000000Y-70800000D03*
X181000000Y-71750000D03*
D13*
X172300000Y-90500000D03*
D17*
X188141100Y-66633600D03*
D12*
X188141100Y-69173600D03*
X188141100Y-71713600D03*
X188141100Y-74253600D03*
X188141100Y-76793600D03*
X188141100Y-79333600D03*
D18*
X185300000Y-65300000D03*
X185300000Y-68200000D03*
D13*
X187200000Y-88400000D03*
X165700000Y-87400000D03*
X185000000Y-90000000D03*
D19*
X189230000Y-81873600D03*
D20*
X189230000Y-84413600D03*
D11*
X156000000Y-109600000D03*
X156000000Y-112100000D03*
D13*
X156000000Y-102400000D03*
D17*
X147580000Y-70210000D03*
D12*
X155200000Y-77830000D03*
X147580000Y-72750000D03*
X155200000Y-75290000D03*
X147580000Y-75290000D03*
X155200000Y-72750000D03*
X147580000Y-77830000D03*
X155200000Y-70210000D03*
D13*
X151200000Y-71600000D03*
X153200000Y-70400000D03*
X174500000Y-84200000D03*
X172300000Y-71500000D03*
X169600000Y-70000000D03*
X169400000Y-84800000D03*
X168400000Y-87600000D03*
X156600000Y-87800000D03*
X153100000Y-87800000D03*
X162400000Y-105100000D03*
X187800000Y-85200000D03*
X148800000Y-64800000D03*
X149400000Y-69600000D03*
X159600000Y-71000000D03*
X157800000Y-66600000D03*
X181000000Y-79600000D03*
X172000000Y-78400000D03*
X184000000Y-86400000D03*
X179400000Y-84200000D03*
X182100000Y-88500000D03*
X175700000Y-88800000D03*
X178700000Y-88300000D03*
X178100000Y-79600000D03*
X170200000Y-74000000D03*
X168800000Y-81600000D03*
X168000000Y-78200000D03*
X168000000Y-75600000D03*
X165000000Y-75600000D03*
X165000000Y-80000000D03*
X162200000Y-81200000D03*
X162200000Y-77600000D03*
X162200000Y-73800000D03*
X148700000Y-79600000D03*
X147200000Y-80900000D03*
X153200000Y-75400000D03*
X153200000Y-73600000D03*
X162600000Y-86800000D03*
X162600000Y-85200000D03*
X161200000Y-92500000D03*
X147200000Y-105000000D03*
D11*
X175400000Y-73050000D03*
D12*
X167780000Y-73050000D03*
D21*
X171500000Y-80500000D03*
D22*
X158800000Y-80500000D03*
D23*
X183270000Y-76100000D03*
X182000000Y-76100000D03*
X180730000Y-76100000D03*
X179460000Y-76100000D03*
X178190000Y-76100000D03*
X176920000Y-76100000D03*
X175650000Y-76100000D03*
X174380000Y-76100000D03*
X174380000Y-81500000D03*
X175650000Y-81500000D03*
X176920000Y-81500000D03*
X178190000Y-81500000D03*
X179460000Y-81500000D03*
X180730000Y-81500000D03*
X182000000Y-81500000D03*
X183270000Y-81500000D03*
D14*
X148971000Y-83947000D03*
D15*
X148971000Y-86487000D03*
X148971000Y-89027000D03*
X148971000Y-91567000D03*
D21*
X171500000Y-76500000D03*
D22*
X158800000Y-76500000D03*
D11*
X175400000Y-70050000D03*
D12*
X167780000Y-70050000D03*
D11*
X162000000Y-109600000D03*
X162000000Y-112100000D03*
X159000000Y-109600000D03*
X159000000Y-112100000D03*
D19*
X189230000Y-86953600D03*
D20*
X189230000Y-89493600D03*
D11*
X157450000Y-73050000D03*
D12*
X165070000Y-73050000D03*
D11*
X155200000Y-107000000D03*
D12*
X162820000Y-107000000D03*
D13*
X159000000Y-116800000D03*
D24*
X150250000Y-115600000D03*
X147350000Y-115600000D03*
D25*
X155300000Y-115600000D03*
X152300000Y-115600000D03*
D26*
X181791100Y-66633600D03*
D27*
X147501100Y-66633600D03*
X150041100Y-66633600D03*
X152581100Y-66633600D03*
X155121100Y-66633600D03*
X175441100Y-66633600D03*
X177981100Y-66633600D03*
X162741100Y-66633600D03*
X160201100Y-66633600D03*
X157661100Y-114893600D03*
X160201100Y-114893600D03*
D28*
X185601100Y-79333600D03*
X185601100Y-76793600D03*
X185601100Y-74253600D03*
X185601100Y-81873600D03*
X185601100Y-86953600D03*
X185601100Y-84413600D03*
D18*
X185300000Y-72200000D03*
X185300000Y-69300000D03*
D11*
X155500000Y-80900000D03*
X150500000Y-80900000D03*
X155200000Y-103800000D03*
X160200000Y-103800000D03*
D16*
X179300000Y-74300000D03*
X179300000Y-72400000D03*
X177300000Y-73350000D03*
X179300000Y-70900000D03*
X179300000Y-69000000D03*
X177300000Y-69950000D03*
D29*
X162750000Y-100100000D03*
X160850000Y-100100000D03*
X161800000Y-102100000D03*
D13*
X181991000Y-72669400D03*
X180670200Y-70332600D03*
X180644800Y-74320400D03*
X177292000Y-70942200D03*
X164025000Y-82399998D03*
X165200000Y-82400000D03*
D30*
X162750000Y-100100000D02*
X162725000Y-100100000D01*
D31*
X158325000Y-99475000D02*
X158325000Y-101875000D01*
X158325000Y-101875000D02*
X156400000Y-103800000D01*
X156400000Y-103800000D02*
X155200000Y-103800000D01*
X157900000Y-92400000D02*
X158325000Y-92825000D01*
X158325000Y-92825000D02*
X158325000Y-99825000D01*
X157900000Y-92400000D02*
X158100000Y-92400000D01*
X158100000Y-92400000D02*
X159500000Y-91000000D01*
X150500000Y-80900000D02*
X149700001Y-81699999D01*
X149700001Y-81699999D02*
X148572999Y-81699999D01*
X148572999Y-81699999D02*
X147200000Y-83072998D01*
X147200000Y-83072998D02*
X147200000Y-89796000D01*
X147200000Y-89796000D02*
X148971000Y-91567000D01*
X150500000Y-80900000D02*
X151299999Y-80100001D01*
X151299999Y-80100001D02*
X151299999Y-79190001D01*
X154400001Y-76089999D02*
X155200000Y-75290000D01*
X151299999Y-79190001D02*
X154400001Y-76089999D01*
X157000000Y-92400000D02*
X157900000Y-92400000D01*
X149804000Y-92400000D02*
X157000000Y-92400000D01*
X148971000Y-91567000D02*
X149804000Y-92400000D01*
X157000000Y-92400000D02*
X156900000Y-92300000D01*
X156900000Y-92300000D02*
X156900000Y-91000000D01*
D32*
X165260000Y-66600000D02*
X167360000Y-68700000D01*
X177700000Y-68700000D02*
X178000000Y-69000000D01*
X167360000Y-68700000D02*
X177700000Y-68700000D01*
X158600000Y-100100000D02*
X160850000Y-100100000D01*
X178000000Y-69000000D02*
X178275001Y-69275001D01*
X179004998Y-72400000D02*
X179300000Y-72400000D01*
X178275001Y-71670003D02*
X179004998Y-72400000D01*
X178275001Y-69275001D02*
X178275001Y-71670003D01*
X179300000Y-69000000D02*
X180500000Y-69000000D01*
X180500000Y-69000000D02*
X180800000Y-69300000D01*
X180800000Y-69300000D02*
X183000000Y-69300000D01*
X178000000Y-69000000D02*
X179300000Y-69000000D01*
X183000000Y-69300000D02*
X185300000Y-69300000D01*
X183000000Y-69300000D02*
X183000000Y-70800000D01*
X185300000Y-69300000D02*
X185300000Y-68200000D01*
D31*
X155200000Y-103800000D02*
X153800000Y-105200000D01*
X153800000Y-108800000D02*
X153000000Y-109600000D01*
X153800000Y-105200000D02*
X153800000Y-108800000D01*
X156000000Y-109600000D02*
X153000000Y-109600000D01*
X153000000Y-109600000D02*
X150965000Y-109600000D01*
X150965000Y-109600000D02*
X149565000Y-111000000D01*
D32*
X149565000Y-111000000D02*
X149565000Y-112914900D01*
D30*
X152105000Y-112914900D02*
X152119900Y-112900000D01*
X152119900Y-112900000D02*
X153900000Y-112900000D01*
X153900000Y-112900000D02*
X154400000Y-113400000D01*
X156675500Y-113400000D02*
X157661100Y-114385600D01*
X154400000Y-113400000D02*
X156675500Y-113400000D01*
X157661100Y-114385600D02*
X157661100Y-114893600D01*
X152300000Y-115600000D02*
X152300000Y-114200000D01*
X152300000Y-114200000D02*
X152105000Y-114005000D01*
X152105000Y-114005000D02*
X152105000Y-112914900D01*
X152100000Y-112919900D02*
X152105000Y-112914900D01*
X150250000Y-115600000D02*
X152300000Y-115600000D01*
X161500000Y-107100000D02*
X161500000Y-103100000D01*
X161500000Y-103100000D02*
X161800000Y-102800000D01*
X161800000Y-102800000D02*
X161800000Y-102100000D01*
X159000000Y-109600000D02*
X161500000Y-107100000D01*
X155200000Y-107000000D02*
X156400000Y-107000000D01*
X156400000Y-107000000D02*
X159000000Y-109600000D01*
X160201100Y-114893600D02*
X160201100Y-110801100D01*
X160201100Y-110801100D02*
X159000000Y-109600000D01*
X189230000Y-84413600D02*
X187050000Y-82233600D01*
X184564099Y-77264099D02*
X184400000Y-77100000D01*
X184400000Y-75152962D02*
X183022050Y-73775012D01*
X176375001Y-74025001D02*
X176199999Y-73849999D01*
X187050000Y-82233600D02*
X187050000Y-78650000D01*
X185103339Y-77830601D02*
X184564099Y-77291361D01*
X181459312Y-73775012D02*
X181284311Y-73600011D01*
X187050000Y-78650000D02*
X186230601Y-77830601D01*
X186230601Y-77830601D02*
X185103339Y-77830601D01*
X184564099Y-77291361D02*
X184564099Y-77264099D01*
X184400000Y-77100000D02*
X184400000Y-75152962D01*
X183022050Y-73775012D02*
X181459312Y-73775012D01*
X181284311Y-73600011D02*
X178565689Y-73600011D01*
X178565689Y-73600011D02*
X178140699Y-74025001D01*
X178140699Y-74025001D02*
X176375001Y-74025001D01*
X176199999Y-73849999D02*
X175400000Y-73050000D01*
X175400000Y-70050000D02*
X174250000Y-71200000D01*
X174250000Y-71200000D02*
X174250000Y-73491002D01*
X185003639Y-78296599D02*
X186098861Y-78296599D01*
X174250000Y-73491002D02*
X175808998Y-75050000D01*
X186098861Y-78296599D02*
X186649990Y-78847728D01*
X175808998Y-75050000D02*
X183731340Y-75050000D01*
X183731340Y-75050000D02*
X183999990Y-75318650D01*
X183999990Y-75318650D02*
X183999990Y-77292950D01*
X188330001Y-88593601D02*
X189230000Y-89493600D01*
X183999990Y-77292950D02*
X185003639Y-78296599D01*
X186649990Y-78847728D02*
X186649990Y-86913590D01*
X186649990Y-86913590D02*
X188330001Y-88593601D01*
X181000000Y-71750000D02*
X183395002Y-71750000D01*
X184174999Y-72827499D02*
X185601100Y-74253600D01*
X183395002Y-71750000D02*
X184174999Y-72529997D01*
X184174999Y-72529997D02*
X184174999Y-72827499D01*
X188200000Y-74260000D02*
X185607500Y-74260000D01*
X185607500Y-74260000D02*
X185601100Y-74253600D01*
X177292000Y-69958000D02*
X177300000Y-69950000D01*
X177292000Y-70942200D02*
X177292000Y-69958000D01*
X188200000Y-79340000D02*
X188200000Y-79200000D01*
X188200000Y-79200000D02*
X185793600Y-76793600D01*
X185793600Y-76793600D02*
X185601100Y-76793600D01*
X177300000Y-73350000D02*
X178250000Y-73350000D01*
X178250000Y-73350000D02*
X178450000Y-73150000D01*
X178450000Y-73150000D02*
X181400000Y-73150000D01*
X181400000Y-73150000D02*
X181625001Y-73375001D01*
X181625001Y-73375001D02*
X183187739Y-73375001D01*
X183187739Y-73375001D02*
X184839101Y-75026363D01*
X184839101Y-75026363D02*
X184839101Y-76031601D01*
X184839101Y-76031601D02*
X185601100Y-76793600D01*
X185601100Y-79333600D02*
X184333600Y-79333600D01*
X184333600Y-79333600D02*
X183270000Y-78270000D01*
X183270000Y-78270000D02*
X183270000Y-76100000D01*
X184839101Y-80407701D02*
X180730000Y-76298600D01*
X184839101Y-81111601D02*
X184839101Y-80407701D01*
X180730000Y-76298600D02*
X180730000Y-76100000D01*
X185601100Y-81873600D02*
X184839101Y-81111601D01*
X178190000Y-76100000D02*
X178190000Y-76550000D01*
X184400011Y-83212511D02*
X184839101Y-83651601D01*
X184839101Y-83651601D02*
X185601100Y-84413600D01*
X181365689Y-77499989D02*
X184400011Y-80534311D01*
X179139989Y-77499989D02*
X181365689Y-77499989D01*
X178190000Y-76550000D02*
X179139989Y-77499989D01*
X184400011Y-80534311D02*
X184400011Y-83212511D01*
X177000000Y-77900000D02*
X181200000Y-77900000D01*
X175650000Y-76550000D02*
X177000000Y-77900000D01*
X184000000Y-85352500D02*
X185601100Y-86953600D01*
X181200000Y-77900000D02*
X184000000Y-80700000D01*
X175650000Y-76100000D02*
X175650000Y-76550000D01*
X184000000Y-80700000D02*
X184000000Y-85352500D01*
D31*
X148971000Y-83947000D02*
X150424000Y-85400000D01*
X150424000Y-85400000D02*
X160600000Y-85400000D01*
X160600000Y-85400000D02*
X162529180Y-83470820D01*
X162529180Y-83470820D02*
X171929180Y-83470820D01*
X171929180Y-83470820D02*
X173900000Y-81500000D01*
X173900000Y-81500000D02*
X174380000Y-81500000D01*
X155200000Y-77830000D02*
X156130000Y-77830000D01*
X156130000Y-77830000D02*
X158800000Y-80500000D01*
D30*
X147580000Y-72750000D02*
X151330000Y-69000000D01*
X151330000Y-69000000D02*
X156350000Y-69000000D01*
X156350000Y-69000000D02*
X157450000Y-70100000D01*
D31*
X155200000Y-72750000D02*
X155200000Y-72900000D01*
X155200000Y-72900000D02*
X158800000Y-76500000D01*
D30*
X147580000Y-77830000D02*
X153785000Y-71625000D01*
X153785000Y-71625000D02*
X156025000Y-71625000D01*
X156025000Y-71625000D02*
X157450000Y-73050000D01*
X164324999Y-82099999D02*
X164025000Y-82399998D01*
X166200000Y-80224998D02*
X164324999Y-82099999D01*
X165200000Y-68200000D02*
X166200000Y-69200000D01*
X160201100Y-66633600D02*
X161767500Y-68200000D01*
X161767500Y-68200000D02*
X165200000Y-68200000D01*
X166200000Y-69200000D02*
X166200000Y-80224998D01*
X162741100Y-66633600D02*
X163633600Y-66633600D01*
X165499999Y-82100001D02*
X165200000Y-82400000D01*
X163633600Y-66633600D02*
X164025000Y-67025000D01*
X165350001Y-67725001D02*
X166645001Y-69020001D01*
X164025000Y-67025000D02*
X164025000Y-67030002D01*
X164025000Y-67030002D02*
X164719999Y-67725001D01*
X164719999Y-67725001D02*
X165350001Y-67725001D01*
X166645001Y-69020001D02*
X166645001Y-80954999D01*
X166645001Y-80954999D02*
X165499999Y-82100001D01*
X170340000Y-66600000D02*
X168828590Y-65088590D01*
X168828590Y-65088590D02*
X156711410Y-65088590D01*
X156711410Y-65088590D02*
X155166400Y-66633600D01*
X155166400Y-66633600D02*
X155121100Y-66633600D01*
X162000000Y-109600000D02*
X162820000Y-108780000D01*
X162820000Y-108780000D02*
X162820000Y-107000000D01*
D31*
X175650000Y-81500000D02*
X175650000Y-87450000D01*
X175650000Y-87450000D02*
X177200000Y-89000000D01*
X178190000Y-81500000D02*
X178190000Y-85010000D01*
X178190000Y-85010000D02*
X177200000Y-86000000D01*
X180730000Y-81500000D02*
X180730000Y-85470000D01*
X180730000Y-85470000D02*
X180200000Y-86000000D01*
X183270000Y-81500000D02*
X183270000Y-85930000D01*
X183270000Y-85930000D02*
X180200000Y-89000000D01*
D30*
X167780000Y-70050000D02*
X172975001Y-75245001D01*
X172975001Y-75245001D02*
X172975001Y-79024999D01*
X172975001Y-79024999D02*
X171500000Y-80500000D01*
X188200000Y-66640000D02*
X188240000Y-66640000D01*
X189524977Y-90875023D02*
X174284021Y-90875023D01*
X188240000Y-66640000D02*
X190406020Y-68806020D01*
X174284021Y-90875023D02*
X172800000Y-89391002D01*
X172800000Y-87600000D02*
X171200000Y-86000000D01*
X190406020Y-68806020D02*
X190406020Y-89993980D01*
X190406020Y-89993980D02*
X189524977Y-90875023D01*
X172800000Y-89391002D02*
X172800000Y-87600000D01*
X185300000Y-65300000D02*
X185300000Y-66000000D01*
X186600000Y-69348998D02*
X188141100Y-70890098D01*
X185300000Y-66000000D02*
X186600000Y-67300000D01*
X186600000Y-67300000D02*
X186600000Y-69348998D01*
X188141100Y-70890098D02*
X188141100Y-71713600D01*
X167780000Y-73050000D02*
X171230000Y-76500000D01*
X171230000Y-76500000D02*
X171500000Y-76500000D01*
X187200000Y-73000000D02*
X188478502Y-73000000D01*
X188478502Y-73000000D02*
X189216101Y-73737599D01*
X189216101Y-73737599D02*
X189216101Y-75718599D01*
X189216101Y-75718599D02*
X188141100Y-76793600D01*
X185300000Y-72200000D02*
X186400000Y-72200000D01*
X186400000Y-72200000D02*
X187200000Y-73000000D01*
X150041100Y-66633600D02*
X151607478Y-68199978D01*
X151607478Y-68199978D02*
X160799978Y-68199978D01*
X160799978Y-68199978D02*
X162700000Y-70100000D01*
X162700000Y-70100000D02*
X163938630Y-70100000D01*
X163938630Y-70100000D02*
X165070000Y-70100000D01*
X147501100Y-66633600D02*
X147501100Y-66701100D01*
X147501100Y-66701100D02*
X149399989Y-68599989D01*
X149399989Y-68599989D02*
X160619989Y-68599989D01*
X160619989Y-68599989D02*
X164270001Y-72250001D01*
X164270001Y-72250001D02*
X165070000Y-73050000D01*
D33*
G36*
X147648705Y-102108605D02*
G01*
X147595345Y-102173624D01*
X147555695Y-102247804D01*
X147531278Y-102328293D01*
X147523034Y-102412000D01*
X147523034Y-103758200D01*
X147531278Y-103841907D01*
X147555695Y-103922396D01*
X147595345Y-103996576D01*
X147648705Y-104061595D01*
X147713724Y-104114955D01*
X147787904Y-104154605D01*
X147868393Y-104179022D01*
X147952100Y-104187266D01*
X148637900Y-104187266D01*
X148721607Y-104179022D01*
X148802096Y-104154605D01*
X148876276Y-104114955D01*
X148930000Y-104070865D01*
X148983724Y-104114955D01*
X149057904Y-104154605D01*
X149138393Y-104179022D01*
X149222100Y-104187266D01*
X149907900Y-104187266D01*
X149991607Y-104179022D01*
X150072096Y-104154605D01*
X150146276Y-104114955D01*
X150200000Y-104070865D01*
X150253724Y-104114955D01*
X150327904Y-104154605D01*
X150408393Y-104179022D01*
X150492100Y-104187266D01*
X151177900Y-104187266D01*
X151261607Y-104179022D01*
X151342096Y-104154605D01*
X151416276Y-104114955D01*
X151470000Y-104070865D01*
X151523724Y-104114955D01*
X151597904Y-104154605D01*
X151678393Y-104179022D01*
X151762100Y-104187266D01*
X152447900Y-104187266D01*
X152531607Y-104179022D01*
X152612096Y-104154605D01*
X152686276Y-104114955D01*
X152751295Y-104061595D01*
X152804655Y-103996576D01*
X152844305Y-103922396D01*
X152868722Y-103841907D01*
X152876966Y-103758200D01*
X152876966Y-102412000D01*
X152868722Y-102328293D01*
X152844305Y-102247804D01*
X152804655Y-102173624D01*
X152751295Y-102108605D01*
X152743247Y-102102000D01*
X156963801Y-102102000D01*
X156100521Y-102965281D01*
X155982167Y-102846927D01*
X155781202Y-102712647D01*
X155557903Y-102620153D01*
X155320849Y-102573000D01*
X155079151Y-102573000D01*
X154842097Y-102620153D01*
X154618798Y-102712647D01*
X154417833Y-102846927D01*
X154246927Y-103017833D01*
X154112647Y-103218798D01*
X154020153Y-103442097D01*
X153973000Y-103679151D01*
X153973000Y-103892801D01*
X153260762Y-104605040D01*
X153230157Y-104630157D01*
X153129935Y-104752278D01*
X153108328Y-104792702D01*
X153055464Y-104891604D01*
X153011459Y-105036671D01*
X153009605Y-105042782D01*
X152998000Y-105160607D01*
X152998000Y-105160614D01*
X152994121Y-105200000D01*
X152998000Y-105239386D01*
X152998001Y-108467800D01*
X152667802Y-108798000D01*
X151004386Y-108798000D01*
X150965000Y-108794121D01*
X150925614Y-108798000D01*
X150925606Y-108798000D01*
X150821215Y-108808282D01*
X150807780Y-108809605D01*
X150709579Y-108839394D01*
X150656603Y-108855464D01*
X150517277Y-108929935D01*
X150395157Y-109030157D01*
X150370044Y-109060757D01*
X148970045Y-110460757D01*
X148894936Y-110552277D01*
X148820464Y-110691604D01*
X148774605Y-110842781D01*
X148759121Y-111000000D01*
X148774605Y-111157219D01*
X148820464Y-111308396D01*
X148888000Y-111434747D01*
X148888000Y-111894667D01*
X148876276Y-111885045D01*
X148802096Y-111845395D01*
X148721607Y-111820978D01*
X148637900Y-111812734D01*
X147952100Y-111812734D01*
X147868393Y-111820978D01*
X147787904Y-111845395D01*
X147713724Y-111885045D01*
X147648705Y-111938405D01*
X147595345Y-112003424D01*
X147555695Y-112077604D01*
X147531278Y-112158093D01*
X147523034Y-112241800D01*
X147523034Y-113588000D01*
X147531278Y-113671707D01*
X147555695Y-113752196D01*
X147595345Y-113826376D01*
X147648705Y-113891395D01*
X147713724Y-113944755D01*
X147787904Y-113984405D01*
X147868393Y-114008822D01*
X147952100Y-114017066D01*
X148637900Y-114017066D01*
X148721607Y-114008822D01*
X148802096Y-113984405D01*
X148876276Y-113944755D01*
X148930000Y-113900665D01*
X148983724Y-113944755D01*
X149057904Y-113984405D01*
X149138393Y-114008822D01*
X149222100Y-114017066D01*
X149907900Y-114017066D01*
X149991607Y-114008822D01*
X150011135Y-114002898D01*
X150040915Y-114039185D01*
X150137606Y-114118537D01*
X150247920Y-114177502D01*
X150367618Y-114213812D01*
X150492100Y-114226072D01*
X150549250Y-114223000D01*
X150708000Y-114064250D01*
X150708000Y-113041900D01*
X150688000Y-113041900D01*
X150688000Y-112787900D01*
X150708000Y-112787900D01*
X150708000Y-111765550D01*
X150549250Y-111606800D01*
X150492100Y-111603728D01*
X150367618Y-111615988D01*
X150247920Y-111652298D01*
X150242000Y-111655462D01*
X150242000Y-111457198D01*
X151297199Y-110402000D01*
X152960614Y-110402000D01*
X153000000Y-110405879D01*
X153039386Y-110402000D01*
X155066760Y-110402000D01*
X155217833Y-110553073D01*
X155418798Y-110687353D01*
X155543819Y-110739139D01*
X155383708Y-110796397D01*
X155258486Y-110863329D01*
X155186903Y-111107298D01*
X156000000Y-111920395D01*
X156813097Y-111107298D01*
X156741514Y-110863329D01*
X156486004Y-110742429D01*
X156462476Y-110736531D01*
X156581202Y-110687353D01*
X156782167Y-110553073D01*
X156953073Y-110382167D01*
X157087353Y-110181202D01*
X157179847Y-109957903D01*
X157227000Y-109720849D01*
X157227000Y-109479151D01*
X157179847Y-109242097D01*
X157087353Y-109018798D01*
X156953073Y-108817833D01*
X156782167Y-108646927D01*
X156581202Y-108512647D01*
X156357903Y-108420153D01*
X156120849Y-108373000D01*
X155879151Y-108373000D01*
X155642097Y-108420153D01*
X155418798Y-108512647D01*
X155217833Y-108646927D01*
X155066760Y-108798000D01*
X154605682Y-108798000D01*
X154602000Y-108760614D01*
X154602000Y-108076129D01*
X154618798Y-108087353D01*
X154842097Y-108179847D01*
X155079151Y-108227000D01*
X155320849Y-108227000D01*
X155557903Y-108179847D01*
X155781202Y-108087353D01*
X155982167Y-107953073D01*
X156153073Y-107782167D01*
X156252588Y-107633232D01*
X157832249Y-109212895D01*
X157820153Y-109242097D01*
X157773000Y-109479151D01*
X157773000Y-109720849D01*
X157820153Y-109957903D01*
X157912647Y-110181202D01*
X158046927Y-110382167D01*
X158217833Y-110553073D01*
X158418798Y-110687353D01*
X158543819Y-110739139D01*
X158383708Y-110796397D01*
X158258486Y-110863329D01*
X158186903Y-111107298D01*
X159000000Y-111920395D01*
X159014143Y-111906253D01*
X159193748Y-112085858D01*
X159179605Y-112100000D01*
X159193748Y-112114143D01*
X159014143Y-112293748D01*
X159000000Y-112279605D01*
X158186903Y-113092702D01*
X158258486Y-113336671D01*
X158513996Y-113457571D01*
X158788184Y-113526300D01*
X159070512Y-113540217D01*
X159350130Y-113498787D01*
X159451723Y-113462456D01*
X159356282Y-113540782D01*
X159207699Y-113721832D01*
X159097292Y-113928389D01*
X159029304Y-114152516D01*
X159012100Y-114327190D01*
X159012100Y-115460011D01*
X159029304Y-115634685D01*
X159097292Y-115858812D01*
X159207700Y-116065369D01*
X159356283Y-116246418D01*
X159537332Y-116395001D01*
X159743889Y-116505408D01*
X159968016Y-116573396D01*
X160201100Y-116596353D01*
X160434185Y-116573396D01*
X160658312Y-116505408D01*
X160864869Y-116395001D01*
X161045918Y-116246418D01*
X161194501Y-116065369D01*
X161304908Y-115858812D01*
X161372896Y-115634685D01*
X161390100Y-115460011D01*
X161390100Y-114327189D01*
X161372896Y-114152515D01*
X161304908Y-113928388D01*
X161194501Y-113721831D01*
X161045918Y-113540782D01*
X160864868Y-113392199D01*
X160753100Y-113332458D01*
X160753100Y-113092702D01*
X161186903Y-113092702D01*
X161258486Y-113336671D01*
X161513996Y-113457571D01*
X161788184Y-113526300D01*
X162070512Y-113540217D01*
X162350130Y-113498787D01*
X162616292Y-113403603D01*
X162741514Y-113336671D01*
X162813097Y-113092702D01*
X162000000Y-112279605D01*
X161186903Y-113092702D01*
X160753100Y-113092702D01*
X160753100Y-112822377D01*
X160763329Y-112841514D01*
X161007298Y-112913097D01*
X161820395Y-112100000D01*
X162179605Y-112100000D01*
X162992702Y-112913097D01*
X163236671Y-112841514D01*
X163357571Y-112586004D01*
X163426300Y-112311816D01*
X163440217Y-112029488D01*
X163398787Y-111749870D01*
X163303603Y-111483708D01*
X163236671Y-111358486D01*
X162992702Y-111286903D01*
X162179605Y-112100000D01*
X161820395Y-112100000D01*
X161007298Y-111286903D01*
X160763329Y-111358486D01*
X160753100Y-111380104D01*
X160753100Y-110828206D01*
X160755770Y-110801100D01*
X160749991Y-110742429D01*
X160745112Y-110692889D01*
X160713548Y-110588837D01*
X160662291Y-110492942D01*
X160593311Y-110408889D01*
X160572249Y-110391604D01*
X160167751Y-109987106D01*
X160179847Y-109957903D01*
X160227000Y-109720849D01*
X160227000Y-109479151D01*
X160179847Y-109242097D01*
X160167751Y-109212894D01*
X161760301Y-107620344D01*
X161794851Y-107684983D01*
X161948183Y-107871817D01*
X162135017Y-108025149D01*
X162268000Y-108096230D01*
X162268000Y-108402270D01*
X162120849Y-108373000D01*
X161879151Y-108373000D01*
X161642097Y-108420153D01*
X161418798Y-108512647D01*
X161217833Y-108646927D01*
X161046927Y-108817833D01*
X160912647Y-109018798D01*
X160820153Y-109242097D01*
X160773000Y-109479151D01*
X160773000Y-109720849D01*
X160820153Y-109957903D01*
X160912647Y-110181202D01*
X161046927Y-110382167D01*
X161217833Y-110553073D01*
X161418798Y-110687353D01*
X161543819Y-110739139D01*
X161383708Y-110796397D01*
X161258486Y-110863329D01*
X161186903Y-111107298D01*
X162000000Y-111920395D01*
X162813097Y-111107298D01*
X162741514Y-110863329D01*
X162486004Y-110742429D01*
X162462476Y-110736531D01*
X162581202Y-110687353D01*
X162782167Y-110553073D01*
X162953073Y-110382167D01*
X163087353Y-110181202D01*
X163179847Y-109957903D01*
X163227000Y-109720849D01*
X163227000Y-109479151D01*
X163179847Y-109242097D01*
X163167751Y-109212895D01*
X163191154Y-109189492D01*
X163212211Y-109172211D01*
X163281191Y-109088158D01*
X163332448Y-108992263D01*
X163364012Y-108888211D01*
X163372000Y-108807109D01*
X163372000Y-108807107D01*
X163374670Y-108780001D01*
X163372000Y-108752895D01*
X163372000Y-108096229D01*
X163498000Y-108028881D01*
X163498000Y-117100000D01*
X146755200Y-117100000D01*
X146755200Y-117069649D01*
X146775518Y-117075812D01*
X146900000Y-117088072D01*
X147064250Y-117085000D01*
X147223000Y-116926250D01*
X147223000Y-115727000D01*
X147477000Y-115727000D01*
X147477000Y-116926250D01*
X147635750Y-117085000D01*
X147800000Y-117088072D01*
X147924482Y-117075812D01*
X148044180Y-117039502D01*
X148154494Y-116980537D01*
X148251185Y-116901185D01*
X148330537Y-116804494D01*
X148389502Y-116694180D01*
X148425812Y-116574482D01*
X148438072Y-116450000D01*
X148435000Y-115885750D01*
X148276250Y-115727000D01*
X147477000Y-115727000D01*
X147223000Y-115727000D01*
X147203000Y-115727000D01*
X147203000Y-115473000D01*
X147223000Y-115473000D01*
X147223000Y-114273750D01*
X147477000Y-114273750D01*
X147477000Y-115473000D01*
X148276250Y-115473000D01*
X148435000Y-115314250D01*
X148438072Y-114750000D01*
X149370934Y-114750000D01*
X149370934Y-116450000D01*
X149379178Y-116533707D01*
X149403595Y-116614196D01*
X149443245Y-116688376D01*
X149496605Y-116753395D01*
X149561624Y-116806755D01*
X149635804Y-116846405D01*
X149716293Y-116870822D01*
X149800000Y-116879066D01*
X150700000Y-116879066D01*
X150783707Y-116870822D01*
X150864196Y-116846405D01*
X150938376Y-116806755D01*
X151003395Y-116753395D01*
X151056755Y-116688376D01*
X151096405Y-116614196D01*
X151120822Y-116533707D01*
X151129066Y-116450000D01*
X151129066Y-116152000D01*
X151370934Y-116152000D01*
X151370934Y-116400000D01*
X151379178Y-116483707D01*
X151403595Y-116564196D01*
X151443245Y-116638376D01*
X151496605Y-116703395D01*
X151561624Y-116756755D01*
X151635804Y-116796405D01*
X151716293Y-116820822D01*
X151800000Y-116829066D01*
X152800000Y-116829066D01*
X152883707Y-116820822D01*
X152964196Y-116796405D01*
X153038376Y-116756755D01*
X153103395Y-116703395D01*
X153156755Y-116638376D01*
X153196405Y-116564196D01*
X153220822Y-116483707D01*
X153229066Y-116400000D01*
X154161928Y-116400000D01*
X154174188Y-116524482D01*
X154210498Y-116644180D01*
X154269463Y-116754494D01*
X154348815Y-116851185D01*
X154445506Y-116930537D01*
X154555820Y-116989502D01*
X154675518Y-117025812D01*
X154800000Y-117038072D01*
X155014250Y-117035000D01*
X155173000Y-116876250D01*
X155173000Y-115727000D01*
X155427000Y-115727000D01*
X155427000Y-116876250D01*
X155585750Y-117035000D01*
X155800000Y-117038072D01*
X155924482Y-117025812D01*
X156044180Y-116989502D01*
X156154494Y-116930537D01*
X156251185Y-116851185D01*
X156330537Y-116754494D01*
X156389502Y-116644180D01*
X156425812Y-116524482D01*
X156438072Y-116400000D01*
X156435000Y-115885750D01*
X156276250Y-115727000D01*
X155427000Y-115727000D01*
X155173000Y-115727000D01*
X154323750Y-115727000D01*
X154165000Y-115885750D01*
X154161928Y-116400000D01*
X153229066Y-116400000D01*
X153229066Y-114800000D01*
X154161928Y-114800000D01*
X154165000Y-115314250D01*
X154323750Y-115473000D01*
X155173000Y-115473000D01*
X155173000Y-114323750D01*
X155427000Y-114323750D01*
X155427000Y-115473000D01*
X156276250Y-115473000D01*
X156435000Y-115314250D01*
X156438072Y-114800000D01*
X156425812Y-114675518D01*
X156389502Y-114555820D01*
X156330537Y-114445506D01*
X156251185Y-114348815D01*
X156154494Y-114269463D01*
X156044180Y-114210498D01*
X155924482Y-114174188D01*
X155800000Y-114161928D01*
X155585750Y-114165000D01*
X155427000Y-114323750D01*
X155173000Y-114323750D01*
X155014250Y-114165000D01*
X154800000Y-114161928D01*
X154675518Y-114174188D01*
X154555820Y-114210498D01*
X154445506Y-114269463D01*
X154348815Y-114348815D01*
X154269463Y-114445506D01*
X154210498Y-114555820D01*
X154174188Y-114675518D01*
X154161928Y-114800000D01*
X153229066Y-114800000D01*
X153220822Y-114716293D01*
X153196405Y-114635804D01*
X153156755Y-114561624D01*
X153103395Y-114496605D01*
X153038376Y-114443245D01*
X152964196Y-114403595D01*
X152883707Y-114379178D01*
X152852000Y-114376055D01*
X152852000Y-114227108D01*
X152854670Y-114200000D01*
X152844012Y-114091789D01*
X152818844Y-114008822D01*
X152812448Y-113987737D01*
X152761191Y-113891842D01*
X152756060Y-113885589D01*
X152804655Y-113826376D01*
X152844305Y-113752196D01*
X152868722Y-113671707D01*
X152876966Y-113588000D01*
X152876966Y-113452000D01*
X153671355Y-113452000D01*
X153990507Y-113771153D01*
X154007789Y-113792211D01*
X154028845Y-113809491D01*
X154028846Y-113809492D01*
X154091842Y-113861191D01*
X154187737Y-113912448D01*
X154291789Y-113944012D01*
X154400000Y-113954670D01*
X154427108Y-113952000D01*
X156446856Y-113952000D01*
X156526093Y-114031238D01*
X156489304Y-114152516D01*
X156472100Y-114327190D01*
X156472100Y-115460011D01*
X156489304Y-115634685D01*
X156557292Y-115858812D01*
X156667700Y-116065369D01*
X156816283Y-116246418D01*
X156997332Y-116395001D01*
X157203889Y-116505408D01*
X157428016Y-116573396D01*
X157661100Y-116596353D01*
X157894185Y-116573396D01*
X158118312Y-116505408D01*
X158324869Y-116395001D01*
X158505918Y-116246418D01*
X158654501Y-116065369D01*
X158764908Y-115858812D01*
X158832896Y-115634685D01*
X158850100Y-115460011D01*
X158850100Y-114327189D01*
X158832896Y-114152515D01*
X158764908Y-113928388D01*
X158654501Y-113721831D01*
X158505918Y-113540782D01*
X158324868Y-113392199D01*
X158118311Y-113281792D01*
X157894184Y-113213804D01*
X157661100Y-113190847D01*
X157428015Y-113213804D01*
X157306737Y-113250593D01*
X157097246Y-113041102D01*
X157108977Y-113029370D01*
X156992704Y-112913097D01*
X157236671Y-112841514D01*
X157357571Y-112586004D01*
X157426300Y-112311816D01*
X157433265Y-112170512D01*
X157559783Y-112170512D01*
X157601213Y-112450130D01*
X157696397Y-112716292D01*
X157763329Y-112841514D01*
X158007298Y-112913097D01*
X158820395Y-112100000D01*
X158007298Y-111286903D01*
X157763329Y-111358486D01*
X157642429Y-111613996D01*
X157573700Y-111888184D01*
X157559783Y-112170512D01*
X157433265Y-112170512D01*
X157440217Y-112029488D01*
X157398787Y-111749870D01*
X157303603Y-111483708D01*
X157236671Y-111358486D01*
X156992702Y-111286903D01*
X156179605Y-112100000D01*
X156193748Y-112114143D01*
X156014143Y-112293748D01*
X156000000Y-112279605D01*
X155985858Y-112293748D01*
X155806253Y-112114143D01*
X155820395Y-112100000D01*
X155007298Y-111286903D01*
X154763329Y-111358486D01*
X154642429Y-111613996D01*
X154573700Y-111888184D01*
X154559783Y-112170512D01*
X154601213Y-112450130D01*
X154696397Y-112716292D01*
X154763329Y-112841514D01*
X154785435Y-112848000D01*
X154628645Y-112848000D01*
X154309500Y-112528856D01*
X154292211Y-112507789D01*
X154208158Y-112438809D01*
X154112263Y-112387552D01*
X154008211Y-112355988D01*
X153927109Y-112348000D01*
X153927106Y-112348000D01*
X153900000Y-112345330D01*
X153872894Y-112348000D01*
X152876966Y-112348000D01*
X152876966Y-112241800D01*
X152868722Y-112158093D01*
X152844305Y-112077604D01*
X152804655Y-112003424D01*
X152751295Y-111938405D01*
X152686276Y-111885045D01*
X152612096Y-111845395D01*
X152531607Y-111820978D01*
X152447900Y-111812734D01*
X151762100Y-111812734D01*
X151678393Y-111820978D01*
X151658865Y-111826902D01*
X151629085Y-111790615D01*
X151532394Y-111711263D01*
X151422080Y-111652298D01*
X151302382Y-111615988D01*
X151177900Y-111603728D01*
X151120750Y-111606800D01*
X150962000Y-111765550D01*
X150962000Y-112787900D01*
X150982000Y-112787900D01*
X150982000Y-113041900D01*
X150962000Y-113041900D01*
X150962000Y-114064250D01*
X151120750Y-114223000D01*
X151177900Y-114226072D01*
X151302382Y-114213812D01*
X151422080Y-114177502D01*
X151532394Y-114118537D01*
X151559335Y-114096427D01*
X151560988Y-114113210D01*
X151592552Y-114217262D01*
X151643809Y-114313158D01*
X151701638Y-114383624D01*
X151635804Y-114403595D01*
X151561624Y-114443245D01*
X151496605Y-114496605D01*
X151443245Y-114561624D01*
X151403595Y-114635804D01*
X151379178Y-114716293D01*
X151370934Y-114800000D01*
X151370934Y-115048000D01*
X151129066Y-115048000D01*
X151129066Y-114750000D01*
X151120822Y-114666293D01*
X151096405Y-114585804D01*
X151056755Y-114511624D01*
X151003395Y-114446605D01*
X150938376Y-114393245D01*
X150864196Y-114353595D01*
X150783707Y-114329178D01*
X150700000Y-114320934D01*
X149800000Y-114320934D01*
X149716293Y-114329178D01*
X149635804Y-114353595D01*
X149561624Y-114393245D01*
X149496605Y-114446605D01*
X149443245Y-114511624D01*
X149403595Y-114585804D01*
X149379178Y-114666293D01*
X149370934Y-114750000D01*
X148438072Y-114750000D01*
X148425812Y-114625518D01*
X148389502Y-114505820D01*
X148330537Y-114395506D01*
X148251185Y-114298815D01*
X148154494Y-114219463D01*
X148044180Y-114160498D01*
X147924482Y-114124188D01*
X147800000Y-114111928D01*
X147635750Y-114115000D01*
X147477000Y-114273750D01*
X147223000Y-114273750D01*
X147064250Y-114115000D01*
X146900000Y-114111928D01*
X146775518Y-114124188D01*
X146755200Y-114130351D01*
X146755200Y-102102000D01*
X147656753Y-102102000D01*
X147648705Y-102108605D01*
X147648705Y-102108605D01*
G37*
X147648705Y-102108605D02*
X147595345Y-102173624D01*
X147555695Y-102247804D01*
X147531278Y-102328293D01*
X147523034Y-102412000D01*
X147523034Y-103758200D01*
X147531278Y-103841907D01*
X147555695Y-103922396D01*
X147595345Y-103996576D01*
X147648705Y-104061595D01*
X147713724Y-104114955D01*
X147787904Y-104154605D01*
X147868393Y-104179022D01*
X147952100Y-104187266D01*
X148637900Y-104187266D01*
X148721607Y-104179022D01*
X148802096Y-104154605D01*
X148876276Y-104114955D01*
X148930000Y-104070865D01*
X148983724Y-104114955D01*
X149057904Y-104154605D01*
X149138393Y-104179022D01*
X149222100Y-104187266D01*
X149907900Y-104187266D01*
X149991607Y-104179022D01*
X150072096Y-104154605D01*
X150146276Y-104114955D01*
X150200000Y-104070865D01*
X150253724Y-104114955D01*
X150327904Y-104154605D01*
X150408393Y-104179022D01*
X150492100Y-104187266D01*
X151177900Y-104187266D01*
X151261607Y-104179022D01*
X151342096Y-104154605D01*
X151416276Y-104114955D01*
X151470000Y-104070865D01*
X151523724Y-104114955D01*
X151597904Y-104154605D01*
X151678393Y-104179022D01*
X151762100Y-104187266D01*
X152447900Y-104187266D01*
X152531607Y-104179022D01*
X152612096Y-104154605D01*
X152686276Y-104114955D01*
X152751295Y-104061595D01*
X152804655Y-103996576D01*
X152844305Y-103922396D01*
X152868722Y-103841907D01*
X152876966Y-103758200D01*
X152876966Y-102412000D01*
X152868722Y-102328293D01*
X152844305Y-102247804D01*
X152804655Y-102173624D01*
X152751295Y-102108605D01*
X152743247Y-102102000D01*
X156963801Y-102102000D01*
X156100521Y-102965281D01*
X155982167Y-102846927D01*
X155781202Y-102712647D01*
X155557903Y-102620153D01*
X155320849Y-102573000D01*
X155079151Y-102573000D01*
X154842097Y-102620153D01*
X154618798Y-102712647D01*
X154417833Y-102846927D01*
X154246927Y-103017833D01*
X154112647Y-103218798D01*
X154020153Y-103442097D01*
X153973000Y-103679151D01*
X153973000Y-103892801D01*
X153260762Y-104605040D01*
X153230157Y-104630157D01*
X153129935Y-104752278D01*
X153108328Y-104792702D01*
X153055464Y-104891604D01*
X153011459Y-105036671D01*
X153009605Y-105042782D01*
X152998000Y-105160607D01*
X152998000Y-105160614D01*
X152994121Y-105200000D01*
X152998000Y-105239386D01*
X152998001Y-108467800D01*
X152667802Y-108798000D01*
X151004386Y-108798000D01*
X150965000Y-108794121D01*
X150925614Y-108798000D01*
X150925606Y-108798000D01*
X150821215Y-108808282D01*
X150807780Y-108809605D01*
X150709579Y-108839394D01*
X150656603Y-108855464D01*
X150517277Y-108929935D01*
X150395157Y-109030157D01*
X150370044Y-109060757D01*
X148970045Y-110460757D01*
X148894936Y-110552277D01*
X148820464Y-110691604D01*
X148774605Y-110842781D01*
X148759121Y-111000000D01*
X148774605Y-111157219D01*
X148820464Y-111308396D01*
X148888000Y-111434747D01*
X148888000Y-111894667D01*
X148876276Y-111885045D01*
X148802096Y-111845395D01*
X148721607Y-111820978D01*
X148637900Y-111812734D01*
X147952100Y-111812734D01*
X147868393Y-111820978D01*
X147787904Y-111845395D01*
X147713724Y-111885045D01*
X147648705Y-111938405D01*
X147595345Y-112003424D01*
X147555695Y-112077604D01*
X147531278Y-112158093D01*
X147523034Y-112241800D01*
X147523034Y-113588000D01*
X147531278Y-113671707D01*
X147555695Y-113752196D01*
X147595345Y-113826376D01*
X147648705Y-113891395D01*
X147713724Y-113944755D01*
X147787904Y-113984405D01*
X147868393Y-114008822D01*
X147952100Y-114017066D01*
X148637900Y-114017066D01*
X148721607Y-114008822D01*
X148802096Y-113984405D01*
X148876276Y-113944755D01*
X148930000Y-113900665D01*
X148983724Y-113944755D01*
X149057904Y-113984405D01*
X149138393Y-114008822D01*
X149222100Y-114017066D01*
X149907900Y-114017066D01*
X149991607Y-114008822D01*
X150011135Y-114002898D01*
X150040915Y-114039185D01*
X150137606Y-114118537D01*
X150247920Y-114177502D01*
X150367618Y-114213812D01*
X150492100Y-114226072D01*
X150549250Y-114223000D01*
X150708000Y-114064250D01*
X150708000Y-113041900D01*
X150688000Y-113041900D01*
X150688000Y-112787900D01*
X150708000Y-112787900D01*
X150708000Y-111765550D01*
X150549250Y-111606800D01*
X150492100Y-111603728D01*
X150367618Y-111615988D01*
X150247920Y-111652298D01*
X150242000Y-111655462D01*
X150242000Y-111457198D01*
X151297199Y-110402000D01*
X152960614Y-110402000D01*
X153000000Y-110405879D01*
X153039386Y-110402000D01*
X155066760Y-110402000D01*
X155217833Y-110553073D01*
X155418798Y-110687353D01*
X155543819Y-110739139D01*
X155383708Y-110796397D01*
X155258486Y-110863329D01*
X155186903Y-111107298D01*
X156000000Y-111920395D01*
X156813097Y-111107298D01*
X156741514Y-110863329D01*
X156486004Y-110742429D01*
X156462476Y-110736531D01*
X156581202Y-110687353D01*
X156782167Y-110553073D01*
X156953073Y-110382167D01*
X157087353Y-110181202D01*
X157179847Y-109957903D01*
X157227000Y-109720849D01*
X157227000Y-109479151D01*
X157179847Y-109242097D01*
X157087353Y-109018798D01*
X156953073Y-108817833D01*
X156782167Y-108646927D01*
X156581202Y-108512647D01*
X156357903Y-108420153D01*
X156120849Y-108373000D01*
X155879151Y-108373000D01*
X155642097Y-108420153D01*
X155418798Y-108512647D01*
X155217833Y-108646927D01*
X155066760Y-108798000D01*
X154605682Y-108798000D01*
X154602000Y-108760614D01*
X154602000Y-108076129D01*
X154618798Y-108087353D01*
X154842097Y-108179847D01*
X155079151Y-108227000D01*
X155320849Y-108227000D01*
X155557903Y-108179847D01*
X155781202Y-108087353D01*
X155982167Y-107953073D01*
X156153073Y-107782167D01*
X156252588Y-107633232D01*
X157832249Y-109212895D01*
X157820153Y-109242097D01*
X157773000Y-109479151D01*
X157773000Y-109720849D01*
X157820153Y-109957903D01*
X157912647Y-110181202D01*
X158046927Y-110382167D01*
X158217833Y-110553073D01*
X158418798Y-110687353D01*
X158543819Y-110739139D01*
X158383708Y-110796397D01*
X158258486Y-110863329D01*
X158186903Y-111107298D01*
X159000000Y-111920395D01*
X159014143Y-111906253D01*
X159193748Y-112085858D01*
X159179605Y-112100000D01*
X159193748Y-112114143D01*
X159014143Y-112293748D01*
X159000000Y-112279605D01*
X158186903Y-113092702D01*
X158258486Y-113336671D01*
X158513996Y-113457571D01*
X158788184Y-113526300D01*
X159070512Y-113540217D01*
X159350130Y-113498787D01*
X159451723Y-113462456D01*
X159356282Y-113540782D01*
X159207699Y-113721832D01*
X159097292Y-113928389D01*
X159029304Y-114152516D01*
X159012100Y-114327190D01*
X159012100Y-115460011D01*
X159029304Y-115634685D01*
X159097292Y-115858812D01*
X159207700Y-116065369D01*
X159356283Y-116246418D01*
X159537332Y-116395001D01*
X159743889Y-116505408D01*
X159968016Y-116573396D01*
X160201100Y-116596353D01*
X160434185Y-116573396D01*
X160658312Y-116505408D01*
X160864869Y-116395001D01*
X161045918Y-116246418D01*
X161194501Y-116065369D01*
X161304908Y-115858812D01*
X161372896Y-115634685D01*
X161390100Y-115460011D01*
X161390100Y-114327189D01*
X161372896Y-114152515D01*
X161304908Y-113928388D01*
X161194501Y-113721831D01*
X161045918Y-113540782D01*
X160864868Y-113392199D01*
X160753100Y-113332458D01*
X160753100Y-113092702D01*
X161186903Y-113092702D01*
X161258486Y-113336671D01*
X161513996Y-113457571D01*
X161788184Y-113526300D01*
X162070512Y-113540217D01*
X162350130Y-113498787D01*
X162616292Y-113403603D01*
X162741514Y-113336671D01*
X162813097Y-113092702D01*
X162000000Y-112279605D01*
X161186903Y-113092702D01*
X160753100Y-113092702D01*
X160753100Y-112822377D01*
X160763329Y-112841514D01*
X161007298Y-112913097D01*
X161820395Y-112100000D01*
X162179605Y-112100000D01*
X162992702Y-112913097D01*
X163236671Y-112841514D01*
X163357571Y-112586004D01*
X163426300Y-112311816D01*
X163440217Y-112029488D01*
X163398787Y-111749870D01*
X163303603Y-111483708D01*
X163236671Y-111358486D01*
X162992702Y-111286903D01*
X162179605Y-112100000D01*
X161820395Y-112100000D01*
X161007298Y-111286903D01*
X160763329Y-111358486D01*
X160753100Y-111380104D01*
X160753100Y-110828206D01*
X160755770Y-110801100D01*
X160749991Y-110742429D01*
X160745112Y-110692889D01*
X160713548Y-110588837D01*
X160662291Y-110492942D01*
X160593311Y-110408889D01*
X160572249Y-110391604D01*
X160167751Y-109987106D01*
X160179847Y-109957903D01*
X160227000Y-109720849D01*
X160227000Y-109479151D01*
X160179847Y-109242097D01*
X160167751Y-109212894D01*
X161760301Y-107620344D01*
X161794851Y-107684983D01*
X161948183Y-107871817D01*
X162135017Y-108025149D01*
X162268000Y-108096230D01*
X162268000Y-108402270D01*
X162120849Y-108373000D01*
X161879151Y-108373000D01*
X161642097Y-108420153D01*
X161418798Y-108512647D01*
X161217833Y-108646927D01*
X161046927Y-108817833D01*
X160912647Y-109018798D01*
X160820153Y-109242097D01*
X160773000Y-109479151D01*
X160773000Y-109720849D01*
X160820153Y-109957903D01*
X160912647Y-110181202D01*
X161046927Y-110382167D01*
X161217833Y-110553073D01*
X161418798Y-110687353D01*
X161543819Y-110739139D01*
X161383708Y-110796397D01*
X161258486Y-110863329D01*
X161186903Y-111107298D01*
X162000000Y-111920395D01*
X162813097Y-111107298D01*
X162741514Y-110863329D01*
X162486004Y-110742429D01*
X162462476Y-110736531D01*
X162581202Y-110687353D01*
X162782167Y-110553073D01*
X162953073Y-110382167D01*
X163087353Y-110181202D01*
X163179847Y-109957903D01*
X163227000Y-109720849D01*
X163227000Y-109479151D01*
X163179847Y-109242097D01*
X163167751Y-109212895D01*
X163191154Y-109189492D01*
X163212211Y-109172211D01*
X163281191Y-109088158D01*
X163332448Y-108992263D01*
X163364012Y-108888211D01*
X163372000Y-108807109D01*
X163372000Y-108807107D01*
X163374670Y-108780001D01*
X163372000Y-108752895D01*
X163372000Y-108096229D01*
X163498000Y-108028881D01*
X163498000Y-117100000D01*
X146755200Y-117100000D01*
X146755200Y-117069649D01*
X146775518Y-117075812D01*
X146900000Y-117088072D01*
X147064250Y-117085000D01*
X147223000Y-116926250D01*
X147223000Y-115727000D01*
X147477000Y-115727000D01*
X147477000Y-116926250D01*
X147635750Y-117085000D01*
X147800000Y-117088072D01*
X147924482Y-117075812D01*
X148044180Y-117039502D01*
X148154494Y-116980537D01*
X148251185Y-116901185D01*
X148330537Y-116804494D01*
X148389502Y-116694180D01*
X148425812Y-116574482D01*
X148438072Y-116450000D01*
X148435000Y-115885750D01*
X148276250Y-115727000D01*
X147477000Y-115727000D01*
X147223000Y-115727000D01*
X147203000Y-115727000D01*
X147203000Y-115473000D01*
X147223000Y-115473000D01*
X147223000Y-114273750D01*
X147477000Y-114273750D01*
X147477000Y-115473000D01*
X148276250Y-115473000D01*
X148435000Y-115314250D01*
X148438072Y-114750000D01*
X149370934Y-114750000D01*
X149370934Y-116450000D01*
X149379178Y-116533707D01*
X149403595Y-116614196D01*
X149443245Y-116688376D01*
X149496605Y-116753395D01*
X149561624Y-116806755D01*
X149635804Y-116846405D01*
X149716293Y-116870822D01*
X149800000Y-116879066D01*
X150700000Y-116879066D01*
X150783707Y-116870822D01*
X150864196Y-116846405D01*
X150938376Y-116806755D01*
X151003395Y-116753395D01*
X151056755Y-116688376D01*
X151096405Y-116614196D01*
X151120822Y-116533707D01*
X151129066Y-116450000D01*
X151129066Y-116152000D01*
X151370934Y-116152000D01*
X151370934Y-116400000D01*
X151379178Y-116483707D01*
X151403595Y-116564196D01*
X151443245Y-116638376D01*
X151496605Y-116703395D01*
X151561624Y-116756755D01*
X151635804Y-116796405D01*
X151716293Y-116820822D01*
X151800000Y-116829066D01*
X152800000Y-116829066D01*
X152883707Y-116820822D01*
X152964196Y-116796405D01*
X153038376Y-116756755D01*
X153103395Y-116703395D01*
X153156755Y-116638376D01*
X153196405Y-116564196D01*
X153220822Y-116483707D01*
X153229066Y-116400000D01*
X154161928Y-116400000D01*
X154174188Y-116524482D01*
X154210498Y-116644180D01*
X154269463Y-116754494D01*
X154348815Y-116851185D01*
X154445506Y-116930537D01*
X154555820Y-116989502D01*
X154675518Y-117025812D01*
X154800000Y-117038072D01*
X155014250Y-117035000D01*
X155173000Y-116876250D01*
X155173000Y-115727000D01*
X155427000Y-115727000D01*
X155427000Y-116876250D01*
X155585750Y-117035000D01*
X155800000Y-117038072D01*
X155924482Y-117025812D01*
X156044180Y-116989502D01*
X156154494Y-116930537D01*
X156251185Y-116851185D01*
X156330537Y-116754494D01*
X156389502Y-116644180D01*
X156425812Y-116524482D01*
X156438072Y-116400000D01*
X156435000Y-115885750D01*
X156276250Y-115727000D01*
X155427000Y-115727000D01*
X155173000Y-115727000D01*
X154323750Y-115727000D01*
X154165000Y-115885750D01*
X154161928Y-116400000D01*
X153229066Y-116400000D01*
X153229066Y-114800000D01*
X154161928Y-114800000D01*
X154165000Y-115314250D01*
X154323750Y-115473000D01*
X155173000Y-115473000D01*
X155173000Y-114323750D01*
X155427000Y-114323750D01*
X155427000Y-115473000D01*
X156276250Y-115473000D01*
X156435000Y-115314250D01*
X156438072Y-114800000D01*
X156425812Y-114675518D01*
X156389502Y-114555820D01*
X156330537Y-114445506D01*
X156251185Y-114348815D01*
X156154494Y-114269463D01*
X156044180Y-114210498D01*
X155924482Y-114174188D01*
X155800000Y-114161928D01*
X155585750Y-114165000D01*
X155427000Y-114323750D01*
X155173000Y-114323750D01*
X155014250Y-114165000D01*
X154800000Y-114161928D01*
X154675518Y-114174188D01*
X154555820Y-114210498D01*
X154445506Y-114269463D01*
X154348815Y-114348815D01*
X154269463Y-114445506D01*
X154210498Y-114555820D01*
X154174188Y-114675518D01*
X154161928Y-114800000D01*
X153229066Y-114800000D01*
X153220822Y-114716293D01*
X153196405Y-114635804D01*
X153156755Y-114561624D01*
X153103395Y-114496605D01*
X153038376Y-114443245D01*
X152964196Y-114403595D01*
X152883707Y-114379178D01*
X152852000Y-114376055D01*
X152852000Y-114227108D01*
X152854670Y-114200000D01*
X152844012Y-114091789D01*
X152818844Y-114008822D01*
X152812448Y-113987737D01*
X152761191Y-113891842D01*
X152756060Y-113885589D01*
X152804655Y-113826376D01*
X152844305Y-113752196D01*
X152868722Y-113671707D01*
X152876966Y-113588000D01*
X152876966Y-113452000D01*
X153671355Y-113452000D01*
X153990507Y-113771153D01*
X154007789Y-113792211D01*
X154028845Y-113809491D01*
X154028846Y-113809492D01*
X154091842Y-113861191D01*
X154187737Y-113912448D01*
X154291789Y-113944012D01*
X154400000Y-113954670D01*
X154427108Y-113952000D01*
X156446856Y-113952000D01*
X156526093Y-114031238D01*
X156489304Y-114152516D01*
X156472100Y-114327190D01*
X156472100Y-115460011D01*
X156489304Y-115634685D01*
X156557292Y-115858812D01*
X156667700Y-116065369D01*
X156816283Y-116246418D01*
X156997332Y-116395001D01*
X157203889Y-116505408D01*
X157428016Y-116573396D01*
X157661100Y-116596353D01*
X157894185Y-116573396D01*
X158118312Y-116505408D01*
X158324869Y-116395001D01*
X158505918Y-116246418D01*
X158654501Y-116065369D01*
X158764908Y-115858812D01*
X158832896Y-115634685D01*
X158850100Y-115460011D01*
X158850100Y-114327189D01*
X158832896Y-114152515D01*
X158764908Y-113928388D01*
X158654501Y-113721831D01*
X158505918Y-113540782D01*
X158324868Y-113392199D01*
X158118311Y-113281792D01*
X157894184Y-113213804D01*
X157661100Y-113190847D01*
X157428015Y-113213804D01*
X157306737Y-113250593D01*
X157097246Y-113041102D01*
X157108977Y-113029370D01*
X156992704Y-112913097D01*
X157236671Y-112841514D01*
X157357571Y-112586004D01*
X157426300Y-112311816D01*
X157433265Y-112170512D01*
X157559783Y-112170512D01*
X157601213Y-112450130D01*
X157696397Y-112716292D01*
X157763329Y-112841514D01*
X158007298Y-112913097D01*
X158820395Y-112100000D01*
X158007298Y-111286903D01*
X157763329Y-111358486D01*
X157642429Y-111613996D01*
X157573700Y-111888184D01*
X157559783Y-112170512D01*
X157433265Y-112170512D01*
X157440217Y-112029488D01*
X157398787Y-111749870D01*
X157303603Y-111483708D01*
X157236671Y-111358486D01*
X156992702Y-111286903D01*
X156179605Y-112100000D01*
X156193748Y-112114143D01*
X156014143Y-112293748D01*
X156000000Y-112279605D01*
X155985858Y-112293748D01*
X155806253Y-112114143D01*
X155820395Y-112100000D01*
X155007298Y-111286903D01*
X154763329Y-111358486D01*
X154642429Y-111613996D01*
X154573700Y-111888184D01*
X154559783Y-112170512D01*
X154601213Y-112450130D01*
X154696397Y-112716292D01*
X154763329Y-112841514D01*
X154785435Y-112848000D01*
X154628645Y-112848000D01*
X154309500Y-112528856D01*
X154292211Y-112507789D01*
X154208158Y-112438809D01*
X154112263Y-112387552D01*
X154008211Y-112355988D01*
X153927109Y-112348000D01*
X153927106Y-112348000D01*
X153900000Y-112345330D01*
X153872894Y-112348000D01*
X152876966Y-112348000D01*
X152876966Y-112241800D01*
X152868722Y-112158093D01*
X152844305Y-112077604D01*
X152804655Y-112003424D01*
X152751295Y-111938405D01*
X152686276Y-111885045D01*
X152612096Y-111845395D01*
X152531607Y-111820978D01*
X152447900Y-111812734D01*
X151762100Y-111812734D01*
X151678393Y-111820978D01*
X151658865Y-111826902D01*
X151629085Y-111790615D01*
X151532394Y-111711263D01*
X151422080Y-111652298D01*
X151302382Y-111615988D01*
X151177900Y-111603728D01*
X151120750Y-111606800D01*
X150962000Y-111765550D01*
X150962000Y-112787900D01*
X150982000Y-112787900D01*
X150982000Y-113041900D01*
X150962000Y-113041900D01*
X150962000Y-114064250D01*
X151120750Y-114223000D01*
X151177900Y-114226072D01*
X151302382Y-114213812D01*
X151422080Y-114177502D01*
X151532394Y-114118537D01*
X151559335Y-114096427D01*
X151560988Y-114113210D01*
X151592552Y-114217262D01*
X151643809Y-114313158D01*
X151701638Y-114383624D01*
X151635804Y-114403595D01*
X151561624Y-114443245D01*
X151496605Y-114496605D01*
X151443245Y-114561624D01*
X151403595Y-114635804D01*
X151379178Y-114716293D01*
X151370934Y-114800000D01*
X151370934Y-115048000D01*
X151129066Y-115048000D01*
X151129066Y-114750000D01*
X151120822Y-114666293D01*
X151096405Y-114585804D01*
X151056755Y-114511624D01*
X151003395Y-114446605D01*
X150938376Y-114393245D01*
X150864196Y-114353595D01*
X150783707Y-114329178D01*
X150700000Y-114320934D01*
X149800000Y-114320934D01*
X149716293Y-114329178D01*
X149635804Y-114353595D01*
X149561624Y-114393245D01*
X149496605Y-114446605D01*
X149443245Y-114511624D01*
X149403595Y-114585804D01*
X149379178Y-114666293D01*
X149370934Y-114750000D01*
X148438072Y-114750000D01*
X148425812Y-114625518D01*
X148389502Y-114505820D01*
X148330537Y-114395506D01*
X148251185Y-114298815D01*
X148154494Y-114219463D01*
X148044180Y-114160498D01*
X147924482Y-114124188D01*
X147800000Y-114111928D01*
X147635750Y-114115000D01*
X147477000Y-114273750D01*
X147223000Y-114273750D01*
X147064250Y-114115000D01*
X146900000Y-114111928D01*
X146775518Y-114124188D01*
X146755200Y-114130351D01*
X146755200Y-102102000D01*
X147656753Y-102102000D01*
X147648705Y-102108605D01*
G36*
X173915804Y-82646405D02*
G01*
X173996293Y-82670822D01*
X174080000Y-82679066D01*
X174680000Y-82679066D01*
X174763707Y-82670822D01*
X174844196Y-82646405D01*
X174848000Y-82644372D01*
X174848001Y-84957280D01*
X174781202Y-84912647D01*
X174557903Y-84820153D01*
X174320849Y-84773000D01*
X174079151Y-84773000D01*
X173842097Y-84820153D01*
X173618798Y-84912647D01*
X173417833Y-85046927D01*
X173246927Y-85217833D01*
X173112647Y-85418798D01*
X173020153Y-85642097D01*
X172973000Y-85879151D01*
X172973000Y-86120849D01*
X173020153Y-86357903D01*
X173112647Y-86581202D01*
X173246927Y-86782167D01*
X173417833Y-86953073D01*
X173618798Y-87087353D01*
X173842097Y-87179847D01*
X174079151Y-87227000D01*
X174320849Y-87227000D01*
X174557903Y-87179847D01*
X174781202Y-87087353D01*
X174848001Y-87042720D01*
X174848001Y-87410604D01*
X174844121Y-87450000D01*
X174859605Y-87607219D01*
X174905464Y-87758396D01*
X174905465Y-87758397D01*
X174979936Y-87897723D01*
X175080158Y-88019843D01*
X175110758Y-88044956D01*
X175973000Y-88907199D01*
X175973000Y-89120849D01*
X176020153Y-89357903D01*
X176112647Y-89581202D01*
X176246927Y-89782167D01*
X176417833Y-89953073D01*
X176618798Y-90087353D01*
X176842097Y-90179847D01*
X177079151Y-90227000D01*
X177320849Y-90227000D01*
X177557903Y-90179847D01*
X177781202Y-90087353D01*
X177982167Y-89953073D01*
X178153073Y-89782167D01*
X178287353Y-89581202D01*
X178379847Y-89357903D01*
X178427000Y-89120849D01*
X178427000Y-88879151D01*
X178379847Y-88642097D01*
X178287353Y-88418798D01*
X178153073Y-88217833D01*
X177982167Y-88046927D01*
X177781202Y-87912647D01*
X177557903Y-87820153D01*
X177320849Y-87773000D01*
X177107199Y-87773000D01*
X176452000Y-87117802D01*
X176452000Y-86975903D01*
X176618798Y-87087353D01*
X176842097Y-87179847D01*
X177079151Y-87227000D01*
X177320849Y-87227000D01*
X177557903Y-87179847D01*
X177781202Y-87087353D01*
X177982167Y-86953073D01*
X178153073Y-86782167D01*
X178287353Y-86581202D01*
X178379847Y-86357903D01*
X178427000Y-86120849D01*
X178427000Y-85907199D01*
X178729248Y-85604952D01*
X178759843Y-85579843D01*
X178784951Y-85549249D01*
X178784955Y-85549245D01*
X178817659Y-85509394D01*
X178860065Y-85457723D01*
X178934536Y-85318397D01*
X178972452Y-85193405D01*
X178980395Y-85167220D01*
X178984640Y-85124121D01*
X178992000Y-85049394D01*
X178992000Y-85049387D01*
X178995879Y-85010001D01*
X178992000Y-84970615D01*
X178992000Y-82644372D01*
X178995804Y-82646405D01*
X179076293Y-82670822D01*
X179160000Y-82679066D01*
X179760000Y-82679066D01*
X179843707Y-82670822D01*
X179924196Y-82646405D01*
X179928000Y-82644372D01*
X179928001Y-84803066D01*
X179842097Y-84820153D01*
X179618798Y-84912647D01*
X179417833Y-85046927D01*
X179246927Y-85217833D01*
X179112647Y-85418798D01*
X179020153Y-85642097D01*
X178973000Y-85879151D01*
X178973000Y-86120849D01*
X179020153Y-86357903D01*
X179112647Y-86581202D01*
X179246927Y-86782167D01*
X179417833Y-86953073D01*
X179618798Y-87087353D01*
X179842097Y-87179847D01*
X180079151Y-87227000D01*
X180320849Y-87227000D01*
X180557903Y-87179847D01*
X180781202Y-87087353D01*
X180982167Y-86953073D01*
X181153073Y-86782167D01*
X181287353Y-86581202D01*
X181379847Y-86357903D01*
X181427000Y-86120849D01*
X181427000Y-85879151D01*
X181425287Y-85870537D01*
X181474536Y-85778397D01*
X181520395Y-85627219D01*
X181532000Y-85509394D01*
X181532000Y-85509387D01*
X181535879Y-85470001D01*
X181532000Y-85430615D01*
X181532000Y-82644372D01*
X181535804Y-82646405D01*
X181616293Y-82670822D01*
X181700000Y-82679066D01*
X182300000Y-82679066D01*
X182383707Y-82670822D01*
X182464196Y-82646405D01*
X182468000Y-82644372D01*
X182468001Y-85597800D01*
X180292802Y-87773000D01*
X180079151Y-87773000D01*
X179842097Y-87820153D01*
X179618798Y-87912647D01*
X179417833Y-88046927D01*
X179246927Y-88217833D01*
X179112647Y-88418798D01*
X179020153Y-88642097D01*
X178973000Y-88879151D01*
X178973000Y-89120849D01*
X179020153Y-89357903D01*
X179112647Y-89581202D01*
X179246927Y-89782167D01*
X179417833Y-89953073D01*
X179618798Y-90087353D01*
X179842097Y-90179847D01*
X180079151Y-90227000D01*
X180320849Y-90227000D01*
X180557903Y-90179847D01*
X180781202Y-90087353D01*
X180982167Y-89953073D01*
X181153073Y-89782167D01*
X181287353Y-89581202D01*
X181379847Y-89357903D01*
X181427000Y-89120849D01*
X181427000Y-88907198D01*
X183809243Y-86524956D01*
X183839843Y-86499843D01*
X183940065Y-86377723D01*
X184014536Y-86238397D01*
X184035650Y-86168794D01*
X184462434Y-86595579D01*
X184457793Y-86606782D01*
X184412100Y-86836494D01*
X184412100Y-87070706D01*
X184457793Y-87300418D01*
X184547422Y-87516803D01*
X184677543Y-87711543D01*
X184843157Y-87877157D01*
X185037897Y-88007278D01*
X185254282Y-88096907D01*
X185483994Y-88142600D01*
X185718206Y-88142600D01*
X185947918Y-88096907D01*
X186164303Y-88007278D01*
X186359043Y-87877157D01*
X186524657Y-87711543D01*
X186581791Y-87626036D01*
X187958846Y-89003092D01*
X187958857Y-89003101D01*
X187985713Y-89029957D01*
X187953996Y-89106528D01*
X187903000Y-89362902D01*
X187903000Y-89624298D01*
X187953996Y-89880672D01*
X188054028Y-90122170D01*
X188188234Y-90323023D01*
X184123696Y-90323023D01*
X184139454Y-90284980D01*
X184177000Y-90096226D01*
X184177000Y-89903774D01*
X184139454Y-89715020D01*
X184065806Y-89537217D01*
X183958885Y-89377199D01*
X183822801Y-89241115D01*
X183662783Y-89134194D01*
X183484980Y-89060546D01*
X183296226Y-89023000D01*
X183103774Y-89023000D01*
X182915020Y-89060546D01*
X182737217Y-89134194D01*
X182577199Y-89241115D01*
X182441115Y-89377199D01*
X182334194Y-89537217D01*
X182260546Y-89715020D01*
X182223000Y-89903774D01*
X182223000Y-90096226D01*
X182260546Y-90284980D01*
X182276304Y-90323023D01*
X174512667Y-90323023D01*
X174400750Y-90211107D01*
X174557903Y-90179847D01*
X174781202Y-90087353D01*
X174982167Y-89953073D01*
X175153073Y-89782167D01*
X175287353Y-89581202D01*
X175379847Y-89357903D01*
X175427000Y-89120849D01*
X175427000Y-88879151D01*
X175379847Y-88642097D01*
X175287353Y-88418798D01*
X175153073Y-88217833D01*
X174982167Y-88046927D01*
X174781202Y-87912647D01*
X174557903Y-87820153D01*
X174320849Y-87773000D01*
X174079151Y-87773000D01*
X173842097Y-87820153D01*
X173618798Y-87912647D01*
X173417833Y-88046927D01*
X173352000Y-88112760D01*
X173352000Y-87627108D01*
X173354670Y-87600000D01*
X173344012Y-87491789D01*
X173312448Y-87387737D01*
X173261191Y-87291842D01*
X173209492Y-87228846D01*
X173209491Y-87228845D01*
X173192211Y-87207789D01*
X173171154Y-87190508D01*
X172367751Y-86387106D01*
X172379847Y-86357903D01*
X172427000Y-86120849D01*
X172427000Y-85879151D01*
X172379847Y-85642097D01*
X172287353Y-85418798D01*
X172153073Y-85217833D01*
X171982167Y-85046927D01*
X171781202Y-84912647D01*
X171557903Y-84820153D01*
X171320849Y-84773000D01*
X171079151Y-84773000D01*
X170842097Y-84820153D01*
X170618798Y-84912647D01*
X170417833Y-85046927D01*
X170246927Y-85217833D01*
X170112647Y-85418798D01*
X170020153Y-85642097D01*
X169973000Y-85879151D01*
X169973000Y-86120849D01*
X170020153Y-86357903D01*
X170112647Y-86581202D01*
X170246927Y-86782167D01*
X170417833Y-86953073D01*
X170618798Y-87087353D01*
X170842097Y-87179847D01*
X171079151Y-87227000D01*
X171320849Y-87227000D01*
X171557903Y-87179847D01*
X171587106Y-87167751D01*
X172248001Y-87828647D01*
X172248001Y-88359903D01*
X172153073Y-88217833D01*
X171982167Y-88046927D01*
X171781202Y-87912647D01*
X171557903Y-87820153D01*
X171320849Y-87773000D01*
X171079151Y-87773000D01*
X170842097Y-87820153D01*
X170618798Y-87912647D01*
X170417833Y-88046927D01*
X170246927Y-88217833D01*
X170112647Y-88418798D01*
X170020153Y-88642097D01*
X169973000Y-88879151D01*
X169973000Y-89120849D01*
X170020153Y-89357903D01*
X170112647Y-89581202D01*
X170246927Y-89782167D01*
X170417833Y-89953073D01*
X170618798Y-90087353D01*
X170842097Y-90179847D01*
X171079151Y-90227000D01*
X171320849Y-90227000D01*
X171557903Y-90179847D01*
X171781202Y-90087353D01*
X171982167Y-89953073D01*
X172153073Y-89782167D01*
X172282887Y-89587886D01*
X172287552Y-89603264D01*
X172338809Y-89699160D01*
X172407789Y-89783213D01*
X172428856Y-89800502D01*
X173626352Y-90998000D01*
X164024653Y-90998000D01*
X164000000Y-90995572D01*
X163975347Y-90998000D01*
X163901591Y-91005264D01*
X163806964Y-91033969D01*
X163719755Y-91080583D01*
X163643316Y-91143316D01*
X163580583Y-91219755D01*
X163533969Y-91306964D01*
X163505264Y-91401591D01*
X163495572Y-91500000D01*
X163498001Y-91524663D01*
X163498001Y-99115992D01*
X163394180Y-99060498D01*
X163274482Y-99024188D01*
X163150000Y-99011928D01*
X163035750Y-99015000D01*
X162877000Y-99173750D01*
X162877000Y-99973000D01*
X162897000Y-99973000D01*
X162897000Y-100227000D01*
X162877000Y-100227000D01*
X162877000Y-101026250D01*
X163035750Y-101185000D01*
X163150000Y-101188072D01*
X163274482Y-101175812D01*
X163394180Y-101139502D01*
X163498001Y-101084008D01*
X163498000Y-105971119D01*
X163291824Y-105860916D01*
X163060534Y-105790755D01*
X162880268Y-105773000D01*
X162759732Y-105773000D01*
X162579466Y-105790755D01*
X162348176Y-105860916D01*
X162135017Y-105974851D01*
X162052000Y-106042982D01*
X162052000Y-103328645D01*
X162171148Y-103209497D01*
X162192211Y-103192211D01*
X162261191Y-103108158D01*
X162312448Y-103012263D01*
X162329206Y-102957019D01*
X162364196Y-102946405D01*
X162438376Y-102906755D01*
X162503395Y-102853395D01*
X162556755Y-102788376D01*
X162596405Y-102714196D01*
X162620822Y-102633707D01*
X162629066Y-102550000D01*
X162629066Y-101650000D01*
X162620822Y-101566293D01*
X162596405Y-101485804D01*
X162556755Y-101411624D01*
X162503395Y-101346605D01*
X162438376Y-101293245D01*
X162364196Y-101253595D01*
X162283707Y-101229178D01*
X162200000Y-101220934D01*
X161400000Y-101220934D01*
X161316293Y-101229178D01*
X161235804Y-101253595D01*
X161161624Y-101293245D01*
X161096605Y-101346605D01*
X161043245Y-101411624D01*
X161003595Y-101485804D01*
X160979178Y-101566293D01*
X160970934Y-101650000D01*
X160970934Y-102550000D01*
X160979178Y-102633707D01*
X161003595Y-102714196D01*
X161039334Y-102781059D01*
X161013097Y-102807296D01*
X160941514Y-102563329D01*
X160686004Y-102442429D01*
X160411816Y-102373700D01*
X160129488Y-102359783D01*
X159849870Y-102401213D01*
X159583708Y-102496397D01*
X159458486Y-102563329D01*
X159386903Y-102807298D01*
X160200000Y-103620395D01*
X160214143Y-103606253D01*
X160393748Y-103785858D01*
X160379605Y-103800000D01*
X160393748Y-103814143D01*
X160214143Y-103993748D01*
X160200000Y-103979605D01*
X159386903Y-104792702D01*
X159458486Y-105036671D01*
X159713996Y-105157571D01*
X159988184Y-105226300D01*
X160270512Y-105240217D01*
X160550130Y-105198787D01*
X160816292Y-105103603D01*
X160941514Y-105036671D01*
X160948001Y-105014564D01*
X160948000Y-106871355D01*
X159387106Y-108432249D01*
X159357903Y-108420153D01*
X159120849Y-108373000D01*
X158879151Y-108373000D01*
X158642097Y-108420153D01*
X158612895Y-108432249D01*
X156809500Y-106628856D01*
X156792211Y-106607789D01*
X156708158Y-106538809D01*
X156612263Y-106487552D01*
X156508211Y-106455988D01*
X156427109Y-106448000D01*
X156427106Y-106448000D01*
X156400000Y-106445330D01*
X156372894Y-106448000D01*
X156299449Y-106448000D01*
X156287353Y-106418798D01*
X156153073Y-106217833D01*
X155982167Y-106046927D01*
X155781202Y-105912647D01*
X155557903Y-105820153D01*
X155320849Y-105773000D01*
X155079151Y-105773000D01*
X154842097Y-105820153D01*
X154618798Y-105912647D01*
X154602000Y-105923871D01*
X154602000Y-105532198D01*
X155107199Y-105027000D01*
X155320849Y-105027000D01*
X155557903Y-104979847D01*
X155781202Y-104887353D01*
X155982167Y-104753073D01*
X156133240Y-104602000D01*
X156360614Y-104602000D01*
X156400000Y-104605879D01*
X156439386Y-104602000D01*
X156439394Y-104602000D01*
X156557219Y-104590395D01*
X156708397Y-104544536D01*
X156847723Y-104470065D01*
X156969843Y-104369843D01*
X156994960Y-104339238D01*
X157463686Y-103870512D01*
X158759783Y-103870512D01*
X158801213Y-104150130D01*
X158896397Y-104416292D01*
X158963329Y-104541514D01*
X159207298Y-104613097D01*
X160020395Y-103800000D01*
X159207298Y-102986903D01*
X158963329Y-103058486D01*
X158842429Y-103313996D01*
X158773700Y-103588184D01*
X158759783Y-103870512D01*
X157463686Y-103870512D01*
X158864243Y-102469956D01*
X158894843Y-102444843D01*
X158995065Y-102322723D01*
X159069536Y-102183397D01*
X159115395Y-102032219D01*
X159127000Y-101914394D01*
X159127000Y-101914387D01*
X159130879Y-101875001D01*
X159127000Y-101835615D01*
X159127000Y-100777000D01*
X160087164Y-100777000D01*
X160093245Y-100788376D01*
X160146605Y-100853395D01*
X160211624Y-100906755D01*
X160285804Y-100946405D01*
X160366293Y-100970822D01*
X160450000Y-100979066D01*
X161250000Y-100979066D01*
X161333707Y-100970822D01*
X161414196Y-100946405D01*
X161488376Y-100906755D01*
X161553395Y-100853395D01*
X161606755Y-100788376D01*
X161646405Y-100714196D01*
X161670822Y-100633707D01*
X161679066Y-100550000D01*
X161711928Y-100550000D01*
X161724188Y-100674482D01*
X161760498Y-100794180D01*
X161819463Y-100904494D01*
X161898815Y-101001185D01*
X161995506Y-101080537D01*
X162105820Y-101139502D01*
X162225518Y-101175812D01*
X162350000Y-101188072D01*
X162464250Y-101185000D01*
X162623000Y-101026250D01*
X162623000Y-100227000D01*
X161873750Y-100227000D01*
X161715000Y-100385750D01*
X161711928Y-100550000D01*
X161679066Y-100550000D01*
X161679066Y-99650000D01*
X161711928Y-99650000D01*
X161715000Y-99814250D01*
X161873750Y-99973000D01*
X162623000Y-99973000D01*
X162623000Y-99173750D01*
X162464250Y-99015000D01*
X162350000Y-99011928D01*
X162225518Y-99024188D01*
X162105820Y-99060498D01*
X161995506Y-99119463D01*
X161898815Y-99198815D01*
X161819463Y-99295506D01*
X161760498Y-99405820D01*
X161724188Y-99525518D01*
X161711928Y-99650000D01*
X161679066Y-99650000D01*
X161670822Y-99566293D01*
X161646405Y-99485804D01*
X161606755Y-99411624D01*
X161553395Y-99346605D01*
X161488376Y-99293245D01*
X161414196Y-99253595D01*
X161333707Y-99229178D01*
X161250000Y-99220934D01*
X160450000Y-99220934D01*
X160366293Y-99229178D01*
X160285804Y-99253595D01*
X160211624Y-99293245D01*
X160146605Y-99346605D01*
X160093245Y-99411624D01*
X160087164Y-99423000D01*
X159127000Y-99423000D01*
X159127000Y-92864386D01*
X159130879Y-92825000D01*
X159127000Y-92785614D01*
X159127000Y-92785606D01*
X159115395Y-92667781D01*
X159080721Y-92553477D01*
X159410116Y-92224083D01*
X159439732Y-92227000D01*
X159560268Y-92227000D01*
X159740534Y-92209245D01*
X159971824Y-92139084D01*
X160184983Y-92025149D01*
X160371817Y-91871817D01*
X160525149Y-91684983D01*
X160639084Y-91471824D01*
X160709245Y-91240534D01*
X160732936Y-91000000D01*
X160709245Y-90759466D01*
X160639084Y-90528176D01*
X160525149Y-90315017D01*
X160371817Y-90128183D01*
X160184983Y-89974851D01*
X159971824Y-89860916D01*
X159915315Y-89843774D01*
X161223000Y-89843774D01*
X161223000Y-90036226D01*
X161260546Y-90224980D01*
X161334194Y-90402783D01*
X161441115Y-90562801D01*
X161577199Y-90698885D01*
X161737217Y-90805806D01*
X161915020Y-90879454D01*
X162103774Y-90917000D01*
X162296226Y-90917000D01*
X162484980Y-90879454D01*
X162662783Y-90805806D01*
X162822801Y-90698885D01*
X162958885Y-90562801D01*
X163065806Y-90402783D01*
X163139454Y-90224980D01*
X163177000Y-90036226D01*
X163177000Y-89843774D01*
X163139454Y-89655020D01*
X163065806Y-89477217D01*
X162958885Y-89317199D01*
X162822801Y-89181115D01*
X162662783Y-89074194D01*
X162484980Y-89000546D01*
X162296226Y-88963000D01*
X162103774Y-88963000D01*
X161915020Y-89000546D01*
X161737217Y-89074194D01*
X161577199Y-89181115D01*
X161441115Y-89317199D01*
X161334194Y-89477217D01*
X161260546Y-89655020D01*
X161223000Y-89843774D01*
X159915315Y-89843774D01*
X159740534Y-89790755D01*
X159560268Y-89773000D01*
X159439732Y-89773000D01*
X159259466Y-89790755D01*
X159028176Y-89860916D01*
X158815017Y-89974851D01*
X158628183Y-90128183D01*
X158474851Y-90315017D01*
X158360916Y-90528176D01*
X158290755Y-90759466D01*
X158267064Y-91000000D01*
X158275917Y-91089884D01*
X158102268Y-91263533D01*
X158109245Y-91240534D01*
X158132936Y-91000000D01*
X158109245Y-90759466D01*
X158039084Y-90528176D01*
X157925149Y-90315017D01*
X157771817Y-90128183D01*
X157584983Y-89974851D01*
X157371824Y-89860916D01*
X157140534Y-89790755D01*
X156960268Y-89773000D01*
X156839732Y-89773000D01*
X156659466Y-89790755D01*
X156428176Y-89860916D01*
X156215017Y-89974851D01*
X156028183Y-90128183D01*
X155874851Y-90315017D01*
X155760916Y-90528176D01*
X155707061Y-90705712D01*
X155698787Y-90649870D01*
X155603603Y-90383708D01*
X155536671Y-90258486D01*
X155292702Y-90186903D01*
X154479605Y-91000000D01*
X154493748Y-91014143D01*
X154314143Y-91193748D01*
X154300000Y-91179605D01*
X154285858Y-91193748D01*
X154106253Y-91014143D01*
X154120395Y-91000000D01*
X153307298Y-90186903D01*
X153063329Y-90258486D01*
X152999597Y-90393177D01*
X152997070Y-90386119D01*
X152852385Y-90144869D01*
X152727633Y-90007298D01*
X153486903Y-90007298D01*
X154300000Y-90820395D01*
X155113097Y-90007298D01*
X155041514Y-89763329D01*
X154786004Y-89642429D01*
X154511816Y-89573700D01*
X154229488Y-89559783D01*
X153949870Y-89601213D01*
X153683708Y-89696397D01*
X153558486Y-89763329D01*
X153486903Y-90007298D01*
X152727633Y-90007298D01*
X152663414Y-89936481D01*
X152437420Y-89768963D01*
X152183087Y-89648754D01*
X152049039Y-89608096D01*
X151827000Y-89730085D01*
X151827000Y-90873000D01*
X151847000Y-90873000D01*
X151847000Y-91127000D01*
X151827000Y-91127000D01*
X151827000Y-91147000D01*
X151573000Y-91147000D01*
X151573000Y-91127000D01*
X150429376Y-91127000D01*
X150308091Y-91349040D01*
X150397243Y-91598000D01*
X150251125Y-91598000D01*
X150254178Y-91567000D01*
X150229522Y-91316664D01*
X150156502Y-91075949D01*
X150037924Y-90854104D01*
X149878344Y-90659656D01*
X149867748Y-90650960D01*
X150308091Y-90650960D01*
X150429376Y-90873000D01*
X151573000Y-90873000D01*
X151573000Y-89730085D01*
X151350961Y-89608096D01*
X151216913Y-89648754D01*
X150962580Y-89768963D01*
X150736586Y-89936481D01*
X150547615Y-90144869D01*
X150402930Y-90386119D01*
X150308091Y-90650960D01*
X149867748Y-90650960D01*
X149683896Y-90500076D01*
X149506350Y-90405176D01*
X149602252Y-90371157D01*
X149852355Y-90222178D01*
X150068588Y-90027269D01*
X150242641Y-89793920D01*
X150367825Y-89531099D01*
X150412476Y-89383890D01*
X150291155Y-89154000D01*
X149098000Y-89154000D01*
X149098000Y-89174000D01*
X148844000Y-89174000D01*
X148844000Y-89154000D01*
X148824000Y-89154000D01*
X148824000Y-88900000D01*
X148844000Y-88900000D01*
X148844000Y-86614000D01*
X149098000Y-86614000D01*
X149098000Y-88900000D01*
X150291155Y-88900000D01*
X150302157Y-88879151D01*
X163973000Y-88879151D01*
X163973000Y-89120849D01*
X164020153Y-89357903D01*
X164112647Y-89581202D01*
X164246927Y-89782167D01*
X164417833Y-89953073D01*
X164618798Y-90087353D01*
X164842097Y-90179847D01*
X165079151Y-90227000D01*
X165320849Y-90227000D01*
X165557903Y-90179847D01*
X165781202Y-90087353D01*
X165982167Y-89953073D01*
X166153073Y-89782167D01*
X166287353Y-89581202D01*
X166379847Y-89357903D01*
X166427000Y-89120849D01*
X166427000Y-88879151D01*
X166973000Y-88879151D01*
X166973000Y-89120849D01*
X167020153Y-89357903D01*
X167112647Y-89581202D01*
X167246927Y-89782167D01*
X167417833Y-89953073D01*
X167618798Y-90087353D01*
X167842097Y-90179847D01*
X168079151Y-90227000D01*
X168320849Y-90227000D01*
X168557903Y-90179847D01*
X168781202Y-90087353D01*
X168982167Y-89953073D01*
X169153073Y-89782167D01*
X169287353Y-89581202D01*
X169379847Y-89357903D01*
X169427000Y-89120849D01*
X169427000Y-88879151D01*
X169379847Y-88642097D01*
X169287353Y-88418798D01*
X169153073Y-88217833D01*
X168982167Y-88046927D01*
X168781202Y-87912647D01*
X168557903Y-87820153D01*
X168320849Y-87773000D01*
X168079151Y-87773000D01*
X167842097Y-87820153D01*
X167618798Y-87912647D01*
X167417833Y-88046927D01*
X167246927Y-88217833D01*
X167112647Y-88418798D01*
X167020153Y-88642097D01*
X166973000Y-88879151D01*
X166427000Y-88879151D01*
X166379847Y-88642097D01*
X166287353Y-88418798D01*
X166153073Y-88217833D01*
X165982167Y-88046927D01*
X165781202Y-87912647D01*
X165557903Y-87820153D01*
X165320849Y-87773000D01*
X165079151Y-87773000D01*
X164842097Y-87820153D01*
X164618798Y-87912647D01*
X164417833Y-88046927D01*
X164246927Y-88217833D01*
X164112647Y-88418798D01*
X164020153Y-88642097D01*
X163973000Y-88879151D01*
X150302157Y-88879151D01*
X150412476Y-88670110D01*
X150367825Y-88522901D01*
X150242641Y-88260080D01*
X150068588Y-88026731D01*
X149852355Y-87831822D01*
X149726745Y-87757000D01*
X149852355Y-87682178D01*
X150068588Y-87487269D01*
X150242641Y-87253920D01*
X150367825Y-86991099D01*
X150412476Y-86843890D01*
X150291155Y-86614000D01*
X149098000Y-86614000D01*
X148844000Y-86614000D01*
X148824000Y-86614000D01*
X148824000Y-86360000D01*
X148844000Y-86360000D01*
X148844000Y-86340000D01*
X149098000Y-86340000D01*
X149098000Y-86360000D01*
X150291155Y-86360000D01*
X150375035Y-86201057D01*
X150384606Y-86202000D01*
X150384613Y-86202000D01*
X150423999Y-86205879D01*
X150463385Y-86202000D01*
X160560614Y-86202000D01*
X160600000Y-86205879D01*
X160639386Y-86202000D01*
X160639394Y-86202000D01*
X160757219Y-86190395D01*
X160908397Y-86144536D01*
X161047723Y-86070065D01*
X161169843Y-85969843D01*
X161194960Y-85939238D01*
X161255047Y-85879151D01*
X163973000Y-85879151D01*
X163973000Y-86120849D01*
X164020153Y-86357903D01*
X164112647Y-86581202D01*
X164246927Y-86782167D01*
X164417833Y-86953073D01*
X164618798Y-87087353D01*
X164842097Y-87179847D01*
X165079151Y-87227000D01*
X165320849Y-87227000D01*
X165557903Y-87179847D01*
X165781202Y-87087353D01*
X165982167Y-86953073D01*
X166153073Y-86782167D01*
X166287353Y-86581202D01*
X166379847Y-86357903D01*
X166427000Y-86120849D01*
X166427000Y-85879151D01*
X166973000Y-85879151D01*
X166973000Y-86120849D01*
X167020153Y-86357903D01*
X167112647Y-86581202D01*
X167246927Y-86782167D01*
X167417833Y-86953073D01*
X167618798Y-87087353D01*
X167842097Y-87179847D01*
X168079151Y-87227000D01*
X168320849Y-87227000D01*
X168557903Y-87179847D01*
X168781202Y-87087353D01*
X168982167Y-86953073D01*
X169153073Y-86782167D01*
X169287353Y-86581202D01*
X169379847Y-86357903D01*
X169427000Y-86120849D01*
X169427000Y-85879151D01*
X169379847Y-85642097D01*
X169287353Y-85418798D01*
X169153073Y-85217833D01*
X168982167Y-85046927D01*
X168781202Y-84912647D01*
X168557903Y-84820153D01*
X168320849Y-84773000D01*
X168079151Y-84773000D01*
X167842097Y-84820153D01*
X167618798Y-84912647D01*
X167417833Y-85046927D01*
X167246927Y-85217833D01*
X167112647Y-85418798D01*
X167020153Y-85642097D01*
X166973000Y-85879151D01*
X166427000Y-85879151D01*
X166379847Y-85642097D01*
X166287353Y-85418798D01*
X166153073Y-85217833D01*
X165982167Y-85046927D01*
X165781202Y-84912647D01*
X165557903Y-84820153D01*
X165320849Y-84773000D01*
X165079151Y-84773000D01*
X164842097Y-84820153D01*
X164618798Y-84912647D01*
X164417833Y-85046927D01*
X164246927Y-85217833D01*
X164112647Y-85418798D01*
X164020153Y-85642097D01*
X163973000Y-85879151D01*
X161255047Y-85879151D01*
X162861379Y-84272820D01*
X171889794Y-84272820D01*
X171929180Y-84276699D01*
X171968566Y-84272820D01*
X171968574Y-84272820D01*
X172086399Y-84261215D01*
X172237577Y-84215356D01*
X172376903Y-84140885D01*
X172499023Y-84040663D01*
X172524140Y-84010058D01*
X173897551Y-82636649D01*
X173915804Y-82646405D01*
X173915804Y-82646405D01*
G37*
X173915804Y-82646405D02*
X173996293Y-82670822D01*
X174080000Y-82679066D01*
X174680000Y-82679066D01*
X174763707Y-82670822D01*
X174844196Y-82646405D01*
X174848000Y-82644372D01*
X174848001Y-84957280D01*
X174781202Y-84912647D01*
X174557903Y-84820153D01*
X174320849Y-84773000D01*
X174079151Y-84773000D01*
X173842097Y-84820153D01*
X173618798Y-84912647D01*
X173417833Y-85046927D01*
X173246927Y-85217833D01*
X173112647Y-85418798D01*
X173020153Y-85642097D01*
X172973000Y-85879151D01*
X172973000Y-86120849D01*
X173020153Y-86357903D01*
X173112647Y-86581202D01*
X173246927Y-86782167D01*
X173417833Y-86953073D01*
X173618798Y-87087353D01*
X173842097Y-87179847D01*
X174079151Y-87227000D01*
X174320849Y-87227000D01*
X174557903Y-87179847D01*
X174781202Y-87087353D01*
X174848001Y-87042720D01*
X174848001Y-87410604D01*
X174844121Y-87450000D01*
X174859605Y-87607219D01*
X174905464Y-87758396D01*
X174905465Y-87758397D01*
X174979936Y-87897723D01*
X175080158Y-88019843D01*
X175110758Y-88044956D01*
X175973000Y-88907199D01*
X175973000Y-89120849D01*
X176020153Y-89357903D01*
X176112647Y-89581202D01*
X176246927Y-89782167D01*
X176417833Y-89953073D01*
X176618798Y-90087353D01*
X176842097Y-90179847D01*
X177079151Y-90227000D01*
X177320849Y-90227000D01*
X177557903Y-90179847D01*
X177781202Y-90087353D01*
X177982167Y-89953073D01*
X178153073Y-89782167D01*
X178287353Y-89581202D01*
X178379847Y-89357903D01*
X178427000Y-89120849D01*
X178427000Y-88879151D01*
X178379847Y-88642097D01*
X178287353Y-88418798D01*
X178153073Y-88217833D01*
X177982167Y-88046927D01*
X177781202Y-87912647D01*
X177557903Y-87820153D01*
X177320849Y-87773000D01*
X177107199Y-87773000D01*
X176452000Y-87117802D01*
X176452000Y-86975903D01*
X176618798Y-87087353D01*
X176842097Y-87179847D01*
X177079151Y-87227000D01*
X177320849Y-87227000D01*
X177557903Y-87179847D01*
X177781202Y-87087353D01*
X177982167Y-86953073D01*
X178153073Y-86782167D01*
X178287353Y-86581202D01*
X178379847Y-86357903D01*
X178427000Y-86120849D01*
X178427000Y-85907199D01*
X178729248Y-85604952D01*
X178759843Y-85579843D01*
X178784951Y-85549249D01*
X178784955Y-85549245D01*
X178817659Y-85509394D01*
X178860065Y-85457723D01*
X178934536Y-85318397D01*
X178972452Y-85193405D01*
X178980395Y-85167220D01*
X178984640Y-85124121D01*
X178992000Y-85049394D01*
X178992000Y-85049387D01*
X178995879Y-85010001D01*
X178992000Y-84970615D01*
X178992000Y-82644372D01*
X178995804Y-82646405D01*
X179076293Y-82670822D01*
X179160000Y-82679066D01*
X179760000Y-82679066D01*
X179843707Y-82670822D01*
X179924196Y-82646405D01*
X179928000Y-82644372D01*
X179928001Y-84803066D01*
X179842097Y-84820153D01*
X179618798Y-84912647D01*
X179417833Y-85046927D01*
X179246927Y-85217833D01*
X179112647Y-85418798D01*
X179020153Y-85642097D01*
X178973000Y-85879151D01*
X178973000Y-86120849D01*
X179020153Y-86357903D01*
X179112647Y-86581202D01*
X179246927Y-86782167D01*
X179417833Y-86953073D01*
X179618798Y-87087353D01*
X179842097Y-87179847D01*
X180079151Y-87227000D01*
X180320849Y-87227000D01*
X180557903Y-87179847D01*
X180781202Y-87087353D01*
X180982167Y-86953073D01*
X181153073Y-86782167D01*
X181287353Y-86581202D01*
X181379847Y-86357903D01*
X181427000Y-86120849D01*
X181427000Y-85879151D01*
X181425287Y-85870537D01*
X181474536Y-85778397D01*
X181520395Y-85627219D01*
X181532000Y-85509394D01*
X181532000Y-85509387D01*
X181535879Y-85470001D01*
X181532000Y-85430615D01*
X181532000Y-82644372D01*
X181535804Y-82646405D01*
X181616293Y-82670822D01*
X181700000Y-82679066D01*
X182300000Y-82679066D01*
X182383707Y-82670822D01*
X182464196Y-82646405D01*
X182468000Y-82644372D01*
X182468001Y-85597800D01*
X180292802Y-87773000D01*
X180079151Y-87773000D01*
X179842097Y-87820153D01*
X179618798Y-87912647D01*
X179417833Y-88046927D01*
X179246927Y-88217833D01*
X179112647Y-88418798D01*
X179020153Y-88642097D01*
X178973000Y-88879151D01*
X178973000Y-89120849D01*
X179020153Y-89357903D01*
X179112647Y-89581202D01*
X179246927Y-89782167D01*
X179417833Y-89953073D01*
X179618798Y-90087353D01*
X179842097Y-90179847D01*
X180079151Y-90227000D01*
X180320849Y-90227000D01*
X180557903Y-90179847D01*
X180781202Y-90087353D01*
X180982167Y-89953073D01*
X181153073Y-89782167D01*
X181287353Y-89581202D01*
X181379847Y-89357903D01*
X181427000Y-89120849D01*
X181427000Y-88907198D01*
X183809243Y-86524956D01*
X183839843Y-86499843D01*
X183940065Y-86377723D01*
X184014536Y-86238397D01*
X184035650Y-86168794D01*
X184462434Y-86595579D01*
X184457793Y-86606782D01*
X184412100Y-86836494D01*
X184412100Y-87070706D01*
X184457793Y-87300418D01*
X184547422Y-87516803D01*
X184677543Y-87711543D01*
X184843157Y-87877157D01*
X185037897Y-88007278D01*
X185254282Y-88096907D01*
X185483994Y-88142600D01*
X185718206Y-88142600D01*
X185947918Y-88096907D01*
X186164303Y-88007278D01*
X186359043Y-87877157D01*
X186524657Y-87711543D01*
X186581791Y-87626036D01*
X187958846Y-89003092D01*
X187958857Y-89003101D01*
X187985713Y-89029957D01*
X187953996Y-89106528D01*
X187903000Y-89362902D01*
X187903000Y-89624298D01*
X187953996Y-89880672D01*
X188054028Y-90122170D01*
X188188234Y-90323023D01*
X184123696Y-90323023D01*
X184139454Y-90284980D01*
X184177000Y-90096226D01*
X184177000Y-89903774D01*
X184139454Y-89715020D01*
X184065806Y-89537217D01*
X183958885Y-89377199D01*
X183822801Y-89241115D01*
X183662783Y-89134194D01*
X183484980Y-89060546D01*
X183296226Y-89023000D01*
X183103774Y-89023000D01*
X182915020Y-89060546D01*
X182737217Y-89134194D01*
X182577199Y-89241115D01*
X182441115Y-89377199D01*
X182334194Y-89537217D01*
X182260546Y-89715020D01*
X182223000Y-89903774D01*
X182223000Y-90096226D01*
X182260546Y-90284980D01*
X182276304Y-90323023D01*
X174512667Y-90323023D01*
X174400750Y-90211107D01*
X174557903Y-90179847D01*
X174781202Y-90087353D01*
X174982167Y-89953073D01*
X175153073Y-89782167D01*
X175287353Y-89581202D01*
X175379847Y-89357903D01*
X175427000Y-89120849D01*
X175427000Y-88879151D01*
X175379847Y-88642097D01*
X175287353Y-88418798D01*
X175153073Y-88217833D01*
X174982167Y-88046927D01*
X174781202Y-87912647D01*
X174557903Y-87820153D01*
X174320849Y-87773000D01*
X174079151Y-87773000D01*
X173842097Y-87820153D01*
X173618798Y-87912647D01*
X173417833Y-88046927D01*
X173352000Y-88112760D01*
X173352000Y-87627108D01*
X173354670Y-87600000D01*
X173344012Y-87491789D01*
X173312448Y-87387737D01*
X173261191Y-87291842D01*
X173209492Y-87228846D01*
X173209491Y-87228845D01*
X173192211Y-87207789D01*
X173171154Y-87190508D01*
X172367751Y-86387106D01*
X172379847Y-86357903D01*
X172427000Y-86120849D01*
X172427000Y-85879151D01*
X172379847Y-85642097D01*
X172287353Y-85418798D01*
X172153073Y-85217833D01*
X171982167Y-85046927D01*
X171781202Y-84912647D01*
X171557903Y-84820153D01*
X171320849Y-84773000D01*
X171079151Y-84773000D01*
X170842097Y-84820153D01*
X170618798Y-84912647D01*
X170417833Y-85046927D01*
X170246927Y-85217833D01*
X170112647Y-85418798D01*
X170020153Y-85642097D01*
X169973000Y-85879151D01*
X169973000Y-86120849D01*
X170020153Y-86357903D01*
X170112647Y-86581202D01*
X170246927Y-86782167D01*
X170417833Y-86953073D01*
X170618798Y-87087353D01*
X170842097Y-87179847D01*
X171079151Y-87227000D01*
X171320849Y-87227000D01*
X171557903Y-87179847D01*
X171587106Y-87167751D01*
X172248001Y-87828647D01*
X172248001Y-88359903D01*
X172153073Y-88217833D01*
X171982167Y-88046927D01*
X171781202Y-87912647D01*
X171557903Y-87820153D01*
X171320849Y-87773000D01*
X171079151Y-87773000D01*
X170842097Y-87820153D01*
X170618798Y-87912647D01*
X170417833Y-88046927D01*
X170246927Y-88217833D01*
X170112647Y-88418798D01*
X170020153Y-88642097D01*
X169973000Y-88879151D01*
X169973000Y-89120849D01*
X170020153Y-89357903D01*
X170112647Y-89581202D01*
X170246927Y-89782167D01*
X170417833Y-89953073D01*
X170618798Y-90087353D01*
X170842097Y-90179847D01*
X171079151Y-90227000D01*
X171320849Y-90227000D01*
X171557903Y-90179847D01*
X171781202Y-90087353D01*
X171982167Y-89953073D01*
X172153073Y-89782167D01*
X172282887Y-89587886D01*
X172287552Y-89603264D01*
X172338809Y-89699160D01*
X172407789Y-89783213D01*
X172428856Y-89800502D01*
X173626352Y-90998000D01*
X164024653Y-90998000D01*
X164000000Y-90995572D01*
X163975347Y-90998000D01*
X163901591Y-91005264D01*
X163806964Y-91033969D01*
X163719755Y-91080583D01*
X163643316Y-91143316D01*
X163580583Y-91219755D01*
X163533969Y-91306964D01*
X163505264Y-91401591D01*
X163495572Y-91500000D01*
X163498001Y-91524663D01*
X163498001Y-99115992D01*
X163394180Y-99060498D01*
X163274482Y-99024188D01*
X163150000Y-99011928D01*
X163035750Y-99015000D01*
X162877000Y-99173750D01*
X162877000Y-99973000D01*
X162897000Y-99973000D01*
X162897000Y-100227000D01*
X162877000Y-100227000D01*
X162877000Y-101026250D01*
X163035750Y-101185000D01*
X163150000Y-101188072D01*
X163274482Y-101175812D01*
X163394180Y-101139502D01*
X163498001Y-101084008D01*
X163498000Y-105971119D01*
X163291824Y-105860916D01*
X163060534Y-105790755D01*
X162880268Y-105773000D01*
X162759732Y-105773000D01*
X162579466Y-105790755D01*
X162348176Y-105860916D01*
X162135017Y-105974851D01*
X162052000Y-106042982D01*
X162052000Y-103328645D01*
X162171148Y-103209497D01*
X162192211Y-103192211D01*
X162261191Y-103108158D01*
X162312448Y-103012263D01*
X162329206Y-102957019D01*
X162364196Y-102946405D01*
X162438376Y-102906755D01*
X162503395Y-102853395D01*
X162556755Y-102788376D01*
X162596405Y-102714196D01*
X162620822Y-102633707D01*
X162629066Y-102550000D01*
X162629066Y-101650000D01*
X162620822Y-101566293D01*
X162596405Y-101485804D01*
X162556755Y-101411624D01*
X162503395Y-101346605D01*
X162438376Y-101293245D01*
X162364196Y-101253595D01*
X162283707Y-101229178D01*
X162200000Y-101220934D01*
X161400000Y-101220934D01*
X161316293Y-101229178D01*
X161235804Y-101253595D01*
X161161624Y-101293245D01*
X161096605Y-101346605D01*
X161043245Y-101411624D01*
X161003595Y-101485804D01*
X160979178Y-101566293D01*
X160970934Y-101650000D01*
X160970934Y-102550000D01*
X160979178Y-102633707D01*
X161003595Y-102714196D01*
X161039334Y-102781059D01*
X161013097Y-102807296D01*
X160941514Y-102563329D01*
X160686004Y-102442429D01*
X160411816Y-102373700D01*
X160129488Y-102359783D01*
X159849870Y-102401213D01*
X159583708Y-102496397D01*
X159458486Y-102563329D01*
X159386903Y-102807298D01*
X160200000Y-103620395D01*
X160214143Y-103606253D01*
X160393748Y-103785858D01*
X160379605Y-103800000D01*
X160393748Y-103814143D01*
X160214143Y-103993748D01*
X160200000Y-103979605D01*
X159386903Y-104792702D01*
X159458486Y-105036671D01*
X159713996Y-105157571D01*
X159988184Y-105226300D01*
X160270512Y-105240217D01*
X160550130Y-105198787D01*
X160816292Y-105103603D01*
X160941514Y-105036671D01*
X160948001Y-105014564D01*
X160948000Y-106871355D01*
X159387106Y-108432249D01*
X159357903Y-108420153D01*
X159120849Y-108373000D01*
X158879151Y-108373000D01*
X158642097Y-108420153D01*
X158612895Y-108432249D01*
X156809500Y-106628856D01*
X156792211Y-106607789D01*
X156708158Y-106538809D01*
X156612263Y-106487552D01*
X156508211Y-106455988D01*
X156427109Y-106448000D01*
X156427106Y-106448000D01*
X156400000Y-106445330D01*
X156372894Y-106448000D01*
X156299449Y-106448000D01*
X156287353Y-106418798D01*
X156153073Y-106217833D01*
X155982167Y-106046927D01*
X155781202Y-105912647D01*
X155557903Y-105820153D01*
X155320849Y-105773000D01*
X155079151Y-105773000D01*
X154842097Y-105820153D01*
X154618798Y-105912647D01*
X154602000Y-105923871D01*
X154602000Y-105532198D01*
X155107199Y-105027000D01*
X155320849Y-105027000D01*
X155557903Y-104979847D01*
X155781202Y-104887353D01*
X155982167Y-104753073D01*
X156133240Y-104602000D01*
X156360614Y-104602000D01*
X156400000Y-104605879D01*
X156439386Y-104602000D01*
X156439394Y-104602000D01*
X156557219Y-104590395D01*
X156708397Y-104544536D01*
X156847723Y-104470065D01*
X156969843Y-104369843D01*
X156994960Y-104339238D01*
X157463686Y-103870512D01*
X158759783Y-103870512D01*
X158801213Y-104150130D01*
X158896397Y-104416292D01*
X158963329Y-104541514D01*
X159207298Y-104613097D01*
X160020395Y-103800000D01*
X159207298Y-102986903D01*
X158963329Y-103058486D01*
X158842429Y-103313996D01*
X158773700Y-103588184D01*
X158759783Y-103870512D01*
X157463686Y-103870512D01*
X158864243Y-102469956D01*
X158894843Y-102444843D01*
X158995065Y-102322723D01*
X159069536Y-102183397D01*
X159115395Y-102032219D01*
X159127000Y-101914394D01*
X159127000Y-101914387D01*
X159130879Y-101875001D01*
X159127000Y-101835615D01*
X159127000Y-100777000D01*
X160087164Y-100777000D01*
X160093245Y-100788376D01*
X160146605Y-100853395D01*
X160211624Y-100906755D01*
X160285804Y-100946405D01*
X160366293Y-100970822D01*
X160450000Y-100979066D01*
X161250000Y-100979066D01*
X161333707Y-100970822D01*
X161414196Y-100946405D01*
X161488376Y-100906755D01*
X161553395Y-100853395D01*
X161606755Y-100788376D01*
X161646405Y-100714196D01*
X161670822Y-100633707D01*
X161679066Y-100550000D01*
X161711928Y-100550000D01*
X161724188Y-100674482D01*
X161760498Y-100794180D01*
X161819463Y-100904494D01*
X161898815Y-101001185D01*
X161995506Y-101080537D01*
X162105820Y-101139502D01*
X162225518Y-101175812D01*
X162350000Y-101188072D01*
X162464250Y-101185000D01*
X162623000Y-101026250D01*
X162623000Y-100227000D01*
X161873750Y-100227000D01*
X161715000Y-100385750D01*
X161711928Y-100550000D01*
X161679066Y-100550000D01*
X161679066Y-99650000D01*
X161711928Y-99650000D01*
X161715000Y-99814250D01*
X161873750Y-99973000D01*
X162623000Y-99973000D01*
X162623000Y-99173750D01*
X162464250Y-99015000D01*
X162350000Y-99011928D01*
X162225518Y-99024188D01*
X162105820Y-99060498D01*
X161995506Y-99119463D01*
X161898815Y-99198815D01*
X161819463Y-99295506D01*
X161760498Y-99405820D01*
X161724188Y-99525518D01*
X161711928Y-99650000D01*
X161679066Y-99650000D01*
X161670822Y-99566293D01*
X161646405Y-99485804D01*
X161606755Y-99411624D01*
X161553395Y-99346605D01*
X161488376Y-99293245D01*
X161414196Y-99253595D01*
X161333707Y-99229178D01*
X161250000Y-99220934D01*
X160450000Y-99220934D01*
X160366293Y-99229178D01*
X160285804Y-99253595D01*
X160211624Y-99293245D01*
X160146605Y-99346605D01*
X160093245Y-99411624D01*
X160087164Y-99423000D01*
X159127000Y-99423000D01*
X159127000Y-92864386D01*
X159130879Y-92825000D01*
X159127000Y-92785614D01*
X159127000Y-92785606D01*
X159115395Y-92667781D01*
X159080721Y-92553477D01*
X159410116Y-92224083D01*
X159439732Y-92227000D01*
X159560268Y-92227000D01*
X159740534Y-92209245D01*
X159971824Y-92139084D01*
X160184983Y-92025149D01*
X160371817Y-91871817D01*
X160525149Y-91684983D01*
X160639084Y-91471824D01*
X160709245Y-91240534D01*
X160732936Y-91000000D01*
X160709245Y-90759466D01*
X160639084Y-90528176D01*
X160525149Y-90315017D01*
X160371817Y-90128183D01*
X160184983Y-89974851D01*
X159971824Y-89860916D01*
X159915315Y-89843774D01*
X161223000Y-89843774D01*
X161223000Y-90036226D01*
X161260546Y-90224980D01*
X161334194Y-90402783D01*
X161441115Y-90562801D01*
X161577199Y-90698885D01*
X161737217Y-90805806D01*
X161915020Y-90879454D01*
X162103774Y-90917000D01*
X162296226Y-90917000D01*
X162484980Y-90879454D01*
X162662783Y-90805806D01*
X162822801Y-90698885D01*
X162958885Y-90562801D01*
X163065806Y-90402783D01*
X163139454Y-90224980D01*
X163177000Y-90036226D01*
X163177000Y-89843774D01*
X163139454Y-89655020D01*
X163065806Y-89477217D01*
X162958885Y-89317199D01*
X162822801Y-89181115D01*
X162662783Y-89074194D01*
X162484980Y-89000546D01*
X162296226Y-88963000D01*
X162103774Y-88963000D01*
X161915020Y-89000546D01*
X161737217Y-89074194D01*
X161577199Y-89181115D01*
X161441115Y-89317199D01*
X161334194Y-89477217D01*
X161260546Y-89655020D01*
X161223000Y-89843774D01*
X159915315Y-89843774D01*
X159740534Y-89790755D01*
X159560268Y-89773000D01*
X159439732Y-89773000D01*
X159259466Y-89790755D01*
X159028176Y-89860916D01*
X158815017Y-89974851D01*
X158628183Y-90128183D01*
X158474851Y-90315017D01*
X158360916Y-90528176D01*
X158290755Y-90759466D01*
X158267064Y-91000000D01*
X158275917Y-91089884D01*
X158102268Y-91263533D01*
X158109245Y-91240534D01*
X158132936Y-91000000D01*
X158109245Y-90759466D01*
X158039084Y-90528176D01*
X157925149Y-90315017D01*
X157771817Y-90128183D01*
X157584983Y-89974851D01*
X157371824Y-89860916D01*
X157140534Y-89790755D01*
X156960268Y-89773000D01*
X156839732Y-89773000D01*
X156659466Y-89790755D01*
X156428176Y-89860916D01*
X156215017Y-89974851D01*
X156028183Y-90128183D01*
X155874851Y-90315017D01*
X155760916Y-90528176D01*
X155707061Y-90705712D01*
X155698787Y-90649870D01*
X155603603Y-90383708D01*
X155536671Y-90258486D01*
X155292702Y-90186903D01*
X154479605Y-91000000D01*
X154493748Y-91014143D01*
X154314143Y-91193748D01*
X154300000Y-91179605D01*
X154285858Y-91193748D01*
X154106253Y-91014143D01*
X154120395Y-91000000D01*
X153307298Y-90186903D01*
X153063329Y-90258486D01*
X152999597Y-90393177D01*
X152997070Y-90386119D01*
X152852385Y-90144869D01*
X152727633Y-90007298D01*
X153486903Y-90007298D01*
X154300000Y-90820395D01*
X155113097Y-90007298D01*
X155041514Y-89763329D01*
X154786004Y-89642429D01*
X154511816Y-89573700D01*
X154229488Y-89559783D01*
X153949870Y-89601213D01*
X153683708Y-89696397D01*
X153558486Y-89763329D01*
X153486903Y-90007298D01*
X152727633Y-90007298D01*
X152663414Y-89936481D01*
X152437420Y-89768963D01*
X152183087Y-89648754D01*
X152049039Y-89608096D01*
X151827000Y-89730085D01*
X151827000Y-90873000D01*
X151847000Y-90873000D01*
X151847000Y-91127000D01*
X151827000Y-91127000D01*
X151827000Y-91147000D01*
X151573000Y-91147000D01*
X151573000Y-91127000D01*
X150429376Y-91127000D01*
X150308091Y-91349040D01*
X150397243Y-91598000D01*
X150251125Y-91598000D01*
X150254178Y-91567000D01*
X150229522Y-91316664D01*
X150156502Y-91075949D01*
X150037924Y-90854104D01*
X149878344Y-90659656D01*
X149867748Y-90650960D01*
X150308091Y-90650960D01*
X150429376Y-90873000D01*
X151573000Y-90873000D01*
X151573000Y-89730085D01*
X151350961Y-89608096D01*
X151216913Y-89648754D01*
X150962580Y-89768963D01*
X150736586Y-89936481D01*
X150547615Y-90144869D01*
X150402930Y-90386119D01*
X150308091Y-90650960D01*
X149867748Y-90650960D01*
X149683896Y-90500076D01*
X149506350Y-90405176D01*
X149602252Y-90371157D01*
X149852355Y-90222178D01*
X150068588Y-90027269D01*
X150242641Y-89793920D01*
X150367825Y-89531099D01*
X150412476Y-89383890D01*
X150291155Y-89154000D01*
X149098000Y-89154000D01*
X149098000Y-89174000D01*
X148844000Y-89174000D01*
X148844000Y-89154000D01*
X148824000Y-89154000D01*
X148824000Y-88900000D01*
X148844000Y-88900000D01*
X148844000Y-86614000D01*
X149098000Y-86614000D01*
X149098000Y-88900000D01*
X150291155Y-88900000D01*
X150302157Y-88879151D01*
X163973000Y-88879151D01*
X163973000Y-89120849D01*
X164020153Y-89357903D01*
X164112647Y-89581202D01*
X164246927Y-89782167D01*
X164417833Y-89953073D01*
X164618798Y-90087353D01*
X164842097Y-90179847D01*
X165079151Y-90227000D01*
X165320849Y-90227000D01*
X165557903Y-90179847D01*
X165781202Y-90087353D01*
X165982167Y-89953073D01*
X166153073Y-89782167D01*
X166287353Y-89581202D01*
X166379847Y-89357903D01*
X166427000Y-89120849D01*
X166427000Y-88879151D01*
X166973000Y-88879151D01*
X166973000Y-89120849D01*
X167020153Y-89357903D01*
X167112647Y-89581202D01*
X167246927Y-89782167D01*
X167417833Y-89953073D01*
X167618798Y-90087353D01*
X167842097Y-90179847D01*
X168079151Y-90227000D01*
X168320849Y-90227000D01*
X168557903Y-90179847D01*
X168781202Y-90087353D01*
X168982167Y-89953073D01*
X169153073Y-89782167D01*
X169287353Y-89581202D01*
X169379847Y-89357903D01*
X169427000Y-89120849D01*
X169427000Y-88879151D01*
X169379847Y-88642097D01*
X169287353Y-88418798D01*
X169153073Y-88217833D01*
X168982167Y-88046927D01*
X168781202Y-87912647D01*
X168557903Y-87820153D01*
X168320849Y-87773000D01*
X168079151Y-87773000D01*
X167842097Y-87820153D01*
X167618798Y-87912647D01*
X167417833Y-88046927D01*
X167246927Y-88217833D01*
X167112647Y-88418798D01*
X167020153Y-88642097D01*
X166973000Y-88879151D01*
X166427000Y-88879151D01*
X166379847Y-88642097D01*
X166287353Y-88418798D01*
X166153073Y-88217833D01*
X165982167Y-88046927D01*
X165781202Y-87912647D01*
X165557903Y-87820153D01*
X165320849Y-87773000D01*
X165079151Y-87773000D01*
X164842097Y-87820153D01*
X164618798Y-87912647D01*
X164417833Y-88046927D01*
X164246927Y-88217833D01*
X164112647Y-88418798D01*
X164020153Y-88642097D01*
X163973000Y-88879151D01*
X150302157Y-88879151D01*
X150412476Y-88670110D01*
X150367825Y-88522901D01*
X150242641Y-88260080D01*
X150068588Y-88026731D01*
X149852355Y-87831822D01*
X149726745Y-87757000D01*
X149852355Y-87682178D01*
X150068588Y-87487269D01*
X150242641Y-87253920D01*
X150367825Y-86991099D01*
X150412476Y-86843890D01*
X150291155Y-86614000D01*
X149098000Y-86614000D01*
X148844000Y-86614000D01*
X148824000Y-86614000D01*
X148824000Y-86360000D01*
X148844000Y-86360000D01*
X148844000Y-86340000D01*
X149098000Y-86340000D01*
X149098000Y-86360000D01*
X150291155Y-86360000D01*
X150375035Y-86201057D01*
X150384606Y-86202000D01*
X150384613Y-86202000D01*
X150423999Y-86205879D01*
X150463385Y-86202000D01*
X160560614Y-86202000D01*
X160600000Y-86205879D01*
X160639386Y-86202000D01*
X160639394Y-86202000D01*
X160757219Y-86190395D01*
X160908397Y-86144536D01*
X161047723Y-86070065D01*
X161169843Y-85969843D01*
X161194960Y-85939238D01*
X161255047Y-85879151D01*
X163973000Y-85879151D01*
X163973000Y-86120849D01*
X164020153Y-86357903D01*
X164112647Y-86581202D01*
X164246927Y-86782167D01*
X164417833Y-86953073D01*
X164618798Y-87087353D01*
X164842097Y-87179847D01*
X165079151Y-87227000D01*
X165320849Y-87227000D01*
X165557903Y-87179847D01*
X165781202Y-87087353D01*
X165982167Y-86953073D01*
X166153073Y-86782167D01*
X166287353Y-86581202D01*
X166379847Y-86357903D01*
X166427000Y-86120849D01*
X166427000Y-85879151D01*
X166973000Y-85879151D01*
X166973000Y-86120849D01*
X167020153Y-86357903D01*
X167112647Y-86581202D01*
X167246927Y-86782167D01*
X167417833Y-86953073D01*
X167618798Y-87087353D01*
X167842097Y-87179847D01*
X168079151Y-87227000D01*
X168320849Y-87227000D01*
X168557903Y-87179847D01*
X168781202Y-87087353D01*
X168982167Y-86953073D01*
X169153073Y-86782167D01*
X169287353Y-86581202D01*
X169379847Y-86357903D01*
X169427000Y-86120849D01*
X169427000Y-85879151D01*
X169379847Y-85642097D01*
X169287353Y-85418798D01*
X169153073Y-85217833D01*
X168982167Y-85046927D01*
X168781202Y-84912647D01*
X168557903Y-84820153D01*
X168320849Y-84773000D01*
X168079151Y-84773000D01*
X167842097Y-84820153D01*
X167618798Y-84912647D01*
X167417833Y-85046927D01*
X167246927Y-85217833D01*
X167112647Y-85418798D01*
X167020153Y-85642097D01*
X166973000Y-85879151D01*
X166427000Y-85879151D01*
X166379847Y-85642097D01*
X166287353Y-85418798D01*
X166153073Y-85217833D01*
X165982167Y-85046927D01*
X165781202Y-84912647D01*
X165557903Y-84820153D01*
X165320849Y-84773000D01*
X165079151Y-84773000D01*
X164842097Y-84820153D01*
X164618798Y-84912647D01*
X164417833Y-85046927D01*
X164246927Y-85217833D01*
X164112647Y-85418798D01*
X164020153Y-85642097D01*
X163973000Y-85879151D01*
X161255047Y-85879151D01*
X162861379Y-84272820D01*
X171889794Y-84272820D01*
X171929180Y-84276699D01*
X171968566Y-84272820D01*
X171968574Y-84272820D01*
X172086399Y-84261215D01*
X172237577Y-84215356D01*
X172376903Y-84140885D01*
X172499023Y-84040663D01*
X172524140Y-84010058D01*
X173897551Y-82636649D01*
X173915804Y-82646405D01*
G36*
X187985713Y-83949958D02*
G01*
X187953996Y-84026528D01*
X187903000Y-84282902D01*
X187903000Y-84544298D01*
X187953996Y-84800672D01*
X188054028Y-85042170D01*
X188199252Y-85259513D01*
X188355394Y-85415655D01*
X188330000Y-85415528D01*
X188205518Y-85427788D01*
X188085820Y-85464098D01*
X187975506Y-85523063D01*
X187878815Y-85602415D01*
X187799463Y-85699106D01*
X187740498Y-85809420D01*
X187704188Y-85929118D01*
X187691928Y-86053600D01*
X187695000Y-86667850D01*
X187853750Y-86826600D01*
X189103000Y-86826600D01*
X189103000Y-86806600D01*
X189357000Y-86806600D01*
X189357000Y-86826600D01*
X189377000Y-86826600D01*
X189377000Y-87080600D01*
X189357000Y-87080600D01*
X189357000Y-87100600D01*
X189103000Y-87100600D01*
X189103000Y-87080600D01*
X187853750Y-87080600D01*
X187725697Y-87208653D01*
X187201990Y-86684946D01*
X187201990Y-83166235D01*
X187985713Y-83949958D01*
X187985713Y-83949958D01*
G37*
X187985713Y-83949958D02*
X187953996Y-84026528D01*
X187903000Y-84282902D01*
X187903000Y-84544298D01*
X187953996Y-84800672D01*
X188054028Y-85042170D01*
X188199252Y-85259513D01*
X188355394Y-85415655D01*
X188330000Y-85415528D01*
X188205518Y-85427788D01*
X188085820Y-85464098D01*
X187975506Y-85523063D01*
X187878815Y-85602415D01*
X187799463Y-85699106D01*
X187740498Y-85809420D01*
X187704188Y-85929118D01*
X187691928Y-86053600D01*
X187695000Y-86667850D01*
X187853750Y-86826600D01*
X189103000Y-86826600D01*
X189103000Y-86806600D01*
X189357000Y-86806600D01*
X189357000Y-86826600D01*
X189377000Y-86826600D01*
X189377000Y-87080600D01*
X189357000Y-87080600D01*
X189357000Y-87100600D01*
X189103000Y-87100600D01*
X189103000Y-87080600D01*
X187853750Y-87080600D01*
X187725697Y-87208653D01*
X187201990Y-86684946D01*
X187201990Y-83166235D01*
X187985713Y-83949958D01*
G36*
X177388001Y-84677800D02*
G01*
X177292801Y-84773000D01*
X177079151Y-84773000D01*
X176842097Y-84820153D01*
X176618798Y-84912647D01*
X176452000Y-85024097D01*
X176452000Y-82644372D01*
X176455804Y-82646405D01*
X176536293Y-82670822D01*
X176620000Y-82679066D01*
X177220000Y-82679066D01*
X177303707Y-82670822D01*
X177384196Y-82646405D01*
X177388000Y-82644372D01*
X177388001Y-84677800D01*
X177388001Y-84677800D01*
G37*
X177388001Y-84677800D02*
X177292801Y-84773000D01*
X177079151Y-84773000D01*
X176842097Y-84820153D01*
X176618798Y-84912647D01*
X176452000Y-85024097D01*
X176452000Y-82644372D01*
X176455804Y-82646405D01*
X176536293Y-82670822D01*
X176620000Y-82679066D01*
X177220000Y-82679066D01*
X177303707Y-82670822D01*
X177384196Y-82646405D01*
X177388000Y-82644372D01*
X177388001Y-84677800D01*
G36*
X163898846Y-72659492D02*
G01*
X163898857Y-72659501D01*
X163904526Y-72665171D01*
X163860755Y-72809466D01*
X163837064Y-73050000D01*
X163860755Y-73290534D01*
X163930916Y-73521824D01*
X164044851Y-73734983D01*
X164198183Y-73921817D01*
X164385017Y-74075149D01*
X164598176Y-74189084D01*
X164829466Y-74259245D01*
X165009732Y-74277000D01*
X165130268Y-74277000D01*
X165310534Y-74259245D01*
X165541824Y-74189084D01*
X165648000Y-74132332D01*
X165648001Y-79996351D01*
X163971356Y-81672998D01*
X163953397Y-81672998D01*
X163812942Y-81700936D01*
X163680636Y-81755739D01*
X163561564Y-81835300D01*
X163460302Y-81936562D01*
X163380741Y-82055634D01*
X163325938Y-82187940D01*
X163298000Y-82328395D01*
X163298000Y-82471601D01*
X163325938Y-82612056D01*
X163349450Y-82668820D01*
X162568574Y-82668820D01*
X162529180Y-82664940D01*
X162371960Y-82680425D01*
X162280540Y-82708157D01*
X162220783Y-82726284D01*
X162081457Y-82800755D01*
X161959337Y-82900977D01*
X161934224Y-82931577D01*
X160267802Y-84598000D01*
X159666095Y-84598000D01*
X159857903Y-84559847D01*
X160081202Y-84467353D01*
X160282167Y-84333073D01*
X160453073Y-84162167D01*
X160587353Y-83961202D01*
X160679847Y-83737903D01*
X160727000Y-83500849D01*
X160727000Y-83259151D01*
X160679847Y-83022097D01*
X160587353Y-82798798D01*
X160453073Y-82597833D01*
X160282167Y-82426927D01*
X160081202Y-82292647D01*
X159857903Y-82200153D01*
X159620849Y-82153000D01*
X159379151Y-82153000D01*
X159142097Y-82200153D01*
X158918798Y-82292647D01*
X158717833Y-82426927D01*
X158546927Y-82597833D01*
X158412647Y-82798798D01*
X158320153Y-83022097D01*
X158273000Y-83259151D01*
X158273000Y-83500849D01*
X158320153Y-83737903D01*
X158412647Y-83961202D01*
X158546927Y-84162167D01*
X158717833Y-84333073D01*
X158918798Y-84467353D01*
X159142097Y-84559847D01*
X159333905Y-84598000D01*
X157066095Y-84598000D01*
X157257903Y-84559847D01*
X157481202Y-84467353D01*
X157682167Y-84333073D01*
X157853073Y-84162167D01*
X157987353Y-83961202D01*
X158079847Y-83737903D01*
X158127000Y-83500849D01*
X158127000Y-83259151D01*
X158079847Y-83022097D01*
X157987353Y-82798798D01*
X157853073Y-82597833D01*
X157682167Y-82426927D01*
X157481202Y-82292647D01*
X157257903Y-82200153D01*
X157020849Y-82153000D01*
X156779151Y-82153000D01*
X156542097Y-82200153D01*
X156318798Y-82292647D01*
X156117833Y-82426927D01*
X155946927Y-82597833D01*
X155812647Y-82798798D01*
X155720153Y-83022097D01*
X155673000Y-83259151D01*
X155673000Y-83500849D01*
X155720153Y-83737903D01*
X155812647Y-83961202D01*
X155946927Y-84162167D01*
X156117833Y-84333073D01*
X156318798Y-84467353D01*
X156542097Y-84559847D01*
X156733905Y-84598000D01*
X154451645Y-84598000D01*
X154540534Y-84589245D01*
X154771824Y-84519084D01*
X154984983Y-84405149D01*
X155171817Y-84251817D01*
X155325149Y-84064983D01*
X155439084Y-83851824D01*
X155509245Y-83620534D01*
X155532936Y-83380000D01*
X155509245Y-83139466D01*
X155439084Y-82908176D01*
X155325149Y-82695017D01*
X155171817Y-82508183D01*
X154984983Y-82354851D01*
X154771824Y-82240916D01*
X154540534Y-82170755D01*
X154360268Y-82153000D01*
X154239732Y-82153000D01*
X154059466Y-82170755D01*
X153828176Y-82240916D01*
X153615017Y-82354851D01*
X153428183Y-82508183D01*
X153274851Y-82695017D01*
X153160916Y-82908176D01*
X153090755Y-83139466D01*
X153067064Y-83380000D01*
X153090755Y-83620534D01*
X153160916Y-83851824D01*
X153274851Y-84064983D01*
X153428183Y-84251817D01*
X153615017Y-84405149D01*
X153828176Y-84519084D01*
X154059466Y-84589245D01*
X154148355Y-84598000D01*
X151866095Y-84598000D01*
X152057903Y-84559847D01*
X152281202Y-84467353D01*
X152482167Y-84333073D01*
X152653073Y-84162167D01*
X152787353Y-83961202D01*
X152879847Y-83737903D01*
X152927000Y-83500849D01*
X152927000Y-83259151D01*
X152879847Y-83022097D01*
X152787353Y-82798798D01*
X152653073Y-82597833D01*
X152482167Y-82426927D01*
X152281202Y-82292647D01*
X152057903Y-82200153D01*
X151820849Y-82153000D01*
X151579151Y-82153000D01*
X151342097Y-82200153D01*
X151118798Y-82292647D01*
X150917833Y-82426927D01*
X150746927Y-82597833D01*
X150612647Y-82798798D01*
X150520153Y-83022097D01*
X150473000Y-83259151D01*
X150473000Y-83500849D01*
X150520153Y-83737903D01*
X150612647Y-83961202D01*
X150746927Y-84162167D01*
X150917833Y-84333073D01*
X151118798Y-84467353D01*
X151342097Y-84559847D01*
X151533905Y-84598000D01*
X150756200Y-84598000D01*
X150250066Y-84091867D01*
X150250066Y-83097000D01*
X150241822Y-83013293D01*
X150217405Y-82932804D01*
X150177755Y-82858624D01*
X150124395Y-82793605D01*
X150059376Y-82740245D01*
X149985196Y-82700595D01*
X149904707Y-82676178D01*
X149821000Y-82667934D01*
X148739263Y-82667934D01*
X148905198Y-82501999D01*
X149660615Y-82501999D01*
X149700001Y-82505878D01*
X149739387Y-82501999D01*
X149739395Y-82501999D01*
X149857220Y-82490394D01*
X150008398Y-82444535D01*
X150147724Y-82370064D01*
X150269844Y-82269842D01*
X150294961Y-82239237D01*
X150407198Y-82127000D01*
X150620849Y-82127000D01*
X150857903Y-82079847D01*
X151081202Y-81987353D01*
X151222857Y-81892702D01*
X154686903Y-81892702D01*
X154758486Y-82136671D01*
X155013996Y-82257571D01*
X155288184Y-82326300D01*
X155570512Y-82340217D01*
X155850130Y-82298787D01*
X156116292Y-82203603D01*
X156241514Y-82136671D01*
X156313097Y-81892702D01*
X155500000Y-81079605D01*
X154686903Y-81892702D01*
X151222857Y-81892702D01*
X151282167Y-81853073D01*
X151453073Y-81682167D01*
X151587353Y-81481202D01*
X151679847Y-81257903D01*
X151727000Y-81020849D01*
X151727000Y-80970512D01*
X154059783Y-80970512D01*
X154101213Y-81250130D01*
X154196397Y-81516292D01*
X154263329Y-81641514D01*
X154507298Y-81713097D01*
X155320395Y-80900000D01*
X155679605Y-80900000D01*
X156492702Y-81713097D01*
X156736671Y-81641514D01*
X156857571Y-81386004D01*
X156926300Y-81111816D01*
X156940217Y-80829488D01*
X156898787Y-80549870D01*
X156803603Y-80283708D01*
X156736671Y-80158486D01*
X156492702Y-80086903D01*
X155679605Y-80900000D01*
X155320395Y-80900000D01*
X154507298Y-80086903D01*
X154263329Y-80158486D01*
X154142429Y-80413996D01*
X154073700Y-80688184D01*
X154059783Y-80970512D01*
X151727000Y-80970512D01*
X151727000Y-80807200D01*
X151839248Y-80694952D01*
X151869842Y-80669844D01*
X151894950Y-80639250D01*
X151894954Y-80639246D01*
X151930320Y-80596152D01*
X151970064Y-80547724D01*
X152044535Y-80408398D01*
X152090394Y-80257220D01*
X152101999Y-80139395D01*
X152101999Y-80139388D01*
X152105878Y-80100002D01*
X152101999Y-80060616D01*
X152101999Y-79907298D01*
X154686903Y-79907298D01*
X155500000Y-80720395D01*
X156313097Y-79907298D01*
X156241514Y-79663329D01*
X155986004Y-79542429D01*
X155711816Y-79473700D01*
X155429488Y-79459783D01*
X155149870Y-79501213D01*
X154883708Y-79596397D01*
X154758486Y-79663329D01*
X154686903Y-79907298D01*
X152101999Y-79907298D01*
X152101999Y-79522199D01*
X153985950Y-77638248D01*
X153967064Y-77830000D01*
X153990755Y-78070534D01*
X154060916Y-78301824D01*
X154174851Y-78514983D01*
X154328183Y-78701817D01*
X154515017Y-78855149D01*
X154728176Y-78969084D01*
X154959466Y-79039245D01*
X155139732Y-79057000D01*
X155260268Y-79057000D01*
X155440534Y-79039245D01*
X155671824Y-78969084D01*
X155884983Y-78855149D01*
X155959662Y-78793861D01*
X157231526Y-80065725D01*
X157196542Y-80181052D01*
X157165128Y-80500000D01*
X157196542Y-80818948D01*
X157289575Y-81125638D01*
X157440654Y-81408286D01*
X157643971Y-81656029D01*
X157891714Y-81859346D01*
X158174362Y-82010425D01*
X158481052Y-82103458D01*
X158720075Y-82127000D01*
X158879925Y-82127000D01*
X159118948Y-82103458D01*
X159425638Y-82010425D01*
X159708286Y-81859346D01*
X159956029Y-81656029D01*
X160159346Y-81408286D01*
X160310425Y-81125638D01*
X160403458Y-80818948D01*
X160434872Y-80500000D01*
X160403458Y-80181052D01*
X160310425Y-79874362D01*
X160159346Y-79591714D01*
X159956029Y-79343971D01*
X159708286Y-79140654D01*
X159425638Y-78989575D01*
X159118948Y-78896542D01*
X158879925Y-78873000D01*
X158720075Y-78873000D01*
X158481052Y-78896542D01*
X158365725Y-78931526D01*
X156724960Y-77290762D01*
X156699843Y-77260157D01*
X156577723Y-77159935D01*
X156438397Y-77085464D01*
X156287219Y-77039605D01*
X156169394Y-77028000D01*
X156169386Y-77028000D01*
X156130000Y-77024121D01*
X156126236Y-77024492D01*
X156071817Y-76958183D01*
X155884983Y-76804851D01*
X155671824Y-76690916D01*
X155440534Y-76620755D01*
X155260268Y-76603000D01*
X155139732Y-76603000D01*
X155008248Y-76615950D01*
X155110115Y-76514083D01*
X155139732Y-76517000D01*
X155260268Y-76517000D01*
X155440534Y-76499245D01*
X155671824Y-76429084D01*
X155884983Y-76315149D01*
X156071817Y-76161817D01*
X156225149Y-75974983D01*
X156339084Y-75761824D01*
X156409245Y-75530534D01*
X156432936Y-75290000D01*
X156430438Y-75264636D01*
X157231526Y-76065725D01*
X157196542Y-76181052D01*
X157165128Y-76500000D01*
X157196542Y-76818948D01*
X157289575Y-77125638D01*
X157440654Y-77408286D01*
X157643971Y-77656029D01*
X157891714Y-77859346D01*
X158174362Y-78010425D01*
X158481052Y-78103458D01*
X158720075Y-78127000D01*
X158879925Y-78127000D01*
X159118948Y-78103458D01*
X159425638Y-78010425D01*
X159708286Y-77859346D01*
X159956029Y-77656029D01*
X160159346Y-77408286D01*
X160310425Y-77125638D01*
X160403458Y-76818948D01*
X160434872Y-76500000D01*
X160403458Y-76181052D01*
X160310425Y-75874362D01*
X160159346Y-75591714D01*
X159956029Y-75343971D01*
X159708286Y-75140654D01*
X159425638Y-74989575D01*
X159118948Y-74896542D01*
X158879925Y-74873000D01*
X158720075Y-74873000D01*
X158481052Y-74896542D01*
X158365725Y-74931526D01*
X157687913Y-74253715D01*
X157807903Y-74229847D01*
X158031202Y-74137353D01*
X158232167Y-74003073D01*
X158403073Y-73832167D01*
X158537353Y-73631202D01*
X158629847Y-73407903D01*
X158677000Y-73170849D01*
X158677000Y-72929151D01*
X158629847Y-72692097D01*
X158537353Y-72468798D01*
X158403073Y-72267833D01*
X158232167Y-72096927D01*
X158031202Y-71962647D01*
X157807903Y-71870153D01*
X157570849Y-71823000D01*
X157329151Y-71823000D01*
X157092097Y-71870153D01*
X157062894Y-71882249D01*
X156434500Y-71253856D01*
X156417211Y-71232789D01*
X156333158Y-71163809D01*
X156237263Y-71112552D01*
X156133211Y-71080988D01*
X156077038Y-71075455D01*
X156225149Y-70894983D01*
X156339084Y-70681824D01*
X156349154Y-70648627D01*
X156362647Y-70681202D01*
X156496927Y-70882167D01*
X156667833Y-71053073D01*
X156868798Y-71187353D01*
X157092097Y-71279847D01*
X157329151Y-71327000D01*
X157570849Y-71327000D01*
X157807903Y-71279847D01*
X158031202Y-71187353D01*
X158232167Y-71053073D01*
X158403073Y-70882167D01*
X158537353Y-70681202D01*
X158629847Y-70457903D01*
X158677000Y-70220849D01*
X158677000Y-69979151D01*
X158629847Y-69742097D01*
X158537353Y-69518798D01*
X158403073Y-69317833D01*
X158237229Y-69151989D01*
X160391345Y-69151989D01*
X163898846Y-72659492D01*
X163898846Y-72659492D01*
G37*
X163898846Y-72659492D02*
X163898857Y-72659501D01*
X163904526Y-72665171D01*
X163860755Y-72809466D01*
X163837064Y-73050000D01*
X163860755Y-73290534D01*
X163930916Y-73521824D01*
X164044851Y-73734983D01*
X164198183Y-73921817D01*
X164385017Y-74075149D01*
X164598176Y-74189084D01*
X164829466Y-74259245D01*
X165009732Y-74277000D01*
X165130268Y-74277000D01*
X165310534Y-74259245D01*
X165541824Y-74189084D01*
X165648000Y-74132332D01*
X165648001Y-79996351D01*
X163971356Y-81672998D01*
X163953397Y-81672998D01*
X163812942Y-81700936D01*
X163680636Y-81755739D01*
X163561564Y-81835300D01*
X163460302Y-81936562D01*
X163380741Y-82055634D01*
X163325938Y-82187940D01*
X163298000Y-82328395D01*
X163298000Y-82471601D01*
X163325938Y-82612056D01*
X163349450Y-82668820D01*
X162568574Y-82668820D01*
X162529180Y-82664940D01*
X162371960Y-82680425D01*
X162280540Y-82708157D01*
X162220783Y-82726284D01*
X162081457Y-82800755D01*
X161959337Y-82900977D01*
X161934224Y-82931577D01*
X160267802Y-84598000D01*
X159666095Y-84598000D01*
X159857903Y-84559847D01*
X160081202Y-84467353D01*
X160282167Y-84333073D01*
X160453073Y-84162167D01*
X160587353Y-83961202D01*
X160679847Y-83737903D01*
X160727000Y-83500849D01*
X160727000Y-83259151D01*
X160679847Y-83022097D01*
X160587353Y-82798798D01*
X160453073Y-82597833D01*
X160282167Y-82426927D01*
X160081202Y-82292647D01*
X159857903Y-82200153D01*
X159620849Y-82153000D01*
X159379151Y-82153000D01*
X159142097Y-82200153D01*
X158918798Y-82292647D01*
X158717833Y-82426927D01*
X158546927Y-82597833D01*
X158412647Y-82798798D01*
X158320153Y-83022097D01*
X158273000Y-83259151D01*
X158273000Y-83500849D01*
X158320153Y-83737903D01*
X158412647Y-83961202D01*
X158546927Y-84162167D01*
X158717833Y-84333073D01*
X158918798Y-84467353D01*
X159142097Y-84559847D01*
X159333905Y-84598000D01*
X157066095Y-84598000D01*
X157257903Y-84559847D01*
X157481202Y-84467353D01*
X157682167Y-84333073D01*
X157853073Y-84162167D01*
X157987353Y-83961202D01*
X158079847Y-83737903D01*
X158127000Y-83500849D01*
X158127000Y-83259151D01*
X158079847Y-83022097D01*
X157987353Y-82798798D01*
X157853073Y-82597833D01*
X157682167Y-82426927D01*
X157481202Y-82292647D01*
X157257903Y-82200153D01*
X157020849Y-82153000D01*
X156779151Y-82153000D01*
X156542097Y-82200153D01*
X156318798Y-82292647D01*
X156117833Y-82426927D01*
X155946927Y-82597833D01*
X155812647Y-82798798D01*
X155720153Y-83022097D01*
X155673000Y-83259151D01*
X155673000Y-83500849D01*
X155720153Y-83737903D01*
X155812647Y-83961202D01*
X155946927Y-84162167D01*
X156117833Y-84333073D01*
X156318798Y-84467353D01*
X156542097Y-84559847D01*
X156733905Y-84598000D01*
X154451645Y-84598000D01*
X154540534Y-84589245D01*
X154771824Y-84519084D01*
X154984983Y-84405149D01*
X155171817Y-84251817D01*
X155325149Y-84064983D01*
X155439084Y-83851824D01*
X155509245Y-83620534D01*
X155532936Y-83380000D01*
X155509245Y-83139466D01*
X155439084Y-82908176D01*
X155325149Y-82695017D01*
X155171817Y-82508183D01*
X154984983Y-82354851D01*
X154771824Y-82240916D01*
X154540534Y-82170755D01*
X154360268Y-82153000D01*
X154239732Y-82153000D01*
X154059466Y-82170755D01*
X153828176Y-82240916D01*
X153615017Y-82354851D01*
X153428183Y-82508183D01*
X153274851Y-82695017D01*
X153160916Y-82908176D01*
X153090755Y-83139466D01*
X153067064Y-83380000D01*
X153090755Y-83620534D01*
X153160916Y-83851824D01*
X153274851Y-84064983D01*
X153428183Y-84251817D01*
X153615017Y-84405149D01*
X153828176Y-84519084D01*
X154059466Y-84589245D01*
X154148355Y-84598000D01*
X151866095Y-84598000D01*
X152057903Y-84559847D01*
X152281202Y-84467353D01*
X152482167Y-84333073D01*
X152653073Y-84162167D01*
X152787353Y-83961202D01*
X152879847Y-83737903D01*
X152927000Y-83500849D01*
X152927000Y-83259151D01*
X152879847Y-83022097D01*
X152787353Y-82798798D01*
X152653073Y-82597833D01*
X152482167Y-82426927D01*
X152281202Y-82292647D01*
X152057903Y-82200153D01*
X151820849Y-82153000D01*
X151579151Y-82153000D01*
X151342097Y-82200153D01*
X151118798Y-82292647D01*
X150917833Y-82426927D01*
X150746927Y-82597833D01*
X150612647Y-82798798D01*
X150520153Y-83022097D01*
X150473000Y-83259151D01*
X150473000Y-83500849D01*
X150520153Y-83737903D01*
X150612647Y-83961202D01*
X150746927Y-84162167D01*
X150917833Y-84333073D01*
X151118798Y-84467353D01*
X151342097Y-84559847D01*
X151533905Y-84598000D01*
X150756200Y-84598000D01*
X150250066Y-84091867D01*
X150250066Y-83097000D01*
X150241822Y-83013293D01*
X150217405Y-82932804D01*
X150177755Y-82858624D01*
X150124395Y-82793605D01*
X150059376Y-82740245D01*
X149985196Y-82700595D01*
X149904707Y-82676178D01*
X149821000Y-82667934D01*
X148739263Y-82667934D01*
X148905198Y-82501999D01*
X149660615Y-82501999D01*
X149700001Y-82505878D01*
X149739387Y-82501999D01*
X149739395Y-82501999D01*
X149857220Y-82490394D01*
X150008398Y-82444535D01*
X150147724Y-82370064D01*
X150269844Y-82269842D01*
X150294961Y-82239237D01*
X150407198Y-82127000D01*
X150620849Y-82127000D01*
X150857903Y-82079847D01*
X151081202Y-81987353D01*
X151222857Y-81892702D01*
X154686903Y-81892702D01*
X154758486Y-82136671D01*
X155013996Y-82257571D01*
X155288184Y-82326300D01*
X155570512Y-82340217D01*
X155850130Y-82298787D01*
X156116292Y-82203603D01*
X156241514Y-82136671D01*
X156313097Y-81892702D01*
X155500000Y-81079605D01*
X154686903Y-81892702D01*
X151222857Y-81892702D01*
X151282167Y-81853073D01*
X151453073Y-81682167D01*
X151587353Y-81481202D01*
X151679847Y-81257903D01*
X151727000Y-81020849D01*
X151727000Y-80970512D01*
X154059783Y-80970512D01*
X154101213Y-81250130D01*
X154196397Y-81516292D01*
X154263329Y-81641514D01*
X154507298Y-81713097D01*
X155320395Y-80900000D01*
X155679605Y-80900000D01*
X156492702Y-81713097D01*
X156736671Y-81641514D01*
X156857571Y-81386004D01*
X156926300Y-81111816D01*
X156940217Y-80829488D01*
X156898787Y-80549870D01*
X156803603Y-80283708D01*
X156736671Y-80158486D01*
X156492702Y-80086903D01*
X155679605Y-80900000D01*
X155320395Y-80900000D01*
X154507298Y-80086903D01*
X154263329Y-80158486D01*
X154142429Y-80413996D01*
X154073700Y-80688184D01*
X154059783Y-80970512D01*
X151727000Y-80970512D01*
X151727000Y-80807200D01*
X151839248Y-80694952D01*
X151869842Y-80669844D01*
X151894950Y-80639250D01*
X151894954Y-80639246D01*
X151930320Y-80596152D01*
X151970064Y-80547724D01*
X152044535Y-80408398D01*
X152090394Y-80257220D01*
X152101999Y-80139395D01*
X152101999Y-80139388D01*
X152105878Y-80100002D01*
X152101999Y-80060616D01*
X152101999Y-79907298D01*
X154686903Y-79907298D01*
X155500000Y-80720395D01*
X156313097Y-79907298D01*
X156241514Y-79663329D01*
X155986004Y-79542429D01*
X155711816Y-79473700D01*
X155429488Y-79459783D01*
X155149870Y-79501213D01*
X154883708Y-79596397D01*
X154758486Y-79663329D01*
X154686903Y-79907298D01*
X152101999Y-79907298D01*
X152101999Y-79522199D01*
X153985950Y-77638248D01*
X153967064Y-77830000D01*
X153990755Y-78070534D01*
X154060916Y-78301824D01*
X154174851Y-78514983D01*
X154328183Y-78701817D01*
X154515017Y-78855149D01*
X154728176Y-78969084D01*
X154959466Y-79039245D01*
X155139732Y-79057000D01*
X155260268Y-79057000D01*
X155440534Y-79039245D01*
X155671824Y-78969084D01*
X155884983Y-78855149D01*
X155959662Y-78793861D01*
X157231526Y-80065725D01*
X157196542Y-80181052D01*
X157165128Y-80500000D01*
X157196542Y-80818948D01*
X157289575Y-81125638D01*
X157440654Y-81408286D01*
X157643971Y-81656029D01*
X157891714Y-81859346D01*
X158174362Y-82010425D01*
X158481052Y-82103458D01*
X158720075Y-82127000D01*
X158879925Y-82127000D01*
X159118948Y-82103458D01*
X159425638Y-82010425D01*
X159708286Y-81859346D01*
X159956029Y-81656029D01*
X160159346Y-81408286D01*
X160310425Y-81125638D01*
X160403458Y-80818948D01*
X160434872Y-80500000D01*
X160403458Y-80181052D01*
X160310425Y-79874362D01*
X160159346Y-79591714D01*
X159956029Y-79343971D01*
X159708286Y-79140654D01*
X159425638Y-78989575D01*
X159118948Y-78896542D01*
X158879925Y-78873000D01*
X158720075Y-78873000D01*
X158481052Y-78896542D01*
X158365725Y-78931526D01*
X156724960Y-77290762D01*
X156699843Y-77260157D01*
X156577723Y-77159935D01*
X156438397Y-77085464D01*
X156287219Y-77039605D01*
X156169394Y-77028000D01*
X156169386Y-77028000D01*
X156130000Y-77024121D01*
X156126236Y-77024492D01*
X156071817Y-76958183D01*
X155884983Y-76804851D01*
X155671824Y-76690916D01*
X155440534Y-76620755D01*
X155260268Y-76603000D01*
X155139732Y-76603000D01*
X155008248Y-76615950D01*
X155110115Y-76514083D01*
X155139732Y-76517000D01*
X155260268Y-76517000D01*
X155440534Y-76499245D01*
X155671824Y-76429084D01*
X155884983Y-76315149D01*
X156071817Y-76161817D01*
X156225149Y-75974983D01*
X156339084Y-75761824D01*
X156409245Y-75530534D01*
X156432936Y-75290000D01*
X156430438Y-75264636D01*
X157231526Y-76065725D01*
X157196542Y-76181052D01*
X157165128Y-76500000D01*
X157196542Y-76818948D01*
X157289575Y-77125638D01*
X157440654Y-77408286D01*
X157643971Y-77656029D01*
X157891714Y-77859346D01*
X158174362Y-78010425D01*
X158481052Y-78103458D01*
X158720075Y-78127000D01*
X158879925Y-78127000D01*
X159118948Y-78103458D01*
X159425638Y-78010425D01*
X159708286Y-77859346D01*
X159956029Y-77656029D01*
X160159346Y-77408286D01*
X160310425Y-77125638D01*
X160403458Y-76818948D01*
X160434872Y-76500000D01*
X160403458Y-76181052D01*
X160310425Y-75874362D01*
X160159346Y-75591714D01*
X159956029Y-75343971D01*
X159708286Y-75140654D01*
X159425638Y-74989575D01*
X159118948Y-74896542D01*
X158879925Y-74873000D01*
X158720075Y-74873000D01*
X158481052Y-74896542D01*
X158365725Y-74931526D01*
X157687913Y-74253715D01*
X157807903Y-74229847D01*
X158031202Y-74137353D01*
X158232167Y-74003073D01*
X158403073Y-73832167D01*
X158537353Y-73631202D01*
X158629847Y-73407903D01*
X158677000Y-73170849D01*
X158677000Y-72929151D01*
X158629847Y-72692097D01*
X158537353Y-72468798D01*
X158403073Y-72267833D01*
X158232167Y-72096927D01*
X158031202Y-71962647D01*
X157807903Y-71870153D01*
X157570849Y-71823000D01*
X157329151Y-71823000D01*
X157092097Y-71870153D01*
X157062894Y-71882249D01*
X156434500Y-71253856D01*
X156417211Y-71232789D01*
X156333158Y-71163809D01*
X156237263Y-71112552D01*
X156133211Y-71080988D01*
X156077038Y-71075455D01*
X156225149Y-70894983D01*
X156339084Y-70681824D01*
X156349154Y-70648627D01*
X156362647Y-70681202D01*
X156496927Y-70882167D01*
X156667833Y-71053073D01*
X156868798Y-71187353D01*
X157092097Y-71279847D01*
X157329151Y-71327000D01*
X157570849Y-71327000D01*
X157807903Y-71279847D01*
X158031202Y-71187353D01*
X158232167Y-71053073D01*
X158403073Y-70882167D01*
X158537353Y-70681202D01*
X158629847Y-70457903D01*
X158677000Y-70220849D01*
X158677000Y-69979151D01*
X158629847Y-69742097D01*
X158537353Y-69518798D01*
X158403073Y-69317833D01*
X158237229Y-69151989D01*
X160391345Y-69151989D01*
X163898846Y-72659492D01*
G36*
X167308176Y-74189084D02*
G01*
X167539466Y-74259245D01*
X167719732Y-74277000D01*
X167840268Y-74277000D01*
X168020534Y-74259245D01*
X168164829Y-74215474D01*
X169947022Y-75997667D01*
X169935525Y-76025422D01*
X169873000Y-76339755D01*
X169873000Y-76660245D01*
X169935525Y-76974578D01*
X170058172Y-77270673D01*
X170236227Y-77537152D01*
X170462848Y-77763773D01*
X170729327Y-77941828D01*
X171025422Y-78064475D01*
X171339755Y-78127000D01*
X171660245Y-78127000D01*
X171974578Y-78064475D01*
X172270673Y-77941828D01*
X172423002Y-77840046D01*
X172423002Y-78796352D01*
X172193252Y-79026103D01*
X171974578Y-78935525D01*
X171660245Y-78873000D01*
X171339755Y-78873000D01*
X171025422Y-78935525D01*
X170729327Y-79058172D01*
X170462848Y-79236227D01*
X170236227Y-79462848D01*
X170058172Y-79729327D01*
X169935525Y-80025422D01*
X169873000Y-80339755D01*
X169873000Y-80660245D01*
X169935525Y-80974578D01*
X170058172Y-81270673D01*
X170236227Y-81537152D01*
X170462848Y-81763773D01*
X170729327Y-81941828D01*
X171025422Y-82064475D01*
X171339755Y-82127000D01*
X171660245Y-82127000D01*
X171974578Y-82064475D01*
X172270673Y-81941828D01*
X172431300Y-81834501D01*
X171596982Y-82668820D01*
X165875550Y-82668820D01*
X165899062Y-82612058D01*
X165927000Y-82471603D01*
X165927000Y-82453644D01*
X167016155Y-81364491D01*
X167037212Y-81347210D01*
X167059280Y-81320320D01*
X167106192Y-81263158D01*
X167157448Y-81167263D01*
X167157449Y-81167262D01*
X167189013Y-81063210D01*
X167197001Y-80982108D01*
X167197001Y-80982098D01*
X167199670Y-80955000D01*
X167197001Y-80927902D01*
X167197001Y-74129660D01*
X167308176Y-74189084D01*
X167308176Y-74189084D01*
G37*
X167308176Y-74189084D02*
X167539466Y-74259245D01*
X167719732Y-74277000D01*
X167840268Y-74277000D01*
X168020534Y-74259245D01*
X168164829Y-74215474D01*
X169947022Y-75997667D01*
X169935525Y-76025422D01*
X169873000Y-76339755D01*
X169873000Y-76660245D01*
X169935525Y-76974578D01*
X170058172Y-77270673D01*
X170236227Y-77537152D01*
X170462848Y-77763773D01*
X170729327Y-77941828D01*
X171025422Y-78064475D01*
X171339755Y-78127000D01*
X171660245Y-78127000D01*
X171974578Y-78064475D01*
X172270673Y-77941828D01*
X172423002Y-77840046D01*
X172423002Y-78796352D01*
X172193252Y-79026103D01*
X171974578Y-78935525D01*
X171660245Y-78873000D01*
X171339755Y-78873000D01*
X171025422Y-78935525D01*
X170729327Y-79058172D01*
X170462848Y-79236227D01*
X170236227Y-79462848D01*
X170058172Y-79729327D01*
X169935525Y-80025422D01*
X169873000Y-80339755D01*
X169873000Y-80660245D01*
X169935525Y-80974578D01*
X170058172Y-81270673D01*
X170236227Y-81537152D01*
X170462848Y-81763773D01*
X170729327Y-81941828D01*
X171025422Y-82064475D01*
X171339755Y-82127000D01*
X171660245Y-82127000D01*
X171974578Y-82064475D01*
X172270673Y-81941828D01*
X172431300Y-81834501D01*
X171596982Y-82668820D01*
X165875550Y-82668820D01*
X165899062Y-82612058D01*
X165927000Y-82471603D01*
X165927000Y-82453644D01*
X167016155Y-81364491D01*
X167037212Y-81347210D01*
X167059280Y-81320320D01*
X167106192Y-81263158D01*
X167157448Y-81167263D01*
X167157449Y-81167262D01*
X167189013Y-81063210D01*
X167197001Y-80982108D01*
X167197001Y-80982098D01*
X167199670Y-80955000D01*
X167197001Y-80927902D01*
X167197001Y-74129660D01*
X167308176Y-74189084D01*
G36*
X154060916Y-72278176D02*
G01*
X153990755Y-72509466D01*
X153967064Y-72750000D01*
X153990755Y-72990534D01*
X154060916Y-73221824D01*
X154174851Y-73434983D01*
X154328183Y-73621817D01*
X154515017Y-73775149D01*
X154728176Y-73889084D01*
X154959466Y-73959245D01*
X155139732Y-73977000D01*
X155142802Y-73977000D01*
X155228802Y-74063000D01*
X155139732Y-74063000D01*
X154959466Y-74080755D01*
X154728176Y-74150916D01*
X154515017Y-74264851D01*
X154328183Y-74418183D01*
X154174851Y-74605017D01*
X154060916Y-74818176D01*
X153990755Y-75049466D01*
X153967064Y-75290000D01*
X153975917Y-75379885D01*
X153860762Y-75495040D01*
X153860757Y-75495044D01*
X150760757Y-78595045D01*
X150730157Y-78620158D01*
X150705044Y-78650758D01*
X150629935Y-78742278D01*
X150555463Y-78881605D01*
X150509604Y-79032782D01*
X150503667Y-79093066D01*
X150497999Y-79150607D01*
X150497999Y-79150615D01*
X150494120Y-79190001D01*
X150497999Y-79229387D01*
X150497999Y-79673000D01*
X150379151Y-79673000D01*
X150142097Y-79720153D01*
X149918798Y-79812647D01*
X149717833Y-79946927D01*
X149546927Y-80117833D01*
X149412647Y-80318798D01*
X149320153Y-80542097D01*
X149273000Y-80779151D01*
X149273000Y-80897999D01*
X148612385Y-80897999D01*
X148572999Y-80894120D01*
X148533613Y-80897999D01*
X148533605Y-80897999D01*
X148429214Y-80908281D01*
X148415779Y-80909604D01*
X148303043Y-80943802D01*
X148264602Y-80955463D01*
X148125276Y-81029934D01*
X148003156Y-81130156D01*
X147978043Y-81160756D01*
X146755200Y-82383600D01*
X146755200Y-78740403D01*
X146895017Y-78855149D01*
X147108176Y-78969084D01*
X147339466Y-79039245D01*
X147519732Y-79057000D01*
X147640268Y-79057000D01*
X147820534Y-79039245D01*
X148051824Y-78969084D01*
X148264983Y-78855149D01*
X148451817Y-78701817D01*
X148605149Y-78514983D01*
X148719084Y-78301824D01*
X148789245Y-78070534D01*
X148812936Y-77830000D01*
X148789245Y-77589466D01*
X148745474Y-77445171D01*
X154013646Y-72177000D01*
X154114995Y-72177000D01*
X154060916Y-72278176D01*
X154060916Y-72278176D01*
G37*
X154060916Y-72278176D02*
X153990755Y-72509466D01*
X153967064Y-72750000D01*
X153990755Y-72990534D01*
X154060916Y-73221824D01*
X154174851Y-73434983D01*
X154328183Y-73621817D01*
X154515017Y-73775149D01*
X154728176Y-73889084D01*
X154959466Y-73959245D01*
X155139732Y-73977000D01*
X155142802Y-73977000D01*
X155228802Y-74063000D01*
X155139732Y-74063000D01*
X154959466Y-74080755D01*
X154728176Y-74150916D01*
X154515017Y-74264851D01*
X154328183Y-74418183D01*
X154174851Y-74605017D01*
X154060916Y-74818176D01*
X153990755Y-75049466D01*
X153967064Y-75290000D01*
X153975917Y-75379885D01*
X153860762Y-75495040D01*
X153860757Y-75495044D01*
X150760757Y-78595045D01*
X150730157Y-78620158D01*
X150705044Y-78650758D01*
X150629935Y-78742278D01*
X150555463Y-78881605D01*
X150509604Y-79032782D01*
X150503667Y-79093066D01*
X150497999Y-79150607D01*
X150497999Y-79150615D01*
X150494120Y-79190001D01*
X150497999Y-79229387D01*
X150497999Y-79673000D01*
X150379151Y-79673000D01*
X150142097Y-79720153D01*
X149918798Y-79812647D01*
X149717833Y-79946927D01*
X149546927Y-80117833D01*
X149412647Y-80318798D01*
X149320153Y-80542097D01*
X149273000Y-80779151D01*
X149273000Y-80897999D01*
X148612385Y-80897999D01*
X148572999Y-80894120D01*
X148533613Y-80897999D01*
X148533605Y-80897999D01*
X148429214Y-80908281D01*
X148415779Y-80909604D01*
X148303043Y-80943802D01*
X148264602Y-80955463D01*
X148125276Y-81029934D01*
X148003156Y-81130156D01*
X147978043Y-81160756D01*
X146755200Y-82383600D01*
X146755200Y-78740403D01*
X146895017Y-78855149D01*
X147108176Y-78969084D01*
X147339466Y-79039245D01*
X147519732Y-79057000D01*
X147640268Y-79057000D01*
X147820534Y-79039245D01*
X148051824Y-78969084D01*
X148264983Y-78855149D01*
X148451817Y-78701817D01*
X148605149Y-78514983D01*
X148719084Y-78301824D01*
X148789245Y-78070534D01*
X148812936Y-77830000D01*
X148789245Y-77589466D01*
X148745474Y-77445171D01*
X154013646Y-72177000D01*
X154114995Y-72177000D01*
X154060916Y-72278176D01*
G36*
X187176904Y-67830005D02*
G01*
X187257393Y-67854422D01*
X187341100Y-67862666D01*
X188682022Y-67862666D01*
X189854020Y-69034665D01*
X189854021Y-80336908D01*
X189515750Y-80338600D01*
X189357000Y-80497350D01*
X189357000Y-81746600D01*
X189377000Y-81746600D01*
X189377000Y-82000600D01*
X189357000Y-82000600D01*
X189357000Y-82020600D01*
X189103000Y-82020600D01*
X189103000Y-82000600D01*
X187853750Y-82000600D01*
X187725697Y-82128653D01*
X187602000Y-82004956D01*
X187602000Y-80436725D01*
X187669276Y-80472684D01*
X187869726Y-80533490D01*
X187799463Y-80619106D01*
X187740498Y-80729420D01*
X187704188Y-80849118D01*
X187691928Y-80973600D01*
X187695000Y-81587850D01*
X187853750Y-81746600D01*
X189103000Y-81746600D01*
X189103000Y-80497350D01*
X188944250Y-80338600D01*
X188851201Y-80338135D01*
X189012917Y-80205417D01*
X189166249Y-80018583D01*
X189280184Y-79805424D01*
X189350345Y-79574134D01*
X189374036Y-79333600D01*
X189350345Y-79093066D01*
X189280184Y-78861776D01*
X189166249Y-78648617D01*
X189012917Y-78461783D01*
X188826083Y-78308451D01*
X188612924Y-78194516D01*
X188381634Y-78124355D01*
X188201368Y-78106600D01*
X188080832Y-78106600D01*
X187904603Y-78123957D01*
X187732512Y-77951866D01*
X187900566Y-78002845D01*
X188080832Y-78020600D01*
X188201368Y-78020600D01*
X188381634Y-78002845D01*
X188612924Y-77932684D01*
X188826083Y-77818749D01*
X189012917Y-77665417D01*
X189166249Y-77478583D01*
X189280184Y-77265424D01*
X189350345Y-77034134D01*
X189374036Y-76793600D01*
X189350345Y-76553066D01*
X189306574Y-76408771D01*
X189587250Y-76128095D01*
X189608312Y-76110810D01*
X189677292Y-76026757D01*
X189728549Y-75930862D01*
X189760113Y-75826810D01*
X189768101Y-75745708D01*
X189768101Y-75745705D01*
X189770771Y-75718599D01*
X189768101Y-75691493D01*
X189768101Y-73764708D01*
X189770771Y-73737599D01*
X189767878Y-73708221D01*
X189760113Y-73629388D01*
X189728549Y-73525336D01*
X189677292Y-73429441D01*
X189639016Y-73382801D01*
X189625593Y-73366445D01*
X189625592Y-73366444D01*
X189608312Y-73345388D01*
X189587255Y-73328107D01*
X188920450Y-72661304D01*
X189012917Y-72585417D01*
X189166249Y-72398583D01*
X189280184Y-72185424D01*
X189350345Y-71954134D01*
X189374036Y-71713600D01*
X189350345Y-71473066D01*
X189280184Y-71241776D01*
X189166249Y-71028617D01*
X189012917Y-70841783D01*
X188826083Y-70688451D01*
X188612924Y-70574516D01*
X188590654Y-70567761D01*
X188550592Y-70518944D01*
X188550591Y-70518943D01*
X188533311Y-70497887D01*
X188512254Y-70480606D01*
X188406845Y-70375197D01*
X188612924Y-70312684D01*
X188826083Y-70198749D01*
X189012917Y-70045417D01*
X189166249Y-69858583D01*
X189280184Y-69645424D01*
X189350345Y-69414134D01*
X189374036Y-69173600D01*
X189350345Y-68933066D01*
X189280184Y-68701776D01*
X189166249Y-68488617D01*
X189012917Y-68301783D01*
X188826083Y-68148451D01*
X188612924Y-68034516D01*
X188381634Y-67964355D01*
X188201368Y-67946600D01*
X188080832Y-67946600D01*
X187900566Y-67964355D01*
X187669276Y-68034516D01*
X187456117Y-68148451D01*
X187269283Y-68301783D01*
X187152000Y-68444692D01*
X187152000Y-67816694D01*
X187176904Y-67830005D01*
X187176904Y-67830005D01*
G37*
X187176904Y-67830005D02*
X187257393Y-67854422D01*
X187341100Y-67862666D01*
X188682022Y-67862666D01*
X189854020Y-69034665D01*
X189854021Y-80336908D01*
X189515750Y-80338600D01*
X189357000Y-80497350D01*
X189357000Y-81746600D01*
X189377000Y-81746600D01*
X189377000Y-82000600D01*
X189357000Y-82000600D01*
X189357000Y-82020600D01*
X189103000Y-82020600D01*
X189103000Y-82000600D01*
X187853750Y-82000600D01*
X187725697Y-82128653D01*
X187602000Y-82004956D01*
X187602000Y-80436725D01*
X187669276Y-80472684D01*
X187869726Y-80533490D01*
X187799463Y-80619106D01*
X187740498Y-80729420D01*
X187704188Y-80849118D01*
X187691928Y-80973600D01*
X187695000Y-81587850D01*
X187853750Y-81746600D01*
X189103000Y-81746600D01*
X189103000Y-80497350D01*
X188944250Y-80338600D01*
X188851201Y-80338135D01*
X189012917Y-80205417D01*
X189166249Y-80018583D01*
X189280184Y-79805424D01*
X189350345Y-79574134D01*
X189374036Y-79333600D01*
X189350345Y-79093066D01*
X189280184Y-78861776D01*
X189166249Y-78648617D01*
X189012917Y-78461783D01*
X188826083Y-78308451D01*
X188612924Y-78194516D01*
X188381634Y-78124355D01*
X188201368Y-78106600D01*
X188080832Y-78106600D01*
X187904603Y-78123957D01*
X187732512Y-77951866D01*
X187900566Y-78002845D01*
X188080832Y-78020600D01*
X188201368Y-78020600D01*
X188381634Y-78002845D01*
X188612924Y-77932684D01*
X188826083Y-77818749D01*
X189012917Y-77665417D01*
X189166249Y-77478583D01*
X189280184Y-77265424D01*
X189350345Y-77034134D01*
X189374036Y-76793600D01*
X189350345Y-76553066D01*
X189306574Y-76408771D01*
X189587250Y-76128095D01*
X189608312Y-76110810D01*
X189677292Y-76026757D01*
X189728549Y-75930862D01*
X189760113Y-75826810D01*
X189768101Y-75745708D01*
X189768101Y-75745705D01*
X189770771Y-75718599D01*
X189768101Y-75691493D01*
X189768101Y-73764708D01*
X189770771Y-73737599D01*
X189767878Y-73708221D01*
X189760113Y-73629388D01*
X189728549Y-73525336D01*
X189677292Y-73429441D01*
X189639016Y-73382801D01*
X189625593Y-73366445D01*
X189625592Y-73366444D01*
X189608312Y-73345388D01*
X189587255Y-73328107D01*
X188920450Y-72661304D01*
X189012917Y-72585417D01*
X189166249Y-72398583D01*
X189280184Y-72185424D01*
X189350345Y-71954134D01*
X189374036Y-71713600D01*
X189350345Y-71473066D01*
X189280184Y-71241776D01*
X189166249Y-71028617D01*
X189012917Y-70841783D01*
X188826083Y-70688451D01*
X188612924Y-70574516D01*
X188590654Y-70567761D01*
X188550592Y-70518944D01*
X188550591Y-70518943D01*
X188533311Y-70497887D01*
X188512254Y-70480606D01*
X188406845Y-70375197D01*
X188612924Y-70312684D01*
X188826083Y-70198749D01*
X189012917Y-70045417D01*
X189166249Y-69858583D01*
X189280184Y-69645424D01*
X189350345Y-69414134D01*
X189374036Y-69173600D01*
X189350345Y-68933066D01*
X189280184Y-68701776D01*
X189166249Y-68488617D01*
X189012917Y-68301783D01*
X188826083Y-68148451D01*
X188612924Y-68034516D01*
X188381634Y-67964355D01*
X188201368Y-67946600D01*
X188080832Y-67946600D01*
X187900566Y-67964355D01*
X187669276Y-68034516D01*
X187456117Y-68148451D01*
X187269283Y-68301783D01*
X187152000Y-68444692D01*
X187152000Y-67816694D01*
X187176904Y-67830005D01*
G36*
X174312647Y-69468798D02*
G01*
X174220153Y-69692097D01*
X174173000Y-69929151D01*
X174173000Y-70170849D01*
X174220153Y-70407903D01*
X174232249Y-70437106D01*
X173878856Y-70790500D01*
X173857789Y-70807789D01*
X173788809Y-70891842D01*
X173737552Y-70987738D01*
X173705988Y-71091790D01*
X173698895Y-71163809D01*
X173695330Y-71200000D01*
X173698000Y-71227106D01*
X173698001Y-73463886D01*
X173695330Y-73491002D01*
X173705989Y-73599212D01*
X173737552Y-73703264D01*
X173788622Y-73798809D01*
X173788810Y-73799160D01*
X173857790Y-73883213D01*
X173878852Y-73900498D01*
X174691404Y-74713051D01*
X174680000Y-74711928D01*
X174665750Y-74715000D01*
X174507000Y-74873750D01*
X174507000Y-75973000D01*
X174527000Y-75973000D01*
X174527000Y-76227000D01*
X174507000Y-76227000D01*
X174507000Y-77326250D01*
X174665750Y-77485000D01*
X174680000Y-77488072D01*
X174804482Y-77475812D01*
X174924180Y-77439502D01*
X175034494Y-77380537D01*
X175131185Y-77301185D01*
X175179088Y-77242815D01*
X175185804Y-77246405D01*
X175266293Y-77270822D01*
X175350000Y-77279066D01*
X175598421Y-77279066D01*
X176590507Y-78271153D01*
X176607789Y-78292211D01*
X176628845Y-78309491D01*
X176691841Y-78361191D01*
X176723682Y-78378210D01*
X176787737Y-78412448D01*
X176891789Y-78444012D01*
X176972891Y-78452000D01*
X176972901Y-78452000D01*
X176999999Y-78454669D01*
X177027097Y-78452000D01*
X180971356Y-78452000D01*
X182857322Y-80337967D01*
X182805804Y-80353595D01*
X182731624Y-80393245D01*
X182666605Y-80446605D01*
X182635000Y-80485116D01*
X182603395Y-80446605D01*
X182538376Y-80393245D01*
X182464196Y-80353595D01*
X182383707Y-80329178D01*
X182300000Y-80320934D01*
X181700000Y-80320934D01*
X181616293Y-80329178D01*
X181535804Y-80353595D01*
X181461624Y-80393245D01*
X181396605Y-80446605D01*
X181365000Y-80485116D01*
X181333395Y-80446605D01*
X181268376Y-80393245D01*
X181194196Y-80353595D01*
X181113707Y-80329178D01*
X181030000Y-80320934D01*
X180430000Y-80320934D01*
X180346293Y-80329178D01*
X180265804Y-80353595D01*
X180191624Y-80393245D01*
X180126605Y-80446605D01*
X180095000Y-80485116D01*
X180063395Y-80446605D01*
X179998376Y-80393245D01*
X179924196Y-80353595D01*
X179843707Y-80329178D01*
X179760000Y-80320934D01*
X179160000Y-80320934D01*
X179076293Y-80329178D01*
X178995804Y-80353595D01*
X178921624Y-80393245D01*
X178856605Y-80446605D01*
X178825000Y-80485116D01*
X178793395Y-80446605D01*
X178728376Y-80393245D01*
X178654196Y-80353595D01*
X178573707Y-80329178D01*
X178490000Y-80320934D01*
X177890000Y-80320934D01*
X177806293Y-80329178D01*
X177725804Y-80353595D01*
X177651624Y-80393245D01*
X177586605Y-80446605D01*
X177555000Y-80485116D01*
X177523395Y-80446605D01*
X177458376Y-80393245D01*
X177384196Y-80353595D01*
X177303707Y-80329178D01*
X177220000Y-80320934D01*
X176620000Y-80320934D01*
X176536293Y-80329178D01*
X176455804Y-80353595D01*
X176381624Y-80393245D01*
X176316605Y-80446605D01*
X176285000Y-80485116D01*
X176253395Y-80446605D01*
X176188376Y-80393245D01*
X176114196Y-80353595D01*
X176033707Y-80329178D01*
X175950000Y-80320934D01*
X175350000Y-80320934D01*
X175266293Y-80329178D01*
X175185804Y-80353595D01*
X175111624Y-80393245D01*
X175046605Y-80446605D01*
X175015000Y-80485116D01*
X174983395Y-80446605D01*
X174918376Y-80393245D01*
X174844196Y-80353595D01*
X174763707Y-80329178D01*
X174680000Y-80320934D01*
X174080000Y-80320934D01*
X173996293Y-80329178D01*
X173915804Y-80353595D01*
X173841624Y-80393245D01*
X173776605Y-80446605D01*
X173723245Y-80511624D01*
X173683595Y-80585804D01*
X173659178Y-80666293D01*
X173652206Y-80737080D01*
X173591603Y-80755464D01*
X173452277Y-80829935D01*
X173452275Y-80829936D01*
X173452276Y-80829936D01*
X173360755Y-80905045D01*
X173360751Y-80905049D01*
X173330157Y-80930157D01*
X173305049Y-80960751D01*
X172834501Y-81431299D01*
X172941828Y-81270673D01*
X173064475Y-80974578D01*
X173127000Y-80660245D01*
X173127000Y-80339755D01*
X173064475Y-80025422D01*
X172973897Y-79806748D01*
X173346155Y-79434491D01*
X173367212Y-79417210D01*
X173408329Y-79367109D01*
X173436192Y-79333158D01*
X173463589Y-79281901D01*
X173487449Y-79237262D01*
X173519013Y-79133210D01*
X173527001Y-79052108D01*
X173527001Y-79052098D01*
X173529670Y-79025000D01*
X173527001Y-78997902D01*
X173527001Y-77162471D01*
X173549463Y-77204494D01*
X173628815Y-77301185D01*
X173725506Y-77380537D01*
X173835820Y-77439502D01*
X173955518Y-77475812D01*
X174080000Y-77488072D01*
X174094250Y-77485000D01*
X174253000Y-77326250D01*
X174253000Y-76227000D01*
X174233000Y-76227000D01*
X174233000Y-75973000D01*
X174253000Y-75973000D01*
X174253000Y-74873750D01*
X174094250Y-74715000D01*
X174080000Y-74711928D01*
X173955518Y-74724188D01*
X173835820Y-74760498D01*
X173725506Y-74819463D01*
X173628815Y-74898815D01*
X173549463Y-74995506D01*
X173502696Y-75083000D01*
X173487449Y-75032738D01*
X173436192Y-74936843D01*
X173367212Y-74852790D01*
X173346150Y-74835505D01*
X168945474Y-70434829D01*
X168989245Y-70290534D01*
X169012936Y-70050000D01*
X168989245Y-69809466D01*
X168919084Y-69578176D01*
X168811554Y-69377000D01*
X174373984Y-69377000D01*
X174312647Y-69468798D01*
X174312647Y-69468798D01*
G37*
X174312647Y-69468798D02*
X174220153Y-69692097D01*
X174173000Y-69929151D01*
X174173000Y-70170849D01*
X174220153Y-70407903D01*
X174232249Y-70437106D01*
X173878856Y-70790500D01*
X173857789Y-70807789D01*
X173788809Y-70891842D01*
X173737552Y-70987738D01*
X173705988Y-71091790D01*
X173698895Y-71163809D01*
X173695330Y-71200000D01*
X173698000Y-71227106D01*
X173698001Y-73463886D01*
X173695330Y-73491002D01*
X173705989Y-73599212D01*
X173737552Y-73703264D01*
X173788622Y-73798809D01*
X173788810Y-73799160D01*
X173857790Y-73883213D01*
X173878852Y-73900498D01*
X174691404Y-74713051D01*
X174680000Y-74711928D01*
X174665750Y-74715000D01*
X174507000Y-74873750D01*
X174507000Y-75973000D01*
X174527000Y-75973000D01*
X174527000Y-76227000D01*
X174507000Y-76227000D01*
X174507000Y-77326250D01*
X174665750Y-77485000D01*
X174680000Y-77488072D01*
X174804482Y-77475812D01*
X174924180Y-77439502D01*
X175034494Y-77380537D01*
X175131185Y-77301185D01*
X175179088Y-77242815D01*
X175185804Y-77246405D01*
X175266293Y-77270822D01*
X175350000Y-77279066D01*
X175598421Y-77279066D01*
X176590507Y-78271153D01*
X176607789Y-78292211D01*
X176628845Y-78309491D01*
X176691841Y-78361191D01*
X176723682Y-78378210D01*
X176787737Y-78412448D01*
X176891789Y-78444012D01*
X176972891Y-78452000D01*
X176972901Y-78452000D01*
X176999999Y-78454669D01*
X177027097Y-78452000D01*
X180971356Y-78452000D01*
X182857322Y-80337967D01*
X182805804Y-80353595D01*
X182731624Y-80393245D01*
X182666605Y-80446605D01*
X182635000Y-80485116D01*
X182603395Y-80446605D01*
X182538376Y-80393245D01*
X182464196Y-80353595D01*
X182383707Y-80329178D01*
X182300000Y-80320934D01*
X181700000Y-80320934D01*
X181616293Y-80329178D01*
X181535804Y-80353595D01*
X181461624Y-80393245D01*
X181396605Y-80446605D01*
X181365000Y-80485116D01*
X181333395Y-80446605D01*
X181268376Y-80393245D01*
X181194196Y-80353595D01*
X181113707Y-80329178D01*
X181030000Y-80320934D01*
X180430000Y-80320934D01*
X180346293Y-80329178D01*
X180265804Y-80353595D01*
X180191624Y-80393245D01*
X180126605Y-80446605D01*
X180095000Y-80485116D01*
X180063395Y-80446605D01*
X179998376Y-80393245D01*
X179924196Y-80353595D01*
X179843707Y-80329178D01*
X179760000Y-80320934D01*
X179160000Y-80320934D01*
X179076293Y-80329178D01*
X178995804Y-80353595D01*
X178921624Y-80393245D01*
X178856605Y-80446605D01*
X178825000Y-80485116D01*
X178793395Y-80446605D01*
X178728376Y-80393245D01*
X178654196Y-80353595D01*
X178573707Y-80329178D01*
X178490000Y-80320934D01*
X177890000Y-80320934D01*
X177806293Y-80329178D01*
X177725804Y-80353595D01*
X177651624Y-80393245D01*
X177586605Y-80446605D01*
X177555000Y-80485116D01*
X177523395Y-80446605D01*
X177458376Y-80393245D01*
X177384196Y-80353595D01*
X177303707Y-80329178D01*
X177220000Y-80320934D01*
X176620000Y-80320934D01*
X176536293Y-80329178D01*
X176455804Y-80353595D01*
X176381624Y-80393245D01*
X176316605Y-80446605D01*
X176285000Y-80485116D01*
X176253395Y-80446605D01*
X176188376Y-80393245D01*
X176114196Y-80353595D01*
X176033707Y-80329178D01*
X175950000Y-80320934D01*
X175350000Y-80320934D01*
X175266293Y-80329178D01*
X175185804Y-80353595D01*
X175111624Y-80393245D01*
X175046605Y-80446605D01*
X175015000Y-80485116D01*
X174983395Y-80446605D01*
X174918376Y-80393245D01*
X174844196Y-80353595D01*
X174763707Y-80329178D01*
X174680000Y-80320934D01*
X174080000Y-80320934D01*
X173996293Y-80329178D01*
X173915804Y-80353595D01*
X173841624Y-80393245D01*
X173776605Y-80446605D01*
X173723245Y-80511624D01*
X173683595Y-80585804D01*
X173659178Y-80666293D01*
X173652206Y-80737080D01*
X173591603Y-80755464D01*
X173452277Y-80829935D01*
X173452275Y-80829936D01*
X173452276Y-80829936D01*
X173360755Y-80905045D01*
X173360751Y-80905049D01*
X173330157Y-80930157D01*
X173305049Y-80960751D01*
X172834501Y-81431299D01*
X172941828Y-81270673D01*
X173064475Y-80974578D01*
X173127000Y-80660245D01*
X173127000Y-80339755D01*
X173064475Y-80025422D01*
X172973897Y-79806748D01*
X173346155Y-79434491D01*
X173367212Y-79417210D01*
X173408329Y-79367109D01*
X173436192Y-79333158D01*
X173463589Y-79281901D01*
X173487449Y-79237262D01*
X173519013Y-79133210D01*
X173527001Y-79052108D01*
X173527001Y-79052098D01*
X173529670Y-79025000D01*
X173527001Y-78997902D01*
X173527001Y-77162471D01*
X173549463Y-77204494D01*
X173628815Y-77301185D01*
X173725506Y-77380537D01*
X173835820Y-77439502D01*
X173955518Y-77475812D01*
X174080000Y-77488072D01*
X174094250Y-77485000D01*
X174253000Y-77326250D01*
X174253000Y-76227000D01*
X174233000Y-76227000D01*
X174233000Y-75973000D01*
X174253000Y-75973000D01*
X174253000Y-74873750D01*
X174094250Y-74715000D01*
X174080000Y-74711928D01*
X173955518Y-74724188D01*
X173835820Y-74760498D01*
X173725506Y-74819463D01*
X173628815Y-74898815D01*
X173549463Y-74995506D01*
X173502696Y-75083000D01*
X173487449Y-75032738D01*
X173436192Y-74936843D01*
X173367212Y-74852790D01*
X173346150Y-74835505D01*
X168945474Y-70434829D01*
X168989245Y-70290534D01*
X169012936Y-70050000D01*
X168989245Y-69809466D01*
X168919084Y-69578176D01*
X168811554Y-69377000D01*
X174373984Y-69377000D01*
X174312647Y-69468798D01*
G36*
X154060916Y-69738176D02*
G01*
X153990755Y-69969466D01*
X153967064Y-70210000D01*
X153990755Y-70450534D01*
X154060916Y-70681824D01*
X154174851Y-70894983D01*
X154320947Y-71073000D01*
X153812105Y-71073000D01*
X153784999Y-71070330D01*
X153757893Y-71073000D01*
X153757891Y-71073000D01*
X153676789Y-71080988D01*
X153572737Y-71112552D01*
X153476842Y-71163809D01*
X153392789Y-71232789D01*
X153375508Y-71253846D01*
X148963888Y-75665467D01*
X148971904Y-75639039D01*
X148849915Y-75417000D01*
X147707000Y-75417000D01*
X147707000Y-75437000D01*
X147453000Y-75437000D01*
X147453000Y-75417000D01*
X147433000Y-75417000D01*
X147433000Y-75163000D01*
X147453000Y-75163000D01*
X147453000Y-75143000D01*
X147707000Y-75143000D01*
X147707000Y-75163000D01*
X148849915Y-75163000D01*
X148971904Y-74940961D01*
X148931246Y-74806913D01*
X148811037Y-74552580D01*
X148643519Y-74326586D01*
X148435131Y-74137615D01*
X148193881Y-73992930D01*
X147971733Y-73913379D01*
X148051824Y-73889084D01*
X148264983Y-73775149D01*
X148451817Y-73621817D01*
X148605149Y-73434983D01*
X148719084Y-73221824D01*
X148789245Y-72990534D01*
X148812936Y-72750000D01*
X148789245Y-72509466D01*
X148745474Y-72365171D01*
X151558646Y-69552000D01*
X154160428Y-69552000D01*
X154060916Y-69738176D01*
X154060916Y-69738176D01*
G37*
X154060916Y-69738176D02*
X153990755Y-69969466D01*
X153967064Y-70210000D01*
X153990755Y-70450534D01*
X154060916Y-70681824D01*
X154174851Y-70894983D01*
X154320947Y-71073000D01*
X153812105Y-71073000D01*
X153784999Y-71070330D01*
X153757893Y-71073000D01*
X153757891Y-71073000D01*
X153676789Y-71080988D01*
X153572737Y-71112552D01*
X153476842Y-71163809D01*
X153392789Y-71232789D01*
X153375508Y-71253846D01*
X148963888Y-75665467D01*
X148971904Y-75639039D01*
X148849915Y-75417000D01*
X147707000Y-75417000D01*
X147707000Y-75437000D01*
X147453000Y-75437000D01*
X147453000Y-75417000D01*
X147433000Y-75417000D01*
X147433000Y-75163000D01*
X147453000Y-75163000D01*
X147453000Y-75143000D01*
X147707000Y-75143000D01*
X147707000Y-75163000D01*
X148849915Y-75163000D01*
X148971904Y-74940961D01*
X148931246Y-74806913D01*
X148811037Y-74552580D01*
X148643519Y-74326586D01*
X148435131Y-74137615D01*
X148193881Y-73992930D01*
X147971733Y-73913379D01*
X148051824Y-73889084D01*
X148264983Y-73775149D01*
X148451817Y-73621817D01*
X148605149Y-73434983D01*
X148719084Y-73221824D01*
X148789245Y-72990534D01*
X148812936Y-72750000D01*
X148789245Y-72509466D01*
X148745474Y-72365171D01*
X151558646Y-69552000D01*
X154160428Y-69552000D01*
X154060916Y-69738176D01*
G36*
X167308176Y-71189084D02*
G01*
X167539466Y-71259245D01*
X167719732Y-71277000D01*
X167840268Y-71277000D01*
X168020534Y-71259245D01*
X168164829Y-71215474D01*
X171862608Y-74913253D01*
X171660245Y-74873000D01*
X171339755Y-74873000D01*
X171025422Y-74935525D01*
X170729327Y-75058172D01*
X170633108Y-75122463D01*
X168945474Y-73434829D01*
X168989245Y-73290534D01*
X169012936Y-73050000D01*
X168989245Y-72809466D01*
X168919084Y-72578176D01*
X168805149Y-72365017D01*
X168651817Y-72178183D01*
X168464983Y-72024851D01*
X168251824Y-71910916D01*
X168020534Y-71840755D01*
X167840268Y-71823000D01*
X167719732Y-71823000D01*
X167539466Y-71840755D01*
X167308176Y-71910916D01*
X167197001Y-71970340D01*
X167197001Y-71129660D01*
X167308176Y-71189084D01*
X167308176Y-71189084D01*
G37*
X167308176Y-71189084D02*
X167539466Y-71259245D01*
X167719732Y-71277000D01*
X167840268Y-71277000D01*
X168020534Y-71259245D01*
X168164829Y-71215474D01*
X171862608Y-74913253D01*
X171660245Y-74873000D01*
X171339755Y-74873000D01*
X171025422Y-74935525D01*
X170729327Y-75058172D01*
X170633108Y-75122463D01*
X168945474Y-73434829D01*
X168989245Y-73290534D01*
X169012936Y-73050000D01*
X168989245Y-72809466D01*
X168919084Y-72578176D01*
X168805149Y-72365017D01*
X168651817Y-72178183D01*
X168464983Y-72024851D01*
X168251824Y-71910916D01*
X168020534Y-71840755D01*
X167840268Y-71823000D01*
X167719732Y-71823000D01*
X167539466Y-71840755D01*
X167308176Y-71910916D01*
X167197001Y-71970340D01*
X167197001Y-71129660D01*
X167308176Y-71189084D01*
G36*
X181067101Y-74167223D02*
G01*
X181151154Y-74236203D01*
X181247049Y-74287460D01*
X181325273Y-74311189D01*
X181351101Y-74319024D01*
X181459312Y-74329682D01*
X181486420Y-74327012D01*
X182793406Y-74327012D01*
X182964394Y-74498000D01*
X180297250Y-74498000D01*
X180226250Y-74427000D01*
X179427000Y-74427000D01*
X179427000Y-74447000D01*
X179173000Y-74447000D01*
X179173000Y-74427000D01*
X179153000Y-74427000D01*
X179153000Y-74173000D01*
X179173000Y-74173000D01*
X179173000Y-74153000D01*
X179427000Y-74153000D01*
X179427000Y-74173000D01*
X180226250Y-74173000D01*
X180247239Y-74152011D01*
X181054617Y-74152011D01*
X181067101Y-74167223D01*
X181067101Y-74167223D01*
G37*
X181067101Y-74167223D02*
X181151154Y-74236203D01*
X181247049Y-74287460D01*
X181325273Y-74311189D01*
X181351101Y-74319024D01*
X181459312Y-74329682D01*
X181486420Y-74327012D01*
X182793406Y-74327012D01*
X182964394Y-74498000D01*
X180297250Y-74498000D01*
X180226250Y-74427000D01*
X179427000Y-74427000D01*
X179427000Y-74447000D01*
X179173000Y-74447000D01*
X179173000Y-74427000D01*
X179153000Y-74427000D01*
X179153000Y-74173000D01*
X179173000Y-74173000D01*
X179173000Y-74153000D01*
X179427000Y-74153000D01*
X179427000Y-74173000D01*
X180226250Y-74173000D01*
X180247239Y-74152011D01*
X181054617Y-74152011D01*
X181067101Y-74167223D01*
G36*
X181915000Y-72414250D02*
G01*
X182073750Y-72573000D01*
X182873000Y-72573000D01*
X182873000Y-72553000D01*
X183127000Y-72553000D01*
X183127000Y-72573000D01*
X183147000Y-72573000D01*
X183147000Y-72823001D01*
X181853645Y-72823001D01*
X181809500Y-72778856D01*
X181792211Y-72757789D01*
X181708158Y-72688809D01*
X181612263Y-72637552D01*
X181508211Y-72605988D01*
X181427109Y-72598000D01*
X181427106Y-72598000D01*
X181400000Y-72595330D01*
X181372894Y-72598000D01*
X180179066Y-72598000D01*
X180179066Y-72361849D01*
X180193245Y-72388376D01*
X180246605Y-72453395D01*
X180311624Y-72506755D01*
X180385804Y-72546405D01*
X180466293Y-72570822D01*
X180550000Y-72579066D01*
X181450000Y-72579066D01*
X181533707Y-72570822D01*
X181614196Y-72546405D01*
X181688376Y-72506755D01*
X181753395Y-72453395D01*
X181806755Y-72388376D01*
X181846405Y-72314196D01*
X181850105Y-72302000D01*
X181911982Y-72302000D01*
X181915000Y-72414250D01*
X181915000Y-72414250D01*
G37*
X181915000Y-72414250D02*
X182073750Y-72573000D01*
X182873000Y-72573000D01*
X182873000Y-72553000D01*
X183127000Y-72553000D01*
X183127000Y-72573000D01*
X183147000Y-72573000D01*
X183147000Y-72823001D01*
X181853645Y-72823001D01*
X181809500Y-72778856D01*
X181792211Y-72757789D01*
X181708158Y-72688809D01*
X181612263Y-72637552D01*
X181508211Y-72605988D01*
X181427109Y-72598000D01*
X181427106Y-72598000D01*
X181400000Y-72595330D01*
X181372894Y-72598000D01*
X180179066Y-72598000D01*
X180179066Y-72361849D01*
X180193245Y-72388376D01*
X180246605Y-72453395D01*
X180311624Y-72506755D01*
X180385804Y-72546405D01*
X180466293Y-72570822D01*
X180550000Y-72579066D01*
X181450000Y-72579066D01*
X181533707Y-72570822D01*
X181614196Y-72546405D01*
X181688376Y-72506755D01*
X181753395Y-72453395D01*
X181806755Y-72388376D01*
X181846405Y-72314196D01*
X181850105Y-72302000D01*
X181911982Y-72302000D01*
X181915000Y-72414250D01*
G36*
X180297770Y-69755191D02*
G01*
X180318973Y-69781027D01*
X180422059Y-69865628D01*
X180539670Y-69928492D01*
X180667285Y-69967204D01*
X180766748Y-69977000D01*
X180766757Y-69977000D01*
X180799999Y-69980274D01*
X180833241Y-69977000D01*
X182323000Y-69977000D01*
X182323000Y-70037164D01*
X182311624Y-70043245D01*
X182246605Y-70096605D01*
X182193245Y-70161624D01*
X182153595Y-70235804D01*
X182129178Y-70316293D01*
X182120934Y-70400000D01*
X182120934Y-71198000D01*
X181850105Y-71198000D01*
X181846405Y-71185804D01*
X181806755Y-71111624D01*
X181753395Y-71046605D01*
X181688376Y-70993245D01*
X181614196Y-70953595D01*
X181533707Y-70929178D01*
X181450000Y-70920934D01*
X180550000Y-70920934D01*
X180466293Y-70929178D01*
X180385804Y-70953595D01*
X180311624Y-70993245D01*
X180246605Y-71046605D01*
X180246267Y-71047017D01*
X180226250Y-71027000D01*
X179427000Y-71027000D01*
X179427000Y-71047000D01*
X179173000Y-71047000D01*
X179173000Y-71027000D01*
X179153000Y-71027000D01*
X179153000Y-70773000D01*
X179173000Y-70773000D01*
X179173000Y-70023750D01*
X179427000Y-70023750D01*
X179427000Y-70773000D01*
X180226250Y-70773000D01*
X180385000Y-70614250D01*
X180388072Y-70500000D01*
X180375812Y-70375518D01*
X180339502Y-70255820D01*
X180280537Y-70145506D01*
X180201185Y-70048815D01*
X180104494Y-69969463D01*
X179994180Y-69910498D01*
X179874482Y-69874188D01*
X179750000Y-69861928D01*
X179585750Y-69865000D01*
X179427000Y-70023750D01*
X179173000Y-70023750D01*
X179014250Y-69865000D01*
X178952001Y-69863836D01*
X178952001Y-69829066D01*
X179750000Y-69829066D01*
X179833707Y-69820822D01*
X179914196Y-69796405D01*
X179988376Y-69756755D01*
X180053395Y-69703395D01*
X180075057Y-69677000D01*
X180219579Y-69677000D01*
X180297770Y-69755191D01*
X180297770Y-69755191D01*
G37*
X180297770Y-69755191D02*
X180318973Y-69781027D01*
X180422059Y-69865628D01*
X180539670Y-69928492D01*
X180667285Y-69967204D01*
X180766748Y-69977000D01*
X180766757Y-69977000D01*
X180799999Y-69980274D01*
X180833241Y-69977000D01*
X182323000Y-69977000D01*
X182323000Y-70037164D01*
X182311624Y-70043245D01*
X182246605Y-70096605D01*
X182193245Y-70161624D01*
X182153595Y-70235804D01*
X182129178Y-70316293D01*
X182120934Y-70400000D01*
X182120934Y-71198000D01*
X181850105Y-71198000D01*
X181846405Y-71185804D01*
X181806755Y-71111624D01*
X181753395Y-71046605D01*
X181688376Y-70993245D01*
X181614196Y-70953595D01*
X181533707Y-70929178D01*
X181450000Y-70920934D01*
X180550000Y-70920934D01*
X180466293Y-70929178D01*
X180385804Y-70953595D01*
X180311624Y-70993245D01*
X180246605Y-71046605D01*
X180246267Y-71047017D01*
X180226250Y-71027000D01*
X179427000Y-71027000D01*
X179427000Y-71047000D01*
X179173000Y-71047000D01*
X179173000Y-71027000D01*
X179153000Y-71027000D01*
X179153000Y-70773000D01*
X179173000Y-70773000D01*
X179173000Y-70023750D01*
X179427000Y-70023750D01*
X179427000Y-70773000D01*
X180226250Y-70773000D01*
X180385000Y-70614250D01*
X180388072Y-70500000D01*
X180375812Y-70375518D01*
X180339502Y-70255820D01*
X180280537Y-70145506D01*
X180201185Y-70048815D01*
X180104494Y-69969463D01*
X179994180Y-69910498D01*
X179874482Y-69874188D01*
X179750000Y-69861928D01*
X179585750Y-69865000D01*
X179427000Y-70023750D01*
X179173000Y-70023750D01*
X179014250Y-69865000D01*
X178952001Y-69863836D01*
X178952001Y-69829066D01*
X179750000Y-69829066D01*
X179833707Y-69820822D01*
X179914196Y-69796405D01*
X179988376Y-69756755D01*
X180053395Y-69703395D01*
X180075057Y-69677000D01*
X180219579Y-69677000D01*
X180297770Y-69755191D01*
G36*
X146837332Y-68135001D02*
G01*
X147043889Y-68245408D01*
X147268016Y-68313396D01*
X147501100Y-68336353D01*
X147734185Y-68313396D01*
X147958312Y-68245408D01*
X148158018Y-68138663D01*
X148990496Y-68971142D01*
X149007778Y-68992200D01*
X149028834Y-69009480D01*
X149028835Y-69009481D01*
X149091831Y-69061180D01*
X149187726Y-69112437D01*
X149291778Y-69144001D01*
X149399989Y-69154659D01*
X149427097Y-69151989D01*
X150397365Y-69151989D01*
X148809066Y-70740289D01*
X148809066Y-69410000D01*
X148800822Y-69326293D01*
X148776405Y-69245804D01*
X148736755Y-69171624D01*
X148683395Y-69106605D01*
X148618376Y-69053245D01*
X148544196Y-69013595D01*
X148463707Y-68989178D01*
X148380000Y-68980934D01*
X146780000Y-68980934D01*
X146755200Y-68983376D01*
X146755200Y-68067597D01*
X146837332Y-68135001D01*
X146837332Y-68135001D01*
G37*
X146837332Y-68135001D02*
X147043889Y-68245408D01*
X147268016Y-68313396D01*
X147501100Y-68336353D01*
X147734185Y-68313396D01*
X147958312Y-68245408D01*
X148158018Y-68138663D01*
X148990496Y-68971142D01*
X149007778Y-68992200D01*
X149028834Y-69009480D01*
X149028835Y-69009481D01*
X149091831Y-69061180D01*
X149187726Y-69112437D01*
X149291778Y-69144001D01*
X149399989Y-69154659D01*
X149427097Y-69151989D01*
X150397365Y-69151989D01*
X148809066Y-70740289D01*
X148809066Y-69410000D01*
X148800822Y-69326293D01*
X148776405Y-69245804D01*
X148736755Y-69171624D01*
X148683395Y-69106605D01*
X148618376Y-69053245D01*
X148544196Y-69013595D01*
X148463707Y-68989178D01*
X148380000Y-68980934D01*
X146780000Y-68980934D01*
X146755200Y-68983376D01*
X146755200Y-68067597D01*
X146837332Y-68135001D01*
G36*
X180656405Y-64510735D02*
G01*
X180264058Y-64772893D01*
X179930393Y-65106558D01*
X179668235Y-65498905D01*
X179487658Y-65934858D01*
X179395600Y-66397664D01*
X179395600Y-66869536D01*
X179487658Y-67332342D01*
X179668235Y-67768295D01*
X179930393Y-68160642D01*
X180092751Y-68323000D01*
X180075057Y-68323000D01*
X180053395Y-68296605D01*
X179988376Y-68243245D01*
X179914196Y-68203595D01*
X179833707Y-68179178D01*
X179750000Y-68170934D01*
X178850000Y-68170934D01*
X178766293Y-68179178D01*
X178685804Y-68203595D01*
X178611624Y-68243245D01*
X178546605Y-68296605D01*
X178524943Y-68323000D01*
X178280422Y-68323000D01*
X178257637Y-68300215D01*
X178438312Y-68245408D01*
X178644869Y-68135001D01*
X178825918Y-67986418D01*
X178974501Y-67805369D01*
X179084908Y-67598812D01*
X179152896Y-67374685D01*
X179170100Y-67200011D01*
X179170100Y-66067189D01*
X179152896Y-65892515D01*
X179084908Y-65668388D01*
X178974501Y-65461831D01*
X178825918Y-65280782D01*
X178644868Y-65132199D01*
X178438311Y-65021792D01*
X178214184Y-64953804D01*
X177981100Y-64930847D01*
X177748015Y-64953804D01*
X177523888Y-65021792D01*
X177317331Y-65132199D01*
X177136282Y-65280782D01*
X176987699Y-65461832D01*
X176877292Y-65668389D01*
X176809304Y-65892516D01*
X176792100Y-66067190D01*
X176792100Y-67200011D01*
X176809304Y-67374685D01*
X176877292Y-67598812D01*
X176987700Y-67805369D01*
X177136283Y-67986418D01*
X177180858Y-68023000D01*
X176241343Y-68023000D01*
X176285918Y-67986418D01*
X176434501Y-67805369D01*
X176544908Y-67598812D01*
X176612896Y-67374685D01*
X176630100Y-67200011D01*
X176630100Y-66067189D01*
X176612896Y-65892515D01*
X176544908Y-65668388D01*
X176434501Y-65461831D01*
X176285918Y-65280782D01*
X176104868Y-65132199D01*
X175898311Y-65021792D01*
X175674184Y-64953804D01*
X175441100Y-64930847D01*
X175208015Y-64953804D01*
X174983888Y-65021792D01*
X174777331Y-65132199D01*
X174596282Y-65280782D01*
X174447699Y-65461832D01*
X174337292Y-65668389D01*
X174269304Y-65892516D01*
X174252100Y-66067190D01*
X174252100Y-67200011D01*
X174269304Y-67374685D01*
X174337292Y-67598812D01*
X174447700Y-67805369D01*
X174596283Y-67986418D01*
X174640858Y-68023000D01*
X168217803Y-68023000D01*
X168304099Y-67996825D01*
X168566920Y-67871641D01*
X168800269Y-67697588D01*
X168995178Y-67481355D01*
X169144157Y-67231252D01*
X169178176Y-67135350D01*
X169273076Y-67312896D01*
X169432656Y-67507344D01*
X169627104Y-67666924D01*
X169848949Y-67785502D01*
X170089664Y-67858522D01*
X170277274Y-67877000D01*
X170402726Y-67877000D01*
X170590336Y-67858522D01*
X170831051Y-67785502D01*
X171052896Y-67666924D01*
X171247344Y-67507344D01*
X171406924Y-67312896D01*
X171525502Y-67091051D01*
X171598522Y-66850336D01*
X171600934Y-66825847D01*
X171600934Y-67450000D01*
X171609178Y-67533707D01*
X171633595Y-67614196D01*
X171673245Y-67688376D01*
X171726605Y-67753395D01*
X171791624Y-67806755D01*
X171865804Y-67846405D01*
X171946293Y-67870822D01*
X172030000Y-67879066D01*
X173730000Y-67879066D01*
X173813707Y-67870822D01*
X173894196Y-67846405D01*
X173968376Y-67806755D01*
X174033395Y-67753395D01*
X174086755Y-67688376D01*
X174126405Y-67614196D01*
X174150822Y-67533707D01*
X174159066Y-67450000D01*
X174159066Y-65750000D01*
X174150822Y-65666293D01*
X174126405Y-65585804D01*
X174086755Y-65511624D01*
X174033395Y-65446605D01*
X173968376Y-65393245D01*
X173894196Y-65353595D01*
X173813707Y-65329178D01*
X173730000Y-65320934D01*
X172030000Y-65320934D01*
X171946293Y-65329178D01*
X171865804Y-65353595D01*
X171791624Y-65393245D01*
X171726605Y-65446605D01*
X171673245Y-65511624D01*
X171633595Y-65585804D01*
X171609178Y-65666293D01*
X171600934Y-65750000D01*
X171600934Y-66374153D01*
X171598522Y-66349664D01*
X171525502Y-66108949D01*
X171406924Y-65887104D01*
X171247344Y-65692656D01*
X171052896Y-65533076D01*
X170831051Y-65414498D01*
X170590336Y-65341478D01*
X170402726Y-65323000D01*
X170277274Y-65323000D01*
X170089664Y-65341478D01*
X169915082Y-65394437D01*
X169238090Y-64717446D01*
X169220801Y-64696379D01*
X169136748Y-64627399D01*
X169040853Y-64576142D01*
X168936801Y-64544578D01*
X168855699Y-64536590D01*
X168855696Y-64536590D01*
X168828590Y-64533920D01*
X168801484Y-64536590D01*
X156738515Y-64536590D01*
X156711409Y-64533920D01*
X156684303Y-64536590D01*
X156684301Y-64536590D01*
X156603199Y-64544578D01*
X156499147Y-64576142D01*
X156403252Y-64627399D01*
X156319199Y-64696379D01*
X156301918Y-64717436D01*
X155841049Y-65178305D01*
X155784868Y-65132199D01*
X155578311Y-65021792D01*
X155354184Y-64953804D01*
X155121100Y-64930847D01*
X154888015Y-64953804D01*
X154663888Y-65021792D01*
X154457331Y-65132199D01*
X154276282Y-65280782D01*
X154127699Y-65461832D01*
X154017292Y-65668389D01*
X153949304Y-65892516D01*
X153932100Y-66067190D01*
X153932100Y-67200011D01*
X153949304Y-67374685D01*
X154017292Y-67598812D01*
X154043572Y-67647978D01*
X153658628Y-67647978D01*
X153684908Y-67598812D01*
X153752896Y-67374685D01*
X153770100Y-67200011D01*
X153770100Y-66067189D01*
X153752896Y-65892515D01*
X153684908Y-65668388D01*
X153574501Y-65461831D01*
X153425918Y-65280782D01*
X153244868Y-65132199D01*
X153038311Y-65021792D01*
X152814184Y-64953804D01*
X152581100Y-64930847D01*
X152348015Y-64953804D01*
X152123888Y-65021792D01*
X151917331Y-65132199D01*
X151736282Y-65280782D01*
X151587699Y-65461832D01*
X151477292Y-65668389D01*
X151409304Y-65892516D01*
X151392100Y-66067190D01*
X151392100Y-67200011D01*
X151392531Y-67204386D01*
X151230100Y-67041955D01*
X151230100Y-66067189D01*
X151212896Y-65892515D01*
X151144908Y-65668388D01*
X151034501Y-65461831D01*
X150885918Y-65280782D01*
X150704868Y-65132199D01*
X150498311Y-65021792D01*
X150274184Y-64953804D01*
X150041100Y-64930847D01*
X149808015Y-64953804D01*
X149583888Y-65021792D01*
X149377331Y-65132199D01*
X149196282Y-65280782D01*
X149047699Y-65461832D01*
X148937292Y-65668389D01*
X148869304Y-65892516D01*
X148852100Y-66067190D01*
X148852100Y-67200011D01*
X148859905Y-67279260D01*
X148690100Y-67109455D01*
X148690100Y-66067189D01*
X148672896Y-65892515D01*
X148604908Y-65668388D01*
X148494501Y-65461831D01*
X148345918Y-65280782D01*
X148164868Y-65132199D01*
X147958311Y-65021792D01*
X147734184Y-64953804D01*
X147501100Y-64930847D01*
X147268015Y-64953804D01*
X147043888Y-65021792D01*
X146837331Y-65132199D01*
X146755200Y-65199602D01*
X146755200Y-64383000D01*
X180964786Y-64383000D01*
X180656405Y-64510735D01*
X180656405Y-64510735D01*
G37*
X180656405Y-64510735D02*
X180264058Y-64772893D01*
X179930393Y-65106558D01*
X179668235Y-65498905D01*
X179487658Y-65934858D01*
X179395600Y-66397664D01*
X179395600Y-66869536D01*
X179487658Y-67332342D01*
X179668235Y-67768295D01*
X179930393Y-68160642D01*
X180092751Y-68323000D01*
X180075057Y-68323000D01*
X180053395Y-68296605D01*
X179988376Y-68243245D01*
X179914196Y-68203595D01*
X179833707Y-68179178D01*
X179750000Y-68170934D01*
X178850000Y-68170934D01*
X178766293Y-68179178D01*
X178685804Y-68203595D01*
X178611624Y-68243245D01*
X178546605Y-68296605D01*
X178524943Y-68323000D01*
X178280422Y-68323000D01*
X178257637Y-68300215D01*
X178438312Y-68245408D01*
X178644869Y-68135001D01*
X178825918Y-67986418D01*
X178974501Y-67805369D01*
X179084908Y-67598812D01*
X179152896Y-67374685D01*
X179170100Y-67200011D01*
X179170100Y-66067189D01*
X179152896Y-65892515D01*
X179084908Y-65668388D01*
X178974501Y-65461831D01*
X178825918Y-65280782D01*
X178644868Y-65132199D01*
X178438311Y-65021792D01*
X178214184Y-64953804D01*
X177981100Y-64930847D01*
X177748015Y-64953804D01*
X177523888Y-65021792D01*
X177317331Y-65132199D01*
X177136282Y-65280782D01*
X176987699Y-65461832D01*
X176877292Y-65668389D01*
X176809304Y-65892516D01*
X176792100Y-66067190D01*
X176792100Y-67200011D01*
X176809304Y-67374685D01*
X176877292Y-67598812D01*
X176987700Y-67805369D01*
X177136283Y-67986418D01*
X177180858Y-68023000D01*
X176241343Y-68023000D01*
X176285918Y-67986418D01*
X176434501Y-67805369D01*
X176544908Y-67598812D01*
X176612896Y-67374685D01*
X176630100Y-67200011D01*
X176630100Y-66067189D01*
X176612896Y-65892515D01*
X176544908Y-65668388D01*
X176434501Y-65461831D01*
X176285918Y-65280782D01*
X176104868Y-65132199D01*
X175898311Y-65021792D01*
X175674184Y-64953804D01*
X175441100Y-64930847D01*
X175208015Y-64953804D01*
X174983888Y-65021792D01*
X174777331Y-65132199D01*
X174596282Y-65280782D01*
X174447699Y-65461832D01*
X174337292Y-65668389D01*
X174269304Y-65892516D01*
X174252100Y-66067190D01*
X174252100Y-67200011D01*
X174269304Y-67374685D01*
X174337292Y-67598812D01*
X174447700Y-67805369D01*
X174596283Y-67986418D01*
X174640858Y-68023000D01*
X168217803Y-68023000D01*
X168304099Y-67996825D01*
X168566920Y-67871641D01*
X168800269Y-67697588D01*
X168995178Y-67481355D01*
X169144157Y-67231252D01*
X169178176Y-67135350D01*
X169273076Y-67312896D01*
X169432656Y-67507344D01*
X169627104Y-67666924D01*
X169848949Y-67785502D01*
X170089664Y-67858522D01*
X170277274Y-67877000D01*
X170402726Y-67877000D01*
X170590336Y-67858522D01*
X170831051Y-67785502D01*
X171052896Y-67666924D01*
X171247344Y-67507344D01*
X171406924Y-67312896D01*
X171525502Y-67091051D01*
X171598522Y-66850336D01*
X171600934Y-66825847D01*
X171600934Y-67450000D01*
X171609178Y-67533707D01*
X171633595Y-67614196D01*
X171673245Y-67688376D01*
X171726605Y-67753395D01*
X171791624Y-67806755D01*
X171865804Y-67846405D01*
X171946293Y-67870822D01*
X172030000Y-67879066D01*
X173730000Y-67879066D01*
X173813707Y-67870822D01*
X173894196Y-67846405D01*
X173968376Y-67806755D01*
X174033395Y-67753395D01*
X174086755Y-67688376D01*
X174126405Y-67614196D01*
X174150822Y-67533707D01*
X174159066Y-67450000D01*
X174159066Y-65750000D01*
X174150822Y-65666293D01*
X174126405Y-65585804D01*
X174086755Y-65511624D01*
X174033395Y-65446605D01*
X173968376Y-65393245D01*
X173894196Y-65353595D01*
X173813707Y-65329178D01*
X173730000Y-65320934D01*
X172030000Y-65320934D01*
X171946293Y-65329178D01*
X171865804Y-65353595D01*
X171791624Y-65393245D01*
X171726605Y-65446605D01*
X171673245Y-65511624D01*
X171633595Y-65585804D01*
X171609178Y-65666293D01*
X171600934Y-65750000D01*
X171600934Y-66374153D01*
X171598522Y-66349664D01*
X171525502Y-66108949D01*
X171406924Y-65887104D01*
X171247344Y-65692656D01*
X171052896Y-65533076D01*
X170831051Y-65414498D01*
X170590336Y-65341478D01*
X170402726Y-65323000D01*
X170277274Y-65323000D01*
X170089664Y-65341478D01*
X169915082Y-65394437D01*
X169238090Y-64717446D01*
X169220801Y-64696379D01*
X169136748Y-64627399D01*
X169040853Y-64576142D01*
X168936801Y-64544578D01*
X168855699Y-64536590D01*
X168855696Y-64536590D01*
X168828590Y-64533920D01*
X168801484Y-64536590D01*
X156738515Y-64536590D01*
X156711409Y-64533920D01*
X156684303Y-64536590D01*
X156684301Y-64536590D01*
X156603199Y-64544578D01*
X156499147Y-64576142D01*
X156403252Y-64627399D01*
X156319199Y-64696379D01*
X156301918Y-64717436D01*
X155841049Y-65178305D01*
X155784868Y-65132199D01*
X155578311Y-65021792D01*
X155354184Y-64953804D01*
X155121100Y-64930847D01*
X154888015Y-64953804D01*
X154663888Y-65021792D01*
X154457331Y-65132199D01*
X154276282Y-65280782D01*
X154127699Y-65461832D01*
X154017292Y-65668389D01*
X153949304Y-65892516D01*
X153932100Y-66067190D01*
X153932100Y-67200011D01*
X153949304Y-67374685D01*
X154017292Y-67598812D01*
X154043572Y-67647978D01*
X153658628Y-67647978D01*
X153684908Y-67598812D01*
X153752896Y-67374685D01*
X153770100Y-67200011D01*
X153770100Y-66067189D01*
X153752896Y-65892515D01*
X153684908Y-65668388D01*
X153574501Y-65461831D01*
X153425918Y-65280782D01*
X153244868Y-65132199D01*
X153038311Y-65021792D01*
X152814184Y-64953804D01*
X152581100Y-64930847D01*
X152348015Y-64953804D01*
X152123888Y-65021792D01*
X151917331Y-65132199D01*
X151736282Y-65280782D01*
X151587699Y-65461832D01*
X151477292Y-65668389D01*
X151409304Y-65892516D01*
X151392100Y-66067190D01*
X151392100Y-67200011D01*
X151392531Y-67204386D01*
X151230100Y-67041955D01*
X151230100Y-66067189D01*
X151212896Y-65892515D01*
X151144908Y-65668388D01*
X151034501Y-65461831D01*
X150885918Y-65280782D01*
X150704868Y-65132199D01*
X150498311Y-65021792D01*
X150274184Y-64953804D01*
X150041100Y-64930847D01*
X149808015Y-64953804D01*
X149583888Y-65021792D01*
X149377331Y-65132199D01*
X149196282Y-65280782D01*
X149047699Y-65461832D01*
X148937292Y-65668389D01*
X148869304Y-65892516D01*
X148852100Y-66067190D01*
X148852100Y-67200011D01*
X148859905Y-67279260D01*
X148690100Y-67109455D01*
X148690100Y-66067189D01*
X148672896Y-65892515D01*
X148604908Y-65668388D01*
X148494501Y-65461831D01*
X148345918Y-65280782D01*
X148164868Y-65132199D01*
X147958311Y-65021792D01*
X147734184Y-64953804D01*
X147501100Y-64930847D01*
X147268015Y-64953804D01*
X147043888Y-65021792D01*
X146837331Y-65132199D01*
X146755200Y-65199602D01*
X146755200Y-64383000D01*
X180964786Y-64383000D01*
X180656405Y-64510735D01*
G36*
X159097292Y-65668389D02*
G01*
X159029304Y-65892516D01*
X159012100Y-66067190D01*
X159012100Y-67200011D01*
X159029304Y-67374685D01*
X159097292Y-67598812D01*
X159123572Y-67647978D01*
X156198628Y-67647978D01*
X156224908Y-67598812D01*
X156292896Y-67374685D01*
X156310100Y-67200011D01*
X156310100Y-66270545D01*
X156940056Y-65640590D01*
X159112151Y-65640590D01*
X159097292Y-65668389D01*
X159097292Y-65668389D01*
G37*
X159097292Y-65668389D02*
X159029304Y-65892516D01*
X159012100Y-66067190D01*
X159012100Y-67200011D01*
X159029304Y-67374685D01*
X159097292Y-67598812D01*
X159123572Y-67647978D01*
X156198628Y-67647978D01*
X156224908Y-67598812D01*
X156292896Y-67374685D01*
X156310100Y-67200011D01*
X156310100Y-66270545D01*
X156940056Y-65640590D01*
X159112151Y-65640590D01*
X159097292Y-65668389D01*
G36*
X167927000Y-66473000D02*
G01*
X167947000Y-66473000D01*
X167947000Y-66727000D01*
X167927000Y-66727000D01*
X167927000Y-66747000D01*
X167673000Y-66747000D01*
X167673000Y-66727000D01*
X167653000Y-66727000D01*
X167653000Y-66473000D01*
X167673000Y-66473000D01*
X167673000Y-66453000D01*
X167927000Y-66453000D01*
X167927000Y-66473000D01*
X167927000Y-66473000D01*
G37*
X167927000Y-66473000D02*
X167947000Y-66473000D01*
X167947000Y-66727000D01*
X167927000Y-66727000D01*
X167927000Y-66747000D01*
X167673000Y-66747000D01*
X167673000Y-66727000D01*
X167653000Y-66727000D01*
X167653000Y-66473000D01*
X167673000Y-66473000D01*
X167673000Y-66453000D01*
X167927000Y-66453000D01*
X167927000Y-66473000D01*
M02*
