G04 #@! TF.GenerationSoftware,KiCad,Pcbnew,(5.1.0)-1*
G04 #@! TF.CreationDate,2019-05-05T09:38:05-04:00*
G04 #@! TF.ProjectId,NO2C,4e4f3243-2e6b-4696-9361-645f70636258,v0.1.1*
G04 #@! TF.SameCoordinates,Original*
G04 #@! TF.FileFunction,Copper,L2,Bot*
G04 #@! TF.FilePolarity,Positive*
%FSLAX46Y46*%
G04 Gerber Fmt 4.6, Leading zero omitted, Abs format (unit mm)*
G04 Created by KiCad (PCBNEW (5.1.0)-1) date 2019-05-05 09:38:05*
%MOMM*%
%LPD*%
G04 APERTURE LIST*
%ADD10C,1.600000*%
%ADD11O,1.600000X1.600000*%
%ADD12C,0.600000*%
%ADD13R,1.700000X1.700000*%
%ADD14O,1.700000X1.700000*%
%ADD15R,1.600000X1.600000*%
%ADD16R,1.800000X1.800000*%
%ADD17C,1.800000*%
%ADD18C,2.400000*%
%ADD19O,2.400000X2.400000*%
%ADD20C,3.937000*%
%ADD21O,1.524000X2.540000*%
%ADD22C,1.524000*%
%ADD23C,0.750000*%
%ADD24C,0.250000*%
%ADD25C,0.254000*%
G04 APERTURE END LIST*
D10*
X157450000Y-70100000D03*
D11*
X165070000Y-70100000D03*
D12*
X150500000Y-77300000D03*
X153200000Y-81700000D03*
D10*
X165200000Y-86000000D03*
X168200000Y-86000000D03*
X171200000Y-86000000D03*
X174200000Y-86000000D03*
X177200000Y-86000000D03*
X180200000Y-86000000D03*
X165200000Y-89000000D03*
X168200000Y-89000000D03*
X171200000Y-89000000D03*
X174200000Y-89000000D03*
X177200000Y-89000000D03*
X180200000Y-89000000D03*
X151700000Y-83380000D03*
D11*
X151700000Y-91000000D03*
D10*
X154300000Y-91000000D03*
D11*
X154300000Y-83380000D03*
D10*
X156900000Y-83380000D03*
D11*
X156900000Y-91000000D03*
D10*
X159500000Y-83380000D03*
D11*
X159500000Y-91000000D03*
D12*
X182000000Y-84200000D03*
X177300000Y-84200000D03*
X179400000Y-64800000D03*
X175200000Y-78000000D03*
D13*
X172880000Y-66600000D03*
D14*
X170340000Y-66600000D03*
X167800000Y-66600000D03*
X165260000Y-66600000D03*
D12*
X175200000Y-79600000D03*
X172300000Y-90500000D03*
D15*
X188141100Y-66633600D03*
D11*
X188141100Y-69173600D03*
X188141100Y-71713600D03*
X188141100Y-74253600D03*
X188141100Y-76793600D03*
X188141100Y-79333600D03*
D12*
X187200000Y-88400000D03*
X165700000Y-87400000D03*
X185000000Y-90000000D03*
D16*
X189230000Y-81873600D03*
D17*
X189230000Y-84413600D03*
D10*
X156000000Y-109600000D03*
X156000000Y-112100000D03*
D12*
X156000000Y-102400000D03*
D15*
X147580000Y-70210000D03*
D11*
X155200000Y-77830000D03*
X147580000Y-72750000D03*
X155200000Y-75290000D03*
X147580000Y-75290000D03*
X155200000Y-72750000D03*
X147580000Y-77830000D03*
X155200000Y-70210000D03*
D12*
X151200000Y-71600000D03*
X153200000Y-70400000D03*
X174500000Y-84200000D03*
X172300000Y-71500000D03*
X169600000Y-70000000D03*
X169400000Y-84800000D03*
X168400000Y-87600000D03*
X156600000Y-87800000D03*
X153100000Y-87800000D03*
X162400000Y-105100000D03*
X187800000Y-85200000D03*
X148800000Y-64800000D03*
X149400000Y-69600000D03*
X159600000Y-71000000D03*
X157800000Y-66600000D03*
X181000000Y-79600000D03*
X172000000Y-78400000D03*
X184000000Y-86400000D03*
X179400000Y-84200000D03*
X182100000Y-88500000D03*
X175700000Y-88800000D03*
X178700000Y-88300000D03*
X178100000Y-79600000D03*
X170200000Y-74000000D03*
X168800000Y-81600000D03*
X168000000Y-78200000D03*
X168000000Y-75600000D03*
X165000000Y-75600000D03*
X165000000Y-80000000D03*
X162200000Y-81200000D03*
X162200000Y-77600000D03*
X162200000Y-73800000D03*
X148700000Y-79600000D03*
X147200000Y-80900000D03*
X153200000Y-75400000D03*
X153200000Y-73600000D03*
X162600000Y-86800000D03*
X162600000Y-85200000D03*
X161200000Y-92500000D03*
X147200000Y-105000000D03*
D10*
X175400000Y-73050000D03*
D11*
X167780000Y-73050000D03*
D18*
X171500000Y-80500000D03*
D19*
X158800000Y-80500000D03*
D13*
X148971000Y-83947000D03*
D14*
X148971000Y-86487000D03*
X148971000Y-89027000D03*
X148971000Y-91567000D03*
D18*
X171500000Y-76500000D03*
D19*
X158800000Y-76500000D03*
D10*
X175400000Y-70050000D03*
D11*
X167780000Y-70050000D03*
D10*
X162000000Y-109600000D03*
X162000000Y-112100000D03*
X159000000Y-109600000D03*
X159000000Y-112100000D03*
D16*
X189230000Y-86953600D03*
D17*
X189230000Y-89493600D03*
D10*
X157450000Y-73050000D03*
D11*
X165070000Y-73050000D03*
D10*
X155200000Y-107000000D03*
D11*
X162820000Y-107000000D03*
D12*
X159000000Y-116800000D03*
D20*
X181791100Y-66633600D03*
D21*
X147501100Y-66633600D03*
X150041100Y-66633600D03*
X152581100Y-66633600D03*
X155121100Y-66633600D03*
X175441100Y-66633600D03*
X177981100Y-66633600D03*
X162741100Y-66633600D03*
X160201100Y-66633600D03*
X157661100Y-114893600D03*
X160201100Y-114893600D03*
D22*
X185601100Y-79333600D03*
X185601100Y-76793600D03*
X185601100Y-74253600D03*
X185601100Y-81873600D03*
X185601100Y-86953600D03*
X185601100Y-84413600D03*
D10*
X155500000Y-80900000D03*
X150500000Y-80900000D03*
X155200000Y-103800000D03*
X160200000Y-103800000D03*
D12*
X181991000Y-72669400D03*
X180670200Y-70332600D03*
X180644800Y-74320400D03*
X177292000Y-70942200D03*
X164025000Y-82399998D03*
X165200000Y-82400000D03*
D23*
X155200000Y-75290000D02*
X155999999Y-74490001D01*
X164410001Y-67449999D02*
X165260000Y-66600000D01*
X164410001Y-68551001D02*
X164410001Y-67449999D01*
X158471001Y-74490001D02*
X164410001Y-68551001D01*
X155999999Y-74490001D02*
X158471001Y-74490001D01*
D24*
X177300000Y-69000500D02*
X177300000Y-69100000D01*
X188141100Y-69173600D02*
X177373600Y-69173600D01*
X177373600Y-69173600D02*
X177300000Y-69100000D01*
X175441100Y-67141600D02*
X177300000Y-69000500D01*
X175441100Y-66633600D02*
X175441100Y-67141600D01*
X177300000Y-69100000D02*
X177292000Y-69108000D01*
X177292000Y-70517936D02*
X177292000Y-70942200D01*
X177292000Y-69108000D02*
X177292000Y-70517936D01*
X147580000Y-72750000D02*
X154300000Y-79470000D01*
X154300000Y-79470000D02*
X154300000Y-83380000D01*
X147580000Y-77830000D02*
X149430000Y-77830000D01*
X149430000Y-77830000D02*
X151700000Y-80100000D01*
X151700000Y-80100000D02*
X151700000Y-83380000D01*
X164025000Y-82824262D02*
X164025000Y-82399998D01*
X164025000Y-87825000D02*
X164025000Y-82824262D01*
X165200000Y-89000000D02*
X164025000Y-87825000D01*
X165200000Y-82824264D02*
X165200000Y-86000000D01*
X165200000Y-82824264D02*
X165200000Y-82400000D01*
X152581100Y-66618900D02*
X154200000Y-65000000D01*
X154200000Y-65000000D02*
X171300000Y-65000000D01*
X171300000Y-65000000D02*
X172880000Y-66580000D01*
X164200000Y-90475012D02*
X163924988Y-90475012D01*
X163924988Y-90475012D02*
X163400000Y-91000000D01*
X163400000Y-91000000D02*
X163400000Y-106420000D01*
X163400000Y-106420000D02*
X162820000Y-107000000D01*
X164200000Y-90475012D02*
X169724988Y-90475012D01*
X156900000Y-83380000D02*
X163995012Y-90475012D01*
X163995012Y-90475012D02*
X164200000Y-90475012D01*
X169724988Y-90475012D02*
X170400001Y-89799999D01*
X170400001Y-89799999D02*
X171200000Y-89000000D01*
D23*
X168200000Y-86000000D02*
X168200000Y-83800000D01*
X168200000Y-83800000D02*
X171500000Y-80500000D01*
D24*
X159500000Y-84511370D02*
X159500000Y-83380000D01*
X164160701Y-90075001D02*
X159500000Y-85414300D01*
X168716001Y-90075001D02*
X164160701Y-90075001D01*
X169275001Y-89516001D02*
X168716001Y-90075001D01*
X159500000Y-85414300D02*
X159500000Y-84511370D01*
X171200000Y-86000000D02*
X169275001Y-87924999D01*
X169275001Y-87924999D02*
X169275001Y-89516001D01*
X188200000Y-71720000D02*
X186666088Y-73253912D01*
X186666088Y-73253912D02*
X186666088Y-82343374D01*
X186666088Y-82343374D02*
X185632863Y-83376599D01*
X185632863Y-83376599D02*
X176823401Y-83376599D01*
X176823401Y-83376599D02*
X174200000Y-86000000D01*
D23*
X171500000Y-76500000D02*
X166800000Y-81200000D01*
X166800000Y-81200000D02*
X166800000Y-87600000D01*
X166800000Y-87600000D02*
X168200000Y-89000000D01*
D24*
X174200000Y-89000000D02*
X175500000Y-90300000D01*
X175500000Y-90300000D02*
X181500000Y-90300000D01*
X181500000Y-90300000D02*
X182800000Y-89000000D01*
X185089462Y-89000000D02*
X186700000Y-87389462D01*
X182800000Y-89000000D02*
X185089462Y-89000000D01*
X186700000Y-87389462D02*
X186700000Y-82875162D01*
X186700000Y-82875162D02*
X187066099Y-82509063D01*
X187066099Y-77868601D02*
X188141100Y-76793600D01*
X187066099Y-82509063D02*
X187066099Y-77868601D01*
D25*
G36*
X180656405Y-64510735D02*
G01*
X180264058Y-64772893D01*
X179930393Y-65106558D01*
X179668235Y-65498905D01*
X179487658Y-65934858D01*
X179395600Y-66397664D01*
X179395600Y-66869536D01*
X179487658Y-67332342D01*
X179668235Y-67768295D01*
X179930393Y-68160642D01*
X180264058Y-68494307D01*
X180454565Y-68621600D01*
X177703135Y-68621600D01*
X177692211Y-68608289D01*
X177671154Y-68591008D01*
X176576107Y-67495962D01*
X176612896Y-67374685D01*
X176630100Y-67200011D01*
X176630100Y-66067190D01*
X176792100Y-66067190D01*
X176792100Y-67200011D01*
X176809304Y-67374685D01*
X176877292Y-67598812D01*
X176987700Y-67805369D01*
X177136283Y-67986418D01*
X177317332Y-68135001D01*
X177523889Y-68245408D01*
X177748016Y-68313396D01*
X177981100Y-68336353D01*
X178214185Y-68313396D01*
X178438312Y-68245408D01*
X178644869Y-68135001D01*
X178825918Y-67986418D01*
X178974501Y-67805369D01*
X179084908Y-67598812D01*
X179152896Y-67374685D01*
X179170100Y-67200011D01*
X179170100Y-66067189D01*
X179152896Y-65892515D01*
X179084908Y-65668388D01*
X178974501Y-65461831D01*
X178825918Y-65280782D01*
X178644868Y-65132199D01*
X178438311Y-65021792D01*
X178214184Y-64953804D01*
X177981100Y-64930847D01*
X177748015Y-64953804D01*
X177523888Y-65021792D01*
X177317331Y-65132199D01*
X177136282Y-65280782D01*
X176987699Y-65461832D01*
X176877292Y-65668389D01*
X176809304Y-65892516D01*
X176792100Y-66067190D01*
X176630100Y-66067190D01*
X176630100Y-66067189D01*
X176612896Y-65892515D01*
X176544908Y-65668388D01*
X176434501Y-65461831D01*
X176285918Y-65280782D01*
X176104868Y-65132199D01*
X175898311Y-65021792D01*
X175674184Y-64953804D01*
X175441100Y-64930847D01*
X175208015Y-64953804D01*
X174983888Y-65021792D01*
X174777331Y-65132199D01*
X174596282Y-65280782D01*
X174447699Y-65461832D01*
X174337292Y-65668389D01*
X174269304Y-65892516D01*
X174252100Y-66067190D01*
X174252100Y-67200011D01*
X174269304Y-67374685D01*
X174337292Y-67598812D01*
X174447700Y-67805369D01*
X174596283Y-67986418D01*
X174777332Y-68135001D01*
X174983889Y-68245408D01*
X175208016Y-68313396D01*
X175441100Y-68336353D01*
X175674185Y-68313396D01*
X175795462Y-68276607D01*
X176740000Y-69221146D01*
X176740001Y-70466065D01*
X176727302Y-70478764D01*
X176647741Y-70597836D01*
X176592938Y-70730142D01*
X176565000Y-70870597D01*
X176565000Y-71013803D01*
X176592938Y-71154258D01*
X176647741Y-71286564D01*
X176727302Y-71405636D01*
X176828564Y-71506898D01*
X176947636Y-71586459D01*
X177079942Y-71641262D01*
X177220397Y-71669200D01*
X177363603Y-71669200D01*
X177504058Y-71641262D01*
X177636364Y-71586459D01*
X177755436Y-71506898D01*
X177856698Y-71405636D01*
X177936259Y-71286564D01*
X177991062Y-71154258D01*
X178019000Y-71013803D01*
X178019000Y-70870597D01*
X177991062Y-70730142D01*
X177936259Y-70597836D01*
X177856698Y-70478764D01*
X177844000Y-70466066D01*
X177844000Y-69725600D01*
X187044871Y-69725600D01*
X187115951Y-69858583D01*
X187269283Y-70045417D01*
X187456117Y-70198749D01*
X187669276Y-70312684D01*
X187900566Y-70382845D01*
X188080832Y-70400600D01*
X188201368Y-70400600D01*
X188381634Y-70382845D01*
X188612924Y-70312684D01*
X188826083Y-70198749D01*
X189012917Y-70045417D01*
X189166249Y-69858583D01*
X189280184Y-69645424D01*
X189350345Y-69414134D01*
X189374036Y-69173600D01*
X189350345Y-68933066D01*
X189280184Y-68701776D01*
X189166249Y-68488617D01*
X189012917Y-68301783D01*
X188826083Y-68148451D01*
X188612924Y-68034516D01*
X188381634Y-67964355D01*
X188201368Y-67946600D01*
X188080832Y-67946600D01*
X187900566Y-67964355D01*
X187669276Y-68034516D01*
X187456117Y-68148451D01*
X187269283Y-68301783D01*
X187115951Y-68488617D01*
X187044871Y-68621600D01*
X183127635Y-68621600D01*
X183318142Y-68494307D01*
X183651807Y-68160642D01*
X183913965Y-67768295D01*
X184094542Y-67332342D01*
X184186600Y-66869536D01*
X184186600Y-66397664D01*
X184094542Y-65934858D01*
X184052600Y-65833600D01*
X186912034Y-65833600D01*
X186912034Y-67433600D01*
X186920278Y-67517307D01*
X186944695Y-67597796D01*
X186984345Y-67671976D01*
X187037705Y-67736995D01*
X187102724Y-67790355D01*
X187176904Y-67830005D01*
X187257393Y-67854422D01*
X187341100Y-67862666D01*
X188941100Y-67862666D01*
X189024807Y-67854422D01*
X189105296Y-67830005D01*
X189179476Y-67790355D01*
X189244495Y-67736995D01*
X189297855Y-67671976D01*
X189337505Y-67597796D01*
X189361922Y-67517307D01*
X189370166Y-67433600D01*
X189370166Y-65833600D01*
X189361922Y-65749893D01*
X189337505Y-65669404D01*
X189297855Y-65595224D01*
X189244495Y-65530205D01*
X189179476Y-65476845D01*
X189105296Y-65437195D01*
X189024807Y-65412778D01*
X188941100Y-65404534D01*
X187341100Y-65404534D01*
X187257393Y-65412778D01*
X187176904Y-65437195D01*
X187102724Y-65476845D01*
X187037705Y-65530205D01*
X186984345Y-65595224D01*
X186944695Y-65669404D01*
X186920278Y-65749893D01*
X186912034Y-65833600D01*
X184052600Y-65833600D01*
X183913965Y-65498905D01*
X183651807Y-65106558D01*
X183318142Y-64772893D01*
X182925795Y-64510735D01*
X182617414Y-64383000D01*
X190379001Y-64383000D01*
X190379000Y-80386675D01*
X190374180Y-80384098D01*
X190254482Y-80347788D01*
X190130000Y-80335528D01*
X189515750Y-80338600D01*
X189357000Y-80497350D01*
X189357000Y-81746600D01*
X189377000Y-81746600D01*
X189377000Y-82000600D01*
X189357000Y-82000600D01*
X189357000Y-82020600D01*
X189103000Y-82020600D01*
X189103000Y-82000600D01*
X187853750Y-82000600D01*
X187695000Y-82159350D01*
X187691928Y-82773600D01*
X187704188Y-82898082D01*
X187740498Y-83017780D01*
X187799463Y-83128094D01*
X187878815Y-83224785D01*
X187975506Y-83304137D01*
X188085820Y-83363102D01*
X188205518Y-83399412D01*
X188330000Y-83411672D01*
X188355394Y-83411545D01*
X188199252Y-83567687D01*
X188054028Y-83785030D01*
X187953996Y-84026528D01*
X187903000Y-84282902D01*
X187903000Y-84544298D01*
X187953996Y-84800672D01*
X188054028Y-85042170D01*
X188199252Y-85259513D01*
X188355394Y-85415655D01*
X188330000Y-85415528D01*
X188205518Y-85427788D01*
X188085820Y-85464098D01*
X187975506Y-85523063D01*
X187878815Y-85602415D01*
X187799463Y-85699106D01*
X187740498Y-85809420D01*
X187704188Y-85929118D01*
X187691928Y-86053600D01*
X187695000Y-86667850D01*
X187853750Y-86826600D01*
X189103000Y-86826600D01*
X189103000Y-86806600D01*
X189357000Y-86806600D01*
X189357000Y-86826600D01*
X189377000Y-86826600D01*
X189377000Y-87080600D01*
X189357000Y-87080600D01*
X189357000Y-87100600D01*
X189103000Y-87100600D01*
X189103000Y-87080600D01*
X187853750Y-87080600D01*
X187695000Y-87239350D01*
X187691928Y-87853600D01*
X187704188Y-87978082D01*
X187740498Y-88097780D01*
X187799463Y-88208094D01*
X187878815Y-88304785D01*
X187975506Y-88384137D01*
X188085820Y-88443102D01*
X188205518Y-88479412D01*
X188330000Y-88491672D01*
X188355394Y-88491545D01*
X188199252Y-88647687D01*
X188054028Y-88865030D01*
X187953996Y-89106528D01*
X187903000Y-89362902D01*
X187903000Y-89624298D01*
X187953996Y-89880672D01*
X188054028Y-90122170D01*
X188199252Y-90339513D01*
X188384087Y-90524348D01*
X188601430Y-90669572D01*
X188842928Y-90769604D01*
X189099302Y-90820600D01*
X189360698Y-90820600D01*
X189617072Y-90769604D01*
X189858570Y-90669572D01*
X190075913Y-90524348D01*
X190260748Y-90339513D01*
X190379000Y-90162536D01*
X190379000Y-90998000D01*
X169902505Y-90998000D01*
X169937251Y-90987460D01*
X170033146Y-90936203D01*
X170117199Y-90867223D01*
X170134488Y-90846156D01*
X170809493Y-90171153D01*
X170809502Y-90171142D01*
X170812894Y-90167750D01*
X170842097Y-90179847D01*
X171079151Y-90227000D01*
X171320849Y-90227000D01*
X171557903Y-90179847D01*
X171781202Y-90087353D01*
X171982167Y-89953073D01*
X172153073Y-89782167D01*
X172287353Y-89581202D01*
X172379847Y-89357903D01*
X172427000Y-89120849D01*
X172427000Y-88879151D01*
X172379847Y-88642097D01*
X172287353Y-88418798D01*
X172153073Y-88217833D01*
X171982167Y-88046927D01*
X171781202Y-87912647D01*
X171557903Y-87820153D01*
X171320849Y-87773000D01*
X171079151Y-87773000D01*
X170842097Y-87820153D01*
X170618798Y-87912647D01*
X170417833Y-88046927D01*
X170246927Y-88217833D01*
X170112647Y-88418798D01*
X170020153Y-88642097D01*
X169973000Y-88879151D01*
X169973000Y-89120849D01*
X170020153Y-89357903D01*
X170032250Y-89387106D01*
X170028858Y-89390498D01*
X170028847Y-89390507D01*
X169821621Y-89597734D01*
X169827001Y-89543110D01*
X169827001Y-89543100D01*
X169829670Y-89516002D01*
X169827001Y-89488904D01*
X169827001Y-88153643D01*
X170812894Y-87167751D01*
X170842097Y-87179847D01*
X171079151Y-87227000D01*
X171320849Y-87227000D01*
X171557903Y-87179847D01*
X171781202Y-87087353D01*
X171982167Y-86953073D01*
X172153073Y-86782167D01*
X172287353Y-86581202D01*
X172379847Y-86357903D01*
X172427000Y-86120849D01*
X172427000Y-85879151D01*
X172973000Y-85879151D01*
X172973000Y-86120849D01*
X173020153Y-86357903D01*
X173112647Y-86581202D01*
X173246927Y-86782167D01*
X173417833Y-86953073D01*
X173618798Y-87087353D01*
X173842097Y-87179847D01*
X174079151Y-87227000D01*
X174320849Y-87227000D01*
X174557903Y-87179847D01*
X174781202Y-87087353D01*
X174982167Y-86953073D01*
X175153073Y-86782167D01*
X175287353Y-86581202D01*
X175379847Y-86357903D01*
X175427000Y-86120849D01*
X175427000Y-85879151D01*
X175973000Y-85879151D01*
X175973000Y-86120849D01*
X176020153Y-86357903D01*
X176112647Y-86581202D01*
X176246927Y-86782167D01*
X176417833Y-86953073D01*
X176618798Y-87087353D01*
X176842097Y-87179847D01*
X177079151Y-87227000D01*
X177320849Y-87227000D01*
X177557903Y-87179847D01*
X177781202Y-87087353D01*
X177982167Y-86953073D01*
X178153073Y-86782167D01*
X178287353Y-86581202D01*
X178379847Y-86357903D01*
X178427000Y-86120849D01*
X178427000Y-85879151D01*
X178973000Y-85879151D01*
X178973000Y-86120849D01*
X179020153Y-86357903D01*
X179112647Y-86581202D01*
X179246927Y-86782167D01*
X179417833Y-86953073D01*
X179618798Y-87087353D01*
X179842097Y-87179847D01*
X180079151Y-87227000D01*
X180320849Y-87227000D01*
X180557903Y-87179847D01*
X180781202Y-87087353D01*
X180982167Y-86953073D01*
X181153073Y-86782167D01*
X181287353Y-86581202D01*
X181379847Y-86357903D01*
X181427000Y-86120849D01*
X181427000Y-85879151D01*
X181379847Y-85642097D01*
X181287353Y-85418798D01*
X181153073Y-85217833D01*
X180982167Y-85046927D01*
X180781202Y-84912647D01*
X180557903Y-84820153D01*
X180320849Y-84773000D01*
X180079151Y-84773000D01*
X179842097Y-84820153D01*
X179618798Y-84912647D01*
X179417833Y-85046927D01*
X179246927Y-85217833D01*
X179112647Y-85418798D01*
X179020153Y-85642097D01*
X178973000Y-85879151D01*
X178427000Y-85879151D01*
X178379847Y-85642097D01*
X178287353Y-85418798D01*
X178153073Y-85217833D01*
X177982167Y-85046927D01*
X177781202Y-84912647D01*
X177557903Y-84820153D01*
X177320849Y-84773000D01*
X177079151Y-84773000D01*
X176842097Y-84820153D01*
X176618798Y-84912647D01*
X176417833Y-85046927D01*
X176246927Y-85217833D01*
X176112647Y-85418798D01*
X176020153Y-85642097D01*
X175973000Y-85879151D01*
X175427000Y-85879151D01*
X175379847Y-85642097D01*
X175367751Y-85612894D01*
X177052047Y-83928599D01*
X184515030Y-83928599D01*
X184457793Y-84066782D01*
X184412100Y-84296494D01*
X184412100Y-84530706D01*
X184457793Y-84760418D01*
X184547422Y-84976803D01*
X184677543Y-85171543D01*
X184843157Y-85337157D01*
X185037897Y-85467278D01*
X185254282Y-85556907D01*
X185483994Y-85602600D01*
X185718206Y-85602600D01*
X185947918Y-85556907D01*
X186148000Y-85474031D01*
X186148000Y-85893169D01*
X185947918Y-85810293D01*
X185718206Y-85764600D01*
X185483994Y-85764600D01*
X185254282Y-85810293D01*
X185037897Y-85899922D01*
X184843157Y-86030043D01*
X184677543Y-86195657D01*
X184547422Y-86390397D01*
X184457793Y-86606782D01*
X184412100Y-86836494D01*
X184412100Y-87070706D01*
X184457793Y-87300418D01*
X184547422Y-87516803D01*
X184677543Y-87711543D01*
X184843157Y-87877157D01*
X185037897Y-88007278D01*
X185224321Y-88084497D01*
X184860818Y-88448000D01*
X182827108Y-88448000D01*
X182800000Y-88445330D01*
X182772891Y-88448000D01*
X182691789Y-88455988D01*
X182587737Y-88487552D01*
X182491842Y-88538809D01*
X182407789Y-88607789D01*
X182390508Y-88628846D01*
X181271356Y-89748000D01*
X181175903Y-89748000D01*
X181287353Y-89581202D01*
X181379847Y-89357903D01*
X181427000Y-89120849D01*
X181427000Y-88879151D01*
X181379847Y-88642097D01*
X181287353Y-88418798D01*
X181153073Y-88217833D01*
X180982167Y-88046927D01*
X180781202Y-87912647D01*
X180557903Y-87820153D01*
X180320849Y-87773000D01*
X180079151Y-87773000D01*
X179842097Y-87820153D01*
X179618798Y-87912647D01*
X179417833Y-88046927D01*
X179246927Y-88217833D01*
X179112647Y-88418798D01*
X179020153Y-88642097D01*
X178973000Y-88879151D01*
X178973000Y-89120849D01*
X179020153Y-89357903D01*
X179112647Y-89581202D01*
X179224097Y-89748000D01*
X178175903Y-89748000D01*
X178287353Y-89581202D01*
X178379847Y-89357903D01*
X178427000Y-89120849D01*
X178427000Y-88879151D01*
X178379847Y-88642097D01*
X178287353Y-88418798D01*
X178153073Y-88217833D01*
X177982167Y-88046927D01*
X177781202Y-87912647D01*
X177557903Y-87820153D01*
X177320849Y-87773000D01*
X177079151Y-87773000D01*
X176842097Y-87820153D01*
X176618798Y-87912647D01*
X176417833Y-88046927D01*
X176246927Y-88217833D01*
X176112647Y-88418798D01*
X176020153Y-88642097D01*
X175973000Y-88879151D01*
X175973000Y-89120849D01*
X176020153Y-89357903D01*
X176112647Y-89581202D01*
X176224097Y-89748000D01*
X175728646Y-89748000D01*
X175367751Y-89387106D01*
X175379847Y-89357903D01*
X175427000Y-89120849D01*
X175427000Y-88879151D01*
X175379847Y-88642097D01*
X175287353Y-88418798D01*
X175153073Y-88217833D01*
X174982167Y-88046927D01*
X174781202Y-87912647D01*
X174557903Y-87820153D01*
X174320849Y-87773000D01*
X174079151Y-87773000D01*
X173842097Y-87820153D01*
X173618798Y-87912647D01*
X173417833Y-88046927D01*
X173246927Y-88217833D01*
X173112647Y-88418798D01*
X173020153Y-88642097D01*
X172973000Y-88879151D01*
X172973000Y-89120849D01*
X173020153Y-89357903D01*
X173112647Y-89581202D01*
X173246927Y-89782167D01*
X173417833Y-89953073D01*
X173618798Y-90087353D01*
X173842097Y-90179847D01*
X174079151Y-90227000D01*
X174320849Y-90227000D01*
X174557903Y-90179847D01*
X174587106Y-90167751D01*
X175090508Y-90671154D01*
X175107789Y-90692211D01*
X175128845Y-90709491D01*
X175128846Y-90709492D01*
X175191842Y-90761191D01*
X175287737Y-90812448D01*
X175391789Y-90844012D01*
X175500000Y-90854670D01*
X175527108Y-90852000D01*
X181472894Y-90852000D01*
X181500000Y-90854670D01*
X181527106Y-90852000D01*
X181527109Y-90852000D01*
X181608211Y-90844012D01*
X181712263Y-90812448D01*
X181808158Y-90761191D01*
X181892211Y-90692211D01*
X181909500Y-90671144D01*
X182270832Y-90309813D01*
X182334194Y-90462783D01*
X182441115Y-90622801D01*
X182577199Y-90758885D01*
X182737217Y-90865806D01*
X182915020Y-90939454D01*
X183103774Y-90977000D01*
X183296226Y-90977000D01*
X183484980Y-90939454D01*
X183662783Y-90865806D01*
X183822801Y-90758885D01*
X183958885Y-90622801D01*
X184065806Y-90462783D01*
X184139454Y-90284980D01*
X184177000Y-90096226D01*
X184177000Y-89903774D01*
X184139454Y-89715020D01*
X184071929Y-89552000D01*
X185062356Y-89552000D01*
X185089462Y-89554670D01*
X185116568Y-89552000D01*
X185116571Y-89552000D01*
X185197673Y-89544012D01*
X185301725Y-89512448D01*
X185397620Y-89461191D01*
X185481673Y-89392211D01*
X185498962Y-89371144D01*
X187071154Y-87798954D01*
X187092211Y-87781673D01*
X187161191Y-87697620D01*
X187212448Y-87601725D01*
X187244012Y-87497673D01*
X187252000Y-87416571D01*
X187252000Y-87416570D01*
X187254670Y-87389462D01*
X187252000Y-87362354D01*
X187252000Y-83103806D01*
X187437247Y-82918559D01*
X187458310Y-82901274D01*
X187527290Y-82817221D01*
X187578547Y-82721326D01*
X187610111Y-82617274D01*
X187618099Y-82536172D01*
X187618099Y-82536162D01*
X187620768Y-82509064D01*
X187618099Y-82481966D01*
X187618099Y-80445330D01*
X187669276Y-80472684D01*
X187869726Y-80533490D01*
X187799463Y-80619106D01*
X187740498Y-80729420D01*
X187704188Y-80849118D01*
X187691928Y-80973600D01*
X187695000Y-81587850D01*
X187853750Y-81746600D01*
X189103000Y-81746600D01*
X189103000Y-80497350D01*
X188944250Y-80338600D01*
X188851201Y-80338135D01*
X189012917Y-80205417D01*
X189166249Y-80018583D01*
X189280184Y-79805424D01*
X189350345Y-79574134D01*
X189374036Y-79333600D01*
X189350345Y-79093066D01*
X189280184Y-78861776D01*
X189166249Y-78648617D01*
X189012917Y-78461783D01*
X188826083Y-78308451D01*
X188612924Y-78194516D01*
X188381634Y-78124355D01*
X188201368Y-78106600D01*
X188080832Y-78106600D01*
X187900566Y-78124355D01*
X187669276Y-78194516D01*
X187618099Y-78221870D01*
X187618099Y-78097245D01*
X187756271Y-77959074D01*
X187900566Y-78002845D01*
X188080832Y-78020600D01*
X188201368Y-78020600D01*
X188381634Y-78002845D01*
X188612924Y-77932684D01*
X188826083Y-77818749D01*
X189012917Y-77665417D01*
X189166249Y-77478583D01*
X189280184Y-77265424D01*
X189350345Y-77034134D01*
X189374036Y-76793600D01*
X189350345Y-76553066D01*
X189280184Y-76321776D01*
X189166249Y-76108617D01*
X189012917Y-75921783D01*
X188826083Y-75768451D01*
X188612924Y-75654516D01*
X188381634Y-75584355D01*
X188201368Y-75566600D01*
X188080832Y-75566600D01*
X187900566Y-75584355D01*
X187669276Y-75654516D01*
X187456117Y-75768451D01*
X187269283Y-75921783D01*
X187218088Y-75984164D01*
X187218088Y-75063036D01*
X187269283Y-75125417D01*
X187456117Y-75278749D01*
X187669276Y-75392684D01*
X187900566Y-75462845D01*
X188080832Y-75480600D01*
X188201368Y-75480600D01*
X188381634Y-75462845D01*
X188612924Y-75392684D01*
X188826083Y-75278749D01*
X189012917Y-75125417D01*
X189166249Y-74938583D01*
X189280184Y-74725424D01*
X189350345Y-74494134D01*
X189374036Y-74253600D01*
X189350345Y-74013066D01*
X189280184Y-73781776D01*
X189166249Y-73568617D01*
X189012917Y-73381783D01*
X188826083Y-73228451D01*
X188612924Y-73114516D01*
X188381634Y-73044355D01*
X188201368Y-73026600D01*
X188080832Y-73026600D01*
X187900566Y-73044355D01*
X187669276Y-73114516D01*
X187490654Y-73209991D01*
X187806373Y-72894272D01*
X187900566Y-72922845D01*
X188080832Y-72940600D01*
X188201368Y-72940600D01*
X188381634Y-72922845D01*
X188612924Y-72852684D01*
X188826083Y-72738749D01*
X189012917Y-72585417D01*
X189166249Y-72398583D01*
X189280184Y-72185424D01*
X189350345Y-71954134D01*
X189374036Y-71713600D01*
X189350345Y-71473066D01*
X189280184Y-71241776D01*
X189166249Y-71028617D01*
X189012917Y-70841783D01*
X188826083Y-70688451D01*
X188612924Y-70574516D01*
X188381634Y-70504355D01*
X188201368Y-70486600D01*
X188080832Y-70486600D01*
X187900566Y-70504355D01*
X187669276Y-70574516D01*
X187456117Y-70688451D01*
X187269283Y-70841783D01*
X187115951Y-71028617D01*
X187002016Y-71241776D01*
X186931855Y-71473066D01*
X186908164Y-71713600D01*
X186931855Y-71954134D01*
X186990825Y-72148531D01*
X186294944Y-72844412D01*
X186273877Y-72861701D01*
X186204897Y-72945754D01*
X186153640Y-73041650D01*
X186122076Y-73145702D01*
X186118600Y-73180991D01*
X185947918Y-73110293D01*
X185718206Y-73064600D01*
X185483994Y-73064600D01*
X185254282Y-73110293D01*
X185037897Y-73199922D01*
X184843157Y-73330043D01*
X184677543Y-73495657D01*
X184547422Y-73690397D01*
X184457793Y-73906782D01*
X184412100Y-74136494D01*
X184412100Y-74370706D01*
X184457793Y-74600418D01*
X184547422Y-74816803D01*
X184677543Y-75011543D01*
X184843157Y-75177157D01*
X185037897Y-75307278D01*
X185254282Y-75396907D01*
X185483994Y-75442600D01*
X185718206Y-75442600D01*
X185947918Y-75396907D01*
X186114088Y-75328077D01*
X186114088Y-75719123D01*
X185947918Y-75650293D01*
X185718206Y-75604600D01*
X185483994Y-75604600D01*
X185254282Y-75650293D01*
X185037897Y-75739922D01*
X184843157Y-75870043D01*
X184677543Y-76035657D01*
X184547422Y-76230397D01*
X184457793Y-76446782D01*
X184412100Y-76676494D01*
X184412100Y-76910706D01*
X184457793Y-77140418D01*
X184547422Y-77356803D01*
X184677543Y-77551543D01*
X184843157Y-77717157D01*
X185037897Y-77847278D01*
X185254282Y-77936907D01*
X185483994Y-77982600D01*
X185718206Y-77982600D01*
X185947918Y-77936907D01*
X186114089Y-77868077D01*
X186114089Y-78259123D01*
X185947918Y-78190293D01*
X185718206Y-78144600D01*
X185483994Y-78144600D01*
X185254282Y-78190293D01*
X185037897Y-78279922D01*
X184843157Y-78410043D01*
X184677543Y-78575657D01*
X184547422Y-78770397D01*
X184457793Y-78986782D01*
X184412100Y-79216494D01*
X184412100Y-79450706D01*
X184457793Y-79680418D01*
X184547422Y-79896803D01*
X184677543Y-80091543D01*
X184843157Y-80257157D01*
X185037897Y-80387278D01*
X185254282Y-80476907D01*
X185483994Y-80522600D01*
X185718206Y-80522600D01*
X185947918Y-80476907D01*
X186114089Y-80408077D01*
X186114089Y-80799123D01*
X185947918Y-80730293D01*
X185718206Y-80684600D01*
X185483994Y-80684600D01*
X185254282Y-80730293D01*
X185037897Y-80819922D01*
X184843157Y-80950043D01*
X184677543Y-81115657D01*
X184547422Y-81310397D01*
X184457793Y-81526782D01*
X184412100Y-81756494D01*
X184412100Y-81990706D01*
X184457793Y-82220418D01*
X184547422Y-82436803D01*
X184677543Y-82631543D01*
X184843157Y-82797157D01*
X184884227Y-82824599D01*
X176850498Y-82824599D01*
X176823400Y-82821930D01*
X176796302Y-82824599D01*
X176796292Y-82824599D01*
X176715190Y-82832587D01*
X176611138Y-82864151D01*
X176590538Y-82875162D01*
X176515242Y-82915408D01*
X176458080Y-82962320D01*
X176431190Y-82984388D01*
X176413909Y-83005445D01*
X174587106Y-84832249D01*
X174557903Y-84820153D01*
X174320849Y-84773000D01*
X174079151Y-84773000D01*
X173842097Y-84820153D01*
X173618798Y-84912647D01*
X173417833Y-85046927D01*
X173246927Y-85217833D01*
X173112647Y-85418798D01*
X173020153Y-85642097D01*
X172973000Y-85879151D01*
X172427000Y-85879151D01*
X172379847Y-85642097D01*
X172287353Y-85418798D01*
X172153073Y-85217833D01*
X171982167Y-85046927D01*
X171781202Y-84912647D01*
X171557903Y-84820153D01*
X171320849Y-84773000D01*
X171079151Y-84773000D01*
X170842097Y-84820153D01*
X170618798Y-84912647D01*
X170417833Y-85046927D01*
X170246927Y-85217833D01*
X170112647Y-85418798D01*
X170020153Y-85642097D01*
X169973000Y-85879151D01*
X169973000Y-86120849D01*
X170020153Y-86357903D01*
X170032249Y-86387106D01*
X168903857Y-87515499D01*
X168882790Y-87532788D01*
X168813810Y-87616841D01*
X168762553Y-87712737D01*
X168730989Y-87816789D01*
X168723886Y-87888906D01*
X168557903Y-87820153D01*
X168320849Y-87773000D01*
X168107199Y-87773000D01*
X167602000Y-87267802D01*
X167602000Y-87076129D01*
X167618798Y-87087353D01*
X167842097Y-87179847D01*
X168079151Y-87227000D01*
X168320849Y-87227000D01*
X168557903Y-87179847D01*
X168781202Y-87087353D01*
X168982167Y-86953073D01*
X169153073Y-86782167D01*
X169287353Y-86581202D01*
X169379847Y-86357903D01*
X169427000Y-86120849D01*
X169427000Y-85879151D01*
X169379847Y-85642097D01*
X169287353Y-85418798D01*
X169153073Y-85217833D01*
X169002000Y-85066760D01*
X169002000Y-84132198D01*
X171062374Y-82071825D01*
X171339755Y-82127000D01*
X171660245Y-82127000D01*
X171974578Y-82064475D01*
X172270673Y-81941828D01*
X172537152Y-81763773D01*
X172763773Y-81537152D01*
X172941828Y-81270673D01*
X173064475Y-80974578D01*
X173127000Y-80660245D01*
X173127000Y-80339755D01*
X173064475Y-80025422D01*
X172941828Y-79729327D01*
X172763773Y-79462848D01*
X172537152Y-79236227D01*
X172270673Y-79058172D01*
X171974578Y-78935525D01*
X171660245Y-78873000D01*
X171339755Y-78873000D01*
X171025422Y-78935525D01*
X170729327Y-79058172D01*
X170462848Y-79236227D01*
X170236227Y-79462848D01*
X170058172Y-79729327D01*
X169935525Y-80025422D01*
X169873000Y-80339755D01*
X169873000Y-80660245D01*
X169928175Y-80937626D01*
X167660758Y-83205044D01*
X167630158Y-83230157D01*
X167605045Y-83260757D01*
X167602000Y-83264467D01*
X167602000Y-81532198D01*
X171062374Y-78071825D01*
X171339755Y-78127000D01*
X171660245Y-78127000D01*
X171974578Y-78064475D01*
X172270673Y-77941828D01*
X172537152Y-77763773D01*
X172763773Y-77537152D01*
X172941828Y-77270673D01*
X173064475Y-76974578D01*
X173127000Y-76660245D01*
X173127000Y-76339755D01*
X173064475Y-76025422D01*
X172941828Y-75729327D01*
X172763773Y-75462848D01*
X172537152Y-75236227D01*
X172270673Y-75058172D01*
X171974578Y-74935525D01*
X171660245Y-74873000D01*
X171339755Y-74873000D01*
X171025422Y-74935525D01*
X170729327Y-75058172D01*
X170462848Y-75236227D01*
X170236227Y-75462848D01*
X170058172Y-75729327D01*
X169935525Y-76025422D01*
X169873000Y-76339755D01*
X169873000Y-76660245D01*
X169928175Y-76937626D01*
X166260762Y-80605040D01*
X166230157Y-80630157D01*
X166129935Y-80752278D01*
X166055464Y-80891604D01*
X166009605Y-81042782D01*
X165998000Y-81160607D01*
X165998000Y-81160614D01*
X165994121Y-81200000D01*
X165998000Y-81239386D01*
X165998001Y-85062761D01*
X165982167Y-85046927D01*
X165781202Y-84912647D01*
X165752000Y-84900551D01*
X165752000Y-82876134D01*
X165764698Y-82863436D01*
X165844259Y-82744364D01*
X165899062Y-82612058D01*
X165927000Y-82471603D01*
X165927000Y-82328397D01*
X165899062Y-82187942D01*
X165844259Y-82055636D01*
X165764698Y-81936564D01*
X165663436Y-81835302D01*
X165544364Y-81755741D01*
X165412058Y-81700938D01*
X165271603Y-81673000D01*
X165128397Y-81673000D01*
X164987942Y-81700938D01*
X164855636Y-81755741D01*
X164736564Y-81835302D01*
X164635302Y-81936564D01*
X164612501Y-81970689D01*
X164589698Y-81936562D01*
X164488436Y-81835300D01*
X164369364Y-81755739D01*
X164237058Y-81700936D01*
X164096603Y-81672998D01*
X163953397Y-81672998D01*
X163812942Y-81700936D01*
X163680636Y-81755739D01*
X163561564Y-81835300D01*
X163460302Y-81936562D01*
X163380741Y-82055634D01*
X163325938Y-82187940D01*
X163298000Y-82328395D01*
X163298000Y-82471601D01*
X163325938Y-82612056D01*
X163380741Y-82744362D01*
X163460302Y-82863434D01*
X163473001Y-82876133D01*
X163473000Y-87797894D01*
X163470330Y-87825000D01*
X163473000Y-87852106D01*
X163473000Y-87852108D01*
X163480988Y-87933210D01*
X163512552Y-88037262D01*
X163563809Y-88133158D01*
X163632789Y-88217211D01*
X163653856Y-88234500D01*
X164032249Y-88612894D01*
X164020153Y-88642097D01*
X163973000Y-88879151D01*
X163973000Y-89106654D01*
X160052000Y-85185656D01*
X160052000Y-84479449D01*
X160081202Y-84467353D01*
X160282167Y-84333073D01*
X160453073Y-84162167D01*
X160587353Y-83961202D01*
X160679847Y-83737903D01*
X160727000Y-83500849D01*
X160727000Y-83259151D01*
X160679847Y-83022097D01*
X160587353Y-82798798D01*
X160453073Y-82597833D01*
X160282167Y-82426927D01*
X160081202Y-82292647D01*
X159857903Y-82200153D01*
X159620849Y-82153000D01*
X159379151Y-82153000D01*
X159142097Y-82200153D01*
X158918798Y-82292647D01*
X158717833Y-82426927D01*
X158546927Y-82597833D01*
X158412647Y-82798798D01*
X158320153Y-83022097D01*
X158273000Y-83259151D01*
X158273000Y-83500849D01*
X158320153Y-83737903D01*
X158412647Y-83961202D01*
X158546927Y-84162167D01*
X158717833Y-84333073D01*
X158918798Y-84467353D01*
X158948000Y-84479449D01*
X158948000Y-84647356D01*
X158067751Y-83767106D01*
X158079847Y-83737903D01*
X158127000Y-83500849D01*
X158127000Y-83259151D01*
X158079847Y-83022097D01*
X157987353Y-82798798D01*
X157853073Y-82597833D01*
X157682167Y-82426927D01*
X157481202Y-82292647D01*
X157257903Y-82200153D01*
X157020849Y-82153000D01*
X156779151Y-82153000D01*
X156542097Y-82200153D01*
X156318798Y-82292647D01*
X156117833Y-82426927D01*
X155946927Y-82597833D01*
X155812647Y-82798798D01*
X155720153Y-83022097D01*
X155673000Y-83259151D01*
X155673000Y-83500849D01*
X155720153Y-83737903D01*
X155812647Y-83961202D01*
X155946927Y-84162167D01*
X156117833Y-84333073D01*
X156318798Y-84467353D01*
X156542097Y-84559847D01*
X156779151Y-84607000D01*
X157020849Y-84607000D01*
X157257903Y-84559847D01*
X157287106Y-84547751D01*
X161791192Y-89051837D01*
X161737217Y-89074194D01*
X161577199Y-89181115D01*
X161441115Y-89317199D01*
X161334194Y-89477217D01*
X161260546Y-89655020D01*
X161223000Y-89843774D01*
X161223000Y-90036226D01*
X161260546Y-90224980D01*
X161334194Y-90402783D01*
X161441115Y-90562801D01*
X161577199Y-90698885D01*
X161737217Y-90805806D01*
X161915020Y-90879454D01*
X162103774Y-90917000D01*
X162296226Y-90917000D01*
X162484980Y-90879454D01*
X162662783Y-90805806D01*
X162822801Y-90698885D01*
X162958885Y-90562801D01*
X163065806Y-90402783D01*
X163088163Y-90348809D01*
X163179355Y-90440001D01*
X163028856Y-90590500D01*
X163007789Y-90607789D01*
X162938809Y-90691842D01*
X162887552Y-90787738D01*
X162855988Y-90891790D01*
X162848000Y-90972891D01*
X162845330Y-91000000D01*
X162848000Y-91027106D01*
X162848001Y-105773000D01*
X162759732Y-105773000D01*
X162579466Y-105790755D01*
X162348176Y-105860916D01*
X162135017Y-105974851D01*
X161948183Y-106128183D01*
X161794851Y-106315017D01*
X161680916Y-106528176D01*
X161610755Y-106759466D01*
X161587064Y-107000000D01*
X161610755Y-107240534D01*
X161680916Y-107471824D01*
X161794851Y-107684983D01*
X161948183Y-107871817D01*
X162135017Y-108025149D01*
X162348176Y-108139084D01*
X162579466Y-108209245D01*
X162759732Y-108227000D01*
X162880268Y-108227000D01*
X163060534Y-108209245D01*
X163291824Y-108139084D01*
X163498000Y-108028881D01*
X163498000Y-117100000D01*
X146755200Y-117100000D01*
X146755200Y-114327190D01*
X156472100Y-114327190D01*
X156472100Y-115460011D01*
X156489304Y-115634685D01*
X156557292Y-115858812D01*
X156667700Y-116065369D01*
X156816283Y-116246418D01*
X156997332Y-116395001D01*
X157203889Y-116505408D01*
X157428016Y-116573396D01*
X157661100Y-116596353D01*
X157894185Y-116573396D01*
X158118312Y-116505408D01*
X158324869Y-116395001D01*
X158505918Y-116246418D01*
X158654501Y-116065369D01*
X158764908Y-115858812D01*
X158832896Y-115634685D01*
X158850100Y-115460011D01*
X158850100Y-114327189D01*
X158832896Y-114152515D01*
X158764908Y-113928388D01*
X158654501Y-113721831D01*
X158505918Y-113540782D01*
X158324868Y-113392199D01*
X158118311Y-113281792D01*
X157894184Y-113213804D01*
X157661100Y-113190847D01*
X157428015Y-113213804D01*
X157203888Y-113281792D01*
X156997331Y-113392199D01*
X156816282Y-113540782D01*
X156667699Y-113721832D01*
X156557292Y-113928389D01*
X156489304Y-114152516D01*
X156472100Y-114327190D01*
X146755200Y-114327190D01*
X146755200Y-113092702D01*
X155186903Y-113092702D01*
X155258486Y-113336671D01*
X155513996Y-113457571D01*
X155788184Y-113526300D01*
X156070512Y-113540217D01*
X156350130Y-113498787D01*
X156616292Y-113403603D01*
X156741514Y-113336671D01*
X156813097Y-113092702D01*
X158186903Y-113092702D01*
X158258486Y-113336671D01*
X158513996Y-113457571D01*
X158788184Y-113526300D01*
X159070512Y-113540217D01*
X159350130Y-113498787D01*
X159451723Y-113462456D01*
X159356282Y-113540782D01*
X159207699Y-113721832D01*
X159097292Y-113928389D01*
X159029304Y-114152516D01*
X159012100Y-114327190D01*
X159012100Y-115460011D01*
X159029304Y-115634685D01*
X159097292Y-115858812D01*
X159207700Y-116065369D01*
X159356283Y-116246418D01*
X159537332Y-116395001D01*
X159743889Y-116505408D01*
X159968016Y-116573396D01*
X160201100Y-116596353D01*
X160434185Y-116573396D01*
X160658312Y-116505408D01*
X160864869Y-116395001D01*
X161045918Y-116246418D01*
X161194501Y-116065369D01*
X161304908Y-115858812D01*
X161372896Y-115634685D01*
X161390100Y-115460011D01*
X161390100Y-114327189D01*
X161372896Y-114152515D01*
X161304908Y-113928388D01*
X161194501Y-113721831D01*
X161045918Y-113540782D01*
X160864868Y-113392199D01*
X160658311Y-113281792D01*
X160434184Y-113213804D01*
X160201100Y-113190847D01*
X159968015Y-113213804D01*
X159758957Y-113277221D01*
X159813097Y-113092702D01*
X161186903Y-113092702D01*
X161258486Y-113336671D01*
X161513996Y-113457571D01*
X161788184Y-113526300D01*
X162070512Y-113540217D01*
X162350130Y-113498787D01*
X162616292Y-113403603D01*
X162741514Y-113336671D01*
X162813097Y-113092702D01*
X162000000Y-112279605D01*
X161186903Y-113092702D01*
X159813097Y-113092702D01*
X159000000Y-112279605D01*
X158186903Y-113092702D01*
X156813097Y-113092702D01*
X156000000Y-112279605D01*
X155186903Y-113092702D01*
X146755200Y-113092702D01*
X146755200Y-112170512D01*
X154559783Y-112170512D01*
X154601213Y-112450130D01*
X154696397Y-112716292D01*
X154763329Y-112841514D01*
X155007298Y-112913097D01*
X155820395Y-112100000D01*
X156179605Y-112100000D01*
X156992702Y-112913097D01*
X157236671Y-112841514D01*
X157357571Y-112586004D01*
X157426300Y-112311816D01*
X157433265Y-112170512D01*
X157559783Y-112170512D01*
X157601213Y-112450130D01*
X157696397Y-112716292D01*
X157763329Y-112841514D01*
X158007298Y-112913097D01*
X158820395Y-112100000D01*
X159179605Y-112100000D01*
X159992702Y-112913097D01*
X160236671Y-112841514D01*
X160357571Y-112586004D01*
X160426300Y-112311816D01*
X160433265Y-112170512D01*
X160559783Y-112170512D01*
X160601213Y-112450130D01*
X160696397Y-112716292D01*
X160763329Y-112841514D01*
X161007298Y-112913097D01*
X161820395Y-112100000D01*
X162179605Y-112100000D01*
X162992702Y-112913097D01*
X163236671Y-112841514D01*
X163357571Y-112586004D01*
X163426300Y-112311816D01*
X163440217Y-112029488D01*
X163398787Y-111749870D01*
X163303603Y-111483708D01*
X163236671Y-111358486D01*
X162992702Y-111286903D01*
X162179605Y-112100000D01*
X161820395Y-112100000D01*
X161007298Y-111286903D01*
X160763329Y-111358486D01*
X160642429Y-111613996D01*
X160573700Y-111888184D01*
X160559783Y-112170512D01*
X160433265Y-112170512D01*
X160440217Y-112029488D01*
X160398787Y-111749870D01*
X160303603Y-111483708D01*
X160236671Y-111358486D01*
X159992702Y-111286903D01*
X159179605Y-112100000D01*
X158820395Y-112100000D01*
X158007298Y-111286903D01*
X157763329Y-111358486D01*
X157642429Y-111613996D01*
X157573700Y-111888184D01*
X157559783Y-112170512D01*
X157433265Y-112170512D01*
X157440217Y-112029488D01*
X157398787Y-111749870D01*
X157303603Y-111483708D01*
X157236671Y-111358486D01*
X156992702Y-111286903D01*
X156179605Y-112100000D01*
X155820395Y-112100000D01*
X155007298Y-111286903D01*
X154763329Y-111358486D01*
X154642429Y-111613996D01*
X154573700Y-111888184D01*
X154559783Y-112170512D01*
X146755200Y-112170512D01*
X146755200Y-109479151D01*
X154773000Y-109479151D01*
X154773000Y-109720849D01*
X154820153Y-109957903D01*
X154912647Y-110181202D01*
X155046927Y-110382167D01*
X155217833Y-110553073D01*
X155418798Y-110687353D01*
X155543819Y-110739139D01*
X155383708Y-110796397D01*
X155258486Y-110863329D01*
X155186903Y-111107298D01*
X156000000Y-111920395D01*
X156813097Y-111107298D01*
X156741514Y-110863329D01*
X156486004Y-110742429D01*
X156462476Y-110736531D01*
X156581202Y-110687353D01*
X156782167Y-110553073D01*
X156953073Y-110382167D01*
X157087353Y-110181202D01*
X157179847Y-109957903D01*
X157227000Y-109720849D01*
X157227000Y-109479151D01*
X157773000Y-109479151D01*
X157773000Y-109720849D01*
X157820153Y-109957903D01*
X157912647Y-110181202D01*
X158046927Y-110382167D01*
X158217833Y-110553073D01*
X158418798Y-110687353D01*
X158543819Y-110739139D01*
X158383708Y-110796397D01*
X158258486Y-110863329D01*
X158186903Y-111107298D01*
X159000000Y-111920395D01*
X159813097Y-111107298D01*
X159741514Y-110863329D01*
X159486004Y-110742429D01*
X159462476Y-110736531D01*
X159581202Y-110687353D01*
X159782167Y-110553073D01*
X159953073Y-110382167D01*
X160087353Y-110181202D01*
X160179847Y-109957903D01*
X160227000Y-109720849D01*
X160227000Y-109479151D01*
X160773000Y-109479151D01*
X160773000Y-109720849D01*
X160820153Y-109957903D01*
X160912647Y-110181202D01*
X161046927Y-110382167D01*
X161217833Y-110553073D01*
X161418798Y-110687353D01*
X161543819Y-110739139D01*
X161383708Y-110796397D01*
X161258486Y-110863329D01*
X161186903Y-111107298D01*
X162000000Y-111920395D01*
X162813097Y-111107298D01*
X162741514Y-110863329D01*
X162486004Y-110742429D01*
X162462476Y-110736531D01*
X162581202Y-110687353D01*
X162782167Y-110553073D01*
X162953073Y-110382167D01*
X163087353Y-110181202D01*
X163179847Y-109957903D01*
X163227000Y-109720849D01*
X163227000Y-109479151D01*
X163179847Y-109242097D01*
X163087353Y-109018798D01*
X162953073Y-108817833D01*
X162782167Y-108646927D01*
X162581202Y-108512647D01*
X162357903Y-108420153D01*
X162120849Y-108373000D01*
X161879151Y-108373000D01*
X161642097Y-108420153D01*
X161418798Y-108512647D01*
X161217833Y-108646927D01*
X161046927Y-108817833D01*
X160912647Y-109018798D01*
X160820153Y-109242097D01*
X160773000Y-109479151D01*
X160227000Y-109479151D01*
X160179847Y-109242097D01*
X160087353Y-109018798D01*
X159953073Y-108817833D01*
X159782167Y-108646927D01*
X159581202Y-108512647D01*
X159357903Y-108420153D01*
X159120849Y-108373000D01*
X158879151Y-108373000D01*
X158642097Y-108420153D01*
X158418798Y-108512647D01*
X158217833Y-108646927D01*
X158046927Y-108817833D01*
X157912647Y-109018798D01*
X157820153Y-109242097D01*
X157773000Y-109479151D01*
X157227000Y-109479151D01*
X157179847Y-109242097D01*
X157087353Y-109018798D01*
X156953073Y-108817833D01*
X156782167Y-108646927D01*
X156581202Y-108512647D01*
X156357903Y-108420153D01*
X156120849Y-108373000D01*
X155879151Y-108373000D01*
X155642097Y-108420153D01*
X155418798Y-108512647D01*
X155217833Y-108646927D01*
X155046927Y-108817833D01*
X154912647Y-109018798D01*
X154820153Y-109242097D01*
X154773000Y-109479151D01*
X146755200Y-109479151D01*
X146755200Y-106879151D01*
X153973000Y-106879151D01*
X153973000Y-107120849D01*
X154020153Y-107357903D01*
X154112647Y-107581202D01*
X154246927Y-107782167D01*
X154417833Y-107953073D01*
X154618798Y-108087353D01*
X154842097Y-108179847D01*
X155079151Y-108227000D01*
X155320849Y-108227000D01*
X155557903Y-108179847D01*
X155781202Y-108087353D01*
X155982167Y-107953073D01*
X156153073Y-107782167D01*
X156287353Y-107581202D01*
X156379847Y-107357903D01*
X156427000Y-107120849D01*
X156427000Y-106879151D01*
X156379847Y-106642097D01*
X156287353Y-106418798D01*
X156153073Y-106217833D01*
X155982167Y-106046927D01*
X155781202Y-105912647D01*
X155557903Y-105820153D01*
X155320849Y-105773000D01*
X155079151Y-105773000D01*
X154842097Y-105820153D01*
X154618798Y-105912647D01*
X154417833Y-106046927D01*
X154246927Y-106217833D01*
X154112647Y-106418798D01*
X154020153Y-106642097D01*
X153973000Y-106879151D01*
X146755200Y-106879151D01*
X146755200Y-103679151D01*
X153973000Y-103679151D01*
X153973000Y-103920849D01*
X154020153Y-104157903D01*
X154112647Y-104381202D01*
X154246927Y-104582167D01*
X154417833Y-104753073D01*
X154618798Y-104887353D01*
X154842097Y-104979847D01*
X155079151Y-105027000D01*
X155320849Y-105027000D01*
X155557903Y-104979847D01*
X155781202Y-104887353D01*
X155922857Y-104792702D01*
X159386903Y-104792702D01*
X159458486Y-105036671D01*
X159713996Y-105157571D01*
X159988184Y-105226300D01*
X160270512Y-105240217D01*
X160550130Y-105198787D01*
X160816292Y-105103603D01*
X160941514Y-105036671D01*
X161013097Y-104792702D01*
X160200000Y-103979605D01*
X159386903Y-104792702D01*
X155922857Y-104792702D01*
X155982167Y-104753073D01*
X156153073Y-104582167D01*
X156287353Y-104381202D01*
X156379847Y-104157903D01*
X156427000Y-103920849D01*
X156427000Y-103870512D01*
X158759783Y-103870512D01*
X158801213Y-104150130D01*
X158896397Y-104416292D01*
X158963329Y-104541514D01*
X159207298Y-104613097D01*
X160020395Y-103800000D01*
X160379605Y-103800000D01*
X161192702Y-104613097D01*
X161436671Y-104541514D01*
X161557571Y-104286004D01*
X161626300Y-104011816D01*
X161640217Y-103729488D01*
X161598787Y-103449870D01*
X161503603Y-103183708D01*
X161436671Y-103058486D01*
X161192702Y-102986903D01*
X160379605Y-103800000D01*
X160020395Y-103800000D01*
X159207298Y-102986903D01*
X158963329Y-103058486D01*
X158842429Y-103313996D01*
X158773700Y-103588184D01*
X158759783Y-103870512D01*
X156427000Y-103870512D01*
X156427000Y-103679151D01*
X156379847Y-103442097D01*
X156287353Y-103218798D01*
X156153073Y-103017833D01*
X155982167Y-102846927D01*
X155922858Y-102807298D01*
X159386903Y-102807298D01*
X160200000Y-103620395D01*
X161013097Y-102807298D01*
X160941514Y-102563329D01*
X160686004Y-102442429D01*
X160411816Y-102373700D01*
X160129488Y-102359783D01*
X159849870Y-102401213D01*
X159583708Y-102496397D01*
X159458486Y-102563329D01*
X159386903Y-102807298D01*
X155922858Y-102807298D01*
X155781202Y-102712647D01*
X155557903Y-102620153D01*
X155320849Y-102573000D01*
X155079151Y-102573000D01*
X154842097Y-102620153D01*
X154618798Y-102712647D01*
X154417833Y-102846927D01*
X154246927Y-103017833D01*
X154112647Y-103218798D01*
X154020153Y-103442097D01*
X153973000Y-103679151D01*
X146755200Y-103679151D01*
X146755200Y-102102000D01*
X157469580Y-102102000D01*
X157500000Y-102104996D01*
X157598409Y-102095304D01*
X157693036Y-102066599D01*
X157780245Y-102019985D01*
X157856684Y-101957252D01*
X157919417Y-101880813D01*
X157966031Y-101793604D01*
X157994736Y-101698977D01*
X158002000Y-101625221D01*
X158002000Y-101624653D01*
X158004428Y-101600000D01*
X158002000Y-101575347D01*
X158002000Y-93324653D01*
X158004428Y-93300000D01*
X157994736Y-93201591D01*
X157966031Y-93106964D01*
X157919417Y-93019755D01*
X157856684Y-92943316D01*
X157780245Y-92880583D01*
X157693036Y-92833969D01*
X157598409Y-92805264D01*
X157524653Y-92798000D01*
X157500000Y-92795572D01*
X157475347Y-92798000D01*
X149312064Y-92798000D01*
X149462051Y-92752502D01*
X149683896Y-92633924D01*
X149878344Y-92474344D01*
X150037924Y-92279896D01*
X150156502Y-92058051D01*
X150229522Y-91817336D01*
X150254178Y-91567000D01*
X150232711Y-91349040D01*
X150308091Y-91349040D01*
X150402930Y-91613881D01*
X150547615Y-91855131D01*
X150736586Y-92063519D01*
X150962580Y-92231037D01*
X151216913Y-92351246D01*
X151350961Y-92391904D01*
X151573000Y-92269915D01*
X151573000Y-91127000D01*
X150429376Y-91127000D01*
X150308091Y-91349040D01*
X150232711Y-91349040D01*
X150229522Y-91316664D01*
X150156502Y-91075949D01*
X150037924Y-90854104D01*
X149878344Y-90659656D01*
X149867748Y-90650960D01*
X150308091Y-90650960D01*
X150429376Y-90873000D01*
X151573000Y-90873000D01*
X151573000Y-89730085D01*
X151827000Y-89730085D01*
X151827000Y-90873000D01*
X151847000Y-90873000D01*
X151847000Y-91127000D01*
X151827000Y-91127000D01*
X151827000Y-92269915D01*
X152049039Y-92391904D01*
X152183087Y-92351246D01*
X152437420Y-92231037D01*
X152663414Y-92063519D01*
X152727632Y-91992702D01*
X153486903Y-91992702D01*
X153558486Y-92236671D01*
X153813996Y-92357571D01*
X154088184Y-92426300D01*
X154370512Y-92440217D01*
X154650130Y-92398787D01*
X154916292Y-92303603D01*
X155041514Y-92236671D01*
X155113097Y-91992702D01*
X154300000Y-91179605D01*
X153486903Y-91992702D01*
X152727632Y-91992702D01*
X152852385Y-91855131D01*
X152996108Y-91615485D01*
X152996397Y-91616292D01*
X153063329Y-91741514D01*
X153307298Y-91813097D01*
X154120395Y-91000000D01*
X154479605Y-91000000D01*
X155292702Y-91813097D01*
X155536671Y-91741514D01*
X155657571Y-91486004D01*
X155706276Y-91291700D01*
X155760916Y-91471824D01*
X155874851Y-91684983D01*
X156028183Y-91871817D01*
X156215017Y-92025149D01*
X156428176Y-92139084D01*
X156659466Y-92209245D01*
X156839732Y-92227000D01*
X156960268Y-92227000D01*
X157140534Y-92209245D01*
X157371824Y-92139084D01*
X157584983Y-92025149D01*
X157771817Y-91871817D01*
X157925149Y-91684983D01*
X158039084Y-91471824D01*
X158109245Y-91240534D01*
X158132936Y-91000000D01*
X158267064Y-91000000D01*
X158290755Y-91240534D01*
X158360916Y-91471824D01*
X158474851Y-91684983D01*
X158628183Y-91871817D01*
X158815017Y-92025149D01*
X159028176Y-92139084D01*
X159259466Y-92209245D01*
X159439732Y-92227000D01*
X159560268Y-92227000D01*
X159740534Y-92209245D01*
X159971824Y-92139084D01*
X160184983Y-92025149D01*
X160371817Y-91871817D01*
X160525149Y-91684983D01*
X160639084Y-91471824D01*
X160709245Y-91240534D01*
X160732936Y-91000000D01*
X160709245Y-90759466D01*
X160639084Y-90528176D01*
X160525149Y-90315017D01*
X160371817Y-90128183D01*
X160184983Y-89974851D01*
X159971824Y-89860916D01*
X159740534Y-89790755D01*
X159560268Y-89773000D01*
X159439732Y-89773000D01*
X159259466Y-89790755D01*
X159028176Y-89860916D01*
X158815017Y-89974851D01*
X158628183Y-90128183D01*
X158474851Y-90315017D01*
X158360916Y-90528176D01*
X158290755Y-90759466D01*
X158267064Y-91000000D01*
X158132936Y-91000000D01*
X158109245Y-90759466D01*
X158039084Y-90528176D01*
X157925149Y-90315017D01*
X157771817Y-90128183D01*
X157584983Y-89974851D01*
X157371824Y-89860916D01*
X157140534Y-89790755D01*
X156960268Y-89773000D01*
X156839732Y-89773000D01*
X156659466Y-89790755D01*
X156428176Y-89860916D01*
X156215017Y-89974851D01*
X156028183Y-90128183D01*
X155874851Y-90315017D01*
X155760916Y-90528176D01*
X155707061Y-90705712D01*
X155698787Y-90649870D01*
X155603603Y-90383708D01*
X155536671Y-90258486D01*
X155292702Y-90186903D01*
X154479605Y-91000000D01*
X154120395Y-91000000D01*
X153307298Y-90186903D01*
X153063329Y-90258486D01*
X152999597Y-90393177D01*
X152997070Y-90386119D01*
X152852385Y-90144869D01*
X152727633Y-90007298D01*
X153486903Y-90007298D01*
X154300000Y-90820395D01*
X155113097Y-90007298D01*
X155041514Y-89763329D01*
X154786004Y-89642429D01*
X154511816Y-89573700D01*
X154229488Y-89559783D01*
X153949870Y-89601213D01*
X153683708Y-89696397D01*
X153558486Y-89763329D01*
X153486903Y-90007298D01*
X152727633Y-90007298D01*
X152663414Y-89936481D01*
X152437420Y-89768963D01*
X152183087Y-89648754D01*
X152049039Y-89608096D01*
X151827000Y-89730085D01*
X151573000Y-89730085D01*
X151350961Y-89608096D01*
X151216913Y-89648754D01*
X150962580Y-89768963D01*
X150736586Y-89936481D01*
X150547615Y-90144869D01*
X150402930Y-90386119D01*
X150308091Y-90650960D01*
X149867748Y-90650960D01*
X149683896Y-90500076D01*
X149506350Y-90405176D01*
X149602252Y-90371157D01*
X149852355Y-90222178D01*
X150068588Y-90027269D01*
X150242641Y-89793920D01*
X150367825Y-89531099D01*
X150412476Y-89383890D01*
X150291155Y-89154000D01*
X149098000Y-89154000D01*
X149098000Y-89174000D01*
X148844000Y-89174000D01*
X148844000Y-89154000D01*
X147650845Y-89154000D01*
X147529524Y-89383890D01*
X147574175Y-89531099D01*
X147699359Y-89793920D01*
X147873412Y-90027269D01*
X148089645Y-90222178D01*
X148339748Y-90371157D01*
X148435650Y-90405176D01*
X148258104Y-90500076D01*
X148063656Y-90659656D01*
X147904076Y-90854104D01*
X147785498Y-91075949D01*
X147712478Y-91316664D01*
X147687822Y-91567000D01*
X147712478Y-91817336D01*
X147785498Y-92058051D01*
X147904076Y-92279896D01*
X148063656Y-92474344D01*
X148258104Y-92633924D01*
X148479949Y-92752502D01*
X148629936Y-92798000D01*
X146755200Y-92798000D01*
X146755200Y-86843890D01*
X147529524Y-86843890D01*
X147574175Y-86991099D01*
X147699359Y-87253920D01*
X147873412Y-87487269D01*
X148089645Y-87682178D01*
X148215255Y-87757000D01*
X148089645Y-87831822D01*
X147873412Y-88026731D01*
X147699359Y-88260080D01*
X147574175Y-88522901D01*
X147529524Y-88670110D01*
X147650845Y-88900000D01*
X148844000Y-88900000D01*
X148844000Y-86614000D01*
X149098000Y-86614000D01*
X149098000Y-88900000D01*
X150291155Y-88900000D01*
X150412476Y-88670110D01*
X150367825Y-88522901D01*
X150242641Y-88260080D01*
X150068588Y-88026731D01*
X149852355Y-87831822D01*
X149726745Y-87757000D01*
X149852355Y-87682178D01*
X150068588Y-87487269D01*
X150242641Y-87253920D01*
X150367825Y-86991099D01*
X150412476Y-86843890D01*
X150291155Y-86614000D01*
X149098000Y-86614000D01*
X148844000Y-86614000D01*
X147650845Y-86614000D01*
X147529524Y-86843890D01*
X146755200Y-86843890D01*
X146755200Y-86130110D01*
X147529524Y-86130110D01*
X147650845Y-86360000D01*
X148844000Y-86360000D01*
X148844000Y-86340000D01*
X149098000Y-86340000D01*
X149098000Y-86360000D01*
X150291155Y-86360000D01*
X150412476Y-86130110D01*
X150367825Y-85982901D01*
X150242641Y-85720080D01*
X150068588Y-85486731D01*
X149852355Y-85291822D01*
X149741965Y-85226066D01*
X149821000Y-85226066D01*
X149904707Y-85217822D01*
X149985196Y-85193405D01*
X150059376Y-85153755D01*
X150124395Y-85100395D01*
X150177755Y-85035376D01*
X150217405Y-84961196D01*
X150241822Y-84880707D01*
X150250066Y-84797000D01*
X150250066Y-83097000D01*
X150241822Y-83013293D01*
X150217405Y-82932804D01*
X150177755Y-82858624D01*
X150124395Y-82793605D01*
X150059376Y-82740245D01*
X149985196Y-82700595D01*
X149904707Y-82676178D01*
X149821000Y-82667934D01*
X148121000Y-82667934D01*
X148037293Y-82676178D01*
X147956804Y-82700595D01*
X147882624Y-82740245D01*
X147817605Y-82793605D01*
X147764245Y-82858624D01*
X147724595Y-82932804D01*
X147700178Y-83013293D01*
X147691934Y-83097000D01*
X147691934Y-84797000D01*
X147700178Y-84880707D01*
X147724595Y-84961196D01*
X147764245Y-85035376D01*
X147817605Y-85100395D01*
X147882624Y-85153755D01*
X147956804Y-85193405D01*
X148037293Y-85217822D01*
X148121000Y-85226066D01*
X148200035Y-85226066D01*
X148089645Y-85291822D01*
X147873412Y-85486731D01*
X147699359Y-85720080D01*
X147574175Y-85982901D01*
X147529524Y-86130110D01*
X146755200Y-86130110D01*
X146755200Y-78740403D01*
X146895017Y-78855149D01*
X147108176Y-78969084D01*
X147339466Y-79039245D01*
X147519732Y-79057000D01*
X147640268Y-79057000D01*
X147820534Y-79039245D01*
X148051824Y-78969084D01*
X148264983Y-78855149D01*
X148451817Y-78701817D01*
X148605149Y-78514983D01*
X148676229Y-78382000D01*
X149201356Y-78382000D01*
X150492355Y-79673000D01*
X150379151Y-79673000D01*
X150142097Y-79720153D01*
X149918798Y-79812647D01*
X149717833Y-79946927D01*
X149546927Y-80117833D01*
X149412647Y-80318798D01*
X149320153Y-80542097D01*
X149273000Y-80779151D01*
X149273000Y-81020849D01*
X149320153Y-81257903D01*
X149412647Y-81481202D01*
X149546927Y-81682167D01*
X149717833Y-81853073D01*
X149918798Y-81987353D01*
X150142097Y-82079847D01*
X150379151Y-82127000D01*
X150620849Y-82127000D01*
X150857903Y-82079847D01*
X151081202Y-81987353D01*
X151148001Y-81942720D01*
X151148001Y-82280551D01*
X151118798Y-82292647D01*
X150917833Y-82426927D01*
X150746927Y-82597833D01*
X150612647Y-82798798D01*
X150520153Y-83022097D01*
X150473000Y-83259151D01*
X150473000Y-83500849D01*
X150520153Y-83737903D01*
X150612647Y-83961202D01*
X150746927Y-84162167D01*
X150917833Y-84333073D01*
X151118798Y-84467353D01*
X151342097Y-84559847D01*
X151579151Y-84607000D01*
X151820849Y-84607000D01*
X152057903Y-84559847D01*
X152281202Y-84467353D01*
X152482167Y-84333073D01*
X152653073Y-84162167D01*
X152787353Y-83961202D01*
X152879847Y-83737903D01*
X152927000Y-83500849D01*
X152927000Y-83259151D01*
X152879847Y-83022097D01*
X152787353Y-82798798D01*
X152653073Y-82597833D01*
X152482167Y-82426927D01*
X152281202Y-82292647D01*
X152252000Y-82280551D01*
X152252000Y-80127108D01*
X152254670Y-80100000D01*
X152244012Y-79991789D01*
X152212448Y-79887737D01*
X152161191Y-79791842D01*
X152109492Y-79728846D01*
X152109491Y-79728845D01*
X152092211Y-79707789D01*
X152071154Y-79690508D01*
X149839500Y-77458856D01*
X149822211Y-77437789D01*
X149738158Y-77368809D01*
X149642263Y-77317552D01*
X149538211Y-77285988D01*
X149457109Y-77278000D01*
X149457106Y-77278000D01*
X149430000Y-77275330D01*
X149402894Y-77278000D01*
X148676229Y-77278000D01*
X148605149Y-77145017D01*
X148451817Y-76958183D01*
X148264983Y-76804851D01*
X148051824Y-76690916D01*
X147971733Y-76666621D01*
X148193881Y-76587070D01*
X148435131Y-76442385D01*
X148643519Y-76253414D01*
X148811037Y-76027420D01*
X148931246Y-75773087D01*
X148971904Y-75639039D01*
X148849915Y-75417000D01*
X147707000Y-75417000D01*
X147707000Y-75437000D01*
X147453000Y-75437000D01*
X147453000Y-75417000D01*
X147433000Y-75417000D01*
X147433000Y-75163000D01*
X147453000Y-75163000D01*
X147453000Y-75143000D01*
X147707000Y-75143000D01*
X147707000Y-75163000D01*
X148849915Y-75163000D01*
X148971904Y-74940961D01*
X148963888Y-74914533D01*
X153748000Y-79698646D01*
X153748001Y-82283770D01*
X153615017Y-82354851D01*
X153428183Y-82508183D01*
X153274851Y-82695017D01*
X153160916Y-82908176D01*
X153090755Y-83139466D01*
X153067064Y-83380000D01*
X153090755Y-83620534D01*
X153160916Y-83851824D01*
X153274851Y-84064983D01*
X153428183Y-84251817D01*
X153615017Y-84405149D01*
X153828176Y-84519084D01*
X154059466Y-84589245D01*
X154239732Y-84607000D01*
X154360268Y-84607000D01*
X154540534Y-84589245D01*
X154771824Y-84519084D01*
X154984983Y-84405149D01*
X155171817Y-84251817D01*
X155325149Y-84064983D01*
X155439084Y-83851824D01*
X155509245Y-83620534D01*
X155532936Y-83380000D01*
X155509245Y-83139466D01*
X155439084Y-82908176D01*
X155325149Y-82695017D01*
X155171817Y-82508183D01*
X154984983Y-82354851D01*
X154852000Y-82283771D01*
X154852000Y-82180919D01*
X155013996Y-82257571D01*
X155288184Y-82326300D01*
X155570512Y-82340217D01*
X155850130Y-82298787D01*
X156116292Y-82203603D01*
X156241514Y-82136671D01*
X156313097Y-81892702D01*
X155500000Y-81079605D01*
X155485858Y-81093748D01*
X155306253Y-80914143D01*
X155320395Y-80900000D01*
X155679605Y-80900000D01*
X156492702Y-81713097D01*
X156736671Y-81641514D01*
X156857571Y-81386004D01*
X156926300Y-81111816D01*
X156940217Y-80829488D01*
X156898787Y-80549870D01*
X156880953Y-80500000D01*
X157165128Y-80500000D01*
X157196542Y-80818948D01*
X157289575Y-81125638D01*
X157440654Y-81408286D01*
X157643971Y-81656029D01*
X157891714Y-81859346D01*
X158174362Y-82010425D01*
X158481052Y-82103458D01*
X158720075Y-82127000D01*
X158879925Y-82127000D01*
X159118948Y-82103458D01*
X159425638Y-82010425D01*
X159708286Y-81859346D01*
X159956029Y-81656029D01*
X160159346Y-81408286D01*
X160310425Y-81125638D01*
X160403458Y-80818948D01*
X160434872Y-80500000D01*
X160403458Y-80181052D01*
X160310425Y-79874362D01*
X160159346Y-79591714D01*
X159956029Y-79343971D01*
X159708286Y-79140654D01*
X159425638Y-78989575D01*
X159118948Y-78896542D01*
X158879925Y-78873000D01*
X158720075Y-78873000D01*
X158481052Y-78896542D01*
X158174362Y-78989575D01*
X157891714Y-79140654D01*
X157643971Y-79343971D01*
X157440654Y-79591714D01*
X157289575Y-79874362D01*
X157196542Y-80181052D01*
X157165128Y-80500000D01*
X156880953Y-80500000D01*
X156803603Y-80283708D01*
X156736671Y-80158486D01*
X156492702Y-80086903D01*
X155679605Y-80900000D01*
X155320395Y-80900000D01*
X155306253Y-80885858D01*
X155485858Y-80706253D01*
X155500000Y-80720395D01*
X156313097Y-79907298D01*
X156241514Y-79663329D01*
X155986004Y-79542429D01*
X155711816Y-79473700D01*
X155429488Y-79459783D01*
X155149870Y-79501213D01*
X154883708Y-79596397D01*
X154852000Y-79613345D01*
X154852000Y-79497105D01*
X154854670Y-79469999D01*
X154852000Y-79442891D01*
X154844012Y-79361789D01*
X154812448Y-79257737D01*
X154761191Y-79161842D01*
X154692211Y-79077789D01*
X154671154Y-79060508D01*
X153440646Y-77830000D01*
X153967064Y-77830000D01*
X153990755Y-78070534D01*
X154060916Y-78301824D01*
X154174851Y-78514983D01*
X154328183Y-78701817D01*
X154515017Y-78855149D01*
X154728176Y-78969084D01*
X154959466Y-79039245D01*
X155139732Y-79057000D01*
X155260268Y-79057000D01*
X155440534Y-79039245D01*
X155671824Y-78969084D01*
X155884983Y-78855149D01*
X156071817Y-78701817D01*
X156225149Y-78514983D01*
X156339084Y-78301824D01*
X156409245Y-78070534D01*
X156432936Y-77830000D01*
X156409245Y-77589466D01*
X156339084Y-77358176D01*
X156225149Y-77145017D01*
X156071817Y-76958183D01*
X155884983Y-76804851D01*
X155671824Y-76690916D01*
X155440534Y-76620755D01*
X155260268Y-76603000D01*
X155139732Y-76603000D01*
X154959466Y-76620755D01*
X154728176Y-76690916D01*
X154515017Y-76804851D01*
X154328183Y-76958183D01*
X154174851Y-77145017D01*
X154060916Y-77358176D01*
X153990755Y-77589466D01*
X153967064Y-77830000D01*
X153440646Y-77830000D01*
X148745474Y-73134829D01*
X148789245Y-72990534D01*
X148812936Y-72750000D01*
X148789245Y-72509466D01*
X148719084Y-72278176D01*
X148605149Y-72065017D01*
X148451817Y-71878183D01*
X148264983Y-71724851D01*
X148051824Y-71610916D01*
X147820534Y-71540755D01*
X147640268Y-71523000D01*
X147519732Y-71523000D01*
X147339466Y-71540755D01*
X147108176Y-71610916D01*
X146895017Y-71724851D01*
X146755200Y-71839597D01*
X146755200Y-71436624D01*
X146780000Y-71439066D01*
X148380000Y-71439066D01*
X148463707Y-71430822D01*
X148544196Y-71406405D01*
X148618376Y-71366755D01*
X148683395Y-71313395D01*
X148736755Y-71248376D01*
X148776405Y-71174196D01*
X148800822Y-71093707D01*
X148809066Y-71010000D01*
X148809066Y-70210000D01*
X153967064Y-70210000D01*
X153990755Y-70450534D01*
X154060916Y-70681824D01*
X154174851Y-70894983D01*
X154328183Y-71081817D01*
X154515017Y-71235149D01*
X154728176Y-71349084D01*
X154959466Y-71419245D01*
X155139732Y-71437000D01*
X155260268Y-71437000D01*
X155440534Y-71419245D01*
X155671824Y-71349084D01*
X155884983Y-71235149D01*
X156071817Y-71081817D01*
X156225149Y-70894983D01*
X156339084Y-70681824D01*
X156349154Y-70648627D01*
X156362647Y-70681202D01*
X156496927Y-70882167D01*
X156667833Y-71053073D01*
X156868798Y-71187353D01*
X157092097Y-71279847D01*
X157329151Y-71327000D01*
X157570849Y-71327000D01*
X157807903Y-71279847D01*
X158031202Y-71187353D01*
X158232167Y-71053073D01*
X158403073Y-70882167D01*
X158537353Y-70681202D01*
X158629847Y-70457903D01*
X158677000Y-70220849D01*
X158677000Y-69979151D01*
X158629847Y-69742097D01*
X158537353Y-69518798D01*
X158403073Y-69317833D01*
X158232167Y-69146927D01*
X158031202Y-69012647D01*
X157807903Y-68920153D01*
X157570849Y-68873000D01*
X157329151Y-68873000D01*
X157092097Y-68920153D01*
X156868798Y-69012647D01*
X156667833Y-69146927D01*
X156496927Y-69317833D01*
X156362647Y-69518798D01*
X156301164Y-69667231D01*
X156225149Y-69525017D01*
X156071817Y-69338183D01*
X155884983Y-69184851D01*
X155671824Y-69070916D01*
X155440534Y-69000755D01*
X155260268Y-68983000D01*
X155139732Y-68983000D01*
X154959466Y-69000755D01*
X154728176Y-69070916D01*
X154515017Y-69184851D01*
X154328183Y-69338183D01*
X154174851Y-69525017D01*
X154060916Y-69738176D01*
X153990755Y-69969466D01*
X153967064Y-70210000D01*
X148809066Y-70210000D01*
X148809066Y-69410000D01*
X148800822Y-69326293D01*
X148776405Y-69245804D01*
X148736755Y-69171624D01*
X148683395Y-69106605D01*
X148618376Y-69053245D01*
X148544196Y-69013595D01*
X148463707Y-68989178D01*
X148380000Y-68980934D01*
X146780000Y-68980934D01*
X146755200Y-68983376D01*
X146755200Y-68067597D01*
X146837332Y-68135001D01*
X147043889Y-68245408D01*
X147268016Y-68313396D01*
X147501100Y-68336353D01*
X147734185Y-68313396D01*
X147958312Y-68245408D01*
X148164869Y-68135001D01*
X148345918Y-67986418D01*
X148494501Y-67805369D01*
X148604908Y-67598812D01*
X148672896Y-67374685D01*
X148690100Y-67200011D01*
X148690100Y-66067190D01*
X148852100Y-66067190D01*
X148852100Y-67200011D01*
X148869304Y-67374685D01*
X148937292Y-67598812D01*
X149047700Y-67805369D01*
X149196283Y-67986418D01*
X149377332Y-68135001D01*
X149583889Y-68245408D01*
X149808016Y-68313396D01*
X150041100Y-68336353D01*
X150274185Y-68313396D01*
X150498312Y-68245408D01*
X150704869Y-68135001D01*
X150885918Y-67986418D01*
X151034501Y-67805369D01*
X151144908Y-67598812D01*
X151212896Y-67374685D01*
X151230100Y-67200011D01*
X151230100Y-66067190D01*
X151392100Y-66067190D01*
X151392100Y-67200011D01*
X151409304Y-67374685D01*
X151477292Y-67598812D01*
X151587700Y-67805369D01*
X151736283Y-67986418D01*
X151917332Y-68135001D01*
X152123889Y-68245408D01*
X152348016Y-68313396D01*
X152581100Y-68336353D01*
X152814185Y-68313396D01*
X153038312Y-68245408D01*
X153244869Y-68135001D01*
X153425918Y-67986418D01*
X153574501Y-67805369D01*
X153684908Y-67598812D01*
X153752896Y-67374685D01*
X153770100Y-67200011D01*
X153770100Y-66210545D01*
X153934137Y-66046508D01*
X153932100Y-66067190D01*
X153932100Y-67200011D01*
X153949304Y-67374685D01*
X154017292Y-67598812D01*
X154127700Y-67805369D01*
X154276283Y-67986418D01*
X154457332Y-68135001D01*
X154663889Y-68245408D01*
X154888016Y-68313396D01*
X155121100Y-68336353D01*
X155354185Y-68313396D01*
X155578312Y-68245408D01*
X155784869Y-68135001D01*
X155965918Y-67986418D01*
X156114501Y-67805369D01*
X156224908Y-67598812D01*
X156292896Y-67374685D01*
X156310100Y-67200011D01*
X156310100Y-66067189D01*
X156292896Y-65892515D01*
X156224908Y-65668388D01*
X156162697Y-65552000D01*
X159159503Y-65552000D01*
X159097292Y-65668389D01*
X159029304Y-65892516D01*
X159012100Y-66067190D01*
X159012100Y-67200011D01*
X159029304Y-67374685D01*
X159097292Y-67598812D01*
X159207700Y-67805369D01*
X159356283Y-67986418D01*
X159537332Y-68135001D01*
X159743889Y-68245408D01*
X159968016Y-68313396D01*
X160201100Y-68336353D01*
X160434185Y-68313396D01*
X160658312Y-68245408D01*
X160864869Y-68135001D01*
X161045918Y-67986418D01*
X161194501Y-67805369D01*
X161304908Y-67598812D01*
X161372896Y-67374685D01*
X161390100Y-67200011D01*
X161390100Y-66067189D01*
X161372896Y-65892515D01*
X161304908Y-65668388D01*
X161242697Y-65552000D01*
X161699503Y-65552000D01*
X161637292Y-65668389D01*
X161569304Y-65892516D01*
X161552100Y-66067190D01*
X161552100Y-67200011D01*
X161569304Y-67374685D01*
X161637292Y-67598812D01*
X161747700Y-67805369D01*
X161896283Y-67986418D01*
X162077332Y-68135001D01*
X162283889Y-68245408D01*
X162508016Y-68313396D01*
X162741100Y-68336353D01*
X162974185Y-68313396D01*
X163198312Y-68245408D01*
X163404869Y-68135001D01*
X163585918Y-67986418D01*
X163608002Y-67959509D01*
X163608001Y-68218801D01*
X158677000Y-73149804D01*
X158677000Y-72929151D01*
X158629847Y-72692097D01*
X158537353Y-72468798D01*
X158403073Y-72267833D01*
X158232167Y-72096927D01*
X158031202Y-71962647D01*
X157807903Y-71870153D01*
X157570849Y-71823000D01*
X157329151Y-71823000D01*
X157092097Y-71870153D01*
X156868798Y-71962647D01*
X156667833Y-72096927D01*
X156496927Y-72267833D01*
X156386211Y-72433532D01*
X156339084Y-72278176D01*
X156225149Y-72065017D01*
X156071817Y-71878183D01*
X155884983Y-71724851D01*
X155671824Y-71610916D01*
X155440534Y-71540755D01*
X155260268Y-71523000D01*
X155139732Y-71523000D01*
X154959466Y-71540755D01*
X154728176Y-71610916D01*
X154515017Y-71724851D01*
X154328183Y-71878183D01*
X154174851Y-72065017D01*
X154060916Y-72278176D01*
X153990755Y-72509466D01*
X153967064Y-72750000D01*
X153990755Y-72990534D01*
X154060916Y-73221824D01*
X154174851Y-73434983D01*
X154328183Y-73621817D01*
X154515017Y-73775149D01*
X154728176Y-73889084D01*
X154959466Y-73959245D01*
X155139732Y-73977000D01*
X155260268Y-73977000D01*
X155391750Y-73964050D01*
X155289883Y-74065917D01*
X155260268Y-74063000D01*
X155139732Y-74063000D01*
X154959466Y-74080755D01*
X154728176Y-74150916D01*
X154515017Y-74264851D01*
X154328183Y-74418183D01*
X154174851Y-74605017D01*
X154060916Y-74818176D01*
X153990755Y-75049466D01*
X153967064Y-75290000D01*
X153990755Y-75530534D01*
X154060916Y-75761824D01*
X154174851Y-75974983D01*
X154328183Y-76161817D01*
X154515017Y-76315149D01*
X154728176Y-76429084D01*
X154959466Y-76499245D01*
X155139732Y-76517000D01*
X155260268Y-76517000D01*
X155440534Y-76499245D01*
X155671824Y-76429084D01*
X155884983Y-76315149D01*
X156071817Y-76161817D01*
X156225149Y-75974983D01*
X156339084Y-75761824D01*
X156409245Y-75530534D01*
X156432739Y-75292001D01*
X157707297Y-75292001D01*
X157643971Y-75343971D01*
X157440654Y-75591714D01*
X157289575Y-75874362D01*
X157196542Y-76181052D01*
X157165128Y-76500000D01*
X157196542Y-76818948D01*
X157289575Y-77125638D01*
X157440654Y-77408286D01*
X157643971Y-77656029D01*
X157891714Y-77859346D01*
X158174362Y-78010425D01*
X158481052Y-78103458D01*
X158720075Y-78127000D01*
X158879925Y-78127000D01*
X159118948Y-78103458D01*
X159425638Y-78010425D01*
X159708286Y-77859346D01*
X159956029Y-77656029D01*
X160159346Y-77408286D01*
X160310425Y-77125638D01*
X160403458Y-76818948D01*
X160434872Y-76500000D01*
X160403458Y-76181052D01*
X160310425Y-75874362D01*
X160159346Y-75591714D01*
X159956029Y-75343971D01*
X159708286Y-75140654D01*
X159425638Y-74989575D01*
X159180106Y-74915094D01*
X161045200Y-73050000D01*
X163837064Y-73050000D01*
X163860755Y-73290534D01*
X163930916Y-73521824D01*
X164044851Y-73734983D01*
X164198183Y-73921817D01*
X164385017Y-74075149D01*
X164598176Y-74189084D01*
X164829466Y-74259245D01*
X165009732Y-74277000D01*
X165130268Y-74277000D01*
X165310534Y-74259245D01*
X165541824Y-74189084D01*
X165754983Y-74075149D01*
X165941817Y-73921817D01*
X166095149Y-73734983D01*
X166209084Y-73521824D01*
X166279245Y-73290534D01*
X166302936Y-73050000D01*
X166547064Y-73050000D01*
X166570755Y-73290534D01*
X166640916Y-73521824D01*
X166754851Y-73734983D01*
X166908183Y-73921817D01*
X167095017Y-74075149D01*
X167308176Y-74189084D01*
X167539466Y-74259245D01*
X167719732Y-74277000D01*
X167840268Y-74277000D01*
X168020534Y-74259245D01*
X168251824Y-74189084D01*
X168464983Y-74075149D01*
X168651817Y-73921817D01*
X168805149Y-73734983D01*
X168919084Y-73521824D01*
X168989245Y-73290534D01*
X169012936Y-73050000D01*
X169001034Y-72929151D01*
X174173000Y-72929151D01*
X174173000Y-73170849D01*
X174220153Y-73407903D01*
X174312647Y-73631202D01*
X174446927Y-73832167D01*
X174617833Y-74003073D01*
X174818798Y-74137353D01*
X175042097Y-74229847D01*
X175279151Y-74277000D01*
X175520849Y-74277000D01*
X175757903Y-74229847D01*
X175981202Y-74137353D01*
X176182167Y-74003073D01*
X176353073Y-73832167D01*
X176487353Y-73631202D01*
X176579847Y-73407903D01*
X176627000Y-73170849D01*
X176627000Y-72929151D01*
X176579847Y-72692097D01*
X176487353Y-72468798D01*
X176353073Y-72267833D01*
X176182167Y-72096927D01*
X175981202Y-71962647D01*
X175757903Y-71870153D01*
X175520849Y-71823000D01*
X175279151Y-71823000D01*
X175042097Y-71870153D01*
X174818798Y-71962647D01*
X174617833Y-72096927D01*
X174446927Y-72267833D01*
X174312647Y-72468798D01*
X174220153Y-72692097D01*
X174173000Y-72929151D01*
X169001034Y-72929151D01*
X168989245Y-72809466D01*
X168919084Y-72578176D01*
X168805149Y-72365017D01*
X168651817Y-72178183D01*
X168464983Y-72024851D01*
X168251824Y-71910916D01*
X168020534Y-71840755D01*
X167840268Y-71823000D01*
X167719732Y-71823000D01*
X167539466Y-71840755D01*
X167308176Y-71910916D01*
X167095017Y-72024851D01*
X166908183Y-72178183D01*
X166754851Y-72365017D01*
X166640916Y-72578176D01*
X166570755Y-72809466D01*
X166547064Y-73050000D01*
X166302936Y-73050000D01*
X166279245Y-72809466D01*
X166209084Y-72578176D01*
X166095149Y-72365017D01*
X165941817Y-72178183D01*
X165754983Y-72024851D01*
X165541824Y-71910916D01*
X165310534Y-71840755D01*
X165130268Y-71823000D01*
X165009732Y-71823000D01*
X164829466Y-71840755D01*
X164598176Y-71910916D01*
X164385017Y-72024851D01*
X164198183Y-72178183D01*
X164044851Y-72365017D01*
X163930916Y-72578176D01*
X163860755Y-72809466D01*
X163837064Y-73050000D01*
X161045200Y-73050000D01*
X163851243Y-70243959D01*
X163860755Y-70340534D01*
X163930916Y-70571824D01*
X164044851Y-70784983D01*
X164198183Y-70971817D01*
X164385017Y-71125149D01*
X164598176Y-71239084D01*
X164829466Y-71309245D01*
X165009732Y-71327000D01*
X165130268Y-71327000D01*
X165310534Y-71309245D01*
X165541824Y-71239084D01*
X165754983Y-71125149D01*
X165941817Y-70971817D01*
X166095149Y-70784983D01*
X166209084Y-70571824D01*
X166279245Y-70340534D01*
X166302936Y-70100000D01*
X166298012Y-70050000D01*
X166547064Y-70050000D01*
X166570755Y-70290534D01*
X166640916Y-70521824D01*
X166754851Y-70734983D01*
X166908183Y-70921817D01*
X167095017Y-71075149D01*
X167308176Y-71189084D01*
X167539466Y-71259245D01*
X167719732Y-71277000D01*
X167840268Y-71277000D01*
X168020534Y-71259245D01*
X168251824Y-71189084D01*
X168464983Y-71075149D01*
X168651817Y-70921817D01*
X168805149Y-70734983D01*
X168919084Y-70521824D01*
X168989245Y-70290534D01*
X169012936Y-70050000D01*
X169001034Y-69929151D01*
X174173000Y-69929151D01*
X174173000Y-70170849D01*
X174220153Y-70407903D01*
X174312647Y-70631202D01*
X174446927Y-70832167D01*
X174617833Y-71003073D01*
X174818798Y-71137353D01*
X175042097Y-71229847D01*
X175279151Y-71277000D01*
X175520849Y-71277000D01*
X175757903Y-71229847D01*
X175981202Y-71137353D01*
X176182167Y-71003073D01*
X176353073Y-70832167D01*
X176487353Y-70631202D01*
X176579847Y-70407903D01*
X176627000Y-70170849D01*
X176627000Y-69929151D01*
X176579847Y-69692097D01*
X176487353Y-69468798D01*
X176353073Y-69267833D01*
X176182167Y-69096927D01*
X175981202Y-68962647D01*
X175757903Y-68870153D01*
X175520849Y-68823000D01*
X175279151Y-68823000D01*
X175042097Y-68870153D01*
X174818798Y-68962647D01*
X174617833Y-69096927D01*
X174446927Y-69267833D01*
X174312647Y-69468798D01*
X174220153Y-69692097D01*
X174173000Y-69929151D01*
X169001034Y-69929151D01*
X168989245Y-69809466D01*
X168919084Y-69578176D01*
X168805149Y-69365017D01*
X168651817Y-69178183D01*
X168464983Y-69024851D01*
X168251824Y-68910916D01*
X168020534Y-68840755D01*
X167840268Y-68823000D01*
X167719732Y-68823000D01*
X167539466Y-68840755D01*
X167308176Y-68910916D01*
X167095017Y-69024851D01*
X166908183Y-69178183D01*
X166754851Y-69365017D01*
X166640916Y-69578176D01*
X166570755Y-69809466D01*
X166547064Y-70050000D01*
X166298012Y-70050000D01*
X166279245Y-69859466D01*
X166209084Y-69628176D01*
X166095149Y-69415017D01*
X165941817Y-69228183D01*
X165754983Y-69074851D01*
X165541824Y-68960916D01*
X165310534Y-68890755D01*
X165146416Y-68874591D01*
X165154537Y-68859398D01*
X165198100Y-68715789D01*
X165200396Y-68708221D01*
X165202140Y-68690509D01*
X165212001Y-68590395D01*
X165212001Y-68590388D01*
X165215880Y-68551002D01*
X165212001Y-68511616D01*
X165212001Y-67877000D01*
X165322726Y-67877000D01*
X165510336Y-67858522D01*
X165751051Y-67785502D01*
X165972896Y-67666924D01*
X166167344Y-67507344D01*
X166326924Y-67312896D01*
X166421824Y-67135350D01*
X166455843Y-67231252D01*
X166604822Y-67481355D01*
X166799731Y-67697588D01*
X167033080Y-67871641D01*
X167295901Y-67996825D01*
X167443110Y-68041476D01*
X167673000Y-67920155D01*
X167673000Y-66727000D01*
X167653000Y-66727000D01*
X167653000Y-66473000D01*
X167673000Y-66473000D01*
X167673000Y-66453000D01*
X167927000Y-66453000D01*
X167927000Y-66473000D01*
X167947000Y-66473000D01*
X167947000Y-66727000D01*
X167927000Y-66727000D01*
X167927000Y-67920155D01*
X168156890Y-68041476D01*
X168304099Y-67996825D01*
X168566920Y-67871641D01*
X168800269Y-67697588D01*
X168995178Y-67481355D01*
X169144157Y-67231252D01*
X169178176Y-67135350D01*
X169273076Y-67312896D01*
X169432656Y-67507344D01*
X169627104Y-67666924D01*
X169848949Y-67785502D01*
X170089664Y-67858522D01*
X170277274Y-67877000D01*
X170402726Y-67877000D01*
X170590336Y-67858522D01*
X170831051Y-67785502D01*
X171052896Y-67666924D01*
X171247344Y-67507344D01*
X171406924Y-67312896D01*
X171525502Y-67091051D01*
X171598522Y-66850336D01*
X171600934Y-66825847D01*
X171600934Y-67450000D01*
X171609178Y-67533707D01*
X171633595Y-67614196D01*
X171673245Y-67688376D01*
X171726605Y-67753395D01*
X171791624Y-67806755D01*
X171865804Y-67846405D01*
X171946293Y-67870822D01*
X172030000Y-67879066D01*
X173730000Y-67879066D01*
X173813707Y-67870822D01*
X173894196Y-67846405D01*
X173968376Y-67806755D01*
X174033395Y-67753395D01*
X174086755Y-67688376D01*
X174126405Y-67614196D01*
X174150822Y-67533707D01*
X174159066Y-67450000D01*
X174159066Y-65750000D01*
X174150822Y-65666293D01*
X174126405Y-65585804D01*
X174086755Y-65511624D01*
X174033395Y-65446605D01*
X173968376Y-65393245D01*
X173894196Y-65353595D01*
X173813707Y-65329178D01*
X173730000Y-65320934D01*
X172401579Y-65320934D01*
X171709500Y-64628856D01*
X171692211Y-64607789D01*
X171608158Y-64538809D01*
X171512263Y-64487552D01*
X171408211Y-64455988D01*
X171327109Y-64448000D01*
X171327106Y-64448000D01*
X171300000Y-64445330D01*
X171272894Y-64448000D01*
X154227097Y-64448000D01*
X154199999Y-64445331D01*
X154172901Y-64448000D01*
X154172891Y-64448000D01*
X154091789Y-64455988D01*
X153987737Y-64487552D01*
X153944365Y-64510735D01*
X153891841Y-64538809D01*
X153834679Y-64585721D01*
X153807789Y-64607789D01*
X153790508Y-64628846D01*
X153268094Y-65151260D01*
X153244868Y-65132199D01*
X153038311Y-65021792D01*
X152814184Y-64953804D01*
X152581100Y-64930847D01*
X152348015Y-64953804D01*
X152123888Y-65021792D01*
X151917331Y-65132199D01*
X151736282Y-65280782D01*
X151587699Y-65461832D01*
X151477292Y-65668389D01*
X151409304Y-65892516D01*
X151392100Y-66067190D01*
X151230100Y-66067190D01*
X151230100Y-66067189D01*
X151212896Y-65892515D01*
X151144908Y-65668388D01*
X151034501Y-65461831D01*
X150885918Y-65280782D01*
X150704868Y-65132199D01*
X150498311Y-65021792D01*
X150274184Y-64953804D01*
X150041100Y-64930847D01*
X149808015Y-64953804D01*
X149583888Y-65021792D01*
X149377331Y-65132199D01*
X149196282Y-65280782D01*
X149047699Y-65461832D01*
X148937292Y-65668389D01*
X148869304Y-65892516D01*
X148852100Y-66067190D01*
X148690100Y-66067190D01*
X148690100Y-66067189D01*
X148672896Y-65892515D01*
X148604908Y-65668388D01*
X148494501Y-65461831D01*
X148345918Y-65280782D01*
X148164868Y-65132199D01*
X147958311Y-65021792D01*
X147734184Y-64953804D01*
X147501100Y-64930847D01*
X147268015Y-64953804D01*
X147043888Y-65021792D01*
X146837331Y-65132199D01*
X146755200Y-65199602D01*
X146755200Y-64383000D01*
X180964786Y-64383000D01*
X180656405Y-64510735D01*
X180656405Y-64510735D01*
G37*
X180656405Y-64510735D02*
X180264058Y-64772893D01*
X179930393Y-65106558D01*
X179668235Y-65498905D01*
X179487658Y-65934858D01*
X179395600Y-66397664D01*
X179395600Y-66869536D01*
X179487658Y-67332342D01*
X179668235Y-67768295D01*
X179930393Y-68160642D01*
X180264058Y-68494307D01*
X180454565Y-68621600D01*
X177703135Y-68621600D01*
X177692211Y-68608289D01*
X177671154Y-68591008D01*
X176576107Y-67495962D01*
X176612896Y-67374685D01*
X176630100Y-67200011D01*
X176630100Y-66067190D01*
X176792100Y-66067190D01*
X176792100Y-67200011D01*
X176809304Y-67374685D01*
X176877292Y-67598812D01*
X176987700Y-67805369D01*
X177136283Y-67986418D01*
X177317332Y-68135001D01*
X177523889Y-68245408D01*
X177748016Y-68313396D01*
X177981100Y-68336353D01*
X178214185Y-68313396D01*
X178438312Y-68245408D01*
X178644869Y-68135001D01*
X178825918Y-67986418D01*
X178974501Y-67805369D01*
X179084908Y-67598812D01*
X179152896Y-67374685D01*
X179170100Y-67200011D01*
X179170100Y-66067189D01*
X179152896Y-65892515D01*
X179084908Y-65668388D01*
X178974501Y-65461831D01*
X178825918Y-65280782D01*
X178644868Y-65132199D01*
X178438311Y-65021792D01*
X178214184Y-64953804D01*
X177981100Y-64930847D01*
X177748015Y-64953804D01*
X177523888Y-65021792D01*
X177317331Y-65132199D01*
X177136282Y-65280782D01*
X176987699Y-65461832D01*
X176877292Y-65668389D01*
X176809304Y-65892516D01*
X176792100Y-66067190D01*
X176630100Y-66067190D01*
X176630100Y-66067189D01*
X176612896Y-65892515D01*
X176544908Y-65668388D01*
X176434501Y-65461831D01*
X176285918Y-65280782D01*
X176104868Y-65132199D01*
X175898311Y-65021792D01*
X175674184Y-64953804D01*
X175441100Y-64930847D01*
X175208015Y-64953804D01*
X174983888Y-65021792D01*
X174777331Y-65132199D01*
X174596282Y-65280782D01*
X174447699Y-65461832D01*
X174337292Y-65668389D01*
X174269304Y-65892516D01*
X174252100Y-66067190D01*
X174252100Y-67200011D01*
X174269304Y-67374685D01*
X174337292Y-67598812D01*
X174447700Y-67805369D01*
X174596283Y-67986418D01*
X174777332Y-68135001D01*
X174983889Y-68245408D01*
X175208016Y-68313396D01*
X175441100Y-68336353D01*
X175674185Y-68313396D01*
X175795462Y-68276607D01*
X176740000Y-69221146D01*
X176740001Y-70466065D01*
X176727302Y-70478764D01*
X176647741Y-70597836D01*
X176592938Y-70730142D01*
X176565000Y-70870597D01*
X176565000Y-71013803D01*
X176592938Y-71154258D01*
X176647741Y-71286564D01*
X176727302Y-71405636D01*
X176828564Y-71506898D01*
X176947636Y-71586459D01*
X177079942Y-71641262D01*
X177220397Y-71669200D01*
X177363603Y-71669200D01*
X177504058Y-71641262D01*
X177636364Y-71586459D01*
X177755436Y-71506898D01*
X177856698Y-71405636D01*
X177936259Y-71286564D01*
X177991062Y-71154258D01*
X178019000Y-71013803D01*
X178019000Y-70870597D01*
X177991062Y-70730142D01*
X177936259Y-70597836D01*
X177856698Y-70478764D01*
X177844000Y-70466066D01*
X177844000Y-69725600D01*
X187044871Y-69725600D01*
X187115951Y-69858583D01*
X187269283Y-70045417D01*
X187456117Y-70198749D01*
X187669276Y-70312684D01*
X187900566Y-70382845D01*
X188080832Y-70400600D01*
X188201368Y-70400600D01*
X188381634Y-70382845D01*
X188612924Y-70312684D01*
X188826083Y-70198749D01*
X189012917Y-70045417D01*
X189166249Y-69858583D01*
X189280184Y-69645424D01*
X189350345Y-69414134D01*
X189374036Y-69173600D01*
X189350345Y-68933066D01*
X189280184Y-68701776D01*
X189166249Y-68488617D01*
X189012917Y-68301783D01*
X188826083Y-68148451D01*
X188612924Y-68034516D01*
X188381634Y-67964355D01*
X188201368Y-67946600D01*
X188080832Y-67946600D01*
X187900566Y-67964355D01*
X187669276Y-68034516D01*
X187456117Y-68148451D01*
X187269283Y-68301783D01*
X187115951Y-68488617D01*
X187044871Y-68621600D01*
X183127635Y-68621600D01*
X183318142Y-68494307D01*
X183651807Y-68160642D01*
X183913965Y-67768295D01*
X184094542Y-67332342D01*
X184186600Y-66869536D01*
X184186600Y-66397664D01*
X184094542Y-65934858D01*
X184052600Y-65833600D01*
X186912034Y-65833600D01*
X186912034Y-67433600D01*
X186920278Y-67517307D01*
X186944695Y-67597796D01*
X186984345Y-67671976D01*
X187037705Y-67736995D01*
X187102724Y-67790355D01*
X187176904Y-67830005D01*
X187257393Y-67854422D01*
X187341100Y-67862666D01*
X188941100Y-67862666D01*
X189024807Y-67854422D01*
X189105296Y-67830005D01*
X189179476Y-67790355D01*
X189244495Y-67736995D01*
X189297855Y-67671976D01*
X189337505Y-67597796D01*
X189361922Y-67517307D01*
X189370166Y-67433600D01*
X189370166Y-65833600D01*
X189361922Y-65749893D01*
X189337505Y-65669404D01*
X189297855Y-65595224D01*
X189244495Y-65530205D01*
X189179476Y-65476845D01*
X189105296Y-65437195D01*
X189024807Y-65412778D01*
X188941100Y-65404534D01*
X187341100Y-65404534D01*
X187257393Y-65412778D01*
X187176904Y-65437195D01*
X187102724Y-65476845D01*
X187037705Y-65530205D01*
X186984345Y-65595224D01*
X186944695Y-65669404D01*
X186920278Y-65749893D01*
X186912034Y-65833600D01*
X184052600Y-65833600D01*
X183913965Y-65498905D01*
X183651807Y-65106558D01*
X183318142Y-64772893D01*
X182925795Y-64510735D01*
X182617414Y-64383000D01*
X190379001Y-64383000D01*
X190379000Y-80386675D01*
X190374180Y-80384098D01*
X190254482Y-80347788D01*
X190130000Y-80335528D01*
X189515750Y-80338600D01*
X189357000Y-80497350D01*
X189357000Y-81746600D01*
X189377000Y-81746600D01*
X189377000Y-82000600D01*
X189357000Y-82000600D01*
X189357000Y-82020600D01*
X189103000Y-82020600D01*
X189103000Y-82000600D01*
X187853750Y-82000600D01*
X187695000Y-82159350D01*
X187691928Y-82773600D01*
X187704188Y-82898082D01*
X187740498Y-83017780D01*
X187799463Y-83128094D01*
X187878815Y-83224785D01*
X187975506Y-83304137D01*
X188085820Y-83363102D01*
X188205518Y-83399412D01*
X188330000Y-83411672D01*
X188355394Y-83411545D01*
X188199252Y-83567687D01*
X188054028Y-83785030D01*
X187953996Y-84026528D01*
X187903000Y-84282902D01*
X187903000Y-84544298D01*
X187953996Y-84800672D01*
X188054028Y-85042170D01*
X188199252Y-85259513D01*
X188355394Y-85415655D01*
X188330000Y-85415528D01*
X188205518Y-85427788D01*
X188085820Y-85464098D01*
X187975506Y-85523063D01*
X187878815Y-85602415D01*
X187799463Y-85699106D01*
X187740498Y-85809420D01*
X187704188Y-85929118D01*
X187691928Y-86053600D01*
X187695000Y-86667850D01*
X187853750Y-86826600D01*
X189103000Y-86826600D01*
X189103000Y-86806600D01*
X189357000Y-86806600D01*
X189357000Y-86826600D01*
X189377000Y-86826600D01*
X189377000Y-87080600D01*
X189357000Y-87080600D01*
X189357000Y-87100600D01*
X189103000Y-87100600D01*
X189103000Y-87080600D01*
X187853750Y-87080600D01*
X187695000Y-87239350D01*
X187691928Y-87853600D01*
X187704188Y-87978082D01*
X187740498Y-88097780D01*
X187799463Y-88208094D01*
X187878815Y-88304785D01*
X187975506Y-88384137D01*
X188085820Y-88443102D01*
X188205518Y-88479412D01*
X188330000Y-88491672D01*
X188355394Y-88491545D01*
X188199252Y-88647687D01*
X188054028Y-88865030D01*
X187953996Y-89106528D01*
X187903000Y-89362902D01*
X187903000Y-89624298D01*
X187953996Y-89880672D01*
X188054028Y-90122170D01*
X188199252Y-90339513D01*
X188384087Y-90524348D01*
X188601430Y-90669572D01*
X188842928Y-90769604D01*
X189099302Y-90820600D01*
X189360698Y-90820600D01*
X189617072Y-90769604D01*
X189858570Y-90669572D01*
X190075913Y-90524348D01*
X190260748Y-90339513D01*
X190379000Y-90162536D01*
X190379000Y-90998000D01*
X169902505Y-90998000D01*
X169937251Y-90987460D01*
X170033146Y-90936203D01*
X170117199Y-90867223D01*
X170134488Y-90846156D01*
X170809493Y-90171153D01*
X170809502Y-90171142D01*
X170812894Y-90167750D01*
X170842097Y-90179847D01*
X171079151Y-90227000D01*
X171320849Y-90227000D01*
X171557903Y-90179847D01*
X171781202Y-90087353D01*
X171982167Y-89953073D01*
X172153073Y-89782167D01*
X172287353Y-89581202D01*
X172379847Y-89357903D01*
X172427000Y-89120849D01*
X172427000Y-88879151D01*
X172379847Y-88642097D01*
X172287353Y-88418798D01*
X172153073Y-88217833D01*
X171982167Y-88046927D01*
X171781202Y-87912647D01*
X171557903Y-87820153D01*
X171320849Y-87773000D01*
X171079151Y-87773000D01*
X170842097Y-87820153D01*
X170618798Y-87912647D01*
X170417833Y-88046927D01*
X170246927Y-88217833D01*
X170112647Y-88418798D01*
X170020153Y-88642097D01*
X169973000Y-88879151D01*
X169973000Y-89120849D01*
X170020153Y-89357903D01*
X170032250Y-89387106D01*
X170028858Y-89390498D01*
X170028847Y-89390507D01*
X169821621Y-89597734D01*
X169827001Y-89543110D01*
X169827001Y-89543100D01*
X169829670Y-89516002D01*
X169827001Y-89488904D01*
X169827001Y-88153643D01*
X170812894Y-87167751D01*
X170842097Y-87179847D01*
X171079151Y-87227000D01*
X171320849Y-87227000D01*
X171557903Y-87179847D01*
X171781202Y-87087353D01*
X171982167Y-86953073D01*
X172153073Y-86782167D01*
X172287353Y-86581202D01*
X172379847Y-86357903D01*
X172427000Y-86120849D01*
X172427000Y-85879151D01*
X172973000Y-85879151D01*
X172973000Y-86120849D01*
X173020153Y-86357903D01*
X173112647Y-86581202D01*
X173246927Y-86782167D01*
X173417833Y-86953073D01*
X173618798Y-87087353D01*
X173842097Y-87179847D01*
X174079151Y-87227000D01*
X174320849Y-87227000D01*
X174557903Y-87179847D01*
X174781202Y-87087353D01*
X174982167Y-86953073D01*
X175153073Y-86782167D01*
X175287353Y-86581202D01*
X175379847Y-86357903D01*
X175427000Y-86120849D01*
X175427000Y-85879151D01*
X175973000Y-85879151D01*
X175973000Y-86120849D01*
X176020153Y-86357903D01*
X176112647Y-86581202D01*
X176246927Y-86782167D01*
X176417833Y-86953073D01*
X176618798Y-87087353D01*
X176842097Y-87179847D01*
X177079151Y-87227000D01*
X177320849Y-87227000D01*
X177557903Y-87179847D01*
X177781202Y-87087353D01*
X177982167Y-86953073D01*
X178153073Y-86782167D01*
X178287353Y-86581202D01*
X178379847Y-86357903D01*
X178427000Y-86120849D01*
X178427000Y-85879151D01*
X178973000Y-85879151D01*
X178973000Y-86120849D01*
X179020153Y-86357903D01*
X179112647Y-86581202D01*
X179246927Y-86782167D01*
X179417833Y-86953073D01*
X179618798Y-87087353D01*
X179842097Y-87179847D01*
X180079151Y-87227000D01*
X180320849Y-87227000D01*
X180557903Y-87179847D01*
X180781202Y-87087353D01*
X180982167Y-86953073D01*
X181153073Y-86782167D01*
X181287353Y-86581202D01*
X181379847Y-86357903D01*
X181427000Y-86120849D01*
X181427000Y-85879151D01*
X181379847Y-85642097D01*
X181287353Y-85418798D01*
X181153073Y-85217833D01*
X180982167Y-85046927D01*
X180781202Y-84912647D01*
X180557903Y-84820153D01*
X180320849Y-84773000D01*
X180079151Y-84773000D01*
X179842097Y-84820153D01*
X179618798Y-84912647D01*
X179417833Y-85046927D01*
X179246927Y-85217833D01*
X179112647Y-85418798D01*
X179020153Y-85642097D01*
X178973000Y-85879151D01*
X178427000Y-85879151D01*
X178379847Y-85642097D01*
X178287353Y-85418798D01*
X178153073Y-85217833D01*
X177982167Y-85046927D01*
X177781202Y-84912647D01*
X177557903Y-84820153D01*
X177320849Y-84773000D01*
X177079151Y-84773000D01*
X176842097Y-84820153D01*
X176618798Y-84912647D01*
X176417833Y-85046927D01*
X176246927Y-85217833D01*
X176112647Y-85418798D01*
X176020153Y-85642097D01*
X175973000Y-85879151D01*
X175427000Y-85879151D01*
X175379847Y-85642097D01*
X175367751Y-85612894D01*
X177052047Y-83928599D01*
X184515030Y-83928599D01*
X184457793Y-84066782D01*
X184412100Y-84296494D01*
X184412100Y-84530706D01*
X184457793Y-84760418D01*
X184547422Y-84976803D01*
X184677543Y-85171543D01*
X184843157Y-85337157D01*
X185037897Y-85467278D01*
X185254282Y-85556907D01*
X185483994Y-85602600D01*
X185718206Y-85602600D01*
X185947918Y-85556907D01*
X186148000Y-85474031D01*
X186148000Y-85893169D01*
X185947918Y-85810293D01*
X185718206Y-85764600D01*
X185483994Y-85764600D01*
X185254282Y-85810293D01*
X185037897Y-85899922D01*
X184843157Y-86030043D01*
X184677543Y-86195657D01*
X184547422Y-86390397D01*
X184457793Y-86606782D01*
X184412100Y-86836494D01*
X184412100Y-87070706D01*
X184457793Y-87300418D01*
X184547422Y-87516803D01*
X184677543Y-87711543D01*
X184843157Y-87877157D01*
X185037897Y-88007278D01*
X185224321Y-88084497D01*
X184860818Y-88448000D01*
X182827108Y-88448000D01*
X182800000Y-88445330D01*
X182772891Y-88448000D01*
X182691789Y-88455988D01*
X182587737Y-88487552D01*
X182491842Y-88538809D01*
X182407789Y-88607789D01*
X182390508Y-88628846D01*
X181271356Y-89748000D01*
X181175903Y-89748000D01*
X181287353Y-89581202D01*
X181379847Y-89357903D01*
X181427000Y-89120849D01*
X181427000Y-88879151D01*
X181379847Y-88642097D01*
X181287353Y-88418798D01*
X181153073Y-88217833D01*
X180982167Y-88046927D01*
X180781202Y-87912647D01*
X180557903Y-87820153D01*
X180320849Y-87773000D01*
X180079151Y-87773000D01*
X179842097Y-87820153D01*
X179618798Y-87912647D01*
X179417833Y-88046927D01*
X179246927Y-88217833D01*
X179112647Y-88418798D01*
X179020153Y-88642097D01*
X178973000Y-88879151D01*
X178973000Y-89120849D01*
X179020153Y-89357903D01*
X179112647Y-89581202D01*
X179224097Y-89748000D01*
X178175903Y-89748000D01*
X178287353Y-89581202D01*
X178379847Y-89357903D01*
X178427000Y-89120849D01*
X178427000Y-88879151D01*
X178379847Y-88642097D01*
X178287353Y-88418798D01*
X178153073Y-88217833D01*
X177982167Y-88046927D01*
X177781202Y-87912647D01*
X177557903Y-87820153D01*
X177320849Y-87773000D01*
X177079151Y-87773000D01*
X176842097Y-87820153D01*
X176618798Y-87912647D01*
X176417833Y-88046927D01*
X176246927Y-88217833D01*
X176112647Y-88418798D01*
X176020153Y-88642097D01*
X175973000Y-88879151D01*
X175973000Y-89120849D01*
X176020153Y-89357903D01*
X176112647Y-89581202D01*
X176224097Y-89748000D01*
X175728646Y-89748000D01*
X175367751Y-89387106D01*
X175379847Y-89357903D01*
X175427000Y-89120849D01*
X175427000Y-88879151D01*
X175379847Y-88642097D01*
X175287353Y-88418798D01*
X175153073Y-88217833D01*
X174982167Y-88046927D01*
X174781202Y-87912647D01*
X174557903Y-87820153D01*
X174320849Y-87773000D01*
X174079151Y-87773000D01*
X173842097Y-87820153D01*
X173618798Y-87912647D01*
X173417833Y-88046927D01*
X173246927Y-88217833D01*
X173112647Y-88418798D01*
X173020153Y-88642097D01*
X172973000Y-88879151D01*
X172973000Y-89120849D01*
X173020153Y-89357903D01*
X173112647Y-89581202D01*
X173246927Y-89782167D01*
X173417833Y-89953073D01*
X173618798Y-90087353D01*
X173842097Y-90179847D01*
X174079151Y-90227000D01*
X174320849Y-90227000D01*
X174557903Y-90179847D01*
X174587106Y-90167751D01*
X175090508Y-90671154D01*
X175107789Y-90692211D01*
X175128845Y-90709491D01*
X175128846Y-90709492D01*
X175191842Y-90761191D01*
X175287737Y-90812448D01*
X175391789Y-90844012D01*
X175500000Y-90854670D01*
X175527108Y-90852000D01*
X181472894Y-90852000D01*
X181500000Y-90854670D01*
X181527106Y-90852000D01*
X181527109Y-90852000D01*
X181608211Y-90844012D01*
X181712263Y-90812448D01*
X181808158Y-90761191D01*
X181892211Y-90692211D01*
X181909500Y-90671144D01*
X182270832Y-90309813D01*
X182334194Y-90462783D01*
X182441115Y-90622801D01*
X182577199Y-90758885D01*
X182737217Y-90865806D01*
X182915020Y-90939454D01*
X183103774Y-90977000D01*
X183296226Y-90977000D01*
X183484980Y-90939454D01*
X183662783Y-90865806D01*
X183822801Y-90758885D01*
X183958885Y-90622801D01*
X184065806Y-90462783D01*
X184139454Y-90284980D01*
X184177000Y-90096226D01*
X184177000Y-89903774D01*
X184139454Y-89715020D01*
X184071929Y-89552000D01*
X185062356Y-89552000D01*
X185089462Y-89554670D01*
X185116568Y-89552000D01*
X185116571Y-89552000D01*
X185197673Y-89544012D01*
X185301725Y-89512448D01*
X185397620Y-89461191D01*
X185481673Y-89392211D01*
X185498962Y-89371144D01*
X187071154Y-87798954D01*
X187092211Y-87781673D01*
X187161191Y-87697620D01*
X187212448Y-87601725D01*
X187244012Y-87497673D01*
X187252000Y-87416571D01*
X187252000Y-87416570D01*
X187254670Y-87389462D01*
X187252000Y-87362354D01*
X187252000Y-83103806D01*
X187437247Y-82918559D01*
X187458310Y-82901274D01*
X187527290Y-82817221D01*
X187578547Y-82721326D01*
X187610111Y-82617274D01*
X187618099Y-82536172D01*
X187618099Y-82536162D01*
X187620768Y-82509064D01*
X187618099Y-82481966D01*
X187618099Y-80445330D01*
X187669276Y-80472684D01*
X187869726Y-80533490D01*
X187799463Y-80619106D01*
X187740498Y-80729420D01*
X187704188Y-80849118D01*
X187691928Y-80973600D01*
X187695000Y-81587850D01*
X187853750Y-81746600D01*
X189103000Y-81746600D01*
X189103000Y-80497350D01*
X188944250Y-80338600D01*
X188851201Y-80338135D01*
X189012917Y-80205417D01*
X189166249Y-80018583D01*
X189280184Y-79805424D01*
X189350345Y-79574134D01*
X189374036Y-79333600D01*
X189350345Y-79093066D01*
X189280184Y-78861776D01*
X189166249Y-78648617D01*
X189012917Y-78461783D01*
X188826083Y-78308451D01*
X188612924Y-78194516D01*
X188381634Y-78124355D01*
X188201368Y-78106600D01*
X188080832Y-78106600D01*
X187900566Y-78124355D01*
X187669276Y-78194516D01*
X187618099Y-78221870D01*
X187618099Y-78097245D01*
X187756271Y-77959074D01*
X187900566Y-78002845D01*
X188080832Y-78020600D01*
X188201368Y-78020600D01*
X188381634Y-78002845D01*
X188612924Y-77932684D01*
X188826083Y-77818749D01*
X189012917Y-77665417D01*
X189166249Y-77478583D01*
X189280184Y-77265424D01*
X189350345Y-77034134D01*
X189374036Y-76793600D01*
X189350345Y-76553066D01*
X189280184Y-76321776D01*
X189166249Y-76108617D01*
X189012917Y-75921783D01*
X188826083Y-75768451D01*
X188612924Y-75654516D01*
X188381634Y-75584355D01*
X188201368Y-75566600D01*
X188080832Y-75566600D01*
X187900566Y-75584355D01*
X187669276Y-75654516D01*
X187456117Y-75768451D01*
X187269283Y-75921783D01*
X187218088Y-75984164D01*
X187218088Y-75063036D01*
X187269283Y-75125417D01*
X187456117Y-75278749D01*
X187669276Y-75392684D01*
X187900566Y-75462845D01*
X188080832Y-75480600D01*
X188201368Y-75480600D01*
X188381634Y-75462845D01*
X188612924Y-75392684D01*
X188826083Y-75278749D01*
X189012917Y-75125417D01*
X189166249Y-74938583D01*
X189280184Y-74725424D01*
X189350345Y-74494134D01*
X189374036Y-74253600D01*
X189350345Y-74013066D01*
X189280184Y-73781776D01*
X189166249Y-73568617D01*
X189012917Y-73381783D01*
X188826083Y-73228451D01*
X188612924Y-73114516D01*
X188381634Y-73044355D01*
X188201368Y-73026600D01*
X188080832Y-73026600D01*
X187900566Y-73044355D01*
X187669276Y-73114516D01*
X187490654Y-73209991D01*
X187806373Y-72894272D01*
X187900566Y-72922845D01*
X188080832Y-72940600D01*
X188201368Y-72940600D01*
X188381634Y-72922845D01*
X188612924Y-72852684D01*
X188826083Y-72738749D01*
X189012917Y-72585417D01*
X189166249Y-72398583D01*
X189280184Y-72185424D01*
X189350345Y-71954134D01*
X189374036Y-71713600D01*
X189350345Y-71473066D01*
X189280184Y-71241776D01*
X189166249Y-71028617D01*
X189012917Y-70841783D01*
X188826083Y-70688451D01*
X188612924Y-70574516D01*
X188381634Y-70504355D01*
X188201368Y-70486600D01*
X188080832Y-70486600D01*
X187900566Y-70504355D01*
X187669276Y-70574516D01*
X187456117Y-70688451D01*
X187269283Y-70841783D01*
X187115951Y-71028617D01*
X187002016Y-71241776D01*
X186931855Y-71473066D01*
X186908164Y-71713600D01*
X186931855Y-71954134D01*
X186990825Y-72148531D01*
X186294944Y-72844412D01*
X186273877Y-72861701D01*
X186204897Y-72945754D01*
X186153640Y-73041650D01*
X186122076Y-73145702D01*
X186118600Y-73180991D01*
X185947918Y-73110293D01*
X185718206Y-73064600D01*
X185483994Y-73064600D01*
X185254282Y-73110293D01*
X185037897Y-73199922D01*
X184843157Y-73330043D01*
X184677543Y-73495657D01*
X184547422Y-73690397D01*
X184457793Y-73906782D01*
X184412100Y-74136494D01*
X184412100Y-74370706D01*
X184457793Y-74600418D01*
X184547422Y-74816803D01*
X184677543Y-75011543D01*
X184843157Y-75177157D01*
X185037897Y-75307278D01*
X185254282Y-75396907D01*
X185483994Y-75442600D01*
X185718206Y-75442600D01*
X185947918Y-75396907D01*
X186114088Y-75328077D01*
X186114088Y-75719123D01*
X185947918Y-75650293D01*
X185718206Y-75604600D01*
X185483994Y-75604600D01*
X185254282Y-75650293D01*
X185037897Y-75739922D01*
X184843157Y-75870043D01*
X184677543Y-76035657D01*
X184547422Y-76230397D01*
X184457793Y-76446782D01*
X184412100Y-76676494D01*
X184412100Y-76910706D01*
X184457793Y-77140418D01*
X184547422Y-77356803D01*
X184677543Y-77551543D01*
X184843157Y-77717157D01*
X185037897Y-77847278D01*
X185254282Y-77936907D01*
X185483994Y-77982600D01*
X185718206Y-77982600D01*
X185947918Y-77936907D01*
X186114089Y-77868077D01*
X186114089Y-78259123D01*
X185947918Y-78190293D01*
X185718206Y-78144600D01*
X185483994Y-78144600D01*
X185254282Y-78190293D01*
X185037897Y-78279922D01*
X184843157Y-78410043D01*
X184677543Y-78575657D01*
X184547422Y-78770397D01*
X184457793Y-78986782D01*
X184412100Y-79216494D01*
X184412100Y-79450706D01*
X184457793Y-79680418D01*
X184547422Y-79896803D01*
X184677543Y-80091543D01*
X184843157Y-80257157D01*
X185037897Y-80387278D01*
X185254282Y-80476907D01*
X185483994Y-80522600D01*
X185718206Y-80522600D01*
X185947918Y-80476907D01*
X186114089Y-80408077D01*
X186114089Y-80799123D01*
X185947918Y-80730293D01*
X185718206Y-80684600D01*
X185483994Y-80684600D01*
X185254282Y-80730293D01*
X185037897Y-80819922D01*
X184843157Y-80950043D01*
X184677543Y-81115657D01*
X184547422Y-81310397D01*
X184457793Y-81526782D01*
X184412100Y-81756494D01*
X184412100Y-81990706D01*
X184457793Y-82220418D01*
X184547422Y-82436803D01*
X184677543Y-82631543D01*
X184843157Y-82797157D01*
X184884227Y-82824599D01*
X176850498Y-82824599D01*
X176823400Y-82821930D01*
X176796302Y-82824599D01*
X176796292Y-82824599D01*
X176715190Y-82832587D01*
X176611138Y-82864151D01*
X176590538Y-82875162D01*
X176515242Y-82915408D01*
X176458080Y-82962320D01*
X176431190Y-82984388D01*
X176413909Y-83005445D01*
X174587106Y-84832249D01*
X174557903Y-84820153D01*
X174320849Y-84773000D01*
X174079151Y-84773000D01*
X173842097Y-84820153D01*
X173618798Y-84912647D01*
X173417833Y-85046927D01*
X173246927Y-85217833D01*
X173112647Y-85418798D01*
X173020153Y-85642097D01*
X172973000Y-85879151D01*
X172427000Y-85879151D01*
X172379847Y-85642097D01*
X172287353Y-85418798D01*
X172153073Y-85217833D01*
X171982167Y-85046927D01*
X171781202Y-84912647D01*
X171557903Y-84820153D01*
X171320849Y-84773000D01*
X171079151Y-84773000D01*
X170842097Y-84820153D01*
X170618798Y-84912647D01*
X170417833Y-85046927D01*
X170246927Y-85217833D01*
X170112647Y-85418798D01*
X170020153Y-85642097D01*
X169973000Y-85879151D01*
X169973000Y-86120849D01*
X170020153Y-86357903D01*
X170032249Y-86387106D01*
X168903857Y-87515499D01*
X168882790Y-87532788D01*
X168813810Y-87616841D01*
X168762553Y-87712737D01*
X168730989Y-87816789D01*
X168723886Y-87888906D01*
X168557903Y-87820153D01*
X168320849Y-87773000D01*
X168107199Y-87773000D01*
X167602000Y-87267802D01*
X167602000Y-87076129D01*
X167618798Y-87087353D01*
X167842097Y-87179847D01*
X168079151Y-87227000D01*
X168320849Y-87227000D01*
X168557903Y-87179847D01*
X168781202Y-87087353D01*
X168982167Y-86953073D01*
X169153073Y-86782167D01*
X169287353Y-86581202D01*
X169379847Y-86357903D01*
X169427000Y-86120849D01*
X169427000Y-85879151D01*
X169379847Y-85642097D01*
X169287353Y-85418798D01*
X169153073Y-85217833D01*
X169002000Y-85066760D01*
X169002000Y-84132198D01*
X171062374Y-82071825D01*
X171339755Y-82127000D01*
X171660245Y-82127000D01*
X171974578Y-82064475D01*
X172270673Y-81941828D01*
X172537152Y-81763773D01*
X172763773Y-81537152D01*
X172941828Y-81270673D01*
X173064475Y-80974578D01*
X173127000Y-80660245D01*
X173127000Y-80339755D01*
X173064475Y-80025422D01*
X172941828Y-79729327D01*
X172763773Y-79462848D01*
X172537152Y-79236227D01*
X172270673Y-79058172D01*
X171974578Y-78935525D01*
X171660245Y-78873000D01*
X171339755Y-78873000D01*
X171025422Y-78935525D01*
X170729327Y-79058172D01*
X170462848Y-79236227D01*
X170236227Y-79462848D01*
X170058172Y-79729327D01*
X169935525Y-80025422D01*
X169873000Y-80339755D01*
X169873000Y-80660245D01*
X169928175Y-80937626D01*
X167660758Y-83205044D01*
X167630158Y-83230157D01*
X167605045Y-83260757D01*
X167602000Y-83264467D01*
X167602000Y-81532198D01*
X171062374Y-78071825D01*
X171339755Y-78127000D01*
X171660245Y-78127000D01*
X171974578Y-78064475D01*
X172270673Y-77941828D01*
X172537152Y-77763773D01*
X172763773Y-77537152D01*
X172941828Y-77270673D01*
X173064475Y-76974578D01*
X173127000Y-76660245D01*
X173127000Y-76339755D01*
X173064475Y-76025422D01*
X172941828Y-75729327D01*
X172763773Y-75462848D01*
X172537152Y-75236227D01*
X172270673Y-75058172D01*
X171974578Y-74935525D01*
X171660245Y-74873000D01*
X171339755Y-74873000D01*
X171025422Y-74935525D01*
X170729327Y-75058172D01*
X170462848Y-75236227D01*
X170236227Y-75462848D01*
X170058172Y-75729327D01*
X169935525Y-76025422D01*
X169873000Y-76339755D01*
X169873000Y-76660245D01*
X169928175Y-76937626D01*
X166260762Y-80605040D01*
X166230157Y-80630157D01*
X166129935Y-80752278D01*
X166055464Y-80891604D01*
X166009605Y-81042782D01*
X165998000Y-81160607D01*
X165998000Y-81160614D01*
X165994121Y-81200000D01*
X165998000Y-81239386D01*
X165998001Y-85062761D01*
X165982167Y-85046927D01*
X165781202Y-84912647D01*
X165752000Y-84900551D01*
X165752000Y-82876134D01*
X165764698Y-82863436D01*
X165844259Y-82744364D01*
X165899062Y-82612058D01*
X165927000Y-82471603D01*
X165927000Y-82328397D01*
X165899062Y-82187942D01*
X165844259Y-82055636D01*
X165764698Y-81936564D01*
X165663436Y-81835302D01*
X165544364Y-81755741D01*
X165412058Y-81700938D01*
X165271603Y-81673000D01*
X165128397Y-81673000D01*
X164987942Y-81700938D01*
X164855636Y-81755741D01*
X164736564Y-81835302D01*
X164635302Y-81936564D01*
X164612501Y-81970689D01*
X164589698Y-81936562D01*
X164488436Y-81835300D01*
X164369364Y-81755739D01*
X164237058Y-81700936D01*
X164096603Y-81672998D01*
X163953397Y-81672998D01*
X163812942Y-81700936D01*
X163680636Y-81755739D01*
X163561564Y-81835300D01*
X163460302Y-81936562D01*
X163380741Y-82055634D01*
X163325938Y-82187940D01*
X163298000Y-82328395D01*
X163298000Y-82471601D01*
X163325938Y-82612056D01*
X163380741Y-82744362D01*
X163460302Y-82863434D01*
X163473001Y-82876133D01*
X163473000Y-87797894D01*
X163470330Y-87825000D01*
X163473000Y-87852106D01*
X163473000Y-87852108D01*
X163480988Y-87933210D01*
X163512552Y-88037262D01*
X163563809Y-88133158D01*
X163632789Y-88217211D01*
X163653856Y-88234500D01*
X164032249Y-88612894D01*
X164020153Y-88642097D01*
X163973000Y-88879151D01*
X163973000Y-89106654D01*
X160052000Y-85185656D01*
X160052000Y-84479449D01*
X160081202Y-84467353D01*
X160282167Y-84333073D01*
X160453073Y-84162167D01*
X160587353Y-83961202D01*
X160679847Y-83737903D01*
X160727000Y-83500849D01*
X160727000Y-83259151D01*
X160679847Y-83022097D01*
X160587353Y-82798798D01*
X160453073Y-82597833D01*
X160282167Y-82426927D01*
X160081202Y-82292647D01*
X159857903Y-82200153D01*
X159620849Y-82153000D01*
X159379151Y-82153000D01*
X159142097Y-82200153D01*
X158918798Y-82292647D01*
X158717833Y-82426927D01*
X158546927Y-82597833D01*
X158412647Y-82798798D01*
X158320153Y-83022097D01*
X158273000Y-83259151D01*
X158273000Y-83500849D01*
X158320153Y-83737903D01*
X158412647Y-83961202D01*
X158546927Y-84162167D01*
X158717833Y-84333073D01*
X158918798Y-84467353D01*
X158948000Y-84479449D01*
X158948000Y-84647356D01*
X158067751Y-83767106D01*
X158079847Y-83737903D01*
X158127000Y-83500849D01*
X158127000Y-83259151D01*
X158079847Y-83022097D01*
X157987353Y-82798798D01*
X157853073Y-82597833D01*
X157682167Y-82426927D01*
X157481202Y-82292647D01*
X157257903Y-82200153D01*
X157020849Y-82153000D01*
X156779151Y-82153000D01*
X156542097Y-82200153D01*
X156318798Y-82292647D01*
X156117833Y-82426927D01*
X155946927Y-82597833D01*
X155812647Y-82798798D01*
X155720153Y-83022097D01*
X155673000Y-83259151D01*
X155673000Y-83500849D01*
X155720153Y-83737903D01*
X155812647Y-83961202D01*
X155946927Y-84162167D01*
X156117833Y-84333073D01*
X156318798Y-84467353D01*
X156542097Y-84559847D01*
X156779151Y-84607000D01*
X157020849Y-84607000D01*
X157257903Y-84559847D01*
X157287106Y-84547751D01*
X161791192Y-89051837D01*
X161737217Y-89074194D01*
X161577199Y-89181115D01*
X161441115Y-89317199D01*
X161334194Y-89477217D01*
X161260546Y-89655020D01*
X161223000Y-89843774D01*
X161223000Y-90036226D01*
X161260546Y-90224980D01*
X161334194Y-90402783D01*
X161441115Y-90562801D01*
X161577199Y-90698885D01*
X161737217Y-90805806D01*
X161915020Y-90879454D01*
X162103774Y-90917000D01*
X162296226Y-90917000D01*
X162484980Y-90879454D01*
X162662783Y-90805806D01*
X162822801Y-90698885D01*
X162958885Y-90562801D01*
X163065806Y-90402783D01*
X163088163Y-90348809D01*
X163179355Y-90440001D01*
X163028856Y-90590500D01*
X163007789Y-90607789D01*
X162938809Y-90691842D01*
X162887552Y-90787738D01*
X162855988Y-90891790D01*
X162848000Y-90972891D01*
X162845330Y-91000000D01*
X162848000Y-91027106D01*
X162848001Y-105773000D01*
X162759732Y-105773000D01*
X162579466Y-105790755D01*
X162348176Y-105860916D01*
X162135017Y-105974851D01*
X161948183Y-106128183D01*
X161794851Y-106315017D01*
X161680916Y-106528176D01*
X161610755Y-106759466D01*
X161587064Y-107000000D01*
X161610755Y-107240534D01*
X161680916Y-107471824D01*
X161794851Y-107684983D01*
X161948183Y-107871817D01*
X162135017Y-108025149D01*
X162348176Y-108139084D01*
X162579466Y-108209245D01*
X162759732Y-108227000D01*
X162880268Y-108227000D01*
X163060534Y-108209245D01*
X163291824Y-108139084D01*
X163498000Y-108028881D01*
X163498000Y-117100000D01*
X146755200Y-117100000D01*
X146755200Y-114327190D01*
X156472100Y-114327190D01*
X156472100Y-115460011D01*
X156489304Y-115634685D01*
X156557292Y-115858812D01*
X156667700Y-116065369D01*
X156816283Y-116246418D01*
X156997332Y-116395001D01*
X157203889Y-116505408D01*
X157428016Y-116573396D01*
X157661100Y-116596353D01*
X157894185Y-116573396D01*
X158118312Y-116505408D01*
X158324869Y-116395001D01*
X158505918Y-116246418D01*
X158654501Y-116065369D01*
X158764908Y-115858812D01*
X158832896Y-115634685D01*
X158850100Y-115460011D01*
X158850100Y-114327189D01*
X158832896Y-114152515D01*
X158764908Y-113928388D01*
X158654501Y-113721831D01*
X158505918Y-113540782D01*
X158324868Y-113392199D01*
X158118311Y-113281792D01*
X157894184Y-113213804D01*
X157661100Y-113190847D01*
X157428015Y-113213804D01*
X157203888Y-113281792D01*
X156997331Y-113392199D01*
X156816282Y-113540782D01*
X156667699Y-113721832D01*
X156557292Y-113928389D01*
X156489304Y-114152516D01*
X156472100Y-114327190D01*
X146755200Y-114327190D01*
X146755200Y-113092702D01*
X155186903Y-113092702D01*
X155258486Y-113336671D01*
X155513996Y-113457571D01*
X155788184Y-113526300D01*
X156070512Y-113540217D01*
X156350130Y-113498787D01*
X156616292Y-113403603D01*
X156741514Y-113336671D01*
X156813097Y-113092702D01*
X158186903Y-113092702D01*
X158258486Y-113336671D01*
X158513996Y-113457571D01*
X158788184Y-113526300D01*
X159070512Y-113540217D01*
X159350130Y-113498787D01*
X159451723Y-113462456D01*
X159356282Y-113540782D01*
X159207699Y-113721832D01*
X159097292Y-113928389D01*
X159029304Y-114152516D01*
X159012100Y-114327190D01*
X159012100Y-115460011D01*
X159029304Y-115634685D01*
X159097292Y-115858812D01*
X159207700Y-116065369D01*
X159356283Y-116246418D01*
X159537332Y-116395001D01*
X159743889Y-116505408D01*
X159968016Y-116573396D01*
X160201100Y-116596353D01*
X160434185Y-116573396D01*
X160658312Y-116505408D01*
X160864869Y-116395001D01*
X161045918Y-116246418D01*
X161194501Y-116065369D01*
X161304908Y-115858812D01*
X161372896Y-115634685D01*
X161390100Y-115460011D01*
X161390100Y-114327189D01*
X161372896Y-114152515D01*
X161304908Y-113928388D01*
X161194501Y-113721831D01*
X161045918Y-113540782D01*
X160864868Y-113392199D01*
X160658311Y-113281792D01*
X160434184Y-113213804D01*
X160201100Y-113190847D01*
X159968015Y-113213804D01*
X159758957Y-113277221D01*
X159813097Y-113092702D01*
X161186903Y-113092702D01*
X161258486Y-113336671D01*
X161513996Y-113457571D01*
X161788184Y-113526300D01*
X162070512Y-113540217D01*
X162350130Y-113498787D01*
X162616292Y-113403603D01*
X162741514Y-113336671D01*
X162813097Y-113092702D01*
X162000000Y-112279605D01*
X161186903Y-113092702D01*
X159813097Y-113092702D01*
X159000000Y-112279605D01*
X158186903Y-113092702D01*
X156813097Y-113092702D01*
X156000000Y-112279605D01*
X155186903Y-113092702D01*
X146755200Y-113092702D01*
X146755200Y-112170512D01*
X154559783Y-112170512D01*
X154601213Y-112450130D01*
X154696397Y-112716292D01*
X154763329Y-112841514D01*
X155007298Y-112913097D01*
X155820395Y-112100000D01*
X156179605Y-112100000D01*
X156992702Y-112913097D01*
X157236671Y-112841514D01*
X157357571Y-112586004D01*
X157426300Y-112311816D01*
X157433265Y-112170512D01*
X157559783Y-112170512D01*
X157601213Y-112450130D01*
X157696397Y-112716292D01*
X157763329Y-112841514D01*
X158007298Y-112913097D01*
X158820395Y-112100000D01*
X159179605Y-112100000D01*
X159992702Y-112913097D01*
X160236671Y-112841514D01*
X160357571Y-112586004D01*
X160426300Y-112311816D01*
X160433265Y-112170512D01*
X160559783Y-112170512D01*
X160601213Y-112450130D01*
X160696397Y-112716292D01*
X160763329Y-112841514D01*
X161007298Y-112913097D01*
X161820395Y-112100000D01*
X162179605Y-112100000D01*
X162992702Y-112913097D01*
X163236671Y-112841514D01*
X163357571Y-112586004D01*
X163426300Y-112311816D01*
X163440217Y-112029488D01*
X163398787Y-111749870D01*
X163303603Y-111483708D01*
X163236671Y-111358486D01*
X162992702Y-111286903D01*
X162179605Y-112100000D01*
X161820395Y-112100000D01*
X161007298Y-111286903D01*
X160763329Y-111358486D01*
X160642429Y-111613996D01*
X160573700Y-111888184D01*
X160559783Y-112170512D01*
X160433265Y-112170512D01*
X160440217Y-112029488D01*
X160398787Y-111749870D01*
X160303603Y-111483708D01*
X160236671Y-111358486D01*
X159992702Y-111286903D01*
X159179605Y-112100000D01*
X158820395Y-112100000D01*
X158007298Y-111286903D01*
X157763329Y-111358486D01*
X157642429Y-111613996D01*
X157573700Y-111888184D01*
X157559783Y-112170512D01*
X157433265Y-112170512D01*
X157440217Y-112029488D01*
X157398787Y-111749870D01*
X157303603Y-111483708D01*
X157236671Y-111358486D01*
X156992702Y-111286903D01*
X156179605Y-112100000D01*
X155820395Y-112100000D01*
X155007298Y-111286903D01*
X154763329Y-111358486D01*
X154642429Y-111613996D01*
X154573700Y-111888184D01*
X154559783Y-112170512D01*
X146755200Y-112170512D01*
X146755200Y-109479151D01*
X154773000Y-109479151D01*
X154773000Y-109720849D01*
X154820153Y-109957903D01*
X154912647Y-110181202D01*
X155046927Y-110382167D01*
X155217833Y-110553073D01*
X155418798Y-110687353D01*
X155543819Y-110739139D01*
X155383708Y-110796397D01*
X155258486Y-110863329D01*
X155186903Y-111107298D01*
X156000000Y-111920395D01*
X156813097Y-111107298D01*
X156741514Y-110863329D01*
X156486004Y-110742429D01*
X156462476Y-110736531D01*
X156581202Y-110687353D01*
X156782167Y-110553073D01*
X156953073Y-110382167D01*
X157087353Y-110181202D01*
X157179847Y-109957903D01*
X157227000Y-109720849D01*
X157227000Y-109479151D01*
X157773000Y-109479151D01*
X157773000Y-109720849D01*
X157820153Y-109957903D01*
X157912647Y-110181202D01*
X158046927Y-110382167D01*
X158217833Y-110553073D01*
X158418798Y-110687353D01*
X158543819Y-110739139D01*
X158383708Y-110796397D01*
X158258486Y-110863329D01*
X158186903Y-111107298D01*
X159000000Y-111920395D01*
X159813097Y-111107298D01*
X159741514Y-110863329D01*
X159486004Y-110742429D01*
X159462476Y-110736531D01*
X159581202Y-110687353D01*
X159782167Y-110553073D01*
X159953073Y-110382167D01*
X160087353Y-110181202D01*
X160179847Y-109957903D01*
X160227000Y-109720849D01*
X160227000Y-109479151D01*
X160773000Y-109479151D01*
X160773000Y-109720849D01*
X160820153Y-109957903D01*
X160912647Y-110181202D01*
X161046927Y-110382167D01*
X161217833Y-110553073D01*
X161418798Y-110687353D01*
X161543819Y-110739139D01*
X161383708Y-110796397D01*
X161258486Y-110863329D01*
X161186903Y-111107298D01*
X162000000Y-111920395D01*
X162813097Y-111107298D01*
X162741514Y-110863329D01*
X162486004Y-110742429D01*
X162462476Y-110736531D01*
X162581202Y-110687353D01*
X162782167Y-110553073D01*
X162953073Y-110382167D01*
X163087353Y-110181202D01*
X163179847Y-109957903D01*
X163227000Y-109720849D01*
X163227000Y-109479151D01*
X163179847Y-109242097D01*
X163087353Y-109018798D01*
X162953073Y-108817833D01*
X162782167Y-108646927D01*
X162581202Y-108512647D01*
X162357903Y-108420153D01*
X162120849Y-108373000D01*
X161879151Y-108373000D01*
X161642097Y-108420153D01*
X161418798Y-108512647D01*
X161217833Y-108646927D01*
X161046927Y-108817833D01*
X160912647Y-109018798D01*
X160820153Y-109242097D01*
X160773000Y-109479151D01*
X160227000Y-109479151D01*
X160179847Y-109242097D01*
X160087353Y-109018798D01*
X159953073Y-108817833D01*
X159782167Y-108646927D01*
X159581202Y-108512647D01*
X159357903Y-108420153D01*
X159120849Y-108373000D01*
X158879151Y-108373000D01*
X158642097Y-108420153D01*
X158418798Y-108512647D01*
X158217833Y-108646927D01*
X158046927Y-108817833D01*
X157912647Y-109018798D01*
X157820153Y-109242097D01*
X157773000Y-109479151D01*
X157227000Y-109479151D01*
X157179847Y-109242097D01*
X157087353Y-109018798D01*
X156953073Y-108817833D01*
X156782167Y-108646927D01*
X156581202Y-108512647D01*
X156357903Y-108420153D01*
X156120849Y-108373000D01*
X155879151Y-108373000D01*
X155642097Y-108420153D01*
X155418798Y-108512647D01*
X155217833Y-108646927D01*
X155046927Y-108817833D01*
X154912647Y-109018798D01*
X154820153Y-109242097D01*
X154773000Y-109479151D01*
X146755200Y-109479151D01*
X146755200Y-106879151D01*
X153973000Y-106879151D01*
X153973000Y-107120849D01*
X154020153Y-107357903D01*
X154112647Y-107581202D01*
X154246927Y-107782167D01*
X154417833Y-107953073D01*
X154618798Y-108087353D01*
X154842097Y-108179847D01*
X155079151Y-108227000D01*
X155320849Y-108227000D01*
X155557903Y-108179847D01*
X155781202Y-108087353D01*
X155982167Y-107953073D01*
X156153073Y-107782167D01*
X156287353Y-107581202D01*
X156379847Y-107357903D01*
X156427000Y-107120849D01*
X156427000Y-106879151D01*
X156379847Y-106642097D01*
X156287353Y-106418798D01*
X156153073Y-106217833D01*
X155982167Y-106046927D01*
X155781202Y-105912647D01*
X155557903Y-105820153D01*
X155320849Y-105773000D01*
X155079151Y-105773000D01*
X154842097Y-105820153D01*
X154618798Y-105912647D01*
X154417833Y-106046927D01*
X154246927Y-106217833D01*
X154112647Y-106418798D01*
X154020153Y-106642097D01*
X153973000Y-106879151D01*
X146755200Y-106879151D01*
X146755200Y-103679151D01*
X153973000Y-103679151D01*
X153973000Y-103920849D01*
X154020153Y-104157903D01*
X154112647Y-104381202D01*
X154246927Y-104582167D01*
X154417833Y-104753073D01*
X154618798Y-104887353D01*
X154842097Y-104979847D01*
X155079151Y-105027000D01*
X155320849Y-105027000D01*
X155557903Y-104979847D01*
X155781202Y-104887353D01*
X155922857Y-104792702D01*
X159386903Y-104792702D01*
X159458486Y-105036671D01*
X159713996Y-105157571D01*
X159988184Y-105226300D01*
X160270512Y-105240217D01*
X160550130Y-105198787D01*
X160816292Y-105103603D01*
X160941514Y-105036671D01*
X161013097Y-104792702D01*
X160200000Y-103979605D01*
X159386903Y-104792702D01*
X155922857Y-104792702D01*
X155982167Y-104753073D01*
X156153073Y-104582167D01*
X156287353Y-104381202D01*
X156379847Y-104157903D01*
X156427000Y-103920849D01*
X156427000Y-103870512D01*
X158759783Y-103870512D01*
X158801213Y-104150130D01*
X158896397Y-104416292D01*
X158963329Y-104541514D01*
X159207298Y-104613097D01*
X160020395Y-103800000D01*
X160379605Y-103800000D01*
X161192702Y-104613097D01*
X161436671Y-104541514D01*
X161557571Y-104286004D01*
X161626300Y-104011816D01*
X161640217Y-103729488D01*
X161598787Y-103449870D01*
X161503603Y-103183708D01*
X161436671Y-103058486D01*
X161192702Y-102986903D01*
X160379605Y-103800000D01*
X160020395Y-103800000D01*
X159207298Y-102986903D01*
X158963329Y-103058486D01*
X158842429Y-103313996D01*
X158773700Y-103588184D01*
X158759783Y-103870512D01*
X156427000Y-103870512D01*
X156427000Y-103679151D01*
X156379847Y-103442097D01*
X156287353Y-103218798D01*
X156153073Y-103017833D01*
X155982167Y-102846927D01*
X155922858Y-102807298D01*
X159386903Y-102807298D01*
X160200000Y-103620395D01*
X161013097Y-102807298D01*
X160941514Y-102563329D01*
X160686004Y-102442429D01*
X160411816Y-102373700D01*
X160129488Y-102359783D01*
X159849870Y-102401213D01*
X159583708Y-102496397D01*
X159458486Y-102563329D01*
X159386903Y-102807298D01*
X155922858Y-102807298D01*
X155781202Y-102712647D01*
X155557903Y-102620153D01*
X155320849Y-102573000D01*
X155079151Y-102573000D01*
X154842097Y-102620153D01*
X154618798Y-102712647D01*
X154417833Y-102846927D01*
X154246927Y-103017833D01*
X154112647Y-103218798D01*
X154020153Y-103442097D01*
X153973000Y-103679151D01*
X146755200Y-103679151D01*
X146755200Y-102102000D01*
X157469580Y-102102000D01*
X157500000Y-102104996D01*
X157598409Y-102095304D01*
X157693036Y-102066599D01*
X157780245Y-102019985D01*
X157856684Y-101957252D01*
X157919417Y-101880813D01*
X157966031Y-101793604D01*
X157994736Y-101698977D01*
X158002000Y-101625221D01*
X158002000Y-101624653D01*
X158004428Y-101600000D01*
X158002000Y-101575347D01*
X158002000Y-93324653D01*
X158004428Y-93300000D01*
X157994736Y-93201591D01*
X157966031Y-93106964D01*
X157919417Y-93019755D01*
X157856684Y-92943316D01*
X157780245Y-92880583D01*
X157693036Y-92833969D01*
X157598409Y-92805264D01*
X157524653Y-92798000D01*
X157500000Y-92795572D01*
X157475347Y-92798000D01*
X149312064Y-92798000D01*
X149462051Y-92752502D01*
X149683896Y-92633924D01*
X149878344Y-92474344D01*
X150037924Y-92279896D01*
X150156502Y-92058051D01*
X150229522Y-91817336D01*
X150254178Y-91567000D01*
X150232711Y-91349040D01*
X150308091Y-91349040D01*
X150402930Y-91613881D01*
X150547615Y-91855131D01*
X150736586Y-92063519D01*
X150962580Y-92231037D01*
X151216913Y-92351246D01*
X151350961Y-92391904D01*
X151573000Y-92269915D01*
X151573000Y-91127000D01*
X150429376Y-91127000D01*
X150308091Y-91349040D01*
X150232711Y-91349040D01*
X150229522Y-91316664D01*
X150156502Y-91075949D01*
X150037924Y-90854104D01*
X149878344Y-90659656D01*
X149867748Y-90650960D01*
X150308091Y-90650960D01*
X150429376Y-90873000D01*
X151573000Y-90873000D01*
X151573000Y-89730085D01*
X151827000Y-89730085D01*
X151827000Y-90873000D01*
X151847000Y-90873000D01*
X151847000Y-91127000D01*
X151827000Y-91127000D01*
X151827000Y-92269915D01*
X152049039Y-92391904D01*
X152183087Y-92351246D01*
X152437420Y-92231037D01*
X152663414Y-92063519D01*
X152727632Y-91992702D01*
X153486903Y-91992702D01*
X153558486Y-92236671D01*
X153813996Y-92357571D01*
X154088184Y-92426300D01*
X154370512Y-92440217D01*
X154650130Y-92398787D01*
X154916292Y-92303603D01*
X155041514Y-92236671D01*
X155113097Y-91992702D01*
X154300000Y-91179605D01*
X153486903Y-91992702D01*
X152727632Y-91992702D01*
X152852385Y-91855131D01*
X152996108Y-91615485D01*
X152996397Y-91616292D01*
X153063329Y-91741514D01*
X153307298Y-91813097D01*
X154120395Y-91000000D01*
X154479605Y-91000000D01*
X155292702Y-91813097D01*
X155536671Y-91741514D01*
X155657571Y-91486004D01*
X155706276Y-91291700D01*
X155760916Y-91471824D01*
X155874851Y-91684983D01*
X156028183Y-91871817D01*
X156215017Y-92025149D01*
X156428176Y-92139084D01*
X156659466Y-92209245D01*
X156839732Y-92227000D01*
X156960268Y-92227000D01*
X157140534Y-92209245D01*
X157371824Y-92139084D01*
X157584983Y-92025149D01*
X157771817Y-91871817D01*
X157925149Y-91684983D01*
X158039084Y-91471824D01*
X158109245Y-91240534D01*
X158132936Y-91000000D01*
X158267064Y-91000000D01*
X158290755Y-91240534D01*
X158360916Y-91471824D01*
X158474851Y-91684983D01*
X158628183Y-91871817D01*
X158815017Y-92025149D01*
X159028176Y-92139084D01*
X159259466Y-92209245D01*
X159439732Y-92227000D01*
X159560268Y-92227000D01*
X159740534Y-92209245D01*
X159971824Y-92139084D01*
X160184983Y-92025149D01*
X160371817Y-91871817D01*
X160525149Y-91684983D01*
X160639084Y-91471824D01*
X160709245Y-91240534D01*
X160732936Y-91000000D01*
X160709245Y-90759466D01*
X160639084Y-90528176D01*
X160525149Y-90315017D01*
X160371817Y-90128183D01*
X160184983Y-89974851D01*
X159971824Y-89860916D01*
X159740534Y-89790755D01*
X159560268Y-89773000D01*
X159439732Y-89773000D01*
X159259466Y-89790755D01*
X159028176Y-89860916D01*
X158815017Y-89974851D01*
X158628183Y-90128183D01*
X158474851Y-90315017D01*
X158360916Y-90528176D01*
X158290755Y-90759466D01*
X158267064Y-91000000D01*
X158132936Y-91000000D01*
X158109245Y-90759466D01*
X158039084Y-90528176D01*
X157925149Y-90315017D01*
X157771817Y-90128183D01*
X157584983Y-89974851D01*
X157371824Y-89860916D01*
X157140534Y-89790755D01*
X156960268Y-89773000D01*
X156839732Y-89773000D01*
X156659466Y-89790755D01*
X156428176Y-89860916D01*
X156215017Y-89974851D01*
X156028183Y-90128183D01*
X155874851Y-90315017D01*
X155760916Y-90528176D01*
X155707061Y-90705712D01*
X155698787Y-90649870D01*
X155603603Y-90383708D01*
X155536671Y-90258486D01*
X155292702Y-90186903D01*
X154479605Y-91000000D01*
X154120395Y-91000000D01*
X153307298Y-90186903D01*
X153063329Y-90258486D01*
X152999597Y-90393177D01*
X152997070Y-90386119D01*
X152852385Y-90144869D01*
X152727633Y-90007298D01*
X153486903Y-90007298D01*
X154300000Y-90820395D01*
X155113097Y-90007298D01*
X155041514Y-89763329D01*
X154786004Y-89642429D01*
X154511816Y-89573700D01*
X154229488Y-89559783D01*
X153949870Y-89601213D01*
X153683708Y-89696397D01*
X153558486Y-89763329D01*
X153486903Y-90007298D01*
X152727633Y-90007298D01*
X152663414Y-89936481D01*
X152437420Y-89768963D01*
X152183087Y-89648754D01*
X152049039Y-89608096D01*
X151827000Y-89730085D01*
X151573000Y-89730085D01*
X151350961Y-89608096D01*
X151216913Y-89648754D01*
X150962580Y-89768963D01*
X150736586Y-89936481D01*
X150547615Y-90144869D01*
X150402930Y-90386119D01*
X150308091Y-90650960D01*
X149867748Y-90650960D01*
X149683896Y-90500076D01*
X149506350Y-90405176D01*
X149602252Y-90371157D01*
X149852355Y-90222178D01*
X150068588Y-90027269D01*
X150242641Y-89793920D01*
X150367825Y-89531099D01*
X150412476Y-89383890D01*
X150291155Y-89154000D01*
X149098000Y-89154000D01*
X149098000Y-89174000D01*
X148844000Y-89174000D01*
X148844000Y-89154000D01*
X147650845Y-89154000D01*
X147529524Y-89383890D01*
X147574175Y-89531099D01*
X147699359Y-89793920D01*
X147873412Y-90027269D01*
X148089645Y-90222178D01*
X148339748Y-90371157D01*
X148435650Y-90405176D01*
X148258104Y-90500076D01*
X148063656Y-90659656D01*
X147904076Y-90854104D01*
X147785498Y-91075949D01*
X147712478Y-91316664D01*
X147687822Y-91567000D01*
X147712478Y-91817336D01*
X147785498Y-92058051D01*
X147904076Y-92279896D01*
X148063656Y-92474344D01*
X148258104Y-92633924D01*
X148479949Y-92752502D01*
X148629936Y-92798000D01*
X146755200Y-92798000D01*
X146755200Y-86843890D01*
X147529524Y-86843890D01*
X147574175Y-86991099D01*
X147699359Y-87253920D01*
X147873412Y-87487269D01*
X148089645Y-87682178D01*
X148215255Y-87757000D01*
X148089645Y-87831822D01*
X147873412Y-88026731D01*
X147699359Y-88260080D01*
X147574175Y-88522901D01*
X147529524Y-88670110D01*
X147650845Y-88900000D01*
X148844000Y-88900000D01*
X148844000Y-86614000D01*
X149098000Y-86614000D01*
X149098000Y-88900000D01*
X150291155Y-88900000D01*
X150412476Y-88670110D01*
X150367825Y-88522901D01*
X150242641Y-88260080D01*
X150068588Y-88026731D01*
X149852355Y-87831822D01*
X149726745Y-87757000D01*
X149852355Y-87682178D01*
X150068588Y-87487269D01*
X150242641Y-87253920D01*
X150367825Y-86991099D01*
X150412476Y-86843890D01*
X150291155Y-86614000D01*
X149098000Y-86614000D01*
X148844000Y-86614000D01*
X147650845Y-86614000D01*
X147529524Y-86843890D01*
X146755200Y-86843890D01*
X146755200Y-86130110D01*
X147529524Y-86130110D01*
X147650845Y-86360000D01*
X148844000Y-86360000D01*
X148844000Y-86340000D01*
X149098000Y-86340000D01*
X149098000Y-86360000D01*
X150291155Y-86360000D01*
X150412476Y-86130110D01*
X150367825Y-85982901D01*
X150242641Y-85720080D01*
X150068588Y-85486731D01*
X149852355Y-85291822D01*
X149741965Y-85226066D01*
X149821000Y-85226066D01*
X149904707Y-85217822D01*
X149985196Y-85193405D01*
X150059376Y-85153755D01*
X150124395Y-85100395D01*
X150177755Y-85035376D01*
X150217405Y-84961196D01*
X150241822Y-84880707D01*
X150250066Y-84797000D01*
X150250066Y-83097000D01*
X150241822Y-83013293D01*
X150217405Y-82932804D01*
X150177755Y-82858624D01*
X150124395Y-82793605D01*
X150059376Y-82740245D01*
X149985196Y-82700595D01*
X149904707Y-82676178D01*
X149821000Y-82667934D01*
X148121000Y-82667934D01*
X148037293Y-82676178D01*
X147956804Y-82700595D01*
X147882624Y-82740245D01*
X147817605Y-82793605D01*
X147764245Y-82858624D01*
X147724595Y-82932804D01*
X147700178Y-83013293D01*
X147691934Y-83097000D01*
X147691934Y-84797000D01*
X147700178Y-84880707D01*
X147724595Y-84961196D01*
X147764245Y-85035376D01*
X147817605Y-85100395D01*
X147882624Y-85153755D01*
X147956804Y-85193405D01*
X148037293Y-85217822D01*
X148121000Y-85226066D01*
X148200035Y-85226066D01*
X148089645Y-85291822D01*
X147873412Y-85486731D01*
X147699359Y-85720080D01*
X147574175Y-85982901D01*
X147529524Y-86130110D01*
X146755200Y-86130110D01*
X146755200Y-78740403D01*
X146895017Y-78855149D01*
X147108176Y-78969084D01*
X147339466Y-79039245D01*
X147519732Y-79057000D01*
X147640268Y-79057000D01*
X147820534Y-79039245D01*
X148051824Y-78969084D01*
X148264983Y-78855149D01*
X148451817Y-78701817D01*
X148605149Y-78514983D01*
X148676229Y-78382000D01*
X149201356Y-78382000D01*
X150492355Y-79673000D01*
X150379151Y-79673000D01*
X150142097Y-79720153D01*
X149918798Y-79812647D01*
X149717833Y-79946927D01*
X149546927Y-80117833D01*
X149412647Y-80318798D01*
X149320153Y-80542097D01*
X149273000Y-80779151D01*
X149273000Y-81020849D01*
X149320153Y-81257903D01*
X149412647Y-81481202D01*
X149546927Y-81682167D01*
X149717833Y-81853073D01*
X149918798Y-81987353D01*
X150142097Y-82079847D01*
X150379151Y-82127000D01*
X150620849Y-82127000D01*
X150857903Y-82079847D01*
X151081202Y-81987353D01*
X151148001Y-81942720D01*
X151148001Y-82280551D01*
X151118798Y-82292647D01*
X150917833Y-82426927D01*
X150746927Y-82597833D01*
X150612647Y-82798798D01*
X150520153Y-83022097D01*
X150473000Y-83259151D01*
X150473000Y-83500849D01*
X150520153Y-83737903D01*
X150612647Y-83961202D01*
X150746927Y-84162167D01*
X150917833Y-84333073D01*
X151118798Y-84467353D01*
X151342097Y-84559847D01*
X151579151Y-84607000D01*
X151820849Y-84607000D01*
X152057903Y-84559847D01*
X152281202Y-84467353D01*
X152482167Y-84333073D01*
X152653073Y-84162167D01*
X152787353Y-83961202D01*
X152879847Y-83737903D01*
X152927000Y-83500849D01*
X152927000Y-83259151D01*
X152879847Y-83022097D01*
X152787353Y-82798798D01*
X152653073Y-82597833D01*
X152482167Y-82426927D01*
X152281202Y-82292647D01*
X152252000Y-82280551D01*
X152252000Y-80127108D01*
X152254670Y-80100000D01*
X152244012Y-79991789D01*
X152212448Y-79887737D01*
X152161191Y-79791842D01*
X152109492Y-79728846D01*
X152109491Y-79728845D01*
X152092211Y-79707789D01*
X152071154Y-79690508D01*
X149839500Y-77458856D01*
X149822211Y-77437789D01*
X149738158Y-77368809D01*
X149642263Y-77317552D01*
X149538211Y-77285988D01*
X149457109Y-77278000D01*
X149457106Y-77278000D01*
X149430000Y-77275330D01*
X149402894Y-77278000D01*
X148676229Y-77278000D01*
X148605149Y-77145017D01*
X148451817Y-76958183D01*
X148264983Y-76804851D01*
X148051824Y-76690916D01*
X147971733Y-76666621D01*
X148193881Y-76587070D01*
X148435131Y-76442385D01*
X148643519Y-76253414D01*
X148811037Y-76027420D01*
X148931246Y-75773087D01*
X148971904Y-75639039D01*
X148849915Y-75417000D01*
X147707000Y-75417000D01*
X147707000Y-75437000D01*
X147453000Y-75437000D01*
X147453000Y-75417000D01*
X147433000Y-75417000D01*
X147433000Y-75163000D01*
X147453000Y-75163000D01*
X147453000Y-75143000D01*
X147707000Y-75143000D01*
X147707000Y-75163000D01*
X148849915Y-75163000D01*
X148971904Y-74940961D01*
X148963888Y-74914533D01*
X153748000Y-79698646D01*
X153748001Y-82283770D01*
X153615017Y-82354851D01*
X153428183Y-82508183D01*
X153274851Y-82695017D01*
X153160916Y-82908176D01*
X153090755Y-83139466D01*
X153067064Y-83380000D01*
X153090755Y-83620534D01*
X153160916Y-83851824D01*
X153274851Y-84064983D01*
X153428183Y-84251817D01*
X153615017Y-84405149D01*
X153828176Y-84519084D01*
X154059466Y-84589245D01*
X154239732Y-84607000D01*
X154360268Y-84607000D01*
X154540534Y-84589245D01*
X154771824Y-84519084D01*
X154984983Y-84405149D01*
X155171817Y-84251817D01*
X155325149Y-84064983D01*
X155439084Y-83851824D01*
X155509245Y-83620534D01*
X155532936Y-83380000D01*
X155509245Y-83139466D01*
X155439084Y-82908176D01*
X155325149Y-82695017D01*
X155171817Y-82508183D01*
X154984983Y-82354851D01*
X154852000Y-82283771D01*
X154852000Y-82180919D01*
X155013996Y-82257571D01*
X155288184Y-82326300D01*
X155570512Y-82340217D01*
X155850130Y-82298787D01*
X156116292Y-82203603D01*
X156241514Y-82136671D01*
X156313097Y-81892702D01*
X155500000Y-81079605D01*
X155485858Y-81093748D01*
X155306253Y-80914143D01*
X155320395Y-80900000D01*
X155679605Y-80900000D01*
X156492702Y-81713097D01*
X156736671Y-81641514D01*
X156857571Y-81386004D01*
X156926300Y-81111816D01*
X156940217Y-80829488D01*
X156898787Y-80549870D01*
X156880953Y-80500000D01*
X157165128Y-80500000D01*
X157196542Y-80818948D01*
X157289575Y-81125638D01*
X157440654Y-81408286D01*
X157643971Y-81656029D01*
X157891714Y-81859346D01*
X158174362Y-82010425D01*
X158481052Y-82103458D01*
X158720075Y-82127000D01*
X158879925Y-82127000D01*
X159118948Y-82103458D01*
X159425638Y-82010425D01*
X159708286Y-81859346D01*
X159956029Y-81656029D01*
X160159346Y-81408286D01*
X160310425Y-81125638D01*
X160403458Y-80818948D01*
X160434872Y-80500000D01*
X160403458Y-80181052D01*
X160310425Y-79874362D01*
X160159346Y-79591714D01*
X159956029Y-79343971D01*
X159708286Y-79140654D01*
X159425638Y-78989575D01*
X159118948Y-78896542D01*
X158879925Y-78873000D01*
X158720075Y-78873000D01*
X158481052Y-78896542D01*
X158174362Y-78989575D01*
X157891714Y-79140654D01*
X157643971Y-79343971D01*
X157440654Y-79591714D01*
X157289575Y-79874362D01*
X157196542Y-80181052D01*
X157165128Y-80500000D01*
X156880953Y-80500000D01*
X156803603Y-80283708D01*
X156736671Y-80158486D01*
X156492702Y-80086903D01*
X155679605Y-80900000D01*
X155320395Y-80900000D01*
X155306253Y-80885858D01*
X155485858Y-80706253D01*
X155500000Y-80720395D01*
X156313097Y-79907298D01*
X156241514Y-79663329D01*
X155986004Y-79542429D01*
X155711816Y-79473700D01*
X155429488Y-79459783D01*
X155149870Y-79501213D01*
X154883708Y-79596397D01*
X154852000Y-79613345D01*
X154852000Y-79497105D01*
X154854670Y-79469999D01*
X154852000Y-79442891D01*
X154844012Y-79361789D01*
X154812448Y-79257737D01*
X154761191Y-79161842D01*
X154692211Y-79077789D01*
X154671154Y-79060508D01*
X153440646Y-77830000D01*
X153967064Y-77830000D01*
X153990755Y-78070534D01*
X154060916Y-78301824D01*
X154174851Y-78514983D01*
X154328183Y-78701817D01*
X154515017Y-78855149D01*
X154728176Y-78969084D01*
X154959466Y-79039245D01*
X155139732Y-79057000D01*
X155260268Y-79057000D01*
X155440534Y-79039245D01*
X155671824Y-78969084D01*
X155884983Y-78855149D01*
X156071817Y-78701817D01*
X156225149Y-78514983D01*
X156339084Y-78301824D01*
X156409245Y-78070534D01*
X156432936Y-77830000D01*
X156409245Y-77589466D01*
X156339084Y-77358176D01*
X156225149Y-77145017D01*
X156071817Y-76958183D01*
X155884983Y-76804851D01*
X155671824Y-76690916D01*
X155440534Y-76620755D01*
X155260268Y-76603000D01*
X155139732Y-76603000D01*
X154959466Y-76620755D01*
X154728176Y-76690916D01*
X154515017Y-76804851D01*
X154328183Y-76958183D01*
X154174851Y-77145017D01*
X154060916Y-77358176D01*
X153990755Y-77589466D01*
X153967064Y-77830000D01*
X153440646Y-77830000D01*
X148745474Y-73134829D01*
X148789245Y-72990534D01*
X148812936Y-72750000D01*
X148789245Y-72509466D01*
X148719084Y-72278176D01*
X148605149Y-72065017D01*
X148451817Y-71878183D01*
X148264983Y-71724851D01*
X148051824Y-71610916D01*
X147820534Y-71540755D01*
X147640268Y-71523000D01*
X147519732Y-71523000D01*
X147339466Y-71540755D01*
X147108176Y-71610916D01*
X146895017Y-71724851D01*
X146755200Y-71839597D01*
X146755200Y-71436624D01*
X146780000Y-71439066D01*
X148380000Y-71439066D01*
X148463707Y-71430822D01*
X148544196Y-71406405D01*
X148618376Y-71366755D01*
X148683395Y-71313395D01*
X148736755Y-71248376D01*
X148776405Y-71174196D01*
X148800822Y-71093707D01*
X148809066Y-71010000D01*
X148809066Y-70210000D01*
X153967064Y-70210000D01*
X153990755Y-70450534D01*
X154060916Y-70681824D01*
X154174851Y-70894983D01*
X154328183Y-71081817D01*
X154515017Y-71235149D01*
X154728176Y-71349084D01*
X154959466Y-71419245D01*
X155139732Y-71437000D01*
X155260268Y-71437000D01*
X155440534Y-71419245D01*
X155671824Y-71349084D01*
X155884983Y-71235149D01*
X156071817Y-71081817D01*
X156225149Y-70894983D01*
X156339084Y-70681824D01*
X156349154Y-70648627D01*
X156362647Y-70681202D01*
X156496927Y-70882167D01*
X156667833Y-71053073D01*
X156868798Y-71187353D01*
X157092097Y-71279847D01*
X157329151Y-71327000D01*
X157570849Y-71327000D01*
X157807903Y-71279847D01*
X158031202Y-71187353D01*
X158232167Y-71053073D01*
X158403073Y-70882167D01*
X158537353Y-70681202D01*
X158629847Y-70457903D01*
X158677000Y-70220849D01*
X158677000Y-69979151D01*
X158629847Y-69742097D01*
X158537353Y-69518798D01*
X158403073Y-69317833D01*
X158232167Y-69146927D01*
X158031202Y-69012647D01*
X157807903Y-68920153D01*
X157570849Y-68873000D01*
X157329151Y-68873000D01*
X157092097Y-68920153D01*
X156868798Y-69012647D01*
X156667833Y-69146927D01*
X156496927Y-69317833D01*
X156362647Y-69518798D01*
X156301164Y-69667231D01*
X156225149Y-69525017D01*
X156071817Y-69338183D01*
X155884983Y-69184851D01*
X155671824Y-69070916D01*
X155440534Y-69000755D01*
X155260268Y-68983000D01*
X155139732Y-68983000D01*
X154959466Y-69000755D01*
X154728176Y-69070916D01*
X154515017Y-69184851D01*
X154328183Y-69338183D01*
X154174851Y-69525017D01*
X154060916Y-69738176D01*
X153990755Y-69969466D01*
X153967064Y-70210000D01*
X148809066Y-70210000D01*
X148809066Y-69410000D01*
X148800822Y-69326293D01*
X148776405Y-69245804D01*
X148736755Y-69171624D01*
X148683395Y-69106605D01*
X148618376Y-69053245D01*
X148544196Y-69013595D01*
X148463707Y-68989178D01*
X148380000Y-68980934D01*
X146780000Y-68980934D01*
X146755200Y-68983376D01*
X146755200Y-68067597D01*
X146837332Y-68135001D01*
X147043889Y-68245408D01*
X147268016Y-68313396D01*
X147501100Y-68336353D01*
X147734185Y-68313396D01*
X147958312Y-68245408D01*
X148164869Y-68135001D01*
X148345918Y-67986418D01*
X148494501Y-67805369D01*
X148604908Y-67598812D01*
X148672896Y-67374685D01*
X148690100Y-67200011D01*
X148690100Y-66067190D01*
X148852100Y-66067190D01*
X148852100Y-67200011D01*
X148869304Y-67374685D01*
X148937292Y-67598812D01*
X149047700Y-67805369D01*
X149196283Y-67986418D01*
X149377332Y-68135001D01*
X149583889Y-68245408D01*
X149808016Y-68313396D01*
X150041100Y-68336353D01*
X150274185Y-68313396D01*
X150498312Y-68245408D01*
X150704869Y-68135001D01*
X150885918Y-67986418D01*
X151034501Y-67805369D01*
X151144908Y-67598812D01*
X151212896Y-67374685D01*
X151230100Y-67200011D01*
X151230100Y-66067190D01*
X151392100Y-66067190D01*
X151392100Y-67200011D01*
X151409304Y-67374685D01*
X151477292Y-67598812D01*
X151587700Y-67805369D01*
X151736283Y-67986418D01*
X151917332Y-68135001D01*
X152123889Y-68245408D01*
X152348016Y-68313396D01*
X152581100Y-68336353D01*
X152814185Y-68313396D01*
X153038312Y-68245408D01*
X153244869Y-68135001D01*
X153425918Y-67986418D01*
X153574501Y-67805369D01*
X153684908Y-67598812D01*
X153752896Y-67374685D01*
X153770100Y-67200011D01*
X153770100Y-66210545D01*
X153934137Y-66046508D01*
X153932100Y-66067190D01*
X153932100Y-67200011D01*
X153949304Y-67374685D01*
X154017292Y-67598812D01*
X154127700Y-67805369D01*
X154276283Y-67986418D01*
X154457332Y-68135001D01*
X154663889Y-68245408D01*
X154888016Y-68313396D01*
X155121100Y-68336353D01*
X155354185Y-68313396D01*
X155578312Y-68245408D01*
X155784869Y-68135001D01*
X155965918Y-67986418D01*
X156114501Y-67805369D01*
X156224908Y-67598812D01*
X156292896Y-67374685D01*
X156310100Y-67200011D01*
X156310100Y-66067189D01*
X156292896Y-65892515D01*
X156224908Y-65668388D01*
X156162697Y-65552000D01*
X159159503Y-65552000D01*
X159097292Y-65668389D01*
X159029304Y-65892516D01*
X159012100Y-66067190D01*
X159012100Y-67200011D01*
X159029304Y-67374685D01*
X159097292Y-67598812D01*
X159207700Y-67805369D01*
X159356283Y-67986418D01*
X159537332Y-68135001D01*
X159743889Y-68245408D01*
X159968016Y-68313396D01*
X160201100Y-68336353D01*
X160434185Y-68313396D01*
X160658312Y-68245408D01*
X160864869Y-68135001D01*
X161045918Y-67986418D01*
X161194501Y-67805369D01*
X161304908Y-67598812D01*
X161372896Y-67374685D01*
X161390100Y-67200011D01*
X161390100Y-66067189D01*
X161372896Y-65892515D01*
X161304908Y-65668388D01*
X161242697Y-65552000D01*
X161699503Y-65552000D01*
X161637292Y-65668389D01*
X161569304Y-65892516D01*
X161552100Y-66067190D01*
X161552100Y-67200011D01*
X161569304Y-67374685D01*
X161637292Y-67598812D01*
X161747700Y-67805369D01*
X161896283Y-67986418D01*
X162077332Y-68135001D01*
X162283889Y-68245408D01*
X162508016Y-68313396D01*
X162741100Y-68336353D01*
X162974185Y-68313396D01*
X163198312Y-68245408D01*
X163404869Y-68135001D01*
X163585918Y-67986418D01*
X163608002Y-67959509D01*
X163608001Y-68218801D01*
X158677000Y-73149804D01*
X158677000Y-72929151D01*
X158629847Y-72692097D01*
X158537353Y-72468798D01*
X158403073Y-72267833D01*
X158232167Y-72096927D01*
X158031202Y-71962647D01*
X157807903Y-71870153D01*
X157570849Y-71823000D01*
X157329151Y-71823000D01*
X157092097Y-71870153D01*
X156868798Y-71962647D01*
X156667833Y-72096927D01*
X156496927Y-72267833D01*
X156386211Y-72433532D01*
X156339084Y-72278176D01*
X156225149Y-72065017D01*
X156071817Y-71878183D01*
X155884983Y-71724851D01*
X155671824Y-71610916D01*
X155440534Y-71540755D01*
X155260268Y-71523000D01*
X155139732Y-71523000D01*
X154959466Y-71540755D01*
X154728176Y-71610916D01*
X154515017Y-71724851D01*
X154328183Y-71878183D01*
X154174851Y-72065017D01*
X154060916Y-72278176D01*
X153990755Y-72509466D01*
X153967064Y-72750000D01*
X153990755Y-72990534D01*
X154060916Y-73221824D01*
X154174851Y-73434983D01*
X154328183Y-73621817D01*
X154515017Y-73775149D01*
X154728176Y-73889084D01*
X154959466Y-73959245D01*
X155139732Y-73977000D01*
X155260268Y-73977000D01*
X155391750Y-73964050D01*
X155289883Y-74065917D01*
X155260268Y-74063000D01*
X155139732Y-74063000D01*
X154959466Y-74080755D01*
X154728176Y-74150916D01*
X154515017Y-74264851D01*
X154328183Y-74418183D01*
X154174851Y-74605017D01*
X154060916Y-74818176D01*
X153990755Y-75049466D01*
X153967064Y-75290000D01*
X153990755Y-75530534D01*
X154060916Y-75761824D01*
X154174851Y-75974983D01*
X154328183Y-76161817D01*
X154515017Y-76315149D01*
X154728176Y-76429084D01*
X154959466Y-76499245D01*
X155139732Y-76517000D01*
X155260268Y-76517000D01*
X155440534Y-76499245D01*
X155671824Y-76429084D01*
X155884983Y-76315149D01*
X156071817Y-76161817D01*
X156225149Y-75974983D01*
X156339084Y-75761824D01*
X156409245Y-75530534D01*
X156432739Y-75292001D01*
X157707297Y-75292001D01*
X157643971Y-75343971D01*
X157440654Y-75591714D01*
X157289575Y-75874362D01*
X157196542Y-76181052D01*
X157165128Y-76500000D01*
X157196542Y-76818948D01*
X157289575Y-77125638D01*
X157440654Y-77408286D01*
X157643971Y-77656029D01*
X157891714Y-77859346D01*
X158174362Y-78010425D01*
X158481052Y-78103458D01*
X158720075Y-78127000D01*
X158879925Y-78127000D01*
X159118948Y-78103458D01*
X159425638Y-78010425D01*
X159708286Y-77859346D01*
X159956029Y-77656029D01*
X160159346Y-77408286D01*
X160310425Y-77125638D01*
X160403458Y-76818948D01*
X160434872Y-76500000D01*
X160403458Y-76181052D01*
X160310425Y-75874362D01*
X160159346Y-75591714D01*
X159956029Y-75343971D01*
X159708286Y-75140654D01*
X159425638Y-74989575D01*
X159180106Y-74915094D01*
X161045200Y-73050000D01*
X163837064Y-73050000D01*
X163860755Y-73290534D01*
X163930916Y-73521824D01*
X164044851Y-73734983D01*
X164198183Y-73921817D01*
X164385017Y-74075149D01*
X164598176Y-74189084D01*
X164829466Y-74259245D01*
X165009732Y-74277000D01*
X165130268Y-74277000D01*
X165310534Y-74259245D01*
X165541824Y-74189084D01*
X165754983Y-74075149D01*
X165941817Y-73921817D01*
X166095149Y-73734983D01*
X166209084Y-73521824D01*
X166279245Y-73290534D01*
X166302936Y-73050000D01*
X166547064Y-73050000D01*
X166570755Y-73290534D01*
X166640916Y-73521824D01*
X166754851Y-73734983D01*
X166908183Y-73921817D01*
X167095017Y-74075149D01*
X167308176Y-74189084D01*
X167539466Y-74259245D01*
X167719732Y-74277000D01*
X167840268Y-74277000D01*
X168020534Y-74259245D01*
X168251824Y-74189084D01*
X168464983Y-74075149D01*
X168651817Y-73921817D01*
X168805149Y-73734983D01*
X168919084Y-73521824D01*
X168989245Y-73290534D01*
X169012936Y-73050000D01*
X169001034Y-72929151D01*
X174173000Y-72929151D01*
X174173000Y-73170849D01*
X174220153Y-73407903D01*
X174312647Y-73631202D01*
X174446927Y-73832167D01*
X174617833Y-74003073D01*
X174818798Y-74137353D01*
X175042097Y-74229847D01*
X175279151Y-74277000D01*
X175520849Y-74277000D01*
X175757903Y-74229847D01*
X175981202Y-74137353D01*
X176182167Y-74003073D01*
X176353073Y-73832167D01*
X176487353Y-73631202D01*
X176579847Y-73407903D01*
X176627000Y-73170849D01*
X176627000Y-72929151D01*
X176579847Y-72692097D01*
X176487353Y-72468798D01*
X176353073Y-72267833D01*
X176182167Y-72096927D01*
X175981202Y-71962647D01*
X175757903Y-71870153D01*
X175520849Y-71823000D01*
X175279151Y-71823000D01*
X175042097Y-71870153D01*
X174818798Y-71962647D01*
X174617833Y-72096927D01*
X174446927Y-72267833D01*
X174312647Y-72468798D01*
X174220153Y-72692097D01*
X174173000Y-72929151D01*
X169001034Y-72929151D01*
X168989245Y-72809466D01*
X168919084Y-72578176D01*
X168805149Y-72365017D01*
X168651817Y-72178183D01*
X168464983Y-72024851D01*
X168251824Y-71910916D01*
X168020534Y-71840755D01*
X167840268Y-71823000D01*
X167719732Y-71823000D01*
X167539466Y-71840755D01*
X167308176Y-71910916D01*
X167095017Y-72024851D01*
X166908183Y-72178183D01*
X166754851Y-72365017D01*
X166640916Y-72578176D01*
X166570755Y-72809466D01*
X166547064Y-73050000D01*
X166302936Y-73050000D01*
X166279245Y-72809466D01*
X166209084Y-72578176D01*
X166095149Y-72365017D01*
X165941817Y-72178183D01*
X165754983Y-72024851D01*
X165541824Y-71910916D01*
X165310534Y-71840755D01*
X165130268Y-71823000D01*
X165009732Y-71823000D01*
X164829466Y-71840755D01*
X164598176Y-71910916D01*
X164385017Y-72024851D01*
X164198183Y-72178183D01*
X164044851Y-72365017D01*
X163930916Y-72578176D01*
X163860755Y-72809466D01*
X163837064Y-73050000D01*
X161045200Y-73050000D01*
X163851243Y-70243959D01*
X163860755Y-70340534D01*
X163930916Y-70571824D01*
X164044851Y-70784983D01*
X164198183Y-70971817D01*
X164385017Y-71125149D01*
X164598176Y-71239084D01*
X164829466Y-71309245D01*
X165009732Y-71327000D01*
X165130268Y-71327000D01*
X165310534Y-71309245D01*
X165541824Y-71239084D01*
X165754983Y-71125149D01*
X165941817Y-70971817D01*
X166095149Y-70784983D01*
X166209084Y-70571824D01*
X166279245Y-70340534D01*
X166302936Y-70100000D01*
X166298012Y-70050000D01*
X166547064Y-70050000D01*
X166570755Y-70290534D01*
X166640916Y-70521824D01*
X166754851Y-70734983D01*
X166908183Y-70921817D01*
X167095017Y-71075149D01*
X167308176Y-71189084D01*
X167539466Y-71259245D01*
X167719732Y-71277000D01*
X167840268Y-71277000D01*
X168020534Y-71259245D01*
X168251824Y-71189084D01*
X168464983Y-71075149D01*
X168651817Y-70921817D01*
X168805149Y-70734983D01*
X168919084Y-70521824D01*
X168989245Y-70290534D01*
X169012936Y-70050000D01*
X169001034Y-69929151D01*
X174173000Y-69929151D01*
X174173000Y-70170849D01*
X174220153Y-70407903D01*
X174312647Y-70631202D01*
X174446927Y-70832167D01*
X174617833Y-71003073D01*
X174818798Y-71137353D01*
X175042097Y-71229847D01*
X175279151Y-71277000D01*
X175520849Y-71277000D01*
X175757903Y-71229847D01*
X175981202Y-71137353D01*
X176182167Y-71003073D01*
X176353073Y-70832167D01*
X176487353Y-70631202D01*
X176579847Y-70407903D01*
X176627000Y-70170849D01*
X176627000Y-69929151D01*
X176579847Y-69692097D01*
X176487353Y-69468798D01*
X176353073Y-69267833D01*
X176182167Y-69096927D01*
X175981202Y-68962647D01*
X175757903Y-68870153D01*
X175520849Y-68823000D01*
X175279151Y-68823000D01*
X175042097Y-68870153D01*
X174818798Y-68962647D01*
X174617833Y-69096927D01*
X174446927Y-69267833D01*
X174312647Y-69468798D01*
X174220153Y-69692097D01*
X174173000Y-69929151D01*
X169001034Y-69929151D01*
X168989245Y-69809466D01*
X168919084Y-69578176D01*
X168805149Y-69365017D01*
X168651817Y-69178183D01*
X168464983Y-69024851D01*
X168251824Y-68910916D01*
X168020534Y-68840755D01*
X167840268Y-68823000D01*
X167719732Y-68823000D01*
X167539466Y-68840755D01*
X167308176Y-68910916D01*
X167095017Y-69024851D01*
X166908183Y-69178183D01*
X166754851Y-69365017D01*
X166640916Y-69578176D01*
X166570755Y-69809466D01*
X166547064Y-70050000D01*
X166298012Y-70050000D01*
X166279245Y-69859466D01*
X166209084Y-69628176D01*
X166095149Y-69415017D01*
X165941817Y-69228183D01*
X165754983Y-69074851D01*
X165541824Y-68960916D01*
X165310534Y-68890755D01*
X165146416Y-68874591D01*
X165154537Y-68859398D01*
X165198100Y-68715789D01*
X165200396Y-68708221D01*
X165202140Y-68690509D01*
X165212001Y-68590395D01*
X165212001Y-68590388D01*
X165215880Y-68551002D01*
X165212001Y-68511616D01*
X165212001Y-67877000D01*
X165322726Y-67877000D01*
X165510336Y-67858522D01*
X165751051Y-67785502D01*
X165972896Y-67666924D01*
X166167344Y-67507344D01*
X166326924Y-67312896D01*
X166421824Y-67135350D01*
X166455843Y-67231252D01*
X166604822Y-67481355D01*
X166799731Y-67697588D01*
X167033080Y-67871641D01*
X167295901Y-67996825D01*
X167443110Y-68041476D01*
X167673000Y-67920155D01*
X167673000Y-66727000D01*
X167653000Y-66727000D01*
X167653000Y-66473000D01*
X167673000Y-66473000D01*
X167673000Y-66453000D01*
X167927000Y-66453000D01*
X167927000Y-66473000D01*
X167947000Y-66473000D01*
X167947000Y-66727000D01*
X167927000Y-66727000D01*
X167927000Y-67920155D01*
X168156890Y-68041476D01*
X168304099Y-67996825D01*
X168566920Y-67871641D01*
X168800269Y-67697588D01*
X168995178Y-67481355D01*
X169144157Y-67231252D01*
X169178176Y-67135350D01*
X169273076Y-67312896D01*
X169432656Y-67507344D01*
X169627104Y-67666924D01*
X169848949Y-67785502D01*
X170089664Y-67858522D01*
X170277274Y-67877000D01*
X170402726Y-67877000D01*
X170590336Y-67858522D01*
X170831051Y-67785502D01*
X171052896Y-67666924D01*
X171247344Y-67507344D01*
X171406924Y-67312896D01*
X171525502Y-67091051D01*
X171598522Y-66850336D01*
X171600934Y-66825847D01*
X171600934Y-67450000D01*
X171609178Y-67533707D01*
X171633595Y-67614196D01*
X171673245Y-67688376D01*
X171726605Y-67753395D01*
X171791624Y-67806755D01*
X171865804Y-67846405D01*
X171946293Y-67870822D01*
X172030000Y-67879066D01*
X173730000Y-67879066D01*
X173813707Y-67870822D01*
X173894196Y-67846405D01*
X173968376Y-67806755D01*
X174033395Y-67753395D01*
X174086755Y-67688376D01*
X174126405Y-67614196D01*
X174150822Y-67533707D01*
X174159066Y-67450000D01*
X174159066Y-65750000D01*
X174150822Y-65666293D01*
X174126405Y-65585804D01*
X174086755Y-65511624D01*
X174033395Y-65446605D01*
X173968376Y-65393245D01*
X173894196Y-65353595D01*
X173813707Y-65329178D01*
X173730000Y-65320934D01*
X172401579Y-65320934D01*
X171709500Y-64628856D01*
X171692211Y-64607789D01*
X171608158Y-64538809D01*
X171512263Y-64487552D01*
X171408211Y-64455988D01*
X171327109Y-64448000D01*
X171327106Y-64448000D01*
X171300000Y-64445330D01*
X171272894Y-64448000D01*
X154227097Y-64448000D01*
X154199999Y-64445331D01*
X154172901Y-64448000D01*
X154172891Y-64448000D01*
X154091789Y-64455988D01*
X153987737Y-64487552D01*
X153944365Y-64510735D01*
X153891841Y-64538809D01*
X153834679Y-64585721D01*
X153807789Y-64607789D01*
X153790508Y-64628846D01*
X153268094Y-65151260D01*
X153244868Y-65132199D01*
X153038311Y-65021792D01*
X152814184Y-64953804D01*
X152581100Y-64930847D01*
X152348015Y-64953804D01*
X152123888Y-65021792D01*
X151917331Y-65132199D01*
X151736282Y-65280782D01*
X151587699Y-65461832D01*
X151477292Y-65668389D01*
X151409304Y-65892516D01*
X151392100Y-66067190D01*
X151230100Y-66067190D01*
X151230100Y-66067189D01*
X151212896Y-65892515D01*
X151144908Y-65668388D01*
X151034501Y-65461831D01*
X150885918Y-65280782D01*
X150704868Y-65132199D01*
X150498311Y-65021792D01*
X150274184Y-64953804D01*
X150041100Y-64930847D01*
X149808015Y-64953804D01*
X149583888Y-65021792D01*
X149377331Y-65132199D01*
X149196282Y-65280782D01*
X149047699Y-65461832D01*
X148937292Y-65668389D01*
X148869304Y-65892516D01*
X148852100Y-66067190D01*
X148690100Y-66067190D01*
X148690100Y-66067189D01*
X148672896Y-65892515D01*
X148604908Y-65668388D01*
X148494501Y-65461831D01*
X148345918Y-65280782D01*
X148164868Y-65132199D01*
X147958311Y-65021792D01*
X147734184Y-64953804D01*
X147501100Y-64930847D01*
X147268015Y-64953804D01*
X147043888Y-65021792D01*
X146837331Y-65132199D01*
X146755200Y-65199602D01*
X146755200Y-64383000D01*
X180964786Y-64383000D01*
X180656405Y-64510735D01*
G36*
X165998001Y-87560604D02*
G01*
X165994121Y-87600000D01*
X166009605Y-87757219D01*
X166055464Y-87908396D01*
X166124345Y-88037263D01*
X166129936Y-88047723D01*
X166230158Y-88169843D01*
X166260757Y-88194956D01*
X166973000Y-88907199D01*
X166973000Y-89120849D01*
X167020153Y-89357903D01*
X167088539Y-89523001D01*
X166311461Y-89523001D01*
X166379847Y-89357903D01*
X166427000Y-89120849D01*
X166427000Y-88879151D01*
X166379847Y-88642097D01*
X166287353Y-88418798D01*
X166153073Y-88217833D01*
X165982167Y-88046927D01*
X165781202Y-87912647D01*
X165557903Y-87820153D01*
X165320849Y-87773000D01*
X165079151Y-87773000D01*
X164842097Y-87820153D01*
X164812894Y-87832249D01*
X164577000Y-87596356D01*
X164577000Y-87059425D01*
X164618798Y-87087353D01*
X164842097Y-87179847D01*
X165079151Y-87227000D01*
X165320849Y-87227000D01*
X165557903Y-87179847D01*
X165781202Y-87087353D01*
X165982167Y-86953073D01*
X165998001Y-86937239D01*
X165998001Y-87560604D01*
X165998001Y-87560604D01*
G37*
X165998001Y-87560604D02*
X165994121Y-87600000D01*
X166009605Y-87757219D01*
X166055464Y-87908396D01*
X166124345Y-88037263D01*
X166129936Y-88047723D01*
X166230158Y-88169843D01*
X166260757Y-88194956D01*
X166973000Y-88907199D01*
X166973000Y-89120849D01*
X167020153Y-89357903D01*
X167088539Y-89523001D01*
X166311461Y-89523001D01*
X166379847Y-89357903D01*
X166427000Y-89120849D01*
X166427000Y-88879151D01*
X166379847Y-88642097D01*
X166287353Y-88418798D01*
X166153073Y-88217833D01*
X165982167Y-88046927D01*
X165781202Y-87912647D01*
X165557903Y-87820153D01*
X165320849Y-87773000D01*
X165079151Y-87773000D01*
X164842097Y-87820153D01*
X164812894Y-87832249D01*
X164577000Y-87596356D01*
X164577000Y-87059425D01*
X164618798Y-87087353D01*
X164842097Y-87179847D01*
X165079151Y-87227000D01*
X165320849Y-87227000D01*
X165557903Y-87179847D01*
X165781202Y-87087353D01*
X165982167Y-86953073D01*
X165998001Y-86937239D01*
X165998001Y-87560604D01*
M02*
