G04 #@! TF.GenerationSoftware,KiCad,Pcbnew,(5.1.5)-3*
G04 #@! TF.CreationDate,2020-04-18T22:36:26-04:00*
G04 #@! TF.ProjectId,NO2C,4e4f3243-2e6b-4696-9361-645f70636258,vD1*
G04 #@! TF.SameCoordinates,Original*
G04 #@! TF.FileFunction,Legend,Top*
G04 #@! TF.FilePolarity,Positive*
%FSLAX46Y46*%
G04 Gerber Fmt 4.6, Leading zero omitted, Abs format (unit mm)*
G04 Created by KiCad (PCBNEW (5.1.5)-3) date 2020-04-18 22:36:26*
%MOMM*%
%LPD*%
G04 APERTURE LIST*
%ADD10C,0.150000*%
%ADD11C,0.187500*%
%ADD12C,0.125000*%
%ADD13C,0.200000*%
%ADD14C,1.800000*%
%ADD15C,0.250000*%
%ADD16C,2.500000*%
%ADD17C,0.300000*%
%ADD18C,0.500000*%
%ADD19C,0.350000*%
%ADD20C,0.120000*%
G04 APERTURE END LIST*
D10*
X126800000Y-100000000D02*
X126400000Y-100000000D01*
X126800000Y-95300000D02*
X126800000Y-100000000D01*
X124700000Y-94500000D02*
X124700000Y-95000000D01*
X125500000Y-94500000D02*
X124700000Y-94500000D01*
X132000000Y-94500000D02*
X132000000Y-95000000D01*
X128200000Y-94500000D02*
X132000000Y-94500000D01*
D11*
X126278571Y-94050000D02*
X126207142Y-94002380D01*
X126100000Y-94002380D01*
X125992857Y-94050000D01*
X125921428Y-94145238D01*
X125885714Y-94240476D01*
X125850000Y-94430952D01*
X125850000Y-94573809D01*
X125885714Y-94764285D01*
X125921428Y-94859523D01*
X125992857Y-94954761D01*
X126100000Y-95002380D01*
X126171428Y-95002380D01*
X126278571Y-94954761D01*
X126314285Y-94907142D01*
X126314285Y-94573809D01*
X126171428Y-94573809D01*
X126635714Y-95002380D02*
X126635714Y-94002380D01*
X127064285Y-95002380D01*
X127064285Y-94002380D01*
X127421428Y-95002380D02*
X127421428Y-94002380D01*
X127600000Y-94002380D01*
X127707142Y-94050000D01*
X127778571Y-94145238D01*
X127814285Y-94240476D01*
X127850000Y-94430952D01*
X127850000Y-94573809D01*
X127814285Y-94764285D01*
X127778571Y-94859523D01*
X127707142Y-94954761D01*
X127600000Y-95002380D01*
X127421428Y-95002380D01*
D10*
X146900000Y-89600000D02*
X146900000Y-89150000D01*
X146900000Y-89600000D02*
X147400000Y-89600000D01*
X146900000Y-86000000D02*
X147400000Y-86000000D01*
X146900000Y-86450000D02*
X146900000Y-86000000D01*
D11*
X146400000Y-88371428D02*
X146352380Y-88442857D01*
X146352380Y-88550000D01*
X146400000Y-88657142D01*
X146495238Y-88728571D01*
X146590476Y-88764285D01*
X146780952Y-88800000D01*
X146923809Y-88800000D01*
X147114285Y-88764285D01*
X147209523Y-88728571D01*
X147304761Y-88657142D01*
X147352380Y-88550000D01*
X147352380Y-88478571D01*
X147304761Y-88371428D01*
X147257142Y-88335714D01*
X146923809Y-88335714D01*
X146923809Y-88478571D01*
X147352380Y-88014285D02*
X146352380Y-88014285D01*
X147352380Y-87585714D01*
X146352380Y-87585714D01*
X147352380Y-87228571D02*
X146352380Y-87228571D01*
X146352380Y-87050000D01*
X146400000Y-86942857D01*
X146495238Y-86871428D01*
X146590476Y-86835714D01*
X146780952Y-86800000D01*
X146923809Y-86800000D01*
X147114285Y-86835714D01*
X147209523Y-86871428D01*
X147304761Y-86942857D01*
X147352380Y-87050000D01*
X147352380Y-87228571D01*
D10*
X145750000Y-91550000D02*
X145550000Y-91300000D01*
X145700000Y-91700000D02*
X145750000Y-91550000D01*
X145350000Y-91250000D02*
X145700000Y-91700000D01*
X145295557Y-91202806D02*
X145695557Y-91895626D01*
D11*
X100709970Y-111708630D02*
X100426636Y-111232440D01*
X100224255Y-111708630D02*
X100224255Y-110708630D01*
X100548065Y-110708630D01*
X100629017Y-110756250D01*
X100669494Y-110803869D01*
X100709970Y-110899107D01*
X100709970Y-111041964D01*
X100669494Y-111137202D01*
X100629017Y-111184821D01*
X100548065Y-111232440D01*
X100224255Y-111232440D01*
X101074255Y-111184821D02*
X101357589Y-111184821D01*
X101479017Y-111708630D02*
X101074255Y-111708630D01*
X101074255Y-110708630D01*
X101479017Y-110708630D01*
X101843303Y-111708630D02*
X101843303Y-110708630D01*
X102126636Y-111422916D01*
X102409970Y-110708630D01*
X102409970Y-111708630D01*
X102693303Y-110708630D02*
X102976636Y-111708630D01*
X103259970Y-110708630D01*
X104069494Y-110708630D02*
X104555208Y-110708630D01*
X104312351Y-111708630D02*
X104312351Y-110708630D01*
X105000446Y-110708630D02*
X105162351Y-110708630D01*
X105243303Y-110756250D01*
X105324255Y-110851488D01*
X105364732Y-111041964D01*
X105364732Y-111375297D01*
X105324255Y-111565773D01*
X105243303Y-111661011D01*
X105162351Y-111708630D01*
X105000446Y-111708630D01*
X104919494Y-111661011D01*
X104838541Y-111565773D01*
X104798065Y-111375297D01*
X104798065Y-111041964D01*
X104838541Y-110851488D01*
X104919494Y-110756250D01*
X105000446Y-110708630D01*
X100224255Y-113396130D02*
X100224255Y-112396130D01*
X100548065Y-112396130D01*
X100629017Y-112443750D01*
X100669494Y-112491369D01*
X100709970Y-112586607D01*
X100709970Y-112729464D01*
X100669494Y-112824702D01*
X100629017Y-112872321D01*
X100548065Y-112919940D01*
X100224255Y-112919940D01*
X101559970Y-113396130D02*
X101276636Y-112919940D01*
X101074255Y-113396130D02*
X101074255Y-112396130D01*
X101398065Y-112396130D01*
X101479017Y-112443750D01*
X101519494Y-112491369D01*
X101559970Y-112586607D01*
X101559970Y-112729464D01*
X101519494Y-112824702D01*
X101479017Y-112872321D01*
X101398065Y-112919940D01*
X101074255Y-112919940D01*
X102086160Y-112396130D02*
X102248065Y-112396130D01*
X102329017Y-112443750D01*
X102409970Y-112538988D01*
X102450446Y-112729464D01*
X102450446Y-113062797D01*
X102409970Y-113253273D01*
X102329017Y-113348511D01*
X102248065Y-113396130D01*
X102086160Y-113396130D01*
X102005208Y-113348511D01*
X101924255Y-113253273D01*
X101883779Y-113062797D01*
X101883779Y-112729464D01*
X101924255Y-112538988D01*
X102005208Y-112443750D01*
X102086160Y-112396130D01*
X103259970Y-112443750D02*
X103179017Y-112396130D01*
X103057589Y-112396130D01*
X102936160Y-112443750D01*
X102855208Y-112538988D01*
X102814732Y-112634226D01*
X102774255Y-112824702D01*
X102774255Y-112967559D01*
X102814732Y-113158035D01*
X102855208Y-113253273D01*
X102936160Y-113348511D01*
X103057589Y-113396130D01*
X103138541Y-113396130D01*
X103259970Y-113348511D01*
X103300446Y-113300892D01*
X103300446Y-112967559D01*
X103138541Y-112967559D01*
D10*
X151320500Y-68707000D02*
X151320500Y-68008500D01*
X151955500Y-68707000D02*
X151320500Y-68707000D01*
X156527500Y-68707000D02*
X156527500Y-68008500D01*
X155892500Y-68707000D02*
X156527500Y-68707000D01*
D11*
X152487095Y-68653428D02*
X152608523Y-68689142D01*
X152649000Y-68724857D01*
X152689476Y-68796285D01*
X152689476Y-68903428D01*
X152649000Y-68974857D01*
X152608523Y-69010571D01*
X152527571Y-69046285D01*
X152203761Y-69046285D01*
X152203761Y-68296285D01*
X152487095Y-68296285D01*
X152568047Y-68332000D01*
X152608523Y-68367714D01*
X152649000Y-68439142D01*
X152649000Y-68510571D01*
X152608523Y-68582000D01*
X152568047Y-68617714D01*
X152487095Y-68653428D01*
X152203761Y-68653428D01*
X153458523Y-69046285D02*
X153053761Y-69046285D01*
X153053761Y-68296285D01*
X153741857Y-68296285D02*
X153741857Y-68903428D01*
X153782333Y-68974857D01*
X153822809Y-69010571D01*
X153903761Y-69046285D01*
X154065666Y-69046285D01*
X154146619Y-69010571D01*
X154187095Y-68974857D01*
X154227571Y-68903428D01*
X154227571Y-68296285D01*
X154632333Y-68653428D02*
X154915666Y-68653428D01*
X155037095Y-69046285D02*
X154632333Y-69046285D01*
X154632333Y-68296285D01*
X155037095Y-68296285D01*
X155279952Y-68296285D02*
X155765666Y-68296285D01*
X155522809Y-69046285D02*
X155522809Y-68296285D01*
D10*
X142049500Y-97790000D02*
X142049500Y-99695000D01*
X145415000Y-97790000D02*
X142049500Y-97790000D01*
X153670000Y-97790000D02*
X153670000Y-99695000D01*
X150495000Y-97790000D02*
X153670000Y-97790000D01*
D11*
X145722857Y-97242380D02*
X146151428Y-97242380D01*
X145937142Y-98242380D02*
X145937142Y-97242380D01*
X146830000Y-98242380D02*
X146580000Y-97766190D01*
X146401428Y-98242380D02*
X146401428Y-97242380D01*
X146687142Y-97242380D01*
X146758571Y-97290000D01*
X146794285Y-97337619D01*
X146830000Y-97432857D01*
X146830000Y-97575714D01*
X146794285Y-97670952D01*
X146758571Y-97718571D01*
X146687142Y-97766190D01*
X146401428Y-97766190D01*
X147151428Y-98242380D02*
X147151428Y-97242380D01*
X147901428Y-97290000D02*
X147830000Y-97242380D01*
X147722857Y-97242380D01*
X147615714Y-97290000D01*
X147544285Y-97385238D01*
X147508571Y-97480476D01*
X147472857Y-97670952D01*
X147472857Y-97813809D01*
X147508571Y-98004285D01*
X147544285Y-98099523D01*
X147615714Y-98194761D01*
X147722857Y-98242380D01*
X147794285Y-98242380D01*
X147901428Y-98194761D01*
X147937142Y-98147142D01*
X147937142Y-97813809D01*
X147794285Y-97813809D01*
X148651428Y-97290000D02*
X148580000Y-97242380D01*
X148472857Y-97242380D01*
X148365714Y-97290000D01*
X148294285Y-97385238D01*
X148258571Y-97480476D01*
X148222857Y-97670952D01*
X148222857Y-97813809D01*
X148258571Y-98004285D01*
X148294285Y-98099523D01*
X148365714Y-98194761D01*
X148472857Y-98242380D01*
X148544285Y-98242380D01*
X148651428Y-98194761D01*
X148687142Y-98147142D01*
X148687142Y-97813809D01*
X148544285Y-97813809D01*
X149008571Y-97718571D02*
X149258571Y-97718571D01*
X149365714Y-98242380D02*
X149008571Y-98242380D01*
X149008571Y-97242380D01*
X149365714Y-97242380D01*
X150115714Y-98242380D02*
X149865714Y-97766190D01*
X149687142Y-98242380D02*
X149687142Y-97242380D01*
X149972857Y-97242380D01*
X150044285Y-97290000D01*
X150080000Y-97337619D01*
X150115714Y-97432857D01*
X150115714Y-97575714D01*
X150080000Y-97670952D01*
X150044285Y-97718571D01*
X149972857Y-97766190D01*
X149687142Y-97766190D01*
D12*
X154872571Y-64996190D02*
X154705904Y-64758095D01*
X154586857Y-64996190D02*
X154586857Y-64496190D01*
X154777333Y-64496190D01*
X154824952Y-64520000D01*
X154848761Y-64543809D01*
X154872571Y-64591428D01*
X154872571Y-64662857D01*
X154848761Y-64710476D01*
X154824952Y-64734285D01*
X154777333Y-64758095D01*
X154586857Y-64758095D01*
X155039238Y-64496190D02*
X155372571Y-64996190D01*
X155372571Y-64496190D02*
X155039238Y-64996190D01*
X155658285Y-64496190D02*
X155705904Y-64496190D01*
X155753523Y-64520000D01*
X155777333Y-64543809D01*
X155801142Y-64591428D01*
X155824952Y-64686666D01*
X155824952Y-64805714D01*
X155801142Y-64900952D01*
X155777333Y-64948571D01*
X155753523Y-64972380D01*
X155705904Y-64996190D01*
X155658285Y-64996190D01*
X155610666Y-64972380D01*
X155586857Y-64948571D01*
X155563047Y-64900952D01*
X155539238Y-64805714D01*
X155539238Y-64686666D01*
X155563047Y-64591428D01*
X155586857Y-64543809D01*
X155610666Y-64520000D01*
X155658285Y-64496190D01*
X152034952Y-64496190D02*
X152320666Y-64496190D01*
X152177809Y-64996190D02*
X152177809Y-64496190D01*
X152439714Y-64496190D02*
X152773047Y-64996190D01*
X152773047Y-64496190D02*
X152439714Y-64996190D01*
X153058761Y-64496190D02*
X153106380Y-64496190D01*
X153154000Y-64520000D01*
X153177809Y-64543809D01*
X153201619Y-64591428D01*
X153225428Y-64686666D01*
X153225428Y-64805714D01*
X153201619Y-64900952D01*
X153177809Y-64948571D01*
X153154000Y-64972380D01*
X153106380Y-64996190D01*
X153058761Y-64996190D01*
X153011142Y-64972380D01*
X152987333Y-64948571D01*
X152963523Y-64900952D01*
X152939714Y-64805714D01*
X152939714Y-64686666D01*
X152963523Y-64591428D01*
X152987333Y-64543809D01*
X153011142Y-64520000D01*
X153058761Y-64496190D01*
D10*
X98552000Y-95180118D02*
X98552000Y-93091000D01*
X98552000Y-95180118D02*
X98192790Y-94820908D01*
X98552000Y-95180118D02*
X98911210Y-94820908D01*
D11*
X105202380Y-105708839D02*
X104202380Y-105708839D01*
X104202380Y-105494553D01*
X104250000Y-105365982D01*
X104345238Y-105280267D01*
X104440476Y-105237410D01*
X104630952Y-105194553D01*
X104773809Y-105194553D01*
X104964285Y-105237410D01*
X105059523Y-105280267D01*
X105154761Y-105365982D01*
X105202380Y-105494553D01*
X105202380Y-105708839D01*
X105202380Y-104294553D02*
X104726190Y-104594553D01*
X105202380Y-104808839D02*
X104202380Y-104808839D01*
X104202380Y-104465982D01*
X104250000Y-104380267D01*
X104297619Y-104337410D01*
X104392857Y-104294553D01*
X104535714Y-104294553D01*
X104630952Y-104337410D01*
X104678571Y-104380267D01*
X104726190Y-104465982D01*
X104726190Y-104808839D01*
X104202380Y-104037410D02*
X105202380Y-103737410D01*
X104202380Y-103437410D01*
X104630952Y-103008839D02*
X104583333Y-103094553D01*
X104535714Y-103137410D01*
X104440476Y-103180267D01*
X104392857Y-103180267D01*
X104297619Y-103137410D01*
X104250000Y-103094553D01*
X104202380Y-103008839D01*
X104202380Y-102837410D01*
X104250000Y-102751696D01*
X104297619Y-102708839D01*
X104392857Y-102665982D01*
X104440476Y-102665982D01*
X104535714Y-102708839D01*
X104583333Y-102751696D01*
X104630952Y-102837410D01*
X104630952Y-103008839D01*
X104678571Y-103094553D01*
X104726190Y-103137410D01*
X104821428Y-103180267D01*
X105011904Y-103180267D01*
X105107142Y-103137410D01*
X105154761Y-103094553D01*
X105202380Y-103008839D01*
X105202380Y-102837410D01*
X105154761Y-102751696D01*
X105107142Y-102708839D01*
X105011904Y-102665982D01*
X104821428Y-102665982D01*
X104726190Y-102708839D01*
X104678571Y-102751696D01*
X104630952Y-102837410D01*
X104630952Y-102151696D02*
X104583333Y-102237410D01*
X104535714Y-102280267D01*
X104440476Y-102323125D01*
X104392857Y-102323125D01*
X104297619Y-102280267D01*
X104250000Y-102237410D01*
X104202380Y-102151696D01*
X104202380Y-101980267D01*
X104250000Y-101894553D01*
X104297619Y-101851696D01*
X104392857Y-101808839D01*
X104440476Y-101808839D01*
X104535714Y-101851696D01*
X104583333Y-101894553D01*
X104630952Y-101980267D01*
X104630952Y-102151696D01*
X104678571Y-102237410D01*
X104726190Y-102280267D01*
X104821428Y-102323125D01*
X105011904Y-102323125D01*
X105107142Y-102280267D01*
X105154761Y-102237410D01*
X105202380Y-102151696D01*
X105202380Y-101980267D01*
X105154761Y-101894553D01*
X105107142Y-101851696D01*
X105011904Y-101808839D01*
X104821428Y-101808839D01*
X104726190Y-101851696D01*
X104678571Y-101894553D01*
X104630952Y-101980267D01*
X104297619Y-101465982D02*
X104250000Y-101423125D01*
X104202380Y-101337410D01*
X104202380Y-101123125D01*
X104250000Y-101037410D01*
X104297619Y-100994553D01*
X104392857Y-100951696D01*
X104488095Y-100951696D01*
X104630952Y-100994553D01*
X105202380Y-101508839D01*
X105202380Y-100951696D01*
X104202380Y-100137410D02*
X104202380Y-100565982D01*
X104678571Y-100608839D01*
X104630952Y-100565982D01*
X104583333Y-100480267D01*
X104583333Y-100265982D01*
X104630952Y-100180267D01*
X104678571Y-100137410D01*
X104773809Y-100094553D01*
X105011904Y-100094553D01*
X105107142Y-100137410D01*
X105154761Y-100180267D01*
X105202380Y-100265982D01*
X105202380Y-100480267D01*
X105154761Y-100565982D01*
X105107142Y-100608839D01*
D13*
X92540476Y-78033571D02*
X92057142Y-78033571D01*
X92057142Y-78557380D02*
X92057142Y-77557380D01*
X92747619Y-77557380D01*
X93990476Y-78557380D02*
X93300000Y-78557380D01*
X93300000Y-77557380D01*
X94404761Y-78271666D02*
X95095238Y-78271666D01*
X94266666Y-78557380D02*
X94750000Y-77557380D01*
X95233333Y-78557380D01*
X95509523Y-77557380D02*
X96338095Y-77557380D01*
X95923809Y-78557380D02*
X95923809Y-77557380D01*
X97857142Y-78509761D02*
X98064285Y-78557380D01*
X98409523Y-78557380D01*
X98547619Y-78509761D01*
X98616666Y-78462142D01*
X98685714Y-78366904D01*
X98685714Y-78271666D01*
X98616666Y-78176428D01*
X98547619Y-78128809D01*
X98409523Y-78081190D01*
X98133333Y-78033571D01*
X97995238Y-77985952D01*
X97926190Y-77938333D01*
X97857142Y-77843095D01*
X97857142Y-77747857D01*
X97926190Y-77652619D01*
X97995238Y-77605000D01*
X98133333Y-77557380D01*
X98478571Y-77557380D01*
X98685714Y-77605000D01*
X99307142Y-78557380D02*
X99307142Y-77557380D01*
X99997619Y-78557380D02*
X99997619Y-77557380D01*
X100342857Y-77557380D01*
X100550000Y-77605000D01*
X100688095Y-77700238D01*
X100757142Y-77795476D01*
X100826190Y-77985952D01*
X100826190Y-78128809D01*
X100757142Y-78319285D01*
X100688095Y-78414523D01*
X100550000Y-78509761D01*
X100342857Y-78557380D01*
X99997619Y-78557380D01*
X101447619Y-78033571D02*
X101930952Y-78033571D01*
X102138095Y-78557380D02*
X101447619Y-78557380D01*
X101447619Y-77557380D01*
X102138095Y-77557380D01*
X103864285Y-77557380D02*
X103864285Y-78366904D01*
X103933333Y-78462142D01*
X104002380Y-78509761D01*
X104140476Y-78557380D01*
X104416666Y-78557380D01*
X104554761Y-78509761D01*
X104623809Y-78462142D01*
X104692857Y-78366904D01*
X104692857Y-77557380D01*
X105383333Y-78557380D02*
X105383333Y-77557380D01*
X105935714Y-77557380D01*
X106073809Y-77605000D01*
X106142857Y-77652619D01*
X106211904Y-77747857D01*
X106211904Y-77890714D01*
X106142857Y-77985952D01*
X106073809Y-78033571D01*
X105935714Y-78081190D01*
X105383333Y-78081190D01*
D11*
X173704452Y-103249000D02*
X174109214Y-103249000D01*
X173623500Y-103463285D02*
X173906833Y-102713285D01*
X174190166Y-103463285D01*
X174878261Y-103463285D02*
X174473500Y-103463285D01*
X174473500Y-102713285D01*
X175161595Y-103463285D02*
X175161595Y-102713285D01*
X176011595Y-102749000D02*
X175930642Y-102713285D01*
X175809214Y-102713285D01*
X175687785Y-102749000D01*
X175606833Y-102820428D01*
X175566357Y-102891857D01*
X175525880Y-103034714D01*
X175525880Y-103141857D01*
X175566357Y-103284714D01*
X175606833Y-103356142D01*
X175687785Y-103427571D01*
X175809214Y-103463285D01*
X175890166Y-103463285D01*
X176011595Y-103427571D01*
X176052071Y-103391857D01*
X176052071Y-103141857D01*
X175890166Y-103141857D01*
X176416357Y-103463285D02*
X176416357Y-102713285D01*
X176902071Y-103463285D01*
X176902071Y-102713285D01*
D10*
X174498000Y-104267000D02*
X175006000Y-104267000D01*
X174498000Y-104267000D02*
X175006000Y-103759000D01*
X174498000Y-104267000D02*
X174498000Y-103759000D01*
D11*
X177599857Y-102666880D02*
X178028428Y-102666880D01*
X177814142Y-103666880D02*
X177814142Y-102666880D01*
X178707000Y-103666880D02*
X178457000Y-103190690D01*
X178278428Y-103666880D02*
X178278428Y-102666880D01*
X178564142Y-102666880D01*
X178635571Y-102714500D01*
X178671285Y-102762119D01*
X178707000Y-102857357D01*
X178707000Y-103000214D01*
X178671285Y-103095452D01*
X178635571Y-103143071D01*
X178564142Y-103190690D01*
X178278428Y-103190690D01*
X179028428Y-103666880D02*
X179028428Y-102666880D01*
X179778428Y-102714500D02*
X179707000Y-102666880D01*
X179599857Y-102666880D01*
X179492714Y-102714500D01*
X179421285Y-102809738D01*
X179385571Y-102904976D01*
X179349857Y-103095452D01*
X179349857Y-103238309D01*
X179385571Y-103428785D01*
X179421285Y-103524023D01*
X179492714Y-103619261D01*
X179599857Y-103666880D01*
X179671285Y-103666880D01*
X179778428Y-103619261D01*
X179814142Y-103571642D01*
X179814142Y-103238309D01*
X179671285Y-103238309D01*
X180528428Y-102714500D02*
X180457000Y-102666880D01*
X180349857Y-102666880D01*
X180242714Y-102714500D01*
X180171285Y-102809738D01*
X180135571Y-102904976D01*
X180099857Y-103095452D01*
X180099857Y-103238309D01*
X180135571Y-103428785D01*
X180171285Y-103524023D01*
X180242714Y-103619261D01*
X180349857Y-103666880D01*
X180421285Y-103666880D01*
X180528428Y-103619261D01*
X180564142Y-103571642D01*
X180564142Y-103238309D01*
X180421285Y-103238309D01*
X180885571Y-103143071D02*
X181135571Y-103143071D01*
X181242714Y-103666880D02*
X180885571Y-103666880D01*
X180885571Y-102666880D01*
X181242714Y-102666880D01*
X181992714Y-103666880D02*
X181742714Y-103190690D01*
X181564142Y-103666880D02*
X181564142Y-102666880D01*
X181849857Y-102666880D01*
X181921285Y-102714500D01*
X181957000Y-102762119D01*
X181992714Y-102857357D01*
X181992714Y-103000214D01*
X181957000Y-103095452D01*
X181921285Y-103143071D01*
X181849857Y-103190690D01*
X181564142Y-103190690D01*
X178046285Y-105306761D02*
X178153428Y-105354380D01*
X178332000Y-105354380D01*
X178403428Y-105306761D01*
X178439142Y-105259142D01*
X178474857Y-105163904D01*
X178474857Y-105068666D01*
X178439142Y-104973428D01*
X178403428Y-104925809D01*
X178332000Y-104878190D01*
X178189142Y-104830571D01*
X178117714Y-104782952D01*
X178082000Y-104735333D01*
X178046285Y-104640095D01*
X178046285Y-104544857D01*
X178082000Y-104449619D01*
X178117714Y-104402000D01*
X178189142Y-104354380D01*
X178367714Y-104354380D01*
X178474857Y-104402000D01*
X178796285Y-105354380D02*
X178796285Y-104354380D01*
X179546285Y-104402000D02*
X179474857Y-104354380D01*
X179367714Y-104354380D01*
X179260571Y-104402000D01*
X179189142Y-104497238D01*
X179153428Y-104592476D01*
X179117714Y-104782952D01*
X179117714Y-104925809D01*
X179153428Y-105116285D01*
X179189142Y-105211523D01*
X179260571Y-105306761D01*
X179367714Y-105354380D01*
X179439142Y-105354380D01*
X179546285Y-105306761D01*
X179582000Y-105259142D01*
X179582000Y-104925809D01*
X179439142Y-104925809D01*
X179903428Y-105354380D02*
X179903428Y-104354380D01*
X180332000Y-105354380D01*
X180332000Y-104354380D01*
X180653428Y-105068666D02*
X181010571Y-105068666D01*
X180582000Y-105354380D02*
X180832000Y-104354380D01*
X181082000Y-105354380D01*
X181689142Y-105354380D02*
X181332000Y-105354380D01*
X181332000Y-104354380D01*
X176760571Y-106946642D02*
X176724857Y-106994261D01*
X176617714Y-107041880D01*
X176546285Y-107041880D01*
X176439142Y-106994261D01*
X176367714Y-106899023D01*
X176332000Y-106803785D01*
X176296285Y-106613309D01*
X176296285Y-106470452D01*
X176332000Y-106279976D01*
X176367714Y-106184738D01*
X176439142Y-106089500D01*
X176546285Y-106041880D01*
X176617714Y-106041880D01*
X176724857Y-106089500D01*
X176760571Y-106137119D01*
X177224857Y-106041880D02*
X177367714Y-106041880D01*
X177439142Y-106089500D01*
X177510571Y-106184738D01*
X177546285Y-106375214D01*
X177546285Y-106708547D01*
X177510571Y-106899023D01*
X177439142Y-106994261D01*
X177367714Y-107041880D01*
X177224857Y-107041880D01*
X177153428Y-106994261D01*
X177082000Y-106899023D01*
X177046285Y-106708547D01*
X177046285Y-106375214D01*
X177082000Y-106184738D01*
X177153428Y-106089500D01*
X177224857Y-106041880D01*
X177867714Y-107041880D02*
X177867714Y-106041880D01*
X178296285Y-107041880D01*
X178296285Y-106041880D01*
X178653428Y-107041880D02*
X178653428Y-106041880D01*
X178832000Y-106041880D01*
X178939142Y-106089500D01*
X179010571Y-106184738D01*
X179046285Y-106279976D01*
X179082000Y-106470452D01*
X179082000Y-106613309D01*
X179046285Y-106803785D01*
X179010571Y-106899023D01*
X178939142Y-106994261D01*
X178832000Y-107041880D01*
X178653428Y-107041880D01*
X179403428Y-107041880D02*
X179403428Y-106041880D01*
X179653428Y-106041880D02*
X180082000Y-106041880D01*
X179867714Y-107041880D02*
X179867714Y-106041880D01*
X180332000Y-107041880D02*
X180332000Y-106041880D01*
X180832000Y-106041880D02*
X180974857Y-106041880D01*
X181046285Y-106089500D01*
X181117714Y-106184738D01*
X181153428Y-106375214D01*
X181153428Y-106708547D01*
X181117714Y-106899023D01*
X181046285Y-106994261D01*
X180974857Y-107041880D01*
X180832000Y-107041880D01*
X180760571Y-106994261D01*
X180689142Y-106899023D01*
X180653428Y-106708547D01*
X180653428Y-106375214D01*
X180689142Y-106184738D01*
X180760571Y-106089500D01*
X180832000Y-106041880D01*
X181474857Y-107041880D02*
X181474857Y-106041880D01*
X181903428Y-107041880D01*
X181903428Y-106041880D01*
X182260571Y-106518071D02*
X182510571Y-106518071D01*
X182617714Y-107041880D02*
X182260571Y-107041880D01*
X182260571Y-106041880D01*
X182617714Y-106041880D01*
X183367714Y-107041880D02*
X183117714Y-106565690D01*
X182939142Y-107041880D02*
X182939142Y-106041880D01*
X183224857Y-106041880D01*
X183296285Y-106089500D01*
X183332000Y-106137119D01*
X183367714Y-106232357D01*
X183367714Y-106375214D01*
X183332000Y-106470452D01*
X183296285Y-106518071D01*
X183224857Y-106565690D01*
X182939142Y-106565690D01*
X170077571Y-73034928D02*
X170199000Y-73070642D01*
X170239476Y-73106357D01*
X170279952Y-73177785D01*
X170279952Y-73284928D01*
X170239476Y-73356357D01*
X170199000Y-73392071D01*
X170118047Y-73427785D01*
X169794238Y-73427785D01*
X169794238Y-72677785D01*
X170077571Y-72677785D01*
X170158523Y-72713500D01*
X170199000Y-72749214D01*
X170239476Y-72820642D01*
X170239476Y-72892071D01*
X170199000Y-72963500D01*
X170158523Y-72999214D01*
X170077571Y-73034928D01*
X169794238Y-73034928D01*
X171049000Y-73427785D02*
X170644238Y-73427785D01*
X170644238Y-72677785D01*
X171332333Y-72677785D02*
X171332333Y-73284928D01*
X171372809Y-73356357D01*
X171413285Y-73392071D01*
X171494238Y-73427785D01*
X171656142Y-73427785D01*
X171737095Y-73392071D01*
X171777571Y-73356357D01*
X171818047Y-73284928D01*
X171818047Y-72677785D01*
X172222809Y-73034928D02*
X172506142Y-73034928D01*
X172627571Y-73427785D02*
X172222809Y-73427785D01*
X172222809Y-72677785D01*
X172627571Y-72677785D01*
X172870428Y-72677785D02*
X173356142Y-72677785D01*
X173113285Y-73427785D02*
X173113285Y-72677785D01*
X173801380Y-72677785D02*
X173963285Y-72677785D01*
X174044238Y-72713500D01*
X174125190Y-72784928D01*
X174165666Y-72927785D01*
X174165666Y-73177785D01*
X174125190Y-73320642D01*
X174044238Y-73392071D01*
X173963285Y-73427785D01*
X173801380Y-73427785D01*
X173720428Y-73392071D01*
X173639476Y-73320642D01*
X173599000Y-73177785D01*
X173599000Y-72927785D01*
X173639476Y-72784928D01*
X173720428Y-72713500D01*
X173801380Y-72677785D01*
X174691857Y-72677785D02*
X174853761Y-72677785D01*
X174934714Y-72713500D01*
X175015666Y-72784928D01*
X175056142Y-72927785D01*
X175056142Y-73177785D01*
X175015666Y-73320642D01*
X174934714Y-73392071D01*
X174853761Y-73427785D01*
X174691857Y-73427785D01*
X174610904Y-73392071D01*
X174529952Y-73320642D01*
X174489476Y-73177785D01*
X174489476Y-72927785D01*
X174529952Y-72784928D01*
X174610904Y-72713500D01*
X174691857Y-72677785D01*
X175299000Y-72677785D02*
X175784714Y-72677785D01*
X175541857Y-73427785D02*
X175541857Y-72677785D01*
X176068047Y-73427785D02*
X176068047Y-72677785D01*
X176068047Y-73034928D02*
X176553761Y-73034928D01*
X176553761Y-73427785D02*
X176553761Y-72677785D01*
X177565666Y-72642071D02*
X176837095Y-73606357D01*
X177808523Y-73392071D02*
X177929952Y-73427785D01*
X178132333Y-73427785D01*
X178213285Y-73392071D01*
X178253761Y-73356357D01*
X178294238Y-73284928D01*
X178294238Y-73213500D01*
X178253761Y-73142071D01*
X178213285Y-73106357D01*
X178132333Y-73070642D01*
X177970428Y-73034928D01*
X177889476Y-72999214D01*
X177849000Y-72963500D01*
X177808523Y-72892071D01*
X177808523Y-72820642D01*
X177849000Y-72749214D01*
X177889476Y-72713500D01*
X177970428Y-72677785D01*
X178172809Y-72677785D01*
X178294238Y-72713500D01*
X178658523Y-73034928D02*
X178941857Y-73034928D01*
X179063285Y-73427785D02*
X178658523Y-73427785D01*
X178658523Y-72677785D01*
X179063285Y-72677785D01*
X179913285Y-73427785D02*
X179629952Y-73070642D01*
X179427571Y-73427785D02*
X179427571Y-72677785D01*
X179751380Y-72677785D01*
X179832333Y-72713500D01*
X179872809Y-72749214D01*
X179913285Y-72820642D01*
X179913285Y-72927785D01*
X179872809Y-72999214D01*
X179832333Y-73034928D01*
X179751380Y-73070642D01*
X179427571Y-73070642D01*
X180277571Y-73427785D02*
X180277571Y-72677785D01*
X180641857Y-73213500D02*
X181046619Y-73213500D01*
X180560904Y-73427785D02*
X180844238Y-72677785D01*
X181127571Y-73427785D01*
X181815666Y-73427785D02*
X181410904Y-73427785D01*
X181410904Y-72677785D01*
X182260904Y-72677785D02*
X182341857Y-72677785D01*
X182422809Y-72713500D01*
X182463285Y-72749214D01*
X182503761Y-72820642D01*
X182544238Y-72963500D01*
X182544238Y-73142071D01*
X182503761Y-73284928D01*
X182463285Y-73356357D01*
X182422809Y-73392071D01*
X182341857Y-73427785D01*
X182260904Y-73427785D01*
X182179952Y-73392071D01*
X182139476Y-73356357D01*
X182099000Y-73284928D01*
X182058523Y-73142071D01*
X182058523Y-72963500D01*
X182099000Y-72820642D01*
X182139476Y-72749214D01*
X182179952Y-72713500D01*
X182260904Y-72677785D01*
X171678571Y-68689285D02*
X172107142Y-68689285D01*
X171892857Y-69439285D02*
X171892857Y-68689285D01*
X172285714Y-68689285D02*
X172785714Y-69439285D01*
X172785714Y-68689285D02*
X172285714Y-69439285D01*
X174675000Y-69439285D02*
X174425000Y-69082142D01*
X174246428Y-69439285D02*
X174246428Y-68689285D01*
X174532142Y-68689285D01*
X174603571Y-68725000D01*
X174639285Y-68760714D01*
X174675000Y-68832142D01*
X174675000Y-68939285D01*
X174639285Y-69010714D01*
X174603571Y-69046428D01*
X174532142Y-69082142D01*
X174246428Y-69082142D01*
X174925000Y-68689285D02*
X175425000Y-69439285D01*
X175425000Y-68689285D02*
X174925000Y-69439285D01*
X176778571Y-68725000D02*
X176707142Y-68689285D01*
X176600000Y-68689285D01*
X176492857Y-68725000D01*
X176421428Y-68796428D01*
X176385714Y-68867857D01*
X176350000Y-69010714D01*
X176350000Y-69117857D01*
X176385714Y-69260714D01*
X176421428Y-69332142D01*
X176492857Y-69403571D01*
X176600000Y-69439285D01*
X176671428Y-69439285D01*
X176778571Y-69403571D01*
X176814285Y-69367857D01*
X176814285Y-69117857D01*
X176671428Y-69117857D01*
X177135714Y-69439285D02*
X177135714Y-68689285D01*
X177564285Y-69439285D01*
X177564285Y-68689285D01*
X177921428Y-69439285D02*
X177921428Y-68689285D01*
X178100000Y-68689285D01*
X178207142Y-68725000D01*
X178278571Y-68796428D01*
X178314285Y-68867857D01*
X178350000Y-69010714D01*
X178350000Y-69117857D01*
X178314285Y-69260714D01*
X178278571Y-69332142D01*
X178207142Y-69403571D01*
X178100000Y-69439285D01*
X177921428Y-69439285D01*
X178885714Y-69153571D02*
X179457142Y-69153571D01*
X179171428Y-69439285D02*
X179171428Y-68867857D01*
X180171428Y-68689285D02*
X179814285Y-68689285D01*
X179778571Y-69046428D01*
X179814285Y-69010714D01*
X179885714Y-68975000D01*
X180064285Y-68975000D01*
X180135714Y-69010714D01*
X180171428Y-69046428D01*
X180207142Y-69117857D01*
X180207142Y-69296428D01*
X180171428Y-69367857D01*
X180135714Y-69403571D01*
X180064285Y-69439285D01*
X179885714Y-69439285D01*
X179814285Y-69403571D01*
X179778571Y-69367857D01*
X180421428Y-68689285D02*
X180671428Y-69439285D01*
X180921428Y-68689285D01*
D14*
X185600000Y-87000000D02*
X185600000Y-74200000D01*
D10*
X145841968Y-91349216D02*
X145295557Y-91202806D01*
X145841968Y-91349216D02*
X145695557Y-91895626D01*
X144550000Y-92100000D02*
X145841968Y-91349216D01*
D13*
X137112857Y-91782142D02*
X137112857Y-90882142D01*
X137589047Y-90882142D01*
X137708095Y-90925000D01*
X137767619Y-90967857D01*
X137827142Y-91053571D01*
X137827142Y-91182142D01*
X137767619Y-91267857D01*
X137708095Y-91310714D01*
X137589047Y-91353571D01*
X137112857Y-91353571D01*
X138243809Y-90882142D02*
X138541428Y-91782142D01*
X138779523Y-91139285D01*
X139017619Y-91782142D01*
X139315238Y-90882142D01*
X140505714Y-91782142D02*
X140089047Y-91353571D01*
X139791428Y-91782142D02*
X139791428Y-90882142D01*
X140267619Y-90882142D01*
X140386666Y-90925000D01*
X140446190Y-90967857D01*
X140505714Y-91053571D01*
X140505714Y-91182142D01*
X140446190Y-91267857D01*
X140386666Y-91310714D01*
X140267619Y-91353571D01*
X139791428Y-91353571D01*
X141815238Y-90882142D02*
X142529523Y-90882142D01*
X142172380Y-91782142D02*
X142172380Y-90882142D01*
X142886666Y-91525000D02*
X143481904Y-91525000D01*
X142767619Y-91782142D02*
X143184285Y-90882142D01*
X143600952Y-91782142D01*
X144017619Y-91782142D02*
X144017619Y-90882142D01*
X144493809Y-90882142D01*
X144612857Y-90925000D01*
X144672380Y-90967857D01*
X144731904Y-91053571D01*
X144731904Y-91182142D01*
X144672380Y-91267857D01*
X144612857Y-91310714D01*
X144493809Y-91353571D01*
X144017619Y-91353571D01*
X134374761Y-93332142D02*
X134374761Y-92432142D01*
X135089047Y-93332142D01*
X135089047Y-92432142D01*
X135922380Y-92432142D02*
X136160476Y-92432142D01*
X136279523Y-92475000D01*
X136398571Y-92560714D01*
X136458095Y-92732142D01*
X136458095Y-93032142D01*
X136398571Y-93203571D01*
X136279523Y-93289285D01*
X136160476Y-93332142D01*
X135922380Y-93332142D01*
X135803333Y-93289285D01*
X135684285Y-93203571D01*
X135624761Y-93032142D01*
X135624761Y-92732142D01*
X135684285Y-92560714D01*
X135803333Y-92475000D01*
X135922380Y-92432142D01*
X138303333Y-92432142D02*
X138303333Y-93075000D01*
X138243809Y-93203571D01*
X138124761Y-93289285D01*
X137946190Y-93332142D01*
X137827142Y-93332142D01*
X138898571Y-92432142D02*
X138898571Y-93160714D01*
X138958095Y-93246428D01*
X139017619Y-93289285D01*
X139136666Y-93332142D01*
X139374761Y-93332142D01*
X139493809Y-93289285D01*
X139553333Y-93246428D01*
X139612857Y-93160714D01*
X139612857Y-92432142D01*
X140208095Y-93332142D02*
X140208095Y-92432142D01*
X140624761Y-93075000D01*
X141041428Y-92432142D01*
X141041428Y-93332142D01*
X141636666Y-93332142D02*
X141636666Y-92432142D01*
X142112857Y-92432142D01*
X142231904Y-92475000D01*
X142291428Y-92517857D01*
X142350952Y-92603571D01*
X142350952Y-92732142D01*
X142291428Y-92817857D01*
X142231904Y-92860714D01*
X142112857Y-92903571D01*
X141636666Y-92903571D01*
X142886666Y-92860714D02*
X143303333Y-92860714D01*
X143481904Y-93332142D02*
X142886666Y-93332142D01*
X142886666Y-92432142D01*
X143481904Y-92432142D01*
X144731904Y-93332142D02*
X144315238Y-92903571D01*
X144017619Y-93332142D02*
X144017619Y-92432142D01*
X144493809Y-92432142D01*
X144612857Y-92475000D01*
X144672380Y-92517857D01*
X144731904Y-92603571D01*
X144731904Y-92732142D01*
X144672380Y-92817857D01*
X144612857Y-92860714D01*
X144493809Y-92903571D01*
X144017619Y-92903571D01*
X93068095Y-93454761D02*
X93246666Y-93502380D01*
X93544285Y-93502380D01*
X93663333Y-93454761D01*
X93722857Y-93407142D01*
X93782380Y-93311904D01*
X93782380Y-93216666D01*
X93722857Y-93121428D01*
X93663333Y-93073809D01*
X93544285Y-93026190D01*
X93306190Y-92978571D01*
X93187142Y-92930952D01*
X93127619Y-92883333D01*
X93068095Y-92788095D01*
X93068095Y-92692857D01*
X93127619Y-92597619D01*
X93187142Y-92550000D01*
X93306190Y-92502380D01*
X93603809Y-92502380D01*
X93782380Y-92550000D01*
X94139523Y-92502380D02*
X94853809Y-92502380D01*
X94496666Y-93502380D02*
X94496666Y-92502380D01*
X95270476Y-92978571D02*
X95687142Y-92978571D01*
X95865714Y-93502380D02*
X95270476Y-93502380D01*
X95270476Y-92502380D01*
X95865714Y-92502380D01*
X96401428Y-93502380D02*
X96401428Y-92502380D01*
X96877619Y-92502380D01*
X96996666Y-92550000D01*
X97056190Y-92597619D01*
X97115714Y-92692857D01*
X97115714Y-92835714D01*
X97056190Y-92930952D01*
X96996666Y-92978571D01*
X96877619Y-93026190D01*
X96401428Y-93026190D01*
X93841904Y-95107142D02*
X93782380Y-95154761D01*
X93603809Y-95202380D01*
X93484761Y-95202380D01*
X93306190Y-95154761D01*
X93187142Y-95059523D01*
X93127619Y-94964285D01*
X93068095Y-94773809D01*
X93068095Y-94630952D01*
X93127619Y-94440476D01*
X93187142Y-94345238D01*
X93306190Y-94250000D01*
X93484761Y-94202380D01*
X93603809Y-94202380D01*
X93782380Y-94250000D01*
X93841904Y-94297619D01*
X94377619Y-95202380D02*
X94377619Y-94202380D01*
X94377619Y-94678571D02*
X95091904Y-94678571D01*
X95091904Y-95202380D02*
X95091904Y-94202380D01*
X95687142Y-95202380D02*
X95687142Y-94202380D01*
X96282380Y-95202380D02*
X96282380Y-94202380D01*
X96758571Y-94202380D01*
X96877619Y-94250000D01*
X96937142Y-94297619D01*
X96996666Y-94392857D01*
X96996666Y-94535714D01*
X96937142Y-94630952D01*
X96877619Y-94678571D01*
X96758571Y-94726190D01*
X96282380Y-94726190D01*
D11*
X98864285Y-100166666D02*
X99221428Y-100166666D01*
X98792857Y-100452380D02*
X99042857Y-99452380D01*
X99292857Y-100452380D01*
X99935714Y-100452380D02*
X99507142Y-100452380D01*
X99721428Y-100452380D02*
X99721428Y-99452380D01*
X99650000Y-99595238D01*
X99578571Y-99690476D01*
X99507142Y-99738095D01*
X102096428Y-99928571D02*
X102203571Y-99976190D01*
X102239285Y-100023809D01*
X102275000Y-100119047D01*
X102275000Y-100261904D01*
X102239285Y-100357142D01*
X102203571Y-100404761D01*
X102132142Y-100452380D01*
X101846428Y-100452380D01*
X101846428Y-99452380D01*
X102096428Y-99452380D01*
X102167857Y-99500000D01*
X102203571Y-99547619D01*
X102239285Y-99642857D01*
X102239285Y-99738095D01*
X102203571Y-99833333D01*
X102167857Y-99880952D01*
X102096428Y-99928571D01*
X101846428Y-99928571D01*
X102560714Y-99547619D02*
X102596428Y-99500000D01*
X102667857Y-99452380D01*
X102846428Y-99452380D01*
X102917857Y-99500000D01*
X102953571Y-99547619D01*
X102989285Y-99642857D01*
X102989285Y-99738095D01*
X102953571Y-99880952D01*
X102525000Y-100452380D01*
X102989285Y-100452380D01*
X102096428Y-102928571D02*
X102203571Y-102976190D01*
X102239285Y-103023809D01*
X102275000Y-103119047D01*
X102275000Y-103261904D01*
X102239285Y-103357142D01*
X102203571Y-103404761D01*
X102132142Y-103452380D01*
X101846428Y-103452380D01*
X101846428Y-102452380D01*
X102096428Y-102452380D01*
X102167857Y-102500000D01*
X102203571Y-102547619D01*
X102239285Y-102642857D01*
X102239285Y-102738095D01*
X102203571Y-102833333D01*
X102167857Y-102880952D01*
X102096428Y-102928571D01*
X101846428Y-102928571D01*
X102989285Y-103452380D02*
X102560714Y-103452380D01*
X102775000Y-103452380D02*
X102775000Y-102452380D01*
X102703571Y-102595238D01*
X102632142Y-102690476D01*
X102560714Y-102738095D01*
X98864285Y-103166666D02*
X99221428Y-103166666D01*
X98792857Y-103452380D02*
X99042857Y-102452380D01*
X99292857Y-103452380D01*
X99507142Y-102547619D02*
X99542857Y-102500000D01*
X99614285Y-102452380D01*
X99792857Y-102452380D01*
X99864285Y-102500000D01*
X99900000Y-102547619D01*
X99935714Y-102642857D01*
X99935714Y-102738095D01*
X99900000Y-102880952D01*
X99471428Y-103452380D01*
X99935714Y-103452380D01*
D10*
X101100000Y-87200000D02*
X100700000Y-86800000D01*
X101100000Y-87200000D02*
X101500000Y-86800000D01*
X101100000Y-86200000D02*
X101100000Y-87200000D01*
X96587976Y-85479761D02*
X96730833Y-85527380D01*
X96968928Y-85527380D01*
X97064166Y-85479761D01*
X97111785Y-85432142D01*
X97159404Y-85336904D01*
X97159404Y-85241666D01*
X97111785Y-85146428D01*
X97064166Y-85098809D01*
X96968928Y-85051190D01*
X96778452Y-85003571D01*
X96683214Y-84955952D01*
X96635595Y-84908333D01*
X96587976Y-84813095D01*
X96587976Y-84717857D01*
X96635595Y-84622619D01*
X96683214Y-84575000D01*
X96778452Y-84527380D01*
X97016547Y-84527380D01*
X97159404Y-84575000D01*
X97587976Y-85527380D02*
X97587976Y-84527380D01*
X97921309Y-85241666D01*
X98254642Y-84527380D01*
X98254642Y-85527380D01*
X98730833Y-85527380D02*
X98730833Y-84527380D01*
X98968928Y-84527380D01*
X99111785Y-84575000D01*
X99207023Y-84670238D01*
X99254642Y-84765476D01*
X99302261Y-84955952D01*
X99302261Y-85098809D01*
X99254642Y-85289285D01*
X99207023Y-85384523D01*
X99111785Y-85479761D01*
X98968928Y-85527380D01*
X98730833Y-85527380D01*
X100492738Y-85527380D02*
X100492738Y-84527380D01*
X100826071Y-85241666D01*
X101159404Y-84527380D01*
X101159404Y-85527380D01*
X101587976Y-85241666D02*
X102064166Y-85241666D01*
X101492738Y-85527380D02*
X101826071Y-84527380D01*
X102159404Y-85527380D01*
X102492738Y-85527380D02*
X102492738Y-84527380D01*
X102873690Y-84527380D01*
X102968928Y-84575000D01*
X103016547Y-84622619D01*
X103064166Y-84717857D01*
X103064166Y-84860714D01*
X103016547Y-84955952D01*
X102968928Y-85003571D01*
X102873690Y-85051190D01*
X102492738Y-85051190D01*
X96826071Y-86177380D02*
X97016547Y-86177380D01*
X97111785Y-86225000D01*
X97207023Y-86320238D01*
X97254642Y-86510714D01*
X97254642Y-86844047D01*
X97207023Y-87034523D01*
X97111785Y-87129761D01*
X97016547Y-87177380D01*
X96826071Y-87177380D01*
X96730833Y-87129761D01*
X96635595Y-87034523D01*
X96587976Y-86844047D01*
X96587976Y-86510714D01*
X96635595Y-86320238D01*
X96730833Y-86225000D01*
X96826071Y-86177380D01*
X97683214Y-87177380D02*
X97683214Y-86177380D01*
X98254642Y-87177380D01*
X98254642Y-86177380D01*
X99207023Y-87177380D02*
X98730833Y-87177380D01*
X98730833Y-86177380D01*
X99730833Y-86701190D02*
X99730833Y-87177380D01*
X99397500Y-86177380D02*
X99730833Y-86701190D01*
X100064166Y-86177380D01*
D15*
X190600000Y-90500000D02*
X190600000Y-73000000D01*
X189865000Y-90500000D02*
X190600000Y-90500000D01*
X190600000Y-90800000D02*
X190600000Y-109700000D01*
X189865000Y-90800000D02*
X190600000Y-90800000D01*
D11*
X146971428Y-92564285D02*
X146971428Y-91992857D01*
X147352380Y-92278571D02*
X146590476Y-92278571D01*
X146352380Y-91278571D02*
X146352380Y-91635714D01*
X146828571Y-91671428D01*
X146780952Y-91635714D01*
X146733333Y-91564285D01*
X146733333Y-91385714D01*
X146780952Y-91314285D01*
X146828571Y-91278571D01*
X146923809Y-91242857D01*
X147161904Y-91242857D01*
X147257142Y-91278571D01*
X147304761Y-91314285D01*
X147352380Y-91385714D01*
X147352380Y-91564285D01*
X147304761Y-91635714D01*
X147257142Y-91671428D01*
X146352380Y-91028571D02*
X147352380Y-90778571D01*
X146352380Y-90528571D01*
X146971428Y-85321428D02*
X146971428Y-84750000D01*
X147352380Y-85035714D02*
X146590476Y-85035714D01*
X147352380Y-84000000D02*
X147352380Y-84428571D01*
X147352380Y-84214285D02*
X146352380Y-84214285D01*
X146495238Y-84285714D01*
X146590476Y-84357142D01*
X146638095Y-84428571D01*
X146447619Y-83714285D02*
X146400000Y-83678571D01*
X146352380Y-83607142D01*
X146352380Y-83428571D01*
X146400000Y-83357142D01*
X146447619Y-83321428D01*
X146542857Y-83285714D01*
X146638095Y-83285714D01*
X146780952Y-83321428D01*
X147352380Y-83750000D01*
X147352380Y-83285714D01*
X146352380Y-83071428D02*
X147352380Y-82821428D01*
X146352380Y-82571428D01*
D12*
X184150000Y-110180952D02*
X184126190Y-110228571D01*
X184126190Y-110300000D01*
X184150000Y-110371428D01*
X184197619Y-110419047D01*
X184245238Y-110442857D01*
X184340476Y-110466666D01*
X184411904Y-110466666D01*
X184507142Y-110442857D01*
X184554761Y-110419047D01*
X184602380Y-110371428D01*
X184626190Y-110300000D01*
X184626190Y-110252380D01*
X184602380Y-110180952D01*
X184578571Y-110157142D01*
X184411904Y-110157142D01*
X184411904Y-110252380D01*
X184626190Y-109942857D02*
X184126190Y-109942857D01*
X184626190Y-109657142D01*
X184126190Y-109657142D01*
X184626190Y-109419047D02*
X184126190Y-109419047D01*
X184126190Y-109300000D01*
X184150000Y-109228571D01*
X184197619Y-109180952D01*
X184245238Y-109157142D01*
X184340476Y-109133333D01*
X184411904Y-109133333D01*
X184507142Y-109157142D01*
X184554761Y-109180952D01*
X184602380Y-109228571D01*
X184626190Y-109300000D01*
X184626190Y-109419047D01*
X186935714Y-67242857D02*
X186935714Y-66861904D01*
X187126190Y-67052380D02*
X186745238Y-67052380D01*
X186626190Y-66385714D02*
X186626190Y-66623809D01*
X186864285Y-66647619D01*
X186840476Y-66623809D01*
X186816666Y-66576190D01*
X186816666Y-66457142D01*
X186840476Y-66409523D01*
X186864285Y-66385714D01*
X186911904Y-66361904D01*
X187030952Y-66361904D01*
X187078571Y-66385714D01*
X187102380Y-66409523D01*
X187126190Y-66457142D01*
X187126190Y-66576190D01*
X187102380Y-66623809D01*
X187078571Y-66647619D01*
X186626190Y-66219047D02*
X187126190Y-66052380D01*
X186626190Y-65885714D01*
D16*
X175500000Y-66600000D02*
X178000000Y-66600000D01*
X157647000Y-114935000D02*
X160147000Y-114935000D01*
X147500000Y-66600000D02*
X155100000Y-66600000D01*
X160200000Y-66600000D02*
X167800000Y-66600000D01*
D17*
X120900000Y-92300000D02*
X122500000Y-92300000D01*
X120900000Y-97700000D02*
X120900000Y-92300000D01*
X132800000Y-97700000D02*
X120900000Y-97700000D01*
X132800000Y-92300000D02*
X132800000Y-97700000D01*
X131000000Y-92300000D02*
X132800000Y-92300000D01*
X123085714Y-93078571D02*
X123085714Y-91578571D01*
X123657142Y-91578571D01*
X123800000Y-91650000D01*
X123871428Y-91721428D01*
X123942857Y-91864285D01*
X123942857Y-92078571D01*
X123871428Y-92221428D01*
X123800000Y-92292857D01*
X123657142Y-92364285D01*
X123085714Y-92364285D01*
X124442857Y-91578571D02*
X124800000Y-93078571D01*
X125085714Y-92007142D01*
X125371428Y-93078571D01*
X125728571Y-91578571D01*
X127157142Y-93078571D02*
X126657142Y-92364285D01*
X126300000Y-93078571D02*
X126300000Y-91578571D01*
X126871428Y-91578571D01*
X127014285Y-91650000D01*
X127085714Y-91721428D01*
X127157142Y-91864285D01*
X127157142Y-92078571D01*
X127085714Y-92221428D01*
X127014285Y-92292857D01*
X126871428Y-92364285D01*
X126300000Y-92364285D01*
X128942857Y-93078571D02*
X128942857Y-91578571D01*
X129657142Y-93078571D02*
X129657142Y-91578571D01*
X130514285Y-93078571D01*
X130514285Y-91578571D01*
D12*
X127580952Y-64996190D02*
X127342857Y-64996190D01*
X127342857Y-64496190D01*
X127747619Y-64996190D02*
X127747619Y-64496190D01*
X128033333Y-64996190D01*
X128033333Y-64496190D01*
X128557142Y-64948571D02*
X128533333Y-64972380D01*
X128461904Y-64996190D01*
X128414285Y-64996190D01*
X128342857Y-64972380D01*
X128295238Y-64924761D01*
X128271428Y-64877142D01*
X128247619Y-64781904D01*
X128247619Y-64710476D01*
X128271428Y-64615238D01*
X128295238Y-64567619D01*
X128342857Y-64520000D01*
X128414285Y-64496190D01*
X128461904Y-64496190D01*
X128533333Y-64520000D01*
X128557142Y-64543809D01*
X128771428Y-64996190D02*
X128771428Y-64496190D01*
X128771428Y-64734285D02*
X129057142Y-64734285D01*
X129057142Y-64996190D02*
X129057142Y-64496190D01*
X184435714Y-67242857D02*
X184435714Y-66861904D01*
X184626190Y-67052380D02*
X184245238Y-67052380D01*
X184126190Y-66385714D02*
X184126190Y-66623809D01*
X184364285Y-66647619D01*
X184340476Y-66623809D01*
X184316666Y-66576190D01*
X184316666Y-66457142D01*
X184340476Y-66409523D01*
X184364285Y-66385714D01*
X184411904Y-66361904D01*
X184530952Y-66361904D01*
X184578571Y-66385714D01*
X184602380Y-66409523D01*
X184626190Y-66457142D01*
X184626190Y-66576190D01*
X184602380Y-66623809D01*
X184578571Y-66647619D01*
X184126190Y-66219047D02*
X184626190Y-66052380D01*
X184126190Y-65885714D01*
D11*
X110027980Y-86417428D02*
X109027980Y-86417428D01*
X109742266Y-86167428D01*
X109027980Y-85917428D01*
X110027980Y-85917428D01*
X109742266Y-85596000D02*
X109742266Y-85238857D01*
X110027980Y-85667428D02*
X109027980Y-85417428D01*
X110027980Y-85167428D01*
X110027980Y-84917428D02*
X109027980Y-84917428D01*
X109027980Y-84631714D01*
X109075600Y-84560285D01*
X109123219Y-84524571D01*
X109218457Y-84488857D01*
X109361314Y-84488857D01*
X109456552Y-84524571D01*
X109504171Y-84560285D01*
X109551790Y-84631714D01*
X109551790Y-84917428D01*
X109604171Y-82619885D02*
X109604171Y-83191314D01*
X109647028Y-81431485D02*
X109647028Y-80860057D01*
X110027980Y-81145771D02*
X109266076Y-81145771D01*
X109027980Y-80145771D02*
X109027980Y-80502914D01*
X109504171Y-80538628D01*
X109456552Y-80502914D01*
X109408933Y-80431485D01*
X109408933Y-80252914D01*
X109456552Y-80181485D01*
X109504171Y-80145771D01*
X109599409Y-80110057D01*
X109837504Y-80110057D01*
X109932742Y-80145771D01*
X109980361Y-80181485D01*
X110027980Y-80252914D01*
X110027980Y-80431485D01*
X109980361Y-80502914D01*
X109932742Y-80538628D01*
X109027980Y-79895771D02*
X110027980Y-79645771D01*
X109027980Y-79395771D01*
X121499428Y-101226880D02*
X121142285Y-101226880D01*
X121142285Y-100226880D01*
X121749428Y-101226880D02*
X121749428Y-100226880D01*
X122178000Y-101226880D01*
X122178000Y-100226880D01*
X122963714Y-101131642D02*
X122928000Y-101179261D01*
X122820857Y-101226880D01*
X122749428Y-101226880D01*
X122642285Y-101179261D01*
X122570857Y-101084023D01*
X122535142Y-100988785D01*
X122499428Y-100798309D01*
X122499428Y-100655452D01*
X122535142Y-100464976D01*
X122570857Y-100369738D01*
X122642285Y-100274500D01*
X122749428Y-100226880D01*
X122820857Y-100226880D01*
X122928000Y-100274500D01*
X122963714Y-100322119D01*
X123285142Y-101226880D02*
X123285142Y-100226880D01*
X123285142Y-100703071D02*
X123713714Y-100703071D01*
X123713714Y-101226880D02*
X123713714Y-100226880D01*
X154323071Y-100226880D02*
X154751642Y-100226880D01*
X154537357Y-101226880D02*
X154537357Y-100226880D01*
X154965928Y-100941166D02*
X155323071Y-100941166D01*
X154894500Y-101226880D02*
X155144500Y-100226880D01*
X155394500Y-101226880D01*
X156073071Y-101131642D02*
X156037357Y-101179261D01*
X155930214Y-101226880D01*
X155858785Y-101226880D01*
X155751642Y-101179261D01*
X155680214Y-101084023D01*
X155644500Y-100988785D01*
X155608785Y-100798309D01*
X155608785Y-100655452D01*
X155644500Y-100464976D01*
X155680214Y-100369738D01*
X155751642Y-100274500D01*
X155858785Y-100226880D01*
X155930214Y-100226880D01*
X156037357Y-100274500D01*
X156073071Y-100322119D01*
X156394500Y-101226880D02*
X156394500Y-100226880D01*
X156394500Y-100703071D02*
X156823071Y-100703071D01*
X156823071Y-101226880D02*
X156823071Y-100226880D01*
X157323071Y-100226880D02*
X157465928Y-100226880D01*
X157537357Y-100274500D01*
X157608785Y-100369738D01*
X157644500Y-100560214D01*
X157644500Y-100893547D01*
X157608785Y-101084023D01*
X157537357Y-101179261D01*
X157465928Y-101226880D01*
X157323071Y-101226880D01*
X157251642Y-101179261D01*
X157180214Y-101084023D01*
X157144500Y-100893547D01*
X157144500Y-100560214D01*
X157180214Y-100369738D01*
X157251642Y-100274500D01*
X157323071Y-100226880D01*
X145216714Y-101226880D02*
X145216714Y-100226880D01*
X145502428Y-100226880D01*
X145573857Y-100274500D01*
X145609571Y-100322119D01*
X145645285Y-100417357D01*
X145645285Y-100560214D01*
X145609571Y-100655452D01*
X145573857Y-100703071D01*
X145502428Y-100750690D01*
X145216714Y-100750690D01*
X146395285Y-101226880D02*
X146145285Y-100750690D01*
X145966714Y-101226880D02*
X145966714Y-100226880D01*
X146252428Y-100226880D01*
X146323857Y-100274500D01*
X146359571Y-100322119D01*
X146395285Y-100417357D01*
X146395285Y-100560214D01*
X146359571Y-100655452D01*
X146323857Y-100703071D01*
X146252428Y-100750690D01*
X145966714Y-100750690D01*
X146716714Y-101226880D02*
X146716714Y-100226880D01*
X147073857Y-100845928D02*
X147645285Y-100845928D01*
D15*
X110285714Y-67694642D02*
X110952380Y-67456547D01*
X110285714Y-67218452D01*
X110952380Y-66837500D02*
X109952380Y-66837500D01*
X109952380Y-66599404D01*
X110000000Y-66456547D01*
X110095238Y-66361309D01*
X110190476Y-66313690D01*
X110380952Y-66266071D01*
X110523809Y-66266071D01*
X110714285Y-66313690D01*
X110809523Y-66361309D01*
X110904761Y-66456547D01*
X110952380Y-66599404D01*
X110952380Y-66837500D01*
X110952380Y-65313690D02*
X110952380Y-65885119D01*
X110952380Y-65599404D02*
X109952380Y-65599404D01*
X110095238Y-65694642D01*
X110190476Y-65789880D01*
X110238095Y-65885119D01*
D10*
X91838095Y-77033380D02*
X91838095Y-76033380D01*
X92171428Y-76747666D01*
X92504761Y-76033380D01*
X92504761Y-77033380D01*
X92980952Y-77033380D02*
X92980952Y-76033380D01*
X93361904Y-76033380D01*
X93457142Y-76081000D01*
X93504761Y-76128619D01*
X93552380Y-76223857D01*
X93552380Y-76366714D01*
X93504761Y-76461952D01*
X93457142Y-76509571D01*
X93361904Y-76557190D01*
X92980952Y-76557190D01*
X93885714Y-76033380D02*
X94552380Y-77033380D01*
X94552380Y-76033380D02*
X93885714Y-77033380D01*
X95361904Y-76366714D02*
X95361904Y-77033380D01*
X95123809Y-75985761D02*
X94885714Y-76700047D01*
X95504761Y-76700047D01*
X95790476Y-77033380D02*
X96314285Y-76366714D01*
X95790476Y-76366714D02*
X96314285Y-77033380D01*
X96600000Y-77033380D02*
X97123809Y-76366714D01*
X96600000Y-76366714D02*
X97123809Y-77033380D01*
X97409523Y-77033380D02*
X97933333Y-76366714D01*
X97409523Y-76366714D02*
X97933333Y-77033380D01*
X98266666Y-76747666D02*
X98742857Y-76747666D01*
X98171428Y-77033380D02*
X98504761Y-76033380D01*
X98838095Y-77033380D01*
X99171428Y-77033380D02*
X99171428Y-76033380D01*
X99552380Y-76033380D01*
X99647619Y-76081000D01*
X99695238Y-76128619D01*
X99742857Y-76223857D01*
X99742857Y-76366714D01*
X99695238Y-76461952D01*
X99647619Y-76509571D01*
X99552380Y-76557190D01*
X99171428Y-76557190D01*
X100885714Y-76985761D02*
X101028571Y-77033380D01*
X101266666Y-77033380D01*
X101361904Y-76985761D01*
X101409523Y-76938142D01*
X101457142Y-76842904D01*
X101457142Y-76747666D01*
X101409523Y-76652428D01*
X101361904Y-76604809D01*
X101266666Y-76557190D01*
X101076190Y-76509571D01*
X100980952Y-76461952D01*
X100933333Y-76414333D01*
X100885714Y-76319095D01*
X100885714Y-76223857D01*
X100933333Y-76128619D01*
X100980952Y-76081000D01*
X101076190Y-76033380D01*
X101314285Y-76033380D01*
X101457142Y-76081000D01*
X101885714Y-76509571D02*
X102219047Y-76509571D01*
X102361904Y-77033380D02*
X101885714Y-77033380D01*
X101885714Y-76033380D01*
X102361904Y-76033380D01*
X102790476Y-77033380D02*
X102790476Y-76033380D01*
X103361904Y-77033380D01*
X103361904Y-76033380D01*
X103790476Y-76985761D02*
X103933333Y-77033380D01*
X104171428Y-77033380D01*
X104266666Y-76985761D01*
X104314285Y-76938142D01*
X104361904Y-76842904D01*
X104361904Y-76747666D01*
X104314285Y-76652428D01*
X104266666Y-76604809D01*
X104171428Y-76557190D01*
X103980952Y-76509571D01*
X103885714Y-76461952D01*
X103838095Y-76414333D01*
X103790476Y-76319095D01*
X103790476Y-76223857D01*
X103838095Y-76128619D01*
X103885714Y-76081000D01*
X103980952Y-76033380D01*
X104219047Y-76033380D01*
X104361904Y-76081000D01*
X104980952Y-76033380D02*
X105171428Y-76033380D01*
X105266666Y-76081000D01*
X105361904Y-76176238D01*
X105409523Y-76366714D01*
X105409523Y-76700047D01*
X105361904Y-76890523D01*
X105266666Y-76985761D01*
X105171428Y-77033380D01*
X104980952Y-77033380D01*
X104885714Y-76985761D01*
X104790476Y-76890523D01*
X104742857Y-76700047D01*
X104742857Y-76366714D01*
X104790476Y-76176238D01*
X104885714Y-76081000D01*
X104980952Y-76033380D01*
X106409523Y-77033380D02*
X106076190Y-76557190D01*
X105838095Y-77033380D02*
X105838095Y-76033380D01*
X106219047Y-76033380D01*
X106314285Y-76081000D01*
X106361904Y-76128619D01*
X106409523Y-76223857D01*
X106409523Y-76366714D01*
X106361904Y-76461952D01*
X106314285Y-76509571D01*
X106219047Y-76557190D01*
X105838095Y-76557190D01*
D12*
X184053990Y-90462752D02*
X184053990Y-90177038D01*
X184553990Y-90319895D02*
X184053990Y-90319895D01*
X184411133Y-90034180D02*
X184411133Y-89796085D01*
X184553990Y-90081800D02*
X184053990Y-89915133D01*
X184553990Y-89748466D01*
X184506371Y-89296085D02*
X184530180Y-89319895D01*
X184553990Y-89391323D01*
X184553990Y-89438942D01*
X184530180Y-89510371D01*
X184482561Y-89557990D01*
X184434942Y-89581800D01*
X184339704Y-89605609D01*
X184268276Y-89605609D01*
X184173038Y-89581800D01*
X184125419Y-89557990D01*
X184077800Y-89510371D01*
X184053990Y-89438942D01*
X184053990Y-89391323D01*
X184077800Y-89319895D01*
X184101609Y-89296085D01*
X184553990Y-89081800D02*
X184053990Y-89081800D01*
X184292085Y-89081800D02*
X184292085Y-88796085D01*
X184553990Y-88796085D02*
X184053990Y-88796085D01*
X184053990Y-88462752D02*
X184053990Y-88367514D01*
X184077800Y-88319895D01*
X184125419Y-88272276D01*
X184220657Y-88248466D01*
X184387323Y-88248466D01*
X184482561Y-88272276D01*
X184530180Y-88319895D01*
X184553990Y-88367514D01*
X184553990Y-88462752D01*
X184530180Y-88510371D01*
X184482561Y-88557990D01*
X184387323Y-88581800D01*
X184220657Y-88581800D01*
X184125419Y-88557990D01*
X184077800Y-88510371D01*
X184053990Y-88462752D01*
D11*
X146124000Y-77096880D02*
X146124000Y-76096880D01*
X146874000Y-76144500D02*
X146802571Y-76096880D01*
X146695428Y-76096880D01*
X146588285Y-76144500D01*
X146516857Y-76239738D01*
X146481142Y-76334976D01*
X146445428Y-76525452D01*
X146445428Y-76668309D01*
X146481142Y-76858785D01*
X146516857Y-76954023D01*
X146588285Y-77049261D01*
X146695428Y-77096880D01*
X146766857Y-77096880D01*
X146874000Y-77049261D01*
X146909714Y-77001642D01*
X146909714Y-76668309D01*
X146766857Y-76668309D01*
X147231142Y-77096880D02*
X147231142Y-76096880D01*
X147659714Y-77096880D01*
X147659714Y-76096880D01*
X148016857Y-77096880D02*
X148016857Y-76096880D01*
X148266857Y-76096880D02*
X148695428Y-76096880D01*
X148481142Y-77096880D02*
X148481142Y-76096880D01*
X149088285Y-76096880D02*
X149231142Y-76096880D01*
X149302571Y-76144500D01*
X149374000Y-76239738D01*
X149409714Y-76430214D01*
X149409714Y-76763547D01*
X149374000Y-76954023D01*
X149302571Y-77049261D01*
X149231142Y-77096880D01*
X149088285Y-77096880D01*
X149016857Y-77049261D01*
X148945428Y-76954023D01*
X148909714Y-76763547D01*
X148909714Y-76430214D01*
X148945428Y-76239738D01*
X149016857Y-76144500D01*
X149088285Y-76096880D01*
X150159714Y-77096880D02*
X149909714Y-76620690D01*
X149731142Y-77096880D02*
X149731142Y-76096880D01*
X150016857Y-76096880D01*
X150088285Y-76144500D01*
X150124000Y-76192119D01*
X150159714Y-76287357D01*
X150159714Y-76430214D01*
X150124000Y-76525452D01*
X150088285Y-76573071D01*
X150016857Y-76620690D01*
X149731142Y-76620690D01*
X150945428Y-76096880D02*
X151195428Y-77096880D01*
X151445428Y-76096880D01*
X151838285Y-76096880D02*
X151981142Y-76096880D01*
X152052571Y-76144500D01*
X152124000Y-76239738D01*
X152159714Y-76430214D01*
X152159714Y-76763547D01*
X152124000Y-76954023D01*
X152052571Y-77049261D01*
X151981142Y-77096880D01*
X151838285Y-77096880D01*
X151766857Y-77049261D01*
X151695428Y-76954023D01*
X151659714Y-76763547D01*
X151659714Y-76430214D01*
X151695428Y-76239738D01*
X151766857Y-76144500D01*
X151838285Y-76096880D01*
X152838285Y-77096880D02*
X152481142Y-77096880D01*
X152481142Y-76096880D01*
X152981142Y-76096880D02*
X153409714Y-76096880D01*
X153195428Y-77096880D02*
X153195428Y-76096880D01*
X153624000Y-76811166D02*
X153981142Y-76811166D01*
X153552571Y-77096880D02*
X153802571Y-76096880D01*
X154052571Y-77096880D01*
X154695428Y-76144500D02*
X154624000Y-76096880D01*
X154516857Y-76096880D01*
X154409714Y-76144500D01*
X154338285Y-76239738D01*
X154302571Y-76334976D01*
X154266857Y-76525452D01*
X154266857Y-76668309D01*
X154302571Y-76858785D01*
X154338285Y-76954023D01*
X154409714Y-77049261D01*
X154516857Y-77096880D01*
X154588285Y-77096880D01*
X154695428Y-77049261D01*
X154731142Y-77001642D01*
X154731142Y-76668309D01*
X154588285Y-76668309D01*
X155052571Y-76573071D02*
X155302571Y-76573071D01*
X155409714Y-77096880D02*
X155052571Y-77096880D01*
X155052571Y-76096880D01*
X155409714Y-76096880D01*
D12*
X117157547Y-64393000D02*
X117109928Y-64369190D01*
X117038500Y-64369190D01*
X116967071Y-64393000D01*
X116919452Y-64440619D01*
X116895642Y-64488238D01*
X116871833Y-64583476D01*
X116871833Y-64654904D01*
X116895642Y-64750142D01*
X116919452Y-64797761D01*
X116967071Y-64845380D01*
X117038500Y-64869190D01*
X117086119Y-64869190D01*
X117157547Y-64845380D01*
X117181357Y-64821571D01*
X117181357Y-64654904D01*
X117086119Y-64654904D01*
X117395642Y-64869190D02*
X117395642Y-64369190D01*
X117681357Y-64869190D01*
X117681357Y-64369190D01*
X117919452Y-64869190D02*
X117919452Y-64369190D01*
X118038500Y-64369190D01*
X118109928Y-64393000D01*
X118157547Y-64440619D01*
X118181357Y-64488238D01*
X118205166Y-64583476D01*
X118205166Y-64654904D01*
X118181357Y-64750142D01*
X118157547Y-64797761D01*
X118109928Y-64845380D01*
X118038500Y-64869190D01*
X117919452Y-64869190D01*
X186650000Y-110180952D02*
X186626190Y-110228571D01*
X186626190Y-110300000D01*
X186650000Y-110371428D01*
X186697619Y-110419047D01*
X186745238Y-110442857D01*
X186840476Y-110466666D01*
X186911904Y-110466666D01*
X187007142Y-110442857D01*
X187054761Y-110419047D01*
X187102380Y-110371428D01*
X187126190Y-110300000D01*
X187126190Y-110252380D01*
X187102380Y-110180952D01*
X187078571Y-110157142D01*
X186911904Y-110157142D01*
X186911904Y-110252380D01*
X187126190Y-109942857D02*
X186626190Y-109942857D01*
X187126190Y-109657142D01*
X186626190Y-109657142D01*
X187126190Y-109419047D02*
X186626190Y-109419047D01*
X186626190Y-109300000D01*
X186650000Y-109228571D01*
X186697619Y-109180952D01*
X186745238Y-109157142D01*
X186840476Y-109133333D01*
X186911904Y-109133333D01*
X187007142Y-109157142D01*
X187054761Y-109180952D01*
X187102380Y-109228571D01*
X187126190Y-109300000D01*
X187126190Y-109419047D01*
X134419047Y-116450000D02*
X134371428Y-116426190D01*
X134300000Y-116426190D01*
X134228571Y-116450000D01*
X134180952Y-116497619D01*
X134157142Y-116545238D01*
X134133333Y-116640476D01*
X134133333Y-116711904D01*
X134157142Y-116807142D01*
X134180952Y-116854761D01*
X134228571Y-116902380D01*
X134300000Y-116926190D01*
X134347619Y-116926190D01*
X134419047Y-116902380D01*
X134442857Y-116878571D01*
X134442857Y-116711904D01*
X134347619Y-116711904D01*
X134657142Y-116926190D02*
X134657142Y-116426190D01*
X134942857Y-116926190D01*
X134942857Y-116426190D01*
X135180952Y-116926190D02*
X135180952Y-116426190D01*
X135300000Y-116426190D01*
X135371428Y-116450000D01*
X135419047Y-116497619D01*
X135442857Y-116545238D01*
X135466666Y-116640476D01*
X135466666Y-116711904D01*
X135442857Y-116807142D01*
X135419047Y-116854761D01*
X135371428Y-116902380D01*
X135300000Y-116926190D01*
X135180952Y-116926190D01*
X131919047Y-116450000D02*
X131871428Y-116426190D01*
X131800000Y-116426190D01*
X131728571Y-116450000D01*
X131680952Y-116497619D01*
X131657142Y-116545238D01*
X131633333Y-116640476D01*
X131633333Y-116711904D01*
X131657142Y-116807142D01*
X131680952Y-116854761D01*
X131728571Y-116902380D01*
X131800000Y-116926190D01*
X131847619Y-116926190D01*
X131919047Y-116902380D01*
X131942857Y-116878571D01*
X131942857Y-116711904D01*
X131847619Y-116711904D01*
X132157142Y-116926190D02*
X132157142Y-116426190D01*
X132442857Y-116926190D01*
X132442857Y-116426190D01*
X132680952Y-116926190D02*
X132680952Y-116426190D01*
X132800000Y-116426190D01*
X132871428Y-116450000D01*
X132919047Y-116497619D01*
X132942857Y-116545238D01*
X132966666Y-116640476D01*
X132966666Y-116711904D01*
X132942857Y-116807142D01*
X132919047Y-116854761D01*
X132871428Y-116902380D01*
X132800000Y-116926190D01*
X132680952Y-116926190D01*
X126580952Y-116426190D02*
X126890476Y-116426190D01*
X126723809Y-116616666D01*
X126795238Y-116616666D01*
X126842857Y-116640476D01*
X126866666Y-116664285D01*
X126890476Y-116711904D01*
X126890476Y-116830952D01*
X126866666Y-116878571D01*
X126842857Y-116902380D01*
X126795238Y-116926190D01*
X126652380Y-116926190D01*
X126604761Y-116902380D01*
X126580952Y-116878571D01*
X127033333Y-116426190D02*
X127200000Y-116926190D01*
X127366666Y-116426190D01*
X127485714Y-116426190D02*
X127795238Y-116426190D01*
X127628571Y-116616666D01*
X127700000Y-116616666D01*
X127747619Y-116640476D01*
X127771428Y-116664285D01*
X127795238Y-116711904D01*
X127795238Y-116830952D01*
X127771428Y-116878571D01*
X127747619Y-116902380D01*
X127700000Y-116926190D01*
X127557142Y-116926190D01*
X127509523Y-116902380D01*
X127485714Y-116878571D01*
X124376190Y-116926190D02*
X124209523Y-116688095D01*
X124090476Y-116926190D02*
X124090476Y-116426190D01*
X124280952Y-116426190D01*
X124328571Y-116450000D01*
X124352380Y-116473809D01*
X124376190Y-116521428D01*
X124376190Y-116592857D01*
X124352380Y-116640476D01*
X124328571Y-116664285D01*
X124280952Y-116688095D01*
X124090476Y-116688095D01*
X124566666Y-116902380D02*
X124638095Y-116926190D01*
X124757142Y-116926190D01*
X124804761Y-116902380D01*
X124828571Y-116878571D01*
X124852380Y-116830952D01*
X124852380Y-116783333D01*
X124828571Y-116735714D01*
X124804761Y-116711904D01*
X124757142Y-116688095D01*
X124661904Y-116664285D01*
X124614285Y-116640476D01*
X124590476Y-116616666D01*
X124566666Y-116569047D01*
X124566666Y-116521428D01*
X124590476Y-116473809D01*
X124614285Y-116450000D01*
X124661904Y-116426190D01*
X124780952Y-116426190D01*
X124852380Y-116450000D01*
X124995238Y-116426190D02*
X125280952Y-116426190D01*
X125138095Y-116926190D02*
X125138095Y-116426190D01*
X129107142Y-116735714D02*
X129488095Y-116735714D01*
X129297619Y-116926190D02*
X129297619Y-116545238D01*
X129964285Y-116426190D02*
X129726190Y-116426190D01*
X129702380Y-116664285D01*
X129726190Y-116640476D01*
X129773809Y-116616666D01*
X129892857Y-116616666D01*
X129940476Y-116640476D01*
X129964285Y-116664285D01*
X129988095Y-116711904D01*
X129988095Y-116830952D01*
X129964285Y-116878571D01*
X129940476Y-116902380D01*
X129892857Y-116926190D01*
X129773809Y-116926190D01*
X129726190Y-116902380D01*
X129702380Y-116878571D01*
X130130952Y-116426190D02*
X130297619Y-116926190D01*
X130464285Y-116426190D01*
X186882885Y-75052928D02*
X186882885Y-74886261D01*
X187144790Y-74814833D02*
X187144790Y-75052928D01*
X186644790Y-75052928D01*
X186644790Y-74814833D01*
X187144790Y-74600547D02*
X186644790Y-74600547D01*
X187144790Y-74314833D01*
X186644790Y-74314833D01*
X186882885Y-73910071D02*
X186906695Y-73838642D01*
X186930504Y-73814833D01*
X186978123Y-73791023D01*
X187049552Y-73791023D01*
X187097171Y-73814833D01*
X187120980Y-73838642D01*
X187144790Y-73886261D01*
X187144790Y-74076738D01*
X186644790Y-74076738D01*
X186644790Y-73910071D01*
X186668600Y-73862452D01*
X186692409Y-73838642D01*
X186740028Y-73814833D01*
X186787647Y-73814833D01*
X186835266Y-73838642D01*
X186859076Y-73862452D01*
X186882885Y-73910071D01*
X186882885Y-74076738D01*
X187144790Y-73338642D02*
X187144790Y-73576738D01*
X186644790Y-73576738D01*
D15*
X108557738Y-111252380D02*
X109129166Y-111252380D01*
X108843452Y-112252380D02*
X108843452Y-111252380D01*
X109414880Y-111966666D02*
X109891071Y-111966666D01*
X109319642Y-112252380D02*
X109652976Y-111252380D01*
X109986309Y-112252380D01*
X110319642Y-112252380D02*
X110319642Y-111252380D01*
X110700595Y-111252380D01*
X110795833Y-111300000D01*
X110843452Y-111347619D01*
X110891071Y-111442857D01*
X110891071Y-111585714D01*
X110843452Y-111680952D01*
X110795833Y-111728571D01*
X110700595Y-111776190D01*
X110319642Y-111776190D01*
X111891071Y-112252380D02*
X111557738Y-111776190D01*
X111319642Y-112252380D02*
X111319642Y-111252380D01*
X111700595Y-111252380D01*
X111795833Y-111300000D01*
X111843452Y-111347619D01*
X111891071Y-111442857D01*
X111891071Y-111585714D01*
X111843452Y-111680952D01*
X111795833Y-111728571D01*
X111700595Y-111776190D01*
X111319642Y-111776190D01*
X113605357Y-112252380D02*
X113033928Y-112252380D01*
X113319642Y-112252380D02*
X113319642Y-111252380D01*
X113224404Y-111395238D01*
X113129166Y-111490476D01*
X113033928Y-111538095D01*
X114033928Y-112157142D02*
X114081547Y-112204761D01*
X114033928Y-112252380D01*
X113986309Y-112204761D01*
X114033928Y-112157142D01*
X114033928Y-112252380D01*
X114700595Y-111252380D02*
X114795833Y-111252380D01*
X114891071Y-111300000D01*
X114938690Y-111347619D01*
X114986309Y-111442857D01*
X115033928Y-111633333D01*
X115033928Y-111871428D01*
X114986309Y-112061904D01*
X114938690Y-112157142D01*
X114891071Y-112204761D01*
X114795833Y-112252380D01*
X114700595Y-112252380D01*
X114605357Y-112204761D01*
X114557738Y-112157142D01*
X114510119Y-112061904D01*
X114462500Y-111871428D01*
X114462500Y-111633333D01*
X114510119Y-111442857D01*
X114557738Y-111347619D01*
X114605357Y-111300000D01*
X114700595Y-111252380D01*
D12*
X187144790Y-72191500D02*
X186644790Y-72191500D01*
X186644790Y-72072452D01*
X186668600Y-72001023D01*
X186716219Y-71953404D01*
X186763838Y-71929595D01*
X186859076Y-71905785D01*
X186930504Y-71905785D01*
X187025742Y-71929595D01*
X187073361Y-71953404D01*
X187120980Y-72001023D01*
X187144790Y-72072452D01*
X187144790Y-72191500D01*
X187144790Y-71691500D02*
X186644790Y-71691500D01*
X187144790Y-71167690D02*
X186906695Y-71334357D01*
X187144790Y-71453404D02*
X186644790Y-71453404D01*
X186644790Y-71262928D01*
X186668600Y-71215309D01*
X186692409Y-71191500D01*
X186740028Y-71167690D01*
X186811457Y-71167690D01*
X186859076Y-71191500D01*
X186882885Y-71215309D01*
X186906695Y-71262928D01*
X186906695Y-71453404D01*
X184555580Y-72501023D02*
X184579390Y-72429595D01*
X184579390Y-72310547D01*
X184555580Y-72262928D01*
X184531771Y-72239119D01*
X184484152Y-72215309D01*
X184436533Y-72215309D01*
X184388914Y-72239119D01*
X184365104Y-72262928D01*
X184341295Y-72310547D01*
X184317485Y-72405785D01*
X184293676Y-72453404D01*
X184269866Y-72477214D01*
X184222247Y-72501023D01*
X184174628Y-72501023D01*
X184127009Y-72477214D01*
X184103200Y-72453404D01*
X184079390Y-72405785D01*
X184079390Y-72286738D01*
X184103200Y-72215309D01*
X184079390Y-72072452D02*
X184079390Y-71786738D01*
X184579390Y-71929595D02*
X184079390Y-71929595D01*
X184317485Y-71620071D02*
X184317485Y-71453404D01*
X184579390Y-71381976D02*
X184579390Y-71620071D01*
X184079390Y-71620071D01*
X184079390Y-71381976D01*
X184579390Y-71167690D02*
X184079390Y-71167690D01*
X184079390Y-70977214D01*
X184103200Y-70929595D01*
X184127009Y-70905785D01*
X184174628Y-70881976D01*
X184246057Y-70881976D01*
X184293676Y-70905785D01*
X184317485Y-70929595D01*
X184341295Y-70977214D01*
X184341295Y-71167690D01*
D11*
X92393303Y-106161011D02*
X92521875Y-106208630D01*
X92736160Y-106208630D01*
X92821875Y-106161011D01*
X92864732Y-106113392D01*
X92907589Y-106018154D01*
X92907589Y-105922916D01*
X92864732Y-105827678D01*
X92821875Y-105780059D01*
X92736160Y-105732440D01*
X92564732Y-105684821D01*
X92479017Y-105637202D01*
X92436160Y-105589583D01*
X92393303Y-105494345D01*
X92393303Y-105399107D01*
X92436160Y-105303869D01*
X92479017Y-105256250D01*
X92564732Y-105208630D01*
X92779017Y-105208630D01*
X92907589Y-105256250D01*
X93164732Y-105208630D02*
X93679017Y-105208630D01*
X93421875Y-106208630D02*
X93421875Y-105208630D01*
X93979017Y-105684821D02*
X94279017Y-105684821D01*
X94407589Y-106208630D02*
X93979017Y-106208630D01*
X93979017Y-105208630D01*
X94407589Y-105208630D01*
X94793303Y-106208630D02*
X94793303Y-105208630D01*
X95136160Y-105208630D01*
X95221875Y-105256250D01*
X95264732Y-105303869D01*
X95307589Y-105399107D01*
X95307589Y-105541964D01*
X95264732Y-105637202D01*
X95221875Y-105684821D01*
X95136160Y-105732440D01*
X94793303Y-105732440D01*
X95693303Y-106208630D02*
X95693303Y-105208630D01*
X96036160Y-105208630D01*
X96121875Y-105256250D01*
X96164732Y-105303869D01*
X96207589Y-105399107D01*
X96207589Y-105541964D01*
X96164732Y-105637202D01*
X96121875Y-105684821D01*
X96036160Y-105732440D01*
X95693303Y-105732440D01*
X96593303Y-105684821D02*
X96893303Y-105684821D01*
X97021875Y-106208630D02*
X96593303Y-106208630D01*
X96593303Y-105208630D01*
X97021875Y-105208630D01*
X97921875Y-106208630D02*
X97621875Y-105732440D01*
X97407589Y-106208630D02*
X97407589Y-105208630D01*
X97750446Y-105208630D01*
X97836160Y-105256250D01*
X97879017Y-105303869D01*
X97921875Y-105399107D01*
X97921875Y-105541964D01*
X97879017Y-105637202D01*
X97836160Y-105684821D01*
X97750446Y-105732440D01*
X97407589Y-105732440D01*
X92607589Y-106896130D02*
X92779017Y-106896130D01*
X92864732Y-106943750D01*
X92950446Y-107038988D01*
X92993303Y-107229464D01*
X92993303Y-107562797D01*
X92950446Y-107753273D01*
X92864732Y-107848511D01*
X92779017Y-107896130D01*
X92607589Y-107896130D01*
X92521875Y-107848511D01*
X92436160Y-107753273D01*
X92393303Y-107562797D01*
X92393303Y-107229464D01*
X92436160Y-107038988D01*
X92521875Y-106943750D01*
X92607589Y-106896130D01*
X93379017Y-106896130D02*
X93379017Y-107705654D01*
X93421875Y-107800892D01*
X93464732Y-107848511D01*
X93550446Y-107896130D01*
X93721875Y-107896130D01*
X93807589Y-107848511D01*
X93850446Y-107800892D01*
X93893303Y-107705654D01*
X93893303Y-106896130D01*
X94193303Y-106896130D02*
X94707589Y-106896130D01*
X94450446Y-107896130D02*
X94450446Y-106896130D01*
X95007589Y-107896130D02*
X95007589Y-106896130D01*
X95350446Y-106896130D01*
X95436160Y-106943750D01*
X95479017Y-106991369D01*
X95521875Y-107086607D01*
X95521875Y-107229464D01*
X95479017Y-107324702D01*
X95436160Y-107372321D01*
X95350446Y-107419940D01*
X95007589Y-107419940D01*
X95907589Y-106896130D02*
X95907589Y-107705654D01*
X95950446Y-107800892D01*
X95993303Y-107848511D01*
X96079017Y-107896130D01*
X96250446Y-107896130D01*
X96336160Y-107848511D01*
X96379017Y-107800892D01*
X96421875Y-107705654D01*
X96421875Y-106896130D01*
X96721875Y-106896130D02*
X97236160Y-106896130D01*
X96979017Y-107896130D02*
X96979017Y-106896130D01*
X98179017Y-106848511D02*
X97407589Y-108134226D01*
X98479017Y-107896130D02*
X98479017Y-106896130D01*
X98779017Y-107610416D01*
X99079017Y-106896130D01*
X99079017Y-107896130D01*
X99679017Y-106896130D02*
X99850446Y-106896130D01*
X99936160Y-106943750D01*
X100021875Y-107038988D01*
X100064732Y-107229464D01*
X100064732Y-107562797D01*
X100021875Y-107753273D01*
X99936160Y-107848511D01*
X99850446Y-107896130D01*
X99679017Y-107896130D01*
X99593303Y-107848511D01*
X99507589Y-107753273D01*
X99464732Y-107562797D01*
X99464732Y-107229464D01*
X99507589Y-107038988D01*
X99593303Y-106943750D01*
X99679017Y-106896130D01*
X100450446Y-107896130D02*
X100450446Y-106896130D01*
X100664732Y-106896130D01*
X100793303Y-106943750D01*
X100879017Y-107038988D01*
X100921875Y-107134226D01*
X100964732Y-107324702D01*
X100964732Y-107467559D01*
X100921875Y-107658035D01*
X100879017Y-107753273D01*
X100793303Y-107848511D01*
X100664732Y-107896130D01*
X100450446Y-107896130D01*
X101350446Y-106896130D02*
X101350446Y-107705654D01*
X101393303Y-107800892D01*
X101436160Y-107848511D01*
X101521875Y-107896130D01*
X101693303Y-107896130D01*
X101779017Y-107848511D01*
X101821875Y-107800892D01*
X101864732Y-107705654D01*
X101864732Y-106896130D01*
X102721875Y-107896130D02*
X102293303Y-107896130D01*
X102293303Y-106896130D01*
X103021875Y-107372321D02*
X103321875Y-107372321D01*
X103450446Y-107896130D02*
X103021875Y-107896130D01*
X103021875Y-106896130D01*
X103450446Y-106896130D01*
D12*
X169814952Y-64996190D02*
X169648285Y-64758095D01*
X169529238Y-64996190D02*
X169529238Y-64496190D01*
X169719714Y-64496190D01*
X169767333Y-64520000D01*
X169791142Y-64543809D01*
X169814952Y-64591428D01*
X169814952Y-64662857D01*
X169791142Y-64710476D01*
X169767333Y-64734285D01*
X169719714Y-64758095D01*
X169529238Y-64758095D01*
X170029238Y-64996190D02*
X170029238Y-64496190D01*
X170219714Y-64496190D01*
X170267333Y-64520000D01*
X170291142Y-64543809D01*
X170314952Y-64591428D01*
X170314952Y-64662857D01*
X170291142Y-64710476D01*
X170267333Y-64734285D01*
X170219714Y-64758095D01*
X170029238Y-64758095D01*
X170529238Y-64996190D02*
X170529238Y-64496190D01*
X170695904Y-64853333D01*
X170862571Y-64496190D01*
X170862571Y-64996190D01*
X171076857Y-64543809D02*
X171100666Y-64520000D01*
X171148285Y-64496190D01*
X171267333Y-64496190D01*
X171314952Y-64520000D01*
X171338761Y-64543809D01*
X171362571Y-64591428D01*
X171362571Y-64639047D01*
X171338761Y-64710476D01*
X171053047Y-64996190D01*
X171362571Y-64996190D01*
X172354952Y-64996190D02*
X172188285Y-64758095D01*
X172069238Y-64996190D02*
X172069238Y-64496190D01*
X172259714Y-64496190D01*
X172307333Y-64520000D01*
X172331142Y-64543809D01*
X172354952Y-64591428D01*
X172354952Y-64662857D01*
X172331142Y-64710476D01*
X172307333Y-64734285D01*
X172259714Y-64758095D01*
X172069238Y-64758095D01*
X172569238Y-64996190D02*
X172569238Y-64496190D01*
X172759714Y-64496190D01*
X172807333Y-64520000D01*
X172831142Y-64543809D01*
X172854952Y-64591428D01*
X172854952Y-64662857D01*
X172831142Y-64710476D01*
X172807333Y-64734285D01*
X172759714Y-64758095D01*
X172569238Y-64758095D01*
X173069238Y-64996190D02*
X173069238Y-64496190D01*
X173235904Y-64853333D01*
X173402571Y-64496190D01*
X173402571Y-64996190D01*
X173902571Y-64996190D02*
X173616857Y-64996190D01*
X173759714Y-64996190D02*
X173759714Y-64496190D01*
X173712095Y-64567619D01*
X173664476Y-64615238D01*
X173616857Y-64639047D01*
D11*
X148659766Y-81334303D02*
X148659766Y-81691446D01*
X149135957Y-81727160D01*
X149088338Y-81691446D01*
X149040719Y-81620017D01*
X149040719Y-81441446D01*
X149088338Y-81370017D01*
X149135957Y-81334303D01*
X149231195Y-81298589D01*
X149469290Y-81298589D01*
X149564528Y-81334303D01*
X149612147Y-81370017D01*
X149659766Y-81441446D01*
X149659766Y-81620017D01*
X149612147Y-81691446D01*
X149564528Y-81727160D01*
X148659766Y-81084303D02*
X149659766Y-80834303D01*
X148659766Y-80584303D01*
X152217380Y-82012875D02*
X152217380Y-82441446D01*
X152217380Y-82227160D02*
X151217380Y-82227160D01*
X151360238Y-82298589D01*
X151455476Y-82370017D01*
X151503095Y-82441446D01*
X151312619Y-81727160D02*
X151265000Y-81691446D01*
X151217380Y-81620017D01*
X151217380Y-81441446D01*
X151265000Y-81370017D01*
X151312619Y-81334303D01*
X151407857Y-81298589D01*
X151503095Y-81298589D01*
X151645952Y-81334303D01*
X152217380Y-81762875D01*
X152217380Y-81298589D01*
X151217380Y-81084303D02*
X152217380Y-80834303D01*
X151217380Y-80584303D01*
X139727857Y-101226880D02*
X139727857Y-100226880D01*
X140049285Y-100941166D02*
X140406428Y-100941166D01*
X139977857Y-101226880D02*
X140227857Y-100226880D01*
X140477857Y-101226880D01*
X140620714Y-100226880D02*
X141049285Y-100226880D01*
X140835000Y-101226880D02*
X140835000Y-100226880D01*
X136993357Y-101131642D02*
X136957642Y-101179261D01*
X136850500Y-101226880D01*
X136779071Y-101226880D01*
X136671928Y-101179261D01*
X136600500Y-101084023D01*
X136564785Y-100988785D01*
X136529071Y-100798309D01*
X136529071Y-100655452D01*
X136564785Y-100464976D01*
X136600500Y-100369738D01*
X136671928Y-100274500D01*
X136779071Y-100226880D01*
X136850500Y-100226880D01*
X136957642Y-100274500D01*
X136993357Y-100322119D01*
X137671928Y-101226880D02*
X137314785Y-101226880D01*
X137314785Y-100226880D01*
X137814785Y-100226880D02*
X138243357Y-100226880D01*
X138029071Y-101226880D02*
X138029071Y-100226880D01*
X130889428Y-100226880D02*
X131032285Y-100226880D01*
X131103714Y-100274500D01*
X131175142Y-100369738D01*
X131210857Y-100560214D01*
X131210857Y-100893547D01*
X131175142Y-101084023D01*
X131103714Y-101179261D01*
X131032285Y-101226880D01*
X130889428Y-101226880D01*
X130818000Y-101179261D01*
X130746571Y-101084023D01*
X130710857Y-100893547D01*
X130710857Y-100560214D01*
X130746571Y-100369738D01*
X130818000Y-100274500D01*
X130889428Y-100226880D01*
X131496571Y-100322119D02*
X131532285Y-100274500D01*
X131603714Y-100226880D01*
X131782285Y-100226880D01*
X131853714Y-100274500D01*
X131889428Y-100322119D01*
X131925142Y-100417357D01*
X131925142Y-100512595D01*
X131889428Y-100655452D01*
X131460857Y-101226880D01*
X131925142Y-101226880D01*
X133419571Y-100226880D02*
X133848142Y-100226880D01*
X133633857Y-101226880D02*
X133633857Y-100226880D01*
X134098142Y-101226880D02*
X134098142Y-100226880D01*
X134383857Y-100226880D01*
X134455285Y-100274500D01*
X134491000Y-100322119D01*
X134526714Y-100417357D01*
X134526714Y-100560214D01*
X134491000Y-100655452D01*
X134455285Y-100703071D01*
X134383857Y-100750690D01*
X134098142Y-100750690D01*
X134812428Y-101179261D02*
X134919571Y-101226880D01*
X135098142Y-101226880D01*
X135169571Y-101179261D01*
X135205285Y-101131642D01*
X135241000Y-101036404D01*
X135241000Y-100941166D01*
X135205285Y-100845928D01*
X135169571Y-100798309D01*
X135098142Y-100750690D01*
X134955285Y-100703071D01*
X134883857Y-100655452D01*
X134848142Y-100607833D01*
X134812428Y-100512595D01*
X134812428Y-100417357D01*
X134848142Y-100322119D01*
X134883857Y-100274500D01*
X134955285Y-100226880D01*
X135133857Y-100226880D01*
X135241000Y-100274500D01*
X127369214Y-100845928D02*
X127940642Y-100845928D01*
X127654928Y-101226880D02*
X127654928Y-100464976D01*
X128654928Y-100226880D02*
X128297785Y-100226880D01*
X128262071Y-100703071D01*
X128297785Y-100655452D01*
X128369214Y-100607833D01*
X128547785Y-100607833D01*
X128619214Y-100655452D01*
X128654928Y-100703071D01*
X128690642Y-100798309D01*
X128690642Y-101036404D01*
X128654928Y-101131642D01*
X128619214Y-101179261D01*
X128547785Y-101226880D01*
X128369214Y-101226880D01*
X128297785Y-101179261D01*
X128262071Y-101131642D01*
X128904928Y-100226880D02*
X129154928Y-101226880D01*
X129404928Y-100226880D01*
X151070642Y-101179261D02*
X151177785Y-101226880D01*
X151356357Y-101226880D01*
X151427785Y-101179261D01*
X151463500Y-101131642D01*
X151499214Y-101036404D01*
X151499214Y-100941166D01*
X151463500Y-100845928D01*
X151427785Y-100798309D01*
X151356357Y-100750690D01*
X151213500Y-100703071D01*
X151142071Y-100655452D01*
X151106357Y-100607833D01*
X151070642Y-100512595D01*
X151070642Y-100417357D01*
X151106357Y-100322119D01*
X151142071Y-100274500D01*
X151213500Y-100226880D01*
X151392071Y-100226880D01*
X151499214Y-100274500D01*
X151820642Y-100703071D02*
X152070642Y-100703071D01*
X152177785Y-101226880D02*
X151820642Y-101226880D01*
X151820642Y-100226880D01*
X152177785Y-100226880D01*
X152927785Y-101131642D02*
X152892071Y-101179261D01*
X152784928Y-101226880D01*
X152713500Y-101226880D01*
X152606357Y-101179261D01*
X152534928Y-101084023D01*
X152499214Y-100988785D01*
X152463500Y-100798309D01*
X152463500Y-100655452D01*
X152499214Y-100464976D01*
X152534928Y-100369738D01*
X152606357Y-100274500D01*
X152713500Y-100226880D01*
X152784928Y-100226880D01*
X152892071Y-100274500D01*
X152927785Y-100322119D01*
X153249214Y-100845928D02*
X153820642Y-100845928D01*
X148022642Y-101179261D02*
X148129785Y-101226880D01*
X148308357Y-101226880D01*
X148379785Y-101179261D01*
X148415500Y-101131642D01*
X148451214Y-101036404D01*
X148451214Y-100941166D01*
X148415500Y-100845928D01*
X148379785Y-100798309D01*
X148308357Y-100750690D01*
X148165500Y-100703071D01*
X148094071Y-100655452D01*
X148058357Y-100607833D01*
X148022642Y-100512595D01*
X148022642Y-100417357D01*
X148058357Y-100322119D01*
X148094071Y-100274500D01*
X148165500Y-100226880D01*
X148344071Y-100226880D01*
X148451214Y-100274500D01*
X148772642Y-100703071D02*
X149022642Y-100703071D01*
X149129785Y-101226880D02*
X148772642Y-101226880D01*
X148772642Y-100226880D01*
X149129785Y-100226880D01*
X149879785Y-101131642D02*
X149844071Y-101179261D01*
X149736928Y-101226880D01*
X149665500Y-101226880D01*
X149558357Y-101179261D01*
X149486928Y-101084023D01*
X149451214Y-100988785D01*
X149415500Y-100798309D01*
X149415500Y-100655452D01*
X149451214Y-100464976D01*
X149486928Y-100369738D01*
X149558357Y-100274500D01*
X149665500Y-100226880D01*
X149736928Y-100226880D01*
X149844071Y-100274500D01*
X149879785Y-100322119D01*
X150201214Y-100845928D02*
X150772642Y-100845928D01*
X150486928Y-101226880D02*
X150486928Y-100464976D01*
X142105214Y-101226880D02*
X142105214Y-100226880D01*
X142390928Y-100226880D01*
X142462357Y-100274500D01*
X142498071Y-100322119D01*
X142533785Y-100417357D01*
X142533785Y-100560214D01*
X142498071Y-100655452D01*
X142462357Y-100703071D01*
X142390928Y-100750690D01*
X142105214Y-100750690D01*
X143283785Y-101226880D02*
X143033785Y-100750690D01*
X142855214Y-101226880D02*
X142855214Y-100226880D01*
X143140928Y-100226880D01*
X143212357Y-100274500D01*
X143248071Y-100322119D01*
X143283785Y-100417357D01*
X143283785Y-100560214D01*
X143248071Y-100655452D01*
X143212357Y-100703071D01*
X143140928Y-100750690D01*
X142855214Y-100750690D01*
X143605214Y-101226880D02*
X143605214Y-100226880D01*
X143962357Y-100845928D02*
X144533785Y-100845928D01*
X144248071Y-101226880D02*
X144248071Y-100464976D01*
X151275000Y-95003880D02*
X151275000Y-94003880D01*
X152025000Y-94051500D02*
X151953571Y-94003880D01*
X151846428Y-94003880D01*
X151739285Y-94051500D01*
X151667857Y-94146738D01*
X151632142Y-94241976D01*
X151596428Y-94432452D01*
X151596428Y-94575309D01*
X151632142Y-94765785D01*
X151667857Y-94861023D01*
X151739285Y-94956261D01*
X151846428Y-95003880D01*
X151917857Y-95003880D01*
X152025000Y-94956261D01*
X152060714Y-94908642D01*
X152060714Y-94575309D01*
X151917857Y-94575309D01*
X152382142Y-95003880D02*
X152382142Y-94003880D01*
X152810714Y-95003880D01*
X152810714Y-94003880D01*
X153560714Y-95003880D02*
X153132142Y-95003880D01*
X153346428Y-95003880D02*
X153346428Y-94003880D01*
X153275000Y-94146738D01*
X153203571Y-94241976D01*
X153132142Y-94289595D01*
X154259500Y-95003880D02*
X154259500Y-94003880D01*
X155009500Y-94051500D02*
X154938071Y-94003880D01*
X154830928Y-94003880D01*
X154723785Y-94051500D01*
X154652357Y-94146738D01*
X154616642Y-94241976D01*
X154580928Y-94432452D01*
X154580928Y-94575309D01*
X154616642Y-94765785D01*
X154652357Y-94861023D01*
X154723785Y-94956261D01*
X154830928Y-95003880D01*
X154902357Y-95003880D01*
X155009500Y-94956261D01*
X155045214Y-94908642D01*
X155045214Y-94575309D01*
X154902357Y-94575309D01*
X155366642Y-95003880D02*
X155366642Y-94003880D01*
X155795214Y-95003880D01*
X155795214Y-94003880D01*
X156116642Y-94099119D02*
X156152357Y-94051500D01*
X156223785Y-94003880D01*
X156402357Y-94003880D01*
X156473785Y-94051500D01*
X156509500Y-94099119D01*
X156545214Y-94194357D01*
X156545214Y-94289595D01*
X156509500Y-94432452D01*
X156080928Y-95003880D01*
X156545214Y-95003880D01*
X145331785Y-95003880D02*
X145331785Y-94003880D01*
X145688928Y-95003880D02*
X145688928Y-94003880D01*
X146117500Y-95003880D01*
X146117500Y-94003880D01*
X146688928Y-94003880D02*
X146688928Y-94718166D01*
X146653214Y-94861023D01*
X146581785Y-94956261D01*
X146474642Y-95003880D01*
X146403214Y-95003880D01*
X147010357Y-94099119D02*
X147046071Y-94051500D01*
X147117500Y-94003880D01*
X147296071Y-94003880D01*
X147367500Y-94051500D01*
X147403214Y-94099119D01*
X147438928Y-94194357D01*
X147438928Y-94289595D01*
X147403214Y-94432452D01*
X146974642Y-95003880D01*
X147438928Y-95003880D01*
X142347285Y-95003880D02*
X142347285Y-94003880D01*
X142704428Y-95003880D02*
X142704428Y-94003880D01*
X143133000Y-95003880D01*
X143133000Y-94003880D01*
X143704428Y-94003880D02*
X143704428Y-94718166D01*
X143668714Y-94861023D01*
X143597285Y-94956261D01*
X143490142Y-95003880D01*
X143418714Y-95003880D01*
X144454428Y-95003880D02*
X144025857Y-95003880D01*
X144240142Y-95003880D02*
X144240142Y-94003880D01*
X144168714Y-94146738D01*
X144097285Y-94241976D01*
X144025857Y-94289595D01*
X148762714Y-94480071D02*
X148869857Y-94527690D01*
X148905571Y-94575309D01*
X148941285Y-94670547D01*
X148941285Y-94813404D01*
X148905571Y-94908642D01*
X148869857Y-94956261D01*
X148798428Y-95003880D01*
X148512714Y-95003880D01*
X148512714Y-94003880D01*
X148762714Y-94003880D01*
X148834142Y-94051500D01*
X148869857Y-94099119D01*
X148905571Y-94194357D01*
X148905571Y-94289595D01*
X148869857Y-94384833D01*
X148834142Y-94432452D01*
X148762714Y-94480071D01*
X148512714Y-94480071D01*
X149227000Y-94956261D02*
X149334142Y-95003880D01*
X149512714Y-95003880D01*
X149584142Y-94956261D01*
X149619857Y-94908642D01*
X149655571Y-94813404D01*
X149655571Y-94718166D01*
X149619857Y-94622928D01*
X149584142Y-94575309D01*
X149512714Y-94527690D01*
X149369857Y-94480071D01*
X149298428Y-94432452D01*
X149262714Y-94384833D01*
X149227000Y-94289595D01*
X149227000Y-94194357D01*
X149262714Y-94099119D01*
X149298428Y-94051500D01*
X149369857Y-94003880D01*
X149548428Y-94003880D01*
X149655571Y-94051500D01*
X149869857Y-94003880D02*
X150298428Y-94003880D01*
X150084142Y-95003880D02*
X150084142Y-94003880D01*
X133508857Y-94003880D02*
X133758857Y-95003880D01*
X134008857Y-94003880D01*
X134151714Y-94003880D02*
X134401714Y-95003880D01*
X134651714Y-94003880D01*
X134794571Y-94003880D02*
X135223142Y-94003880D01*
X135008857Y-95003880D02*
X135008857Y-94003880D01*
X136396142Y-95003880D02*
X136396142Y-94003880D01*
X136753285Y-95003880D02*
X136753285Y-94003880D01*
X136931857Y-94003880D01*
X137039000Y-94051500D01*
X137110428Y-94146738D01*
X137146142Y-94241976D01*
X137181857Y-94432452D01*
X137181857Y-94575309D01*
X137146142Y-94765785D01*
X137110428Y-94861023D01*
X137039000Y-94956261D01*
X136931857Y-95003880D01*
X136753285Y-95003880D01*
X137860428Y-95003880D02*
X137503285Y-95003880D01*
X137503285Y-94003880D01*
X138110428Y-94480071D02*
X138360428Y-94480071D01*
X138467571Y-95003880D02*
X138110428Y-95003880D01*
X138110428Y-94003880D01*
X138467571Y-94003880D01*
X140130642Y-94480071D02*
X139880642Y-94480071D01*
X139880642Y-95003880D02*
X139880642Y-94003880D01*
X140237785Y-94003880D01*
X140523500Y-95003880D02*
X140523500Y-94003880D01*
X140809214Y-94003880D01*
X140880642Y-94051500D01*
X140916357Y-94099119D01*
X140952071Y-94194357D01*
X140952071Y-94337214D01*
X140916357Y-94432452D01*
X140880642Y-94480071D01*
X140809214Y-94527690D01*
X140523500Y-94527690D01*
X121043071Y-94622928D02*
X121614500Y-94622928D01*
X121328785Y-95003880D02*
X121328785Y-94241976D01*
X122364500Y-95003880D02*
X121935928Y-95003880D01*
X122150214Y-95003880D02*
X122150214Y-94003880D01*
X122078785Y-94146738D01*
X122007357Y-94241976D01*
X121935928Y-94289595D01*
X122650214Y-94099119D02*
X122685928Y-94051500D01*
X122757357Y-94003880D01*
X122935928Y-94003880D01*
X123007357Y-94051500D01*
X123043071Y-94099119D01*
X123078785Y-94194357D01*
X123078785Y-94289595D01*
X123043071Y-94432452D01*
X122614500Y-95003880D01*
X123078785Y-95003880D01*
X123293071Y-94003880D02*
X123543071Y-95003880D01*
X123793071Y-94003880D01*
D12*
X139382571Y-64496190D02*
X139549238Y-64996190D01*
X139715904Y-64496190D01*
X139811142Y-64496190D02*
X139977809Y-64996190D01*
X140144476Y-64496190D01*
X140239714Y-64496190D02*
X140525428Y-64496190D01*
X140382571Y-64996190D02*
X140382571Y-64496190D01*
X137021142Y-64734285D02*
X137092571Y-64758095D01*
X137116380Y-64781904D01*
X137140190Y-64829523D01*
X137140190Y-64900952D01*
X137116380Y-64948571D01*
X137092571Y-64972380D01*
X137044952Y-64996190D01*
X136854476Y-64996190D01*
X136854476Y-64496190D01*
X137021142Y-64496190D01*
X137068761Y-64520000D01*
X137092571Y-64543809D01*
X137116380Y-64591428D01*
X137116380Y-64639047D01*
X137092571Y-64686666D01*
X137068761Y-64710476D01*
X137021142Y-64734285D01*
X136854476Y-64734285D01*
X137330666Y-64972380D02*
X137402095Y-64996190D01*
X137521142Y-64996190D01*
X137568761Y-64972380D01*
X137592571Y-64948571D01*
X137616380Y-64900952D01*
X137616380Y-64853333D01*
X137592571Y-64805714D01*
X137568761Y-64781904D01*
X137521142Y-64758095D01*
X137425904Y-64734285D01*
X137378285Y-64710476D01*
X137354476Y-64686666D01*
X137330666Y-64639047D01*
X137330666Y-64591428D01*
X137354476Y-64543809D01*
X137378285Y-64520000D01*
X137425904Y-64496190D01*
X137544952Y-64496190D01*
X137616380Y-64520000D01*
X137759238Y-64496190D02*
X138044952Y-64496190D01*
X137902095Y-64996190D02*
X137902095Y-64496190D01*
X141815428Y-64996190D02*
X141815428Y-64496190D01*
X142053523Y-64996190D02*
X142053523Y-64496190D01*
X142172571Y-64496190D01*
X142244000Y-64520000D01*
X142291619Y-64567619D01*
X142315428Y-64615238D01*
X142339238Y-64710476D01*
X142339238Y-64781904D01*
X142315428Y-64877142D01*
X142291619Y-64924761D01*
X142244000Y-64972380D01*
X142172571Y-64996190D01*
X142053523Y-64996190D01*
X142791619Y-64996190D02*
X142553523Y-64996190D01*
X142553523Y-64496190D01*
X142958285Y-64734285D02*
X143124952Y-64734285D01*
X143196380Y-64996190D02*
X142958285Y-64996190D01*
X142958285Y-64496190D01*
X143196380Y-64496190D01*
X144728428Y-64734285D02*
X144561761Y-64734285D01*
X144561761Y-64996190D02*
X144561761Y-64496190D01*
X144799857Y-64496190D01*
X144990333Y-64996190D02*
X144990333Y-64496190D01*
X145180809Y-64496190D01*
X145228428Y-64520000D01*
X145252238Y-64543809D01*
X145276047Y-64591428D01*
X145276047Y-64662857D01*
X145252238Y-64710476D01*
X145228428Y-64734285D01*
X145180809Y-64758095D01*
X144990333Y-64758095D01*
X154789238Y-116939190D02*
X154789238Y-116439190D01*
X155003523Y-116796333D02*
X155241619Y-116796333D01*
X154955904Y-116939190D02*
X155122571Y-116439190D01*
X155289238Y-116939190D01*
X155384476Y-116439190D02*
X155670190Y-116439190D01*
X155527333Y-116939190D02*
X155527333Y-116439190D01*
X152415904Y-116891571D02*
X152392095Y-116915380D01*
X152320666Y-116939190D01*
X152273047Y-116939190D01*
X152201619Y-116915380D01*
X152154000Y-116867761D01*
X152130190Y-116820142D01*
X152106380Y-116724904D01*
X152106380Y-116653476D01*
X152130190Y-116558238D01*
X152154000Y-116510619D01*
X152201619Y-116463000D01*
X152273047Y-116439190D01*
X152320666Y-116439190D01*
X152392095Y-116463000D01*
X152415904Y-116486809D01*
X152868285Y-116939190D02*
X152630190Y-116939190D01*
X152630190Y-116439190D01*
X152963523Y-116439190D02*
X153249238Y-116439190D01*
X153106380Y-116939190D02*
X153106380Y-116439190D01*
X149483047Y-116439190D02*
X149768761Y-116439190D01*
X149625904Y-116939190D02*
X149625904Y-116439190D01*
X149935428Y-116939190D02*
X149935428Y-116439190D01*
X150125904Y-116439190D01*
X150173523Y-116463000D01*
X150197333Y-116486809D01*
X150221142Y-116534428D01*
X150221142Y-116605857D01*
X150197333Y-116653476D01*
X150173523Y-116677285D01*
X150125904Y-116701095D01*
X149935428Y-116701095D01*
X150411619Y-116915380D02*
X150483047Y-116939190D01*
X150602095Y-116939190D01*
X150649714Y-116915380D01*
X150673523Y-116891571D01*
X150697333Y-116843952D01*
X150697333Y-116796333D01*
X150673523Y-116748714D01*
X150649714Y-116724904D01*
X150602095Y-116701095D01*
X150506857Y-116677285D01*
X150459238Y-116653476D01*
X150435428Y-116629666D01*
X150411619Y-116582047D01*
X150411619Y-116534428D01*
X150435428Y-116486809D01*
X150459238Y-116463000D01*
X150506857Y-116439190D01*
X150625904Y-116439190D01*
X150697333Y-116463000D01*
X147288285Y-116439190D02*
X147383523Y-116439190D01*
X147431142Y-116463000D01*
X147478761Y-116510619D01*
X147502571Y-116605857D01*
X147502571Y-116772523D01*
X147478761Y-116867761D01*
X147431142Y-116915380D01*
X147383523Y-116939190D01*
X147288285Y-116939190D01*
X147240666Y-116915380D01*
X147193047Y-116867761D01*
X147169238Y-116772523D01*
X147169238Y-116605857D01*
X147193047Y-116510619D01*
X147240666Y-116463000D01*
X147288285Y-116439190D01*
X147693047Y-116486809D02*
X147716857Y-116463000D01*
X147764476Y-116439190D01*
X147883523Y-116439190D01*
X147931142Y-116463000D01*
X147954952Y-116486809D01*
X147978761Y-116534428D01*
X147978761Y-116582047D01*
X147954952Y-116653476D01*
X147669238Y-116939190D01*
X147978761Y-116939190D01*
X144605428Y-116677285D02*
X144676857Y-116701095D01*
X144700666Y-116724904D01*
X144724476Y-116772523D01*
X144724476Y-116843952D01*
X144700666Y-116891571D01*
X144676857Y-116915380D01*
X144629238Y-116939190D01*
X144438761Y-116939190D01*
X144438761Y-116439190D01*
X144605428Y-116439190D01*
X144653047Y-116463000D01*
X144676857Y-116486809D01*
X144700666Y-116534428D01*
X144700666Y-116582047D01*
X144676857Y-116629666D01*
X144653047Y-116653476D01*
X144605428Y-116677285D01*
X144438761Y-116677285D01*
X145224476Y-116939190D02*
X145057809Y-116701095D01*
X144938761Y-116939190D02*
X144938761Y-116439190D01*
X145129238Y-116439190D01*
X145176857Y-116463000D01*
X145200666Y-116486809D01*
X145224476Y-116534428D01*
X145224476Y-116605857D01*
X145200666Y-116653476D01*
X145176857Y-116677285D01*
X145129238Y-116701095D01*
X144938761Y-116701095D01*
X145367333Y-116439190D02*
X145534000Y-116939190D01*
X145700666Y-116439190D01*
X141863047Y-116939190D02*
X141863047Y-116439190D01*
X142029714Y-116796333D01*
X142196380Y-116439190D01*
X142196380Y-116939190D01*
X142410666Y-116796333D02*
X142648761Y-116796333D01*
X142363047Y-116939190D02*
X142529714Y-116439190D01*
X142696380Y-116939190D01*
X142863047Y-116939190D02*
X142863047Y-116439190D01*
X143053523Y-116439190D01*
X143101142Y-116463000D01*
X143124952Y-116486809D01*
X143148761Y-116534428D01*
X143148761Y-116605857D01*
X143124952Y-116653476D01*
X143101142Y-116677285D01*
X143053523Y-116701095D01*
X142863047Y-116701095D01*
X184579390Y-69901500D02*
X184079390Y-69901500D01*
X184103200Y-69401500D02*
X184079390Y-69449119D01*
X184079390Y-69520547D01*
X184103200Y-69591976D01*
X184150819Y-69639595D01*
X184198438Y-69663404D01*
X184293676Y-69687214D01*
X184365104Y-69687214D01*
X184460342Y-69663404D01*
X184507961Y-69639595D01*
X184555580Y-69591976D01*
X184579390Y-69520547D01*
X184579390Y-69472928D01*
X184555580Y-69401500D01*
X184531771Y-69377690D01*
X184365104Y-69377690D01*
X184365104Y-69472928D01*
X184579390Y-69163404D02*
X184079390Y-69163404D01*
X184579390Y-68877690D01*
X184079390Y-68877690D01*
X184127009Y-68663404D02*
X184103200Y-68639595D01*
X184079390Y-68591976D01*
X184079390Y-68472928D01*
X184103200Y-68425309D01*
X184127009Y-68401500D01*
X184174628Y-68377690D01*
X184222247Y-68377690D01*
X184293676Y-68401500D01*
X184579390Y-68687214D01*
X184579390Y-68377690D01*
X187144790Y-69901500D02*
X186644790Y-69901500D01*
X186668600Y-69401500D02*
X186644790Y-69449119D01*
X186644790Y-69520547D01*
X186668600Y-69591976D01*
X186716219Y-69639595D01*
X186763838Y-69663404D01*
X186859076Y-69687214D01*
X186930504Y-69687214D01*
X187025742Y-69663404D01*
X187073361Y-69639595D01*
X187120980Y-69591976D01*
X187144790Y-69520547D01*
X187144790Y-69472928D01*
X187120980Y-69401500D01*
X187097171Y-69377690D01*
X186930504Y-69377690D01*
X186930504Y-69472928D01*
X187144790Y-69163404D02*
X186644790Y-69163404D01*
X187144790Y-68877690D01*
X186644790Y-68877690D01*
X187144790Y-68377690D02*
X187144790Y-68663404D01*
X187144790Y-68520547D02*
X186644790Y-68520547D01*
X186716219Y-68568166D01*
X186763838Y-68615785D01*
X186787647Y-68663404D01*
X132659523Y-64996190D02*
X132659523Y-64496190D01*
X132897619Y-64996190D02*
X132897619Y-64496190D01*
X133183333Y-64996190D01*
X133183333Y-64496190D01*
X133564285Y-64496190D02*
X133564285Y-64853333D01*
X133540476Y-64924761D01*
X133492857Y-64972380D01*
X133421428Y-64996190D01*
X133373809Y-64996190D01*
X134064285Y-64996190D02*
X133778571Y-64996190D01*
X133921428Y-64996190D02*
X133921428Y-64496190D01*
X133873809Y-64567619D01*
X133826190Y-64615238D01*
X133778571Y-64639047D01*
X130119523Y-64996190D02*
X130119523Y-64496190D01*
X130357619Y-64996190D02*
X130357619Y-64496190D01*
X130643333Y-64996190D01*
X130643333Y-64496190D01*
X131024285Y-64496190D02*
X131024285Y-64853333D01*
X131000476Y-64924761D01*
X130952857Y-64972380D01*
X130881428Y-64996190D01*
X130833809Y-64996190D01*
X131238571Y-64543809D02*
X131262380Y-64520000D01*
X131310000Y-64496190D01*
X131429047Y-64496190D01*
X131476666Y-64520000D01*
X131500476Y-64543809D01*
X131524285Y-64591428D01*
X131524285Y-64639047D01*
X131500476Y-64710476D01*
X131214761Y-64996190D01*
X131524285Y-64996190D01*
D15*
X190204761Y-109772023D02*
X190252380Y-109629166D01*
X190252380Y-109391071D01*
X190204761Y-109295833D01*
X190157142Y-109248214D01*
X190061904Y-109200595D01*
X189966666Y-109200595D01*
X189871428Y-109248214D01*
X189823809Y-109295833D01*
X189776190Y-109391071D01*
X189728571Y-109581547D01*
X189680952Y-109676785D01*
X189633333Y-109724404D01*
X189538095Y-109772023D01*
X189442857Y-109772023D01*
X189347619Y-109724404D01*
X189300000Y-109676785D01*
X189252380Y-109581547D01*
X189252380Y-109343452D01*
X189300000Y-109200595D01*
X190252380Y-108772023D02*
X189252380Y-108772023D01*
X189252380Y-108391071D01*
X189300000Y-108295833D01*
X189347619Y-108248214D01*
X189442857Y-108200595D01*
X189585714Y-108200595D01*
X189680952Y-108248214D01*
X189728571Y-108295833D01*
X189776190Y-108391071D01*
X189776190Y-108772023D01*
X189966666Y-107819642D02*
X189966666Y-107343452D01*
X190252380Y-107914880D02*
X189252380Y-107581547D01*
X190252380Y-107248214D01*
X190252380Y-106343452D02*
X189776190Y-106676785D01*
X190252380Y-106914880D02*
X189252380Y-106914880D01*
X189252380Y-106533928D01*
X189300000Y-106438690D01*
X189347619Y-106391071D01*
X189442857Y-106343452D01*
X189585714Y-106343452D01*
X189680952Y-106391071D01*
X189728571Y-106438690D01*
X189776190Y-106533928D01*
X189776190Y-106914880D01*
X190252380Y-105914880D02*
X189252380Y-105914880D01*
X190252380Y-105343452D02*
X189680952Y-105772023D01*
X189252380Y-105343452D02*
X189823809Y-105914880D01*
X189871428Y-104914880D02*
X189871428Y-104152976D01*
X189347619Y-103724404D02*
X189300000Y-103676785D01*
X189252380Y-103581547D01*
X189252380Y-103343452D01*
X189300000Y-103248214D01*
X189347619Y-103200595D01*
X189442857Y-103152976D01*
X189538095Y-103152976D01*
X189680952Y-103200595D01*
X190252380Y-103772023D01*
X190252380Y-103152976D01*
X189204761Y-102010119D02*
X190490476Y-102867261D01*
X190252380Y-101152976D02*
X190252380Y-101724404D01*
X190252380Y-101438690D02*
X189252380Y-101438690D01*
X189395238Y-101533928D01*
X189490476Y-101629166D01*
X189538095Y-101724404D01*
X189728571Y-79966071D02*
X189728571Y-80299404D01*
X190252380Y-80299404D02*
X189252380Y-80299404D01*
X189252380Y-79823214D01*
X189252380Y-79442261D02*
X190061904Y-79442261D01*
X190157142Y-79394642D01*
X190204761Y-79347023D01*
X190252380Y-79251785D01*
X190252380Y-79061309D01*
X190204761Y-78966071D01*
X190157142Y-78918452D01*
X190061904Y-78870833D01*
X189252380Y-78870833D01*
X189728571Y-78394642D02*
X189728571Y-78061309D01*
X190252380Y-77918452D02*
X190252380Y-78394642D01*
X189252380Y-78394642D01*
X189252380Y-77918452D01*
X190252380Y-77013690D02*
X190252380Y-77489880D01*
X189252380Y-77489880D01*
X189871428Y-76680357D02*
X189871428Y-75918452D01*
X189347619Y-75489880D02*
X189300000Y-75442261D01*
X189252380Y-75347023D01*
X189252380Y-75108928D01*
X189300000Y-75013690D01*
X189347619Y-74966071D01*
X189442857Y-74918452D01*
X189538095Y-74918452D01*
X189680952Y-74966071D01*
X190252380Y-75537500D01*
X190252380Y-74918452D01*
X189204761Y-73775595D02*
X190490476Y-74632738D01*
X190252380Y-72918452D02*
X190252380Y-73489880D01*
X190252380Y-73204166D02*
X189252380Y-73204166D01*
X189395238Y-73299404D01*
X189490476Y-73394642D01*
X189538095Y-73489880D01*
D13*
X95947619Y-115955976D02*
X95947619Y-114705976D01*
X96245238Y-114705976D01*
X96423809Y-114765500D01*
X96542857Y-114884547D01*
X96602380Y-115003595D01*
X96661904Y-115241690D01*
X96661904Y-115420261D01*
X96602380Y-115658357D01*
X96542857Y-115777404D01*
X96423809Y-115896452D01*
X96245238Y-115955976D01*
X95947619Y-115955976D01*
X97197619Y-115301214D02*
X97614285Y-115301214D01*
X97792857Y-115955976D02*
X97197619Y-115955976D01*
X97197619Y-114705976D01*
X97792857Y-114705976D01*
X98269047Y-115896452D02*
X98447619Y-115955976D01*
X98745238Y-115955976D01*
X98864285Y-115896452D01*
X98923809Y-115836928D01*
X98983333Y-115717880D01*
X98983333Y-115598833D01*
X98923809Y-115479785D01*
X98864285Y-115420261D01*
X98745238Y-115360738D01*
X98507142Y-115301214D01*
X98388095Y-115241690D01*
X98328571Y-115182166D01*
X98269047Y-115063119D01*
X98269047Y-114944071D01*
X98328571Y-114825023D01*
X98388095Y-114765500D01*
X98507142Y-114705976D01*
X98804761Y-114705976D01*
X98983333Y-114765500D01*
X99519047Y-115955976D02*
X99519047Y-114705976D01*
X100769047Y-114765500D02*
X100650000Y-114705976D01*
X100471428Y-114705976D01*
X100292857Y-114765500D01*
X100173809Y-114884547D01*
X100114285Y-115003595D01*
X100054761Y-115241690D01*
X100054761Y-115420261D01*
X100114285Y-115658357D01*
X100173809Y-115777404D01*
X100292857Y-115896452D01*
X100471428Y-115955976D01*
X100590476Y-115955976D01*
X100769047Y-115896452D01*
X100828571Y-115836928D01*
X100828571Y-115420261D01*
X100590476Y-115420261D01*
X101364285Y-115955976D02*
X101364285Y-114705976D01*
X102078571Y-115955976D01*
X102078571Y-114705976D01*
D18*
X110904761Y-75948809D02*
X108904761Y-75948809D01*
X110904761Y-74805952D01*
X108904761Y-74805952D01*
X108904761Y-73472619D02*
X108904761Y-73091666D01*
X109000000Y-72901190D01*
X109190476Y-72710714D01*
X109571428Y-72615476D01*
X110238095Y-72615476D01*
X110619047Y-72710714D01*
X110809523Y-72901190D01*
X110904761Y-73091666D01*
X110904761Y-73472619D01*
X110809523Y-73663095D01*
X110619047Y-73853571D01*
X110238095Y-73948809D01*
X109571428Y-73948809D01*
X109190476Y-73853571D01*
X109000000Y-73663095D01*
X108904761Y-73472619D01*
X109095238Y-71853571D02*
X109000000Y-71758333D01*
X108904761Y-71567857D01*
X108904761Y-71091666D01*
X109000000Y-70901190D01*
X109095238Y-70805952D01*
X109285714Y-70710714D01*
X109476190Y-70710714D01*
X109761904Y-70805952D01*
X110904761Y-71948809D01*
X110904761Y-70710714D01*
X110714285Y-68710714D02*
X110809523Y-68805952D01*
X110904761Y-69091666D01*
X110904761Y-69282142D01*
X110809523Y-69567857D01*
X110619047Y-69758333D01*
X110428571Y-69853571D01*
X110047619Y-69948809D01*
X109761904Y-69948809D01*
X109380952Y-69853571D01*
X109190476Y-69758333D01*
X109000000Y-69567857D01*
X108904761Y-69282142D01*
X108904761Y-69091666D01*
X109000000Y-68805952D01*
X109095238Y-68710714D01*
D19*
X108634642Y-114558333D02*
X108634642Y-113158333D01*
X109134642Y-114158333D01*
X109634642Y-113158333D01*
X109634642Y-114558333D01*
X110277500Y-114158333D02*
X110991785Y-114158333D01*
X110134642Y-114558333D02*
X110634642Y-113158333D01*
X111134642Y-114558333D01*
X111634642Y-114558333D02*
X111634642Y-113158333D01*
X111991785Y-113158333D01*
X112206071Y-113225000D01*
X112348928Y-113358333D01*
X112420357Y-113491666D01*
X112491785Y-113758333D01*
X112491785Y-113958333D01*
X112420357Y-114225000D01*
X112348928Y-114358333D01*
X112206071Y-114491666D01*
X111991785Y-114558333D01*
X111634642Y-114558333D01*
X113134642Y-113825000D02*
X113634642Y-113825000D01*
X113848928Y-114558333D02*
X113134642Y-114558333D01*
X113134642Y-113158333D01*
X113848928Y-113158333D01*
X116134642Y-113825000D02*
X115634642Y-113825000D01*
X115634642Y-114558333D02*
X115634642Y-113158333D01*
X116348928Y-113158333D01*
X117206071Y-113158333D02*
X117491785Y-113158333D01*
X117634642Y-113225000D01*
X117777500Y-113358333D01*
X117848928Y-113625000D01*
X117848928Y-114091666D01*
X117777500Y-114358333D01*
X117634642Y-114491666D01*
X117491785Y-114558333D01*
X117206071Y-114558333D01*
X117063214Y-114491666D01*
X116920357Y-114358333D01*
X116848928Y-114091666D01*
X116848928Y-113625000D01*
X116920357Y-113358333D01*
X117063214Y-113225000D01*
X117206071Y-113158333D01*
X119348928Y-114558333D02*
X118848928Y-113891666D01*
X118491785Y-114558333D02*
X118491785Y-113158333D01*
X119063214Y-113158333D01*
X119206071Y-113225000D01*
X119277500Y-113291666D01*
X119348928Y-113425000D01*
X119348928Y-113625000D01*
X119277500Y-113758333D01*
X119206071Y-113825000D01*
X119063214Y-113891666D01*
X118491785Y-113891666D01*
X108563214Y-116941666D02*
X108777500Y-117008333D01*
X109134642Y-117008333D01*
X109277500Y-116941666D01*
X109348928Y-116875000D01*
X109420357Y-116741666D01*
X109420357Y-116608333D01*
X109348928Y-116475000D01*
X109277500Y-116408333D01*
X109134642Y-116341666D01*
X108848928Y-116275000D01*
X108706071Y-116208333D01*
X108634642Y-116141666D01*
X108563214Y-116008333D01*
X108563214Y-115875000D01*
X108634642Y-115741666D01*
X108706071Y-115675000D01*
X108848928Y-115608333D01*
X109206071Y-115608333D01*
X109420357Y-115675000D01*
X110063214Y-117008333D02*
X110063214Y-115608333D01*
X110634642Y-115608333D01*
X110777500Y-115675000D01*
X110848928Y-115741666D01*
X110920357Y-115875000D01*
X110920357Y-116075000D01*
X110848928Y-116208333D01*
X110777500Y-116275000D01*
X110634642Y-116341666D01*
X110063214Y-116341666D01*
X111563214Y-116275000D02*
X112063214Y-116275000D01*
X112277500Y-117008333D02*
X111563214Y-117008333D01*
X111563214Y-115608333D01*
X112277500Y-115608333D01*
X112920357Y-116275000D02*
X113420357Y-116275000D01*
X113634642Y-117008333D02*
X112920357Y-117008333D01*
X112920357Y-115608333D01*
X113634642Y-115608333D01*
X114277500Y-117008333D02*
X114277500Y-115608333D01*
X114634642Y-115608333D01*
X114848928Y-115675000D01*
X114991785Y-115808333D01*
X115063214Y-115941666D01*
X115134642Y-116208333D01*
X115134642Y-116408333D01*
X115063214Y-116675000D01*
X114991785Y-116808333D01*
X114848928Y-116941666D01*
X114634642Y-117008333D01*
X114277500Y-117008333D01*
X115777500Y-115608333D02*
X115777500Y-116741666D01*
X115848928Y-116875000D01*
X115920357Y-116941666D01*
X116063214Y-117008333D01*
X116348928Y-117008333D01*
X116491785Y-116941666D01*
X116563214Y-116875000D01*
X116634642Y-116741666D01*
X116634642Y-115608333D01*
X117348928Y-117008333D02*
X117348928Y-115608333D01*
X118063214Y-117008333D02*
X118063214Y-115608333D01*
X118920357Y-117008333D01*
X118920357Y-115608333D01*
X119920357Y-115608333D02*
X120206071Y-115608333D01*
X120348928Y-115675000D01*
X120491785Y-115808333D01*
X120563214Y-116075000D01*
X120563214Y-116541666D01*
X120491785Y-116808333D01*
X120348928Y-116941666D01*
X120206071Y-117008333D01*
X119920357Y-117008333D01*
X119777500Y-116941666D01*
X119634642Y-116808333D01*
X119563214Y-116541666D01*
X119563214Y-116075000D01*
X119634642Y-115808333D01*
X119777500Y-115675000D01*
X119920357Y-115608333D01*
D15*
X182461904Y-112304761D02*
X182604761Y-112352380D01*
X182842857Y-112352380D01*
X182938095Y-112304761D01*
X182985714Y-112257142D01*
X183033333Y-112161904D01*
X183033333Y-112066666D01*
X182985714Y-111971428D01*
X182938095Y-111923809D01*
X182842857Y-111876190D01*
X182652380Y-111828571D01*
X182557142Y-111780952D01*
X182509523Y-111733333D01*
X182461904Y-111638095D01*
X182461904Y-111542857D01*
X182509523Y-111447619D01*
X182557142Y-111400000D01*
X182652380Y-111352380D01*
X182890476Y-111352380D01*
X183033333Y-111400000D01*
X183461904Y-111828571D02*
X183795238Y-111828571D01*
X183938095Y-112352380D02*
X183461904Y-112352380D01*
X183461904Y-111352380D01*
X183938095Y-111352380D01*
X184938095Y-112257142D02*
X184890476Y-112304761D01*
X184747619Y-112352380D01*
X184652380Y-112352380D01*
X184509523Y-112304761D01*
X184414285Y-112209523D01*
X184366666Y-112114285D01*
X184319047Y-111923809D01*
X184319047Y-111780952D01*
X184366666Y-111590476D01*
X184414285Y-111495238D01*
X184509523Y-111400000D01*
X184652380Y-111352380D01*
X184747619Y-111352380D01*
X184890476Y-111400000D01*
X184938095Y-111447619D01*
X185985714Y-111352380D02*
X186557142Y-111352380D01*
X186271428Y-112352380D02*
X186271428Y-111352380D01*
X187461904Y-112352380D02*
X187128571Y-111876190D01*
X186890476Y-112352380D02*
X186890476Y-111352380D01*
X187271428Y-111352380D01*
X187366666Y-111400000D01*
X187414285Y-111447619D01*
X187461904Y-111542857D01*
X187461904Y-111685714D01*
X187414285Y-111780952D01*
X187366666Y-111828571D01*
X187271428Y-111876190D01*
X186890476Y-111876190D01*
X187890476Y-112352380D02*
X187890476Y-111352380D01*
X188890476Y-111400000D02*
X188795238Y-111352380D01*
X188652380Y-111352380D01*
X188509523Y-111400000D01*
X188414285Y-111495238D01*
X188366666Y-111590476D01*
X188319047Y-111780952D01*
X188319047Y-111923809D01*
X188366666Y-112114285D01*
X188414285Y-112209523D01*
X188509523Y-112304761D01*
X188652380Y-112352380D01*
X188747619Y-112352380D01*
X188890476Y-112304761D01*
X188938095Y-112257142D01*
X188938095Y-111923809D01*
X188747619Y-111923809D01*
X168092380Y-108600500D02*
X167092380Y-108600500D01*
X167092380Y-108219547D01*
X167140000Y-108124309D01*
X167187619Y-108076690D01*
X167282857Y-108029071D01*
X167425714Y-108029071D01*
X167520952Y-108076690D01*
X167568571Y-108124309D01*
X167616190Y-108219547D01*
X167616190Y-108600500D01*
X168092380Y-107029071D02*
X167616190Y-107362404D01*
X168092380Y-107600500D02*
X167092380Y-107600500D01*
X167092380Y-107219547D01*
X167140000Y-107124309D01*
X167187619Y-107076690D01*
X167282857Y-107029071D01*
X167425714Y-107029071D01*
X167520952Y-107076690D01*
X167568571Y-107124309D01*
X167616190Y-107219547D01*
X167616190Y-107600500D01*
X168092380Y-106600500D02*
X167092380Y-106600500D01*
X167092380Y-105505261D02*
X167092380Y-104933833D01*
X168092380Y-105219547D02*
X167092380Y-105219547D01*
X168092380Y-104029071D02*
X167616190Y-104362404D01*
X168092380Y-104600500D02*
X167092380Y-104600500D01*
X167092380Y-104219547D01*
X167140000Y-104124309D01*
X167187619Y-104076690D01*
X167282857Y-104029071D01*
X167425714Y-104029071D01*
X167520952Y-104076690D01*
X167568571Y-104124309D01*
X167616190Y-104219547D01*
X167616190Y-104600500D01*
X168092380Y-103600500D02*
X167092380Y-103600500D01*
X167140000Y-102600500D02*
X167092380Y-102695738D01*
X167092380Y-102838595D01*
X167140000Y-102981452D01*
X167235238Y-103076690D01*
X167330476Y-103124309D01*
X167520952Y-103171928D01*
X167663809Y-103171928D01*
X167854285Y-103124309D01*
X167949523Y-103076690D01*
X168044761Y-102981452D01*
X168092380Y-102838595D01*
X168092380Y-102743357D01*
X168044761Y-102600500D01*
X167997142Y-102552880D01*
X167663809Y-102552880D01*
X167663809Y-102743357D01*
D13*
X170923095Y-111013214D02*
X170313571Y-111298928D01*
X170923095Y-111584642D01*
X171304047Y-111679880D02*
X171304047Y-110679880D01*
X171608809Y-110679880D01*
X171685000Y-110727500D01*
X171723095Y-110775119D01*
X171761190Y-110870357D01*
X171761190Y-111013214D01*
X171723095Y-111108452D01*
X171685000Y-111156071D01*
X171608809Y-111203690D01*
X171304047Y-111203690D01*
X172104047Y-110679880D02*
X172104047Y-111489404D01*
X172142142Y-111584642D01*
X172180238Y-111632261D01*
X172256428Y-111679880D01*
X172408809Y-111679880D01*
X172485000Y-111632261D01*
X172523095Y-111584642D01*
X172561190Y-111489404D01*
X172561190Y-110679880D01*
X173323095Y-111679880D02*
X172942142Y-111679880D01*
X172942142Y-110679880D01*
X173970714Y-111679880D02*
X173589761Y-111679880D01*
X173589761Y-110679880D01*
X170465952Y-112998928D02*
X171075476Y-112998928D01*
X171456428Y-112379880D02*
X171456428Y-113189404D01*
X171494523Y-113284642D01*
X171532619Y-113332261D01*
X171608809Y-113379880D01*
X171761190Y-113379880D01*
X171837380Y-113332261D01*
X171875476Y-113284642D01*
X171913571Y-113189404D01*
X171913571Y-112379880D01*
X172294523Y-113379880D02*
X172294523Y-112379880D01*
X172599285Y-112379880D01*
X172675476Y-112427500D01*
X172713571Y-112475119D01*
X172751666Y-112570357D01*
X172751666Y-112713214D01*
X172713571Y-112808452D01*
X172675476Y-112856071D01*
X172599285Y-112903690D01*
X172294523Y-112903690D01*
X173094523Y-112713214D02*
X173704047Y-112998928D01*
X173094523Y-113284642D01*
D11*
X168616380Y-107090357D02*
X168616380Y-106661785D01*
X169616380Y-106876071D02*
X168616380Y-106876071D01*
X169568761Y-106447500D02*
X169616380Y-106340357D01*
X169616380Y-106161785D01*
X169568761Y-106090357D01*
X169521142Y-106054642D01*
X169425904Y-106018928D01*
X169330666Y-106018928D01*
X169235428Y-106054642D01*
X169187809Y-106090357D01*
X169140190Y-106161785D01*
X169092571Y-106304642D01*
X169044952Y-106376071D01*
X168997333Y-106411785D01*
X168902095Y-106447500D01*
X168806857Y-106447500D01*
X168711619Y-106411785D01*
X168664000Y-106376071D01*
X168616380Y-106304642D01*
X168616380Y-106126071D01*
X168664000Y-106018928D01*
X169521142Y-105268928D02*
X169568761Y-105304642D01*
X169616380Y-105411785D01*
X169616380Y-105483214D01*
X169568761Y-105590357D01*
X169473523Y-105661785D01*
X169378285Y-105697500D01*
X169187809Y-105733214D01*
X169044952Y-105733214D01*
X168854476Y-105697500D01*
X168759238Y-105661785D01*
X168664000Y-105590357D01*
X168616380Y-105483214D01*
X168616380Y-105411785D01*
X168664000Y-105304642D01*
X168711619Y-105268928D01*
X168568761Y-104411785D02*
X169854476Y-105054642D01*
X169616380Y-104161785D02*
X168616380Y-104161785D01*
X168616380Y-103983214D01*
X168664000Y-103876071D01*
X168759238Y-103804642D01*
X168854476Y-103768928D01*
X169044952Y-103733214D01*
X169187809Y-103733214D01*
X169378285Y-103768928D01*
X169473523Y-103804642D01*
X169568761Y-103876071D01*
X169616380Y-103983214D01*
X169616380Y-104161785D01*
X169616380Y-103411785D02*
X168616380Y-103411785D01*
X169616380Y-102626071D02*
X169140190Y-102876071D01*
X169616380Y-103054642D02*
X168616380Y-103054642D01*
X168616380Y-102768928D01*
X168664000Y-102697500D01*
X168711619Y-102661785D01*
X168806857Y-102626071D01*
X168949714Y-102626071D01*
X169044952Y-102661785D01*
X169092571Y-102697500D01*
X169140190Y-102768928D01*
X169140190Y-103054642D01*
X169092571Y-102304642D02*
X169092571Y-102054642D01*
X169616380Y-101947500D02*
X169616380Y-102304642D01*
X168616380Y-102304642D01*
X168616380Y-101947500D01*
X169521142Y-101197500D02*
X169568761Y-101233214D01*
X169616380Y-101340357D01*
X169616380Y-101411785D01*
X169568761Y-101518928D01*
X169473523Y-101590357D01*
X169378285Y-101626071D01*
X169187809Y-101661785D01*
X169044952Y-101661785D01*
X168854476Y-101626071D01*
X168759238Y-101590357D01*
X168664000Y-101518928D01*
X168616380Y-101411785D01*
X168616380Y-101340357D01*
X168664000Y-101233214D01*
X168711619Y-101197500D01*
X168616380Y-100983214D02*
X168616380Y-100554642D01*
X169616380Y-100768928D02*
X168616380Y-100768928D01*
X187412380Y-107090357D02*
X187412380Y-106661785D01*
X188412380Y-106876071D02*
X187412380Y-106876071D01*
X188364761Y-106447500D02*
X188412380Y-106340357D01*
X188412380Y-106161785D01*
X188364761Y-106090357D01*
X188317142Y-106054642D01*
X188221904Y-106018928D01*
X188126666Y-106018928D01*
X188031428Y-106054642D01*
X187983809Y-106090357D01*
X187936190Y-106161785D01*
X187888571Y-106304642D01*
X187840952Y-106376071D01*
X187793333Y-106411785D01*
X187698095Y-106447500D01*
X187602857Y-106447500D01*
X187507619Y-106411785D01*
X187460000Y-106376071D01*
X187412380Y-106304642D01*
X187412380Y-106126071D01*
X187460000Y-106018928D01*
X188317142Y-105268928D02*
X188364761Y-105304642D01*
X188412380Y-105411785D01*
X188412380Y-105483214D01*
X188364761Y-105590357D01*
X188269523Y-105661785D01*
X188174285Y-105697500D01*
X187983809Y-105733214D01*
X187840952Y-105733214D01*
X187650476Y-105697500D01*
X187555238Y-105661785D01*
X187460000Y-105590357D01*
X187412380Y-105483214D01*
X187412380Y-105411785D01*
X187460000Y-105304642D01*
X187507619Y-105268928D01*
X187364761Y-104411785D02*
X188650476Y-105054642D01*
X188412380Y-104161785D02*
X187412380Y-104161785D01*
X187412380Y-103983214D01*
X187460000Y-103876071D01*
X187555238Y-103804642D01*
X187650476Y-103768928D01*
X187840952Y-103733214D01*
X187983809Y-103733214D01*
X188174285Y-103768928D01*
X188269523Y-103804642D01*
X188364761Y-103876071D01*
X188412380Y-103983214D01*
X188412380Y-104161785D01*
X188412380Y-103411785D02*
X187412380Y-103411785D01*
X188412380Y-102626071D02*
X187936190Y-102876071D01*
X188412380Y-103054642D02*
X187412380Y-103054642D01*
X187412380Y-102768928D01*
X187460000Y-102697500D01*
X187507619Y-102661785D01*
X187602857Y-102626071D01*
X187745714Y-102626071D01*
X187840952Y-102661785D01*
X187888571Y-102697500D01*
X187936190Y-102768928D01*
X187936190Y-103054642D01*
X187888571Y-102304642D02*
X187888571Y-102054642D01*
X188412380Y-101947500D02*
X188412380Y-102304642D01*
X187412380Y-102304642D01*
X187412380Y-101947500D01*
X188317142Y-101197500D02*
X188364761Y-101233214D01*
X188412380Y-101340357D01*
X188412380Y-101411785D01*
X188364761Y-101518928D01*
X188269523Y-101590357D01*
X188174285Y-101626071D01*
X187983809Y-101661785D01*
X187840952Y-101661785D01*
X187650476Y-101626071D01*
X187555238Y-101590357D01*
X187460000Y-101518928D01*
X187412380Y-101411785D01*
X187412380Y-101340357D01*
X187460000Y-101233214D01*
X187507619Y-101197500D01*
X187412380Y-100983214D02*
X187412380Y-100554642D01*
X188412380Y-100768928D02*
X187412380Y-100768928D01*
D20*
X116130000Y-95170000D02*
X116130000Y-94840000D01*
X109590000Y-95170000D02*
X116130000Y-95170000D01*
X109590000Y-94840000D02*
X109590000Y-95170000D01*
X116130000Y-92430000D02*
X116130000Y-92760000D01*
X109590000Y-92430000D02*
X116130000Y-92430000D01*
X109590000Y-92760000D02*
X109590000Y-92430000D01*
X114925500Y-77886000D02*
X117865500Y-77886000D01*
X114925500Y-77646000D02*
X117865500Y-77646000D01*
X114925500Y-77766000D02*
X117865500Y-77766000D01*
X117865500Y-73226000D02*
X117735500Y-73226000D01*
X117865500Y-78666000D02*
X117865500Y-73226000D01*
X117735500Y-78666000D02*
X117865500Y-78666000D01*
X114925500Y-73226000D02*
X115055500Y-73226000D01*
X114925500Y-78666000D02*
X114925500Y-73226000D01*
X115055500Y-78666000D02*
X114925500Y-78666000D01*
X111496500Y-77886000D02*
X114436500Y-77886000D01*
X111496500Y-77646000D02*
X114436500Y-77646000D01*
X111496500Y-77766000D02*
X114436500Y-77766000D01*
X114436500Y-73226000D02*
X114306500Y-73226000D01*
X114436500Y-78666000D02*
X114436500Y-73226000D01*
X114306500Y-78666000D02*
X114436500Y-78666000D01*
X111496500Y-73226000D02*
X111626500Y-73226000D01*
X111496500Y-78666000D02*
X111496500Y-73226000D01*
X111626500Y-78666000D02*
X111496500Y-78666000D01*
X154994000Y-90109000D02*
X157934000Y-90109000D01*
X154994000Y-89869000D02*
X157934000Y-89869000D01*
X154994000Y-89989000D02*
X157934000Y-89989000D01*
X157934000Y-85449000D02*
X157804000Y-85449000D01*
X157934000Y-90889000D02*
X157934000Y-85449000D01*
X157804000Y-90889000D02*
X157934000Y-90889000D01*
X154994000Y-85449000D02*
X155124000Y-85449000D01*
X154994000Y-90889000D02*
X154994000Y-85449000D01*
X155124000Y-90889000D02*
X154994000Y-90889000D01*
X151589000Y-90109000D02*
X154529000Y-90109000D01*
X151589000Y-89869000D02*
X154529000Y-89869000D01*
X151589000Y-89989000D02*
X154529000Y-89989000D01*
X154529000Y-85449000D02*
X154399000Y-85449000D01*
X154529000Y-90889000D02*
X154529000Y-85449000D01*
X154399000Y-90889000D02*
X154529000Y-90889000D01*
X151589000Y-85449000D02*
X151719000Y-85449000D01*
X151589000Y-90889000D02*
X151589000Y-85449000D01*
X151719000Y-90889000D02*
X151589000Y-90889000D01*
X112642000Y-108307000D02*
X112642000Y-97687000D01*
X112642000Y-97687000D02*
X92082000Y-97687000D01*
X92082000Y-97687000D02*
X92082000Y-108307000D01*
X92082000Y-108307000D02*
X112642000Y-108307000D01*
X113060000Y-105710000D02*
X112930000Y-105710000D01*
X112930000Y-105710000D02*
X112930000Y-100270000D01*
X112930000Y-100270000D02*
X113060000Y-100270000D01*
X115740000Y-105710000D02*
X115870000Y-105710000D01*
X115870000Y-105710000D02*
X115870000Y-100270000D01*
X115870000Y-100270000D02*
X115740000Y-100270000D01*
X112930000Y-104810000D02*
X115870000Y-104810000D01*
X112930000Y-104690000D02*
X115870000Y-104690000D01*
X112930000Y-104930000D02*
X115870000Y-104930000D01*
X112320000Y-101020000D02*
X109380000Y-101020000D01*
X112320000Y-101260000D02*
X109380000Y-101260000D01*
X112320000Y-101140000D02*
X109380000Y-101140000D01*
X109380000Y-105680000D02*
X109510000Y-105680000D01*
X109380000Y-100240000D02*
X109380000Y-105680000D01*
X109510000Y-100240000D02*
X109380000Y-100240000D01*
X112320000Y-105680000D02*
X112190000Y-105680000D01*
X112320000Y-100240000D02*
X112320000Y-105680000D01*
X112190000Y-100240000D02*
X112320000Y-100240000D01*
X94410000Y-113490000D02*
X94410000Y-112100000D01*
X95800000Y-113490000D02*
X94410000Y-113490000D01*
X97070000Y-110710000D02*
X97070000Y-113490000D01*
X99730000Y-110710000D02*
X97070000Y-110710000D01*
X99730000Y-113490000D02*
X99730000Y-110710000D01*
X97070000Y-113490000D02*
X99730000Y-113490000D01*
X157635500Y-102207500D02*
X157635500Y-101877500D01*
X157635500Y-101877500D02*
X164055500Y-101877500D01*
X164055500Y-101877500D02*
X164055500Y-102207500D01*
X157635500Y-104167500D02*
X157635500Y-104497500D01*
X157635500Y-104497500D02*
X164055500Y-104497500D01*
X164055500Y-104497500D02*
X164055500Y-104167500D01*
X165761500Y-105716000D02*
X165761500Y-109636000D01*
X163041500Y-105716000D02*
X163041500Y-109636000D01*
X165761500Y-105716000D02*
X165151500Y-105716000D01*
X163651500Y-105716000D02*
X163041500Y-105716000D01*
X165761500Y-109636000D02*
X165151500Y-109636000D01*
X163651500Y-109636000D02*
X163041500Y-109636000D01*
X128360000Y-108510000D02*
X128360000Y-112430000D01*
X125640000Y-108510000D02*
X125640000Y-112430000D01*
X128360000Y-108510000D02*
X127750000Y-108510000D01*
X126250000Y-108510000D02*
X125640000Y-108510000D01*
X128360000Y-112430000D02*
X127750000Y-112430000D01*
X126250000Y-112430000D02*
X125640000Y-112430000D01*
X103320000Y-88850000D02*
X103320000Y-90850000D01*
X101180000Y-90850000D02*
X101180000Y-88850000D01*
X166099000Y-80397500D02*
X166579000Y-80397500D01*
X166579000Y-80397500D02*
X166579000Y-90417500D01*
X166579000Y-90417500D02*
X166099000Y-90417500D01*
X163339000Y-80397500D02*
X162859000Y-80397500D01*
X162859000Y-80397500D02*
X162859000Y-90417500D01*
X162859000Y-90417500D02*
X163339000Y-90417500D01*
D10*
X93972000Y-115890500D02*
X94472000Y-115390500D01*
X93472000Y-115390500D02*
X93972000Y-115890500D01*
X93472000Y-115390500D02*
X93972000Y-114890500D01*
X93972000Y-114890500D02*
X94472000Y-115390500D01*
X93472000Y-115390500D02*
X94472000Y-115390500D01*
X93972000Y-114890500D02*
X93972000Y-115890500D01*
X94472000Y-115390500D02*
X95472000Y-114390500D01*
X94472000Y-115390500D02*
X95472000Y-116390500D01*
X92472000Y-116390500D02*
X93472000Y-115390500D01*
X92472000Y-114390500D02*
X93472000Y-115390500D01*
D20*
X170159500Y-72393000D02*
X170159500Y-69593000D01*
X170159500Y-69593000D02*
X146959500Y-69593000D01*
X146959500Y-69593000D02*
X146959500Y-72393000D01*
X146959500Y-72393000D02*
X170159500Y-72393000D01*
X167449500Y-72393000D02*
X167449500Y-69593000D01*
X124039000Y-85962500D02*
X134279000Y-85962500D01*
X124039000Y-90603500D02*
X134279000Y-90603500D01*
X124039000Y-85962500D02*
X124039000Y-90603500D01*
X134279000Y-85962500D02*
X134279000Y-90603500D01*
X124039000Y-87472500D02*
X134279000Y-87472500D01*
X127309000Y-85962500D02*
X127309000Y-87472500D01*
X131010000Y-85962500D02*
X131010000Y-87472500D01*
X124039000Y-80120500D02*
X134279000Y-80120500D01*
X124039000Y-84761500D02*
X134279000Y-84761500D01*
X124039000Y-80120500D02*
X124039000Y-84761500D01*
X134279000Y-80120500D02*
X134279000Y-84761500D01*
X124039000Y-81630500D02*
X134279000Y-81630500D01*
X127309000Y-80120500D02*
X127309000Y-81630500D01*
X131010000Y-80120500D02*
X131010000Y-81630500D01*
X124039000Y-74342000D02*
X134279000Y-74342000D01*
X124039000Y-78983000D02*
X134279000Y-78983000D01*
X124039000Y-74342000D02*
X124039000Y-78983000D01*
X134279000Y-74342000D02*
X134279000Y-78983000D01*
X124039000Y-75852000D02*
X134279000Y-75852000D01*
X127309000Y-74342000D02*
X127309000Y-75852000D01*
X131010000Y-74342000D02*
X131010000Y-75852000D01*
X135405500Y-74342000D02*
X145645500Y-74342000D01*
X135405500Y-78983000D02*
X145645500Y-78983000D01*
X135405500Y-74342000D02*
X135405500Y-78983000D01*
X145645500Y-74342000D02*
X145645500Y-78983000D01*
X135405500Y-75852000D02*
X145645500Y-75852000D01*
X138675500Y-74342000D02*
X138675500Y-75852000D01*
X142376500Y-74342000D02*
X142376500Y-75852000D01*
X135405500Y-80120500D02*
X145645500Y-80120500D01*
X135405500Y-84761500D02*
X145645500Y-84761500D01*
X135405500Y-80120500D02*
X135405500Y-84761500D01*
X145645500Y-80120500D02*
X145645500Y-84761500D01*
X135405500Y-81630500D02*
X145645500Y-81630500D01*
X138675500Y-80120500D02*
X138675500Y-81630500D01*
X142376500Y-80120500D02*
X142376500Y-81630500D01*
X135405500Y-85962500D02*
X145645500Y-85962500D01*
X135405500Y-90603500D02*
X145645500Y-90603500D01*
X135405500Y-85962500D02*
X135405500Y-90603500D01*
X145645500Y-85962500D02*
X145645500Y-90603500D01*
X135405500Y-87472500D02*
X145645500Y-87472500D01*
X138675500Y-85962500D02*
X138675500Y-87472500D01*
X142376500Y-85962500D02*
X142376500Y-87472500D01*
X118064500Y-93600500D02*
X118064500Y-101350500D01*
X159664500Y-93600500D02*
X159664500Y-101350500D01*
X118064500Y-93600500D02*
X159664500Y-93600500D01*
X118064500Y-101350500D02*
X159664500Y-101350500D01*
X119040000Y-112430000D02*
X119040000Y-108510000D01*
X121760000Y-112430000D02*
X121760000Y-108510000D01*
X119040000Y-112430000D02*
X119650000Y-112430000D01*
X121150000Y-112430000D02*
X121760000Y-112430000D01*
X119040000Y-108510000D02*
X119650000Y-108510000D01*
X121150000Y-108510000D02*
X121760000Y-108510000D01*
X158957500Y-90417500D02*
X158477500Y-90417500D01*
X158477500Y-90417500D02*
X158477500Y-80397500D01*
X158477500Y-80397500D02*
X158957500Y-80397500D01*
X161717500Y-90417500D02*
X162197500Y-90417500D01*
X162197500Y-90417500D02*
X162197500Y-80397500D01*
X162197500Y-80397500D02*
X161717500Y-80397500D01*
X113763557Y-64486838D02*
G75*
G03X113764500Y-70347478I980943J-2930162D01*
G01*
X115725443Y-64486838D02*
G75*
G02X115724500Y-70347478I-980943J-2930162D01*
G01*
X115725443Y-64486838D02*
G75*
G03X113764500Y-64486522I-980943J-2930162D01*
G01*
X114744500Y-70867000D02*
X114744500Y-69667000D01*
X114094500Y-70267000D02*
X115394500Y-70267000D01*
X120487943Y-86452662D02*
G75*
G03X120487000Y-80592022I-980943J2930162D01*
G01*
X118526057Y-86452662D02*
G75*
G02X118527000Y-80592022I980943J2930162D01*
G01*
X118526057Y-86452662D02*
G75*
G03X120487000Y-86452978I980943J2930162D01*
G01*
X119507000Y-80072500D02*
X119507000Y-81272500D01*
X120157000Y-80672500D02*
X118857000Y-80672500D01*
D10*
X122598500Y-79826000D02*
X122598500Y-64326000D01*
X118398500Y-79826000D02*
X118398500Y-64326000D01*
X118398500Y-64326000D02*
X122598500Y-64326000D01*
X118398500Y-79826000D02*
X122598500Y-79826000D01*
D20*
X145013500Y-72393000D02*
X145013500Y-69593000D01*
X145013500Y-69593000D02*
X124353500Y-69593000D01*
X124353500Y-69593000D02*
X124353500Y-72393000D01*
X124353500Y-72393000D02*
X145013500Y-72393000D01*
X142303500Y-72393000D02*
X142303500Y-69593000D01*
X135044000Y-107826000D02*
X135044000Y-105026000D01*
X135044000Y-105026000D02*
X119464000Y-105026000D01*
X119464000Y-105026000D02*
X119464000Y-107826000D01*
X119464000Y-107826000D02*
X135044000Y-107826000D01*
X132334000Y-107826000D02*
X132334000Y-105026000D01*
X161968000Y-107826000D02*
X161968000Y-105026000D01*
X161968000Y-105026000D02*
X146388000Y-105026000D01*
X146388000Y-105026000D02*
X146388000Y-107826000D01*
X146388000Y-107826000D02*
X161968000Y-107826000D01*
X159258000Y-107826000D02*
X159258000Y-105026000D01*
X190308608Y-100055935D02*
G75*
G03X190465516Y-96823600I-1078608J1672335D01*
G01*
X188151392Y-100055935D02*
G75*
G02X187994484Y-96823600I1078608J1672335D01*
G01*
X190309837Y-99424730D02*
G75*
G03X190310000Y-97342639I-1079837J1041130D01*
G01*
X188150163Y-99424730D02*
G75*
G02X188150000Y-97342639I1079837J1041130D01*
G01*
X190466000Y-96823600D02*
X190310000Y-96823600D01*
X188150000Y-96823600D02*
X187994000Y-96823600D01*
X190308608Y-94975935D02*
G75*
G03X190465516Y-91743600I-1078608J1672335D01*
G01*
X188151392Y-94975935D02*
G75*
G02X187994484Y-91743600I1078608J1672335D01*
G01*
X190309837Y-94344730D02*
G75*
G03X190310000Y-92262639I-1079837J1041130D01*
G01*
X188150163Y-94344730D02*
G75*
G02X188150000Y-92262639I1079837J1041130D01*
G01*
X190466000Y-91743600D02*
X190310000Y-91743600D01*
X188150000Y-91743600D02*
X187994000Y-91743600D01*
X190308608Y-89895935D02*
G75*
G03X190465516Y-86663600I-1078608J1672335D01*
G01*
X188151392Y-89895935D02*
G75*
G02X187994484Y-86663600I1078608J1672335D01*
G01*
X190309837Y-89264730D02*
G75*
G03X190310000Y-87182639I-1079837J1041130D01*
G01*
X188150163Y-89264730D02*
G75*
G02X188150000Y-87182639I1079837J1041130D01*
G01*
X190466000Y-86663600D02*
X190310000Y-86663600D01*
X188150000Y-86663600D02*
X187994000Y-86663600D01*
X190308608Y-84815935D02*
G75*
G03X190465516Y-81583600I-1078608J1672335D01*
G01*
X188151392Y-84815935D02*
G75*
G02X187994484Y-81583600I1078608J1672335D01*
G01*
X190309837Y-84184730D02*
G75*
G03X190310000Y-82102639I-1079837J1041130D01*
G01*
X188150163Y-84184730D02*
G75*
G02X188150000Y-82102639I1079837J1041130D01*
G01*
X190466000Y-81583600D02*
X190310000Y-81583600D01*
X188150000Y-81583600D02*
X187994000Y-81583600D01*
X181690000Y-85110000D02*
X181690000Y-81190000D01*
X184410000Y-85110000D02*
X184410000Y-81190000D01*
X181690000Y-85110000D02*
X182300000Y-85110000D01*
X183800000Y-85110000D02*
X184410000Y-85110000D01*
X181690000Y-81190000D02*
X182300000Y-81190000D01*
X183800000Y-81190000D02*
X184410000Y-81190000D01*
X184410000Y-75426500D02*
X184410000Y-79346500D01*
X181690000Y-75426500D02*
X181690000Y-79346500D01*
X184410000Y-75426500D02*
X183800000Y-75426500D01*
X182300000Y-75426500D02*
X181690000Y-75426500D01*
X184410000Y-79346500D02*
X183800000Y-79346500D01*
X182300000Y-79346500D02*
X181690000Y-79346500D01*
X103740000Y-89240000D02*
X107660000Y-89240000D01*
X103740000Y-91960000D02*
X107660000Y-91960000D01*
X103740000Y-89240000D02*
X103740000Y-89850000D01*
X103740000Y-91350000D02*
X103740000Y-91960000D01*
X107660000Y-89240000D02*
X107660000Y-89850000D01*
X107660000Y-91350000D02*
X107660000Y-91960000D01*
X122581500Y-87277500D02*
X122581500Y-91197500D01*
X119861500Y-87277500D02*
X119861500Y-91197500D01*
X122581500Y-87277500D02*
X121971500Y-87277500D01*
X120471500Y-87277500D02*
X119861500Y-87277500D01*
X122581500Y-91197500D02*
X121971500Y-91197500D01*
X120471500Y-91197500D02*
X119861500Y-91197500D01*
X134964000Y-108510000D02*
X134964000Y-112430000D01*
X132244000Y-108510000D02*
X132244000Y-112430000D01*
X134964000Y-108510000D02*
X134354000Y-108510000D01*
X132854000Y-108510000D02*
X132244000Y-108510000D01*
X134964000Y-112430000D02*
X134354000Y-112430000D01*
X132854000Y-112430000D02*
X132244000Y-112430000D01*
X131662000Y-108510000D02*
X131662000Y-112430000D01*
X128942000Y-108510000D02*
X128942000Y-112430000D01*
X131662000Y-108510000D02*
X131052000Y-108510000D01*
X129552000Y-108510000D02*
X128942000Y-108510000D01*
X131662000Y-112430000D02*
X131052000Y-112430000D01*
X129552000Y-112430000D02*
X128942000Y-112430000D01*
X125060000Y-108510000D02*
X125060000Y-112430000D01*
X122340000Y-108510000D02*
X122340000Y-112430000D01*
X125060000Y-108510000D02*
X124450000Y-108510000D01*
X122950000Y-108510000D02*
X122340000Y-108510000D01*
X125060000Y-112430000D02*
X124450000Y-112430000D01*
X122950000Y-112430000D02*
X122340000Y-112430000D01*
X149188000Y-108510000D02*
X149188000Y-112430000D01*
X146468000Y-108510000D02*
X146468000Y-112430000D01*
X149188000Y-108510000D02*
X148578000Y-108510000D01*
X147078000Y-108510000D02*
X146468000Y-108510000D01*
X149188000Y-112430000D02*
X148578000Y-112430000D01*
X147078000Y-112430000D02*
X146468000Y-112430000D01*
X162396000Y-108510000D02*
X162396000Y-112430000D01*
X159676000Y-108510000D02*
X159676000Y-112430000D01*
X162396000Y-108510000D02*
X161786000Y-108510000D01*
X160286000Y-108510000D02*
X159676000Y-108510000D01*
X162396000Y-112430000D02*
X161786000Y-112430000D01*
X160286000Y-112430000D02*
X159676000Y-112430000D01*
X159094000Y-108510000D02*
X159094000Y-112430000D01*
X156374000Y-108510000D02*
X156374000Y-112430000D01*
X159094000Y-108510000D02*
X158484000Y-108510000D01*
X156984000Y-108510000D02*
X156374000Y-108510000D01*
X159094000Y-112430000D02*
X158484000Y-112430000D01*
X156984000Y-112430000D02*
X156374000Y-112430000D01*
X155792000Y-108510000D02*
X155792000Y-112430000D01*
X153072000Y-108510000D02*
X153072000Y-112430000D01*
X155792000Y-108510000D02*
X155182000Y-108510000D01*
X153682000Y-108510000D02*
X153072000Y-108510000D01*
X155792000Y-112430000D02*
X155182000Y-112430000D01*
X153682000Y-112430000D02*
X153072000Y-112430000D01*
X111235500Y-91607000D02*
X111235500Y-81367000D01*
X115876500Y-91607000D02*
X115876500Y-81367000D01*
X111235500Y-91607000D02*
X115876500Y-91607000D01*
X111235500Y-81367000D02*
X115876500Y-81367000D01*
X112745500Y-91607000D02*
X112745500Y-81367000D01*
X111235500Y-88337000D02*
X112745500Y-88337000D01*
X111235500Y-84636000D02*
X112745500Y-84636000D01*
X119216000Y-87277500D02*
X119216000Y-91197500D01*
X116496000Y-87277500D02*
X116496000Y-91197500D01*
X119216000Y-87277500D02*
X118606000Y-87277500D01*
X117106000Y-87277500D02*
X116496000Y-87277500D01*
X119216000Y-91197500D02*
X118606000Y-91197500D01*
X117106000Y-91197500D02*
X116496000Y-91197500D01*
X173362000Y-103902000D02*
G75*
G02X173362000Y-105902000I0J-1000000D01*
G01*
X173362000Y-105902000D02*
X173362000Y-107672000D01*
X173362000Y-107672000D02*
X183762000Y-107672000D01*
X183762000Y-107672000D02*
X183762000Y-102132000D01*
X183762000Y-102132000D02*
X173362000Y-102132000D01*
X173362000Y-102132000D02*
X173362000Y-103902000D01*
X173362000Y-110102000D02*
X183762000Y-110102000D01*
X183762000Y-110102000D02*
X183762000Y-99702000D01*
X183762000Y-99702000D02*
X173362000Y-99702000D01*
X173362000Y-99702000D02*
X173362000Y-110102000D01*
X152490000Y-108510000D02*
X152490000Y-112430000D01*
X149770000Y-108510000D02*
X149770000Y-112430000D01*
X152490000Y-108510000D02*
X151880000Y-108510000D01*
X150380000Y-108510000D02*
X149770000Y-108510000D01*
X152490000Y-112430000D02*
X151880000Y-112430000D01*
X150380000Y-112430000D02*
X149770000Y-112430000D01*
X183812000Y-116716000D02*
X183812000Y-113916000D01*
X183812000Y-113916000D02*
X163152000Y-113916000D01*
X163152000Y-113916000D02*
X163152000Y-116716000D01*
X163152000Y-116716000D02*
X183812000Y-116716000D01*
X181102000Y-116716000D02*
X181102000Y-113916000D01*
X108728000Y-85471000D02*
X108728000Y-86741000D01*
X108728000Y-86741000D02*
X107458000Y-86741000D01*
X164614000Y-93527000D02*
X161014000Y-93527000D01*
X164652478Y-93538522D02*
G75*
G02X162814000Y-97977000I-1838478J-1838478D01*
G01*
X160975522Y-93538522D02*
G75*
G03X162814000Y-97977000I1838478J-1838478D01*
G01*
X165862000Y-113404000D02*
X168522000Y-113404000D01*
X168522000Y-113404000D02*
X168522000Y-110624000D01*
X168522000Y-110624000D02*
X165862000Y-110624000D01*
X165862000Y-110624000D02*
X165862000Y-113404000D01*
X164592000Y-113404000D02*
X163202000Y-113404000D01*
X163202000Y-113404000D02*
X163202000Y-112014000D01*
X178562000Y-110624000D02*
X175902000Y-110624000D01*
X175902000Y-110624000D02*
X175902000Y-113404000D01*
X175902000Y-113404000D02*
X178562000Y-113404000D01*
X178562000Y-113404000D02*
X178562000Y-110624000D01*
X179832000Y-110624000D02*
X181222000Y-110624000D01*
X181222000Y-110624000D02*
X181222000Y-112014000D01*
X187064000Y-104902000D02*
X187064000Y-99702000D01*
X187064000Y-99702000D02*
X184284000Y-99702000D01*
X184284000Y-99702000D02*
X184284000Y-104902000D01*
X184284000Y-104902000D02*
X187064000Y-104902000D01*
X187064000Y-106172000D02*
X187064000Y-107562000D01*
X187064000Y-107562000D02*
X185674000Y-107562000D01*
X172840000Y-104902000D02*
X172840000Y-99702000D01*
X172840000Y-99702000D02*
X170060000Y-99702000D01*
X170060000Y-99702000D02*
X170060000Y-104902000D01*
X170060000Y-104902000D02*
X172840000Y-104902000D01*
X172840000Y-106172000D02*
X172840000Y-107562000D01*
X172840000Y-107562000D02*
X171450000Y-107562000D01*
X149250886Y-80201466D02*
X154450886Y-80201466D01*
X154450886Y-80201466D02*
X154450886Y-77421466D01*
X154450886Y-77421466D02*
X149250886Y-77421466D01*
X149250886Y-77421466D02*
X149250886Y-80201466D01*
X147980886Y-80201466D02*
X146590886Y-80201466D01*
X146590886Y-80201466D02*
X146590886Y-78811466D01*
X167619500Y-75758500D02*
X167619500Y-72958500D01*
X167619500Y-72958500D02*
X146959500Y-72958500D01*
X146959500Y-72958500D02*
X146959500Y-75758500D01*
X146959500Y-75758500D02*
X167619500Y-75758500D01*
X164909500Y-75758500D02*
X164909500Y-72958500D01*
X133500000Y-104167500D02*
X133500000Y-104497500D01*
X133500000Y-104497500D02*
X127080000Y-104497500D01*
X127080000Y-104497500D02*
X127080000Y-104167500D01*
X133500000Y-102207500D02*
X133500000Y-101877500D01*
X133500000Y-101877500D02*
X127080000Y-101877500D01*
X127080000Y-101877500D02*
X127080000Y-102207500D01*
X154340000Y-104167500D02*
X154340000Y-104497500D01*
X154340000Y-104497500D02*
X147920000Y-104497500D01*
X147920000Y-104497500D02*
X147920000Y-104167500D01*
X154340000Y-102207500D02*
X154340000Y-101877500D01*
X154340000Y-101877500D02*
X147920000Y-101877500D01*
X147920000Y-101877500D02*
X147920000Y-102207500D01*
X123775000Y-104167500D02*
X123775000Y-104497500D01*
X123775000Y-104497500D02*
X117355000Y-104497500D01*
X117355000Y-104497500D02*
X117355000Y-104167500D01*
X123775000Y-102207500D02*
X123775000Y-101877500D01*
X123775000Y-101877500D02*
X117355000Y-101877500D01*
X117355000Y-101877500D02*
X117355000Y-102207500D01*
X182534000Y-88673500D02*
X182534000Y-89003500D01*
X182534000Y-89003500D02*
X176114000Y-89003500D01*
X176114000Y-89003500D02*
X176114000Y-88673500D01*
X182534000Y-86713500D02*
X182534000Y-86383500D01*
X182534000Y-86383500D02*
X176114000Y-86383500D01*
X176114000Y-86383500D02*
X176114000Y-86713500D01*
X182534000Y-91912000D02*
X182534000Y-92242000D01*
X182534000Y-92242000D02*
X176114000Y-92242000D01*
X176114000Y-92242000D02*
X176114000Y-91912000D01*
X182534000Y-89952000D02*
X182534000Y-89622000D01*
X182534000Y-89622000D02*
X176114000Y-89622000D01*
X176114000Y-89622000D02*
X176114000Y-89952000D01*
X176114000Y-93190500D02*
X176114000Y-92860500D01*
X176114000Y-92860500D02*
X182534000Y-92860500D01*
X182534000Y-92860500D02*
X182534000Y-93190500D01*
X176114000Y-95150500D02*
X176114000Y-95480500D01*
X176114000Y-95480500D02*
X182534000Y-95480500D01*
X182534000Y-95480500D02*
X182534000Y-95150500D01*
X176114000Y-96429000D02*
X176114000Y-96099000D01*
X176114000Y-96099000D02*
X182534000Y-96099000D01*
X182534000Y-96099000D02*
X182534000Y-96429000D01*
X176114000Y-98389000D02*
X176114000Y-98719000D01*
X176114000Y-98719000D02*
X182534000Y-98719000D01*
X182534000Y-98719000D02*
X182534000Y-98389000D01*
X167676000Y-95666000D02*
X167346000Y-95666000D01*
X167346000Y-95666000D02*
X167346000Y-89246000D01*
X167346000Y-89246000D02*
X167676000Y-89246000D01*
X169636000Y-95666000D02*
X169966000Y-95666000D01*
X169966000Y-95666000D02*
X169966000Y-89246000D01*
X169966000Y-89246000D02*
X169636000Y-89246000D01*
X172874500Y-89246000D02*
X173204500Y-89246000D01*
X173204500Y-89246000D02*
X173204500Y-95666000D01*
X173204500Y-95666000D02*
X172874500Y-95666000D01*
X170914500Y-89246000D02*
X170584500Y-89246000D01*
X170584500Y-89246000D02*
X170584500Y-95666000D01*
X170584500Y-95666000D02*
X170914500Y-95666000D01*
X108480000Y-99450000D02*
X108810000Y-99450000D01*
X108810000Y-99450000D02*
X108810000Y-105870000D01*
X108810000Y-105870000D02*
X108480000Y-105870000D01*
X106520000Y-99450000D02*
X106190000Y-99450000D01*
X106190000Y-99450000D02*
X106190000Y-105870000D01*
X106190000Y-105870000D02*
X106520000Y-105870000D01*
X90420000Y-97500000D02*
X103770000Y-97500000D01*
X103770000Y-97500000D02*
X103770000Y-108500000D01*
X103770000Y-108500000D02*
X90420000Y-108500000D01*
X90420000Y-108500000D02*
X90420000Y-97500000D01*
X173581000Y-86911500D02*
X173581000Y-87225500D01*
X173581000Y-84605500D02*
X173581000Y-84919500D01*
X167461000Y-86911500D02*
X167461000Y-87225500D01*
X167461000Y-84605500D02*
X167461000Y-84919500D01*
X167461000Y-87225500D02*
X173581000Y-87225500D01*
X167461000Y-84605500D02*
X173581000Y-84605500D01*
X100640000Y-92540000D02*
X106760000Y-92540000D01*
X100640000Y-95160000D02*
X106760000Y-95160000D01*
X100640000Y-92540000D02*
X100640000Y-92854000D01*
X100640000Y-94846000D02*
X100640000Y-95160000D01*
X106760000Y-92540000D02*
X106760000Y-92854000D01*
X106760000Y-94846000D02*
X106760000Y-95160000D01*
X147641000Y-92897000D02*
X150301000Y-92897000D01*
X147641000Y-85217000D02*
X147641000Y-92897000D01*
X150301000Y-85217000D02*
X150301000Y-92897000D01*
X147641000Y-85217000D02*
X150301000Y-85217000D01*
X147641000Y-83947000D02*
X147641000Y-82617000D01*
X147641000Y-82617000D02*
X148971000Y-82617000D01*
X98980000Y-88950000D02*
X98980000Y-90950000D01*
X101020000Y-90950000D02*
X101020000Y-88950000D01*
X105085100Y-86105000D02*
X103685100Y-87505000D01*
X95085100Y-81295000D02*
X95085100Y-79885000D01*
X95085100Y-79885000D02*
X105085100Y-79885000D01*
X105085100Y-79885000D02*
X105085100Y-81295000D01*
X103685100Y-87505000D02*
X95085100Y-87505000D01*
X95085100Y-87505000D02*
X95085100Y-86095000D01*
X181200000Y-72330000D02*
X181200000Y-69670000D01*
X173520000Y-72330000D02*
X181200000Y-72330000D01*
X173520000Y-69670000D02*
X181200000Y-69670000D01*
X173520000Y-72330000D02*
X173520000Y-69670000D01*
X172250000Y-72330000D02*
X170920000Y-72330000D01*
X170920000Y-72330000D02*
X170920000Y-71000000D01*
X179320500Y-82025000D02*
X179320500Y-80375000D01*
X169040500Y-82025000D02*
X179320500Y-82025000D01*
X169040500Y-76725000D02*
X169040500Y-82025000D01*
X179320500Y-76725000D02*
X169040500Y-76725000D01*
X179320500Y-78375000D02*
X179320500Y-76725000D01*
X179320500Y-80375000D02*
G75*
G02X179320500Y-78375000I0J1000000D01*
G01*
X141716000Y-102746500D02*
G75*
G02X139716000Y-102746500I-1000000J0D01*
G01*
X139716000Y-102746500D02*
X138066000Y-102746500D01*
X138066000Y-102746500D02*
X138066000Y-113026500D01*
X138066000Y-113026500D02*
X143366000Y-113026500D01*
X143366000Y-113026500D02*
X143366000Y-102746500D01*
X143366000Y-102746500D02*
X141716000Y-102746500D01*
D10*
X112007142Y-94252380D02*
X111673809Y-93776190D01*
X111435714Y-94252380D02*
X111435714Y-93252380D01*
X111816666Y-93252380D01*
X111911904Y-93300000D01*
X111959523Y-93347619D01*
X112007142Y-93442857D01*
X112007142Y-93585714D01*
X111959523Y-93680952D01*
X111911904Y-93728571D01*
X111816666Y-93776190D01*
X111435714Y-93776190D01*
X112959523Y-94252380D02*
X112388095Y-94252380D01*
X112673809Y-94252380D02*
X112673809Y-93252380D01*
X112578571Y-93395238D01*
X112483333Y-93490476D01*
X112388095Y-93538095D01*
X113864285Y-93252380D02*
X113388095Y-93252380D01*
X113340476Y-93728571D01*
X113388095Y-93680952D01*
X113483333Y-93633333D01*
X113721428Y-93633333D01*
X113816666Y-93680952D01*
X113864285Y-93728571D01*
X113911904Y-93823809D01*
X113911904Y-94061904D01*
X113864285Y-94157142D01*
X113816666Y-94204761D01*
X113721428Y-94252380D01*
X113483333Y-94252380D01*
X113388095Y-94204761D01*
X113340476Y-94157142D01*
X116852380Y-76438095D02*
X115852380Y-76438095D01*
X115852380Y-76200000D01*
X115900000Y-76057142D01*
X115995238Y-75961904D01*
X116090476Y-75914285D01*
X116280952Y-75866666D01*
X116423809Y-75866666D01*
X116614285Y-75914285D01*
X116709523Y-75961904D01*
X116804761Y-76057142D01*
X116852380Y-76200000D01*
X116852380Y-76438095D01*
X116185714Y-75009523D02*
X116852380Y-75009523D01*
X115804761Y-75247619D02*
X116519047Y-75485714D01*
X116519047Y-74866666D01*
X113402380Y-76438095D02*
X112402380Y-76438095D01*
X112402380Y-76200000D01*
X112450000Y-76057142D01*
X112545238Y-75961904D01*
X112640476Y-75914285D01*
X112830952Y-75866666D01*
X112973809Y-75866666D01*
X113164285Y-75914285D01*
X113259523Y-75961904D01*
X113354761Y-76057142D01*
X113402380Y-76200000D01*
X113402380Y-76438095D01*
X112402380Y-75533333D02*
X112402380Y-74914285D01*
X112783333Y-75247619D01*
X112783333Y-75104761D01*
X112830952Y-75009523D01*
X112878571Y-74961904D01*
X112973809Y-74914285D01*
X113211904Y-74914285D01*
X113307142Y-74961904D01*
X113354761Y-75009523D01*
X113402380Y-75104761D01*
X113402380Y-75390476D01*
X113354761Y-75485714D01*
X113307142Y-75533333D01*
X156902380Y-88438095D02*
X155902380Y-88438095D01*
X155902380Y-88200000D01*
X155950000Y-88057142D01*
X156045238Y-87961904D01*
X156140476Y-87914285D01*
X156330952Y-87866666D01*
X156473809Y-87866666D01*
X156664285Y-87914285D01*
X156759523Y-87961904D01*
X156854761Y-88057142D01*
X156902380Y-88200000D01*
X156902380Y-88438095D01*
X155997619Y-87485714D02*
X155950000Y-87438095D01*
X155902380Y-87342857D01*
X155902380Y-87104761D01*
X155950000Y-87009523D01*
X155997619Y-86961904D01*
X156092857Y-86914285D01*
X156188095Y-86914285D01*
X156330952Y-86961904D01*
X156902380Y-87533333D01*
X156902380Y-86914285D01*
X153502380Y-88438095D02*
X152502380Y-88438095D01*
X152502380Y-88200000D01*
X152550000Y-88057142D01*
X152645238Y-87961904D01*
X152740476Y-87914285D01*
X152930952Y-87866666D01*
X153073809Y-87866666D01*
X153264285Y-87914285D01*
X153359523Y-87961904D01*
X153454761Y-88057142D01*
X153502380Y-88200000D01*
X153502380Y-88438095D01*
X153502380Y-86914285D02*
X153502380Y-87485714D01*
X153502380Y-87200000D02*
X152502380Y-87200000D01*
X152645238Y-87295238D01*
X152740476Y-87390476D01*
X152788095Y-87485714D01*
X117202380Y-100076190D02*
X116202380Y-100076190D01*
X117107142Y-99028571D02*
X117154761Y-99076190D01*
X117202380Y-99219047D01*
X117202380Y-99314285D01*
X117154761Y-99457142D01*
X117059523Y-99552380D01*
X116964285Y-99600000D01*
X116773809Y-99647619D01*
X116630952Y-99647619D01*
X116440476Y-99600000D01*
X116345238Y-99552380D01*
X116250000Y-99457142D01*
X116202380Y-99314285D01*
X116202380Y-99219047D01*
X116250000Y-99076190D01*
X116297619Y-99028571D01*
X116535714Y-98171428D02*
X117202380Y-98171428D01*
X116154761Y-98409523D02*
X116869047Y-98647619D01*
X116869047Y-98028571D01*
X114852380Y-103118095D02*
X113852380Y-103118095D01*
X113852380Y-102880000D01*
X113900000Y-102737142D01*
X113995238Y-102641904D01*
X114090476Y-102594285D01*
X114280952Y-102546666D01*
X114423809Y-102546666D01*
X114614285Y-102594285D01*
X114709523Y-102641904D01*
X114804761Y-102737142D01*
X114852380Y-102880000D01*
X114852380Y-103118095D01*
X113852380Y-101689523D02*
X113852380Y-101880000D01*
X113900000Y-101975238D01*
X113947619Y-102022857D01*
X114090476Y-102118095D01*
X114280952Y-102165714D01*
X114661904Y-102165714D01*
X114757142Y-102118095D01*
X114804761Y-102070476D01*
X114852380Y-101975238D01*
X114852380Y-101784761D01*
X114804761Y-101689523D01*
X114757142Y-101641904D01*
X114661904Y-101594285D01*
X114423809Y-101594285D01*
X114328571Y-101641904D01*
X114280952Y-101689523D01*
X114233333Y-101784761D01*
X114233333Y-101975238D01*
X114280952Y-102070476D01*
X114328571Y-102118095D01*
X114423809Y-102165714D01*
X111302380Y-103738095D02*
X110302380Y-103738095D01*
X110302380Y-103500000D01*
X110350000Y-103357142D01*
X110445238Y-103261904D01*
X110540476Y-103214285D01*
X110730952Y-103166666D01*
X110873809Y-103166666D01*
X111064285Y-103214285D01*
X111159523Y-103261904D01*
X111254761Y-103357142D01*
X111302380Y-103500000D01*
X111302380Y-103738095D01*
X110302380Y-102261904D02*
X110302380Y-102738095D01*
X110778571Y-102785714D01*
X110730952Y-102738095D01*
X110683333Y-102642857D01*
X110683333Y-102404761D01*
X110730952Y-102309523D01*
X110778571Y-102261904D01*
X110873809Y-102214285D01*
X111111904Y-102214285D01*
X111207142Y-102261904D01*
X111254761Y-102309523D01*
X111302380Y-102404761D01*
X111302380Y-102642857D01*
X111254761Y-102738095D01*
X111207142Y-102785714D01*
X92452380Y-112933333D02*
X93166666Y-112933333D01*
X93309523Y-112980952D01*
X93404761Y-113076190D01*
X93452380Y-113219047D01*
X93452380Y-113314285D01*
X93452380Y-112457142D02*
X92452380Y-112457142D01*
X92452380Y-112076190D01*
X92500000Y-111980952D01*
X92547619Y-111933333D01*
X92642857Y-111885714D01*
X92785714Y-111885714D01*
X92880952Y-111933333D01*
X92928571Y-111980952D01*
X92976190Y-112076190D01*
X92976190Y-112457142D01*
X92452380Y-111028571D02*
X92452380Y-111219047D01*
X92500000Y-111314285D01*
X92547619Y-111361904D01*
X92690476Y-111457142D01*
X92880952Y-111504761D01*
X93261904Y-111504761D01*
X93357142Y-111457142D01*
X93404761Y-111409523D01*
X93452380Y-111314285D01*
X93452380Y-111123809D01*
X93404761Y-111028571D01*
X93357142Y-110980952D01*
X93261904Y-110933333D01*
X93023809Y-110933333D01*
X92928571Y-110980952D01*
X92880952Y-111028571D01*
X92833333Y-111123809D01*
X92833333Y-111314285D01*
X92880952Y-111409523D01*
X92928571Y-111457142D01*
X93023809Y-111504761D01*
X160805833Y-103639880D02*
X160472500Y-103163690D01*
X160234404Y-103639880D02*
X160234404Y-102639880D01*
X160615357Y-102639880D01*
X160710595Y-102687500D01*
X160758214Y-102735119D01*
X160805833Y-102830357D01*
X160805833Y-102973214D01*
X160758214Y-103068452D01*
X160710595Y-103116071D01*
X160615357Y-103163690D01*
X160234404Y-103163690D01*
X161282023Y-103639880D02*
X161472500Y-103639880D01*
X161567738Y-103592261D01*
X161615357Y-103544642D01*
X161710595Y-103401785D01*
X161758214Y-103211309D01*
X161758214Y-102830357D01*
X161710595Y-102735119D01*
X161662976Y-102687500D01*
X161567738Y-102639880D01*
X161377261Y-102639880D01*
X161282023Y-102687500D01*
X161234404Y-102735119D01*
X161186785Y-102830357D01*
X161186785Y-103068452D01*
X161234404Y-103163690D01*
X161282023Y-103211309D01*
X161377261Y-103258928D01*
X161567738Y-103258928D01*
X161662976Y-103211309D01*
X161710595Y-103163690D01*
X161758214Y-103068452D01*
X166620000Y-109608857D02*
X166653333Y-109656476D01*
X166686666Y-109799333D01*
X166686666Y-109894571D01*
X166653333Y-110037428D01*
X166586666Y-110132666D01*
X166520000Y-110180285D01*
X166386666Y-110227904D01*
X166286666Y-110227904D01*
X166153333Y-110180285D01*
X166086666Y-110132666D01*
X166020000Y-110037428D01*
X165986666Y-109894571D01*
X165986666Y-109799333D01*
X166020000Y-109656476D01*
X166053333Y-109608857D01*
X166686666Y-108656476D02*
X166686666Y-109227904D01*
X166686666Y-108942190D02*
X165986666Y-108942190D01*
X166086666Y-109037428D01*
X166153333Y-109132666D01*
X166186666Y-109227904D01*
X165986666Y-108323142D02*
X165986666Y-107704095D01*
X166253333Y-108037428D01*
X166253333Y-107894571D01*
X166286666Y-107799333D01*
X166320000Y-107751714D01*
X166386666Y-107704095D01*
X166553333Y-107704095D01*
X166620000Y-107751714D01*
X166653333Y-107799333D01*
X166686666Y-107894571D01*
X166686666Y-108180285D01*
X166653333Y-108275523D01*
X166620000Y-108323142D01*
X124833142Y-113280000D02*
X124785523Y-113313333D01*
X124642666Y-113346666D01*
X124547428Y-113346666D01*
X124404571Y-113313333D01*
X124309333Y-113246666D01*
X124261714Y-113180000D01*
X124214095Y-113046666D01*
X124214095Y-112946666D01*
X124261714Y-112813333D01*
X124309333Y-112746666D01*
X124404571Y-112680000D01*
X124547428Y-112646666D01*
X124642666Y-112646666D01*
X124785523Y-112680000D01*
X124833142Y-112713333D01*
X125214095Y-112713333D02*
X125261714Y-112680000D01*
X125356952Y-112646666D01*
X125595047Y-112646666D01*
X125690285Y-112680000D01*
X125737904Y-112713333D01*
X125785523Y-112780000D01*
X125785523Y-112846666D01*
X125737904Y-112946666D01*
X125166476Y-113346666D01*
X125785523Y-113346666D01*
X126404571Y-112646666D02*
X126499809Y-112646666D01*
X126595047Y-112680000D01*
X126642666Y-112713333D01*
X126690285Y-112780000D01*
X126737904Y-112913333D01*
X126737904Y-113080000D01*
X126690285Y-113213333D01*
X126642666Y-113280000D01*
X126595047Y-113313333D01*
X126499809Y-113346666D01*
X126404571Y-113346666D01*
X126309333Y-113313333D01*
X126261714Y-113280000D01*
X126214095Y-113213333D01*
X126166476Y-113080000D01*
X126166476Y-112913333D01*
X126214095Y-112780000D01*
X126261714Y-112713333D01*
X126309333Y-112680000D01*
X126404571Y-112646666D01*
X101800000Y-90166666D02*
X101566666Y-89833333D01*
X101400000Y-90166666D02*
X101400000Y-89466666D01*
X101666666Y-89466666D01*
X101733333Y-89500000D01*
X101766666Y-89533333D01*
X101800000Y-89600000D01*
X101800000Y-89700000D01*
X101766666Y-89766666D01*
X101733333Y-89800000D01*
X101666666Y-89833333D01*
X101400000Y-89833333D01*
X102466666Y-90166666D02*
X102066666Y-90166666D01*
X102266666Y-90166666D02*
X102266666Y-89466666D01*
X102200000Y-89566666D01*
X102133333Y-89633333D01*
X102066666Y-89666666D01*
X103066666Y-89700000D02*
X103066666Y-90166666D01*
X102900000Y-89433333D02*
X102733333Y-89933333D01*
X103166666Y-89933333D01*
X165171380Y-85574166D02*
X164695190Y-85907500D01*
X165171380Y-86145595D02*
X164171380Y-86145595D01*
X164171380Y-85764642D01*
X164219000Y-85669404D01*
X164266619Y-85621785D01*
X164361857Y-85574166D01*
X164504714Y-85574166D01*
X164599952Y-85621785D01*
X164647571Y-85669404D01*
X164695190Y-85764642D01*
X164695190Y-86145595D01*
X164171380Y-84669404D02*
X164171380Y-85145595D01*
X164647571Y-85193214D01*
X164599952Y-85145595D01*
X164552333Y-85050357D01*
X164552333Y-84812261D01*
X164599952Y-84717023D01*
X164647571Y-84669404D01*
X164742809Y-84621785D01*
X164980904Y-84621785D01*
X165076142Y-84669404D01*
X165123761Y-84717023D01*
X165171380Y-84812261D01*
X165171380Y-85050357D01*
X165123761Y-85145595D01*
X165076142Y-85193214D01*
X146565880Y-71683476D02*
X146089690Y-72016809D01*
X146565880Y-72254904D02*
X145565880Y-72254904D01*
X145565880Y-71873952D01*
X145613500Y-71778714D01*
X145661119Y-71731095D01*
X145756357Y-71683476D01*
X145899214Y-71683476D01*
X145994452Y-71731095D01*
X146042071Y-71778714D01*
X146089690Y-71873952D01*
X146089690Y-72254904D01*
X146565880Y-71254904D02*
X145565880Y-71254904D01*
X146565880Y-70683476D01*
X145565880Y-70683476D01*
X145565880Y-70302523D02*
X145565880Y-69683476D01*
X145946833Y-70016809D01*
X145946833Y-69873952D01*
X145994452Y-69778714D01*
X146042071Y-69731095D01*
X146137309Y-69683476D01*
X146375404Y-69683476D01*
X146470642Y-69731095D01*
X146518261Y-69778714D01*
X146565880Y-69873952D01*
X146565880Y-70159666D01*
X146518261Y-70254904D01*
X146470642Y-70302523D01*
X124923761Y-87330119D02*
X124828523Y-87282500D01*
X124733285Y-87187261D01*
X124590428Y-87044404D01*
X124495190Y-86996785D01*
X124399952Y-86996785D01*
X124447571Y-87234880D02*
X124352333Y-87187261D01*
X124257095Y-87092023D01*
X124209476Y-86901547D01*
X124209476Y-86568214D01*
X124257095Y-86377738D01*
X124352333Y-86282500D01*
X124447571Y-86234880D01*
X124638047Y-86234880D01*
X124733285Y-86282500D01*
X124828523Y-86377738D01*
X124876142Y-86568214D01*
X124876142Y-86901547D01*
X124828523Y-87092023D01*
X124733285Y-87187261D01*
X124638047Y-87234880D01*
X124447571Y-87234880D01*
X125733285Y-86568214D02*
X125733285Y-87234880D01*
X125495190Y-86187261D02*
X125257095Y-86901547D01*
X125876142Y-86901547D01*
X124923761Y-81488119D02*
X124828523Y-81440500D01*
X124733285Y-81345261D01*
X124590428Y-81202404D01*
X124495190Y-81154785D01*
X124399952Y-81154785D01*
X124447571Y-81392880D02*
X124352333Y-81345261D01*
X124257095Y-81250023D01*
X124209476Y-81059547D01*
X124209476Y-80726214D01*
X124257095Y-80535738D01*
X124352333Y-80440500D01*
X124447571Y-80392880D01*
X124638047Y-80392880D01*
X124733285Y-80440500D01*
X124828523Y-80535738D01*
X124876142Y-80726214D01*
X124876142Y-81059547D01*
X124828523Y-81250023D01*
X124733285Y-81345261D01*
X124638047Y-81392880D01*
X124447571Y-81392880D01*
X125780904Y-80392880D02*
X125304714Y-80392880D01*
X125257095Y-80869071D01*
X125304714Y-80821452D01*
X125399952Y-80773833D01*
X125638047Y-80773833D01*
X125733285Y-80821452D01*
X125780904Y-80869071D01*
X125828523Y-80964309D01*
X125828523Y-81202404D01*
X125780904Y-81297642D01*
X125733285Y-81345261D01*
X125638047Y-81392880D01*
X125399952Y-81392880D01*
X125304714Y-81345261D01*
X125257095Y-81297642D01*
X124923761Y-75709619D02*
X124828523Y-75662000D01*
X124733285Y-75566761D01*
X124590428Y-75423904D01*
X124495190Y-75376285D01*
X124399952Y-75376285D01*
X124447571Y-75614380D02*
X124352333Y-75566761D01*
X124257095Y-75471523D01*
X124209476Y-75281047D01*
X124209476Y-74947714D01*
X124257095Y-74757238D01*
X124352333Y-74662000D01*
X124447571Y-74614380D01*
X124638047Y-74614380D01*
X124733285Y-74662000D01*
X124828523Y-74757238D01*
X124876142Y-74947714D01*
X124876142Y-75281047D01*
X124828523Y-75471523D01*
X124733285Y-75566761D01*
X124638047Y-75614380D01*
X124447571Y-75614380D01*
X125733285Y-74614380D02*
X125542809Y-74614380D01*
X125447571Y-74662000D01*
X125399952Y-74709619D01*
X125304714Y-74852476D01*
X125257095Y-75042952D01*
X125257095Y-75423904D01*
X125304714Y-75519142D01*
X125352333Y-75566761D01*
X125447571Y-75614380D01*
X125638047Y-75614380D01*
X125733285Y-75566761D01*
X125780904Y-75519142D01*
X125828523Y-75423904D01*
X125828523Y-75185809D01*
X125780904Y-75090571D01*
X125733285Y-75042952D01*
X125638047Y-74995333D01*
X125447571Y-74995333D01*
X125352333Y-75042952D01*
X125304714Y-75090571D01*
X125257095Y-75185809D01*
X136290261Y-75709619D02*
X136195023Y-75662000D01*
X136099785Y-75566761D01*
X135956928Y-75423904D01*
X135861690Y-75376285D01*
X135766452Y-75376285D01*
X135814071Y-75614380D02*
X135718833Y-75566761D01*
X135623595Y-75471523D01*
X135575976Y-75281047D01*
X135575976Y-74947714D01*
X135623595Y-74757238D01*
X135718833Y-74662000D01*
X135814071Y-74614380D01*
X136004547Y-74614380D01*
X136099785Y-74662000D01*
X136195023Y-74757238D01*
X136242642Y-74947714D01*
X136242642Y-75281047D01*
X136195023Y-75471523D01*
X136099785Y-75566761D01*
X136004547Y-75614380D01*
X135814071Y-75614380D01*
X136575976Y-74614380D02*
X137195023Y-74614380D01*
X136861690Y-74995333D01*
X137004547Y-74995333D01*
X137099785Y-75042952D01*
X137147404Y-75090571D01*
X137195023Y-75185809D01*
X137195023Y-75423904D01*
X137147404Y-75519142D01*
X137099785Y-75566761D01*
X137004547Y-75614380D01*
X136718833Y-75614380D01*
X136623595Y-75566761D01*
X136575976Y-75519142D01*
X136290261Y-81488119D02*
X136195023Y-81440500D01*
X136099785Y-81345261D01*
X135956928Y-81202404D01*
X135861690Y-81154785D01*
X135766452Y-81154785D01*
X135814071Y-81392880D02*
X135718833Y-81345261D01*
X135623595Y-81250023D01*
X135575976Y-81059547D01*
X135575976Y-80726214D01*
X135623595Y-80535738D01*
X135718833Y-80440500D01*
X135814071Y-80392880D01*
X136004547Y-80392880D01*
X136099785Y-80440500D01*
X136195023Y-80535738D01*
X136242642Y-80726214D01*
X136242642Y-81059547D01*
X136195023Y-81250023D01*
X136099785Y-81345261D01*
X136004547Y-81392880D01*
X135814071Y-81392880D01*
X136623595Y-80488119D02*
X136671214Y-80440500D01*
X136766452Y-80392880D01*
X137004547Y-80392880D01*
X137099785Y-80440500D01*
X137147404Y-80488119D01*
X137195023Y-80583357D01*
X137195023Y-80678595D01*
X137147404Y-80821452D01*
X136575976Y-81392880D01*
X137195023Y-81392880D01*
X136290261Y-87330119D02*
X136195023Y-87282500D01*
X136099785Y-87187261D01*
X135956928Y-87044404D01*
X135861690Y-86996785D01*
X135766452Y-86996785D01*
X135814071Y-87234880D02*
X135718833Y-87187261D01*
X135623595Y-87092023D01*
X135575976Y-86901547D01*
X135575976Y-86568214D01*
X135623595Y-86377738D01*
X135718833Y-86282500D01*
X135814071Y-86234880D01*
X136004547Y-86234880D01*
X136099785Y-86282500D01*
X136195023Y-86377738D01*
X136242642Y-86568214D01*
X136242642Y-86901547D01*
X136195023Y-87092023D01*
X136099785Y-87187261D01*
X136004547Y-87234880D01*
X135814071Y-87234880D01*
X137195023Y-87234880D02*
X136623595Y-87234880D01*
X136909309Y-87234880D02*
X136909309Y-86234880D01*
X136814071Y-86377738D01*
X136718833Y-86472976D01*
X136623595Y-86520595D01*
X118768904Y-95115380D02*
X118768904Y-94115380D01*
X119149857Y-94115380D01*
X119245095Y-94163000D01*
X119292714Y-94210619D01*
X119340333Y-94305857D01*
X119340333Y-94448714D01*
X119292714Y-94543952D01*
X119245095Y-94591571D01*
X119149857Y-94639190D01*
X118768904Y-94639190D01*
X120292714Y-95115380D02*
X119721285Y-95115380D01*
X120007000Y-95115380D02*
X120007000Y-94115380D01*
X119911761Y-94258238D01*
X119816523Y-94353476D01*
X119721285Y-94401095D01*
X118741000Y-112021857D02*
X118774333Y-112069476D01*
X118807666Y-112212333D01*
X118807666Y-112307571D01*
X118774333Y-112450428D01*
X118707666Y-112545666D01*
X118641000Y-112593285D01*
X118507666Y-112640904D01*
X118407666Y-112640904D01*
X118274333Y-112593285D01*
X118207666Y-112545666D01*
X118141000Y-112450428D01*
X118107666Y-112307571D01*
X118107666Y-112212333D01*
X118141000Y-112069476D01*
X118174333Y-112021857D01*
X118174333Y-111640904D02*
X118141000Y-111593285D01*
X118107666Y-111498047D01*
X118107666Y-111259952D01*
X118141000Y-111164714D01*
X118174333Y-111117095D01*
X118241000Y-111069476D01*
X118307666Y-111069476D01*
X118407666Y-111117095D01*
X118807666Y-111688523D01*
X118807666Y-111069476D01*
X118807666Y-110117095D02*
X118807666Y-110688523D01*
X118807666Y-110402809D02*
X118107666Y-110402809D01*
X118207666Y-110498047D01*
X118274333Y-110593285D01*
X118307666Y-110688523D01*
X160789880Y-85574166D02*
X160313690Y-85907500D01*
X160789880Y-86145595D02*
X159789880Y-86145595D01*
X159789880Y-85764642D01*
X159837500Y-85669404D01*
X159885119Y-85621785D01*
X159980357Y-85574166D01*
X160123214Y-85574166D01*
X160218452Y-85621785D01*
X160266071Y-85669404D01*
X160313690Y-85764642D01*
X160313690Y-86145595D01*
X159789880Y-85240833D02*
X159789880Y-84621785D01*
X160170833Y-84955119D01*
X160170833Y-84812261D01*
X160218452Y-84717023D01*
X160266071Y-84669404D01*
X160361309Y-84621785D01*
X160599404Y-84621785D01*
X160694642Y-84669404D01*
X160742261Y-84717023D01*
X160789880Y-84812261D01*
X160789880Y-85097976D01*
X160742261Y-85193214D01*
X160694642Y-85240833D01*
X113196642Y-67500166D02*
X113244261Y-67547785D01*
X113291880Y-67690642D01*
X113291880Y-67785880D01*
X113244261Y-67928738D01*
X113149023Y-68023976D01*
X113053785Y-68071595D01*
X112863309Y-68119214D01*
X112720452Y-68119214D01*
X112529976Y-68071595D01*
X112434738Y-68023976D01*
X112339500Y-67928738D01*
X112291880Y-67785880D01*
X112291880Y-67690642D01*
X112339500Y-67547785D01*
X112387119Y-67500166D01*
X112625214Y-66643023D02*
X113291880Y-66643023D01*
X112244261Y-66881119D02*
X112958547Y-67119214D01*
X112958547Y-66500166D01*
X121705642Y-83669166D02*
X121753261Y-83716785D01*
X121800880Y-83859642D01*
X121800880Y-83954880D01*
X121753261Y-84097738D01*
X121658023Y-84192976D01*
X121562785Y-84240595D01*
X121372309Y-84288214D01*
X121229452Y-84288214D01*
X121038976Y-84240595D01*
X120943738Y-84192976D01*
X120848500Y-84097738D01*
X120800880Y-83954880D01*
X120800880Y-83859642D01*
X120848500Y-83716785D01*
X120896119Y-83669166D01*
X120800880Y-83335833D02*
X120800880Y-82669166D01*
X121800880Y-83097738D01*
X119975380Y-72834404D02*
X120784904Y-72834404D01*
X120880142Y-72786785D01*
X120927761Y-72739166D01*
X120975380Y-72643928D01*
X120975380Y-72453452D01*
X120927761Y-72358214D01*
X120880142Y-72310595D01*
X120784904Y-72262976D01*
X119975380Y-72262976D01*
X120070619Y-71834404D02*
X120023000Y-71786785D01*
X119975380Y-71691547D01*
X119975380Y-71453452D01*
X120023000Y-71358214D01*
X120070619Y-71310595D01*
X120165857Y-71262976D01*
X120261095Y-71262976D01*
X120403952Y-71310595D01*
X120975380Y-71882023D01*
X120975380Y-71262976D01*
X124086880Y-71683476D02*
X123610690Y-72016809D01*
X124086880Y-72254904D02*
X123086880Y-72254904D01*
X123086880Y-71873952D01*
X123134500Y-71778714D01*
X123182119Y-71731095D01*
X123277357Y-71683476D01*
X123420214Y-71683476D01*
X123515452Y-71731095D01*
X123563071Y-71778714D01*
X123610690Y-71873952D01*
X123610690Y-72254904D01*
X124086880Y-71254904D02*
X123086880Y-71254904D01*
X124086880Y-70683476D01*
X123086880Y-70683476D01*
X123420214Y-69778714D02*
X124086880Y-69778714D01*
X123039261Y-70016809D02*
X123753547Y-70254904D01*
X123753547Y-69635857D01*
X124759523Y-104866666D02*
X124426190Y-104533333D01*
X124188095Y-104866666D02*
X124188095Y-104166666D01*
X124569047Y-104166666D01*
X124664285Y-104200000D01*
X124711904Y-104233333D01*
X124759523Y-104300000D01*
X124759523Y-104400000D01*
X124711904Y-104466666D01*
X124664285Y-104500000D01*
X124569047Y-104533333D01*
X124188095Y-104533333D01*
X125188095Y-104866666D02*
X125188095Y-104166666D01*
X125759523Y-104866666D01*
X125759523Y-104166666D01*
X126711904Y-104166666D02*
X126235714Y-104166666D01*
X126188095Y-104500000D01*
X126235714Y-104466666D01*
X126330952Y-104433333D01*
X126569047Y-104433333D01*
X126664285Y-104466666D01*
X126711904Y-104500000D01*
X126759523Y-104566666D01*
X126759523Y-104733333D01*
X126711904Y-104800000D01*
X126664285Y-104833333D01*
X126569047Y-104866666D01*
X126330952Y-104866666D01*
X126235714Y-104833333D01*
X126188095Y-104800000D01*
X155308703Y-104840206D02*
X154975370Y-104506873D01*
X154737275Y-104840206D02*
X154737275Y-104140206D01*
X155118227Y-104140206D01*
X155213465Y-104173540D01*
X155261084Y-104206873D01*
X155308703Y-104273540D01*
X155308703Y-104373540D01*
X155261084Y-104440206D01*
X155213465Y-104473540D01*
X155118227Y-104506873D01*
X154737275Y-104506873D01*
X155737275Y-104840206D02*
X155737275Y-104140206D01*
X156308703Y-104840206D01*
X156308703Y-104140206D01*
X156737275Y-104206873D02*
X156784894Y-104173540D01*
X156880132Y-104140206D01*
X157118227Y-104140206D01*
X157213465Y-104173540D01*
X157261084Y-104206873D01*
X157308703Y-104273540D01*
X157308703Y-104340206D01*
X157261084Y-104440206D01*
X156689656Y-104840206D01*
X157308703Y-104840206D01*
D12*
X186765476Y-96619190D02*
X186527380Y-96619190D01*
X186527380Y-96119190D01*
X186932142Y-96357285D02*
X187098809Y-96357285D01*
X187170238Y-96619190D02*
X186932142Y-96619190D01*
X186932142Y-96119190D01*
X187170238Y-96119190D01*
X187384523Y-96619190D02*
X187384523Y-96119190D01*
X187503571Y-96119190D01*
X187575000Y-96143000D01*
X187622619Y-96190619D01*
X187646428Y-96238238D01*
X187670238Y-96333476D01*
X187670238Y-96404904D01*
X187646428Y-96500142D01*
X187622619Y-96547761D01*
X187575000Y-96595380D01*
X187503571Y-96619190D01*
X187384523Y-96619190D01*
X188098809Y-96285857D02*
X188098809Y-96619190D01*
X187979761Y-96095380D02*
X187860714Y-96452523D01*
X188170238Y-96452523D01*
X186765476Y-91539190D02*
X186527380Y-91539190D01*
X186527380Y-91039190D01*
X186932142Y-91277285D02*
X187098809Y-91277285D01*
X187170238Y-91539190D02*
X186932142Y-91539190D01*
X186932142Y-91039190D01*
X187170238Y-91039190D01*
X187384523Y-91539190D02*
X187384523Y-91039190D01*
X187503571Y-91039190D01*
X187575000Y-91063000D01*
X187622619Y-91110619D01*
X187646428Y-91158238D01*
X187670238Y-91253476D01*
X187670238Y-91324904D01*
X187646428Y-91420142D01*
X187622619Y-91467761D01*
X187575000Y-91515380D01*
X187503571Y-91539190D01*
X187384523Y-91539190D01*
X187860714Y-91086809D02*
X187884523Y-91063000D01*
X187932142Y-91039190D01*
X188051190Y-91039190D01*
X188098809Y-91063000D01*
X188122619Y-91086809D01*
X188146428Y-91134428D01*
X188146428Y-91182047D01*
X188122619Y-91253476D01*
X187836904Y-91539190D01*
X188146428Y-91539190D01*
X186765476Y-86459190D02*
X186527380Y-86459190D01*
X186527380Y-85959190D01*
X186932142Y-86197285D02*
X187098809Y-86197285D01*
X187170238Y-86459190D02*
X186932142Y-86459190D01*
X186932142Y-85959190D01*
X187170238Y-85959190D01*
X187384523Y-86459190D02*
X187384523Y-85959190D01*
X187503571Y-85959190D01*
X187575000Y-85983000D01*
X187622619Y-86030619D01*
X187646428Y-86078238D01*
X187670238Y-86173476D01*
X187670238Y-86244904D01*
X187646428Y-86340142D01*
X187622619Y-86387761D01*
X187575000Y-86435380D01*
X187503571Y-86459190D01*
X187384523Y-86459190D01*
X187836904Y-85959190D02*
X188146428Y-85959190D01*
X187979761Y-86149666D01*
X188051190Y-86149666D01*
X188098809Y-86173476D01*
X188122619Y-86197285D01*
X188146428Y-86244904D01*
X188146428Y-86363952D01*
X188122619Y-86411571D01*
X188098809Y-86435380D01*
X188051190Y-86459190D01*
X187908333Y-86459190D01*
X187860714Y-86435380D01*
X187836904Y-86411571D01*
X186765476Y-81379190D02*
X186527380Y-81379190D01*
X186527380Y-80879190D01*
X186932142Y-81117285D02*
X187098809Y-81117285D01*
X187170238Y-81379190D02*
X186932142Y-81379190D01*
X186932142Y-80879190D01*
X187170238Y-80879190D01*
X187384523Y-81379190D02*
X187384523Y-80879190D01*
X187503571Y-80879190D01*
X187575000Y-80903000D01*
X187622619Y-80950619D01*
X187646428Y-80998238D01*
X187670238Y-81093476D01*
X187670238Y-81164904D01*
X187646428Y-81260142D01*
X187622619Y-81307761D01*
X187575000Y-81355380D01*
X187503571Y-81379190D01*
X187384523Y-81379190D01*
X188146428Y-81379190D02*
X187860714Y-81379190D01*
X188003571Y-81379190D02*
X188003571Y-80879190D01*
X187955952Y-80950619D01*
X187908333Y-80998238D01*
X187860714Y-81022047D01*
D10*
X182445242Y-80768000D02*
X182397623Y-80801333D01*
X182254766Y-80834666D01*
X182159528Y-80834666D01*
X182016671Y-80801333D01*
X181921433Y-80734666D01*
X181873814Y-80668000D01*
X181826195Y-80534666D01*
X181826195Y-80434666D01*
X181873814Y-80301333D01*
X181921433Y-80234666D01*
X182016671Y-80168000D01*
X182159528Y-80134666D01*
X182254766Y-80134666D01*
X182397623Y-80168000D01*
X182445242Y-80201333D01*
X183397623Y-80834666D02*
X182826195Y-80834666D01*
X183111909Y-80834666D02*
X183111909Y-80134666D01*
X183016671Y-80234666D01*
X182921433Y-80301333D01*
X182826195Y-80334666D01*
X184350004Y-80834666D02*
X183778576Y-80834666D01*
X184064290Y-80834666D02*
X184064290Y-80134666D01*
X183969052Y-80234666D01*
X183873814Y-80301333D01*
X183778576Y-80334666D01*
X182407142Y-74966500D02*
X182359523Y-74999833D01*
X182216666Y-75033166D01*
X182121428Y-75033166D01*
X181978571Y-74999833D01*
X181883333Y-74933166D01*
X181835714Y-74866500D01*
X181788095Y-74733166D01*
X181788095Y-74633166D01*
X181835714Y-74499833D01*
X181883333Y-74433166D01*
X181978571Y-74366500D01*
X182121428Y-74333166D01*
X182216666Y-74333166D01*
X182359523Y-74366500D01*
X182407142Y-74399833D01*
X183359523Y-75033166D02*
X182788095Y-75033166D01*
X183073809Y-75033166D02*
X183073809Y-74333166D01*
X182978571Y-74433166D01*
X182883333Y-74499833D01*
X182788095Y-74533166D01*
X184216666Y-74566500D02*
X184216666Y-75033166D01*
X183978571Y-74299833D02*
X183740476Y-74799833D01*
X184359523Y-74799833D01*
X105077142Y-88896000D02*
X105029523Y-88929333D01*
X104886666Y-88962666D01*
X104791428Y-88962666D01*
X104648571Y-88929333D01*
X104553333Y-88862666D01*
X104505714Y-88796000D01*
X104458095Y-88662666D01*
X104458095Y-88562666D01*
X104505714Y-88429333D01*
X104553333Y-88362666D01*
X104648571Y-88296000D01*
X104791428Y-88262666D01*
X104886666Y-88262666D01*
X105029523Y-88296000D01*
X105077142Y-88329333D01*
X106029523Y-88962666D02*
X105458095Y-88962666D01*
X105743809Y-88962666D02*
X105743809Y-88262666D01*
X105648571Y-88362666D01*
X105553333Y-88429333D01*
X105458095Y-88462666D01*
X106362857Y-88262666D02*
X107029523Y-88262666D01*
X106600952Y-88962666D01*
X121753333Y-86864000D02*
X121705714Y-86897333D01*
X121562857Y-86930666D01*
X121467619Y-86930666D01*
X121324761Y-86897333D01*
X121229523Y-86830666D01*
X121181904Y-86764000D01*
X121134285Y-86630666D01*
X121134285Y-86530666D01*
X121181904Y-86397333D01*
X121229523Y-86330666D01*
X121324761Y-86264000D01*
X121467619Y-86230666D01*
X121562857Y-86230666D01*
X121705714Y-86264000D01*
X121753333Y-86297333D01*
X122658095Y-86230666D02*
X122181904Y-86230666D01*
X122134285Y-86564000D01*
X122181904Y-86530666D01*
X122277142Y-86497333D01*
X122515238Y-86497333D01*
X122610476Y-86530666D01*
X122658095Y-86564000D01*
X122705714Y-86630666D01*
X122705714Y-86797333D01*
X122658095Y-86864000D01*
X122610476Y-86897333D01*
X122515238Y-86930666D01*
X122277142Y-86930666D01*
X122181904Y-86897333D01*
X122134285Y-86864000D01*
X131310142Y-113280000D02*
X131262523Y-113313333D01*
X131119666Y-113346666D01*
X131024428Y-113346666D01*
X130881571Y-113313333D01*
X130786333Y-113246666D01*
X130738714Y-113180000D01*
X130691095Y-113046666D01*
X130691095Y-112946666D01*
X130738714Y-112813333D01*
X130786333Y-112746666D01*
X130881571Y-112680000D01*
X131024428Y-112646666D01*
X131119666Y-112646666D01*
X131262523Y-112680000D01*
X131310142Y-112713333D01*
X132262523Y-113346666D02*
X131691095Y-113346666D01*
X131976809Y-113346666D02*
X131976809Y-112646666D01*
X131881571Y-112746666D01*
X131786333Y-112813333D01*
X131691095Y-112846666D01*
X133119666Y-112646666D02*
X132929190Y-112646666D01*
X132833952Y-112680000D01*
X132786333Y-112713333D01*
X132691095Y-112813333D01*
X132643476Y-112946666D01*
X132643476Y-113213333D01*
X132691095Y-113280000D01*
X132738714Y-113313333D01*
X132833952Y-113346666D01*
X133024428Y-113346666D01*
X133119666Y-113313333D01*
X133167285Y-113280000D01*
X133214904Y-113213333D01*
X133214904Y-113046666D01*
X133167285Y-112980000D01*
X133119666Y-112946666D01*
X133024428Y-112913333D01*
X132833952Y-112913333D01*
X132738714Y-112946666D01*
X132691095Y-112980000D01*
X132643476Y-113046666D01*
X128008142Y-113280000D02*
X127960523Y-113313333D01*
X127817666Y-113346666D01*
X127722428Y-113346666D01*
X127579571Y-113313333D01*
X127484333Y-113246666D01*
X127436714Y-113180000D01*
X127389095Y-113046666D01*
X127389095Y-112946666D01*
X127436714Y-112813333D01*
X127484333Y-112746666D01*
X127579571Y-112680000D01*
X127722428Y-112646666D01*
X127817666Y-112646666D01*
X127960523Y-112680000D01*
X128008142Y-112713333D01*
X128960523Y-113346666D02*
X128389095Y-113346666D01*
X128674809Y-113346666D02*
X128674809Y-112646666D01*
X128579571Y-112746666D01*
X128484333Y-112813333D01*
X128389095Y-112846666D01*
X129865285Y-112646666D02*
X129389095Y-112646666D01*
X129341476Y-112980000D01*
X129389095Y-112946666D01*
X129484333Y-112913333D01*
X129722428Y-112913333D01*
X129817666Y-112946666D01*
X129865285Y-112980000D01*
X129912904Y-113046666D01*
X129912904Y-113213333D01*
X129865285Y-113280000D01*
X129817666Y-113313333D01*
X129722428Y-113346666D01*
X129484333Y-113346666D01*
X129389095Y-113313333D01*
X129341476Y-113280000D01*
X121404142Y-113280000D02*
X121356523Y-113313333D01*
X121213666Y-113346666D01*
X121118428Y-113346666D01*
X120975571Y-113313333D01*
X120880333Y-113246666D01*
X120832714Y-113180000D01*
X120785095Y-113046666D01*
X120785095Y-112946666D01*
X120832714Y-112813333D01*
X120880333Y-112746666D01*
X120975571Y-112680000D01*
X121118428Y-112646666D01*
X121213666Y-112646666D01*
X121356523Y-112680000D01*
X121404142Y-112713333D01*
X122356523Y-113346666D02*
X121785095Y-113346666D01*
X122070809Y-113346666D02*
X122070809Y-112646666D01*
X121975571Y-112746666D01*
X121880333Y-112813333D01*
X121785095Y-112846666D01*
X122832714Y-113346666D02*
X123023190Y-113346666D01*
X123118428Y-113313333D01*
X123166047Y-113280000D01*
X123261285Y-113180000D01*
X123308904Y-113046666D01*
X123308904Y-112780000D01*
X123261285Y-112713333D01*
X123213666Y-112680000D01*
X123118428Y-112646666D01*
X122927952Y-112646666D01*
X122832714Y-112680000D01*
X122785095Y-112713333D01*
X122737476Y-112780000D01*
X122737476Y-112946666D01*
X122785095Y-113013333D01*
X122832714Y-113046666D01*
X122927952Y-113080000D01*
X123118428Y-113080000D01*
X123213666Y-113046666D01*
X123261285Y-113013333D01*
X123308904Y-112946666D01*
X146518333Y-113280000D02*
X146470714Y-113313333D01*
X146327857Y-113346666D01*
X146232619Y-113346666D01*
X146089761Y-113313333D01*
X145994523Y-113246666D01*
X145946904Y-113180000D01*
X145899285Y-113046666D01*
X145899285Y-112946666D01*
X145946904Y-112813333D01*
X145994523Y-112746666D01*
X146089761Y-112680000D01*
X146232619Y-112646666D01*
X146327857Y-112646666D01*
X146470714Y-112680000D01*
X146518333Y-112713333D01*
X146899285Y-112713333D02*
X146946904Y-112680000D01*
X147042142Y-112646666D01*
X147280238Y-112646666D01*
X147375476Y-112680000D01*
X147423095Y-112713333D01*
X147470714Y-112780000D01*
X147470714Y-112846666D01*
X147423095Y-112946666D01*
X146851666Y-113346666D01*
X147470714Y-113346666D01*
X158742142Y-113280000D02*
X158694523Y-113313333D01*
X158551666Y-113346666D01*
X158456428Y-113346666D01*
X158313571Y-113313333D01*
X158218333Y-113246666D01*
X158170714Y-113180000D01*
X158123095Y-113046666D01*
X158123095Y-112946666D01*
X158170714Y-112813333D01*
X158218333Y-112746666D01*
X158313571Y-112680000D01*
X158456428Y-112646666D01*
X158551666Y-112646666D01*
X158694523Y-112680000D01*
X158742142Y-112713333D01*
X159694523Y-113346666D02*
X159123095Y-113346666D01*
X159408809Y-113346666D02*
X159408809Y-112646666D01*
X159313571Y-112746666D01*
X159218333Y-112813333D01*
X159123095Y-112846666D01*
X160075476Y-112713333D02*
X160123095Y-112680000D01*
X160218333Y-112646666D01*
X160456428Y-112646666D01*
X160551666Y-112680000D01*
X160599285Y-112713333D01*
X160646904Y-112780000D01*
X160646904Y-112846666D01*
X160599285Y-112946666D01*
X160027857Y-113346666D01*
X160646904Y-113346666D01*
X156424333Y-113280000D02*
X156376714Y-113313333D01*
X156233857Y-113346666D01*
X156138619Y-113346666D01*
X155995761Y-113313333D01*
X155900523Y-113246666D01*
X155852904Y-113180000D01*
X155805285Y-113046666D01*
X155805285Y-112946666D01*
X155852904Y-112813333D01*
X155900523Y-112746666D01*
X155995761Y-112680000D01*
X156138619Y-112646666D01*
X156233857Y-112646666D01*
X156376714Y-112680000D01*
X156424333Y-112713333D01*
X156900523Y-113346666D02*
X157091000Y-113346666D01*
X157186238Y-113313333D01*
X157233857Y-113280000D01*
X157329095Y-113180000D01*
X157376714Y-113046666D01*
X157376714Y-112780000D01*
X157329095Y-112713333D01*
X157281476Y-112680000D01*
X157186238Y-112646666D01*
X156995761Y-112646666D01*
X156900523Y-112680000D01*
X156852904Y-112713333D01*
X156805285Y-112780000D01*
X156805285Y-112946666D01*
X156852904Y-113013333D01*
X156900523Y-113046666D01*
X156995761Y-113080000D01*
X157186238Y-113080000D01*
X157281476Y-113046666D01*
X157329095Y-113013333D01*
X157376714Y-112946666D01*
X153122333Y-113280000D02*
X153074714Y-113313333D01*
X152931857Y-113346666D01*
X152836619Y-113346666D01*
X152693761Y-113313333D01*
X152598523Y-113246666D01*
X152550904Y-113180000D01*
X152503285Y-113046666D01*
X152503285Y-112946666D01*
X152550904Y-112813333D01*
X152598523Y-112746666D01*
X152693761Y-112680000D01*
X152836619Y-112646666D01*
X152931857Y-112646666D01*
X153074714Y-112680000D01*
X153122333Y-112713333D01*
X153693761Y-112946666D02*
X153598523Y-112913333D01*
X153550904Y-112880000D01*
X153503285Y-112813333D01*
X153503285Y-112780000D01*
X153550904Y-112713333D01*
X153598523Y-112680000D01*
X153693761Y-112646666D01*
X153884238Y-112646666D01*
X153979476Y-112680000D01*
X154027095Y-112713333D01*
X154074714Y-112780000D01*
X154074714Y-112813333D01*
X154027095Y-112880000D01*
X153979476Y-112913333D01*
X153884238Y-112946666D01*
X153693761Y-112946666D01*
X153598523Y-112980000D01*
X153550904Y-113013333D01*
X153503285Y-113080000D01*
X153503285Y-113213333D01*
X153550904Y-113280000D01*
X153598523Y-113313333D01*
X153693761Y-113346666D01*
X153884238Y-113346666D01*
X153979476Y-113313333D01*
X154027095Y-113280000D01*
X154074714Y-113213333D01*
X154074714Y-113080000D01*
X154027095Y-113013333D01*
X153979476Y-112980000D01*
X153884238Y-112946666D01*
X111466380Y-91312904D02*
X112275904Y-91312904D01*
X112371142Y-91265285D01*
X112418761Y-91217666D01*
X112466380Y-91122428D01*
X112466380Y-90931952D01*
X112418761Y-90836714D01*
X112371142Y-90789095D01*
X112275904Y-90741476D01*
X111466380Y-90741476D01*
X112466380Y-89741476D02*
X112466380Y-90312904D01*
X112466380Y-90027190D02*
X111466380Y-90027190D01*
X111609238Y-90122428D01*
X111704476Y-90217666D01*
X111752095Y-90312904D01*
X116800333Y-86864000D02*
X116752714Y-86897333D01*
X116609857Y-86930666D01*
X116514619Y-86930666D01*
X116371761Y-86897333D01*
X116276523Y-86830666D01*
X116228904Y-86764000D01*
X116181285Y-86630666D01*
X116181285Y-86530666D01*
X116228904Y-86397333D01*
X116276523Y-86330666D01*
X116371761Y-86264000D01*
X116514619Y-86230666D01*
X116609857Y-86230666D01*
X116752714Y-86264000D01*
X116800333Y-86297333D01*
X117657476Y-86230666D02*
X117467000Y-86230666D01*
X117371761Y-86264000D01*
X117324142Y-86297333D01*
X117228904Y-86397333D01*
X117181285Y-86530666D01*
X117181285Y-86797333D01*
X117228904Y-86864000D01*
X117276523Y-86897333D01*
X117371761Y-86930666D01*
X117562238Y-86930666D01*
X117657476Y-86897333D01*
X117705095Y-86864000D01*
X117752714Y-86797333D01*
X117752714Y-86630666D01*
X117705095Y-86564000D01*
X117657476Y-86530666D01*
X117562238Y-86497333D01*
X117371761Y-86497333D01*
X117276523Y-86530666D01*
X117228904Y-86564000D01*
X117181285Y-86630666D01*
X172918380Y-109942190D02*
X171918380Y-109942190D01*
X172823142Y-108894571D02*
X172870761Y-108942190D01*
X172918380Y-109085047D01*
X172918380Y-109180285D01*
X172870761Y-109323142D01*
X172775523Y-109418380D01*
X172680285Y-109466000D01*
X172489809Y-109513619D01*
X172346952Y-109513619D01*
X172156476Y-109466000D01*
X172061238Y-109418380D01*
X171966000Y-109323142D01*
X171918380Y-109180285D01*
X171918380Y-109085047D01*
X171966000Y-108942190D01*
X172013619Y-108894571D01*
X171918380Y-108561238D02*
X171918380Y-107942190D01*
X172299333Y-108275523D01*
X172299333Y-108132666D01*
X172346952Y-108037428D01*
X172394571Y-107989809D01*
X172489809Y-107942190D01*
X172727904Y-107942190D01*
X172823142Y-107989809D01*
X172870761Y-108037428D01*
X172918380Y-108132666D01*
X172918380Y-108418380D01*
X172870761Y-108513619D01*
X172823142Y-108561238D01*
X149693333Y-113280000D02*
X149645714Y-113313333D01*
X149502857Y-113346666D01*
X149407619Y-113346666D01*
X149264761Y-113313333D01*
X149169523Y-113246666D01*
X149121904Y-113180000D01*
X149074285Y-113046666D01*
X149074285Y-112946666D01*
X149121904Y-112813333D01*
X149169523Y-112746666D01*
X149264761Y-112680000D01*
X149407619Y-112646666D01*
X149502857Y-112646666D01*
X149645714Y-112680000D01*
X149693333Y-112713333D01*
X150026666Y-112646666D02*
X150645714Y-112646666D01*
X150312380Y-112913333D01*
X150455238Y-112913333D01*
X150550476Y-112946666D01*
X150598095Y-112980000D01*
X150645714Y-113046666D01*
X150645714Y-113213333D01*
X150598095Y-113280000D01*
X150550476Y-113313333D01*
X150455238Y-113346666D01*
X150169523Y-113346666D01*
X150074285Y-113313333D01*
X150026666Y-113280000D01*
X185224380Y-116006476D02*
X184748190Y-116339809D01*
X185224380Y-116577904D02*
X184224380Y-116577904D01*
X184224380Y-116196952D01*
X184272000Y-116101714D01*
X184319619Y-116054095D01*
X184414857Y-116006476D01*
X184557714Y-116006476D01*
X184652952Y-116054095D01*
X184700571Y-116101714D01*
X184748190Y-116196952D01*
X184748190Y-116577904D01*
X185224380Y-115577904D02*
X184224380Y-115577904D01*
X185224380Y-115006476D01*
X184224380Y-115006476D01*
X184224380Y-114101714D02*
X184224380Y-114292190D01*
X184272000Y-114387428D01*
X184319619Y-114435047D01*
X184462476Y-114530285D01*
X184652952Y-114577904D01*
X185033904Y-114577904D01*
X185129142Y-114530285D01*
X185176761Y-114482666D01*
X185224380Y-114387428D01*
X185224380Y-114196952D01*
X185176761Y-114101714D01*
X185129142Y-114054095D01*
X185033904Y-114006476D01*
X184795809Y-114006476D01*
X184700571Y-114054095D01*
X184652952Y-114101714D01*
X184605333Y-114196952D01*
X184605333Y-114387428D01*
X184652952Y-114482666D01*
X184700571Y-114530285D01*
X184795809Y-114577904D01*
X98438095Y-74552380D02*
X98438095Y-75361904D01*
X98485714Y-75457142D01*
X98533333Y-75504761D01*
X98628571Y-75552380D01*
X98819047Y-75552380D01*
X98914285Y-75504761D01*
X98961904Y-75457142D01*
X99009523Y-75361904D01*
X99009523Y-74552380D01*
X99390476Y-74552380D02*
X100009523Y-74552380D01*
X99676190Y-74933333D01*
X99819047Y-74933333D01*
X99914285Y-74980952D01*
X99961904Y-75028571D01*
X100009523Y-75123809D01*
X100009523Y-75361904D01*
X99961904Y-75457142D01*
X99914285Y-75504761D01*
X99819047Y-75552380D01*
X99533333Y-75552380D01*
X99438095Y-75504761D01*
X99390476Y-75457142D01*
X162655261Y-94845119D02*
X162560023Y-94797500D01*
X162464785Y-94702261D01*
X162321928Y-94559404D01*
X162226690Y-94511785D01*
X162131452Y-94511785D01*
X162179071Y-94749880D02*
X162083833Y-94702261D01*
X161988595Y-94607023D01*
X161940976Y-94416547D01*
X161940976Y-94083214D01*
X161988595Y-93892738D01*
X162083833Y-93797500D01*
X162179071Y-93749880D01*
X162369547Y-93749880D01*
X162464785Y-93797500D01*
X162560023Y-93892738D01*
X162607642Y-94083214D01*
X162607642Y-94416547D01*
X162560023Y-94607023D01*
X162464785Y-94702261D01*
X162369547Y-94749880D01*
X162179071Y-94749880D01*
X162940976Y-93749880D02*
X163607642Y-93749880D01*
X163179071Y-94749880D01*
X168870380Y-112847333D02*
X169584666Y-112847333D01*
X169727523Y-112894952D01*
X169822761Y-112990190D01*
X169870380Y-113133047D01*
X169870380Y-113228285D01*
X169870380Y-112371142D02*
X168870380Y-112371142D01*
X168870380Y-111990190D01*
X168918000Y-111894952D01*
X168965619Y-111847333D01*
X169060857Y-111799714D01*
X169203714Y-111799714D01*
X169298952Y-111847333D01*
X169346571Y-111894952D01*
X169394190Y-111990190D01*
X169394190Y-112371142D01*
X169203714Y-110942571D02*
X169870380Y-110942571D01*
X168822761Y-111180666D02*
X169537047Y-111418761D01*
X169537047Y-110799714D01*
X174585380Y-112847333D02*
X175299666Y-112847333D01*
X175442523Y-112894952D01*
X175537761Y-112990190D01*
X175585380Y-113133047D01*
X175585380Y-113228285D01*
X175585380Y-112371142D02*
X174585380Y-112371142D01*
X174585380Y-111990190D01*
X174633000Y-111894952D01*
X174680619Y-111847333D01*
X174775857Y-111799714D01*
X174918714Y-111799714D01*
X175013952Y-111847333D01*
X175061571Y-111894952D01*
X175109190Y-111990190D01*
X175109190Y-112371142D01*
X174585380Y-110894952D02*
X174585380Y-111371142D01*
X175061571Y-111418761D01*
X175013952Y-111371142D01*
X174966333Y-111275904D01*
X174966333Y-111037809D01*
X175013952Y-110942571D01*
X175061571Y-110894952D01*
X175156809Y-110847333D01*
X175394904Y-110847333D01*
X175490142Y-110894952D01*
X175537761Y-110942571D01*
X175585380Y-111037809D01*
X175585380Y-111275904D01*
X175537761Y-111371142D01*
X175490142Y-111418761D01*
X184840666Y-98452380D02*
X184840666Y-99166666D01*
X184793047Y-99309523D01*
X184697809Y-99404761D01*
X184554952Y-99452380D01*
X184459714Y-99452380D01*
X185316857Y-99452380D02*
X185316857Y-98452380D01*
X185697809Y-98452380D01*
X185793047Y-98500000D01*
X185840666Y-98547619D01*
X185888285Y-98642857D01*
X185888285Y-98785714D01*
X185840666Y-98880952D01*
X185793047Y-98928571D01*
X185697809Y-98976190D01*
X185316857Y-98976190D01*
X186221619Y-98452380D02*
X186840666Y-98452380D01*
X186507333Y-98833333D01*
X186650190Y-98833333D01*
X186745428Y-98880952D01*
X186793047Y-98928571D01*
X186840666Y-99023809D01*
X186840666Y-99261904D01*
X186793047Y-99357142D01*
X186745428Y-99404761D01*
X186650190Y-99452380D01*
X186364476Y-99452380D01*
X186269238Y-99404761D01*
X186221619Y-99357142D01*
X170616666Y-98512380D02*
X170616666Y-99226666D01*
X170569047Y-99369523D01*
X170473809Y-99464761D01*
X170330952Y-99512380D01*
X170235714Y-99512380D01*
X171092857Y-99512380D02*
X171092857Y-98512380D01*
X171473809Y-98512380D01*
X171569047Y-98560000D01*
X171616666Y-98607619D01*
X171664285Y-98702857D01*
X171664285Y-98845714D01*
X171616666Y-98940952D01*
X171569047Y-98988571D01*
X171473809Y-99036190D01*
X171092857Y-99036190D01*
X172045238Y-98607619D02*
X172092857Y-98560000D01*
X172188095Y-98512380D01*
X172426190Y-98512380D01*
X172521428Y-98560000D01*
X172569047Y-98607619D01*
X172616666Y-98702857D01*
X172616666Y-98798095D01*
X172569047Y-98940952D01*
X171997619Y-99512380D01*
X172616666Y-99512380D01*
X154773380Y-79700333D02*
X155487666Y-79700333D01*
X155630523Y-79747952D01*
X155725761Y-79843190D01*
X155773380Y-79986047D01*
X155773380Y-80081285D01*
X155773380Y-79224142D02*
X154773380Y-79224142D01*
X154773380Y-78843190D01*
X154821000Y-78747952D01*
X154868619Y-78700333D01*
X154963857Y-78652714D01*
X155106714Y-78652714D01*
X155201952Y-78700333D01*
X155249571Y-78747952D01*
X155297190Y-78843190D01*
X155297190Y-79224142D01*
X155773380Y-77700333D02*
X155773380Y-78271761D01*
X155773380Y-77986047D02*
X154773380Y-77986047D01*
X154916238Y-78081285D01*
X155011476Y-78176523D01*
X155059095Y-78271761D01*
X168981380Y-75048976D02*
X168505190Y-75382309D01*
X168981380Y-75620404D02*
X167981380Y-75620404D01*
X167981380Y-75239452D01*
X168029000Y-75144214D01*
X168076619Y-75096595D01*
X168171857Y-75048976D01*
X168314714Y-75048976D01*
X168409952Y-75096595D01*
X168457571Y-75144214D01*
X168505190Y-75239452D01*
X168505190Y-75620404D01*
X168981380Y-74620404D02*
X167981380Y-74620404D01*
X168981380Y-74048976D01*
X167981380Y-74048976D01*
X168981380Y-73048976D02*
X168981380Y-73620404D01*
X168981380Y-73334690D02*
X167981380Y-73334690D01*
X168124238Y-73429928D01*
X168219476Y-73525166D01*
X168267095Y-73620404D01*
X129520142Y-103639880D02*
X129186809Y-103163690D01*
X128948714Y-103639880D02*
X128948714Y-102639880D01*
X129329666Y-102639880D01*
X129424904Y-102687500D01*
X129472523Y-102735119D01*
X129520142Y-102830357D01*
X129520142Y-102973214D01*
X129472523Y-103068452D01*
X129424904Y-103116071D01*
X129329666Y-103163690D01*
X128948714Y-103163690D01*
X130472523Y-103639880D02*
X129901095Y-103639880D01*
X130186809Y-103639880D02*
X130186809Y-102639880D01*
X130091571Y-102782738D01*
X129996333Y-102877976D01*
X129901095Y-102925595D01*
X131091571Y-102639880D02*
X131186809Y-102639880D01*
X131282047Y-102687500D01*
X131329666Y-102735119D01*
X131377285Y-102830357D01*
X131424904Y-103020833D01*
X131424904Y-103258928D01*
X131377285Y-103449404D01*
X131329666Y-103544642D01*
X131282047Y-103592261D01*
X131186809Y-103639880D01*
X131091571Y-103639880D01*
X130996333Y-103592261D01*
X130948714Y-103544642D01*
X130901095Y-103449404D01*
X130853476Y-103258928D01*
X130853476Y-103020833D01*
X130901095Y-102830357D01*
X130948714Y-102735119D01*
X130996333Y-102687500D01*
X131091571Y-102639880D01*
X150772833Y-103639880D02*
X150439500Y-103163690D01*
X150201404Y-103639880D02*
X150201404Y-102639880D01*
X150582357Y-102639880D01*
X150677595Y-102687500D01*
X150725214Y-102735119D01*
X150772833Y-102830357D01*
X150772833Y-102973214D01*
X150725214Y-103068452D01*
X150677595Y-103116071D01*
X150582357Y-103163690D01*
X150201404Y-103163690D01*
X151106166Y-102639880D02*
X151772833Y-102639880D01*
X151344261Y-103639880D01*
X119731642Y-103639880D02*
X119398309Y-103163690D01*
X119160214Y-103639880D02*
X119160214Y-102639880D01*
X119541166Y-102639880D01*
X119636404Y-102687500D01*
X119684023Y-102735119D01*
X119731642Y-102830357D01*
X119731642Y-102973214D01*
X119684023Y-103068452D01*
X119636404Y-103116071D01*
X119541166Y-103163690D01*
X119160214Y-103163690D01*
X120684023Y-103639880D02*
X120112595Y-103639880D01*
X120398309Y-103639880D02*
X120398309Y-102639880D01*
X120303071Y-102782738D01*
X120207833Y-102877976D01*
X120112595Y-102925595D01*
X121636404Y-103639880D02*
X121064976Y-103639880D01*
X121350690Y-103639880D02*
X121350690Y-102639880D01*
X121255452Y-102782738D01*
X121160214Y-102877976D01*
X121064976Y-102925595D01*
X179030333Y-88145880D02*
X178697000Y-87669690D01*
X178458904Y-88145880D02*
X178458904Y-87145880D01*
X178839857Y-87145880D01*
X178935095Y-87193500D01*
X178982714Y-87241119D01*
X179030333Y-87336357D01*
X179030333Y-87479214D01*
X178982714Y-87574452D01*
X178935095Y-87622071D01*
X178839857Y-87669690D01*
X178458904Y-87669690D01*
X179982714Y-88145880D02*
X179411285Y-88145880D01*
X179697000Y-88145880D02*
X179697000Y-87145880D01*
X179601761Y-87288738D01*
X179506523Y-87383976D01*
X179411285Y-87431595D01*
X178903333Y-91384380D02*
X178570000Y-90908190D01*
X178331904Y-91384380D02*
X178331904Y-90384380D01*
X178712857Y-90384380D01*
X178808095Y-90432000D01*
X178855714Y-90479619D01*
X178903333Y-90574857D01*
X178903333Y-90717714D01*
X178855714Y-90812952D01*
X178808095Y-90860571D01*
X178712857Y-90908190D01*
X178331904Y-90908190D01*
X179760476Y-90717714D02*
X179760476Y-91384380D01*
X179522380Y-90336761D02*
X179284285Y-91051047D01*
X179903333Y-91051047D01*
X178903333Y-94622880D02*
X178570000Y-94146690D01*
X178331904Y-94622880D02*
X178331904Y-93622880D01*
X178712857Y-93622880D01*
X178808095Y-93670500D01*
X178855714Y-93718119D01*
X178903333Y-93813357D01*
X178903333Y-93956214D01*
X178855714Y-94051452D01*
X178808095Y-94099071D01*
X178712857Y-94146690D01*
X178331904Y-94146690D01*
X179284285Y-93718119D02*
X179331904Y-93670500D01*
X179427142Y-93622880D01*
X179665238Y-93622880D01*
X179760476Y-93670500D01*
X179808095Y-93718119D01*
X179855714Y-93813357D01*
X179855714Y-93908595D01*
X179808095Y-94051452D01*
X179236666Y-94622880D01*
X179855714Y-94622880D01*
X178903333Y-97861380D02*
X178570000Y-97385190D01*
X178331904Y-97861380D02*
X178331904Y-96861380D01*
X178712857Y-96861380D01*
X178808095Y-96909000D01*
X178855714Y-96956619D01*
X178903333Y-97051857D01*
X178903333Y-97194714D01*
X178855714Y-97289952D01*
X178808095Y-97337571D01*
X178712857Y-97385190D01*
X178331904Y-97385190D01*
X179760476Y-96861380D02*
X179570000Y-96861380D01*
X179474761Y-96909000D01*
X179427142Y-96956619D01*
X179331904Y-97099476D01*
X179284285Y-97289952D01*
X179284285Y-97670904D01*
X179331904Y-97766142D01*
X179379523Y-97813761D01*
X179474761Y-97861380D01*
X179665238Y-97861380D01*
X179760476Y-97813761D01*
X179808095Y-97766142D01*
X179855714Y-97670904D01*
X179855714Y-97432809D01*
X179808095Y-97337571D01*
X179760476Y-97289952D01*
X179665238Y-97242333D01*
X179474761Y-97242333D01*
X179379523Y-97289952D01*
X179331904Y-97337571D01*
X179284285Y-97432809D01*
X169108380Y-92971857D02*
X168632190Y-93305190D01*
X169108380Y-93543285D02*
X168108380Y-93543285D01*
X168108380Y-93162333D01*
X168156000Y-93067095D01*
X168203619Y-93019476D01*
X168298857Y-92971857D01*
X168441714Y-92971857D01*
X168536952Y-93019476D01*
X168584571Y-93067095D01*
X168632190Y-93162333D01*
X168632190Y-93543285D01*
X169108380Y-92019476D02*
X169108380Y-92590904D01*
X169108380Y-92305190D02*
X168108380Y-92305190D01*
X168251238Y-92400428D01*
X168346476Y-92495666D01*
X168394095Y-92590904D01*
X168203619Y-91638523D02*
X168156000Y-91590904D01*
X168108380Y-91495666D01*
X168108380Y-91257571D01*
X168156000Y-91162333D01*
X168203619Y-91114714D01*
X168298857Y-91067095D01*
X168394095Y-91067095D01*
X168536952Y-91114714D01*
X169108380Y-91686142D01*
X169108380Y-91067095D01*
X172283380Y-93162357D02*
X171807190Y-93495690D01*
X172283380Y-93733785D02*
X171283380Y-93733785D01*
X171283380Y-93352833D01*
X171331000Y-93257595D01*
X171378619Y-93209976D01*
X171473857Y-93162357D01*
X171616714Y-93162357D01*
X171711952Y-93209976D01*
X171759571Y-93257595D01*
X171807190Y-93352833D01*
X171807190Y-93733785D01*
X172283380Y-92209976D02*
X172283380Y-92781404D01*
X172283380Y-92495690D02*
X171283380Y-92495690D01*
X171426238Y-92590928D01*
X171521476Y-92686166D01*
X171569095Y-92781404D01*
X171283380Y-91876642D02*
X171283380Y-91257595D01*
X171664333Y-91590928D01*
X171664333Y-91448071D01*
X171711952Y-91352833D01*
X171759571Y-91305214D01*
X171854809Y-91257595D01*
X172092904Y-91257595D01*
X172188142Y-91305214D01*
X172235761Y-91352833D01*
X172283380Y-91448071D01*
X172283380Y-91733785D01*
X172235761Y-91829023D01*
X172188142Y-91876642D01*
X107952380Y-102699666D02*
X107476190Y-103033000D01*
X107952380Y-103271095D02*
X106952380Y-103271095D01*
X106952380Y-102890142D01*
X107000000Y-102794904D01*
X107047619Y-102747285D01*
X107142857Y-102699666D01*
X107285714Y-102699666D01*
X107380952Y-102747285D01*
X107428571Y-102794904D01*
X107476190Y-102890142D01*
X107476190Y-103271095D01*
X107380952Y-102128238D02*
X107333333Y-102223476D01*
X107285714Y-102271095D01*
X107190476Y-102318714D01*
X107142857Y-102318714D01*
X107047619Y-102271095D01*
X107000000Y-102223476D01*
X106952380Y-102128238D01*
X106952380Y-101937761D01*
X107000000Y-101842523D01*
X107047619Y-101794904D01*
X107142857Y-101747285D01*
X107190476Y-101747285D01*
X107285714Y-101794904D01*
X107333333Y-101842523D01*
X107380952Y-101937761D01*
X107380952Y-102128238D01*
X107428571Y-102223476D01*
X107476190Y-102271095D01*
X107571428Y-102318714D01*
X107761904Y-102318714D01*
X107857142Y-102271095D01*
X107904761Y-102223476D01*
X107952380Y-102128238D01*
X107952380Y-101937761D01*
X107904761Y-101842523D01*
X107857142Y-101794904D01*
X107761904Y-101747285D01*
X107571428Y-101747285D01*
X107476190Y-101794904D01*
X107428571Y-101842523D01*
X107380952Y-101937761D01*
X93252380Y-103738095D02*
X92252380Y-103738095D01*
X92252380Y-103357142D01*
X92300000Y-103261904D01*
X92347619Y-103214285D01*
X92442857Y-103166666D01*
X92585714Y-103166666D01*
X92680952Y-103214285D01*
X92728571Y-103261904D01*
X92776190Y-103357142D01*
X92776190Y-103738095D01*
X92347619Y-102785714D02*
X92300000Y-102738095D01*
X92252380Y-102642857D01*
X92252380Y-102404761D01*
X92300000Y-102309523D01*
X92347619Y-102261904D01*
X92442857Y-102214285D01*
X92538095Y-102214285D01*
X92680952Y-102261904D01*
X93252380Y-102833333D01*
X93252380Y-102214285D01*
X170314333Y-86272642D02*
X170266714Y-86320261D01*
X170123857Y-86367880D01*
X170028619Y-86367880D01*
X169885761Y-86320261D01*
X169790523Y-86225023D01*
X169742904Y-86129785D01*
X169695285Y-85939309D01*
X169695285Y-85796452D01*
X169742904Y-85605976D01*
X169790523Y-85510738D01*
X169885761Y-85415500D01*
X170028619Y-85367880D01*
X170123857Y-85367880D01*
X170266714Y-85415500D01*
X170314333Y-85463119D01*
X171266714Y-86367880D02*
X170695285Y-86367880D01*
X170981000Y-86367880D02*
X170981000Y-85367880D01*
X170885761Y-85510738D01*
X170790523Y-85605976D01*
X170695285Y-85653595D01*
X103057142Y-94207142D02*
X103009523Y-94254761D01*
X102866666Y-94302380D01*
X102771428Y-94302380D01*
X102628571Y-94254761D01*
X102533333Y-94159523D01*
X102485714Y-94064285D01*
X102438095Y-93873809D01*
X102438095Y-93730952D01*
X102485714Y-93540476D01*
X102533333Y-93445238D01*
X102628571Y-93350000D01*
X102771428Y-93302380D01*
X102866666Y-93302380D01*
X103009523Y-93350000D01*
X103057142Y-93397619D01*
X104009523Y-94302380D02*
X103438095Y-94302380D01*
X103723809Y-94302380D02*
X103723809Y-93302380D01*
X103628571Y-93445238D01*
X103533333Y-93540476D01*
X103438095Y-93588095D01*
X104580952Y-93730952D02*
X104485714Y-93683333D01*
X104438095Y-93635714D01*
X104390476Y-93540476D01*
X104390476Y-93492857D01*
X104438095Y-93397619D01*
X104485714Y-93350000D01*
X104580952Y-93302380D01*
X104771428Y-93302380D01*
X104866666Y-93350000D01*
X104914285Y-93397619D01*
X104961904Y-93492857D01*
X104961904Y-93540476D01*
X104914285Y-93635714D01*
X104866666Y-93683333D01*
X104771428Y-93730952D01*
X104580952Y-93730952D01*
X104485714Y-93778571D01*
X104438095Y-93826190D01*
X104390476Y-93921428D01*
X104390476Y-94111904D01*
X104438095Y-94207142D01*
X104485714Y-94254761D01*
X104580952Y-94302380D01*
X104771428Y-94302380D01*
X104866666Y-94254761D01*
X104914285Y-94207142D01*
X104961904Y-94111904D01*
X104961904Y-93921428D01*
X104914285Y-93826190D01*
X104866666Y-93778571D01*
X104771428Y-93730952D01*
X151518880Y-92813095D02*
X150518880Y-92813095D01*
X150518880Y-92432142D01*
X150566500Y-92336904D01*
X150614119Y-92289285D01*
X150709357Y-92241666D01*
X150852214Y-92241666D01*
X150947452Y-92289285D01*
X150995071Y-92336904D01*
X151042690Y-92432142D01*
X151042690Y-92813095D01*
X150518880Y-91908333D02*
X150518880Y-91289285D01*
X150899833Y-91622619D01*
X150899833Y-91479761D01*
X150947452Y-91384523D01*
X150995071Y-91336904D01*
X151090309Y-91289285D01*
X151328404Y-91289285D01*
X151423642Y-91336904D01*
X151471261Y-91384523D01*
X151518880Y-91479761D01*
X151518880Y-91765476D01*
X151471261Y-91860714D01*
X151423642Y-91908333D01*
X99550000Y-90200000D02*
X99516666Y-90233333D01*
X99416666Y-90266666D01*
X99350000Y-90266666D01*
X99250000Y-90233333D01*
X99183333Y-90166666D01*
X99150000Y-90100000D01*
X99116666Y-89966666D01*
X99116666Y-89866666D01*
X99150000Y-89733333D01*
X99183333Y-89666666D01*
X99250000Y-89600000D01*
X99350000Y-89566666D01*
X99416666Y-89566666D01*
X99516666Y-89600000D01*
X99550000Y-89633333D01*
X99816666Y-89633333D02*
X99850000Y-89600000D01*
X99916666Y-89566666D01*
X100083333Y-89566666D01*
X100150000Y-89600000D01*
X100183333Y-89633333D01*
X100216666Y-89700000D01*
X100216666Y-89766666D01*
X100183333Y-89866666D01*
X99783333Y-90266666D01*
X100216666Y-90266666D01*
X100483333Y-89633333D02*
X100516666Y-89600000D01*
X100583333Y-89566666D01*
X100750000Y-89566666D01*
X100816666Y-89600000D01*
X100850000Y-89633333D01*
X100883333Y-89700000D01*
X100883333Y-89766666D01*
X100850000Y-89866666D01*
X100450000Y-90266666D01*
X100883333Y-90266666D01*
X99323195Y-83147380D02*
X99323195Y-83956904D01*
X99370814Y-84052142D01*
X99418433Y-84099761D01*
X99513671Y-84147380D01*
X99704147Y-84147380D01*
X99799385Y-84099761D01*
X99847004Y-84052142D01*
X99894623Y-83956904D01*
X99894623Y-83147380D01*
X100799385Y-83480714D02*
X100799385Y-84147380D01*
X100561290Y-83099761D02*
X100323195Y-83814047D01*
X100942242Y-83814047D01*
X182852380Y-71738095D02*
X181852380Y-71738095D01*
X181852380Y-71357142D01*
X181900000Y-71261904D01*
X181947619Y-71214285D01*
X182042857Y-71166666D01*
X182185714Y-71166666D01*
X182280952Y-71214285D01*
X182328571Y-71261904D01*
X182376190Y-71357142D01*
X182376190Y-71738095D01*
X182185714Y-70309523D02*
X182852380Y-70309523D01*
X181804761Y-70547619D02*
X182519047Y-70785714D01*
X182519047Y-70166666D01*
X180665380Y-76541190D02*
X179665380Y-76541190D01*
X180570142Y-75493571D02*
X180617761Y-75541190D01*
X180665380Y-75684047D01*
X180665380Y-75779285D01*
X180617761Y-75922142D01*
X180522523Y-76017380D01*
X180427285Y-76065000D01*
X180236809Y-76112619D01*
X180093952Y-76112619D01*
X179903476Y-76065000D01*
X179808238Y-76017380D01*
X179713000Y-75922142D01*
X179665380Y-75779285D01*
X179665380Y-75684047D01*
X179713000Y-75541190D01*
X179760619Y-75493571D01*
X180665380Y-74541190D02*
X180665380Y-75112619D01*
X180665380Y-74826904D02*
X179665380Y-74826904D01*
X179808238Y-74922142D01*
X179903476Y-75017380D01*
X179951095Y-75112619D01*
X138596809Y-114371380D02*
X138596809Y-113371380D01*
X139644428Y-114276142D02*
X139596809Y-114323761D01*
X139453952Y-114371380D01*
X139358714Y-114371380D01*
X139215857Y-114323761D01*
X139120619Y-114228523D01*
X139073000Y-114133285D01*
X139025380Y-113942809D01*
X139025380Y-113799952D01*
X139073000Y-113609476D01*
X139120619Y-113514238D01*
X139215857Y-113419000D01*
X139358714Y-113371380D01*
X139453952Y-113371380D01*
X139596809Y-113419000D01*
X139644428Y-113466619D01*
X140025380Y-113466619D02*
X140073000Y-113419000D01*
X140168238Y-113371380D01*
X140406333Y-113371380D01*
X140501571Y-113419000D01*
X140549190Y-113466619D01*
X140596809Y-113561857D01*
X140596809Y-113657095D01*
X140549190Y-113799952D01*
X139977761Y-114371380D01*
X140596809Y-114371380D01*
M02*
