M48
INCH,TZ
T1C0.012
T2C0.016
T3C0.024
T4C0.028
T5C0.030
T6C0.031
T7C0.032
T8C0.035
T9C0.039
T10C0.043
T11C0.047
T12C0.125
%
G90
G05
T1
X36600Y-25600
X36610Y-29070
X36700Y-32600
X36890Y-36969
X37000Y-41000
X37000Y-45900
X37283Y-33780
X37850Y-38900
X39650Y-40450
X40433Y-36811
X40748Y-32618
X41610Y-29780
X41800Y-40100
X45325Y-41550
X45325Y-42800
X45375Y-39300
X45750Y-45400
X47244Y-38130
X47283Y-45394
X48525Y-36700
X49400Y-32625
X49420Y-35250
X51575Y-35325
X51929Y-42323
X53189Y-41102
X54450Y-37925
X54600Y-35225
X55525Y-41000
X55900Y-42175
X56100Y-43700
X57320Y-35217
X57600Y-41900
X58800Y-41700
X59650Y-44450
X59710Y-35070
X59900Y-41600
X59925Y-32600
X60375Y-37200
X60925Y-34744
X61020Y-32600
X61024Y-33504
X61400Y-42000
X61560Y-29780
X62000Y-35400
X63140Y-31160
X63800Y-37300
X64350Y-41122
X64685Y-26575
X65500Y-35325
X65500Y-43200
X65825Y-40725
X65950Y-32875
X66300Y-26400
X66457Y-28681
X66550Y-39650
X66675Y-43300
X68300Y-41700
X68445Y-28189
X68976Y-43661
X69094Y-41850
X69100Y-33150
X69200Y-40700
X69600Y-26850
X70950Y-25400
X72000Y-44150
X72200Y-32930
X72200Y-42100
X72425Y-38825
X73000Y-45800
X73600Y-25700
X73740Y-35500
X74600Y-27800
T2
X45433Y-36102
X45984Y-38071
X47894Y-37343
X47894Y-37657
X47895Y-37009
X48200Y-36450
X48226Y-35100
X49580Y-36745
X49897Y-36920
X50125Y-37172
X57600Y-27146
X57757Y-28151
X62075Y-36416
X69578Y-37409
X69800Y-35650
X69841Y-37566
X70048Y-35400
X70125Y-37724
X70354Y-35523
X71193Y-27466
X73425Y-30177
X73425Y-30531
X73691Y-31472
T3
X65750Y-37600
X66250Y-38100
X66750Y-37600
T4
X44700Y-35100
X46700Y-35100
X49100Y-44200
X51100Y-44200
X51400Y-36250
X53400Y-36250
X61550Y-34800
X61550Y-36800
X62795Y-34800
X62795Y-36800
X67000Y-35150
X67000Y-36150
X69000Y-35150
X69000Y-36150
X71000Y-35925
X71000Y-37925
X72510Y-30147
X72510Y-31067
X74510Y-30147
X74510Y-31067
T5
X46500Y-38700
X67738Y-32062
X67800Y-43400
X72264Y-26997
T6
X36800Y-38050
X36800Y-43050
X37800Y-38050
X37800Y-43050
X38800Y-38050
X38800Y-43050
X39800Y-38050
X39800Y-43050
X40800Y-38050
X40800Y-43050
X41300Y-35669
X41300Y-36950
X41800Y-38050
X41800Y-43050
X42284Y-35669
X42284Y-36950
X42800Y-38050
X42800Y-43050
X43504Y-31102
X43504Y-35102
X43800Y-38050
X43800Y-43050
X45100Y-26016
X45100Y-27000
X45250Y-33300
X46234Y-33300
X47050Y-30350
X47400Y-42100
X47400Y-43084
X47500Y-41000
X47700Y-32716
X47700Y-33700
X47700Y-34616
X47700Y-35600
X47719Y-27397
X48500Y-41000
X48700Y-42100
X48700Y-43084
X49500Y-41000
X49516Y-26250
X50000Y-27700
X50000Y-42100
X50000Y-43084
X50500Y-26250
X50500Y-41000
X51000Y-27700
X51300Y-42100
X51300Y-43084
X51500Y-41000
X52000Y-27700
X52500Y-41000
X52600Y-42100
X52600Y-43084
X53000Y-27700
X53900Y-41000
X53900Y-42000
X53900Y-43000
X53900Y-44000
X54000Y-27700
X55000Y-27700
X56000Y-27700
X56900Y-41000
X56900Y-42000
X56900Y-43000
X56900Y-44000
X57000Y-27700
X58200Y-42100
X58200Y-43084
X58300Y-41000
X58500Y-26000
X58500Y-27700
X59300Y-41000
X59500Y-26000
X59500Y-27700
X59500Y-42100
X59500Y-43084
X60300Y-41000
X60500Y-26000
X60500Y-27700
X60800Y-42100
X60800Y-43084
X61300Y-41000
X61500Y-26000
X61500Y-27700
X62070Y-45240
X62100Y-42100
X62100Y-43084
X62125Y-29150
X62125Y-32150
X62300Y-41000
X62500Y-26000
X62500Y-27700
X63054Y-45240
X63125Y-29150
X63125Y-32150
X63300Y-41000
X63400Y-42100
X63400Y-43084
X63500Y-26000
X63500Y-27700
X64125Y-29150
X64125Y-32150
X64500Y-26000
X64500Y-27700
X64800Y-45400
X65125Y-29150
X65125Y-32150
X65500Y-26000
X65500Y-27700
X65800Y-45400
X66500Y-27700
X66800Y-45400
X67800Y-45400
X68800Y-39800
X68800Y-42800
X68800Y-45400
X69075Y-26240
X69800Y-39800
X69800Y-42800
X69800Y-45400
X70059Y-26240
X70120Y-30500
X70800Y-39800
X70800Y-42800
X70800Y-45400
X71104Y-30500
X71800Y-39800
X71800Y-42800
X71800Y-45400
X71925Y-28250
X71925Y-29234
T7
X46471Y-26234
X49071Y-45234
X50071Y-45234
X51071Y-45234
X51471Y-26234
X52071Y-45234
X52471Y-26234
X53071Y-45234
X54071Y-26234
X55071Y-26234
X56071Y-26234
X56071Y-45234
X57071Y-26234
X57071Y-45234
X58071Y-45234
X59071Y-45234
X60071Y-45234
X61071Y-45234
X64800Y-44100
X65800Y-44100
X66496Y-30500
X67071Y-26234
X67496Y-30500
X67500Y-39800
X67500Y-40800
X67500Y-41800
X68071Y-26234
X68496Y-30500
X69800Y-44100
X70800Y-44100
X73071Y-26234
X73071Y-27234
X73071Y-28234
X73071Y-35234
X73071Y-43234
X73100Y-39800
X73100Y-40800
X73100Y-41800
X74071Y-26234
X74071Y-27234
X74071Y-28234
X74071Y-29234
X74071Y-43234
T8
X74500Y-32000
X74500Y-33000
X74500Y-34000
X74500Y-35000
X74500Y-36000
X74500Y-37000
X74500Y-38000
X74500Y-39000
T9
X42306Y-28650
X42306Y-29650
X42306Y-30650
X42306Y-31650
X42306Y-32650
X42306Y-33650
X45075Y-28900
X45075Y-29900
X45075Y-30900
X49500Y-29475
X49500Y-31700
X50500Y-29475
X50500Y-31700
X51500Y-29475
X51500Y-31700
X53900Y-29475
X53900Y-31700
X54900Y-29475
X54900Y-31700
X55900Y-29475
X55900Y-31700
X58275Y-31700
X58300Y-29475
X59275Y-31700
X59300Y-29475
X60275Y-31700
X60300Y-29475
T10
X40800Y-41700
X43500Y-36250
X43504Y-27079
X43504Y-30079
X43800Y-41700
X46500Y-36250
X67500Y-27500
X67500Y-28700
X70500Y-27500
X70500Y-28700
T11
X36800Y-44850
X37800Y-44850
X38800Y-44850
X39800Y-44850
X49100Y-33980
X49100Y-38940
X50100Y-33980
X50100Y-38940
X51100Y-33980
X51100Y-38940
X52100Y-33980
X52100Y-38940
X53100Y-33980
X53100Y-38940
X54100Y-33980
X54100Y-38940
X55100Y-33980
X55100Y-38940
X56100Y-33980
X56100Y-38940
X57100Y-33980
X57100Y-38940
X58100Y-33980
X58100Y-38940
X59100Y-33980
X59100Y-38940
X60100Y-33980
X60100Y-38940
X61100Y-38940
X62100Y-38940
X63100Y-38940
X64100Y-38940
X66500Y-32000
X66500Y-33750
X71500Y-32000
X71500Y-33750
T12
X41571Y-45234
X42071Y-26234
X71571Y-26234
X74071Y-45234
T0
M30
