G04 #@! TF.FileFunction,Soldermask,Bot*
%FSLAX46Y46*%
G04 Gerber Fmt 4.6, Leading zero omitted, Abs format (unit mm)*
G04 Created by KiCad (PCBNEW 4.0.5) date 04/26/17 22:05:07*
%MOMM*%
%LPD*%
G01*
G04 APERTURE LIST*
%ADD10C,0.100000*%
%ADD11R,2.200000X2.800000*%
%ADD12O,2.200000X2.800000*%
%ADD13C,1.800000*%
%ADD14C,1.600000*%
%ADD15O,1.600000X1.600000*%
%ADD16C,2.600000*%
%ADD17O,2.600000X2.600000*%
%ADD18O,1.800000X1.800000*%
%ADD19R,1.800000X1.800000*%
%ADD20C,2.000000*%
%ADD21R,2.000000X2.000000*%
%ADD22O,2.000000X2.000000*%
%ADD23R,2.400000X2.400000*%
%ADD24O,2.400000X2.400000*%
%ADD25R,1.900000X1.900000*%
%ADD26O,1.900000X1.900000*%
%ADD27C,4.200000*%
%ADD28C,1.200000*%
%ADD29R,1.200000X1.200000*%
%ADD30O,1.724000X2.740000*%
%ADD31C,4.137000*%
%ADD32C,1.724000*%
G04 APERTURE END LIST*
D10*
D11*
X124714000Y-86309200D03*
D12*
X127254000Y-86309200D03*
X129794000Y-86309200D03*
X132334000Y-86309200D03*
X134874000Y-86309200D03*
X137414000Y-86309200D03*
X139954000Y-86309200D03*
X142494000Y-86309200D03*
X145034000Y-86309200D03*
X147574000Y-86309200D03*
X150114000Y-86309200D03*
X152654000Y-86309200D03*
D13*
X123698000Y-109434000D03*
X123698000Y-106934000D03*
D14*
X129794000Y-112268000D03*
D15*
X124714000Y-112268000D03*
D14*
X170180000Y-89281000D03*
D15*
X175260000Y-89281000D03*
D16*
X168910000Y-85725000D03*
D17*
X181610000Y-85725000D03*
D14*
X170180000Y-91821000D03*
D15*
X175260000Y-91821000D03*
D13*
X110500000Y-79000000D03*
D18*
X110500000Y-89160000D03*
D14*
X159500000Y-88392000D03*
D15*
X159500000Y-93472000D03*
D14*
X156337000Y-88392000D03*
D15*
X156337000Y-93472000D03*
D19*
X114554000Y-68580000D03*
D13*
X114554000Y-66080000D03*
D19*
X114935000Y-84582000D03*
D13*
X117435000Y-84582000D03*
D20*
X121207000Y-69589000D03*
X119507000Y-77089000D03*
D19*
X144780000Y-70358000D03*
D18*
X142240000Y-70358000D03*
X139700000Y-70358000D03*
X137160000Y-70358000D03*
X134620000Y-70358000D03*
X132080000Y-70358000D03*
X129540000Y-70358000D03*
X127000000Y-70358000D03*
D19*
X148590000Y-66040000D03*
D18*
X151130000Y-66040000D03*
X153670000Y-66040000D03*
X156210000Y-66040000D03*
X158750000Y-66040000D03*
X161290000Y-66040000D03*
X163830000Y-66040000D03*
X166370000Y-66040000D03*
D19*
X133350000Y-104140000D03*
D18*
X130810000Y-104140000D03*
X128270000Y-104140000D03*
X125730000Y-104140000D03*
X123190000Y-104140000D03*
X120650000Y-104140000D03*
D19*
X148082000Y-104140000D03*
D18*
X150622000Y-104140000D03*
X153162000Y-104140000D03*
X155702000Y-104140000D03*
X158242000Y-104140000D03*
X160782000Y-104140000D03*
D19*
X148590000Y-70358000D03*
D18*
X151130000Y-70358000D03*
X153670000Y-70358000D03*
X156210000Y-70358000D03*
X158750000Y-70358000D03*
X161290000Y-70358000D03*
X163830000Y-70358000D03*
X166370000Y-70358000D03*
X168910000Y-70358000D03*
D21*
X136906000Y-80518000D03*
D22*
X139446000Y-80518000D03*
X141986000Y-80518000D03*
D21*
X125730000Y-80518000D03*
D22*
X128270000Y-80518000D03*
X130810000Y-80518000D03*
D21*
X125730000Y-74866500D03*
D22*
X128270000Y-74866500D03*
X130810000Y-74866500D03*
D21*
X136906000Y-74866500D03*
D22*
X139446000Y-74866500D03*
X141986000Y-74866500D03*
D21*
X148018500Y-80518000D03*
D22*
X150558500Y-80518000D03*
X153098500Y-80518000D03*
D21*
X148082000Y-74866500D03*
D22*
X150622000Y-74866500D03*
X153162000Y-74866500D03*
D21*
X189230000Y-99060000D03*
D20*
X189230000Y-96520000D03*
D21*
X189230000Y-93980000D03*
D20*
X189230000Y-91440000D03*
D21*
X189230000Y-88900000D03*
D20*
X189230000Y-86360000D03*
D21*
X189230000Y-83820000D03*
D20*
X189230000Y-81280000D03*
D19*
X165417500Y-74041000D03*
D18*
X157797500Y-81661000D03*
X162877500Y-74041000D03*
X160337500Y-81661000D03*
X160337500Y-74041000D03*
X162877500Y-81661000D03*
X157797500Y-74041000D03*
X165417500Y-81661000D03*
D23*
X103632000Y-105918000D03*
D24*
X111252000Y-105918000D03*
D23*
X118110000Y-92075000D03*
D24*
X110490000Y-92075000D03*
D23*
X110500000Y-76400000D03*
D24*
X110500000Y-68780000D03*
D23*
X171450000Y-72898000D03*
D24*
X179070000Y-72898000D03*
D23*
X171450000Y-69850000D03*
D24*
X179070000Y-69850000D03*
D13*
X177950500Y-66649600D03*
X175450500Y-66649600D03*
X182689500Y-71755000D03*
X182689500Y-74255000D03*
X120396000Y-109434000D03*
X120396000Y-106934000D03*
X104902000Y-90600000D03*
X107402000Y-90600000D03*
X125770000Y-66675000D03*
X128270000Y-66675000D03*
X133604000Y-106934000D03*
X133604000Y-109434000D03*
X130302000Y-106934000D03*
X130302000Y-109434000D03*
X127000000Y-106934000D03*
X127000000Y-109434000D03*
X121158000Y-83098000D03*
X121158000Y-85598000D03*
X151130000Y-106934000D03*
X151130000Y-109434000D03*
X157657800Y-114909600D03*
X160157800Y-114909600D03*
X161036000Y-106934000D03*
X161036000Y-109434000D03*
X157734000Y-106934000D03*
X157734000Y-109434000D03*
X154432000Y-106934000D03*
X154432000Y-109434000D03*
D16*
X181610000Y-81280000D03*
D17*
X168910000Y-81280000D03*
D21*
X114490500Y-73406000D03*
D22*
X114490500Y-75946000D03*
X114490500Y-78486000D03*
D13*
X121158000Y-90424000D03*
X121158000Y-87924000D03*
D19*
X174752000Y-108712000D03*
D18*
X182372000Y-101092000D03*
X177292000Y-108712000D03*
X179832000Y-101092000D03*
X179832000Y-108712000D03*
X177292000Y-101092000D03*
X182372000Y-108712000D03*
X174752000Y-101092000D03*
D13*
X147828000Y-106934000D03*
X147828000Y-109434000D03*
D19*
X136906000Y-104140000D03*
D18*
X144526000Y-111760000D03*
X136906000Y-106680000D03*
X144526000Y-109220000D03*
X136906000Y-109220000D03*
X144526000Y-106680000D03*
X136906000Y-111760000D03*
X144526000Y-104140000D03*
D14*
X118618000Y-89154000D03*
D15*
X113538000Y-89154000D03*
D19*
X182372000Y-115316000D03*
D18*
X179832000Y-115316000D03*
X177292000Y-115316000D03*
X174752000Y-115316000D03*
X172212000Y-115316000D03*
X169672000Y-115316000D03*
X167132000Y-115316000D03*
X164592000Y-115316000D03*
D11*
X101092000Y-113919000D03*
D12*
X98552000Y-113919000D03*
X96012000Y-113919000D03*
X93472000Y-113919000D03*
D19*
X111252000Y-96647000D03*
D18*
X93472000Y-109347000D03*
X108712000Y-96647000D03*
X96012000Y-109347000D03*
X106172000Y-96647000D03*
X98552000Y-109347000D03*
X103632000Y-96647000D03*
X101092000Y-109347000D03*
X101092000Y-96647000D03*
X103632000Y-109347000D03*
X98552000Y-96647000D03*
X106172000Y-109347000D03*
X96012000Y-96647000D03*
X108712000Y-109347000D03*
X93472000Y-96647000D03*
X111252000Y-109347000D03*
D13*
X180604800Y-77470000D03*
X178104800Y-77470000D03*
X104902000Y-93853000D03*
X107402000Y-93853000D03*
D14*
X189255400Y-78911400D03*
D15*
X184175400Y-78911400D03*
D14*
X189255400Y-76574600D03*
D15*
X184175400Y-76574600D03*
D25*
X107458000Y-85471000D03*
D26*
X107458000Y-82931000D03*
X107458000Y-80391000D03*
X107458000Y-77851000D03*
X107458000Y-75311000D03*
X107458000Y-72771000D03*
D27*
X96068000Y-90678000D03*
X96068000Y-67564000D03*
D14*
X135636000Y-92075000D03*
D15*
X130556000Y-92075000D03*
D14*
X180340000Y-91249500D03*
D15*
X180340000Y-96329500D03*
D28*
X168275000Y-96774000D03*
X167005000Y-95504000D03*
D29*
X169545000Y-95504000D03*
D30*
X170361100Y-66633600D03*
X172901100Y-66633600D03*
X155121100Y-114893600D03*
X152581100Y-114893600D03*
X150041100Y-114893600D03*
X142421100Y-114893600D03*
X144961100Y-114893600D03*
X147501100Y-114893600D03*
X134801100Y-114893600D03*
X132261100Y-114893600D03*
X127181100Y-114893600D03*
X124641100Y-114893600D03*
X144961100Y-66633600D03*
X142421100Y-66633600D03*
X139881100Y-66633600D03*
X137341100Y-66633600D03*
X133277100Y-66633600D03*
X130737100Y-66633600D03*
X118037100Y-66633600D03*
X129721100Y-114893600D03*
D31*
X188141100Y-114893600D03*
X181791100Y-66633600D03*
X106861100Y-66633600D03*
X105591100Y-114893600D03*
D32*
X185601100Y-69173600D03*
X188141100Y-69173600D03*
X185601100Y-66633600D03*
X188141100Y-66633600D03*
X185601100Y-109813600D03*
X188141100Y-109813600D03*
X185601100Y-71713600D03*
X188141100Y-71713600D03*
X188141100Y-74253600D03*
X185601100Y-89493600D03*
D11*
X124714000Y-98907600D03*
D12*
X127254000Y-98907600D03*
X129794000Y-98907600D03*
X132334000Y-98907600D03*
X134874000Y-98907600D03*
X137414000Y-98907600D03*
X139954000Y-98907600D03*
X142494000Y-98907600D03*
X145034000Y-98907600D03*
X147574000Y-98907600D03*
X150114000Y-98907600D03*
X152654000Y-98907600D03*
X155194000Y-98907600D03*
X157734000Y-98907600D03*
X160274000Y-98907600D03*
X162814000Y-98907600D03*
D25*
X164592000Y-112014000D03*
D26*
X167132000Y-112014000D03*
D25*
X179832000Y-112014000D03*
D26*
X177292000Y-112014000D03*
D25*
X185674000Y-106172000D03*
D26*
X185674000Y-103632000D03*
X185674000Y-101092000D03*
D25*
X171450000Y-106172000D03*
D26*
X171450000Y-103632000D03*
X171450000Y-101092000D03*
D25*
X173980000Y-77470000D03*
D26*
X171440000Y-77470000D03*
X168900000Y-77470000D03*
M02*
